{"sequences": [{"genre": "ambient", "mode": "sleep", "tracks": [{"name": "Melody \u2014 New Age Pad", "program": 88, "role": "melody", "totalDuration": 60, "notes": [{"note": 65, "velocity": 38, "startTime": 0, "duration": 7.2}, {"note": 62, "velocity": 32, "startTime": 8.1, "duration": 6.8}, {"note": 67, "velocity": 40, "startTime": 16.3, "duration": 8.0}, {"note": 65, "velocity": 35, "startTime": 25.6, "duration": 6.5}, {"note": 60, "velocity": 30, "startTime": 33.4, "duration": 7.8}, {"note": 62, "velocity": 36, "startTime": 42.5, "duration": 7.0}, {"note": 65, "velocity": 33, "startTime": 51.0, "duration": 8.5}]}, {"name": "Bass Drone \u2014 Warm Pad", "program": 89, "role": "bass", "totalDuration": 60, "notes": [{"note": 41, "velocity": 42, "startTime": 0, "duration": 14.5}, {"note": 41, "velocity": 38, "startTime": 15.0, "duration": 14.8}, {"note": 36, "velocity": 40, "startTime": 30.2, "duration": 14.5}, {"note": 41, "velocity": 36, "startTime": 45.2, "duration": 14.5}]}, {"name": "Chord Pad \u2014 Choir Pad", "program": 91, "role": "chords", "totalDuration": 60, "notes": [{"note": 53, "velocity": 44, "startTime": 0, "duration": 14.0}, {"note": 60, "velocity": 40, "startTime": 0, "duration": 14.0}, {"note": 67, "velocity": 36, "startTime": 0, "duration": 14.0}, {"note": 53, "velocity": 40, "startTime": 15.2, "duration": 14.5}, {"note": 60, "velocity": 36, "startTime": 15.2, "duration": 14.5}, {"note": 65, "velocity": 32, "startTime": 15.2, "duration": 14.5}, {"note": 48, "velocity": 42, "startTime": 30.5, "duration": 14.0}, {"note": 55, "velocity": 38, "startTime": 30.5, "duration": 14.0}, {"note": 62, "velocity": 34, "startTime": 30.5, "duration": 14.0}, {"note": 53, "velocity": 38, "startTime": 45.3, "duration": 14.5}, {"note": 60, "velocity": 34, "startTime": 45.3, "duration": 14.5}, {"note": 67, "velocity": 30, "startTime": 45.3, "duration": 14.5}]}, {"name": "Texture \u2014 Sweep Pad", "program": 95, "role": "texture", "totalDuration": 60, "notes": [{"note": 55, "velocity": 28, "startTime": 3.5, "duration": 18.0}, {"note": 62, "velocity": 24, "startTime": 4.0, "duration": 16.0}, {"note": 53, "velocity": 26, "startTime": 22.0, "duration": 18.5}, {"note": 60, "velocity": 22, "startTime": 23.0, "duration": 16.0}, {"note": 50, "velocity": 28, "startTime": 40.5, "duration": 19.0}, {"note": 57, "velocity": 24, "startTime": 41.5, "duration": 18.0}]}], "key": "F", "bpm": 48, "scale": "suspended"}, {"genre": "ambient", "mode": "relaxation", "tracks": [{"name": "Melody \u2014 New Age Pad", "program": 88, "role": "melody", "totalDuration": 56.0, "notes": [{"note": 64, "velocity": 42, "startTime": 0, "duration": 6.5}, {"note": 67, "velocity": 38, "startTime": 7.2, "duration": 5.0}, {"note": 69, "velocity": 44, "startTime": 13.0, "duration": 7.5}, {"note": 67, "velocity": 36, "startTime": 21.5, "duration": 5.5}, {"note": 64, "velocity": 40, "startTime": 28.0, "duration": 6.0}, {"note": 71, "velocity": 45, "startTime": 35.2, "duration": 5.5}, {"note": 69, "velocity": 38, "startTime": 41.8, "duration": 6.0}, {"note": 72, "velocity": 42, "startTime": 48.5, "duration": 7.0}]}, {"name": "Bass Drone \u2014 Warm Pad", "program": 89, "role": "bass", "totalDuration": 56.0, "notes": [{"note": 41, "velocity": 45, "startTime": 0, "duration": 14.0}, {"note": 40, "velocity": 42, "startTime": 14.5, "duration": 13.5}, {"note": 41, "velocity": 44, "startTime": 28.5, "duration": 13.0}, {"note": 43, "velocity": 40, "startTime": 42.0, "duration": 14.0}]}, {"name": "Chord Pads \u2014 Choir Pad", "program": 91, "role": "chords", "totalDuration": 56.0, "notes": [{"note": 53, "velocity": 38, "startTime": 0.2, "duration": 13.5}, {"note": 57, "velocity": 36, "startTime": 0.4, "duration": 13.5}, {"note": 62, "velocity": 34, "startTime": 0.6, "duration": 13.5}, {"note": 67, "velocity": 32, "startTime": 0.8, "duration": 13.5}, {"note": 52, "velocity": 36, "startTime": 14.8, "duration": 13.0}, {"note": 57, "velocity": 35, "startTime": 15.0, "duration": 13.0}, {"note": 60, "velocity": 33, "startTime": 15.2, "duration": 13.0}, {"note": 65, "velocity": 31, "startTime": 15.4, "duration": 13.0}, {"note": 53, "velocity": 37, "startTime": 28.8, "duration": 12.5}, {"note": 57, "velocity": 35, "startTime": 29.0, "duration": 12.5}, {"note": 62, "velocity": 33, "startTime": 29.2, "duration": 12.5}, {"note": 67, "velocity": 31, "startTime": 29.4, "duration": 12.5}, {"note": 55, "velocity": 36, "startTime": 42.2, "duration": 13.5}, {"note": 59, "velocity": 34, "startTime": 42.4, "duration": 13.5}, {"note": 62, "velocity": 33, "startTime": 42.6, "duration": 13.5}, {"note": 67, "velocity": 31, "startTime": 42.8, "duration": 13.5}]}, {"name": "Sweep Texture \u2014 Sweep Pad", "program": 95, "role": "texture", "totalDuration": 56.0, "notes": [{"note": 76, "velocity": 28, "startTime": 2.0, "duration": 16.0}, {"note": 74, "velocity": 26, "startTime": 19.5, "duration": 16.0}, {"note": 76, "velocity": 27, "startTime": 36.0, "duration": 19.0}]}], "key": "F", "bpm": 60, "scale": "Lydian"}, {"genre": "ambient", "mode": "focus", "tracks": [{"name": "Melody \u2013 New Age Pad", "program": 88, "role": "melody", "totalDuration": 56, "notes": [{"note": 62, "velocity": 48, "startTime": 0, "duration": 3.2}, {"note": 66, "velocity": 44, "startTime": 3.4, "duration": 2.8}, {"note": 69, "velocity": 50, "startTime": 6.4, "duration": 4.0}, {"note": 66, "velocity": 42, "startTime": 10.6, "duration": 2.6}, {"note": 62, "velocity": 46, "startTime": 13.4, "duration": 3.4}, {"note": 64, "velocity": 44, "startTime": 17.0, "duration": 2.4}, {"note": 69, "velocity": 52, "startTime": 19.6, "duration": 4.2}, {"note": 71, "velocity": 48, "startTime": 24.0, "duration": 3.0}, {"note": 69, "velocity": 44, "startTime": 27.2, "duration": 2.8}, {"note": 66, "velocity": 46, "startTime": 30.2, "duration": 3.2}, {"note": 62, "velocity": 50, "startTime": 33.6, "duration": 2.6}, {"note": 64, "velocity": 42, "startTime": 36.4, "duration": 3.0}, {"note": 69, "velocity": 54, "startTime": 39.6, "duration": 4.4}, {"note": 71, "velocity": 46, "startTime": 44.2, "duration": 3.0}, {"note": 74, "velocity": 50, "startTime": 47.4, "duration": 3.6}, {"note": 69, "velocity": 40, "startTime": 51.2, "duration": 4.2}]}, {"name": "Bass \u2013 Warm Pad", "program": 89, "role": "bass", "totalDuration": 56, "notes": [{"note": 38, "velocity": 45, "startTime": 0, "duration": 7.8}, {"note": 33, "velocity": 42, "startTime": 8.0, "duration": 7.6}, {"note": 35, "velocity": 44, "startTime": 16.2, "duration": 7.8}, {"note": 38, "velocity": 46, "startTime": 24.2, "duration": 7.6}, {"note": 33, "velocity": 43, "startTime": 32.0, "duration": 7.8}, {"note": 35, "velocity": 45, "startTime": 40.0, "duration": 7.6}, {"note": 38, "velocity": 40, "startTime": 48.0, "duration": 7.6}]}, {"name": "Chord Pads \u2013 Choir", "program": 91, "role": "chords", "totalDuration": 56, "notes": [{"note": 62, "velocity": 38, "startTime": 0.2, "duration": 7.6}, {"note": 66, "velocity": 36, "startTime": 0.2, "duration": 7.6}, {"note": 69, "velocity": 34, "startTime": 0.2, "duration": 7.6}, {"note": 74, "velocity": 32, "startTime": 0.2, "duration": 7.6}, {"note": 57, "velocity": 36, "startTime": 8.2, "duration": 7.6}, {"note": 62, "velocity": 34, "startTime": 8.2, "duration": 7.6}, {"note": 66, "velocity": 32, "startTime": 8.2, "duration": 7.6}, {"note": 71, "velocity": 30, "startTime": 8.2, "duration": 7.6}, {"note": 59, "velocity": 38, "startTime": 16.4, "duration": 7.6}, {"note": 62, "velocity": 36, "startTime": 16.4, "duration": 7.6}, {"note": 66, "velocity": 34, "startTime": 16.4, "duration": 7.6}, {"note": 71, "velocity": 32, "startTime": 16.4, "duration": 7.6}, {"note": 62, "velocity": 38, "startTime": 24.4, "duration": 7.6}, {"note": 66, "velocity": 36, "startTime": 24.4, "duration": 7.6}, {"note": 69, "velocity": 34, "startTime": 24.4, "duration": 7.6}, {"note": 74, "velocity": 32, "startTime": 24.4, "duration": 7.6}, {"note": 57, "velocity": 36, "startTime": 32.2, "duration": 7.6}, {"note": 62, "velocity": 34, "startTime": 32.2, "duration": 7.6}, {"note": 66, "velocity": 32, "startTime": 32.2, "duration": 7.6}, {"note": 71, "velocity": 30, "startTime": 32.2, "duration": 7.6}, {"note": 59, "velocity": 38, "startTime": 40.2, "duration": 7.6}, {"note": 64, "velocity": 36, "startTime": 40.2, "duration": 7.6}, {"note": 69, "velocity": 34, "startTime": 40.2, "duration": 7.6}, {"note": 74, "velocity": 32, "startTime": 40.2, "duration": 7.6}, {"note": 62, "velocity": 36, "startTime": 48.2, "duration": 7.4}, {"note": 66, "velocity": 34, "startTime": 48.2, "duration": 7.4}, {"note": 69, "velocity": 32, "startTime": 48.2, "duration": 7.4}, {"note": 74, "velocity": 30, "startTime": 48.2, "duration": 7.4}]}, {"name": "Sweep Texture", "program": 95, "role": "texture", "totalDuration": 56, "notes": [{"note": 74, "velocity": 28, "startTime": 0.6, "duration": 14.0}, {"note": 71, "velocity": 26, "startTime": 15.0, "duration": 13.8}, {"note": 74, "velocity": 30, "startTime": 29.2, "duration": 13.6}, {"note": 76, "velocity": 28, "startTime": 43.0, "duration": 12.6}]}, {"name": "Soft Percussion", "program": 0, "role": "drums", "totalDuration": 56, "notes": [{"note": 51, "velocity": 32, "startTime": 0, "duration": 0.2}, {"note": 51, "velocity": 28, "startTime": 3.33, "duration": 0.2}, {"note": 51, "velocity": 30, "startTime": 6.66, "duration": 0.2}, {"note": 51, "velocity": 28, "startTime": 10.0, "duration": 0.2}, {"note": 51, "velocity": 32, "startTime": 13.33, "duration": 0.2}, {"note": 51, "velocity": 28, "startTime": 16.66, "duration": 0.2}, {"note": 51, "velocity": 30, "startTime": 20.0, "duration": 0.2}, {"note": 51, "velocity": 28, "startTime": 23.33, "duration": 0.2}, {"note": 51, "velocity": 32, "startTime": 26.66, "duration": 0.2}, {"note": 51, "velocity": 28, "startTime": 30.0, "duration": 0.2}, {"note": 51, "velocity": 30, "startTime": 33.33, "duration": 0.2}, {"note": 51, "velocity": 28, "startTime": 36.66, "duration": 0.2}, {"note": 51, "velocity": 32, "startTime": 40.0, "duration": 0.2}, {"note": 51, "velocity": 28, "startTime": 43.33, "duration": 0.2}, {"note": 51, "velocity": 30, "startTime": 46.66, "duration": 0.2}, {"note": 51, "velocity": 28, "startTime": 50.0, "duration": 0.2}, {"note": 51, "velocity": 30, "startTime": 53.33, "duration": 0.2}, {"note": 42, "velocity": 36, "startTime": 0, "duration": 0.15}, {"note": 42, "velocity": 30, "startTime": 1.66, "duration": 0.15}, {"note": 42, "velocity": 34, "startTime": 3.33, "duration": 0.15}, {"note": 42, "velocity": 30, "startTime": 5.0, "duration": 0.15}, {"note": 42, "velocity": 36, "startTime": 6.66, "duration": 0.15}, {"note": 42, "velocity": 30, "startTime": 8.33, "duration": 0.15}, {"note": 42, "velocity": 34, "startTime": 10.0, "duration": 0.15}, {"note": 42, "velocity": 30, "startTime": 11.66, "duration": 0.15}, {"note": 42, "velocity": 36, "startTime": 13.33, "duration": 0.15}, {"note": 42, "velocity": 30, "startTime": 15.0, "duration": 0.15}, {"note": 42, "velocity": 34, "startTime": 16.66, "duration": 0.15}, {"note": 42, "velocity": 30, "startTime": 18.33, "duration": 0.15}, {"note": 42, "velocity": 36, "startTime": 20.0, "duration": 0.15}, {"note": 42, "velocity": 30, "startTime": 21.66, "duration": 0.15}, {"note": 42, "velocity": 34, "startTime": 23.33, "duration": 0.15}, {"note": 42, "velocity": 30, "startTime": 25.0, "duration": 0.15}, {"note": 42, "velocity": 36, "startTime": 26.66, "duration": 0.15}, {"note": 42, "velocity": 30, "startTime": 28.33, "duration": 0.15}, {"note": 42, "velocity": 34, "startTime": 30.0, "duration": 0.15}, {"note": 42, "velocity": 30, "startTime": 31.66, "duration": 0.15}, {"note": 42, "velocity": 36, "startTime": 33.33, "duration": 0.15}, {"note": 42, "velocity": 30, "startTime": 35.0, "duration": 0.15}, {"note": 42, "velocity": 34, "startTime": 36.66, "duration": 0.15}, {"note": 42, "velocity": 30, "startTime": 38.33, "duration": 0.15}, {"note": 42, "velocity": 36, "startTime": 40.0, "duration": 0.15}, {"note": 42, "velocity": 30, "startTime": 41.66, "duration": 0.15}, {"note": 42, "velocity": 34, "startTime": 43.33, "duration": 0.15}, {"note": 42, "velocity": 30, "startTime": 45.0, "duration": 0.15}, {"note": 42, "velocity": 36, "startTime": 46.66, "duration": 0.15}, {"note": 42, "velocity": 30, "startTime": 48.33, "duration": 0.15}, {"note": 42, "velocity": 34, "startTime": 50.0, "duration": 0.15}, {"note": 42, "velocity": 30, "startTime": 51.66, "duration": 0.15}, {"note": 42, "velocity": 36, "startTime": 53.33, "duration": 0.15}, {"note": 42, "velocity": 30, "startTime": 55.0, "duration": 0.15}, {"note": 36, "velocity": 42, "startTime": 0, "duration": 0.25}, {"note": 36, "velocity": 36, "startTime": 6.66, "duration": 0.25}, {"note": 36, "velocity": 40, "startTime": 13.33, "duration": 0.25}, {"note": 36, "velocity": 36, "startTime": 20.0, "duration": 0.25}, {"note": 36, "velocity": 42, "startTime": 26.66, "duration": 0.25}, {"note": 36, "velocity": 36, "startTime": 33.33, "duration": 0.25}, {"note": 36, "velocity": 40, "startTime": 40.0, "duration": 0.25}, {"note": 36, "velocity": 36, "startTime": 46.66, "duration": 0.25}, {"note": 36, "velocity": 38, "startTime": 53.33, "duration": 0.25}]}], "key": "D", "bpm": 72, "scale": "pentatonic"}, {"genre": "ambient", "mode": "energize", "tracks": [{"name": "Ethereal Melody", "program": 88, "role": "melody", "totalDuration": 48, "notes": [{"note": 64, "velocity": 48, "startTime": 0, "duration": 6.0}, {"note": 67, "velocity": 52, "startTime": 6.2, "duration": 5.8}, {"note": 69, "velocity": 45, "startTime": 12.1, "duration": 4.2}, {"note": 67, "velocity": 50, "startTime": 16.5, "duration": 5.5}, {"note": 64, "velocity": 48, "startTime": 22.2, "duration": 4.0}, {"note": 60, "velocity": 44, "startTime": 26.4, "duration": 6.2}, {"note": 62, "velocity": 50, "startTime": 32.8, "duration": 5.0}, {"note": 64, "velocity": 54, "startTime": 38.0, "duration": 4.5}, {"note": 67, "velocity": 52, "startTime": 42.7, "duration": 5.0}, {"note": 69, "velocity": 46, "startTime": 47.8, "duration": 6.0}, {"note": 72, "velocity": 55, "startTime": 54.0, "duration": 5.5}, {"note": 69, "velocity": 50, "startTime": 59.8, "duration": 4.8}, {"note": 67, "velocity": 48, "startTime": 64.9, "duration": 5.2}, {"note": 64, "velocity": 44, "startTime": 70.3, "duration": 6.0}, {"note": 62, "velocity": 42, "startTime": 76.5, "duration": 5.5}, {"note": 60, "velocity": 40, "startTime": 82.2, "duration": 7.5}]}, {"name": "Warm Bass Pad", "program": 89, "role": "bass", "totalDuration": 48, "notes": [{"note": 36, "velocity": 55, "startTime": 0, "duration": 11.8}, {"note": 36, "velocity": 52, "startTime": 12.0, "duration": 11.9}, {"note": 41, "velocity": 55, "startTime": 24.0, "duration": 11.8}, {"note": 41, "velocity": 50, "startTime": 36.0, "duration": 11.9}, {"note": 36, "velocity": 53, "startTime": 48.0, "duration": 11.8}, {"note": 36, "velocity": 52, "startTime": 60.0, "duration": 11.9}, {"note": 41, "velocity": 54, "startTime": 72.0, "duration": 11.8}, {"note": 43, "velocity": 50, "startTime": 84.0, "duration": 5.8}]}, {"name": "Choir Chord Pads", "program": 91, "role": "chords", "totalDuration": 48, "notes": [{"note": 60, "velocity": 42, "startTime": 0, "duration": 11.8}, {"note": 64, "velocity": 40, "startTime": 0, "duration": 11.8}, {"note": 67, "velocity": 38, "startTime": 0, "duration": 11.8}, {"note": 62, "velocity": 36, "startTime": 0, "duration": 11.8}, {"note": 60, "velocity": 42, "startTime": 12.1, "duration": 11.8}, {"note": 65, "velocity": 40, "startTime": 12.1, "duration": 11.8}, {"note": 69, "velocity": 38, "startTime": 12.1, "duration": 11.8}, {"note": 62, "velocity": 36, "startTime": 12.1, "duration": 11.8}, {"note": 65, "velocity": 42, "startTime": 24.0, "duration": 11.9}, {"note": 69, "velocity": 40, "startTime": 24.0, "duration": 11.9}, {"note": 72, "velocity": 38, "startTime": 24.0, "duration": 11.9}, {"note": 67, "velocity": 36, "startTime": 24.0, "duration": 11.9}, {"note": 65, "velocity": 42, "startTime": 36.1, "duration": 11.8}, {"note": 67, "velocity": 40, "startTime": 36.1, "duration": 11.8}, {"note": 71, "velocity": 38, "startTime": 36.1, "duration": 11.8}, {"note": 62, "velocity": 36, "startTime": 36.1, "duration": 11.8}, {"note": 60, "velocity": 44, "startTime": 48.0, "duration": 11.8}, {"note": 64, "velocity": 42, "startTime": 48.0, "duration": 11.8}, {"note": 67, "velocity": 40, "startTime": 48.0, "duration": 11.8}, {"note": 62, "velocity": 38, "startTime": 48.0, "duration": 11.8}, {"note": 60, "velocity": 44, "startTime": 60.1, "duration": 11.8}, {"note": 65, "velocity": 42, "startTime": 60.1, "duration": 11.8}, {"note": 69, "velocity": 40, "startTime": 60.1, "duration": 11.8}, {"note": 62, "velocity": 38, "startTime": 60.1, "duration": 11.8}, {"note": 65, "velocity": 44, "startTime": 72.0, "duration": 11.9}, {"note": 69, "velocity": 42, "startTime": 72.0, "duration": 11.9}, {"note": 72, "velocity": 40, "startTime": 72.0, "duration": 11.9}, {"note": 67, "velocity": 38, "startTime": 72.0, "duration": 11.9}, {"note": 60, "velocity": 46, "startTime": 84.0, "duration": 5.8}, {"note": 64, "velocity": 44, "startTime": 84.0, "duration": 5.8}, {"note": 67, "velocity": 42, "startTime": 84.0, "duration": 5.8}, {"note": 72, "velocity": 40, "startTime": 84.0, "duration": 5.8}]}, {"name": "Pulse Percussion", "program": 0, "role": "drums", "totalDuration": 48, "notes": [{"note": 36, "velocity": 80, "startTime": 0, "duration": 0.3}, {"note": 42, "velocity": 55, "startTime": 0.5, "duration": 0.2}, {"note": 42, "velocity": 50, "startTime": 1.0, "duration": 0.2}, {"note": 38, "velocity": 70, "startTime": 1.5, "duration": 0.3}, {"note": 42, "velocity": 52, "startTime": 2.0, "duration": 0.2}, {"note": 42, "velocity": 48, "startTime": 2.5, "duration": 0.2}, {"note": 36, "velocity": 78, "startTime": 3.0, "duration": 0.3}, {"note": 42, "velocity": 54, "startTime": 3.5, "duration": 0.2}, {"note": 42, "velocity": 50, "startTime": 4.0, "duration": 0.2}, {"note": 38, "velocity": 68, "startTime": 4.5, "duration": 0.3}, {"note": 42, "velocity": 52, "startTime": 5.0, "duration": 0.2}, {"note": 46, "velocity": 60, "startTime": 5.5, "duration": 0.3}, {"note": 36, "velocity": 82, "startTime": 6.0, "duration": 0.3}, {"note": 42, "velocity": 55, "startTime": 6.5, "duration": 0.2}, {"note": 42, "velocity": 50, "startTime": 7.0, "duration": 0.2}, {"note": 38, "velocity": 72, "startTime": 7.5, "duration": 0.3}, {"note": 42, "velocity": 54, "startTime": 8.0, "duration": 0.2}, {"note": 42, "velocity": 48, "startTime": 8.5, "duration": 0.2}, {"note": 36, "velocity": 80, "startTime": 9.0, "duration": 0.3}, {"note": 42, "velocity": 55, "startTime": 9.5, "duration": 0.2}, {"note": 42, "velocity": 50, "startTime": 10.0, "duration": 0.2}, {"note": 38, "velocity": 70, "startTime": 10.5, "duration": 0.3}, {"note": 46, "velocity": 62, "startTime": 11.0, "duration": 0.3}, {"note": 42, "velocity": 52, "startTime": 11.5, "duration": 0.2}, {"note": 36, "velocity": 80, "startTime": 12.0, "duration": 0.3}, {"note": 42, "velocity": 55, "startTime": 12.5, "duration": 0.2}, {"note": 42, "velocity": 50, "startTime": 13.0, "duration": 0.2}, {"note": 38, "velocity": 70, "startTime": 13.5, "duration": 0.3}, {"note": 42, "velocity": 52, "startTime": 14.0, "duration": 0.2}, {"note": 42, "velocity": 48, "startTime": 14.5, "duration": 0.2}, {"note": 36, "velocity": 78, "startTime": 15.0, "duration": 0.3}, {"note": 42, "velocity": 54, "startTime": 15.5, "duration": 0.2}, {"note": 42, "velocity": 50, "startTime": 16.0, "duration": 0.2}, {"note": 38, "velocity": 68, "startTime": 16.5, "duration": 0.3}, {"note": 42, "velocity": 52, "startTime": 17.0, "duration": 0.2}, {"note": 46, "velocity": 60, "startTime": 17.5, "duration": 0.3}, {"note": 36, "velocity": 82, "startTime": 18.0, "duration": 0.3}, {"note": 42, "velocity": 55, "startTime": 18.5, "duration": 0.2}, {"note": 42, "velocity": 50, "startTime": 19.0, "duration": 0.2}, {"note": 38, "velocity": 72, "startTime": 19.5, "duration": 0.3}, {"note": 42, "velocity": 54, "startTime": 20.0, "duration": 0.2}, {"note": 42, "velocity": 48, "startTime": 20.5, "duration": 0.2}, {"note": 36, "velocity": 80, "startTime": 21.0, "duration": 0.3}, {"note": 42, "velocity": 55, "startTime": 21.5, "duration": 0.2}, {"note": 42, "velocity": 50, "startTime": 22.0, "duration": 0.2}, {"note": 38, "velocity": 70, "startTime": 22.5, "duration": 0.3}, {"note": 46, "velocity": 62, "startTime": 23.0, "duration": 0.3}, {"note": 42, "velocity": 52, "startTime": 23.5, "duration": 0.2}, {"note": 36, "velocity": 85, "startTime": 24.0, "duration": 0.3}, {"note": 42, "velocity": 58, "startTime": 24.5, "duration": 0.2}, {"note": 42, "velocity": 52, "startTime": 25.0, "duration": 0.2}, {"note": 38, "velocity": 74, "startTime": 25.5, "duration": 0.3}, {"note": 42, "velocity": 55, "startTime": 26.0, "duration": 0.2}, {"note": 42, "velocity": 50, "startTime": 26.5, "duration": 0.2}, {"note": 36, "velocity": 82, "startTime": 27.0, "duration": 0.3}, {"note": 42, "velocity": 56, "startTime": 27.5, "duration": 0.2}, {"note": 42, "velocity": 52, "startTime": 28.0, "duration": 0.2}, {"note": 38, "velocity": 72, "startTime": 28.5, "duration": 0.3}, {"note": 42, "velocity": 54, "startTime": 29.0, "duration": 0.2}, {"note": 46, "velocity": 65, "startTime": 29.5, "duration": 0.3}, {"note": 36, "velocity": 85, "startTime": 30.0, "duration": 0.3}, {"note": 42, "velocity": 58, "startTime": 30.5, "duration": 0.2}, {"note": 42, "velocity": 52, "startTime": 31.0, "duration": 0.2}, {"note": 38, "velocity": 74, "startTime": 31.5, "duration": 0.3}, {"note": 42, "velocity": 55, "startTime": 32.0, "duration": 0.2}, {"note": 42, "velocity": 50, "startTime": 32.5, "duration": 0.2}, {"note": 36, "velocity": 82, "startTime": 33.0, "duration": 0.3}, {"note": 42, "velocity": 56, "startTime": 33.5, "duration": 0.2}, {"note": 42, "velocity": 52, "startTime": 34.0, "duration": 0.2}, {"note": 38, "velocity": 72, "startTime": 34.5, "duration": 0.3}, {"note": 46, "velocity": 65, "startTime": 35.0, "duration": 0.3}, {"note": 42, "velocity": 54, "startTime": 35.5, "duration": 0.2}, {"note": 36, "velocity": 88, "startTime": 36.0, "duration": 0.3}, {"note": 42, "velocity": 60, "startTime": 36.5, "duration": 0.2}, {"note": 42, "velocity": 55, "startTime": 37.0, "duration": 0.2}, {"note": 38, "velocity": 76, "startTime": 37.5, "duration": 0.3}, {"note": 42, "velocity": 58, "startTime": 38.0, "duration": 0.2}, {"note": 42, "velocity": 52, "startTime": 38.5, "duration": 0.2}, {"note": 36, "velocity": 86, "startTime": 39.0, "duration": 0.3}, {"note": 42, "velocity": 58, "startTime": 39.5, "duration": 0.2}, {"note": 42, "velocity": 54, "startTime": 40.0, "duration": 0.2}, {"note": 38, "velocity": 75, "startTime": 40.5, "duration": 0.3}, {"note": 42, "velocity": 56, "startTime": 41.0, "duration": 0.2}, {"note": 46, "velocity": 68, "startTime": 41.5, "duration": 0.3}, {"note": 36, "velocity": 88, "startTime": 42.0, "duration": 0.3}, {"note": 42, "velocity": 60, "startTime": 42.5, "duration": 0.2}, {"note": 42, "velocity": 55, "startTime": 43.0, "duration": 0.2}, {"note": 38, "velocity": 76, "startTime": 43.5, "duration": 0.3}, {"note": 42, "velocity": 58, "startTime": 44.0, "duration": 0.2}, {"note": 42, "velocity": 52, "startTime": 44.5, "duration": 0.2}, {"note": 36, "velocity": 86, "startTime": 45.0, "duration": 0.3}, {"note": 42, "velocity": 58, "startTime": 45.5, "duration": 0.2}, {"note": 42, "velocity": 54, "startTime": 46.0, "duration": 0.2}, {"note": 38, "velocity": 75, "startTime": 46.5, "duration": 0.3}, {"note": 46, "velocity": 68, "startTime": 47.0, "duration": 0.3}, {"note": 36, "velocity": 90, "startTime": 47.5, "duration": 0.3}]}], "key": "C", "bpm": 112, "scale": "pentatonic"}, {"genre": "lofi", "mode": "sleep", "tracks": [{"name": "Vibraphone Melody", "program": 11, "role": "melody", "totalDuration": 56, "notes": [{"note": 65, "velocity": 48, "startTime": 2.05, "duration": 2.8}, {"note": 64, "velocity": 44, "startTime": 5.1, "duration": 1.6}, {"note": 62, "velocity": 42, "startTime": 7.0, "duration": 3.2}, {"note": 60, "velocity": 46, "startTime": 10.55, "duration": 4.5}, {"note": 67, "velocity": 50, "startTime": 16.08, "duration": 2.4}, {"note": 65, "velocity": 46, "startTime": 19.2, "duration": 1.8}, {"note": 64, "velocity": 43, "startTime": 21.35, "duration": 2.6}, {"note": 62, "velocity": 48, "startTime": 24.1, "duration": 4.8}, {"note": 65, "velocity": 47, "startTime": 30.05, "duration": 2.9}, {"note": 64, "velocity": 43, "startTime": 33.2, "duration": 1.7}, {"note": 65, "velocity": 45, "startTime": 35.4, "duration": 1.4}, {"note": 67, "velocity": 50, "startTime": 37.15, "duration": 3.0}, {"note": 65, "velocity": 44, "startTime": 40.6, "duration": 5.2}, {"note": 65, "velocity": 46, "startTime": 47.05, "duration": 2.6}, {"note": 64, "velocity": 41, "startTime": 50.2, "duration": 2.0}, {"note": 62, "velocity": 40, "startTime": 52.8, "duration": 4.8}]}, {"name": "Rhodes Bass", "program": 4, "role": "bass", "totalDuration": 56, "notes": [{"note": 41, "velocity": 62, "startTime": 0.05, "duration": 7.5}, {"note": 38, "velocity": 60, "startTime": 8.05, "duration": 7.5}, {"note": 43, "velocity": 63, "startTime": 16.08, "duration": 7.5}, {"note": 41, "velocity": 61, "startTime": 24.1, "duration": 7.5}, {"note": 41, "velocity": 60, "startTime": 32.05, "duration": 7.5}, {"note": 38, "velocity": 58, "startTime": 40.08, "duration": 7.5}, {"note": 43, "velocity": 62, "startTime": 48.08, "duration": 7.8}]}, {"name": "Warm Pad Chords", "program": 89, "role": "chords", "totalDuration": 56, "notes": [{"note": 53, "velocity": 45, "startTime": 0.1, "duration": 15.5}, {"note": 57, "velocity": 43, "startTime": 0.1, "duration": 15.5}, {"note": 60, "velocity": 42, "startTime": 0.1, "duration": 15.5}, {"note": 64, "velocity": 40, "startTime": 0.1, "duration": 15.5}, {"note": 50, "velocity": 45, "startTime": 16.1, "duration": 15.5}, {"note": 53, "velocity": 43, "startTime": 16.1, "duration": 15.5}, {"note": 57, "velocity": 42, "startTime": 16.1, "duration": 15.5}, {"note": 60, "velocity": 40, "startTime": 16.1, "duration": 15.5}, {"note": 53, "velocity": 44, "startTime": 32.1, "duration": 15.5}, {"note": 57, "velocity": 42, "startTime": 32.1, "duration": 15.5}, {"note": 60, "velocity": 41, "startTime": 32.1, "duration": 15.5}, {"note": 64, "velocity": 39, "startTime": 32.1, "duration": 15.5}, {"note": 50, "velocity": 43, "startTime": 48.1, "duration": 8.0}, {"note": 53, "velocity": 41, "startTime": 48.1, "duration": 8.0}, {"note": 57, "velocity": 40, "startTime": 48.1, "duration": 8.0}, {"note": 60, "velocity": 38, "startTime": 48.1, "duration": 8.0}]}, {"name": "Ambient Piano Texture", "program": 0, "role": "texture", "totalDuration": 56, "notes": [{"note": 48, "velocity": 35, "startTime": 3.55, "duration": 6.0}, {"note": 52, "velocity": 33, "startTime": 3.55, "duration": 6.0}, {"note": 55, "velocity": 32, "startTime": 3.55, "duration": 6.0}, {"note": 45, "velocity": 36, "startTime": 19.6, "duration": 6.5}, {"note": 48, "velocity": 34, "startTime": 19.6, "duration": 6.5}, {"note": 52, "velocity": 32, "startTime": 19.6, "duration": 6.5}, {"note": 48, "velocity": 34, "startTime": 35.7, "duration": 6.0}, {"note": 52, "velocity": 32, "startTime": 35.7, "duration": 6.0}, {"note": 55, "velocity": 31, "startTime": 35.7, "duration": 6.0}, {"note": 45, "velocity": 33, "startTime": 51.2, "duration": 5.5}, {"note": 48, "velocity": 31, "startTime": 51.2, "duration": 5.5}, {"note": 52, "velocity": 30, "startTime": 51.2, "duration": 5.5}]}], "key": "F", "bpm": 48, "scale": "dorian"}, {"genre": "lofi", "mode": "relaxation", "tracks": [{"name": "Rhodes Melody", "program": 4, "role": "melody", "totalDuration": 56, "notes": [{"note": 65, "velocity": 52, "startTime": 0.05, "duration": 0.7}, {"note": 67, "velocity": 48, "startTime": 0.85, "duration": 0.5}, {"note": 69, "velocity": 55, "startTime": 1.45, "duration": 1.2}, {"note": 72, "velocity": 50, "startTime": 2.75, "duration": 0.4}, {"note": 70, "velocity": 46, "startTime": 3.25, "duration": 1.6}, {"note": 69, "velocity": 44, "startTime": 5.05, "duration": 0.6}, {"note": 67, "velocity": 48, "startTime": 5.75, "duration": 0.5}, {"note": 65, "velocity": 52, "startTime": 6.35, "duration": 2.2}, {"note": 64, "velocity": 45, "startTime": 8.85, "duration": 0.5}, {"note": 65, "velocity": 50, "startTime": 9.45, "duration": 0.6}, {"note": 67, "velocity": 54, "startTime": 10.15, "duration": 1.0}, {"note": 69, "velocity": 48, "startTime": 11.25, "duration": 0.5}, {"note": 72, "velocity": 56, "startTime": 11.85, "duration": 1.4}, {"note": 74, "velocity": 52, "startTime": 13.35, "duration": 0.4}, {"note": 72, "velocity": 50, "startTime": 13.85, "duration": 2.5}, {"note": 69, "velocity": 46, "startTime": 16.55, "duration": 0.5}, {"note": 67, "velocity": 44, "startTime": 17.15, "duration": 0.4}, {"note": 65, "velocity": 48, "startTime": 17.65, "duration": 2.8}, {"note": 65, "velocity": 50, "startTime": 20.65, "duration": 0.65}, {"note": 67, "velocity": 46, "startTime": 21.4, "duration": 0.5}, {"note": 69, "velocity": 53, "startTime": 22.0, "duration": 1.3}, {"note": 72, "velocity": 49, "startTime": 23.4, "duration": 0.4}, {"note": 70, "velocity": 45, "startTime": 23.9, "duration": 1.7}, {"note": 69, "velocity": 42, "startTime": 25.7, "duration": 0.6}, {"note": 67, "velocity": 47, "startTime": 26.4, "duration": 0.5}, {"note": 65, "velocity": 51, "startTime": 27.0, "duration": 2.0}, {"note": 64, "velocity": 44, "startTime": 29.2, "duration": 0.5}, {"note": 65, "velocity": 48, "startTime": 29.8, "duration": 0.6}, {"note": 67, "velocity": 52, "startTime": 30.5, "duration": 1.0}, {"note": 70, "velocity": 55, "startTime": 31.6, "duration": 0.5}, {"note": 72, "velocity": 58, "startTime": 32.2, "duration": 1.5}, {"note": 74, "velocity": 50, "startTime": 33.8, "duration": 0.4}, {"note": 72, "velocity": 46, "startTime": 34.3, "duration": 0.6}, {"note": 70, "velocity": 44, "startTime": 35.0, "duration": 2.0}, {"note": 69, "velocity": 42, "startTime": 37.1, "duration": 0.5}, {"note": 67, "velocity": 40, "startTime": 37.7, "duration": 3.0}, {"note": 72, "velocity": 48, "startTime": 41.0, "duration": 0.7}, {"note": 74, "velocity": 44, "startTime": 41.8, "duration": 0.5}, {"note": 76, "velocity": 52, "startTime": 42.4, "duration": 1.8}, {"note": 74, "velocity": 46, "startTime": 44.3, "duration": 0.5}, {"note": 72, "velocity": 50, "startTime": 44.9, "duration": 1.0}, {"note": 70, "velocity": 46, "startTime": 46.0, "duration": 0.5}, {"note": 69, "velocity": 44, "startTime": 46.6, "duration": 0.7}, {"note": 67, "velocity": 48, "startTime": 47.4, "duration": 1.2}, {"note": 65, "velocity": 50, "startTime": 48.7, "duration": 0.5}, {"note": 67, "velocity": 46, "startTime": 49.3, "duration": 0.4}, {"note": 65, "velocity": 52, "startTime": 49.8, "duration": 0.6}, {"note": 64, "velocity": 48, "startTime": 50.5, "duration": 0.5}, {"note": 65, "velocity": 55, "startTime": 51.1, "duration": 4.5}]}, {"name": "Upright Bass", "program": 32, "role": "bass", "totalDuration": 56, "notes": [{"note": 41, "velocity": 62, "startTime": 0.02, "duration": 1.8}, {"note": 41, "velocity": 58, "startTime": 3.88, "duration": 1.6}, {"note": 43, "velocity": 60, "startTime": 7.75, "duration": 1.8}, {"note": 38, "velocity": 64, "startTime": 11.62, "duration": 1.8}, {"note": 41, "velocity": 62, "startTime": 15.5, "duration": 1.7}, {"note": 41, "velocity": 59, "startTime": 19.4, "duration": 1.6}, {"note": 43, "velocity": 61, "startTime": 23.25, "duration": 1.8}, {"note": 38, "velocity": 63, "startTime": 27.12, "duration": 1.8}, {"note": 41, "velocity": 62, "startTime": 31.0, "duration": 1.7}, {"note": 41, "velocity": 57, "startTime": 34.88, "duration": 1.6}, {"note": 43, "velocity": 60, "startTime": 38.75, "duration": 1.8}, {"note": 38, "velocity": 64, "startTime": 42.62, "duration": 1.8}, {"note": 41, "velocity": 61, "startTime": 46.5, "duration": 1.7}, {"note": 36, "velocity": 58, "startTime": 50.38, "duration": 5.2}]}, {"name": "Rhodes Chords", "program": 4, "role": "chords", "totalDuration": 56, "notes": [{"note": 53, "velocity": 48, "startTime": 0.08, "duration": 3.6}, {"note": 57, "velocity": 45, "startTime": 0.08, "duration": 3.6}, {"note": 60, "velocity": 43, "startTime": 0.08, "duration": 3.6}, {"note": 64, "velocity": 41, "startTime": 0.08, "duration": 3.6}, {"note": 53, "velocity": 46, "startTime": 3.88, "duration": 3.6}, {"note": 57, "velocity": 43, "startTime": 3.88, "duration": 3.6}, {"note": 60, "velocity": 41, "startTime": 3.88, "duration": 3.6}, {"note": 63, "velocity": 39, "startTime": 3.88, "duration": 3.6}, {"note": 55, "velocity": 48, "startTime": 7.75, "duration": 3.7}, {"note": 58, "velocity": 45, "startTime": 7.75, "duration": 3.7}, {"note": 62, "velocity": 43, "startTime": 7.75, "duration": 3.7}, {"note": 65, "velocity": 41, "startTime": 7.75, "duration": 3.7}, {"note": 50, "velocity": 50, "startTime": 11.62, "duration": 3.6}, {"note": 53, "velocity": 47, "startTime": 11.62, "duration": 3.6}, {"note": 57, "velocity": 44, "startTime": 11.62, "duration": 3.6}, {"note": 60, "velocity": 42, "startTime": 11.62, "duration": 3.6}, {"note": 53, "velocity": 47, "startTime": 15.5, "duration": 3.6}, {"note": 57, "velocity": 44, "startTime": 15.5, "duration": 3.6}, {"note": 60, "velocity": 42, "startTime": 15.5, "duration": 3.6}, {"note": 64, "velocity": 40, "startTime": 15.5, "duration": 3.6}, {"note": 53, "velocity": 46, "startTime": 19.38, "duration": 3.6}, {"note": 57, "velocity": 43, "startTime": 19.38, "duration": 3.6}, {"note": 60, "velocity": 41, "startTime": 19.38, "duration": 3.6}, {"note": 63, "velocity": 39, "startTime": 19.38, "duration": 3.6}, {"note": 55, "velocity": 48, "startTime": 23.25, "duration": 3.7}, {"note": 58, "velocity": 45, "startTime": 23.25, "duration": 3.7}, {"note": 62, "velocity": 43, "startTime": 23.25, "duration": 3.7}, {"note": 65, "velocity": 41, "startTime": 23.25, "duration": 3.7}, {"note": 50, "velocity": 50, "startTime": 27.12, "duration": 3.6}, {"note": 53, "velocity": 47, "startTime": 27.12, "duration": 3.6}, {"note": 57, "velocity": 44, "startTime": 27.12, "duration": 3.6}, {"note": 60, "velocity": 42, "startTime": 27.12, "duration": 3.6}, {"note": 53, "velocity": 47, "startTime": 31.0, "duration": 3.6}, {"note": 57, "velocity": 44, "startTime": 31.0, "duration": 3.6}, {"note": 60, "velocity": 42, "startTime": 31.0, "duration": 3.6}, {"note": 64, "velocity": 40, "startTime": 31.0, "duration": 3.6}, {"note": 53, "velocity": 45, "startTime": 34.88, "duration": 3.6}, {"note": 57, "velocity": 42, "startTime": 34.88, "duration": 3.6}, {"note": 60, "velocity": 40, "startTime": 34.88, "duration": 3.6}, {"note": 63, "velocity": 38, "startTime": 34.88, "duration": 3.6}, {"note": 55, "velocity": 47, "startTime": 38.75, "duration": 3.7}, {"note": 58, "velocity": 44, "startTime": 38.75, "duration": 3.7}, {"note": 62, "velocity": 42, "startTime": 38.75, "duration": 3.7}, {"note": 65, "velocity": 40, "startTime": 38.75, "duration": 3.7}, {"note": 50, "velocity": 49, "startTime": 42.62, "duration": 3.6}, {"note": 53, "velocity": 46, "startTime": 42.62, "duration": 3.6}, {"note": 57, "velocity": 43, "startTime": 42.62, "duration": 3.6}, {"note": 60, "velocity": 41, "startTime": 42.62, "duration": 3.6}, {"note": 53, "velocity": 46, "startTime": 46.5, "duration": 3.6}, {"note": 57, "velocity": 43, "startTime": 46.5, "duration": 3.6}, {"note": 60, "velocity": 41, "startTime": 46.5, "duration": 3.6}, {"note": 64, "velocity": 39, "startTime": 46.5, "duration": 3.6}, {"note": 41, "velocity": 44, "startTime": 50.38, "duration": 5.3}, {"note": 53, "velocity": 44, "startTime": 50.38, "duration": 5.3}, {"note": 57, "velocity": 41, "startTime": 50.38, "duration": 5.3}, {"note": 60, "velocity": 39, "startTime": 50.38, "duration": 5.3}, {"note": 64, "velocity": 37, "startTime": 50.38, "duration": 5.3}]}, {"name": "Warm Pad Texture", "program": 89, "role": "texture", "totalDuration": 56, "notes": [{"note": 53, "velocity": 32, "startTime": 0.3, "duration": 7.5}, {"note": 60, "velocity": 28, "startTime": 0.3, "duration": 7.5}, {"note": 65, "velocity": 25, "startTime": 0.3, "duration": 7.5}, {"note": 53, "velocity": 30, "startTime": 7.9, "duration": 7.5}, {"note": 58, "velocity": 27, "startTime": 7.9, "duration": 7.5}, {"note": 65, "velocity": 24, "startTime": 7.9, "duration": 7.5}, {"note": 50, "velocity": 33, "startTime": 15.5, "duration": 7.8}, {"note": 57, "velocity": 29, "startTime": 15.5, "duration": 7.8}, {"note": 64, "velocity": 26, "startTime": 15.5, "duration": 7.8}, {"note": 53, "velocity": 31, "startTime": 23.4, "duration": 7.5}, {"note": 60, "velocity": 27, "startTime": 23.4, "duration": 7.5}, {"note": 65, "velocity": 24, "startTime": 23.4, "duration": 7.5}, {"note": 53, "velocity": 29, "startTime": 31.1, "duration": 7.5}, {"note": 58, "velocity": 26, "startTime": 31.1, "duration": 7.5}, {"note": 65, "velocity": 23, "startTime": 31.1, "duration": 7.5}, {"note": 50, "velocity": 32, "startTime": 38.8, "duration": 7.8}, {"note": 57, "velocity": 28, "startTime": 38.8, "duration": 7.8}, {"note": 64, "velocity": 25, "startTime": 38.8, "duration": 7.8}, {"note": 41, "velocity": 28, "startTime": 46.6, "duration": 9.0}, {"note": 53, "velocity": 30, "startTime": 46.6, "duration": 9.0}, {"note": 60, "velocity": 26, "startTime": 46.6, "duration": 9.0}, {"note": 65, "velocity": 22, "startTime": 46.6, "duration": 9.0}]}], "key": "F", "bpm": 62, "scale": "dorian"}, {"genre": "jazz", "mode": "sleep", "tracks": [{"name": "Tenor Sax Melody", "program": 66, "role": "melody", "totalDuration": 56, "notes": [{"note": 62, "velocity": 45, "startTime": 2.1, "duration": 3.2}, {"note": 65, "velocity": 50, "startTime": 5.8, "duration": 2.4}, {"note": 64, "velocity": 42, "startTime": 9.2, "duration": 4.8}, {"note": 62, "velocity": 48, "startTime": 15.3, "duration": 2.6}, {"note": 60, "velocity": 44, "startTime": 18.7, "duration": 3.9}, {"note": 57, "velocity": 40, "startTime": 23.4, "duration": 5.1}, {"note": 62, "velocity": 47, "startTime": 30.2, "duration": 3.0}, {"note": 65, "velocity": 52, "startTime": 34.1, "duration": 2.5}, {"note": 67, "velocity": 50, "startTime": 37.8, "duration": 4.2}, {"note": 65, "velocity": 44, "startTime": 43.3, "duration": 3.1}, {"note": 62, "velocity": 40, "startTime": 47.5, "duration": 2.8}, {"note": 60, "velocity": 36, "startTime": 51.1, "duration": 4.5}]}, {"name": "Walking Bass", "program": 32, "role": "bass", "totalDuration": 56, "notes": [{"note": 38, "velocity": 48, "startTime": 0, "duration": 1.35}, {"note": 40, "velocity": 44, "startTime": 1.37, "duration": 1.35}, {"note": 41, "velocity": 46, "startTime": 2.75, "duration": 1.35}, {"note": 43, "velocity": 42, "startTime": 4.12, "duration": 1.35}, {"note": 43, "velocity": 50, "startTime": 5.5, "duration": 1.35}, {"note": 41, "velocity": 44, "startTime": 6.87, "duration": 1.35}, {"note": 40, "velocity": 42, "startTime": 8.25, "duration": 1.35}, {"note": 38, "velocity": 46, "startTime": 9.62, "duration": 1.35}, {"note": 33, "velocity": 48, "startTime": 11.0, "duration": 1.35}, {"note": 35, "velocity": 44, "startTime": 12.37, "duration": 1.35}, {"note": 36, "velocity": 42, "startTime": 13.75, "duration": 1.35}, {"note": 38, "velocity": 46, "startTime": 15.12, "duration": 1.35}, {"note": 36, "velocity": 48, "startTime": 16.5, "duration": 1.35}, {"note": 35, "velocity": 44, "startTime": 17.87, "duration": 1.35}, {"note": 33, "velocity": 42, "startTime": 19.25, "duration": 1.35}, {"note": 35, "velocity": 40, "startTime": 20.62, "duration": 1.35}, {"note": 38, "velocity": 48, "startTime": 22.0, "duration": 1.35}, {"note": 40, "velocity": 44, "startTime": 23.37, "duration": 1.35}, {"note": 41, "velocity": 46, "startTime": 24.75, "duration": 1.35}, {"note": 43, "velocity": 42, "startTime": 26.12, "duration": 1.35}, {"note": 43, "velocity": 50, "startTime": 27.5, "duration": 1.35}, {"note": 41, "velocity": 44, "startTime": 28.87, "duration": 1.35}, {"note": 40, "velocity": 42, "startTime": 30.25, "duration": 1.35}, {"note": 38, "velocity": 46, "startTime": 31.62, "duration": 1.35}, {"note": 33, "velocity": 48, "startTime": 33.0, "duration": 1.35}, {"note": 35, "velocity": 44, "startTime": 34.37, "duration": 1.35}, {"note": 36, "velocity": 42, "startTime": 35.75, "duration": 1.35}, {"note": 38, "velocity": 40, "startTime": 37.12, "duration": 1.35}, {"note": 36, "velocity": 48, "startTime": 38.5, "duration": 1.35}, {"note": 35, "velocity": 44, "startTime": 39.87, "duration": 1.35}, {"note": 33, "velocity": 42, "startTime": 41.25, "duration": 1.35}, {"note": 32, "velocity": 40, "startTime": 42.62, "duration": 1.35}, {"note": 38, "velocity": 48, "startTime": 44.0, "duration": 1.35}, {"note": 40, "velocity": 44, "startTime": 45.37, "duration": 1.35}, {"note": 41, "velocity": 40, "startTime": 46.75, "duration": 1.35}, {"note": 43, "velocity": 38, "startTime": 48.12, "duration": 1.35}, {"note": 43, "velocity": 40, "startTime": 49.5, "duration": 1.35}, {"note": 41, "velocity": 36, "startTime": 50.87, "duration": 1.35}, {"note": 40, "velocity": 34, "startTime": 52.25, "duration": 1.35}, {"note": 38, "velocity": 32, "startTime": 53.62, "duration": 2.0}]}, {"name": "Piano Chord Pads", "program": 0, "role": "chords", "totalDuration": 56, "notes": [{"note": 50, "velocity": 38, "startTime": 0.05, "duration": 10.5}, {"note": 57, "velocity": 35, "startTime": 0.05, "duration": 10.5}, {"note": 62, "velocity": 33, "startTime": 0.05, "duration": 10.5}, {"note": 65, "velocity": 30, "startTime": 0.05, "duration": 10.5}, {"note": 69, "velocity": 28, "startTime": 0.05, "duration": 10.5}, {"note": 43, "velocity": 38, "startTime": 11.1, "duration": 10.5}, {"note": 55, "velocity": 35, "startTime": 11.1, "duration": 10.5}, {"note": 59, "velocity": 33, "startTime": 11.1, "duration": 10.5}, {"note": 62, "velocity": 30, "startTime": 11.1, "duration": 10.5}, {"note": 67, "velocity": 28, "startTime": 11.1, "duration": 10.5}, {"note": 36, "velocity": 38, "startTime": 22.2, "duration": 10.5}, {"note": 48, "velocity": 35, "startTime": 22.2, "duration": 10.5}, {"note": 55, "velocity": 33, "startTime": 22.2, "duration": 10.5}, {"note": 58, "velocity": 30, "startTime": 22.2, "duration": 10.5}, {"note": 65, "velocity": 28, "startTime": 22.2, "duration": 10.5}, {"note": 50, "velocity": 38, "startTime": 33.3, "duration": 10.5}, {"note": 57, "velocity": 35, "startTime": 33.3, "duration": 10.5}, {"note": 62, "velocity": 33, "startTime": 33.3, "duration": 10.5}, {"note": 65, "velocity": 30, "startTime": 33.3, "duration": 10.5}, {"note": 69, "velocity": 28, "startTime": 33.3, "duration": 10.5}, {"note": 43, "velocity": 34, "startTime": 44.4, "duration": 11.0}, {"note": 55, "velocity": 30, "startTime": 44.4, "duration": 11.0}, {"note": 59, "velocity": 28, "startTime": 44.4, "duration": 11.0}, {"note": 62, "velocity": 26, "startTime": 44.4, "duration": 11.0}, {"note": 67, "velocity": 24, "startTime": 44.4, "duration": 11.0}]}, {"name": "Vibraphone Texture", "program": 11, "role": "texture", "totalDuration": 56, "notes": [{"note": 62, "velocity": 30, "startTime": 3.4, "duration": 6.0}, {"note": 65, "velocity": 28, "startTime": 3.6, "duration": 6.0}, {"note": 69, "velocity": 26, "startTime": 3.8, "duration": 6.0}, {"note": 60, "velocity": 28, "startTime": 14.2, "duration": 7.0}, {"note": 64, "velocity": 26, "startTime": 14.5, "duration": 7.0}, {"note": 67, "velocity": 24, "startTime": 14.8, "duration": 7.0}, {"note": 55, "velocity": 30, "startTime": 24.8, "duration": 7.5}, {"note": 58, "velocity": 28, "startTime": 25.1, "duration": 7.5}, {"note": 62, "velocity": 26, "startTime": 25.4, "duration": 7.5}, {"note": 65, "velocity": 24, "startTime": 25.7, "duration": 7.5}, {"note": 62, "velocity": 30, "startTime": 36.0, "duration": 7.0}, {"note": 65, "velocity": 28, "startTime": 36.3, "duration": 7.0}, {"note": 69, "velocity": 26, "startTime": 36.6, "duration": 7.0}, {"note": 60, "velocity": 24, "startTime": 48.5, "duration": 7.0}, {"note": 64, "velocity": 22, "startTime": 48.8, "duration": 7.0}, {"note": 67, "velocity": 20, "startTime": 49.1, "duration": 6.5}]}], "key": "Dm", "bpm": 46, "scale": "Dorian"}, {"genre": "jazz", "mode": "relaxation", "tracks": [{"name": "Vibraphone Melody", "program": 11, "role": "melody", "totalDuration": 48.0, "notes": [{"note": 69, "velocity": 58, "startTime": 0, "duration": 1.2}, {"note": 72, "velocity": 62, "startTime": 1.25, "duration": 0.9}, {"note": 74, "velocity": 65, "startTime": 2.2, "duration": 1.4}, {"note": 76, "velocity": 60, "startTime": 3.7, "duration": 2.2}, {"note": 74, "velocity": 55, "startTime": 6.1, "duration": 0.9}, {"note": 72, "velocity": 58, "startTime": 7.1, "duration": 1.6}, {"note": 69, "velocity": 52, "startTime": 8.85, "duration": 3.0}, {"note": 67, "velocity": 48, "startTime": 12.1, "duration": 0.8}, {"note": 69, "velocity": 55, "startTime": 13.05, "duration": 1.1}, {"note": 72, "velocity": 62, "startTime": 14.2, "duration": 0.85}, {"note": 74, "velocity": 65, "startTime": 15.1, "duration": 1.3}, {"note": 76, "velocity": 68, "startTime": 16.5, "duration": 1.0}, {"note": 77, "velocity": 63, "startTime": 17.6, "duration": 2.5}, {"note": 76, "velocity": 55, "startTime": 20.2, "duration": 0.75}, {"note": 74, "velocity": 58, "startTime": 21.05, "duration": 0.9}, {"note": 72, "velocity": 60, "startTime": 22.1, "duration": 2.8}, {"note": 69, "velocity": 48, "startTime": 25.1, "duration": 0.7}, {"note": 67, "velocity": 52, "startTime": 26.0, "duration": 1.2}, {"note": 69, "velocity": 60, "startTime": 27.3, "duration": 1.5}, {"note": 72, "velocity": 65, "startTime": 28.9, "duration": 0.85}, {"note": 74, "velocity": 62, "startTime": 29.85, "duration": 1.4}, {"note": 76, "velocity": 58, "startTime": 31.35, "duration": 2.6}, {"note": 74, "velocity": 50, "startTime": 34.1, "duration": 0.9}, {"note": 72, "velocity": 55, "startTime": 35.1, "duration": 1.0}, {"note": 71, "velocity": 60, "startTime": 36.2, "duration": 0.8}, {"note": 69, "velocity": 63, "startTime": 37.1, "duration": 1.2}, {"note": 67, "velocity": 55, "startTime": 38.4, "duration": 0.85}, {"note": 65, "velocity": 58, "startTime": 39.35, "duration": 1.5}, {"note": 67, "velocity": 62, "startTime": 41.0, "duration": 1.0}, {"note": 69, "velocity": 65, "startTime": 42.1, "duration": 1.3}, {"note": 72, "velocity": 60, "startTime": 43.5, "duration": 4.2}]}, {"name": "Piano Chords", "program": 0, "role": "chords", "totalDuration": 48.0, "notes": [{"note": 62, "velocity": 52, "startTime": 0.05, "duration": 5.8}, {"note": 65, "velocity": 50, "startTime": 0.05, "duration": 5.8}, {"note": 69, "velocity": 48, "startTime": 0.05, "duration": 5.8}, {"note": 72, "velocity": 45, "startTime": 0.05, "duration": 5.8}, {"note": 76, "velocity": 42, "startTime": 0.05, "duration": 5.8}, {"note": 55, "velocity": 50, "startTime": 6.1, "duration": 5.7}, {"note": 59, "velocity": 48, "startTime": 6.1, "duration": 5.7}, {"note": 62, "velocity": 46, "startTime": 6.1, "duration": 5.7}, {"note": 65, "velocity": 44, "startTime": 6.1, "duration": 5.7}, {"note": 69, "velocity": 42, "startTime": 6.1, "duration": 5.7}, {"note": 60, "velocity": 52, "startTime": 12.05, "duration": 5.8}, {"note": 64, "velocity": 50, "startTime": 12.05, "duration": 5.8}, {"note": 67, "velocity": 48, "startTime": 12.05, "duration": 5.8}, {"note": 71, "velocity": 46, "startTime": 12.05, "duration": 5.8}, {"note": 74, "velocity": 43, "startTime": 12.05, "duration": 5.8}, {"note": 62, "velocity": 52, "startTime": 18.05, "duration": 5.8}, {"note": 65, "velocity": 50, "startTime": 18.05, "duration": 5.8}, {"note": 69, "velocity": 48, "startTime": 18.05, "duration": 5.8}, {"note": 72, "velocity": 45, "startTime": 18.05, "duration": 5.8}, {"note": 76, "velocity": 42, "startTime": 18.05, "duration": 5.8}, {"note": 55, "velocity": 50, "startTime": 24.1, "duration": 5.7}, {"note": 59, "velocity": 48, "startTime": 24.1, "duration": 5.7}, {"note": 62, "velocity": 46, "startTime": 24.1, "duration": 5.7}, {"note": 65, "velocity": 44, "startTime": 24.1, "duration": 5.7}, {"note": 69, "velocity": 42, "startTime": 24.1, "duration": 5.7}, {"note": 60, "velocity": 52, "startTime": 30.05, "duration": 5.8}, {"note": 64, "velocity": 50, "startTime": 30.05, "duration": 5.8}, {"note": 67, "velocity": 48, "startTime": 30.05, "duration": 5.8}, {"note": 71, "velocity": 46, "startTime": 30.05, "duration": 5.8}, {"note": 74, "velocity": 43, "startTime": 30.05, "duration": 5.8}, {"note": 62, "velocity": 52, "startTime": 36.05, "duration": 5.8}, {"note": 65, "velocity": 50, "startTime": 36.05, "duration": 5.8}, {"note": 69, "velocity": 48, "startTime": 36.05, "duration": 5.8}, {"note": 72, "velocity": 45, "startTime": 36.05, "duration": 5.8}, {"note": 76, "velocity": 42, "startTime": 36.05, "duration": 5.8}, {"note": 60, "velocity": 48, "startTime": 42.1, "duration": 5.6}, {"note": 64, "velocity": 46, "startTime": 42.1, "duration": 5.6}, {"note": 67, "velocity": 44, "startTime": 42.1, "duration": 5.6}, {"note": 71, "velocity": 42, "startTime": 42.1, "duration": 5.6}, {"note": 76, "velocity": 38, "startTime": 42.1, "duration": 5.6}]}, {"name": "Acoustic Bass Walk", "program": 32, "role": "bass", "totalDuration": 48.0, "notes": [{"note": 50, "velocity": 58, "startTime": 0, "duration": 0.85}, {"note": 52, "velocity": 52, "startTime": 0.92, "duration": 0.85}, {"note": 53, "velocity": 55, "startTime": 1.85, "duration": 0.85}, {"note": 55, "velocity": 58, "startTime": 2.78, "duration": 0.85}, {"note": 53, "velocity": 52, "startTime": 3.72, "duration": 0.85}, {"note": 52, "velocity": 50, "startTime": 4.65, "duration": 0.85}, {"note": 50, "velocity": 55, "startTime": 5.58, "duration": 0.85}, {"note": 43, "velocity": 58, "startTime": 6.05, "duration": 0.85}, {"note": 45, "velocity": 52, "startTime": 6.98, "duration": 0.85}, {"note": 47, "velocity": 55, "startTime": 7.92, "duration": 0.85}, {"note": 48, "velocity": 58, "startTime": 8.85, "duration": 0.85}, {"note": 47, "velocity": 52, "startTime": 9.78, "duration": 0.85}, {"note": 45, "velocity": 50, "startTime": 10.72, "duration": 0.85}, {"note": 43, "velocity": 55, "startTime": 11.65, "duration": 0.85}, {"note": 48, "velocity": 60, "startTime": 12.05, "duration": 0.85}, {"note": 50, "velocity": 54, "startTime": 12.98, "duration": 0.85}, {"note": 52, "velocity": 56, "startTime": 13.92, "duration": 0.85}, {"note": 53, "velocity": 58, "startTime": 14.85, "duration": 0.85}, {"note": 52, "velocity": 52, "startTime": 15.78, "duration": 0.85}, {"note": 50, "velocity": 50, "startTime": 16.72, "duration": 0.85}, {"note": 48, "velocity": 54, "startTime": 17.65, "duration": 0.85}, {"note": 50, "velocity": 58, "startTime": 18.05, "duration": 0.85}, {"note": 52, "velocity": 52, "startTime": 18.98, "duration": 0.85}, {"note": 53, "velocity": 55, "startTime": 19.92, "duration": 0.85}, {"note": 55, "velocity": 58, "startTime": 20.85, "duration": 0.85}, {"note": 53, "velocity": 52, "startTime": 21.78, "duration": 0.85}, {"note": 52, "velocity": 50, "startTime": 22.72, "duration": 0.85}, {"note": 50, "velocity": 55, "startTime": 23.65, "duration": 0.85}, {"note": 43, "velocity": 58, "startTime": 24.05, "duration": 0.85}, {"note": 45, "velocity": 52, "startTime": 24.98, "duration": 0.85}, {"note": 47, "velocity": 55, "startTime": 25.92, "duration": 0.85}, {"note": 48, "velocity": 58, "startTime": 26.85, "duration": 0.85}, {"note": 47, "velocity": 52, "startTime": 27.78, "duration": 0.85}, {"note": 45, "velocity": 50, "startTime": 28.72, "duration": 0.85}, {"note": 43, "velocity": 55, "startTime": 29.65, "duration": 0.85}, {"note": 48, "velocity": 60, "startTime": 30.05, "duration": 0.85}, {"note": 50, "velocity": 54, "startTime": 30.98, "duration": 0.85}, {"note": 52, "velocity": 56, "startTime": 31.92, "duration": 0.85}, {"note": 53, "velocity": 58, "startTime": 32.85, "duration": 0.85}, {"note": 52, "velocity": 52, "startTime": 33.78, "duration": 0.85}, {"note": 50, "velocity": 50, "startTime": 34.72, "duration": 0.85}, {"note": 48, "velocity": 54, "startTime": 35.65, "duration": 0.85}, {"note": 50, "velocity": 58, "startTime": 36.05, "duration": 0.85}, {"note": 52, "velocity": 52, "startTime": 36.98, "duration": 0.85}, {"note": 53, "velocity": 55, "startTime": 37.92, "duration": 0.85}, {"note": 55, "velocity": 58, "startTime": 38.85, "duration": 0.85}, {"note": 53, "velocity": 52, "startTime": 39.78, "duration": 0.85}, {"note": 52, "velocity": 50, "startTime": 40.72, "duration": 0.85}, {"note": 50, "velocity": 55, "startTime": 41.65, "duration": 0.85}, {"note": 48, "velocity": 60, "startTime": 42.1, "duration": 0.85}, {"note": 50, "velocity": 54, "startTime": 43.05, "duration": 0.85}, {"note": 52, "velocity": 56, "startTime": 43.98, "duration": 0.85}, {"note": 53, "velocity": 58, "startTime": 44.92, "duration": 0.85}, {"note": 52, "velocity": 50, "startTime": 45.85, "duration": 0.85}, {"note": 48, "velocity": 48, "startTime": 46.78, "duration": 1.2}]}, {"name": "Jazz Guitar Tex", "program": 26, "role": "texture", "totalDuration": 48.0, "notes": [{"note": 57, "velocity": 38, "startTime": 2.3, "duration": 3.5}, {"note": 60, "velocity": 35, "startTime": 2.3, "duration": 3.5}, {"note": 64, "velocity": 33, "startTime": 2.3, "duration": 3.5}, {"note": 57, "velocity": 36, "startTime": 8.5, "duration": 3.2}, {"note": 62, "velocity": 34, "startTime": 8.5, "duration": 3.2}, {"note": 65, "velocity": 32, "startTime": 8.5, "duration": 3.2}, {"note": 55, "velocity": 38, "startTime": 14.7, "duration": 3.6}, {"note": 59, "velocity": 35, "startTime": 14.7, "duration": 3.6}, {"note": 62, "velocity": 33, "startTime": 14.7, "duration": 3.6}, {"note": 67, "velocity": 30, "startTime": 14.7, "duration": 3.6}, {"note": 57, "velocity": 38, "startTime": 20.4, "duration": 3.5}, {"note": 60, "velocity": 35, "startTime": 20.4, "duration": 3.5}, {"note": 64, "velocity": 33, "startTime": 20.4, "duration": 3.5}, {"note": 57, "velocity": 36, "startTime": 26.6, "duration": 3.2}, {"note": 62, "velocity": 34, "startTime": 26.6, "duration": 3.2}, {"note": 65, "velocity": 32, "startTime": 26.6, "duration": 3.2}, {"note": 55, "velocity": 38, "startTime": 32.8, "duration": 3.6}, {"note": 59, "velocity": 35, "startTime": 32.8, "duration": 3.6}, {"note": 62, "velocity": 33, "startTime": 32.8, "duration": 3.6}, {"note": 67, "velocity": 30, "startTime": 32.8, "duration": 3.6}, {"note": 57, "velocity": 36, "startTime": 38.9, "duration": 3.4}, {"note": 60, "velocity": 34, "startTime": 38.9, "duration": 3.4}, {"note": 64, "velocity": 32, "startTime": 38.9, "duration": 3.4}, {"note": 55, "velocity": 34, "startTime": 43.5, "duration": 4.2}, {"note": 59, "velocity": 32, "startTime": 43.5, "duration": 4.2}, {"note": 64, "velocity": 30, "startTime": 43.5, "duration": 4.2}, {"note": 67, "velocity": 28, "startTime": 43.5, "duration": 4.2}]}], "key": "D", "bpm": 62, "scale": "Dorian"}, {"genre": "rock", "mode": "sleep", "tracks": [{"name": "Overdriven Lead Guitar", "program": 29, "role": "melody", "totalDuration": 56, "notes": [{"note": 52, "velocity": 42, "startTime": 0, "duration": 3.2}, {"note": 50, "velocity": 38, "startTime": 3.4, "duration": 2.0}, {"note": 48, "velocity": 44, "startTime": 5.6, "duration": 4.8}, {"note": 45, "velocity": 40, "startTime": 10.6, "duration": 2.4}, {"note": 48, "velocity": 43, "startTime": 13.2, "duration": 3.6}, {"note": 50, "velocity": 45, "startTime": 17.0, "duration": 2.8}, {"note": 52, "velocity": 50, "startTime": 20.0, "duration": 5.6}, {"note": 48, "velocity": 42, "startTime": 26.0, "duration": 2.2}, {"note": 45, "velocity": 38, "startTime": 28.4, "duration": 3.8}, {"note": 43, "velocity": 44, "startTime": 32.4, "duration": 6.0}, {"note": 45, "velocity": 40, "startTime": 38.6, "duration": 2.4}, {"note": 48, "velocity": 46, "startTime": 41.2, "duration": 3.2}, {"note": 50, "velocity": 43, "startTime": 44.6, "duration": 2.6}, {"note": 52, "velocity": 48, "startTime": 47.4, "duration": 4.0}, {"note": 48, "velocity": 36, "startTime": 51.6, "duration": 4.2}]}, {"name": "Electric Bass", "program": 33, "role": "bass", "totalDuration": 56, "notes": [{"note": 28, "velocity": 50, "startTime": 0.1, "duration": 5.6}, {"note": 28, "velocity": 48, "startTime": 6.0, "duration": 5.4}, {"note": 33, "velocity": 52, "startTime": 12.0, "duration": 5.6}, {"note": 31, "velocity": 50, "startTime": 18.0, "duration": 5.8}, {"note": 28, "velocity": 51, "startTime": 24.0, "duration": 5.6}, {"note": 28, "velocity": 48, "startTime": 30.0, "duration": 5.4}, {"note": 33, "velocity": 52, "startTime": 36.0, "duration": 5.6}, {"note": 31, "velocity": 50, "startTime": 42.0, "duration": 5.8}, {"note": 28, "velocity": 46, "startTime": 48.0, "duration": 7.8}]}, {"name": "Warm Pad Chords", "program": 89, "role": "chords", "totalDuration": 56, "notes": [{"note": 40, "velocity": 44, "startTime": 0.2, "duration": 11.4}, {"note": 43, "velocity": 42, "startTime": 0.2, "duration": 11.4}, {"note": 47, "velocity": 40, "startTime": 0.2, "duration": 11.4}, {"note": 52, "velocity": 38, "startTime": 0.2, "duration": 11.4}, {"note": 45, "velocity": 44, "startTime": 12.0, "duration": 11.6}, {"note": 48, "velocity": 42, "startTime": 12.0, "duration": 11.6}, {"note": 52, "velocity": 40, "startTime": 12.0, "duration": 11.6}, {"note": 55, "velocity": 38, "startTime": 12.0, "duration": 11.6}, {"note": 43, "velocity": 44, "startTime": 24.0, "duration": 11.4}, {"note": 46, "velocity": 42, "startTime": 24.0, "duration": 11.4}, {"note": 50, "velocity": 40, "startTime": 24.0, "duration": 11.4}, {"note": 55, "velocity": 38, "startTime": 24.0, "duration": 11.4}, {"note": 45, "velocity": 44, "startTime": 36.0, "duration": 11.6}, {"note": 48, "velocity": 42, "startTime": 36.0, "duration": 11.6}, {"note": 52, "velocity": 40, "startTime": 36.0, "duration": 11.6}, {"note": 55, "velocity": 38, "startTime": 36.0, "duration": 11.6}, {"note": 40, "velocity": 40, "startTime": 48.0, "duration": 7.8}, {"note": 43, "velocity": 38, "startTime": 48.0, "duration": 7.8}, {"note": 47, "velocity": 36, "startTime": 48.0, "duration": 7.8}, {"note": 52, "velocity": 34, "startTime": 48.0, "duration": 7.8}]}, {"name": "Distortion Texture", "program": 30, "role": "texture", "totalDuration": 56, "notes": [{"note": 40, "velocity": 30, "startTime": 0.4, "duration": 23.0}, {"note": 47, "velocity": 28, "startTime": 0.4, "duration": 23.0}, {"note": 45, "velocity": 30, "startTime": 24.2, "duration": 23.0}, {"note": 52, "velocity": 28, "startTime": 24.2, "duration": 23.0}, {"note": 40, "velocity": 26, "startTime": 48.2, "duration": 7.6}, {"note": 47, "velocity": 24, "startTime": 48.2, "duration": 7.6}]}], "key": "Em", "bpm": 48, "scale": "natural minor"}, {"genre": "rock", "mode": "relaxation", "tracks": [{"name": "Melodic Guitar", "program": 29, "role": "melody", "totalDuration": 48, "notes": [{"note": 64, "velocity": 62, "startTime": 0, "duration": 0.9}, {"note": 62, "velocity": 58, "startTime": 1.0, "duration": 0.7}, {"note": 59, "velocity": 65, "startTime": 1.85, "duration": 1.4}, {"note": 57, "velocity": 60, "startTime": 3.4, "duration": 0.8}, {"note": 59, "velocity": 63, "startTime": 4.3, "duration": 1.6}, {"note": 64, "velocity": 62, "startTime": 6.1, "duration": 0.9}, {"note": 62, "velocity": 58, "startTime": 7.05, "duration": 0.7}, {"note": 59, "velocity": 65, "startTime": 7.85, "duration": 1.4}, {"note": 55, "velocity": 60, "startTime": 9.35, "duration": 0.8}, {"note": 57, "velocity": 63, "startTime": 10.2, "duration": 2.0}, {"note": 67, "velocity": 65, "startTime": 12.3, "duration": 0.9}, {"note": 64, "velocity": 62, "startTime": 13.25, "duration": 0.7}, {"note": 62, "velocity": 60, "startTime": 14.05, "duration": 0.9}, {"note": 59, "velocity": 68, "startTime": 15.05, "duration": 1.8}, {"note": 64, "velocity": 62, "startTime": 17.1, "duration": 0.9}, {"note": 62, "velocity": 58, "startTime": 18.05, "duration": 0.7}, {"note": 60, "velocity": 65, "startTime": 18.85, "duration": 1.1}, {"note": 59, "velocity": 60, "startTime": 20.05, "duration": 2.2}, {"note": 64, "velocity": 62, "startTime": 22.4, "duration": 0.9}, {"note": 62, "velocity": 58, "startTime": 23.35, "duration": 0.7}, {"note": 59, "velocity": 65, "startTime": 24.15, "duration": 1.4}, {"note": 57, "velocity": 60, "startTime": 25.65, "duration": 0.8}, {"note": 59, "velocity": 63, "startTime": 26.55, "duration": 1.6}, {"note": 64, "velocity": 62, "startTime": 28.4, "duration": 0.9}, {"note": 62, "velocity": 58, "startTime": 29.35, "duration": 0.7}, {"note": 59, "velocity": 65, "startTime": 30.15, "duration": 1.4}, {"note": 55, "velocity": 60, "startTime": 31.65, "duration": 0.8}, {"note": 57, "velocity": 63, "startTime": 32.55, "duration": 2.2}, {"note": 67, "velocity": 65, "startTime": 35.0, "duration": 0.9}, {"note": 64, "velocity": 62, "startTime": 36.0, "duration": 0.7}, {"note": 62, "velocity": 60, "startTime": 36.85, "duration": 0.9}, {"note": 60, "velocity": 65, "startTime": 37.85, "duration": 1.0}, {"note": 59, "velocity": 68, "startTime": 38.95, "duration": 1.6}, {"note": 55, "velocity": 62, "startTime": 40.8, "duration": 1.0}, {"note": 57, "velocity": 60, "startTime": 42.0, "duration": 0.9}, {"note": 59, "velocity": 65, "startTime": 43.05, "duration": 1.3}, {"note": 57, "velocity": 58, "startTime": 44.5, "duration": 0.8}, {"note": 55, "velocity": 55, "startTime": 45.5, "duration": 2.5}]}, {"name": "Electric Bass", "program": 33, "role": "bass", "totalDuration": 48, "notes": [{"note": 40, "velocity": 68, "startTime": 0, "duration": 3.8}, {"note": 40, "velocity": 65, "startTime": 4.0, "duration": 3.8}, {"note": 36, "velocity": 68, "startTime": 8.0, "duration": 3.8}, {"note": 38, "velocity": 65, "startTime": 12.0, "duration": 3.8}, {"note": 40, "velocity": 68, "startTime": 16.0, "duration": 3.8}, {"note": 40, "velocity": 65, "startTime": 20.0, "duration": 3.8}, {"note": 36, "velocity": 68, "startTime": 24.0, "duration": 3.8}, {"note": 38, "velocity": 65, "startTime": 28.0, "duration": 3.8}, {"note": 40, "velocity": 68, "startTime": 32.0, "duration": 3.8}, {"note": 36, "velocity": 68, "startTime": 36.0, "duration": 3.8}, {"note": 38, "velocity": 65, "startTime": 40.0, "duration": 3.8}, {"note": 40, "velocity": 60, "startTime": 44.0, "duration": 4.0}]}, {"name": "Warm Chord Pad", "program": 89, "role": "chords", "totalDuration": 48, "notes": [{"note": 52, "velocity": 55, "startTime": 0, "duration": 7.7}, {"note": 55, "velocity": 52, "startTime": 0, "duration": 7.7}, {"note": 59, "velocity": 50, "startTime": 0, "duration": 7.7}, {"note": 64, "velocity": 48, "startTime": 0, "duration": 7.7}, {"note": 48, "velocity": 55, "startTime": 8.0, "duration": 7.7}, {"note": 52, "velocity": 52, "startTime": 8.0, "duration": 7.7}, {"note": 55, "velocity": 50, "startTime": 8.0, "duration": 7.7}, {"note": 60, "velocity": 48, "startTime": 8.0, "duration": 7.7}, {"note": 50, "velocity": 55, "startTime": 16.0, "duration": 7.7}, {"note": 53, "velocity": 52, "startTime": 16.0, "duration": 7.7}, {"note": 57, "velocity": 50, "startTime": 16.0, "duration": 7.7}, {"note": 62, "velocity": 48, "startTime": 16.0, "duration": 7.7}, {"note": 52, "velocity": 55, "startTime": 24.0, "duration": 7.7}, {"note": 55, "velocity": 52, "startTime": 24.0, "duration": 7.7}, {"note": 59, "velocity": 50, "startTime": 24.0, "duration": 7.7}, {"note": 64, "velocity": 48, "startTime": 24.0, "duration": 7.7}, {"note": 48, "velocity": 55, "startTime": 32.0, "duration": 7.7}, {"note": 52, "velocity": 52, "startTime": 32.0, "duration": 7.7}, {"note": 55, "velocity": 50, "startTime": 32.0, "duration": 7.7}, {"note": 60, "velocity": 48, "startTime": 32.0, "duration": 7.7}, {"note": 50, "velocity": 52, "startTime": 40.0, "duration": 7.8}, {"note": 53, "velocity": 50, "startTime": 40.0, "duration": 7.8}, {"note": 57, "velocity": 48, "startTime": 40.0, "duration": 7.8}, {"note": 62, "velocity": 45, "startTime": 40.0, "duration": 7.8}]}, {"name": "Ambient Texture", "program": 89, "role": "texture", "totalDuration": 48, "notes": [{"note": 76, "velocity": 30, "startTime": 0.5, "duration": 7.0}, {"note": 72, "velocity": 28, "startTime": 8.3, "duration": 7.0}, {"note": 74, "velocity": 30, "startTime": 16.2, "duration": 7.0}, {"note": 76, "velocity": 30, "startTime": 24.6, "duration": 7.0}, {"note": 72, "velocity": 28, "startTime": 32.4, "duration": 7.0}, {"note": 74, "velocity": 25, "startTime": 40.8, "duration": 7.0}]}], "key": "Em", "bpm": 62, "scale": "natural minor"}, {"genre": "hiphop", "mode": "sleep", "tracks": [{"name": "Vibraphone Melody", "program": 11, "role": "melody", "totalDuration": 56, "notes": [{"note": 60, "velocity": 52, "startTime": 2.05, "duration": 1.8}, {"note": 63, "velocity": 48, "startTime": 4.12, "duration": 2.4}, {"note": 65, "velocity": 45, "startTime": 7.08, "duration": 1.5}, {"note": 63, "velocity": 50, "startTime": 9.55, "duration": 3.2}, {"note": 58, "velocity": 42, "startTime": 13.2, "duration": 2.1}, {"note": 60, "velocity": 50, "startTime": 16.07, "duration": 1.7}, {"note": 63, "velocity": 47, "startTime": 18.1, "duration": 2.6}, {"note": 65, "velocity": 44, "startTime": 21.05, "duration": 1.4}, {"note": 63, "velocity": 52, "startTime": 23.58, "duration": 3.5}, {"note": 60, "velocity": 40, "startTime": 27.6, "duration": 2.2}, {"note": 56, "velocity": 38, "startTime": 30.9, "duration": 3.8}, {"note": 58, "velocity": 46, "startTime": 35.14, "duration": 1.9}, {"note": 60, "velocity": 51, "startTime": 37.8, "duration": 2.0}, {"note": 63, "velocity": 48, "startTime": 40.06, "duration": 2.5}, {"note": 65, "velocity": 44, "startTime": 43.12, "duration": 1.6}, {"note": 63, "velocity": 50, "startTime": 45.55, "duration": 3.1}, {"note": 60, "velocity": 43, "startTime": 49.8, "duration": 2.3}, {"note": 58, "velocity": 38, "startTime": 53.1, "duration": 4.5}]}, {"name": "Electric Piano Chords", "program": 4, "role": "chords", "totalDuration": 56, "notes": [{"note": 48, "velocity": 44, "startTime": 0, "duration": 10.8}, {"note": 55, "velocity": 40, "startTime": 0, "duration": 10.8}, {"note": 60, "velocity": 38, "startTime": 0, "duration": 10.8}, {"note": 63, "velocity": 36, "startTime": 0, "duration": 10.8}, {"note": 44, "velocity": 43, "startTime": 11.0, "duration": 10.5}, {"note": 51, "velocity": 39, "startTime": 11.0, "duration": 10.5}, {"note": 56, "velocity": 37, "startTime": 11.0, "duration": 10.5}, {"note": 60, "velocity": 35, "startTime": 11.0, "duration": 10.5}, {"note": 46, "velocity": 43, "startTime": 21.7, "duration": 10.8}, {"note": 53, "velocity": 39, "startTime": 21.7, "duration": 10.8}, {"note": 58, "velocity": 37, "startTime": 21.7, "duration": 10.8}, {"note": 62, "velocity": 35, "startTime": 21.7, "duration": 10.8}, {"note": 48, "velocity": 44, "startTime": 32.7, "duration": 11.0}, {"note": 55, "velocity": 40, "startTime": 32.7, "duration": 11.0}, {"note": 60, "velocity": 38, "startTime": 32.7, "duration": 11.0}, {"note": 63, "velocity": 36, "startTime": 32.7, "duration": 11.0}, {"note": 44, "velocity": 42, "startTime": 43.9, "duration": 12.1}, {"note": 51, "velocity": 38, "startTime": 43.9, "duration": 12.1}, {"note": 56, "velocity": 36, "startTime": 43.9, "duration": 12.1}, {"note": 60, "velocity": 34, "startTime": 43.9, "duration": 12.1}]}, {"name": "Synth Sub Bass", "program": 38, "role": "bass", "totalDuration": 56, "notes": [{"note": 36, "velocity": 52, "startTime": 0.05, "duration": 10.6}, {"note": 32, "velocity": 50, "startTime": 11.1, "duration": 10.3}, {"note": 34, "velocity": 51, "startTime": 21.8, "duration": 10.6}, {"note": 36, "velocity": 53, "startTime": 32.8, "duration": 10.8}, {"note": 32, "velocity": 49, "startTime": 43.95, "duration": 11.8}]}, {"name": "Warm Pad Texture", "program": 89, "role": "texture", "totalDuration": 56, "notes": [{"note": 48, "velocity": 30, "startTime": 0, "duration": 22.0}, {"note": 55, "velocity": 27, "startTime": 0, "duration": 22.0}, {"note": 60, "velocity": 25, "startTime": 0, "duration": 22.0}, {"note": 46, "velocity": 30, "startTime": 21.5, "duration": 22.5}, {"note": 53, "velocity": 27, "startTime": 21.5, "duration": 22.5}, {"note": 58, "velocity": 25, "startTime": 21.5, "duration": 22.5}, {"note": 48, "velocity": 28, "startTime": 43.8, "duration": 12.2}, {"note": 55, "velocity": 25, "startTime": 43.8, "duration": 12.2}, {"note": 60, "velocity": 23, "startTime": 43.8, "duration": 12.2}]}], "key": "Cm", "bpm": 48, "scale": "minor pentatonic"}, {"genre": "hiphop", "mode": "relaxation", "tracks": [{"name": "Vibraphone Melody", "program": 11, "role": "melody", "totalDuration": 48.0, "notes": [{"note": 63, "velocity": 65, "startTime": 0.22, "duration": 0.9}, {"note": 60, "velocity": 58, "startTime": 1.15, "duration": 1.6}, {"note": 58, "velocity": 62, "startTime": 2.85, "duration": 0.75}, {"note": 55, "velocity": 55, "startTime": 3.72, "duration": 2.2}, {"note": 63, "velocity": 64, "startTime": 6.2, "duration": 0.85}, {"note": 60, "velocity": 57, "startTime": 7.12, "duration": 1.55}, {"note": 56, "velocity": 60, "startTime": 8.78, "duration": 0.7}, {"note": 53, "velocity": 52, "startTime": 9.65, "duration": 2.5}, {"note": 65, "velocity": 66, "startTime": 12.18, "duration": 0.85}, {"note": 63, "velocity": 63, "startTime": 13.1, "duration": 1.4}, {"note": 60, "velocity": 60, "startTime": 14.62, "duration": 0.8}, {"note": 58, "velocity": 56, "startTime": 15.55, "duration": 2.1}, {"note": 65, "velocity": 65, "startTime": 18.22, "duration": 0.9}, {"note": 63, "velocity": 60, "startTime": 19.15, "duration": 1.5}, {"note": 58, "velocity": 58, "startTime": 20.75, "duration": 0.7}, {"note": 55, "velocity": 50, "startTime": 21.7, "duration": 3.0}, {"note": 63, "velocity": 64, "startTime": 24.22, "duration": 0.9}, {"note": 60, "velocity": 57, "startTime": 25.14, "duration": 1.6}, {"note": 58, "velocity": 61, "startTime": 26.85, "duration": 0.75}, {"note": 55, "velocity": 54, "startTime": 27.72, "duration": 2.2}, {"note": 63, "velocity": 63, "startTime": 30.2, "duration": 0.85}, {"note": 60, "velocity": 56, "startTime": 31.12, "duration": 1.55}, {"note": 56, "velocity": 59, "startTime": 32.78, "duration": 0.7}, {"note": 53, "velocity": 51, "startTime": 33.65, "duration": 2.5}, {"note": 67, "velocity": 68, "startTime": 36.18, "duration": 0.9}, {"note": 65, "velocity": 64, "startTime": 37.12, "duration": 1.4}, {"note": 63, "velocity": 61, "startTime": 38.65, "duration": 0.8}, {"note": 60, "velocity": 57, "startTime": 39.6, "duration": 1.5}, {"note": 58, "velocity": 53, "startTime": 41.22, "duration": 0.7}, {"note": 55, "velocity": 49, "startTime": 42.18, "duration": 3.8}, {"note": 63, "velocity": 55, "startTime": 46.1, "duration": 1.7}]}, {"name": "Synth Bass", "program": 38, "role": "bass", "totalDuration": 48.0, "notes": [{"note": 36, "velocity": 98, "startTime": 0, "duration": 5.6}, {"note": 34, "velocity": 95, "startTime": 6.0, "duration": 5.8}, {"note": 41, "velocity": 100, "startTime": 12.0, "duration": 5.7}, {"note": 39, "velocity": 96, "startTime": 18.0, "duration": 5.8}, {"note": 36, "velocity": 97, "startTime": 24.0, "duration": 5.6}, {"note": 34, "velocity": 94, "startTime": 30.0, "duration": 5.8}, {"note": 41, "velocity": 99, "startTime": 36.0, "duration": 5.7}, {"note": 36, "velocity": 92, "startTime": 42.0, "duration": 5.8}]}, {"name": "Warm Chord Pad", "program": 89, "role": "chords", "totalDuration": 48.0, "notes": [{"note": 48, "velocity": 58, "startTime": 0.05, "duration": 5.7}, {"note": 55, "velocity": 55, "startTime": 0.05, "duration": 5.7}, {"note": 58, "velocity": 52, "startTime": 0.05, "duration": 5.7}, {"note": 63, "velocity": 48, "startTime": 0.05, "duration": 5.7}, {"note": 46, "velocity": 57, "startTime": 6.08, "duration": 5.7}, {"note": 53, "velocity": 54, "startTime": 6.08, "duration": 5.7}, {"note": 58, "velocity": 51, "startTime": 6.08, "duration": 5.7}, {"note": 61, "velocity": 47, "startTime": 6.08, "duration": 5.7}, {"note": 53, "velocity": 59, "startTime": 12.05, "duration": 5.7}, {"note": 60, "velocity": 55, "startTime": 12.05, "duration": 5.7}, {"note": 63, "velocity": 52, "startTime": 12.05, "duration": 5.7}, {"note": 67, "velocity": 48, "startTime": 12.05, "duration": 5.7}, {"note": 51, "velocity": 57, "startTime": 18.08, "duration": 5.7}, {"note": 58, "velocity": 54, "startTime": 18.08, "duration": 5.7}, {"note": 63, "velocity": 51, "startTime": 18.08, "duration": 5.7}, {"note": 65, "velocity": 47, "startTime": 18.08, "duration": 5.7}, {"note": 48, "velocity": 57, "startTime": 24.05, "duration": 5.7}, {"note": 55, "velocity": 54, "startTime": 24.05, "duration": 5.7}, {"note": 58, "velocity": 51, "startTime": 24.05, "duration": 5.7}, {"note": 63, "velocity": 47, "startTime": 24.05, "duration": 5.7}, {"note": 46, "velocity": 56, "startTime": 30.08, "duration": 5.7}, {"note": 53, "velocity": 53, "startTime": 30.08, "duration": 5.7}, {"note": 58, "velocity": 50, "startTime": 30.08, "duration": 5.7}, {"note": 61, "velocity": 46, "startTime": 30.08, "duration": 5.7}, {"note": 53, "velocity": 58, "startTime": 36.05, "duration": 5.7}, {"note": 60, "velocity": 54, "startTime": 36.05, "duration": 5.7}, {"note": 63, "velocity": 51, "startTime": 36.05, "duration": 5.7}, {"note": 67, "velocity": 47, "startTime": 36.05, "duration": 5.7}, {"note": 48, "velocity": 55, "startTime": 42.05, "duration": 5.7}, {"note": 55, "velocity": 52, "startTime": 42.05, "duration": 5.7}, {"note": 58, "velocity": 49, "startTime": 42.05, "duration": 5.7}, {"note": 63, "velocity": 45, "startTime": 42.05, "duration": 5.7}]}, {"name": "Electric Piano Comping", "program": 4, "role": "texture", "totalDuration": 48.0, "notes": [{"note": 55, "velocity": 52, "startTime": 1.82, "duration": 1.2}, {"note": 58, "velocity": 48, "startTime": 1.82, "duration": 1.2}, {"note": 63, "velocity": 44, "startTime": 1.82, "duration": 1.2}, {"note": 53, "velocity": 50, "startTime": 4.65, "duration": 1.0}, {"note": 58, "velocity": 46, "startTime": 4.65, "duration": 1.0}, {"note": 61, "velocity": 42, "startTime": 4.65, "duration": 1.0}, {"note": 53, "velocity": 51, "startTime": 7.8, "duration": 1.2}, {"note": 58, "velocity": 47, "startTime": 7.8, "duration": 1.2}, {"note": 61, "velocity": 43, "startTime": 7.8, "duration": 1.2}, {"note": 53, "velocity": 49, "startTime": 10.65, "duration": 1.0}, {"note": 56, "velocity": 45, "startTime": 10.65, "duration": 1.0}, {"note": 61, "velocity": 41, "startTime": 10.65, "duration": 1.0}, {"note": 60, "velocity": 53, "startTime": 13.82, "duration": 1.2}, {"note": 63, "velocity": 49, "startTime": 13.82, "duration": 1.2}, {"note": 67, "velocity": 45, "startTime": 13.82, "duration": 1.2}, {"note": 60, "velocity": 50, "startTime": 16.65, "duration": 1.0}, {"note": 63, "velocity": 46, "startTime": 16.65, "duration": 1.0}, {"note": 65, "velocity": 42, "startTime": 16.65, "duration": 1.0}, {"note": 58, "velocity": 52, "startTime": 19.82, "duration": 1.2}, {"note": 63, "velocity": 48, "startTime": 19.82, "duration": 1.2}, {"note": 65, "velocity": 44, "startTime": 19.82, "duration": 1.2}, {"note": 55, "velocity": 49, "startTime": 22.65, "duration": 1.0}, {"note": 60, "velocity": 45, "startTime": 22.65, "duration": 1.0}, {"note": 63, "velocity": 41, "startTime": 22.65, "duration": 1.0}, {"note": 55, "velocity": 51, "startTime": 25.82, "duration": 1.2}, {"note": 58, "velocity": 47, "startTime": 25.82, "duration": 1.2}, {"note": 63, "velocity": 43, "startTime": 25.82, "duration": 1.2}, {"note": 53, "velocity": 49, "startTime": 28.65, "duration": 1.0}, {"note": 58, "velocity": 45, "startTime": 28.65, "duration": 1.0}, {"note": 61, "velocity": 41, "startTime": 28.65, "duration": 1.0}, {"note": 53, "velocity": 50, "startTime": 31.8, "duration": 1.2}, {"note": 58, "velocity": 46, "startTime": 31.8, "duration": 1.2}, {"note": 61, "velocity": 42, "startTime": 31.8, "duration": 1.2}, {"note": 51, "velocity": 48, "startTime": 34.65, "duration": 1.0}, {"note": 56, "velocity": 44, "startTime": 34.65, "duration": 1.0}, {"note": 60, "velocity": 40, "startTime": 34.65, "duration": 1.0}, {"note": 60, "velocity": 52, "startTime": 37.82, "duration": 1.2}, {"note": 63, "velocity": 48, "startTime": 37.82, "duration": 1.2}, {"note": 67, "velocity": 44, "startTime": 37.82, "duration": 1.2}, {"note": 58, "velocity": 50, "startTime": 40.65, "duration": 1.0}, {"note": 63, "velocity": 46, "startTime": 40.65, "duration": 1.0}, {"note": 65, "velocity": 42, "startTime": 40.65, "duration": 1.0}, {"note": 55, "velocity": 47, "startTime": 43.82, "duration": 1.2}, {"note": 60, "velocity": 43, "startTime": 43.82, "duration": 1.2}, {"note": 63, "velocity": 39, "startTime": 43.82, "duration": 1.2}, {"note": 48, "velocity": 44, "startTime": 46.2, "duration": 1.6}, {"note": 55, "velocity": 40, "startTime": 46.2, "duration": 1.6}, {"note": 60, "velocity": 36, "startTime": 46.2, "duration": 1.6}]}], "key": "Cm", "bpm": 62, "scale": "minor pentatonic"}, {"genre": "hiphop", "mode": "focus", "tracks": [{"name": "Vibraphone Melody", "program": 11, "role": "melody", "totalDuration": 51.2, "notes": [{"note": 69, "velocity": 68, "startTime": 0.82, "duration": 0.6}, {"note": 65, "velocity": 64, "startTime": 1.62, "duration": 1.2}, {"note": 60, "velocity": 70, "startTime": 3.22, "duration": 0.5}, {"note": 62, "velocity": 66, "startTime": 3.88, "duration": 1.6}, {"note": 69, "velocity": 68, "startTime": 6.42, "duration": 0.6}, {"note": 65, "velocity": 64, "startTime": 7.22, "duration": 1.2}, {"note": 67, "velocity": 72, "startTime": 8.82, "duration": 0.5}, {"note": 65, "velocity": 65, "startTime": 9.52, "duration": 2.0}, {"note": 72, "velocity": 70, "startTime": 12.82, "duration": 0.5}, {"note": 69, "velocity": 68, "startTime": 13.52, "duration": 0.6}, {"note": 65, "velocity": 64, "startTime": 14.32, "duration": 1.2}, {"note": 60, "velocity": 70, "startTime": 15.92, "duration": 0.5}, {"note": 62, "velocity": 66, "startTime": 16.58, "duration": 1.6}, {"note": 69, "velocity": 68, "startTime": 19.12, "duration": 0.6}, {"note": 65, "velocity": 64, "startTime": 19.92, "duration": 1.2}, {"note": 67, "velocity": 72, "startTime": 21.52, "duration": 0.5}, {"note": 65, "velocity": 65, "startTime": 22.22, "duration": 2.4}, {"note": 69, "velocity": 66, "startTime": 25.62, "duration": 0.6}, {"note": 65, "velocity": 62, "startTime": 26.42, "duration": 1.2}, {"note": 60, "velocity": 68, "startTime": 28.02, "duration": 0.5}, {"note": 62, "velocity": 64, "startTime": 28.68, "duration": 1.6}, {"note": 69, "velocity": 66, "startTime": 31.22, "duration": 0.6}, {"note": 65, "velocity": 62, "startTime": 32.02, "duration": 1.2}, {"note": 67, "velocity": 70, "startTime": 33.62, "duration": 0.5}, {"note": 65, "velocity": 63, "startTime": 34.32, "duration": 2.0}, {"note": 72, "velocity": 68, "startTime": 37.62, "duration": 0.5}, {"note": 69, "velocity": 66, "startTime": 38.32, "duration": 0.6}, {"note": 65, "velocity": 62, "startTime": 39.12, "duration": 1.2}, {"note": 60, "velocity": 68, "startTime": 40.72, "duration": 0.5}, {"note": 57, "velocity": 64, "startTime": 41.38, "duration": 2.0}, {"note": 69, "velocity": 65, "startTime": 44.42, "duration": 0.6}, {"note": 65, "velocity": 60, "startTime": 45.22, "duration": 1.2}, {"note": 67, "velocity": 68, "startTime": 46.82, "duration": 0.5}, {"note": 69, "velocity": 64, "startTime": 47.52, "duration": 2.4}]}, {"name": "Synth Bass", "program": 38, "role": "bass", "totalDuration": 51.2, "notes": [{"note": 45, "velocity": 100, "startTime": 0, "duration": 3.0}, {"note": 43, "velocity": 96, "startTime": 3.2, "duration": 3.0}, {"note": 45, "velocity": 100, "startTime": 6.4, "duration": 3.0}, {"note": 43, "velocity": 96, "startTime": 9.6, "duration": 3.0}, {"note": 45, "velocity": 100, "startTime": 12.8, "duration": 3.0}, {"note": 43, "velocity": 96, "startTime": 16.0, "duration": 3.0}, {"note": 45, "velocity": 100, "startTime": 19.2, "duration": 3.0}, {"note": 43, "velocity": 96, "startTime": 22.4, "duration": 3.0}, {"note": 45, "velocity": 98, "startTime": 25.6, "duration": 3.0}, {"note": 43, "velocity": 94, "startTime": 28.8, "duration": 3.0}, {"note": 45, "velocity": 98, "startTime": 32.0, "duration": 3.0}, {"note": 43, "velocity": 94, "startTime": 35.2, "duration": 3.0}, {"note": 45, "velocity": 98, "startTime": 38.4, "duration": 3.0}, {"note": 43, "velocity": 94, "startTime": 41.6, "duration": 3.0}, {"note": 45, "velocity": 96, "startTime": 44.8, "duration": 3.0}, {"note": 43, "velocity": 92, "startTime": 48.0, "duration": 3.0}]}, {"name": "Warm Pad Chords", "program": 89, "role": "chords", "totalDuration": 51.2, "notes": [{"note": 57, "velocity": 60, "startTime": 0.05, "duration": 6.2}, {"note": 60, "velocity": 58, "startTime": 0.05, "duration": 6.2}, {"note": 64, "velocity": 55, "startTime": 0.05, "duration": 6.2}, {"note": 55, "velocity": 60, "startTime": 6.45, "duration": 6.2}, {"note": 59, "velocity": 58, "startTime": 6.45, "duration": 6.2}, {"note": 62, "velocity": 55, "startTime": 6.45, "duration": 6.2}, {"note": 57, "velocity": 60, "startTime": 12.85, "duration": 6.2}, {"note": 60, "velocity": 58, "startTime": 12.85, "duration": 6.2}, {"note": 64, "velocity": 55, "startTime": 12.85, "duration": 6.2}, {"note": 55, "velocity": 60, "startTime": 19.25, "duration": 6.2}, {"note": 59, "velocity": 58, "startTime": 19.25, "duration": 6.2}, {"note": 62, "velocity": 55, "startTime": 19.25, "duration": 6.2}, {"note": 57, "velocity": 58, "startTime": 25.65, "duration": 6.2}, {"note": 60, "velocity": 56, "startTime": 25.65, "duration": 6.2}, {"note": 64, "velocity": 53, "startTime": 25.65, "duration": 6.2}, {"note": 55, "velocity": 58, "startTime": 32.05, "duration": 6.2}, {"note": 59, "velocity": 56, "startTime": 32.05, "duration": 6.2}, {"note": 62, "velocity": 53, "startTime": 32.05, "duration": 6.2}, {"note": 57, "velocity": 58, "startTime": 38.45, "duration": 6.2}, {"note": 60, "velocity": 56, "startTime": 38.45, "duration": 6.2}, {"note": 64, "velocity": 53, "startTime": 38.45, "duration": 6.2}, {"note": 55, "velocity": 56, "startTime": 44.85, "duration": 6.2}, {"note": 59, "velocity": 54, "startTime": 44.85, "duration": 6.2}, {"note": 62, "velocity": 51, "startTime": 44.85, "duration": 6.2}]}, {"name": "Boom-Bap Drums", "program": 0, "role": "drums", "totalDuration": 51.2, "notes": [{"note": 36, "velocity": 78, "startTime": 0, "duration": 0.1}, {"note": 42, "velocity": 52, "startTime": 0.2, "duration": 0.1}, {"note": 42, "velocity": 42, "startTime": 0.6, "duration": 0.1}, {"note": 42, "velocity": 56, "startTime": 1.0, "duration": 0.1}, {"note": 42, "velocity": 40, "startTime": 1.4, "duration": 0.1}, {"note": 38, "velocity": 72, "startTime": 1.6, "duration": 0.1}, {"note": 42, "velocity": 54, "startTime": 1.8, "duration": 0.1}, {"note": 42, "velocity": 44, "startTime": 2.2, "duration": 0.1}, {"note": 42, "velocity": 58, "startTime": 2.6, "duration": 0.1}, {"note": 36, "velocity": 76, "startTime": 3.2, "duration": 0.1}, {"note": 42, "velocity": 50, "startTime": 3.4, "duration": 0.1}, {"note": 42, "velocity": 40, "startTime": 3.8, "duration": 0.1}, {"note": 42, "velocity": 54, "startTime": 4.2, "duration": 0.1}, {"note": 42, "velocity": 42, "startTime": 4.6, "duration": 0.1}, {"note": 38, "velocity": 70, "startTime": 4.8, "duration": 0.1}, {"note": 42, "velocity": 52, "startTime": 5.0, "duration": 0.1}, {"note": 42, "velocity": 44, "startTime": 5.4, "duration": 0.1}, {"note": 42, "velocity": 60, "startTime": 5.8, "duration": 0.1}, {"note": 36, "velocity": 78, "startTime": 6.4, "duration": 0.1}, {"note": 42, "velocity": 52, "startTime": 6.6, "duration": 0.1}, {"note": 42, "velocity": 42, "startTime": 7.0, "duration": 0.1}, {"note": 42, "velocity": 56, "startTime": 7.4, "duration": 0.1}, {"note": 42, "velocity": 40, "startTime": 7.8, "duration": 0.1}, {"note": 38, "velocity": 72, "startTime": 8.0, "duration": 0.1}, {"note": 42, "velocity": 54, "startTime": 8.2, "duration": 0.1}, {"note": 42, "velocity": 44, "startTime": 8.6, "duration": 0.1}, {"note": 42, "velocity": 58, "startTime": 9.0, "duration": 0.1}, {"note": 36, "velocity": 76, "startTime": 9.6, "duration": 0.1}, {"note": 42, "velocity": 50, "startTime": 9.8, "duration": 0.1}, {"note": 42, "velocity": 40, "startTime": 10.2, "duration": 0.1}, {"note": 42, "velocity": 54, "startTime": 10.6, "duration": 0.1}, {"note": 42, "velocity": 42, "startTime": 11.0, "duration": 0.1}, {"note": 38, "velocity": 70, "startTime": 11.2, "duration": 0.1}, {"note": 42, "velocity": 52, "startTime": 11.4, "duration": 0.1}, {"note": 42, "velocity": 44, "startTime": 11.8, "duration": 0.1}, {"note": 36, "velocity": 80, "startTime": 12.8, "duration": 0.1}, {"note": 42, "velocity": 52, "startTime": 13.0, "duration": 0.1}, {"note": 42, "velocity": 42, "startTime": 13.4, "duration": 0.1}, {"note": 42, "velocity": 56, "startTime": 13.8, "duration": 0.1}, {"note": 42, "velocity": 40, "startTime": 14.2, "duration": 0.1}, {"note": 38, "velocity": 74, "startTime": 14.4, "duration": 0.1}, {"note": 42, "velocity": 54, "startTime": 14.6, "duration": 0.1}, {"note": 42, "velocity": 44, "startTime": 15.0, "duration": 0.1}, {"note": 42, "velocity": 58, "startTime": 15.4, "duration": 0.1}, {"note": 36, "velocity": 76, "startTime": 16.0, "duration": 0.1}, {"note": 42, "velocity": 50, "startTime": 16.2, "duration": 0.1}, {"note": 42, "velocity": 40, "startTime": 16.6, "duration": 0.1}, {"note": 42, "velocity": 54, "startTime": 17.0, "duration": 0.1}, {"note": 42, "velocity": 42, "startTime": 17.4, "duration": 0.1}, {"note": 38, "velocity": 72, "startTime": 17.6, "duration": 0.1}, {"note": 42, "velocity": 52, "startTime": 17.8, "duration": 0.1}, {"note": 42, "velocity": 44, "startTime": 18.2, "duration": 0.1}, {"note": 42, "velocity": 60, "startTime": 18.6, "duration": 0.1}, {"note": 36, "velocity": 78, "startTime": 19.2, "duration": 0.1}, {"note": 42, "velocity": 52, "startTime": 19.4, "duration": 0.1}, {"note": 42, "velocity": 42, "startTime": 19.8, "duration": 0.1}, {"note": 42, "velocity": 56, "startTime": 20.2, "duration": 0.1}, {"note": 42, "velocity": 40, "startTime": 20.6, "duration": 0.1}, {"note": 38, "velocity": 72, "startTime": 20.8, "duration": 0.1}, {"note": 42, "velocity": 54, "startTime": 21.0, "duration": 0.1}, {"note": 42, "velocity": 44, "startTime": 21.4, "duration": 0.1}, {"note": 42, "velocity": 58, "startTime": 21.8, "duration": 0.1}, {"note": 36, "velocity": 76, "startTime": 22.4, "duration": 0.1}, {"note": 42, "velocity": 50, "startTime": 22.6, "duration": 0.1}, {"note": 42, "velocity": 40, "startTime": 23.0, "duration": 0.1}, {"note": 42, "velocity": 54, "startTime": 23.4, "duration": 0.1}, {"note": 42, "velocity": 42, "startTime": 23.8, "duration": 0.1}, {"note": 38, "velocity": 70, "startTime": 24.0, "duration": 0.1}, {"note": 42, "velocity": 52, "startTime": 24.2, "duration": 0.1}, {"note": 42, "velocity": 44, "startTime": 24.6, "duration": 0.1}, {"note": 42, "velocity": 58, "startTime": 25.0, "duration": 0.1}, {"note": 36, "velocity": 78, "startTime": 25.6, "duration": 0.1}, {"note": 42, "velocity": 52, "startTime": 25.8, "duration": 0.1}, {"note": 42, "velocity": 42, "startTime": 26.2, "duration": 0.1}, {"note": 42, "velocity": 56, "startTime": 26.6, "duration": 0.1}, {"note": 42, "velocity": 40, "startTime": 27.0, "duration": 0.1}, {"note": 38, "velocity": 72, "startTime": 27.2, "duration": 0.1}, {"note": 42, "velocity": 54, "startTime": 27.4, "duration": 0.1}, {"note": 42, "velocity": 44, "startTime": 27.8, "duration": 0.1}, {"note": 42, "velocity": 58, "startTime": 28.2, "duration": 0.1}, {"note": 36, "velocity": 76, "startTime": 28.8, "duration": 0.1}, {"note": 42, "velocity": 50, "startTime": 29.0, "duration": 0.1}, {"note": 42, "velocity": 40, "startTime": 29.4, "duration": 0.1}, {"note": 42, "velocity": 54, "startTime": 29.8, "duration": 0.1}, {"note": 42, "velocity": 42, "startTime": 30.2, "duration": 0.1}, {"note": 38, "velocity": 70, "startTime": 30.4, "duration": 0.1}, {"note": 42, "velocity": 52, "startTime": 30.6, "duration": 0.1}, {"note": 42, "velocity": 44, "startTime": 31.0, "duration": 0.1}, {"note": 42, "velocity": 60, "startTime": 31.4, "duration": 0.1}, {"note": 36, "velocity": 80, "startTime": 32.0, "duration": 0.1}, {"note": 42, "velocity": 52, "startTime": 32.2, "duration": 0.1}, {"note": 42, "velocity": 42, "startTime": 32.6, "duration": 0.1}, {"note": 42, "velocity": 56, "startTime": 33.0, "duration": 0.1}, {"note": 42, "velocity": 40, "startTime": 33.4, "duration": 0.1}, {"note": 38, "velocity": 74, "startTime": 33.6, "duration": 0.1}, {"note": 42, "velocity": 54, "startTime": 33.8, "duration": 0.1}, {"note": 42, "velocity": 44, "startTime": 34.2, "duration": 0.1}, {"note": 42, "velocity": 58, "startTime": 34.6, "duration": 0.1}, {"note": 36, "velocity": 76, "startTime": 35.2, "duration": 0.1}, {"note": 42, "velocity": 50, "startTime": 35.4, "duration": 0.1}, {"note": 42, "velocity": 40, "startTime": 35.8, "duration": 0.1}, {"note": 42, "velocity": 54, "startTime": 36.2, "duration": 0.1}, {"note": 42, "velocity": 42, "startTime": 36.6, "duration": 0.1}, {"note": 38, "velocity": 72, "startTime": 36.8, "duration": 0.1}, {"note": 42, "velocity": 52, "startTime": 37.0, "duration": 0.1}, {"note": 42, "velocity": 44, "startTime": 37.4, "duration": 0.1}, {"note": 42, "velocity": 60, "startTime": 37.8, "duration": 0.1}, {"note": 36, "velocity": 78, "startTime": 38.4, "duration": 0.1}, {"note": 42, "velocity": 52, "startTime": 38.6, "duration": 0.1}, {"note": 42, "velocity": 42, "startTime": 39.0, "duration": 0.1}, {"note": 42, "velocity": 56, "startTime": 39.4, "duration": 0.1}, {"note": 42, "velocity": 40, "startTime": 39.8, "duration": 0.1}, {"note": 38, "velocity": 72, "startTime": 40.0, "duration": 0.1}, {"note": 42, "velocity": 54, "startTime": 40.2, "duration": 0.1}, {"note": 42, "velocity": 44, "startTime": 40.6, "duration": 0.1}, {"note": 42, "velocity": 58, "startTime": 41.0, "duration": 0.1}, {"note": 36, "velocity": 76, "startTime": 41.6, "duration": 0.1}, {"note": 42, "velocity": 50, "startTime": 41.8, "duration": 0.1}, {"note": 42, "velocity": 40, "startTime": 42.2, "duration": 0.1}, {"note": 42, "velocity": 54, "startTime": 42.6, "duration": 0.1}, {"note": 42, "velocity": 42, "startTime": 43.0, "duration": 0.1}, {"note": 38, "velocity": 70, "startTime": 43.2, "duration": 0.1}, {"note": 42, "velocity": 52, "startTime": 43.4, "duration": 0.1}, {"note": 42, "velocity": 44, "startTime": 43.8, "duration": 0.1}, {"note": 42, "velocity": 58, "startTime": 44.2, "duration": 0.1}, {"note": 36, "velocity": 76, "startTime": 44.8, "duration": 0.1}, {"note": 42, "velocity": 50, "startTime": 45.0, "duration": 0.1}, {"note": 42, "velocity": 40, "startTime": 45.4, "duration": 0.1}, {"note": 42, "velocity": 54, "startTime": 45.8, "duration": 0.1}, {"note": 42, "velocity": 42, "startTime": 46.2, "duration": 0.1}, {"note": 38, "velocity": 70, "startTime": 46.4, "duration": 0.1}, {"note": 42, "velocity": 52, "startTime": 46.6, "duration": 0.1}, {"note": 42, "velocity": 44, "startTime": 47.0, "duration": 0.1}, {"note": 42, "velocity": 60, "startTime": 47.4, "duration": 0.1}, {"note": 36, "velocity": 74, "startTime": 48.0, "duration": 0.1}, {"note": 42, "velocity": 48, "startTime": 48.2, "duration": 0.1}, {"note": 42, "velocity": 38, "startTime": 48.6, "duration": 0.1}, {"note": 42, "velocity": 52, "startTime": 49.0, "duration": 0.1}, {"note": 42, "velocity": 40, "startTime": 49.4, "duration": 0.1}, {"note": 38, "velocity": 68, "startTime": 49.6, "duration": 0.1}, {"note": 42, "velocity": 50, "startTime": 49.8, "duration": 0.1}, {"note": 42, "velocity": 42, "startTime": 50.2, "duration": 0.1}, {"note": 42, "velocity": 56, "startTime": 50.6, "duration": 0.1}, {"note": 36, "velocity": 72, "startTime": 51.0, "duration": 0.1}]}], "key": "Am", "bpm": 75, "scale": "minor pentatonic"}, {"genre": "blues", "mode": "sleep", "tracks": [{"name": "Steel Guitar Melody", "program": 25, "role": "melody", "totalDuration": 56.0, "notes": [{"note": 52, "velocity": 42, "startTime": 2.1, "duration": 3.2}, {"note": 50, "velocity": 38, "startTime": 5.5, "duration": 2.8}, {"note": 48, "velocity": 35, "startTime": 8.6, "duration": 4.1}, {"note": 52, "velocity": 44, "startTime": 14.2, "duration": 3.0}, {"note": 53, "velocity": 40, "startTime": 17.5, "duration": 2.5}, {"note": 52, "velocity": 36, "startTime": 20.3, "duration": 5.0}, {"note": 55, "velocity": 46, "startTime": 27.0, "duration": 3.4}, {"note": 53, "velocity": 43, "startTime": 30.7, "duration": 2.9}, {"note": 52, "velocity": 39, "startTime": 33.9, "duration": 4.6}, {"note": 52, "velocity": 42, "startTime": 40.1, "duration": 3.1}, {"note": 50, "velocity": 37, "startTime": 43.5, "duration": 2.7}, {"note": 48, "velocity": 33, "startTime": 46.5, "duration": 7.2}]}, {"name": "Walking Bass", "program": 33, "role": "bass", "totalDuration": 56.0, "notes": [{"note": 40, "velocity": 50, "startTime": 0, "duration": 2.8}, {"note": 43, "velocity": 45, "startTime": 3.1, "duration": 2.6}, {"note": 45, "velocity": 48, "startTime": 6.0, "duration": 2.9}, {"note": 44, "velocity": 43, "startTime": 9.1, "duration": 2.7}, {"note": 45, "velocity": 50, "startTime": 12.2, "duration": 2.8}, {"note": 48, "velocity": 45, "startTime": 15.3, "duration": 2.6}, {"note": 50, "velocity": 47, "startTime": 18.2, "duration": 2.9}, {"note": 49, "velocity": 42, "startTime": 21.3, "duration": 2.7}, {"note": 47, "velocity": 52, "startTime": 24.4, "duration": 2.8}, {"note": 50, "velocity": 47, "startTime": 27.5, "duration": 2.7}, {"note": 45, "velocity": 49, "startTime": 30.5, "duration": 2.8}, {"note": 44, "velocity": 44, "startTime": 33.6, "duration": 2.6}, {"note": 40, "velocity": 50, "startTime": 36.6, "duration": 2.8}, {"note": 43, "velocity": 45, "startTime": 39.7, "duration": 2.7}, {"note": 45, "velocity": 47, "startTime": 42.7, "duration": 2.9}, {"note": 44, "velocity": 42, "startTime": 45.8, "duration": 2.7}, {"note": 40, "velocity": 38, "startTime": 48.8, "duration": 7.2}]}, {"name": "Piano Chord Pads", "program": 0, "role": "chords", "totalDuration": 56.0, "notes": [{"note": 40, "velocity": 38, "startTime": 0.2, "duration": 11.5}, {"note": 44, "velocity": 35, "startTime": 0.2, "duration": 11.5}, {"note": 47, "velocity": 33, "startTime": 0.2, "duration": 11.5}, {"note": 50, "velocity": 30, "startTime": 0.2, "duration": 11.5}, {"note": 45, "velocity": 38, "startTime": 12.2, "duration": 11.5}, {"note": 49, "velocity": 35, "startTime": 12.2, "duration": 11.5}, {"note": 52, "velocity": 33, "startTime": 12.2, "duration": 11.5}, {"note": 55, "velocity": 30, "startTime": 12.2, "duration": 11.5}, {"note": 47, "velocity": 40, "startTime": 24.4, "duration": 5.8}, {"note": 51, "velocity": 37, "startTime": 24.4, "duration": 5.8}, {"note": 54, "velocity": 35, "startTime": 24.4, "duration": 5.8}, {"note": 57, "velocity": 32, "startTime": 24.4, "duration": 5.8}, {"note": 45, "velocity": 38, "startTime": 30.5, "duration": 5.8}, {"note": 49, "velocity": 35, "startTime": 30.5, "duration": 5.8}, {"note": 52, "velocity": 33, "startTime": 30.5, "duration": 5.8}, {"note": 55, "velocity": 30, "startTime": 30.5, "duration": 5.8}, {"note": 40, "velocity": 36, "startTime": 36.6, "duration": 11.5}, {"note": 44, "velocity": 33, "startTime": 36.6, "duration": 11.5}, {"note": 47, "velocity": 31, "startTime": 36.6, "duration": 11.5}, {"note": 50, "velocity": 28, "startTime": 36.6, "duration": 11.5}, {"note": 40, "velocity": 30, "startTime": 48.8, "duration": 7.0}, {"note": 44, "velocity": 27, "startTime": 48.8, "duration": 7.0}, {"note": 47, "velocity": 25, "startTime": 48.8, "duration": 7.0}, {"note": 50, "velocity": 22, "startTime": 48.8, "duration": 7.0}]}, {"name": "Organ Texture", "program": 16, "role": "texture", "totalDuration": 56.0, "notes": [{"note": 36, "velocity": 28, "startTime": 0.5, "duration": 24.0}, {"note": 40, "velocity": 24, "startTime": 0.5, "duration": 24.0}, {"note": 41, "velocity": 28, "startTime": 25.0, "duration": 11.0}, {"note": 45, "velocity": 24, "startTime": 25.0, "duration": 11.0}, {"note": 36, "velocity": 26, "startTime": 36.8, "duration": 18.5}, {"note": 40, "velocity": 22, "startTime": 36.8, "duration": 18.5}]}], "key": "E", "bpm": 46, "scale": "blues pentatonic"}, {"genre": "blues", "mode": "relaxation", "tracks": [{"name": "Blues Melody - Steel Gtr", "program": 25, "role": "melody", "totalDuration": 48.0, "notes": [{"note": 64, "velocity": 58, "startTime": 0.2, "duration": 0.4}, {"note": 63, "velocity": 62, "startTime": 0.65, "duration": 0.35}, {"note": 64, "velocity": 65, "startTime": 1.05, "duration": 1.2}, {"note": 62, "velocity": 55, "startTime": 2.5, "duration": 0.5}, {"note": 60, "velocity": 60, "startTime": 3.1, "duration": 1.8}, {"note": 64, "velocity": 58, "startTime": 5.2, "duration": 0.4}, {"note": 63, "velocity": 62, "startTime": 5.65, "duration": 0.35}, {"note": 64, "velocity": 66, "startTime": 6.05, "duration": 0.9}, {"note": 67, "velocity": 68, "startTime": 7.1, "duration": 2.2}, {"note": 67, "velocity": 60, "startTime": 9.3, "duration": 0.4}, {"note": 65, "velocity": 58, "startTime": 9.8, "duration": 0.35}, {"note": 64, "velocity": 63, "startTime": 10.2, "duration": 0.8}, {"note": 62, "velocity": 55, "startTime": 11.1, "duration": 0.5}, {"note": 60, "velocity": 58, "startTime": 11.7, "duration": 1.5}, {"note": 63, "velocity": 65, "startTime": 13.3, "duration": 0.45}, {"note": 64, "velocity": 62, "startTime": 13.85, "duration": 0.9}, {"note": 62, "velocity": 58, "startTime": 14.85, "duration": 0.5}, {"note": 60, "velocity": 55, "startTime": 15.45, "duration": 2.5}, {"note": 64, "velocity": 60, "startTime": 18.2, "duration": 0.4}, {"note": 63, "velocity": 63, "startTime": 18.65, "duration": 0.35}, {"note": 64, "velocity": 67, "startTime": 19.05, "duration": 1.1}, {"note": 62, "velocity": 57, "startTime": 20.3, "duration": 0.5}, {"note": 60, "velocity": 60, "startTime": 20.95, "duration": 1.9}, {"note": 64, "velocity": 60, "startTime": 23.2, "duration": 0.4}, {"note": 63, "velocity": 64, "startTime": 23.65, "duration": 0.35}, {"note": 64, "velocity": 68, "startTime": 24.05, "duration": 0.9}, {"note": 67, "velocity": 70, "startTime": 25.1, "duration": 2.4}, {"note": 69, "velocity": 65, "startTime": 27.3, "duration": 0.45}, {"note": 67, "velocity": 62, "startTime": 27.85, "duration": 0.4}, {"note": 65, "velocity": 60, "startTime": 28.35, "duration": 0.8}, {"note": 64, "velocity": 58, "startTime": 29.25, "duration": 0.5}, {"note": 62, "velocity": 55, "startTime": 29.85, "duration": 1.6}, {"note": 63, "velocity": 65, "startTime": 31.4, "duration": 0.45}, {"note": 64, "velocity": 63, "startTime": 31.95, "duration": 0.85}, {"note": 62, "velocity": 57, "startTime": 32.9, "duration": 0.5}, {"note": 60, "velocity": 55, "startTime": 33.5, "duration": 2.8}, {"note": 64, "velocity": 58, "startTime": 36.3, "duration": 0.4}, {"note": 63, "velocity": 62, "startTime": 36.75, "duration": 0.35}, {"note": 64, "velocity": 65, "startTime": 37.15, "duration": 1.0}, {"note": 62, "velocity": 55, "startTime": 38.3, "duration": 0.5}, {"note": 60, "velocity": 60, "startTime": 38.95, "duration": 1.8}, {"note": 64, "velocity": 60, "startTime": 41.2, "duration": 0.4}, {"note": 67, "velocity": 65, "startTime": 41.75, "duration": 0.9}, {"note": 65, "velocity": 62, "startTime": 42.75, "duration": 0.5}, {"note": 64, "velocity": 58, "startTime": 43.35, "duration": 0.7}, {"note": 62, "velocity": 55, "startTime": 44.15, "duration": 0.4}, {"note": 60, "velocity": 52, "startTime": 44.65, "duration": 3.2}]}, {"name": "Walking Blues Bass", "program": 33, "role": "bass", "totalDuration": 48.0, "notes": [{"note": 40, "velocity": 58, "startTime": 0, "duration": 0.85}, {"note": 43, "velocity": 52, "startTime": 0.9, "duration": 0.85}, {"note": 45, "velocity": 55, "startTime": 1.8, "duration": 0.85}, {"note": 44, "velocity": 50, "startTime": 2.7, "duration": 0.85}, {"note": 40, "velocity": 58, "startTime": 3.6, "duration": 0.85}, {"note": 43, "velocity": 52, "startTime": 4.5, "duration": 0.85}, {"note": 44, "velocity": 50, "startTime": 5.4, "duration": 0.85}, {"note": 45, "velocity": 52, "startTime": 6.3, "duration": 0.85}, {"note": 45, "velocity": 58, "startTime": 7.2, "duration": 0.85}, {"note": 48, "velocity": 52, "startTime": 8.1, "duration": 0.85}, {"note": 49, "velocity": 50, "startTime": 9.0, "duration": 0.85}, {"note": 48, "velocity": 50, "startTime": 9.9, "duration": 0.85}, {"note": 40, "velocity": 58, "startTime": 10.8, "duration": 0.85}, {"note": 43, "velocity": 52, "startTime": 11.7, "duration": 0.85}, {"note": 44, "velocity": 50, "startTime": 12.6, "duration": 0.85}, {"note": 42, "velocity": 50, "startTime": 13.5, "duration": 0.85}, {"note": 40, "velocity": 58, "startTime": 14.4, "duration": 0.85}, {"note": 43, "velocity": 52, "startTime": 15.3, "duration": 0.85}, {"note": 45, "velocity": 55, "startTime": 16.2, "duration": 0.85}, {"note": 47, "velocity": 50, "startTime": 17.1, "duration": 0.85}, {"note": 40, "velocity": 58, "startTime": 18.0, "duration": 0.85}, {"note": 43, "velocity": 52, "startTime": 18.9, "duration": 0.85}, {"note": 45, "velocity": 55, "startTime": 19.8, "duration": 0.85}, {"note": 44, "velocity": 50, "startTime": 20.7, "duration": 0.85}, {"note": 40, "velocity": 58, "startTime": 21.6, "duration": 0.85}, {"note": 43, "velocity": 52, "startTime": 22.5, "duration": 0.85}, {"note": 44, "velocity": 50, "startTime": 23.4, "duration": 0.85}, {"note": 45, "velocity": 52, "startTime": 24.3, "duration": 0.85}, {"note": 45, "velocity": 58, "startTime": 25.2, "duration": 0.85}, {"note": 48, "velocity": 52, "startTime": 26.1, "duration": 0.85}, {"note": 49, "velocity": 50, "startTime": 27.0, "duration": 0.85}, {"note": 48, "velocity": 50, "startTime": 27.9, "duration": 0.85}, {"note": 40, "velocity": 58, "startTime": 28.8, "duration": 0.85}, {"note": 43, "velocity": 52, "startTime": 29.7, "duration": 0.85}, {"note": 44, "velocity": 50, "startTime": 30.6, "duration": 0.85}, {"note": 42, "velocity": 50, "startTime": 31.5, "duration": 0.85}, {"note": 47, "velocity": 58, "startTime": 32.4, "duration": 0.85}, {"note": 45, "velocity": 52, "startTime": 33.3, "duration": 0.85}, {"note": 44, "velocity": 50, "startTime": 34.2, "duration": 0.85}, {"note": 42, "velocity": 52, "startTime": 35.1, "duration": 0.85}, {"note": 40, "velocity": 58, "startTime": 36.0, "duration": 0.85}, {"note": 43, "velocity": 52, "startTime": 36.9, "duration": 0.85}, {"note": 45, "velocity": 55, "startTime": 37.8, "duration": 0.85}, {"note": 44, "velocity": 50, "startTime": 38.7, "duration": 0.85}, {"note": 40, "velocity": 58, "startTime": 39.6, "duration": 0.85}, {"note": 43, "velocity": 52, "startTime": 40.5, "duration": 0.85}, {"note": 44, "velocity": 50, "startTime": 41.4, "duration": 0.85}, {"note": 45, "velocity": 52, "startTime": 42.3, "duration": 0.85}, {"note": 40, "velocity": 62, "startTime": 43.2, "duration": 0.85}, {"note": 43, "velocity": 52, "startTime": 44.1, "duration": 0.85}, {"note": 40, "velocity": 55, "startTime": 45.0, "duration": 2.8}]}, {"name": "Blues Organ Chords", "program": 16, "role": "chords", "totalDuration": 48.0, "notes": [{"note": 52, "velocity": 48, "startTime": 0.05, "duration": 3.5}, {"note": 56, "velocity": 45, "startTime": 0.05, "duration": 3.5}, {"note": 59, "velocity": 43, "startTime": 0.05, "duration": 3.5}, {"note": 62, "velocity": 40, "startTime": 0.05, "duration": 3.5}, {"note": 52, "velocity": 45, "startTime": 3.65, "duration": 3.4}, {"note": 56, "velocity": 42, "startTime": 3.65, "duration": 3.4}, {"note": 59, "velocity": 40, "startTime": 3.65, "duration": 3.4}, {"note": 62, "velocity": 38, "startTime": 3.65, "duration": 3.4}, {"note": 57, "velocity": 48, "startTime": 7.15, "duration": 3.5}, {"note": 61, "velocity": 45, "startTime": 7.15, "duration": 3.5}, {"note": 64, "velocity": 43, "startTime": 7.15, "duration": 3.5}, {"note": 67, "velocity": 40, "startTime": 7.15, "duration": 3.5}, {"note": 52, "velocity": 45, "startTime": 10.75, "duration": 3.5}, {"note": 56, "velocity": 42, "startTime": 10.75, "duration": 3.5}, {"note": 59, "velocity": 40, "startTime": 10.75, "duration": 3.5}, {"note": 62, "velocity": 38, "startTime": 10.75, "duration": 3.5}, {"note": 47, "velocity": 48, "startTime": 14.3, "duration": 3.5}, {"note": 52, "velocity": 45, "startTime": 14.3, "duration": 3.5}, {"note": 56, "velocity": 43, "startTime": 14.3, "duration": 3.5}, {"note": 59, "velocity": 40, "startTime": 14.3, "duration": 3.5}, {"note": 52, "velocity": 48, "startTime": 17.9, "duration": 3.5}, {"note": 56, "velocity": 45, "startTime": 17.9, "duration": 3.5}, {"note": 59, "velocity": 43, "startTime": 17.9, "duration": 3.5}, {"note": 62, "velocity": 40, "startTime": 17.9, "duration": 3.5}, {"note": 52, "velocity": 45, "startTime": 21.45, "duration": 3.4}, {"note": 56, "velocity": 42, "startTime": 21.45, "duration": 3.4}, {"note": 59, "velocity": 40, "startTime": 21.45, "duration": 3.4}, {"note": 62, "velocity": 38, "startTime": 21.45, "duration": 3.4}, {"note": 57, "velocity": 48, "startTime": 24.9, "duration": 3.5}, {"note": 61, "velocity": 45, "startTime": 24.9, "duration": 3.5}, {"note": 64, "velocity": 43, "startTime": 24.9, "duration": 3.5}, {"note": 67, "velocity": 40, "startTime": 24.9, "duration": 3.5}, {"note": 52, "velocity": 45, "startTime": 28.45, "duration": 3.5}, {"note": 56, "velocity": 42, "startTime": 28.45, "duration": 3.5}, {"note": 59, "velocity": 40, "startTime": 28.45, "duration": 3.5}, {"note": 62, "velocity": 38, "startTime": 28.45, "duration": 3.5}, {"note": 47, "velocity": 48, "startTime": 32.0, "duration": 3.5}, {"note": 52, "velocity": 45, "startTime": 32.0, "duration": 3.5}, {"note": 56, "velocity": 43, "startTime": 32.0, "duration": 3.5}, {"note": 59, "velocity": 40, "startTime": 32.0, "duration": 3.5}, {"note": 47, "velocity": 48, "startTime": 35.55, "duration": 3.5}, {"note": 52, "velocity": 45, "startTime": 35.55, "duration": 3.5}, {"note": 56, "velocity": 43, "startTime": 35.55, "duration": 3.5}, {"note": 59, "velocity": 40, "startTime": 35.55, "duration": 3.5}, {"note": 52, "velocity": 48, "startTime": 39.1, "duration": 3.5}, {"note": 56, "velocity": 45, "startTime": 39.1, "duration": 3.5}, {"note": 59, "velocity": 43, "startTime": 39.1, "duration": 3.5}, {"note": 62, "velocity": 40, "startTime": 39.1, "duration": 3.5}, {"note": 52, "velocity": 48, "startTime": 42.7, "duration": 5.2}, {"note": 56, "velocity": 45, "startTime": 42.7, "duration": 5.2}, {"note": 59, "velocity": 43, "startTime": 42.7, "duration": 5.2}, {"note": 62, "velocity": 40, "startTime": 42.7, "duration": 5.2}]}, {"name": "Ambient Piano Texture", "program": 0, "role": "texture", "totalDuration": 48.0, "notes": [{"note": 40, "velocity": 35, "startTime": 0.1, "duration": 4.5}, {"note": 52, "velocity": 32, "startTime": 0.15, "duration": 4.5}, {"note": 59, "velocity": 30, "startTime": 0.2, "duration": 4.5}, {"note": 64, "velocity": 28, "startTime": 2.5, "duration": 5.0}, {"note": 40, "velocity": 35, "startTime": 7.2, "duration": 4.5}, {"note": 57, "velocity": 32, "startTime": 7.25, "duration": 4.5}, {"note": 64, "velocity": 30, "startTime": 7.3, "duration": 4.5}, {"note": 67, "velocity": 27, "startTime": 9.5, "duration": 4.8}, {"note": 40, "velocity": 35, "startTime": 14.3, "duration": 4.5}, {"note": 47, "velocity": 32, "startTime": 14.35, "duration": 4.5}, {"note": 56, "velocity": 30, "startTime": 14.4, "duration": 4.5}, {"note": 62, "velocity": 28, "startTime": 16.5, "duration": 4.5}, {"note": 40, "velocity": 35, "startTime": 18.0, "duration": 4.5}, {"note": 52, "velocity": 32, "startTime": 18.05, "duration": 4.5}, {"note": 59, "velocity": 30, "startTime": 18.1, "duration": 4.5}, {"note": 64, "velocity": 28, "startTime": 20.4, "duration": 5.0}, {"note": 40, "velocity": 35, "startTime": 25.0, "duration": 4.5}, {"note": 57, "velocity": 32, "startTime": 25.05, "duration": 4.5}, {"note": 64, "velocity": 30, "startTime": 25.1, "duration": 4.5}, {"note": 67, "velocity": 27, "startTime": 27.2, "duration": 4.8}, {"note": 40, "velocity": 35, "startTime": 32.0, "duration": 4.5}, {"note": 47, "velocity": 32, "startTime": 32.05, "duration": 4.5}, {"note": 56, "velocity": 30, "startTime": 32.1, "duration": 4.5}, {"note": 62, "velocity": 28, "startTime": 34.3, "duration": 4.5}, {"note": 40, "velocity": 35, "startTime": 39.2, "duration": 4.5}, {"note": 52, "velocity": 32, "startTime": 39.25, "duration": 4.5}, {"note": 59, "velocity": 30, "startTime": 39.3, "duration": 4.5}, {"note": 40, "velocity": 38, "startTime": 43.0, "duration": 4.8}, {"note": 52, "velocity": 34, "startTime": 43.1, "duration": 4.8}, {"note": 59, "velocity": 32, "startTime": 43.2, "duration": 4.8}, {"note": 64, "velocity": 30, "startTime": 43.3, "duration": 4.6}]}], "key": "E", "bpm": 62, "scale": "Blues Pentatonic"}, {"genre": "reggae", "mode": "sleep", "tracks": [{"name": "Nylon Guitar Melody", "program": 24, "role": "melody", "totalDuration": 56, "notes": [{"note": 62, "velocity": 42, "startTime": 0.5, "duration": 2.8}, {"note": 60, "velocity": 38, "startTime": 3.6, "duration": 2.2}, {"note": 57, "velocity": 40, "startTime": 6.4, "duration": 3.5}, {"note": 55, "velocity": 35, "startTime": 10.8, "duration": 4.2}, {"note": 62, "velocity": 41, "startTime": 15.5, "duration": 2.6}, {"note": 60, "velocity": 37, "startTime": 18.4, "duration": 2.0}, {"note": 62, "velocity": 43, "startTime": 21.2, "duration": 3.8}, {"note": 57, "velocity": 36, "startTime": 25.6, "duration": 5.0}, {"note": 64, "velocity": 44, "startTime": 31.5, "duration": 2.4}, {"note": 62, "velocity": 40, "startTime": 34.6, "duration": 2.8}, {"note": 60, "velocity": 38, "startTime": 37.8, "duration": 3.2}, {"note": 57, "velocity": 35, "startTime": 41.6, "duration": 4.8}, {"note": 55, "velocity": 33, "startTime": 47.2, "duration": 5.5}, {"note": 52, "velocity": 30, "startTime": 53.5, "duration": 4.2}]}, {"name": "Reggae Bass", "program": 33, "role": "bass", "totalDuration": 56, "notes": [{"note": 43, "velocity": 52, "startTime": 0.1, "duration": 1.8}, {"note": 43, "velocity": 45, "startTime": 2.7, "duration": 1.2}, {"note": 38, "velocity": 50, "startTime": 5.5, "duration": 1.9}, {"note": 38, "velocity": 43, "startTime": 8.3, "duration": 1.3}, {"note": 40, "velocity": 51, "startTime": 11.1, "duration": 1.8}, {"note": 40, "velocity": 44, "startTime": 13.9, "duration": 1.1}, {"note": 43, "velocity": 50, "startTime": 16.6, "duration": 1.7}, {"note": 43, "velocity": 42, "startTime": 19.4, "duration": 1.3}, {"note": 38, "velocity": 52, "startTime": 22.1, "duration": 1.9}, {"note": 38, "velocity": 44, "startTime": 24.9, "duration": 1.2}, {"note": 40, "velocity": 50, "startTime": 27.7, "duration": 1.8}, {"note": 40, "velocity": 43, "startTime": 30.5, "duration": 1.1}, {"note": 43, "velocity": 51, "startTime": 33.2, "duration": 1.8}, {"note": 43, "velocity": 43, "startTime": 36.0, "duration": 1.3}, {"note": 38, "velocity": 50, "startTime": 38.8, "duration": 1.9}, {"note": 38, "velocity": 42, "startTime": 41.6, "duration": 1.2}, {"note": 40, "velocity": 51, "startTime": 44.3, "duration": 1.8}, {"note": 40, "velocity": 43, "startTime": 47.1, "duration": 1.4}, {"note": 43, "velocity": 48, "startTime": 49.9, "duration": 2.0}, {"note": 38, "velocity": 42, "startTime": 53.3, "duration": 3.5}]}, {"name": "Organ Chord Pads", "program": 16, "role": "chords", "totalDuration": 56, "notes": [{"note": 55, "velocity": 40, "startTime": 0.6, "duration": 10.8}, {"note": 59, "velocity": 37, "startTime": 0.6, "duration": 10.8}, {"note": 62, "velocity": 35, "startTime": 0.6, "duration": 10.8}, {"note": 50, "velocity": 38, "startTime": 11.7, "duration": 10.6}, {"note": 54, "velocity": 35, "startTime": 11.7, "duration": 10.6}, {"note": 57, "velocity": 33, "startTime": 11.7, "duration": 10.6}, {"note": 52, "velocity": 39, "startTime": 22.5, "duration": 10.8}, {"note": 55, "velocity": 36, "startTime": 22.5, "duration": 10.8}, {"note": 59, "velocity": 34, "startTime": 22.5, "duration": 10.8}, {"note": 55, "velocity": 40, "startTime": 33.5, "duration": 10.4}, {"note": 59, "velocity": 37, "startTime": 33.5, "duration": 10.4}, {"note": 62, "velocity": 35, "startTime": 33.5, "duration": 10.4}, {"note": 50, "velocity": 38, "startTime": 44.1, "duration": 7.5}, {"note": 54, "velocity": 35, "startTime": 44.1, "duration": 7.5}, {"note": 57, "velocity": 33, "startTime": 44.1, "duration": 7.5}, {"note": 52, "velocity": 34, "startTime": 51.8, "duration": 5.5}, {"note": 55, "velocity": 32, "startTime": 51.8, "duration": 5.5}, {"note": 59, "velocity": 30, "startTime": 51.8, "duration": 5.5}]}, {"name": "Ambient Piano Texture", "program": 0, "role": "texture", "totalDuration": 56, "notes": [{"note": 43, "velocity": 28, "startTime": 1.2, "duration": 7.5}, {"note": 47, "velocity": 25, "startTime": 1.4, "duration": 7.2}, {"note": 38, "velocity": 27, "startTime": 12.0, "duration": 8.0}, {"note": 45, "velocity": 24, "startTime": 12.3, "duration": 7.6}, {"note": 40, "velocity": 26, "startTime": 23.1, "duration": 8.2}, {"note": 47, "velocity": 23, "startTime": 23.5, "duration": 7.8}, {"note": 43, "velocity": 27, "startTime": 34.2, "duration": 8.0}, {"note": 47, "velocity": 24, "startTime": 34.6, "duration": 7.5}, {"note": 38, "velocity": 25, "startTime": 44.5, "duration": 6.8}, {"note": 43, "velocity": 22, "startTime": 44.9, "duration": 6.4}, {"note": 40, "velocity": 20, "startTime": 52.0, "duration": 5.0}, {"note": 43, "velocity": 18, "startTime": 52.5, "duration": 4.5}]}], "key": "G", "bpm": 48, "scale": "mixolydian"}, {"genre": "reggae", "mode": "relaxation", "tracks": [{"name": "Nylon Guitar Melody", "program": 24, "role": "melody", "totalDuration": 48, "notes": [{"note": 67, "velocity": 58, "startTime": 0.25, "duration": 0.6}, {"note": 69, "velocity": 62, "startTime": 1.0, "duration": 0.8}, {"note": 67, "velocity": 60, "startTime": 2.0, "duration": 0.5}, {"note": 64, "velocity": 55, "startTime": 2.75, "duration": 1.0}, {"note": 62, "velocity": 58, "startTime": 4.0, "duration": 0.6}, {"note": 64, "velocity": 62, "startTime": 5.0, "duration": 0.8}, {"note": 67, "velocity": 65, "startTime": 6.0, "duration": 0.5}, {"note": 69, "velocity": 60, "startTime": 6.75, "duration": 1.2}, {"note": 67, "velocity": 58, "startTime": 8.25, "duration": 0.6}, {"note": 69, "velocity": 62, "startTime": 9.0, "duration": 0.8}, {"note": 71, "velocity": 65, "startTime": 10.0, "duration": 0.5}, {"note": 69, "velocity": 60, "startTime": 10.75, "duration": 0.9}, {"note": 67, "velocity": 58, "startTime": 12.0, "duration": 0.6}, {"note": 64, "velocity": 55, "startTime": 13.0, "duration": 0.8}, {"note": 62, "velocity": 62, "startTime": 14.0, "duration": 0.5}, {"note": 60, "velocity": 58, "startTime": 14.75, "duration": 1.4}, {"note": 67, "velocity": 58, "startTime": 16.25, "duration": 0.6}, {"note": 69, "velocity": 62, "startTime": 17.0, "duration": 0.8}, {"note": 67, "velocity": 60, "startTime": 18.0, "duration": 0.5}, {"note": 64, "velocity": 55, "startTime": 18.75, "duration": 1.0}, {"note": 62, "velocity": 58, "startTime": 20.0, "duration": 0.6}, {"note": 64, "velocity": 62, "startTime": 21.0, "duration": 0.8}, {"note": 67, "velocity": 65, "startTime": 22.0, "duration": 0.5}, {"note": 69, "velocity": 60, "startTime": 22.75, "duration": 1.2}, {"note": 71, "velocity": 62, "startTime": 24.25, "duration": 0.6}, {"note": 72, "velocity": 65, "startTime": 25.0, "duration": 0.9}, {"note": 71, "velocity": 60, "startTime": 26.0, "duration": 0.5}, {"note": 69, "velocity": 58, "startTime": 26.75, "duration": 1.0}, {"note": 67, "velocity": 58, "startTime": 28.0, "duration": 0.7}, {"note": 69, "velocity": 62, "startTime": 29.0, "duration": 0.8}, {"note": 71, "velocity": 65, "startTime": 30.0, "duration": 0.5}, {"note": 67, "velocity": 55, "startTime": 30.75, "duration": 1.4}, {"note": 67, "velocity": 58, "startTime": 32.25, "duration": 0.6}, {"note": 69, "velocity": 62, "startTime": 33.0, "duration": 0.8}, {"note": 67, "velocity": 60, "startTime": 34.0, "duration": 0.5}, {"note": 64, "velocity": 55, "startTime": 34.75, "duration": 1.0}, {"note": 62, "velocity": 58, "startTime": 36.0, "duration": 0.6}, {"note": 64, "velocity": 62, "startTime": 37.0, "duration": 0.8}, {"note": 67, "velocity": 65, "startTime": 38.0, "duration": 0.5}, {"note": 69, "velocity": 60, "startTime": 38.75, "duration": 1.2}, {"note": 67, "velocity": 58, "startTime": 40.25, "duration": 0.6}, {"note": 64, "velocity": 55, "startTime": 41.0, "duration": 0.8}, {"note": 62, "velocity": 58, "startTime": 42.0, "duration": 0.6}, {"note": 60, "velocity": 55, "startTime": 43.0, "duration": 0.8}, {"note": 62, "velocity": 60, "startTime": 44.0, "duration": 0.5}, {"note": 64, "velocity": 58, "startTime": 44.75, "duration": 0.9}, {"note": 67, "velocity": 62, "startTime": 46.0, "duration": 0.7}, {"note": 65, "velocity": 55, "startTime": 47.0, "duration": 1.2}]}, {"name": "Reggae Electric Bass", "program": 33, "role": "bass", "totalDuration": 48, "notes": [{"note": 43, "velocity": 88, "startTime": 0, "duration": 0.65}, {"note": 43, "velocity": 82, "startTime": 0.75, "duration": 0.35}, {"note": 43, "velocity": 86, "startTime": 2.0, "duration": 0.65}, {"note": 43, "velocity": 80, "startTime": 2.75, "duration": 0.35}, {"note": 41, "velocity": 88, "startTime": 4.0, "duration": 0.65}, {"note": 41, "velocity": 82, "startTime": 4.75, "duration": 0.35}, {"note": 41, "velocity": 86, "startTime": 6.0, "duration": 0.65}, {"note": 41, "velocity": 80, "startTime": 6.75, "duration": 0.35}, {"note": 43, "velocity": 88, "startTime": 8.0, "duration": 0.65}, {"note": 43, "velocity": 82, "startTime": 8.75, "duration": 0.35}, {"note": 43, "velocity": 86, "startTime": 10.0, "duration": 0.65}, {"note": 43, "velocity": 80, "startTime": 10.75, "duration": 0.35}, {"note": 38, "velocity": 88, "startTime": 12.0, "duration": 0.65}, {"note": 38, "velocity": 82, "startTime": 12.75, "duration": 0.35}, {"note": 36, "velocity": 86, "startTime": 14.0, "duration": 0.65}, {"note": 36, "velocity": 80, "startTime": 14.75, "duration": 0.35}, {"note": 43, "velocity": 88, "startTime": 16.0, "duration": 0.65}, {"note": 43, "velocity": 82, "startTime": 16.75, "duration": 0.35}, {"note": 43, "velocity": 86, "startTime": 18.0, "duration": 0.65}, {"note": 43, "velocity": 80, "startTime": 18.75, "duration": 0.35}, {"note": 41, "velocity": 88, "startTime": 20.0, "duration": 0.65}, {"note": 41, "velocity": 82, "startTime": 20.75, "duration": 0.35}, {"note": 41, "velocity": 86, "startTime": 22.0, "duration": 0.65}, {"note": 41, "velocity": 80, "startTime": 22.75, "duration": 0.35}, {"note": 43, "velocity": 88, "startTime": 24.0, "duration": 0.65}, {"note": 43, "velocity": 82, "startTime": 24.75, "duration": 0.35}, {"note": 43, "velocity": 86, "startTime": 26.0, "duration": 0.65}, {"note": 43, "velocity": 80, "startTime": 26.75, "duration": 0.35}, {"note": 38, "velocity": 88, "startTime": 28.0, "duration": 0.65}, {"note": 38, "velocity": 82, "startTime": 28.75, "duration": 0.35}, {"note": 36, "velocity": 86, "startTime": 30.0, "duration": 0.65}, {"note": 36, "velocity": 80, "startTime": 30.75, "duration": 0.35}, {"note": 43, "velocity": 88, "startTime": 32.0, "duration": 0.65}, {"note": 43, "velocity": 82, "startTime": 32.75, "duration": 0.35}, {"note": 43, "velocity": 86, "startTime": 34.0, "duration": 0.65}, {"note": 43, "velocity": 80, "startTime": 34.75, "duration": 0.35}, {"note": 41, "velocity": 88, "startTime": 36.0, "duration": 0.65}, {"note": 41, "velocity": 82, "startTime": 36.75, "duration": 0.35}, {"note": 41, "velocity": 86, "startTime": 38.0, "duration": 0.65}, {"note": 41, "velocity": 80, "startTime": 38.75, "duration": 0.35}, {"note": 38, "velocity": 88, "startTime": 40.0, "duration": 0.65}, {"note": 38, "velocity": 82, "startTime": 40.75, "duration": 0.35}, {"note": 36, "velocity": 86, "startTime": 42.0, "duration": 0.65}, {"note": 36, "velocity": 80, "startTime": 42.75, "duration": 0.35}, {"note": 43, "velocity": 88, "startTime": 44.0, "duration": 0.65}, {"note": 43, "velocity": 82, "startTime": 44.75, "duration": 0.35}, {"note": 43, "velocity": 86, "startTime": 46.0, "duration": 0.65}, {"note": 43, "velocity": 80, "startTime": 46.75, "duration": 0.35}]}, {"name": "Organ Chord Pads", "program": 16, "role": "chords", "totalDuration": 48, "notes": [{"note": 55, "velocity": 58, "startTime": 0.5, "duration": 1.4}, {"note": 59, "velocity": 55, "startTime": 0.5, "duration": 1.4}, {"note": 62, "velocity": 52, "startTime": 0.5, "duration": 1.4}, {"note": 67, "velocity": 50, "startTime": 0.5, "duration": 1.4}, {"note": 55, "velocity": 56, "startTime": 2.5, "duration": 1.4}, {"note": 59, "velocity": 54, "startTime": 2.5, "duration": 1.4}, {"note": 62, "velocity": 51, "startTime": 2.5, "duration": 1.4}, {"note": 67, "velocity": 49, "startTime": 2.5, "duration": 1.4}, {"note": 53, "velocity": 58, "startTime": 4.5, "duration": 1.4}, {"note": 57, "velocity": 55, "startTime": 4.5, "duration": 1.4}, {"note": 60, "velocity": 52, "startTime": 4.5, "duration": 1.4}, {"note": 65, "velocity": 50, "startTime": 4.5, "duration": 1.4}, {"note": 53, "velocity": 56, "startTime": 6.5, "duration": 1.4}, {"note": 57, "velocity": 54, "startTime": 6.5, "duration": 1.4}, {"note": 60, "velocity": 51, "startTime": 6.5, "duration": 1.4}, {"note": 65, "velocity": 49, "startTime": 6.5, "duration": 1.4}, {"note": 55, "velocity": 58, "startTime": 8.5, "duration": 1.4}, {"note": 59, "velocity": 55, "startTime": 8.5, "duration": 1.4}, {"note": 62, "velocity": 52, "startTime": 8.5, "duration": 1.4}, {"note": 67, "velocity": 50, "startTime": 8.5, "duration": 1.4}, {"note": 55, "velocity": 56, "startTime": 10.5, "duration": 1.4}, {"note": 59, "velocity": 54, "startTime": 10.5, "duration": 1.4}, {"note": 62, "velocity": 51, "startTime": 10.5, "duration": 1.4}, {"note": 67, "velocity": 49, "startTime": 10.5, "duration": 1.4}, {"note": 50, "velocity": 58, "startTime": 12.5, "duration": 1.4}, {"note": 53, "velocity": 55, "startTime": 12.5, "duration": 1.4}, {"note": 57, "velocity": 52, "startTime": 12.5, "duration": 1.4}, {"note": 62, "velocity": 50, "startTime": 12.5, "duration": 1.4}, {"note": 48, "velocity": 58, "startTime": 14.5, "duration": 1.4}, {"note": 52, "velocity": 55, "startTime": 14.5, "duration": 1.4}, {"note": 55, "velocity": 52, "startTime": 14.5, "duration": 1.4}, {"note": 59, "velocity": 50, "startTime": 14.5, "duration": 1.4}, {"note": 55, "velocity": 58, "startTime": 16.5, "duration": 1.4}, {"note": 59, "velocity": 55, "startTime": 16.5, "duration": 1.4}, {"note": 62, "velocity": 52, "startTime": 16.5, "duration": 1.4}, {"note": 67, "velocity": 50, "startTime": 16.5, "duration": 1.4}, {"note": 55, "velocity": 56, "startTime": 18.5, "duration": 1.4}, {"note": 59, "velocity": 54, "startTime": 18.5, "duration": 1.4}, {"note": 62, "velocity": 51, "startTime": 18.5, "duration": 1.4}, {"note": 67, "velocity": 49, "startTime": 18.5, "duration": 1.4}, {"note": 53, "velocity": 58, "startTime": 20.5, "duration": 1.4}, {"note": 57, "velocity": 55, "startTime": 20.5, "duration": 1.4}, {"note": 60, "velocity": 52, "startTime": 20.5, "duration": 1.4}, {"note": 65, "velocity": 50, "startTime": 20.5, "duration": 1.4}, {"note": 53, "velocity": 56, "startTime": 22.5, "duration": 1.4}, {"note": 57, "velocity": 54, "startTime": 22.5, "duration": 1.4}, {"note": 60, "velocity": 51, "startTime": 22.5, "duration": 1.4}, {"note": 65, "velocity": 49, "startTime": 22.5, "duration": 1.4}, {"note": 55, "velocity": 58, "startTime": 24.5, "duration": 1.4}, {"note": 59, "velocity": 55, "startTime": 24.5, "duration": 1.4}, {"note": 62, "velocity": 52, "startTime": 24.5, "duration": 1.4}, {"note": 67, "velocity": 50, "startTime": 24.5, "duration": 1.4}, {"note": 55, "velocity": 56, "startTime": 26.5, "duration": 1.4}, {"note": 59, "velocity": 54, "startTime": 26.5, "duration": 1.4}, {"note": 62, "velocity": 51, "startTime": 26.5, "duration": 1.4}, {"note": 67, "velocity": 49, "startTime": 26.5, "duration": 1.4}, {"note": 50, "velocity": 58, "startTime": 28.5, "duration": 1.4}, {"note": 53, "velocity": 55, "startTime": 28.5, "duration": 1.4}, {"note": 57, "velocity": 52, "startTime": 28.5, "duration": 1.4}, {"note": 62, "velocity": 50, "startTime": 28.5, "duration": 1.4}, {"note": 48, "velocity": 58, "startTime": 30.5, "duration": 1.4}, {"note": 52, "velocity": 55, "startTime": 30.5, "duration": 1.4}, {"note": 55, "velocity": 52, "startTime": 30.5, "duration": 1.4}, {"note": 59, "velocity": 50, "startTime": 30.5, "duration": 1.4}, {"note": 55, "velocity": 58, "startTime": 32.5, "duration": 1.4}, {"note": 59, "velocity": 55, "startTime": 32.5, "duration": 1.4}, {"note": 62, "velocity": 52, "startTime": 32.5, "duration": 1.4}, {"note": 67, "velocity": 50, "startTime": 32.5, "duration": 1.4}, {"note": 55, "velocity": 56, "startTime": 34.5, "duration": 1.4}, {"note": 59, "velocity": 54, "startTime": 34.5, "duration": 1.4}, {"note": 62, "velocity": 51, "startTime": 34.5, "duration": 1.4}, {"note": 67, "velocity": 49, "startTime": 34.5, "duration": 1.4}, {"note": 53, "velocity": 58, "startTime": 36.5, "duration": 1.4}, {"note": 57, "velocity": 55, "startTime": 36.5, "duration": 1.4}, {"note": 60, "velocity": 52, "startTime": 36.5, "duration": 1.4}, {"note": 65, "velocity": 50, "startTime": 36.5, "duration": 1.4}, {"note": 53, "velocity": 56, "startTime": 38.5, "duration": 1.4}, {"note": 57, "velocity": 54, "startTime": 38.5, "duration": 1.4}, {"note": 60, "velocity": 51, "startTime": 38.5, "duration": 1.4}, {"note": 65, "velocity": 49, "startTime": 38.5, "duration": 1.4}, {"note": 50, "velocity": 58, "startTime": 40.5, "duration": 1.4}, {"note": 53, "velocity": 55, "startTime": 40.5, "duration": 1.4}, {"note": 57, "velocity": 52, "startTime": 40.5, "duration": 1.4}, {"note": 62, "velocity": 50, "startTime": 40.5, "duration": 1.4}, {"note": 48, "velocity": 58, "startTime": 42.5, "duration": 1.4}, {"note": 52, "velocity": 55, "startTime": 42.5, "duration": 1.4}, {"note": 55, "velocity": 52, "startTime": 42.5, "duration": 1.4}, {"note": 59, "velocity": 50, "startTime": 42.5, "duration": 1.4}, {"note": 55, "velocity": 60, "startTime": 44.5, "duration": 1.6}, {"note": 59, "velocity": 57, "startTime": 44.5, "duration": 1.6}, {"note": 62, "velocity": 54, "startTime": 44.5, "duration": 1.6}, {"note": 67, "velocity": 52, "startTime": 44.5, "duration": 1.6}, {"note": 55, "velocity": 56, "startTime": 46.5, "duration": 1.6}, {"note": 59, "velocity": 53, "startTime": 46.5, "duration": 1.6}, {"note": 62, "velocity": 50, "startTime": 46.5, "duration": 1.6}, {"note": 67, "velocity": 48, "startTime": 46.5, "duration": 1.6}]}, {"name": "Piano Texture Layer", "program": 0, "role": "texture", "totalDuration": 48, "notes": [{"note": 74, "velocity": 42, "startTime": 1.5, "duration": 3.5}, {"note": 71, "velocity": 38, "startTime": 5.5, "duration": 3.5}, {"note": 72, "velocity": 42, "startTime": 9.5, "duration": 3.5}, {"note": 69, "velocity": 40, "startTime": 13.5, "duration": 3.5}, {"note": 74, "velocity": 42, "startTime": 17.5, "duration": 3.5}, {"note": 71, "velocity": 38, "startTime": 21.5, "duration": 3.5}, {"note": 76, "velocity": 44, "startTime": 25.5, "duration": 4.0}, {"note": 74, "velocity": 42, "startTime": 29.5, "duration": 3.5}, {"note": 72, "velocity": 40, "startTime": 33.5, "duration": 3.5}, {"note": 71, "velocity": 38, "startTime": 37.5, "duration": 3.5}, {"note": 69, "velocity": 38, "startTime": 41.5, "duration": 3.5}, {"note": 67, "velocity": 42, "startTime": 45.5, "duration": 3.0}, {"note": 55, "velocity": 35, "startTime": 3.5, "duration": 4.0}, {"note": 53, "velocity": 32, "startTime": 11.5, "duration": 4.0}, {"note": 55, "velocity": 35, "startTime": 19.5, "duration": 4.0}, {"note": 57, "velocity": 35, "startTime": 27.5, "duration": 4.0}, {"note": 53, "velocity": 32, "startTime": 35.5, "duration": 4.0}, {"note": 55, "velocity": 38, "startTime": 43.5, "duration": 4.5}]}], "key": "G", "bpm": 63, "scale": "mixolydian"}, {"genre": "classical", "mode": "sleep", "tracks": [{"name": "Flute Melody", "program": 73, "role": "melody", "totalDuration": 60, "notes": [{"note": 65, "velocity": 42, "startTime": 0, "duration": 3.2}, {"note": 64, "velocity": 38, "startTime": 3.3, "duration": 2.8}, {"note": 62, "velocity": 40, "startTime": 6.2, "duration": 4.5}, {"note": 60, "velocity": 35, "startTime": 11.0, "duration": 5.0}, {"note": 65, "velocity": 44, "startTime": 16.2, "duration": 3.0}, {"note": 67, "velocity": 46, "startTime": 19.4, "duration": 2.6}, {"note": 65, "velocity": 42, "startTime": 22.1, "duration": 3.8}, {"note": 64, "velocity": 38, "startTime": 26.1, "duration": 5.5}, {"note": 65, "velocity": 40, "startTime": 32.0, "duration": 3.2}, {"note": 64, "velocity": 36, "startTime": 35.3, "duration": 2.8}, {"note": 62, "velocity": 38, "startTime": 38.2, "duration": 4.5}, {"note": 60, "velocity": 33, "startTime": 43.0, "duration": 5.2}, {"note": 62, "velocity": 36, "startTime": 48.5, "duration": 3.0}, {"note": 60, "velocity": 34, "startTime": 51.7, "duration": 4.0}, {"note": 57, "velocity": 30, "startTime": 56.0, "duration": 4.0}]}, {"name": "Cello Bass Line", "program": 42, "role": "bass", "totalDuration": 60, "notes": [{"note": 48, "velocity": 45, "startTime": 0, "duration": 7.8}, {"note": 45, "velocity": 42, "startTime": 8.1, "duration": 7.6}, {"note": 43, "velocity": 44, "startTime": 16.2, "duration": 7.8}, {"note": 48, "velocity": 43, "startTime": 24.2, "duration": 7.6}, {"note": 48, "velocity": 42, "startTime": 32.0, "duration": 7.8}, {"note": 45, "velocity": 40, "startTime": 40.0, "duration": 7.6}, {"note": 43, "velocity": 38, "startTime": 48.0, "duration": 6.0}, {"note": 48, "velocity": 36, "startTime": 54.2, "duration": 5.8}]}, {"name": "String Pads", "program": 48, "role": "chords", "totalDuration": 60, "notes": [{"note": 60, "velocity": 38, "startTime": 0.3, "duration": 7.5}, {"note": 64, "velocity": 35, "startTime": 0.3, "duration": 7.5}, {"note": 67, "velocity": 33, "startTime": 0.3, "duration": 7.5}, {"note": 57, "velocity": 36, "startTime": 8.2, "duration": 7.5}, {"note": 60, "velocity": 33, "startTime": 8.2, "duration": 7.5}, {"note": 64, "velocity": 31, "startTime": 8.2, "duration": 7.5}, {"note": 55, "velocity": 37, "startTime": 16.3, "duration": 7.5}, {"note": 59, "velocity": 34, "startTime": 16.3, "duration": 7.5}, {"note": 62, "velocity": 32, "startTime": 16.3, "duration": 7.5}, {"note": 60, "velocity": 38, "startTime": 24.3, "duration": 7.5}, {"note": 64, "velocity": 35, "startTime": 24.3, "duration": 7.5}, {"note": 67, "velocity": 33, "startTime": 24.3, "duration": 7.5}, {"note": 60, "velocity": 36, "startTime": 32.2, "duration": 7.5}, {"note": 64, "velocity": 33, "startTime": 32.2, "duration": 7.5}, {"note": 67, "velocity": 31, "startTime": 32.2, "duration": 7.5}, {"note": 57, "velocity": 34, "startTime": 40.2, "duration": 7.5}, {"note": 60, "velocity": 31, "startTime": 40.2, "duration": 7.5}, {"note": 64, "velocity": 29, "startTime": 40.2, "duration": 7.5}, {"note": 55, "velocity": 33, "startTime": 48.2, "duration": 5.8}, {"note": 59, "velocity": 30, "startTime": 48.2, "duration": 5.8}, {"note": 62, "velocity": 28, "startTime": 48.2, "duration": 5.8}, {"note": 60, "velocity": 32, "startTime": 54.3, "duration": 5.7}, {"note": 64, "velocity": 29, "startTime": 54.3, "duration": 5.7}, {"note": 67, "velocity": 27, "startTime": 54.3, "duration": 5.7}]}, {"name": "Violin Texture", "program": 40, "role": "texture", "totalDuration": 60, "notes": [{"note": 72, "velocity": 30, "startTime": 2.5, "duration": 8.0}, {"note": 71, "velocity": 28, "startTime": 10.7, "duration": 7.8}, {"note": 69, "velocity": 29, "startTime": 18.5, "duration": 8.2}, {"note": 72, "velocity": 31, "startTime": 26.8, "duration": 8.0}, {"note": 72, "velocity": 29, "startTime": 34.5, "duration": 8.0}, {"note": 71, "velocity": 27, "startTime": 42.7, "duration": 7.8}, {"note": 69, "velocity": 26, "startTime": 50.6, "duration": 5.5}, {"note": 67, "velocity": 24, "startTime": 56.3, "duration": 3.7}]}], "key": "C", "bpm": 48, "scale": "major"}, {"genre": "classical", "mode": "relaxation", "tracks": [{"name": "Flute Melody", "program": 73, "role": "melody", "totalDuration": 48, "notes": [{"note": 72, "velocity": 58, "startTime": 0, "duration": 1.8}, {"note": 74, "velocity": 62, "startTime": 1.85, "duration": 1.2}, {"note": 76, "velocity": 65, "startTime": 3.1, "duration": 2.4}, {"note": 74, "velocity": 60, "startTime": 5.55, "duration": 1.6}, {"note": 72, "velocity": 58, "startTime": 7.2, "duration": 1.4}, {"note": 69, "velocity": 55, "startTime": 8.65, "duration": 3.2}, {"note": 71, "velocity": 60, "startTime": 12.0, "duration": 1.8}, {"note": 72, "velocity": 63, "startTime": 13.85, "duration": 1.2}, {"note": 74, "velocity": 66, "startTime": 15.1, "duration": 2.6}, {"note": 72, "velocity": 61, "startTime": 17.75, "duration": 1.4}, {"note": 71, "velocity": 57, "startTime": 19.2, "duration": 1.3}, {"note": 69, "velocity": 52, "startTime": 20.55, "duration": 3.3}, {"note": 72, "velocity": 60, "startTime": 24.0, "duration": 1.7}, {"note": 74, "velocity": 64, "startTime": 25.75, "duration": 1.2}, {"note": 77, "velocity": 68, "startTime": 27.0, "duration": 2.0}, {"note": 76, "velocity": 65, "startTime": 29.05, "duration": 1.5}, {"note": 74, "velocity": 62, "startTime": 30.6, "duration": 1.3}, {"note": 72, "velocity": 58, "startTime": 31.95, "duration": 3.8}, {"note": 71, "velocity": 57, "startTime": 36.0, "duration": 1.8}, {"note": 72, "velocity": 60, "startTime": 37.85, "duration": 1.3}, {"note": 74, "velocity": 63, "startTime": 39.2, "duration": 2.2}, {"note": 72, "velocity": 58, "startTime": 41.45, "duration": 1.5}, {"note": 69, "velocity": 54, "startTime": 43.0, "duration": 1.4}, {"note": 67, "velocity": 48, "startTime": 44.45, "duration": 3.4}]}, {"name": "Cello Bass Line", "program": 42, "role": "bass", "totalDuration": 48, "notes": [{"note": 48, "velocity": 52, "startTime": 0, "duration": 5.8}, {"note": 45, "velocity": 50, "startTime": 6.0, "duration": 5.8}, {"note": 47, "velocity": 50, "startTime": 12.0, "duration": 5.8}, {"note": 45, "velocity": 48, "startTime": 18.0, "duration": 5.8}, {"note": 48, "velocity": 52, "startTime": 24.0, "duration": 2.8}, {"note": 50, "velocity": 50, "startTime": 26.9, "duration": 2.8}, {"note": 52, "velocity": 52, "startTime": 29.85, "duration": 5.9}, {"note": 47, "velocity": 50, "startTime": 36.0, "duration": 5.8}, {"note": 50, "velocity": 50, "startTime": 42.0, "duration": 2.8}, {"note": 48, "velocity": 46, "startTime": 44.85, "duration": 3.0}]}, {"name": "String Pads", "program": 48, "role": "chords", "totalDuration": 48, "notes": [{"note": 60, "velocity": 45, "startTime": 0, "duration": 5.9}, {"note": 64, "velocity": 43, "startTime": 0, "duration": 5.9}, {"note": 67, "velocity": 42, "startTime": 0, "duration": 5.9}, {"note": 72, "velocity": 40, "startTime": 0.05, "duration": 5.8}, {"note": 57, "velocity": 44, "startTime": 6.0, "duration": 5.9}, {"note": 60, "velocity": 42, "startTime": 6.0, "duration": 5.9}, {"note": 64, "velocity": 41, "startTime": 6.0, "duration": 5.9}, {"note": 69, "velocity": 40, "startTime": 6.05, "duration": 5.8}, {"note": 59, "velocity": 44, "startTime": 12.0, "duration": 5.9}, {"note": 62, "velocity": 42, "startTime": 12.0, "duration": 5.9}, {"note": 65, "velocity": 41, "startTime": 12.0, "duration": 5.9}, {"note": 71, "velocity": 40, "startTime": 12.05, "duration": 5.8}, {"note": 57, "velocity": 43, "startTime": 18.0, "duration": 5.9}, {"note": 60, "velocity": 41, "startTime": 18.0, "duration": 5.9}, {"note": 64, "velocity": 40, "startTime": 18.0, "duration": 5.9}, {"note": 69, "velocity": 39, "startTime": 18.05, "duration": 5.8}, {"note": 60, "velocity": 46, "startTime": 24.0, "duration": 2.8}, {"note": 64, "velocity": 44, "startTime": 24.0, "duration": 2.8}, {"note": 67, "velocity": 43, "startTime": 24.0, "duration": 2.8}, {"note": 62, "velocity": 45, "startTime": 26.9, "duration": 2.8}, {"note": 65, "velocity": 43, "startTime": 26.9, "duration": 2.8}, {"note": 69, "velocity": 42, "startTime": 26.9, "duration": 2.8}, {"note": 64, "velocity": 46, "startTime": 29.85, "duration": 5.9}, {"note": 67, "velocity": 44, "startTime": 29.85, "duration": 5.9}, {"note": 71, "velocity": 43, "startTime": 29.85, "duration": 5.9}, {"note": 59, "velocity": 44, "startTime": 36.0, "duration": 5.9}, {"note": 62, "velocity": 42, "startTime": 36.0, "duration": 5.9}, {"note": 65, "velocity": 41, "startTime": 36.0, "duration": 5.9}, {"note": 71, "velocity": 39, "startTime": 36.05, "duration": 5.8}, {"note": 62, "velocity": 44, "startTime": 42.0, "duration": 2.8}, {"note": 65, "velocity": 42, "startTime": 42.0, "duration": 2.8}, {"note": 69, "velocity": 41, "startTime": 42.0, "duration": 2.8}, {"note": 60, "velocity": 42, "startTime": 44.85, "duration": 3.0}, {"note": 64, "velocity": 40, "startTime": 44.85, "duration": 3.0}, {"note": 67, "velocity": 38, "startTime": 44.85, "duration": 3.0}]}, {"name": "Piano Texture", "program": 0, "role": "texture", "totalDuration": 48, "notes": [{"note": 67, "velocity": 38, "startTime": 0.5, "duration": 3.5}, {"note": 72, "velocity": 36, "startTime": 2.0, "duration": 3.5}, {"note": 76, "velocity": 35, "startTime": 3.5, "duration": 4.0}, {"note": 64, "velocity": 37, "startTime": 6.5, "duration": 3.5}, {"note": 69, "velocity": 35, "startTime": 8.0, "duration": 3.5}, {"note": 72, "velocity": 34, "startTime": 9.5, "duration": 4.0}, {"note": 65, "velocity": 37, "startTime": 12.5, "duration": 3.5}, {"note": 71, "velocity": 35, "startTime": 14.0, "duration": 3.5}, {"note": 74, "velocity": 34, "startTime": 15.5, "duration": 4.0}, {"note": 64, "velocity": 36, "startTime": 18.5, "duration": 3.5}, {"note": 69, "velocity": 34, "startTime": 20.0, "duration": 3.5}, {"note": 72, "velocity": 33, "startTime": 21.5, "duration": 4.0}, {"note": 67, "velocity": 39, "startTime": 24.5, "duration": 2.2}, {"note": 72, "velocity": 37, "startTime": 26.9, "duration": 2.2}, {"note": 71, "velocity": 38, "startTime": 29.85, "duration": 3.8}, {"note": 74, "velocity": 36, "startTime": 31.5, "duration": 3.8}, {"note": 65, "velocity": 36, "startTime": 36.5, "duration": 3.5}, {"note": 71, "velocity": 34, "startTime": 38.0, "duration": 3.5}, {"note": 74, "velocity": 33, "startTime": 39.5, "duration": 3.5}, {"note": 65, "velocity": 35, "startTime": 42.5, "duration": 2.2}, {"note": 67, "velocity": 33, "startTime": 44.85, "duration": 3.0}, {"note": 64, "velocity": 31, "startTime": 46.0, "duration": 2.0}]}], "key": "C", "bpm": 60, "scale": "major"}, {"genre": "classical", "mode": "focus", "tracks": [{"name": "Flute Melody", "program": 73, "role": "melody", "totalDuration": 48, "notes": [{"note": 79, "velocity": 68, "startTime": 0, "duration": 1.65}, {"note": 81, "velocity": 72, "startTime": 1.66, "duration": 0.82}, {"note": 83, "velocity": 70, "startTime": 2.5, "duration": 1.65}, {"note": 81, "velocity": 65, "startTime": 4.18, "duration": 0.82}, {"note": 79, "velocity": 68, "startTime": 5.02, "duration": 0.82}, {"note": 78, "velocity": 64, "startTime": 5.86, "duration": 1.65}, {"note": 76, "velocity": 62, "startTime": 7.53, "duration": 3.3}, {"note": 81, "velocity": 70, "startTime": 10.85, "duration": 1.65}, {"note": 83, "velocity": 74, "startTime": 12.52, "duration": 0.82}, {"note": 84, "velocity": 76, "startTime": 13.36, "duration": 1.65}, {"note": 83, "velocity": 72, "startTime": 15.03, "duration": 0.82}, {"note": 81, "velocity": 68, "startTime": 15.87, "duration": 0.82}, {"note": 79, "velocity": 65, "startTime": 16.71, "duration": 1.65}, {"note": 76, "velocity": 60, "startTime": 18.38, "duration": 3.3}, {"note": 79, "velocity": 68, "startTime": 21.7, "duration": 1.65}, {"note": 81, "velocity": 72, "startTime": 23.37, "duration": 0.82}, {"note": 83, "velocity": 70, "startTime": 24.21, "duration": 1.65}, {"note": 81, "velocity": 65, "startTime": 25.88, "duration": 0.82}, {"note": 79, "velocity": 68, "startTime": 26.72, "duration": 0.82}, {"note": 78, "velocity": 64, "startTime": 27.56, "duration": 1.65}, {"note": 76, "velocity": 62, "startTime": 29.23, "duration": 3.3}, {"note": 83, "velocity": 72, "startTime": 32.55, "duration": 1.65}, {"note": 81, "velocity": 70, "startTime": 34.22, "duration": 0.82}, {"note": 79, "velocity": 68, "startTime": 35.06, "duration": 1.65}, {"note": 81, "velocity": 65, "startTime": 36.73, "duration": 0.82}, {"note": 83, "velocity": 67, "startTime": 37.57, "duration": 0.82}, {"note": 84, "velocity": 70, "startTime": 38.41, "duration": 1.65}, {"note": 83, "velocity": 65, "startTime": 40.08, "duration": 0.82}, {"note": 81, "velocity": 62, "startTime": 40.92, "duration": 0.82}, {"note": 79, "velocity": 72, "startTime": 41.76, "duration": 3.3}, {"note": 76, "velocity": 55, "startTime": 45.1, "duration": 2.8}]}, {"name": "Strings Chords", "program": 48, "role": "chords", "totalDuration": 48, "notes": [{"note": 67, "velocity": 55, "startTime": 0, "duration": 10.5}, {"note": 71, "velocity": 52, "startTime": 0, "duration": 10.5}, {"note": 74, "velocity": 50, "startTime": 0, "duration": 10.5}, {"note": 65, "velocity": 53, "startTime": 10.85, "duration": 5.2}, {"note": 69, "velocity": 50, "startTime": 10.85, "duration": 5.2}, {"note": 72, "velocity": 48, "startTime": 10.85, "duration": 5.2}, {"note": 66, "velocity": 54, "startTime": 16.07, "duration": 5.3}, {"note": 69, "velocity": 50, "startTime": 16.07, "duration": 5.3}, {"note": 74, "velocity": 48, "startTime": 16.07, "duration": 5.3}, {"note": 67, "velocity": 55, "startTime": 21.7, "duration": 10.5}, {"note": 71, "velocity": 52, "startTime": 21.7, "duration": 10.5}, {"note": 74, "velocity": 50, "startTime": 21.7, "duration": 10.5}, {"note": 65, "velocity": 53, "startTime": 32.55, "duration": 5.2}, {"note": 69, "velocity": 50, "startTime": 32.55, "duration": 5.2}, {"note": 72, "velocity": 48, "startTime": 32.55, "duration": 5.2}, {"note": 66, "velocity": 54, "startTime": 37.77, "duration": 3.1}, {"note": 69, "velocity": 50, "startTime": 37.77, "duration": 3.1}, {"note": 74, "velocity": 48, "startTime": 37.77, "duration": 3.1}, {"note": 67, "velocity": 57, "startTime": 40.9, "duration": 6.9}, {"note": 71, "velocity": 54, "startTime": 40.9, "duration": 6.9}, {"note": 74, "velocity": 52, "startTime": 40.9, "duration": 6.9}, {"note": 79, "velocity": 50, "startTime": 40.9, "duration": 6.9}]}, {"name": "Cello Bass", "program": 42, "role": "bass", "totalDuration": 48, "notes": [{"note": 43, "velocity": 62, "startTime": 0, "duration": 3.28}, {"note": 43, "velocity": 58, "startTime": 3.32, "duration": 3.28}, {"note": 43, "velocity": 60, "startTime": 6.62, "duration": 3.28}, {"note": 41, "velocity": 60, "startTime": 10.85, "duration": 3.28}, {"note": 41, "velocity": 56, "startTime": 14.15, "duration": 1.62}, {"note": 42, "velocity": 62, "startTime": 16.07, "duration": 3.28}, {"note": 42, "velocity": 58, "startTime": 19.37, "duration": 2.0}, {"note": 43, "velocity": 62, "startTime": 21.7, "duration": 3.28}, {"note": 43, "velocity": 58, "startTime": 25.0, "duration": 3.28}, {"note": 43, "velocity": 60, "startTime": 28.3, "duration": 3.28}, {"note": 41, "velocity": 60, "startTime": 32.55, "duration": 3.28}, {"note": 41, "velocity": 56, "startTime": 35.85, "duration": 1.62}, {"note": 42, "velocity": 62, "startTime": 37.77, "duration": 3.1}, {"note": 43, "velocity": 65, "startTime": 40.9, "duration": 3.5}, {"note": 43, "velocity": 60, "startTime": 44.42, "duration": 3.5}]}, {"name": "Timpani Pulse", "program": 47, "role": "drums", "totalDuration": 48, "notes": [{"note": 43, "velocity": 52, "startTime": 0, "duration": 0.3}, {"note": 43, "velocity": 44, "startTime": 3.34, "duration": 0.3}, {"note": 43, "velocity": 48, "startTime": 6.68, "duration": 0.3}, {"note": 43, "velocity": 44, "startTime": 10.02, "duration": 0.3}, {"note": 41, "velocity": 50, "startTime": 10.85, "duration": 0.3}, {"note": 41, "velocity": 44, "startTime": 14.17, "duration": 0.3}, {"note": 42, "velocity": 50, "startTime": 16.07, "duration": 0.3}, {"note": 42, "velocity": 44, "startTime": 19.39, "duration": 0.3}, {"note": 43, "velocity": 52, "startTime": 21.7, "duration": 0.3}, {"note": 43, "velocity": 44, "startTime": 25.02, "duration": 0.3}, {"note": 43, "velocity": 48, "startTime": 28.34, "duration": 0.3}, {"note": 43, "velocity": 44, "startTime": 31.66, "duration": 0.3}, {"note": 41, "velocity": 50, "startTime": 32.55, "duration": 0.3}, {"note": 41, "velocity": 44, "startTime": 35.87, "duration": 0.3}, {"note": 42, "velocity": 50, "startTime": 37.77, "duration": 0.3}, {"note": 43, "velocity": 55, "startTime": 40.9, "duration": 0.3}, {"note": 43, "velocity": 48, "startTime": 44.22, "duration": 0.3}, {"note": 43, "velocity": 42, "startTime": 47.54, "duration": 0.3}]}], "key": "G", "bpm": 72, "scale": "major"}, {"genre": "latin", "mode": "sleep", "tracks": [{"name": "Nylon Guitar Melody", "program": 24, "role": "melody", "totalDuration": 56, "notes": [{"note": 60, "velocity": 45, "startTime": 0, "duration": 2.5}, {"note": 62, "velocity": 42, "startTime": 2.6, "duration": 1.8}, {"note": 65, "velocity": 48, "startTime": 4.5, "duration": 3.2}, {"note": 64, "velocity": 44, "startTime": 8.1, "duration": 2.0}, {"note": 62, "velocity": 40, "startTime": 10.3, "duration": 4.5}, {"note": 60, "velocity": 43, "startTime": 15.2, "duration": 2.5}, {"note": 64, "velocity": 46, "startTime": 17.9, "duration": 1.9}, {"note": 67, "velocity": 50, "startTime": 19.9, "duration": 3.5}, {"note": 65, "velocity": 44, "startTime": 23.6, "duration": 2.2}, {"note": 64, "velocity": 41, "startTime": 26.0, "duration": 5.0}, {"note": 60, "velocity": 45, "startTime": 31.5, "duration": 2.4}, {"note": 62, "velocity": 42, "startTime": 34.0, "duration": 1.8}, {"note": 65, "velocity": 47, "startTime": 36.0, "duration": 3.0}, {"note": 64, "velocity": 43, "startTime": 39.2, "duration": 2.1}, {"note": 62, "velocity": 39, "startTime": 41.5, "duration": 3.8}, {"note": 60, "velocity": 44, "startTime": 45.8, "duration": 2.6}, {"note": 64, "velocity": 46, "startTime": 48.6, "duration": 2.0}, {"note": 65, "velocity": 48, "startTime": 50.8, "duration": 5.2}]}, {"name": "Tumbao Bass", "program": 33, "role": "bass", "totalDuration": 56, "notes": [{"note": 36, "velocity": 52, "startTime": 0, "duration": 6.0}, {"note": 33, "velocity": 48, "startTime": 6.1, "duration": 5.8}, {"note": 34, "velocity": 50, "startTime": 12.1, "duration": 5.9}, {"note": 33, "velocity": 47, "startTime": 18.1, "duration": 5.8}, {"note": 36, "velocity": 52, "startTime": 24.2, "duration": 5.9}, {"note": 33, "velocity": 48, "startTime": 30.2, "duration": 5.8}, {"note": 34, "velocity": 50, "startTime": 36.2, "duration": 5.8}, {"note": 33, "velocity": 47, "startTime": 42.1, "duration": 5.9}, {"note": 36, "velocity": 52, "startTime": 48.2, "duration": 7.8}]}, {"name": "Piano Chord Pads", "program": 0, "role": "chords", "totalDuration": 56, "notes": [{"note": 48, "velocity": 38, "startTime": 0.2, "duration": 11.5}, {"note": 52, "velocity": 36, "startTime": 0.2, "duration": 11.5}, {"note": 55, "velocity": 34, "startTime": 0.2, "duration": 11.5}, {"note": 60, "velocity": 33, "startTime": 0.2, "duration": 11.5}, {"note": 45, "velocity": 37, "startTime": 12.0, "duration": 11.8}, {"note": 48, "velocity": 35, "startTime": 12.0, "duration": 11.8}, {"note": 52, "velocity": 33, "startTime": 12.0, "duration": 11.8}, {"note": 57, "velocity": 32, "startTime": 12.0, "duration": 11.8}, {"note": 46, "velocity": 37, "startTime": 24.1, "duration": 11.8}, {"note": 50, "velocity": 35, "startTime": 24.1, "duration": 11.8}, {"note": 53, "velocity": 33, "startTime": 24.1, "duration": 11.8}, {"note": 57, "velocity": 32, "startTime": 24.1, "duration": 11.8}, {"note": 45, "velocity": 37, "startTime": 36.1, "duration": 11.8}, {"note": 48, "velocity": 35, "startTime": 36.1, "duration": 11.8}, {"note": 52, "velocity": 33, "startTime": 36.1, "duration": 11.8}, {"note": 57, "velocity": 32, "startTime": 36.1, "duration": 11.8}, {"note": 48, "velocity": 38, "startTime": 48.1, "duration": 7.9}, {"note": 52, "velocity": 36, "startTime": 48.1, "duration": 7.9}, {"note": 55, "velocity": 34, "startTime": 48.1, "duration": 7.9}, {"note": 60, "velocity": 33, "startTime": 48.1, "duration": 7.9}]}, {"name": "Flute Texture", "program": 73, "role": "texture", "totalDuration": 56, "notes": [{"note": 67, "velocity": 32, "startTime": 3.5, "duration": 7.5}, {"note": 65, "velocity": 30, "startTime": 15.8, "duration": 8.0}, {"note": 69, "velocity": 33, "startTime": 27.5, "duration": 7.0}, {"note": 67, "velocity": 31, "startTime": 39.2, "duration": 7.5}, {"note": 65, "velocity": 29, "startTime": 50.5, "duration": 5.5}]}], "key": "Am", "bpm": 48, "scale": "harmonic minor"}, {"genre": "latin", "mode": "relaxation", "tracks": [{"name": "Nylon Guitar Melody", "program": 24, "role": "melody", "totalDuration": 48, "notes": [{"note": 64, "velocity": 65, "startTime": 0.05, "duration": 0.9}, {"note": 67, "velocity": 68, "startTime": 1.0, "duration": 0.7}, {"note": 69, "velocity": 70, "startTime": 1.75, "duration": 1.2}, {"note": 67, "velocity": 63, "startTime": 3.05, "duration": 0.6}, {"note": 65, "velocity": 66, "startTime": 3.72, "duration": 0.8}, {"note": 64, "velocity": 68, "startTime": 4.6, "duration": 1.5}, {"note": 62, "velocity": 60, "startTime": 6.2, "duration": 0.7}, {"note": 60, "velocity": 58, "startTime": 7.0, "duration": 1.8}, {"note": 64, "velocity": 65, "startTime": 9.05, "duration": 0.9}, {"note": 67, "velocity": 68, "startTime": 10.0, "duration": 0.7}, {"note": 69, "velocity": 70, "startTime": 10.75, "duration": 1.2}, {"note": 72, "velocity": 67, "startTime": 12.05, "duration": 0.8}, {"note": 71, "velocity": 65, "startTime": 12.95, "duration": 0.6}, {"note": 69, "velocity": 63, "startTime": 13.65, "duration": 1.6}, {"note": 67, "velocity": 60, "startTime": 15.35, "duration": 0.6}, {"note": 65, "velocity": 58, "startTime": 16.05, "duration": 1.7}, {"note": 65, "velocity": 65, "startTime": 18.05, "duration": 0.8}, {"note": 67, "velocity": 68, "startTime": 18.95, "duration": 0.7}, {"note": 69, "velocity": 70, "startTime": 19.72, "duration": 1.1}, {"note": 67, "velocity": 66, "startTime": 20.9, "duration": 0.6}, {"note": 65, "velocity": 64, "startTime": 21.6, "duration": 0.7}, {"note": 62, "velocity": 65, "startTime": 22.38, "duration": 0.8}, {"note": 60, "velocity": 62, "startTime": 23.28, "duration": 0.7}, {"note": 59, "velocity": 60, "startTime": 24.08, "duration": 1.9}, {"note": 65, "velocity": 65, "startTime": 26.1, "duration": 0.8}, {"note": 67, "velocity": 68, "startTime": 27.0, "duration": 0.7}, {"note": 69, "velocity": 70, "startTime": 27.78, "duration": 1.1}, {"note": 72, "velocity": 67, "startTime": 28.98, "duration": 0.7}, {"note": 71, "velocity": 64, "startTime": 29.78, "duration": 0.6}, {"note": 69, "velocity": 62, "startTime": 30.48, "duration": 0.8}, {"note": 67, "velocity": 60, "startTime": 31.38, "duration": 0.7}, {"note": 65, "velocity": 65, "startTime": 32.18, "duration": 0.8}, {"note": 64, "velocity": 68, "startTime": 33.08, "duration": 1.4}, {"note": 62, "velocity": 60, "startTime": 34.58, "duration": 0.7}, {"note": 60, "velocity": 58, "startTime": 35.38, "duration": 2.5}, {"note": 64, "velocity": 63, "startTime": 38.05, "duration": 0.9}, {"note": 67, "velocity": 65, "startTime": 39.05, "duration": 0.7}, {"note": 69, "velocity": 68, "startTime": 39.85, "duration": 1.4}, {"note": 67, "velocity": 62, "startTime": 41.35, "duration": 0.7}, {"note": 65, "velocity": 60, "startTime": 42.15, "duration": 0.8}, {"note": 64, "velocity": 65, "startTime": 43.05, "duration": 0.8}, {"note": 62, "velocity": 60, "startTime": 43.95, "duration": 0.7}, {"note": 60, "velocity": 55, "startTime": 44.75, "duration": 3.0}]}, {"name": "Electric Bass Tumbao", "program": 33, "role": "bass", "totalDuration": 48, "notes": [{"note": 41, "velocity": 72, "startTime": 0, "duration": 0.45}, {"note": 41, "velocity": 65, "startTime": 0.85, "duration": 0.35}, {"note": 43, "velocity": 70, "startTime": 1.55, "duration": 0.4}, {"note": 41, "velocity": 67, "startTime": 2.55, "duration": 0.5}, {"note": 41, "velocity": 63, "startTime": 3.4, "duration": 0.35}, {"note": 38, "velocity": 72, "startTime": 4.0, "duration": 0.45}, {"note": 38, "velocity": 65, "startTime": 4.85, "duration": 0.35}, {"note": 40, "velocity": 70, "startTime": 5.55, "duration": 0.4}, {"note": 38, "velocity": 67, "startTime": 6.5, "duration": 0.5}, {"note": 38, "velocity": 63, "startTime": 7.35, "duration": 0.35}, {"note": 41, "velocity": 72, "startTime": 8.0, "duration": 0.45}, {"note": 41, "velocity": 65, "startTime": 8.85, "duration": 0.35}, {"note": 43, "velocity": 70, "startTime": 9.55, "duration": 0.4}, {"note": 41, "velocity": 67, "startTime": 10.5, "duration": 0.5}, {"note": 41, "velocity": 63, "startTime": 11.35, "duration": 0.35}, {"note": 43, "velocity": 72, "startTime": 12.0, "duration": 0.45}, {"note": 43, "velocity": 65, "startTime": 12.85, "duration": 0.35}, {"note": 45, "velocity": 70, "startTime": 13.55, "duration": 0.4}, {"note": 43, "velocity": 67, "startTime": 14.5, "duration": 0.5}, {"note": 43, "velocity": 63, "startTime": 15.35, "duration": 0.35}, {"note": 41, "velocity": 72, "startTime": 16.0, "duration": 0.45}, {"note": 41, "velocity": 65, "startTime": 16.85, "duration": 0.35}, {"note": 43, "velocity": 70, "startTime": 17.55, "duration": 0.4}, {"note": 41, "velocity": 67, "startTime": 18.5, "duration": 0.5}, {"note": 41, "velocity": 63, "startTime": 19.35, "duration": 0.35}, {"note": 38, "velocity": 72, "startTime": 20.0, "duration": 0.45}, {"note": 38, "velocity": 65, "startTime": 20.85, "duration": 0.35}, {"note": 40, "velocity": 70, "startTime": 21.55, "duration": 0.4}, {"note": 38, "velocity": 67, "startTime": 22.5, "duration": 0.5}, {"note": 38, "velocity": 63, "startTime": 23.35, "duration": 0.35}, {"note": 41, "velocity": 72, "startTime": 24.0, "duration": 0.45}, {"note": 41, "velocity": 65, "startTime": 24.85, "duration": 0.35}, {"note": 43, "velocity": 70, "startTime": 25.55, "duration": 0.4}, {"note": 41, "velocity": 67, "startTime": 26.5, "duration": 0.5}, {"note": 41, "velocity": 63, "startTime": 27.35, "duration": 0.35}, {"note": 43, "velocity": 72, "startTime": 28.0, "duration": 0.45}, {"note": 43, "velocity": 65, "startTime": 28.85, "duration": 0.35}, {"note": 45, "velocity": 70, "startTime": 29.55, "duration": 0.4}, {"note": 43, "velocity": 67, "startTime": 30.5, "duration": 0.5}, {"note": 43, "velocity": 63, "startTime": 31.35, "duration": 0.35}, {"note": 41, "velocity": 70, "startTime": 32.0, "duration": 0.45}, {"note": 41, "velocity": 63, "startTime": 32.85, "duration": 0.35}, {"note": 43, "velocity": 68, "startTime": 33.55, "duration": 0.4}, {"note": 41, "velocity": 65, "startTime": 34.5, "duration": 0.5}, {"note": 41, "velocity": 60, "startTime": 35.35, "duration": 0.35}, {"note": 38, "velocity": 68, "startTime": 36.0, "duration": 0.45}, {"note": 38, "velocity": 62, "startTime": 36.85, "duration": 0.35}, {"note": 40, "velocity": 65, "startTime": 37.55, "duration": 0.4}, {"note": 38, "velocity": 63, "startTime": 38.5, "duration": 0.5}, {"note": 38, "velocity": 58, "startTime": 39.35, "duration": 0.35}, {"note": 41, "velocity": 65, "startTime": 40.0, "duration": 0.45}, {"note": 41, "velocity": 60, "startTime": 40.85, "duration": 0.35}, {"note": 43, "velocity": 62, "startTime": 41.55, "duration": 0.4}, {"note": 41, "velocity": 58, "startTime": 42.5, "duration": 0.5}, {"note": 41, "velocity": 55, "startTime": 43.35, "duration": 1.8}]}, {"name": "Piano Montuno Pads", "program": 0, "role": "chords", "totalDuration": 48, "notes": [{"note": 53, "velocity": 55, "startTime": 0.02, "duration": 3.8}, {"note": 57, "velocity": 52, "startTime": 0.02, "duration": 3.8}, {"note": 60, "velocity": 55, "startTime": 0.02, "duration": 3.8}, {"note": 64, "velocity": 50, "startTime": 0.02, "duration": 3.8}, {"note": 53, "velocity": 53, "startTime": 0.75, "duration": 0.35}, {"note": 57, "velocity": 50, "startTime": 0.75, "duration": 0.35}, {"note": 60, "velocity": 53, "startTime": 0.75, "duration": 0.35}, {"note": 53, "velocity": 52, "startTime": 1.55, "duration": 0.35}, {"note": 57, "velocity": 50, "startTime": 1.55, "duration": 0.35}, {"note": 60, "velocity": 52, "startTime": 1.55, "duration": 0.35}, {"note": 50, "velocity": 55, "startTime": 4.02, "duration": 3.8}, {"note": 53, "velocity": 52, "startTime": 4.02, "duration": 3.8}, {"note": 57, "velocity": 55, "startTime": 4.02, "duration": 3.8}, {"note": 62, "velocity": 50, "startTime": 4.02, "duration": 3.8}, {"note": 50, "velocity": 53, "startTime": 4.75, "duration": 0.35}, {"note": 53, "velocity": 50, "startTime": 4.75, "duration": 0.35}, {"note": 57, "velocity": 53, "startTime": 4.75, "duration": 0.35}, {"note": 50, "velocity": 52, "startTime": 5.55, "duration": 0.35}, {"note": 53, "velocity": 50, "startTime": 5.55, "duration": 0.35}, {"note": 57, "velocity": 52, "startTime": 5.55, "duration": 0.35}, {"note": 53, "velocity": 55, "startTime": 8.02, "duration": 3.8}, {"note": 57, "velocity": 52, "startTime": 8.02, "duration": 3.8}, {"note": 60, "velocity": 55, "startTime": 8.02, "duration": 3.8}, {"note": 64, "velocity": 50, "startTime": 8.02, "duration": 3.8}, {"note": 53, "velocity": 53, "startTime": 8.75, "duration": 0.35}, {"note": 57, "velocity": 50, "startTime": 8.75, "duration": 0.35}, {"note": 60, "velocity": 53, "startTime": 8.75, "duration": 0.35}, {"note": 55, "velocity": 55, "startTime": 12.02, "duration": 3.8}, {"note": 59, "velocity": 52, "startTime": 12.02, "duration": 3.8}, {"note": 62, "velocity": 55, "startTime": 12.02, "duration": 3.8}, {"note": 67, "velocity": 50, "startTime": 12.02, "duration": 3.8}, {"note": 55, "velocity": 53, "startTime": 12.75, "duration": 0.35}, {"note": 59, "velocity": 50, "startTime": 12.75, "duration": 0.35}, {"note": 62, "velocity": 53, "startTime": 12.75, "duration": 0.35}, {"note": 53, "velocity": 55, "startTime": 16.02, "duration": 3.8}, {"note": 57, "velocity": 52, "startTime": 16.02, "duration": 3.8}, {"note": 60, "velocity": 55, "startTime": 16.02, "duration": 3.8}, {"note": 64, "velocity": 50, "startTime": 16.02, "duration": 3.8}, {"note": 50, "velocity": 55, "startTime": 20.02, "duration": 3.8}, {"note": 53, "velocity": 52, "startTime": 20.02, "duration": 3.8}, {"note": 57, "velocity": 55, "startTime": 20.02, "duration": 3.8}, {"note": 62, "velocity": 50, "startTime": 20.02, "duration": 3.8}, {"note": 50, "velocity": 53, "startTime": 20.75, "duration": 0.35}, {"note": 53, "velocity": 50, "startTime": 20.75, "duration": 0.35}, {"note": 57, "velocity": 53, "startTime": 20.75, "duration": 0.35}, {"note": 53, "velocity": 55, "startTime": 24.02, "duration": 3.8}, {"note": 57, "velocity": 52, "startTime": 24.02, "duration": 3.8}, {"note": 60, "velocity": 55, "startTime": 24.02, "duration": 3.8}, {"note": 64, "velocity": 50, "startTime": 24.02, "duration": 3.8}, {"note": 53, "velocity": 53, "startTime": 24.75, "duration": 0.35}, {"note": 57, "velocity": 50, "startTime": 24.75, "duration": 0.35}, {"note": 60, "velocity": 53, "startTime": 24.75, "duration": 0.35}, {"note": 55, "velocity": 55, "startTime": 28.02, "duration": 3.8}, {"note": 59, "velocity": 52, "startTime": 28.02, "duration": 3.8}, {"note": 62, "velocity": 55, "startTime": 28.02, "duration": 3.8}, {"note": 67, "velocity": 50, "startTime": 28.02, "duration": 3.8}, {"note": 55, "velocity": 53, "startTime": 28.75, "duration": 0.35}, {"note": 59, "velocity": 50, "startTime": 28.75, "duration": 0.35}, {"note": 62, "velocity": 53, "startTime": 28.75, "duration": 0.35}, {"note": 53, "velocity": 52, "startTime": 32.02, "duration": 3.8}, {"note": 57, "velocity": 50, "startTime": 32.02, "duration": 3.8}, {"note": 60, "velocity": 52, "startTime": 32.02, "duration": 3.8}, {"note": 64, "velocity": 48, "startTime": 32.02, "duration": 3.8}, {"note": 50, "velocity": 52, "startTime": 36.02, "duration": 3.8}, {"note": 53, "velocity": 50, "startTime": 36.02, "duration": 3.8}, {"note": 57, "velocity": 52, "startTime": 36.02, "duration": 3.8}, {"note": 62, "velocity": 48, "startTime": 36.02, "duration": 3.8}, {"note": 53, "velocity": 50, "startTime": 40.02, "duration": 3.8}, {"note": 57, "velocity": 48, "startTime": 40.02, "duration": 3.8}, {"note": 60, "velocity": 50, "startTime": 40.02, "duration": 3.8}, {"note": 64, "velocity": 45, "startTime": 40.02, "duration": 3.8}, {"note": 53, "velocity": 48, "startTime": 44.02, "duration": 3.7}, {"note": 57, "velocity": 45, "startTime": 44.02, "duration": 3.7}, {"note": 60, "velocity": 48, "startTime": 44.02, "duration": 3.7}, {"note": 64, "velocity": 42, "startTime": 44.02, "duration": 3.7}]}, {"name": "Flute Texture", "program": 73, "role": "texture", "totalDuration": 48, "notes": [{"note": 72, "velocity": 42, "startTime": 2.1, "duration": 3.5}, {"note": 71, "velocity": 40, "startTime": 6.3, "duration": 2.8}, {"note": 72, "velocity": 43, "startTime": 10.2, "duration": 3.2}, {"note": 74, "velocity": 40, "startTime": 14.1, "duration": 2.5}, {"note": 69, "velocity": 42, "startTime": 18.3, "duration": 3.8}, {"note": 67, "velocity": 38, "startTime": 22.5, "duration": 2.9}, {"note": 72, "velocity": 43, "startTime": 26.2, "duration": 3.4}, {"note": 74, "velocity": 40, "startTime": 30.1, "duration": 2.8}, {"note": 71, "velocity": 40, "startTime": 34.3, "duration": 3.5}, {"note": 69, "velocity": 38, "startTime": 38.2, "duration": 3.0}, {"note": 67, "velocity": 35, "startTime": 42.1, "duration": 5.5}]}], "key": "Dm", "bpm": 63, "scale": "harmonic minor"}, {"genre": "electronic", "mode": "sleep", "tracks": [{"name": "Ambient Texture Pad", "program": 89, "role": "texture", "totalDuration": 56, "notes": [{"note": 45, "velocity": 28, "startTime": 0, "duration": 14.0}, {"note": 52, "velocity": 22, "startTime": 0.3, "duration": 13.5}, {"note": 57, "velocity": 18, "startTime": 0.6, "duration": 13.0}, {"note": 43, "velocity": 26, "startTime": 13.8, "duration": 14.0}, {"note": 50, "velocity": 20, "startTime": 14.1, "duration": 13.5}, {"note": 55, "velocity": 16, "startTime": 14.4, "duration": 13.0}, {"note": 48, "velocity": 28, "startTime": 27.6, "duration": 14.0}, {"note": 55, "velocity": 22, "startTime": 27.9, "duration": 13.5}, {"note": 60, "velocity": 18, "startTime": 28.2, "duration": 13.0}, {"note": 45, "velocity": 30, "startTime": 41.5, "duration": 14.5}, {"note": 52, "velocity": 24, "startTime": 41.8, "duration": 14.0}, {"note": 57, "velocity": 20, "startTime": 42.1, "duration": 13.5}]}, {"name": "Warm Chord Pad", "program": 89, "role": "chords", "totalDuration": 56, "notes": [{"note": 57, "velocity": 42, "startTime": 0, "duration": 13.2}, {"note": 60, "velocity": 38, "startTime": 0.1, "duration": 13.0}, {"note": 64, "velocity": 34, "startTime": 0.2, "duration": 12.8}, {"note": 55, "velocity": 40, "startTime": 13.8, "duration": 13.2}, {"note": 59, "velocity": 36, "startTime": 13.9, "duration": 13.0}, {"note": 62, "velocity": 32, "startTime": 14.0, "duration": 12.8}, {"note": 60, "velocity": 44, "startTime": 27.6, "duration": 13.2}, {"note": 63, "velocity": 38, "startTime": 27.7, "duration": 13.0}, {"note": 67, "velocity": 34, "startTime": 27.8, "duration": 12.8}, {"note": 57, "velocity": 48, "startTime": 41.5, "duration": 13.5}, {"note": 60, "velocity": 42, "startTime": 41.6, "duration": 13.2}, {"note": 64, "velocity": 36, "startTime": 41.7, "duration": 13.0}]}, {"name": "Deep Synth Bass", "program": 38, "role": "bass", "totalDuration": 56, "notes": [{"note": 33, "velocity": 88, "startTime": 0, "duration": 6.0}, {"note": 33, "velocity": 82, "startTime": 6.3, "duration": 6.8}, {"note": 31, "velocity": 86, "startTime": 13.8, "duration": 6.0}, {"note": 31, "velocity": 80, "startTime": 20.1, "duration": 6.8}, {"note": 36, "velocity": 90, "startTime": 27.6, "duration": 6.0}, {"note": 36, "velocity": 84, "startTime": 33.9, "duration": 6.8}, {"note": 33, "velocity": 92, "startTime": 41.5, "duration": 6.0}, {"note": 33, "velocity": 86, "startTime": 47.8, "duration": 7.5}]}, {"name": "Electric Piano Lead", "program": 4, "role": "melody", "totalDuration": 56, "notes": [{"note": 64, "velocity": 48, "startTime": 2.5, "duration": 3.8}, {"note": 62, "velocity": 44, "startTime": 7.1, "duration": 2.8}, {"note": 60, "velocity": 50, "startTime": 10.4, "duration": 3.2}, {"note": 62, "velocity": 46, "startTime": 16.3, "duration": 3.8}, {"note": 60, "velocity": 42, "startTime": 20.8, "duration": 2.8}, {"note": 57, "velocity": 48, "startTime": 24.2, "duration": 3.0}, {"note": 64, "velocity": 50, "startTime": 29.4, "duration": 4.0}, {"note": 67, "velocity": 46, "startTime": 34.1, "duration": 3.2}, {"note": 64, "velocity": 44, "startTime": 38.2, "duration": 2.8}, {"note": 64, "velocity": 52, "startTime": 43.6, "duration": 3.8}, {"note": 62, "velocity": 48, "startTime": 48.1, "duration": 3.0}, {"note": 60, "velocity": 42, "startTime": 52.5, "duration": 4.5}]}], "key": "Am", "bpm": 48, "scale": "minor"}, {"genre": "electronic", "mode": "relaxation", "tracks": [{"name": "Ambient Warm Pad", "program": 89, "role": "chords", "totalDuration": 48.0, "notes": [{"note": 57, "velocity": 58, "startTime": 0, "duration": 7.8}, {"note": 60, "velocity": 55, "startTime": 0.05, "duration": 7.8}, {"note": 64, "velocity": 52, "startTime": 0.1, "duration": 7.8}, {"note": 67, "velocity": 48, "startTime": 0.15, "duration": 7.8}, {"note": 57, "velocity": 56, "startTime": 8.0, "duration": 7.8}, {"note": 62, "velocity": 54, "startTime": 8.05, "duration": 7.8}, {"note": 65, "velocity": 51, "startTime": 8.1, "duration": 7.8}, {"note": 69, "velocity": 47, "startTime": 8.15, "duration": 7.8}, {"note": 55, "velocity": 58, "startTime": 16.0, "duration": 7.8}, {"note": 59, "velocity": 55, "startTime": 16.05, "duration": 7.8}, {"note": 62, "velocity": 52, "startTime": 16.1, "duration": 7.8}, {"note": 67, "velocity": 48, "startTime": 16.15, "duration": 7.8}, {"note": 55, "velocity": 56, "startTime": 24.0, "duration": 7.8}, {"note": 58, "velocity": 54, "startTime": 24.05, "duration": 7.8}, {"note": 62, "velocity": 51, "startTime": 24.1, "duration": 7.8}, {"note": 67, "velocity": 47, "startTime": 24.15, "duration": 7.8}, {"note": 57, "velocity": 58, "startTime": 32.0, "duration": 7.8}, {"note": 60, "velocity": 55, "startTime": 32.05, "duration": 7.8}, {"note": 64, "velocity": 52, "startTime": 32.1, "duration": 7.8}, {"note": 67, "velocity": 48, "startTime": 32.15, "duration": 7.8}, {"note": 57, "velocity": 56, "startTime": 40.0, "duration": 7.8}, {"note": 62, "velocity": 54, "startTime": 40.05, "duration": 7.8}, {"note": 65, "velocity": 51, "startTime": 40.1, "duration": 7.8}, {"note": 69, "velocity": 47, "startTime": 40.15, "duration": 7.8}]}, {"name": "Synth Bass", "program": 38, "role": "bass", "totalDuration": 48.0, "notes": [{"note": 45, "velocity": 90, "startTime": 0, "duration": 1.8}, {"note": 45, "velocity": 85, "startTime": 2.0, "duration": 1.6}, {"note": 45, "velocity": 88, "startTime": 4.05, "duration": 1.8}, {"note": 45, "velocity": 84, "startTime": 6.0, "duration": 1.6}, {"note": 45, "velocity": 91, "startTime": 8.0, "duration": 1.8}, {"note": 45, "velocity": 86, "startTime": 10.05, "duration": 1.6}, {"note": 45, "velocity": 89, "startTime": 12.0, "duration": 1.8}, {"note": 45, "velocity": 85, "startTime": 14.0, "duration": 1.6}, {"note": 43, "velocity": 92, "startTime": 16.0, "duration": 1.8}, {"note": 43, "velocity": 86, "startTime": 18.05, "duration": 1.6}, {"note": 43, "velocity": 90, "startTime": 20.0, "duration": 1.8}, {"note": 43, "velocity": 85, "startTime": 22.0, "duration": 1.6}, {"note": 43, "velocity": 91, "startTime": 24.0, "duration": 1.8}, {"note": 43, "velocity": 87, "startTime": 26.05, "duration": 1.6}, {"note": 43, "velocity": 89, "startTime": 28.0, "duration": 1.8}, {"note": 43, "velocity": 84, "startTime": 30.0, "duration": 1.6}, {"note": 45, "velocity": 90, "startTime": 32.0, "duration": 1.8}, {"note": 45, "velocity": 85, "startTime": 34.05, "duration": 1.6}, {"note": 45, "velocity": 88, "startTime": 36.0, "duration": 1.8}, {"note": 45, "velocity": 84, "startTime": 38.0, "duration": 1.6}, {"note": 45, "velocity": 91, "startTime": 40.0, "duration": 1.8}, {"note": 45, "velocity": 86, "startTime": 42.05, "duration": 1.6}, {"note": 45, "velocity": 89, "startTime": 44.0, "duration": 1.8}, {"note": 45, "velocity": 85, "startTime": 46.0, "duration": 1.9}]}, {"name": "Sawtooth Lead Melody", "program": 81, "role": "melody", "totalDuration": 48.0, "notes": [{"note": 69, "velocity": 68, "startTime": 1.0, "duration": 0.9}, {"note": 72, "velocity": 65, "startTime": 2.1, "duration": 1.4}, {"note": 71, "velocity": 62, "startTime": 3.65, "duration": 0.85}, {"note": 69, "velocity": 66, "startTime": 4.6, "duration": 1.9}, {"note": 67, "velocity": 60, "startTime": 6.8, "duration": 0.7}, {"note": 69, "velocity": 67, "startTime": 9.1, "duration": 0.9}, {"note": 72, "velocity": 64, "startTime": 10.15, "duration": 1.4}, {"note": 74, "velocity": 63, "startTime": 11.7, "duration": 0.85}, {"note": 72, "velocity": 65, "startTime": 12.65, "duration": 2.1}, {"note": 67, "velocity": 68, "startTime": 17.0, "duration": 0.9}, {"note": 69, "velocity": 65, "startTime": 18.1, "duration": 1.4}, {"note": 67, "velocity": 62, "startTime": 19.65, "duration": 0.85}, {"note": 65, "velocity": 66, "startTime": 20.6, "duration": 1.9}, {"note": 64, "velocity": 60, "startTime": 22.7, "duration": 0.7}, {"note": 65, "velocity": 67, "startTime": 25.1, "duration": 0.9}, {"note": 67, "velocity": 64, "startTime": 26.15, "duration": 1.4}, {"note": 65, "velocity": 63, "startTime": 27.7, "duration": 0.85}, {"note": 64, "velocity": 65, "startTime": 28.65, "duration": 2.1}, {"note": 69, "velocity": 68, "startTime": 33.0, "duration": 0.9}, {"note": 72, "velocity": 65, "startTime": 34.1, "duration": 1.4}, {"note": 71, "velocity": 62, "startTime": 35.65, "duration": 0.85}, {"note": 69, "velocity": 66, "startTime": 36.6, "duration": 1.9}, {"note": 67, "velocity": 60, "startTime": 38.7, "duration": 0.7}, {"note": 69, "velocity": 67, "startTime": 41.1, "duration": 0.9}, {"note": 72, "velocity": 64, "startTime": 42.15, "duration": 1.4}, {"note": 69, "velocity": 62, "startTime": 43.7, "duration": 1.2}, {"note": 67, "velocity": 58, "startTime": 45.1, "duration": 2.7}]}, {"name": "Electric Piano Texture", "program": 4, "role": "texture", "totalDuration": 48.0, "notes": [{"note": 64, "velocity": 50, "startTime": 0.5, "duration": 3.5}, {"note": 67, "velocity": 46, "startTime": 1.2, "duration": 3.0}, {"note": 72, "velocity": 44, "startTime": 2.3, "duration": 2.8}, {"note": 64, "velocity": 48, "startTime": 8.5, "duration": 3.5}, {"note": 69, "velocity": 45, "startTime": 9.3, "duration": 3.0}, {"note": 72, "velocity": 43, "startTime": 10.4, "duration": 2.8}, {"note": 62, "velocity": 50, "startTime": 16.5, "duration": 3.5}, {"note": 65, "velocity": 46, "startTime": 17.3, "duration": 3.0}, {"note": 71, "velocity": 44, "startTime": 18.4, "duration": 2.8}, {"note": 62, "velocity": 48, "startTime": 24.5, "duration": 3.5}, {"note": 65, "velocity": 45, "startTime": 25.3, "duration": 3.0}, {"note": 69, "velocity": 43, "startTime": 26.4, "duration": 2.8}, {"note": 64, "velocity": 50, "startTime": 32.5, "duration": 3.5}, {"note": 67, "velocity": 46, "startTime": 33.3, "duration": 3.0}, {"note": 72, "velocity": 44, "startTime": 34.4, "duration": 2.8}, {"note": 64, "velocity": 48, "startTime": 40.5, "duration": 3.5}, {"note": 69, "velocity": 44, "startTime": 41.4, "duration": 3.0}, {"note": 72, "velocity": 40, "startTime": 42.6, "duration": 5.2}]}], "key": "Am", "bpm": 62, "scale": "dorian"}], "version": "1.0"}