{
  "genre": "ambient",
  "mode": "focus",
  "tracks": [
    {
      "name": "Melody \u2013 New Age Pad",
      "program": 88,
      "role": "melody",
      "totalDuration": 56,
      "notes": [
        {
          "note": 62,
          "velocity": 48,
          "startTime": 0,
          "duration": 3.2
        },
        {
          "note": 66,
          "velocity": 44,
          "startTime": 3.4,
          "duration": 2.8
        },
        {
          "note": 69,
          "velocity": 50,
          "startTime": 6.4,
          "duration": 4.0
        },
        {
          "note": 66,
          "velocity": 42,
          "startTime": 10.6,
          "duration": 2.6
        },
        {
          "note": 62,
          "velocity": 46,
          "startTime": 13.4,
          "duration": 3.4
        },
        {
          "note": 64,
          "velocity": 44,
          "startTime": 17.0,
          "duration": 2.4
        },
        {
          "note": 69,
          "velocity": 52,
          "startTime": 19.6,
          "duration": 4.2
        },
        {
          "note": 71,
          "velocity": 48,
          "startTime": 24.0,
          "duration": 3.0
        },
        {
          "note": 69,
          "velocity": 44,
          "startTime": 27.2,
          "duration": 2.8
        },
        {
          "note": 66,
          "velocity": 46,
          "startTime": 30.2,
          "duration": 3.2
        },
        {
          "note": 62,
          "velocity": 50,
          "startTime": 33.6,
          "duration": 2.6
        },
        {
          "note": 64,
          "velocity": 42,
          "startTime": 36.4,
          "duration": 3.0
        },
        {
          "note": 69,
          "velocity": 54,
          "startTime": 39.6,
          "duration": 4.4
        },
        {
          "note": 71,
          "velocity": 46,
          "startTime": 44.2,
          "duration": 3.0
        },
        {
          "note": 74,
          "velocity": 50,
          "startTime": 47.4,
          "duration": 3.6
        },
        {
          "note": 69,
          "velocity": 40,
          "startTime": 51.2,
          "duration": 4.2
        }
      ]
    },
    {
      "name": "Bass \u2013 Warm Pad",
      "program": 89,
      "role": "bass",
      "totalDuration": 56,
      "notes": [
        {
          "note": 38,
          "velocity": 45,
          "startTime": 0,
          "duration": 7.8
        },
        {
          "note": 33,
          "velocity": 42,
          "startTime": 8.0,
          "duration": 7.6
        },
        {
          "note": 35,
          "velocity": 44,
          "startTime": 16.2,
          "duration": 7.8
        },
        {
          "note": 38,
          "velocity": 46,
          "startTime": 24.2,
          "duration": 7.6
        },
        {
          "note": 33,
          "velocity": 43,
          "startTime": 32.0,
          "duration": 7.8
        },
        {
          "note": 35,
          "velocity": 45,
          "startTime": 40.0,
          "duration": 7.6
        },
        {
          "note": 38,
          "velocity": 40,
          "startTime": 48.0,
          "duration": 7.6
        }
      ]
    },
    {
      "name": "Chord Pads \u2013 Choir",
      "program": 91,
      "role": "chords",
      "totalDuration": 56,
      "notes": [
        {
          "note": 62,
          "velocity": 38,
          "startTime": 0.2,
          "duration": 7.6
        },
        {
          "note": 66,
          "velocity": 36,
          "startTime": 0.2,
          "duration": 7.6
        },
        {
          "note": 69,
          "velocity": 34,
          "startTime": 0.2,
          "duration": 7.6
        },
        {
          "note": 74,
          "velocity": 32,
          "startTime": 0.2,
          "duration": 7.6
        },
        {
          "note": 57,
          "velocity": 36,
          "startTime": 8.2,
          "duration": 7.6
        },
        {
          "note": 62,
          "velocity": 34,
          "startTime": 8.2,
          "duration": 7.6
        },
        {
          "note": 66,
          "velocity": 32,
          "startTime": 8.2,
          "duration": 7.6
        },
        {
          "note": 71,
          "velocity": 30,
          "startTime": 8.2,
          "duration": 7.6
        },
        {
          "note": 59,
          "velocity": 38,
          "startTime": 16.4,
          "duration": 7.6
        },
        {
          "note": 62,
          "velocity": 36,
          "startTime": 16.4,
          "duration": 7.6
        },
        {
          "note": 66,
          "velocity": 34,
          "startTime": 16.4,
          "duration": 7.6
        },
        {
          "note": 71,
          "velocity": 32,
          "startTime": 16.4,
          "duration": 7.6
        },
        {
          "note": 62,
          "velocity": 38,
          "startTime": 24.4,
          "duration": 7.6
        },
        {
          "note": 66,
          "velocity": 36,
          "startTime": 24.4,
          "duration": 7.6
        },
        {
          "note": 69,
          "velocity": 34,
          "startTime": 24.4,
          "duration": 7.6
        },
        {
          "note": 74,
          "velocity": 32,
          "startTime": 24.4,
          "duration": 7.6
        },
        {
          "note": 57,
          "velocity": 36,
          "startTime": 32.2,
          "duration": 7.6
        },
        {
          "note": 62,
          "velocity": 34,
          "startTime": 32.2,
          "duration": 7.6
        },
        {
          "note": 66,
          "velocity": 32,
          "startTime": 32.2,
          "duration": 7.6
        },
        {
          "note": 71,
          "velocity": 30,
          "startTime": 32.2,
          "duration": 7.6
        },
        {
          "note": 59,
          "velocity": 38,
          "startTime": 40.2,
          "duration": 7.6
        },
        {
          "note": 64,
          "velocity": 36,
          "startTime": 40.2,
          "duration": 7.6
        },
        {
          "note": 69,
          "velocity": 34,
          "startTime": 40.2,
          "duration": 7.6
        },
        {
          "note": 74,
          "velocity": 32,
          "startTime": 40.2,
          "duration": 7.6
        },
        {
          "note": 62,
          "velocity": 36,
          "startTime": 48.2,
          "duration": 7.4
        },
        {
          "note": 66,
          "velocity": 34,
          "startTime": 48.2,
          "duration": 7.4
        },
        {
          "note": 69,
          "velocity": 32,
          "startTime": 48.2,
          "duration": 7.4
        },
        {
          "note": 74,
          "velocity": 30,
          "startTime": 48.2,
          "duration": 7.4
        }
      ]
    },
    {
      "name": "Sweep Texture",
      "program": 95,
      "role": "texture",
      "totalDuration": 56,
      "notes": [
        {
          "note": 74,
          "velocity": 28,
          "startTime": 0.6,
          "duration": 14.0
        },
        {
          "note": 71,
          "velocity": 26,
          "startTime": 15.0,
          "duration": 13.8
        },
        {
          "note": 74,
          "velocity": 30,
          "startTime": 29.2,
          "duration": 13.6
        },
        {
          "note": 76,
          "velocity": 28,
          "startTime": 43.0,
          "duration": 12.6
        }
      ]
    },
    {
      "name": "Soft Percussion",
      "program": 0,
      "role": "drums",
      "totalDuration": 56,
      "notes": [
        {
          "note": 51,
          "velocity": 32,
          "startTime": 0,
          "duration": 0.2
        },
        {
          "note": 51,
          "velocity": 28,
          "startTime": 3.33,
          "duration": 0.2
        },
        {
          "note": 51,
          "velocity": 30,
          "startTime": 6.66,
          "duration": 0.2
        },
        {
          "note": 51,
          "velocity": 28,
          "startTime": 10.0,
          "duration": 0.2
        },
        {
          "note": 51,
          "velocity": 32,
          "startTime": 13.33,
          "duration": 0.2
        },
        {
          "note": 51,
          "velocity": 28,
          "startTime": 16.66,
          "duration": 0.2
        },
        {
          "note": 51,
          "velocity": 30,
          "startTime": 20.0,
          "duration": 0.2
        },
        {
          "note": 51,
          "velocity": 28,
          "startTime": 23.33,
          "duration": 0.2
        },
        {
          "note": 51,
          "velocity": 32,
          "startTime": 26.66,
          "duration": 0.2
        },
        {
          "note": 51,
          "velocity": 28,
          "startTime": 30.0,
          "duration": 0.2
        },
        {
          "note": 51,
          "velocity": 30,
          "startTime": 33.33,
          "duration": 0.2
        },
        {
          "note": 51,
          "velocity": 28,
          "startTime": 36.66,
          "duration": 0.2
        },
        {
          "note": 51,
          "velocity": 32,
          "startTime": 40.0,
          "duration": 0.2
        },
        {
          "note": 51,
          "velocity": 28,
          "startTime": 43.33,
          "duration": 0.2
        },
        {
          "note": 51,
          "velocity": 30,
          "startTime": 46.66,
          "duration": 0.2
        },
        {
          "note": 51,
          "velocity": 28,
          "startTime": 50.0,
          "duration": 0.2
        },
        {
          "note": 51,
          "velocity": 30,
          "startTime": 53.33,
          "duration": 0.2
        },
        {
          "note": 42,
          "velocity": 36,
          "startTime": 0,
          "duration": 0.15
        },
        {
          "note": 42,
          "velocity": 30,
          "startTime": 1.66,
          "duration": 0.15
        },
        {
          "note": 42,
          "velocity": 34,
          "startTime": 3.33,
          "duration": 0.15
        },
        {
          "note": 42,
          "velocity": 30,
          "startTime": 5.0,
          "duration": 0.15
        },
        {
          "note": 42,
          "velocity": 36,
          "startTime": 6.66,
          "duration": 0.15
        },
        {
          "note": 42,
          "velocity": 30,
          "startTime": 8.33,
          "duration": 0.15
        },
        {
          "note": 42,
          "velocity": 34,
          "startTime": 10.0,
          "duration": 0.15
        },
        {
          "note": 42,
          "velocity": 30,
          "startTime": 11.66,
          "duration": 0.15
        },
        {
          "note": 42,
          "velocity": 36,
          "startTime": 13.33,
          "duration": 0.15
        },
        {
          "note": 42,
          "velocity": 30,
          "startTime": 15.0,
          "duration": 0.15
        },
        {
          "note": 42,
          "velocity": 34,
          "startTime": 16.66,
          "duration": 0.15
        },
        {
          "note": 42,
          "velocity": 30,
          "startTime": 18.33,
          "duration": 0.15
        },
        {
          "note": 42,
          "velocity": 36,
          "startTime": 20.0,
          "duration": 0.15
        },
        {
          "note": 42,
          "velocity": 30,
          "startTime": 21.66,
          "duration": 0.15
        },
        {
          "note": 42,
          "velocity": 34,
          "startTime": 23.33,
          "duration": 0.15
        },
        {
          "note": 42,
          "velocity": 30,
          "startTime": 25.0,
          "duration": 0.15
        },
        {
          "note": 42,
          "velocity": 36,
          "startTime": 26.66,
          "duration": 0.15
        },
        {
          "note": 42,
          "velocity": 30,
          "startTime": 28.33,
          "duration": 0.15
        },
        {
          "note": 42,
          "velocity": 34,
          "startTime": 30.0,
          "duration": 0.15
        },
        {
          "note": 42,
          "velocity": 30,
          "startTime": 31.66,
          "duration": 0.15
        },
        {
          "note": 42,
          "velocity": 36,
          "startTime": 33.33,
          "duration": 0.15
        },
        {
          "note": 42,
          "velocity": 30,
          "startTime": 35.0,
          "duration": 0.15
        },
        {
          "note": 42,
          "velocity": 34,
          "startTime": 36.66,
          "duration": 0.15
        },
        {
          "note": 42,
          "velocity": 30,
          "startTime": 38.33,
          "duration": 0.15
        },
        {
          "note": 42,
          "velocity": 36,
          "startTime": 40.0,
          "duration": 0.15
        },
        {
          "note": 42,
          "velocity": 30,
          "startTime": 41.66,
          "duration": 0.15
        },
        {
          "note": 42,
          "velocity": 34,
          "startTime": 43.33,
          "duration": 0.15
        },
        {
          "note": 42,
          "velocity": 30,
          "startTime": 45.0,
          "duration": 0.15
        },
        {
          "note": 42,
          "velocity": 36,
          "startTime": 46.66,
          "duration": 0.15
        },
        {
          "note": 42,
          "velocity": 30,
          "startTime": 48.33,
          "duration": 0.15
        },
        {
          "note": 42,
          "velocity": 34,
          "startTime": 50.0,
          "duration": 0.15
        },
        {
          "note": 42,
          "velocity": 30,
          "startTime": 51.66,
          "duration": 0.15
        },
        {
          "note": 42,
          "velocity": 36,
          "startTime": 53.33,
          "duration": 0.15
        },
        {
          "note": 42,
          "velocity": 30,
          "startTime": 55.0,
          "duration": 0.15
        },
        {
          "note": 36,
          "velocity": 42,
          "startTime": 0,
          "duration": 0.25
        },
        {
          "note": 36,
          "velocity": 36,
          "startTime": 6.66,
          "duration": 0.25
        },
        {
          "note": 36,
          "velocity": 40,
          "startTime": 13.33,
          "duration": 0.25
        },
        {
          "note": 36,
          "velocity": 36,
          "startTime": 20.0,
          "duration": 0.25
        },
        {
          "note": 36,
          "velocity": 42,
          "startTime": 26.66,
          "duration": 0.25
        },
        {
          "note": 36,
          "velocity": 36,
          "startTime": 33.33,
          "duration": 0.25
        },
        {
          "note": 36,
          "velocity": 40,
          "startTime": 40.0,
          "duration": 0.25
        },
        {
          "note": 36,
          "velocity": 36,
          "startTime": 46.66,
          "duration": 0.25
        },
        {
          "note": 36,
          "velocity": 38,
          "startTime": 53.33,
          "duration": 0.25
        }
      ]
    }
  ],
  "key": "D",
  "bpm": 72,
  "scale": "pentatonic"
}