{
  "genre": "ambient",
  "mode": "relaxation",
  "tracks": [
    {
      "name": "Melody \u2014 New Age Pad",
      "program": 88,
      "role": "melody",
      "totalDuration": 56.0,
      "notes": [
        {
          "note": 64,
          "velocity": 42,
          "startTime": 0,
          "duration": 6.5
        },
        {
          "note": 67,
          "velocity": 38,
          "startTime": 7.2,
          "duration": 5.0
        },
        {
          "note": 69,
          "velocity": 44,
          "startTime": 13.0,
          "duration": 7.5
        },
        {
          "note": 67,
          "velocity": 36,
          "startTime": 21.5,
          "duration": 5.5
        },
        {
          "note": 64,
          "velocity": 40,
          "startTime": 28.0,
          "duration": 6.0
        },
        {
          "note": 71,
          "velocity": 45,
          "startTime": 35.2,
          "duration": 5.5
        },
        {
          "note": 69,
          "velocity": 38,
          "startTime": 41.8,
          "duration": 6.0
        },
        {
          "note": 72,
          "velocity": 42,
          "startTime": 48.5,
          "duration": 7.0
        }
      ]
    },
    {
      "name": "Bass Drone \u2014 Warm Pad",
      "program": 89,
      "role": "bass",
      "totalDuration": 56.0,
      "notes": [
        {
          "note": 41,
          "velocity": 45,
          "startTime": 0,
          "duration": 14.0
        },
        {
          "note": 40,
          "velocity": 42,
          "startTime": 14.5,
          "duration": 13.5
        },
        {
          "note": 41,
          "velocity": 44,
          "startTime": 28.5,
          "duration": 13.0
        },
        {
          "note": 43,
          "velocity": 40,
          "startTime": 42.0,
          "duration": 14.0
        }
      ]
    },
    {
      "name": "Chord Pads \u2014 Choir Pad",
      "program": 91,
      "role": "chords",
      "totalDuration": 56.0,
      "notes": [
        {
          "note": 53,
          "velocity": 38,
          "startTime": 0.2,
          "duration": 13.5
        },
        {
          "note": 57,
          "velocity": 36,
          "startTime": 0.4,
          "duration": 13.5
        },
        {
          "note": 62,
          "velocity": 34,
          "startTime": 0.6,
          "duration": 13.5
        },
        {
          "note": 67,
          "velocity": 32,
          "startTime": 0.8,
          "duration": 13.5
        },
        {
          "note": 52,
          "velocity": 36,
          "startTime": 14.8,
          "duration": 13.0
        },
        {
          "note": 57,
          "velocity": 35,
          "startTime": 15.0,
          "duration": 13.0
        },
        {
          "note": 60,
          "velocity": 33,
          "startTime": 15.2,
          "duration": 13.0
        },
        {
          "note": 65,
          "velocity": 31,
          "startTime": 15.4,
          "duration": 13.0
        },
        {
          "note": 53,
          "velocity": 37,
          "startTime": 28.8,
          "duration": 12.5
        },
        {
          "note": 57,
          "velocity": 35,
          "startTime": 29.0,
          "duration": 12.5
        },
        {
          "note": 62,
          "velocity": 33,
          "startTime": 29.2,
          "duration": 12.5
        },
        {
          "note": 67,
          "velocity": 31,
          "startTime": 29.4,
          "duration": 12.5
        },
        {
          "note": 55,
          "velocity": 36,
          "startTime": 42.2,
          "duration": 13.5
        },
        {
          "note": 59,
          "velocity": 34,
          "startTime": 42.4,
          "duration": 13.5
        },
        {
          "note": 62,
          "velocity": 33,
          "startTime": 42.6,
          "duration": 13.5
        },
        {
          "note": 67,
          "velocity": 31,
          "startTime": 42.8,
          "duration": 13.5
        }
      ]
    },
    {
      "name": "Sweep Texture \u2014 Sweep Pad",
      "program": 95,
      "role": "texture",
      "totalDuration": 56.0,
      "notes": [
        {
          "note": 76,
          "velocity": 28,
          "startTime": 2.0,
          "duration": 16.0
        },
        {
          "note": 74,
          "velocity": 26,
          "startTime": 19.5,
          "duration": 16.0
        },
        {
          "note": 76,
          "velocity": 27,
          "startTime": 36.0,
          "duration": 19.0
        }
      ]
    }
  ],
  "key": "F",
  "bpm": 60,
  "scale": "Lydian"
}