{
  "genre": "blues",
  "mode": "relaxation",
  "tracks": [
    {
      "name": "Blues Melody - Steel Gtr",
      "program": 25,
      "role": "melody",
      "totalDuration": 48.0,
      "notes": [
        {
          "note": 64,
          "velocity": 58,
          "startTime": 0.2,
          "duration": 0.4
        },
        {
          "note": 63,
          "velocity": 62,
          "startTime": 0.65,
          "duration": 0.35
        },
        {
          "note": 64,
          "velocity": 65,
          "startTime": 1.05,
          "duration": 1.2
        },
        {
          "note": 62,
          "velocity": 55,
          "startTime": 2.5,
          "duration": 0.5
        },
        {
          "note": 60,
          "velocity": 60,
          "startTime": 3.1,
          "duration": 1.8
        },
        {
          "note": 64,
          "velocity": 58,
          "startTime": 5.2,
          "duration": 0.4
        },
        {
          "note": 63,
          "velocity": 62,
          "startTime": 5.65,
          "duration": 0.35
        },
        {
          "note": 64,
          "velocity": 66,
          "startTime": 6.05,
          "duration": 0.9
        },
        {
          "note": 67,
          "velocity": 68,
          "startTime": 7.1,
          "duration": 2.2
        },
        {
          "note": 67,
          "velocity": 60,
          "startTime": 9.3,
          "duration": 0.4
        },
        {
          "note": 65,
          "velocity": 58,
          "startTime": 9.8,
          "duration": 0.35
        },
        {
          "note": 64,
          "velocity": 63,
          "startTime": 10.2,
          "duration": 0.8
        },
        {
          "note": 62,
          "velocity": 55,
          "startTime": 11.1,
          "duration": 0.5
        },
        {
          "note": 60,
          "velocity": 58,
          "startTime": 11.7,
          "duration": 1.5
        },
        {
          "note": 63,
          "velocity": 65,
          "startTime": 13.3,
          "duration": 0.45
        },
        {
          "note": 64,
          "velocity": 62,
          "startTime": 13.85,
          "duration": 0.9
        },
        {
          "note": 62,
          "velocity": 58,
          "startTime": 14.85,
          "duration": 0.5
        },
        {
          "note": 60,
          "velocity": 55,
          "startTime": 15.45,
          "duration": 2.5
        },
        {
          "note": 64,
          "velocity": 60,
          "startTime": 18.2,
          "duration": 0.4
        },
        {
          "note": 63,
          "velocity": 63,
          "startTime": 18.65,
          "duration": 0.35
        },
        {
          "note": 64,
          "velocity": 67,
          "startTime": 19.05,
          "duration": 1.1
        },
        {
          "note": 62,
          "velocity": 57,
          "startTime": 20.3,
          "duration": 0.5
        },
        {
          "note": 60,
          "velocity": 60,
          "startTime": 20.95,
          "duration": 1.9
        },
        {
          "note": 64,
          "velocity": 60,
          "startTime": 23.2,
          "duration": 0.4
        },
        {
          "note": 63,
          "velocity": 64,
          "startTime": 23.65,
          "duration": 0.35
        },
        {
          "note": 64,
          "velocity": 68,
          "startTime": 24.05,
          "duration": 0.9
        },
        {
          "note": 67,
          "velocity": 70,
          "startTime": 25.1,
          "duration": 2.4
        },
        {
          "note": 69,
          "velocity": 65,
          "startTime": 27.3,
          "duration": 0.45
        },
        {
          "note": 67,
          "velocity": 62,
          "startTime": 27.85,
          "duration": 0.4
        },
        {
          "note": 65,
          "velocity": 60,
          "startTime": 28.35,
          "duration": 0.8
        },
        {
          "note": 64,
          "velocity": 58,
          "startTime": 29.25,
          "duration": 0.5
        },
        {
          "note": 62,
          "velocity": 55,
          "startTime": 29.85,
          "duration": 1.6
        },
        {
          "note": 63,
          "velocity": 65,
          "startTime": 31.4,
          "duration": 0.45
        },
        {
          "note": 64,
          "velocity": 63,
          "startTime": 31.95,
          "duration": 0.85
        },
        {
          "note": 62,
          "velocity": 57,
          "startTime": 32.9,
          "duration": 0.5
        },
        {
          "note": 60,
          "velocity": 55,
          "startTime": 33.5,
          "duration": 2.8
        },
        {
          "note": 64,
          "velocity": 58,
          "startTime": 36.3,
          "duration": 0.4
        },
        {
          "note": 63,
          "velocity": 62,
          "startTime": 36.75,
          "duration": 0.35
        },
        {
          "note": 64,
          "velocity": 65,
          "startTime": 37.15,
          "duration": 1.0
        },
        {
          "note": 62,
          "velocity": 55,
          "startTime": 38.3,
          "duration": 0.5
        },
        {
          "note": 60,
          "velocity": 60,
          "startTime": 38.95,
          "duration": 1.8
        },
        {
          "note": 64,
          "velocity": 60,
          "startTime": 41.2,
          "duration": 0.4
        },
        {
          "note": 67,
          "velocity": 65,
          "startTime": 41.75,
          "duration": 0.9
        },
        {
          "note": 65,
          "velocity": 62,
          "startTime": 42.75,
          "duration": 0.5
        },
        {
          "note": 64,
          "velocity": 58,
          "startTime": 43.35,
          "duration": 0.7
        },
        {
          "note": 62,
          "velocity": 55,
          "startTime": 44.15,
          "duration": 0.4
        },
        {
          "note": 60,
          "velocity": 52,
          "startTime": 44.65,
          "duration": 3.2
        }
      ]
    },
    {
      "name": "Walking Blues Bass",
      "program": 33,
      "role": "bass",
      "totalDuration": 48.0,
      "notes": [
        {
          "note": 40,
          "velocity": 58,
          "startTime": 0,
          "duration": 0.85
        },
        {
          "note": 43,
          "velocity": 52,
          "startTime": 0.9,
          "duration": 0.85
        },
        {
          "note": 45,
          "velocity": 55,
          "startTime": 1.8,
          "duration": 0.85
        },
        {
          "note": 44,
          "velocity": 50,
          "startTime": 2.7,
          "duration": 0.85
        },
        {
          "note": 40,
          "velocity": 58,
          "startTime": 3.6,
          "duration": 0.85
        },
        {
          "note": 43,
          "velocity": 52,
          "startTime": 4.5,
          "duration": 0.85
        },
        {
          "note": 44,
          "velocity": 50,
          "startTime": 5.4,
          "duration": 0.85
        },
        {
          "note": 45,
          "velocity": 52,
          "startTime": 6.3,
          "duration": 0.85
        },
        {
          "note": 45,
          "velocity": 58,
          "startTime": 7.2,
          "duration": 0.85
        },
        {
          "note": 48,
          "velocity": 52,
          "startTime": 8.1,
          "duration": 0.85
        },
        {
          "note": 49,
          "velocity": 50,
          "startTime": 9.0,
          "duration": 0.85
        },
        {
          "note": 48,
          "velocity": 50,
          "startTime": 9.9,
          "duration": 0.85
        },
        {
          "note": 40,
          "velocity": 58,
          "startTime": 10.8,
          "duration": 0.85
        },
        {
          "note": 43,
          "velocity": 52,
          "startTime": 11.7,
          "duration": 0.85
        },
        {
          "note": 44,
          "velocity": 50,
          "startTime": 12.6,
          "duration": 0.85
        },
        {
          "note": 42,
          "velocity": 50,
          "startTime": 13.5,
          "duration": 0.85
        },
        {
          "note": 40,
          "velocity": 58,
          "startTime": 14.4,
          "duration": 0.85
        },
        {
          "note": 43,
          "velocity": 52,
          "startTime": 15.3,
          "duration": 0.85
        },
        {
          "note": 45,
          "velocity": 55,
          "startTime": 16.2,
          "duration": 0.85
        },
        {
          "note": 47,
          "velocity": 50,
          "startTime": 17.1,
          "duration": 0.85
        },
        {
          "note": 40,
          "velocity": 58,
          "startTime": 18.0,
          "duration": 0.85
        },
        {
          "note": 43,
          "velocity": 52,
          "startTime": 18.9,
          "duration": 0.85
        },
        {
          "note": 45,
          "velocity": 55,
          "startTime": 19.8,
          "duration": 0.85
        },
        {
          "note": 44,
          "velocity": 50,
          "startTime": 20.7,
          "duration": 0.85
        },
        {
          "note": 40,
          "velocity": 58,
          "startTime": 21.6,
          "duration": 0.85
        },
        {
          "note": 43,
          "velocity": 52,
          "startTime": 22.5,
          "duration": 0.85
        },
        {
          "note": 44,
          "velocity": 50,
          "startTime": 23.4,
          "duration": 0.85
        },
        {
          "note": 45,
          "velocity": 52,
          "startTime": 24.3,
          "duration": 0.85
        },
        {
          "note": 45,
          "velocity": 58,
          "startTime": 25.2,
          "duration": 0.85
        },
        {
          "note": 48,
          "velocity": 52,
          "startTime": 26.1,
          "duration": 0.85
        },
        {
          "note": 49,
          "velocity": 50,
          "startTime": 27.0,
          "duration": 0.85
        },
        {
          "note": 48,
          "velocity": 50,
          "startTime": 27.9,
          "duration": 0.85
        },
        {
          "note": 40,
          "velocity": 58,
          "startTime": 28.8,
          "duration": 0.85
        },
        {
          "note": 43,
          "velocity": 52,
          "startTime": 29.7,
          "duration": 0.85
        },
        {
          "note": 44,
          "velocity": 50,
          "startTime": 30.6,
          "duration": 0.85
        },
        {
          "note": 42,
          "velocity": 50,
          "startTime": 31.5,
          "duration": 0.85
        },
        {
          "note": 47,
          "velocity": 58,
          "startTime": 32.4,
          "duration": 0.85
        },
        {
          "note": 45,
          "velocity": 52,
          "startTime": 33.3,
          "duration": 0.85
        },
        {
          "note": 44,
          "velocity": 50,
          "startTime": 34.2,
          "duration": 0.85
        },
        {
          "note": 42,
          "velocity": 52,
          "startTime": 35.1,
          "duration": 0.85
        },
        {
          "note": 40,
          "velocity": 58,
          "startTime": 36.0,
          "duration": 0.85
        },
        {
          "note": 43,
          "velocity": 52,
          "startTime": 36.9,
          "duration": 0.85
        },
        {
          "note": 45,
          "velocity": 55,
          "startTime": 37.8,
          "duration": 0.85
        },
        {
          "note": 44,
          "velocity": 50,
          "startTime": 38.7,
          "duration": 0.85
        },
        {
          "note": 40,
          "velocity": 58,
          "startTime": 39.6,
          "duration": 0.85
        },
        {
          "note": 43,
          "velocity": 52,
          "startTime": 40.5,
          "duration": 0.85
        },
        {
          "note": 44,
          "velocity": 50,
          "startTime": 41.4,
          "duration": 0.85
        },
        {
          "note": 45,
          "velocity": 52,
          "startTime": 42.3,
          "duration": 0.85
        },
        {
          "note": 40,
          "velocity": 62,
          "startTime": 43.2,
          "duration": 0.85
        },
        {
          "note": 43,
          "velocity": 52,
          "startTime": 44.1,
          "duration": 0.85
        },
        {
          "note": 40,
          "velocity": 55,
          "startTime": 45.0,
          "duration": 2.8
        }
      ]
    },
    {
      "name": "Blues Organ Chords",
      "program": 16,
      "role": "chords",
      "totalDuration": 48.0,
      "notes": [
        {
          "note": 52,
          "velocity": 48,
          "startTime": 0.05,
          "duration": 3.5
        },
        {
          "note": 56,
          "velocity": 45,
          "startTime": 0.05,
          "duration": 3.5
        },
        {
          "note": 59,
          "velocity": 43,
          "startTime": 0.05,
          "duration": 3.5
        },
        {
          "note": 62,
          "velocity": 40,
          "startTime": 0.05,
          "duration": 3.5
        },
        {
          "note": 52,
          "velocity": 45,
          "startTime": 3.65,
          "duration": 3.4
        },
        {
          "note": 56,
          "velocity": 42,
          "startTime": 3.65,
          "duration": 3.4
        },
        {
          "note": 59,
          "velocity": 40,
          "startTime": 3.65,
          "duration": 3.4
        },
        {
          "note": 62,
          "velocity": 38,
          "startTime": 3.65,
          "duration": 3.4
        },
        {
          "note": 57,
          "velocity": 48,
          "startTime": 7.15,
          "duration": 3.5
        },
        {
          "note": 61,
          "velocity": 45,
          "startTime": 7.15,
          "duration": 3.5
        },
        {
          "note": 64,
          "velocity": 43,
          "startTime": 7.15,
          "duration": 3.5
        },
        {
          "note": 67,
          "velocity": 40,
          "startTime": 7.15,
          "duration": 3.5
        },
        {
          "note": 52,
          "velocity": 45,
          "startTime": 10.75,
          "duration": 3.5
        },
        {
          "note": 56,
          "velocity": 42,
          "startTime": 10.75,
          "duration": 3.5
        },
        {
          "note": 59,
          "velocity": 40,
          "startTime": 10.75,
          "duration": 3.5
        },
        {
          "note": 62,
          "velocity": 38,
          "startTime": 10.75,
          "duration": 3.5
        },
        {
          "note": 47,
          "velocity": 48,
          "startTime": 14.3,
          "duration": 3.5
        },
        {
          "note": 52,
          "velocity": 45,
          "startTime": 14.3,
          "duration": 3.5
        },
        {
          "note": 56,
          "velocity": 43,
          "startTime": 14.3,
          "duration": 3.5
        },
        {
          "note": 59,
          "velocity": 40,
          "startTime": 14.3,
          "duration": 3.5
        },
        {
          "note": 52,
          "velocity": 48,
          "startTime": 17.9,
          "duration": 3.5
        },
        {
          "note": 56,
          "velocity": 45,
          "startTime": 17.9,
          "duration": 3.5
        },
        {
          "note": 59,
          "velocity": 43,
          "startTime": 17.9,
          "duration": 3.5
        },
        {
          "note": 62,
          "velocity": 40,
          "startTime": 17.9,
          "duration": 3.5
        },
        {
          "note": 52,
          "velocity": 45,
          "startTime": 21.45,
          "duration": 3.4
        },
        {
          "note": 56,
          "velocity": 42,
          "startTime": 21.45,
          "duration": 3.4
        },
        {
          "note": 59,
          "velocity": 40,
          "startTime": 21.45,
          "duration": 3.4
        },
        {
          "note": 62,
          "velocity": 38,
          "startTime": 21.45,
          "duration": 3.4
        },
        {
          "note": 57,
          "velocity": 48,
          "startTime": 24.9,
          "duration": 3.5
        },
        {
          "note": 61,
          "velocity": 45,
          "startTime": 24.9,
          "duration": 3.5
        },
        {
          "note": 64,
          "velocity": 43,
          "startTime": 24.9,
          "duration": 3.5
        },
        {
          "note": 67,
          "velocity": 40,
          "startTime": 24.9,
          "duration": 3.5
        },
        {
          "note": 52,
          "velocity": 45,
          "startTime": 28.45,
          "duration": 3.5
        },
        {
          "note": 56,
          "velocity": 42,
          "startTime": 28.45,
          "duration": 3.5
        },
        {
          "note": 59,
          "velocity": 40,
          "startTime": 28.45,
          "duration": 3.5
        },
        {
          "note": 62,
          "velocity": 38,
          "startTime": 28.45,
          "duration": 3.5
        },
        {
          "note": 47,
          "velocity": 48,
          "startTime": 32.0,
          "duration": 3.5
        },
        {
          "note": 52,
          "velocity": 45,
          "startTime": 32.0,
          "duration": 3.5
        },
        {
          "note": 56,
          "velocity": 43,
          "startTime": 32.0,
          "duration": 3.5
        },
        {
          "note": 59,
          "velocity": 40,
          "startTime": 32.0,
          "duration": 3.5
        },
        {
          "note": 47,
          "velocity": 48,
          "startTime": 35.55,
          "duration": 3.5
        },
        {
          "note": 52,
          "velocity": 45,
          "startTime": 35.55,
          "duration": 3.5
        },
        {
          "note": 56,
          "velocity": 43,
          "startTime": 35.55,
          "duration": 3.5
        },
        {
          "note": 59,
          "velocity": 40,
          "startTime": 35.55,
          "duration": 3.5
        },
        {
          "note": 52,
          "velocity": 48,
          "startTime": 39.1,
          "duration": 3.5
        },
        {
          "note": 56,
          "velocity": 45,
          "startTime": 39.1,
          "duration": 3.5
        },
        {
          "note": 59,
          "velocity": 43,
          "startTime": 39.1,
          "duration": 3.5
        },
        {
          "note": 62,
          "velocity": 40,
          "startTime": 39.1,
          "duration": 3.5
        },
        {
          "note": 52,
          "velocity": 48,
          "startTime": 42.7,
          "duration": 5.2
        },
        {
          "note": 56,
          "velocity": 45,
          "startTime": 42.7,
          "duration": 5.2
        },
        {
          "note": 59,
          "velocity": 43,
          "startTime": 42.7,
          "duration": 5.2
        },
        {
          "note": 62,
          "velocity": 40,
          "startTime": 42.7,
          "duration": 5.2
        }
      ]
    },
    {
      "name": "Ambient Piano Texture",
      "program": 0,
      "role": "texture",
      "totalDuration": 48.0,
      "notes": [
        {
          "note": 40,
          "velocity": 35,
          "startTime": 0.1,
          "duration": 4.5
        },
        {
          "note": 52,
          "velocity": 32,
          "startTime": 0.15,
          "duration": 4.5
        },
        {
          "note": 59,
          "velocity": 30,
          "startTime": 0.2,
          "duration": 4.5
        },
        {
          "note": 64,
          "velocity": 28,
          "startTime": 2.5,
          "duration": 5.0
        },
        {
          "note": 40,
          "velocity": 35,
          "startTime": 7.2,
          "duration": 4.5
        },
        {
          "note": 57,
          "velocity": 32,
          "startTime": 7.25,
          "duration": 4.5
        },
        {
          "note": 64,
          "velocity": 30,
          "startTime": 7.3,
          "duration": 4.5
        },
        {
          "note": 67,
          "velocity": 27,
          "startTime": 9.5,
          "duration": 4.8
        },
        {
          "note": 40,
          "velocity": 35,
          "startTime": 14.3,
          "duration": 4.5
        },
        {
          "note": 47,
          "velocity": 32,
          "startTime": 14.35,
          "duration": 4.5
        },
        {
          "note": 56,
          "velocity": 30,
          "startTime": 14.4,
          "duration": 4.5
        },
        {
          "note": 62,
          "velocity": 28,
          "startTime": 16.5,
          "duration": 4.5
        },
        {
          "note": 40,
          "velocity": 35,
          "startTime": 18.0,
          "duration": 4.5
        },
        {
          "note": 52,
          "velocity": 32,
          "startTime": 18.05,
          "duration": 4.5
        },
        {
          "note": 59,
          "velocity": 30,
          "startTime": 18.1,
          "duration": 4.5
        },
        {
          "note": 64,
          "velocity": 28,
          "startTime": 20.4,
          "duration": 5.0
        },
        {
          "note": 40,
          "velocity": 35,
          "startTime": 25.0,
          "duration": 4.5
        },
        {
          "note": 57,
          "velocity": 32,
          "startTime": 25.05,
          "duration": 4.5
        },
        {
          "note": 64,
          "velocity": 30,
          "startTime": 25.1,
          "duration": 4.5
        },
        {
          "note": 67,
          "velocity": 27,
          "startTime": 27.2,
          "duration": 4.8
        },
        {
          "note": 40,
          "velocity": 35,
          "startTime": 32.0,
          "duration": 4.5
        },
        {
          "note": 47,
          "velocity": 32,
          "startTime": 32.05,
          "duration": 4.5
        },
        {
          "note": 56,
          "velocity": 30,
          "startTime": 32.1,
          "duration": 4.5
        },
        {
          "note": 62,
          "velocity": 28,
          "startTime": 34.3,
          "duration": 4.5
        },
        {
          "note": 40,
          "velocity": 35,
          "startTime": 39.2,
          "duration": 4.5
        },
        {
          "note": 52,
          "velocity": 32,
          "startTime": 39.25,
          "duration": 4.5
        },
        {
          "note": 59,
          "velocity": 30,
          "startTime": 39.3,
          "duration": 4.5
        },
        {
          "note": 40,
          "velocity": 38,
          "startTime": 43.0,
          "duration": 4.8
        },
        {
          "note": 52,
          "velocity": 34,
          "startTime": 43.1,
          "duration": 4.8
        },
        {
          "note": 59,
          "velocity": 32,
          "startTime": 43.2,
          "duration": 4.8
        },
        {
          "note": 64,
          "velocity": 30,
          "startTime": 43.3,
          "duration": 4.6
        }
      ]
    }
  ],
  "key": "E",
  "bpm": 62,
  "scale": "Blues Pentatonic"
}