{
  "genre": "classical",
  "mode": "sleep",
  "tracks": [
    {
      "name": "Flute Melody",
      "program": 73,
      "role": "melody",
      "totalDuration": 60,
      "notes": [
        {
          "note": 65,
          "velocity": 42,
          "startTime": 0,
          "duration": 3.2
        },
        {
          "note": 64,
          "velocity": 38,
          "startTime": 3.3,
          "duration": 2.8
        },
        {
          "note": 62,
          "velocity": 40,
          "startTime": 6.2,
          "duration": 4.5
        },
        {
          "note": 60,
          "velocity": 35,
          "startTime": 11.0,
          "duration": 5.0
        },
        {
          "note": 65,
          "velocity": 44,
          "startTime": 16.2,
          "duration": 3.0
        },
        {
          "note": 67,
          "velocity": 46,
          "startTime": 19.4,
          "duration": 2.6
        },
        {
          "note": 65,
          "velocity": 42,
          "startTime": 22.1,
          "duration": 3.8
        },
        {
          "note": 64,
          "velocity": 38,
          "startTime": 26.1,
          "duration": 5.5
        },
        {
          "note": 65,
          "velocity": 40,
          "startTime": 32.0,
          "duration": 3.2
        },
        {
          "note": 64,
          "velocity": 36,
          "startTime": 35.3,
          "duration": 2.8
        },
        {
          "note": 62,
          "velocity": 38,
          "startTime": 38.2,
          "duration": 4.5
        },
        {
          "note": 60,
          "velocity": 33,
          "startTime": 43.0,
          "duration": 5.2
        },
        {
          "note": 62,
          "velocity": 36,
          "startTime": 48.5,
          "duration": 3.0
        },
        {
          "note": 60,
          "velocity": 34,
          "startTime": 51.7,
          "duration": 4.0
        },
        {
          "note": 57,
          "velocity": 30,
          "startTime": 56.0,
          "duration": 4.0
        }
      ]
    },
    {
      "name": "Cello Bass Line",
      "program": 42,
      "role": "bass",
      "totalDuration": 60,
      "notes": [
        {
          "note": 48,
          "velocity": 45,
          "startTime": 0,
          "duration": 7.8
        },
        {
          "note": 45,
          "velocity": 42,
          "startTime": 8.1,
          "duration": 7.6
        },
        {
          "note": 43,
          "velocity": 44,
          "startTime": 16.2,
          "duration": 7.8
        },
        {
          "note": 48,
          "velocity": 43,
          "startTime": 24.2,
          "duration": 7.6
        },
        {
          "note": 48,
          "velocity": 42,
          "startTime": 32.0,
          "duration": 7.8
        },
        {
          "note": 45,
          "velocity": 40,
          "startTime": 40.0,
          "duration": 7.6
        },
        {
          "note": 43,
          "velocity": 38,
          "startTime": 48.0,
          "duration": 6.0
        },
        {
          "note": 48,
          "velocity": 36,
          "startTime": 54.2,
          "duration": 5.8
        }
      ]
    },
    {
      "name": "String Pads",
      "program": 48,
      "role": "chords",
      "totalDuration": 60,
      "notes": [
        {
          "note": 60,
          "velocity": 38,
          "startTime": 0.3,
          "duration": 7.5
        },
        {
          "note": 64,
          "velocity": 35,
          "startTime": 0.3,
          "duration": 7.5
        },
        {
          "note": 67,
          "velocity": 33,
          "startTime": 0.3,
          "duration": 7.5
        },
        {
          "note": 57,
          "velocity": 36,
          "startTime": 8.2,
          "duration": 7.5
        },
        {
          "note": 60,
          "velocity": 33,
          "startTime": 8.2,
          "duration": 7.5
        },
        {
          "note": 64,
          "velocity": 31,
          "startTime": 8.2,
          "duration": 7.5
        },
        {
          "note": 55,
          "velocity": 37,
          "startTime": 16.3,
          "duration": 7.5
        },
        {
          "note": 59,
          "velocity": 34,
          "startTime": 16.3,
          "duration": 7.5
        },
        {
          "note": 62,
          "velocity": 32,
          "startTime": 16.3,
          "duration": 7.5
        },
        {
          "note": 60,
          "velocity": 38,
          "startTime": 24.3,
          "duration": 7.5
        },
        {
          "note": 64,
          "velocity": 35,
          "startTime": 24.3,
          "duration": 7.5
        },
        {
          "note": 67,
          "velocity": 33,
          "startTime": 24.3,
          "duration": 7.5
        },
        {
          "note": 60,
          "velocity": 36,
          "startTime": 32.2,
          "duration": 7.5
        },
        {
          "note": 64,
          "velocity": 33,
          "startTime": 32.2,
          "duration": 7.5
        },
        {
          "note": 67,
          "velocity": 31,
          "startTime": 32.2,
          "duration": 7.5
        },
        {
          "note": 57,
          "velocity": 34,
          "startTime": 40.2,
          "duration": 7.5
        },
        {
          "note": 60,
          "velocity": 31,
          "startTime": 40.2,
          "duration": 7.5
        },
        {
          "note": 64,
          "velocity": 29,
          "startTime": 40.2,
          "duration": 7.5
        },
        {
          "note": 55,
          "velocity": 33,
          "startTime": 48.2,
          "duration": 5.8
        },
        {
          "note": 59,
          "velocity": 30,
          "startTime": 48.2,
          "duration": 5.8
        },
        {
          "note": 62,
          "velocity": 28,
          "startTime": 48.2,
          "duration": 5.8
        },
        {
          "note": 60,
          "velocity": 32,
          "startTime": 54.3,
          "duration": 5.7
        },
        {
          "note": 64,
          "velocity": 29,
          "startTime": 54.3,
          "duration": 5.7
        },
        {
          "note": 67,
          "velocity": 27,
          "startTime": 54.3,
          "duration": 5.7
        }
      ]
    },
    {
      "name": "Violin Texture",
      "program": 40,
      "role": "texture",
      "totalDuration": 60,
      "notes": [
        {
          "note": 72,
          "velocity": 30,
          "startTime": 2.5,
          "duration": 8.0
        },
        {
          "note": 71,
          "velocity": 28,
          "startTime": 10.7,
          "duration": 7.8
        },
        {
          "note": 69,
          "velocity": 29,
          "startTime": 18.5,
          "duration": 8.2
        },
        {
          "note": 72,
          "velocity": 31,
          "startTime": 26.8,
          "duration": 8.0
        },
        {
          "note": 72,
          "velocity": 29,
          "startTime": 34.5,
          "duration": 8.0
        },
        {
          "note": 71,
          "velocity": 27,
          "startTime": 42.7,
          "duration": 7.8
        },
        {
          "note": 69,
          "velocity": 26,
          "startTime": 50.6,
          "duration": 5.5
        },
        {
          "note": 67,
          "velocity": 24,
          "startTime": 56.3,
          "duration": 3.7
        }
      ]
    }
  ],
  "key": "C",
  "bpm": 48,
  "scale": "major"
}