{
  "genre": "classical",
  "mode": "relaxation",
  "tracks": [
    {
      "name": "Flute Melody",
      "program": 73,
      "role": "melody",
      "totalDuration": 48,
      "notes": [
        {
          "note": 72,
          "velocity": 58,
          "startTime": 0,
          "duration": 1.8
        },
        {
          "note": 74,
          "velocity": 62,
          "startTime": 1.85,
          "duration": 1.2
        },
        {
          "note": 76,
          "velocity": 65,
          "startTime": 3.1,
          "duration": 2.4
        },
        {
          "note": 74,
          "velocity": 60,
          "startTime": 5.55,
          "duration": 1.6
        },
        {
          "note": 72,
          "velocity": 58,
          "startTime": 7.2,
          "duration": 1.4
        },
        {
          "note": 69,
          "velocity": 55,
          "startTime": 8.65,
          "duration": 3.2
        },
        {
          "note": 71,
          "velocity": 60,
          "startTime": 12.0,
          "duration": 1.8
        },
        {
          "note": 72,
          "velocity": 63,
          "startTime": 13.85,
          "duration": 1.2
        },
        {
          "note": 74,
          "velocity": 66,
          "startTime": 15.1,
          "duration": 2.6
        },
        {
          "note": 72,
          "velocity": 61,
          "startTime": 17.75,
          "duration": 1.4
        },
        {
          "note": 71,
          "velocity": 57,
          "startTime": 19.2,
          "duration": 1.3
        },
        {
          "note": 69,
          "velocity": 52,
          "startTime": 20.55,
          "duration": 3.3
        },
        {
          "note": 72,
          "velocity": 60,
          "startTime": 24.0,
          "duration": 1.7
        },
        {
          "note": 74,
          "velocity": 64,
          "startTime": 25.75,
          "duration": 1.2
        },
        {
          "note": 77,
          "velocity": 68,
          "startTime": 27.0,
          "duration": 2.0
        },
        {
          "note": 76,
          "velocity": 65,
          "startTime": 29.05,
          "duration": 1.5
        },
        {
          "note": 74,
          "velocity": 62,
          "startTime": 30.6,
          "duration": 1.3
        },
        {
          "note": 72,
          "velocity": 58,
          "startTime": 31.95,
          "duration": 3.8
        },
        {
          "note": 71,
          "velocity": 57,
          "startTime": 36.0,
          "duration": 1.8
        },
        {
          "note": 72,
          "velocity": 60,
          "startTime": 37.85,
          "duration": 1.3
        },
        {
          "note": 74,
          "velocity": 63,
          "startTime": 39.2,
          "duration": 2.2
        },
        {
          "note": 72,
          "velocity": 58,
          "startTime": 41.45,
          "duration": 1.5
        },
        {
          "note": 69,
          "velocity": 54,
          "startTime": 43.0,
          "duration": 1.4
        },
        {
          "note": 67,
          "velocity": 48,
          "startTime": 44.45,
          "duration": 3.4
        }
      ]
    },
    {
      "name": "Cello Bass Line",
      "program": 42,
      "role": "bass",
      "totalDuration": 48,
      "notes": [
        {
          "note": 48,
          "velocity": 52,
          "startTime": 0,
          "duration": 5.8
        },
        {
          "note": 45,
          "velocity": 50,
          "startTime": 6.0,
          "duration": 5.8
        },
        {
          "note": 47,
          "velocity": 50,
          "startTime": 12.0,
          "duration": 5.8
        },
        {
          "note": 45,
          "velocity": 48,
          "startTime": 18.0,
          "duration": 5.8
        },
        {
          "note": 48,
          "velocity": 52,
          "startTime": 24.0,
          "duration": 2.8
        },
        {
          "note": 50,
          "velocity": 50,
          "startTime": 26.9,
          "duration": 2.8
        },
        {
          "note": 52,
          "velocity": 52,
          "startTime": 29.85,
          "duration": 5.9
        },
        {
          "note": 47,
          "velocity": 50,
          "startTime": 36.0,
          "duration": 5.8
        },
        {
          "note": 50,
          "velocity": 50,
          "startTime": 42.0,
          "duration": 2.8
        },
        {
          "note": 48,
          "velocity": 46,
          "startTime": 44.85,
          "duration": 3.0
        }
      ]
    },
    {
      "name": "String Pads",
      "program": 48,
      "role": "chords",
      "totalDuration": 48,
      "notes": [
        {
          "note": 60,
          "velocity": 45,
          "startTime": 0,
          "duration": 5.9
        },
        {
          "note": 64,
          "velocity": 43,
          "startTime": 0,
          "duration": 5.9
        },
        {
          "note": 67,
          "velocity": 42,
          "startTime": 0,
          "duration": 5.9
        },
        {
          "note": 72,
          "velocity": 40,
          "startTime": 0.05,
          "duration": 5.8
        },
        {
          "note": 57,
          "velocity": 44,
          "startTime": 6.0,
          "duration": 5.9
        },
        {
          "note": 60,
          "velocity": 42,
          "startTime": 6.0,
          "duration": 5.9
        },
        {
          "note": 64,
          "velocity": 41,
          "startTime": 6.0,
          "duration": 5.9
        },
        {
          "note": 69,
          "velocity": 40,
          "startTime": 6.05,
          "duration": 5.8
        },
        {
          "note": 59,
          "velocity": 44,
          "startTime": 12.0,
          "duration": 5.9
        },
        {
          "note": 62,
          "velocity": 42,
          "startTime": 12.0,
          "duration": 5.9
        },
        {
          "note": 65,
          "velocity": 41,
          "startTime": 12.0,
          "duration": 5.9
        },
        {
          "note": 71,
          "velocity": 40,
          "startTime": 12.05,
          "duration": 5.8
        },
        {
          "note": 57,
          "velocity": 43,
          "startTime": 18.0,
          "duration": 5.9
        },
        {
          "note": 60,
          "velocity": 41,
          "startTime": 18.0,
          "duration": 5.9
        },
        {
          "note": 64,
          "velocity": 40,
          "startTime": 18.0,
          "duration": 5.9
        },
        {
          "note": 69,
          "velocity": 39,
          "startTime": 18.05,
          "duration": 5.8
        },
        {
          "note": 60,
          "velocity": 46,
          "startTime": 24.0,
          "duration": 2.8
        },
        {
          "note": 64,
          "velocity": 44,
          "startTime": 24.0,
          "duration": 2.8
        },
        {
          "note": 67,
          "velocity": 43,
          "startTime": 24.0,
          "duration": 2.8
        },
        {
          "note": 62,
          "velocity": 45,
          "startTime": 26.9,
          "duration": 2.8
        },
        {
          "note": 65,
          "velocity": 43,
          "startTime": 26.9,
          "duration": 2.8
        },
        {
          "note": 69,
          "velocity": 42,
          "startTime": 26.9,
          "duration": 2.8
        },
        {
          "note": 64,
          "velocity": 46,
          "startTime": 29.85,
          "duration": 5.9
        },
        {
          "note": 67,
          "velocity": 44,
          "startTime": 29.85,
          "duration": 5.9
        },
        {
          "note": 71,
          "velocity": 43,
          "startTime": 29.85,
          "duration": 5.9
        },
        {
          "note": 59,
          "velocity": 44,
          "startTime": 36.0,
          "duration": 5.9
        },
        {
          "note": 62,
          "velocity": 42,
          "startTime": 36.0,
          "duration": 5.9
        },
        {
          "note": 65,
          "velocity": 41,
          "startTime": 36.0,
          "duration": 5.9
        },
        {
          "note": 71,
          "velocity": 39,
          "startTime": 36.05,
          "duration": 5.8
        },
        {
          "note": 62,
          "velocity": 44,
          "startTime": 42.0,
          "duration": 2.8
        },
        {
          "note": 65,
          "velocity": 42,
          "startTime": 42.0,
          "duration": 2.8
        },
        {
          "note": 69,
          "velocity": 41,
          "startTime": 42.0,
          "duration": 2.8
        },
        {
          "note": 60,
          "velocity": 42,
          "startTime": 44.85,
          "duration": 3.0
        },
        {
          "note": 64,
          "velocity": 40,
          "startTime": 44.85,
          "duration": 3.0
        },
        {
          "note": 67,
          "velocity": 38,
          "startTime": 44.85,
          "duration": 3.0
        }
      ]
    },
    {
      "name": "Piano Texture",
      "program": 0,
      "role": "texture",
      "totalDuration": 48,
      "notes": [
        {
          "note": 67,
          "velocity": 38,
          "startTime": 0.5,
          "duration": 3.5
        },
        {
          "note": 72,
          "velocity": 36,
          "startTime": 2.0,
          "duration": 3.5
        },
        {
          "note": 76,
          "velocity": 35,
          "startTime": 3.5,
          "duration": 4.0
        },
        {
          "note": 64,
          "velocity": 37,
          "startTime": 6.5,
          "duration": 3.5
        },
        {
          "note": 69,
          "velocity": 35,
          "startTime": 8.0,
          "duration": 3.5
        },
        {
          "note": 72,
          "velocity": 34,
          "startTime": 9.5,
          "duration": 4.0
        },
        {
          "note": 65,
          "velocity": 37,
          "startTime": 12.5,
          "duration": 3.5
        },
        {
          "note": 71,
          "velocity": 35,
          "startTime": 14.0,
          "duration": 3.5
        },
        {
          "note": 74,
          "velocity": 34,
          "startTime": 15.5,
          "duration": 4.0
        },
        {
          "note": 64,
          "velocity": 36,
          "startTime": 18.5,
          "duration": 3.5
        },
        {
          "note": 69,
          "velocity": 34,
          "startTime": 20.0,
          "duration": 3.5
        },
        {
          "note": 72,
          "velocity": 33,
          "startTime": 21.5,
          "duration": 4.0
        },
        {
          "note": 67,
          "velocity": 39,
          "startTime": 24.5,
          "duration": 2.2
        },
        {
          "note": 72,
          "velocity": 37,
          "startTime": 26.9,
          "duration": 2.2
        },
        {
          "note": 71,
          "velocity": 38,
          "startTime": 29.85,
          "duration": 3.8
        },
        {
          "note": 74,
          "velocity": 36,
          "startTime": 31.5,
          "duration": 3.8
        },
        {
          "note": 65,
          "velocity": 36,
          "startTime": 36.5,
          "duration": 3.5
        },
        {
          "note": 71,
          "velocity": 34,
          "startTime": 38.0,
          "duration": 3.5
        },
        {
          "note": 74,
          "velocity": 33,
          "startTime": 39.5,
          "duration": 3.5
        },
        {
          "note": 65,
          "velocity": 35,
          "startTime": 42.5,
          "duration": 2.2
        },
        {
          "note": 67,
          "velocity": 33,
          "startTime": 44.85,
          "duration": 3.0
        },
        {
          "note": 64,
          "velocity": 31,
          "startTime": 46.0,
          "duration": 2.0
        }
      ]
    }
  ],
  "key": "C",
  "bpm": 60,
  "scale": "major"
}