{
  "genre": "classical",
  "mode": "focus",
  "tracks": [
    {
      "name": "Flute Melody",
      "program": 73,
      "role": "melody",
      "totalDuration": 48,
      "notes": [
        {
          "note": 79,
          "velocity": 68,
          "startTime": 0,
          "duration": 1.65
        },
        {
          "note": 81,
          "velocity": 72,
          "startTime": 1.66,
          "duration": 0.82
        },
        {
          "note": 83,
          "velocity": 70,
          "startTime": 2.5,
          "duration": 1.65
        },
        {
          "note": 81,
          "velocity": 65,
          "startTime": 4.18,
          "duration": 0.82
        },
        {
          "note": 79,
          "velocity": 68,
          "startTime": 5.02,
          "duration": 0.82
        },
        {
          "note": 78,
          "velocity": 64,
          "startTime": 5.86,
          "duration": 1.65
        },
        {
          "note": 76,
          "velocity": 62,
          "startTime": 7.53,
          "duration": 3.3
        },
        {
          "note": 81,
          "velocity": 70,
          "startTime": 10.85,
          "duration": 1.65
        },
        {
          "note": 83,
          "velocity": 74,
          "startTime": 12.52,
          "duration": 0.82
        },
        {
          "note": 84,
          "velocity": 76,
          "startTime": 13.36,
          "duration": 1.65
        },
        {
          "note": 83,
          "velocity": 72,
          "startTime": 15.03,
          "duration": 0.82
        },
        {
          "note": 81,
          "velocity": 68,
          "startTime": 15.87,
          "duration": 0.82
        },
        {
          "note": 79,
          "velocity": 65,
          "startTime": 16.71,
          "duration": 1.65
        },
        {
          "note": 76,
          "velocity": 60,
          "startTime": 18.38,
          "duration": 3.3
        },
        {
          "note": 79,
          "velocity": 68,
          "startTime": 21.7,
          "duration": 1.65
        },
        {
          "note": 81,
          "velocity": 72,
          "startTime": 23.37,
          "duration": 0.82
        },
        {
          "note": 83,
          "velocity": 70,
          "startTime": 24.21,
          "duration": 1.65
        },
        {
          "note": 81,
          "velocity": 65,
          "startTime": 25.88,
          "duration": 0.82
        },
        {
          "note": 79,
          "velocity": 68,
          "startTime": 26.72,
          "duration": 0.82
        },
        {
          "note": 78,
          "velocity": 64,
          "startTime": 27.56,
          "duration": 1.65
        },
        {
          "note": 76,
          "velocity": 62,
          "startTime": 29.23,
          "duration": 3.3
        },
        {
          "note": 83,
          "velocity": 72,
          "startTime": 32.55,
          "duration": 1.65
        },
        {
          "note": 81,
          "velocity": 70,
          "startTime": 34.22,
          "duration": 0.82
        },
        {
          "note": 79,
          "velocity": 68,
          "startTime": 35.06,
          "duration": 1.65
        },
        {
          "note": 81,
          "velocity": 65,
          "startTime": 36.73,
          "duration": 0.82
        },
        {
          "note": 83,
          "velocity": 67,
          "startTime": 37.57,
          "duration": 0.82
        },
        {
          "note": 84,
          "velocity": 70,
          "startTime": 38.41,
          "duration": 1.65
        },
        {
          "note": 83,
          "velocity": 65,
          "startTime": 40.08,
          "duration": 0.82
        },
        {
          "note": 81,
          "velocity": 62,
          "startTime": 40.92,
          "duration": 0.82
        },
        {
          "note": 79,
          "velocity": 72,
          "startTime": 41.76,
          "duration": 3.3
        },
        {
          "note": 76,
          "velocity": 55,
          "startTime": 45.1,
          "duration": 2.8
        }
      ]
    },
    {
      "name": "Strings Chords",
      "program": 48,
      "role": "chords",
      "totalDuration": 48,
      "notes": [
        {
          "note": 67,
          "velocity": 55,
          "startTime": 0,
          "duration": 10.5
        },
        {
          "note": 71,
          "velocity": 52,
          "startTime": 0,
          "duration": 10.5
        },
        {
          "note": 74,
          "velocity": 50,
          "startTime": 0,
          "duration": 10.5
        },
        {
          "note": 65,
          "velocity": 53,
          "startTime": 10.85,
          "duration": 5.2
        },
        {
          "note": 69,
          "velocity": 50,
          "startTime": 10.85,
          "duration": 5.2
        },
        {
          "note": 72,
          "velocity": 48,
          "startTime": 10.85,
          "duration": 5.2
        },
        {
          "note": 66,
          "velocity": 54,
          "startTime": 16.07,
          "duration": 5.3
        },
        {
          "note": 69,
          "velocity": 50,
          "startTime": 16.07,
          "duration": 5.3
        },
        {
          "note": 74,
          "velocity": 48,
          "startTime": 16.07,
          "duration": 5.3
        },
        {
          "note": 67,
          "velocity": 55,
          "startTime": 21.7,
          "duration": 10.5
        },
        {
          "note": 71,
          "velocity": 52,
          "startTime": 21.7,
          "duration": 10.5
        },
        {
          "note": 74,
          "velocity": 50,
          "startTime": 21.7,
          "duration": 10.5
        },
        {
          "note": 65,
          "velocity": 53,
          "startTime": 32.55,
          "duration": 5.2
        },
        {
          "note": 69,
          "velocity": 50,
          "startTime": 32.55,
          "duration": 5.2
        },
        {
          "note": 72,
          "velocity": 48,
          "startTime": 32.55,
          "duration": 5.2
        },
        {
          "note": 66,
          "velocity": 54,
          "startTime": 37.77,
          "duration": 3.1
        },
        {
          "note": 69,
          "velocity": 50,
          "startTime": 37.77,
          "duration": 3.1
        },
        {
          "note": 74,
          "velocity": 48,
          "startTime": 37.77,
          "duration": 3.1
        },
        {
          "note": 67,
          "velocity": 57,
          "startTime": 40.9,
          "duration": 6.9
        },
        {
          "note": 71,
          "velocity": 54,
          "startTime": 40.9,
          "duration": 6.9
        },
        {
          "note": 74,
          "velocity": 52,
          "startTime": 40.9,
          "duration": 6.9
        },
        {
          "note": 79,
          "velocity": 50,
          "startTime": 40.9,
          "duration": 6.9
        }
      ]
    },
    {
      "name": "Cello Bass",
      "program": 42,
      "role": "bass",
      "totalDuration": 48,
      "notes": [
        {
          "note": 43,
          "velocity": 62,
          "startTime": 0,
          "duration": 3.28
        },
        {
          "note": 43,
          "velocity": 58,
          "startTime": 3.32,
          "duration": 3.28
        },
        {
          "note": 43,
          "velocity": 60,
          "startTime": 6.62,
          "duration": 3.28
        },
        {
          "note": 41,
          "velocity": 60,
          "startTime": 10.85,
          "duration": 3.28
        },
        {
          "note": 41,
          "velocity": 56,
          "startTime": 14.15,
          "duration": 1.62
        },
        {
          "note": 42,
          "velocity": 62,
          "startTime": 16.07,
          "duration": 3.28
        },
        {
          "note": 42,
          "velocity": 58,
          "startTime": 19.37,
          "duration": 2.0
        },
        {
          "note": 43,
          "velocity": 62,
          "startTime": 21.7,
          "duration": 3.28
        },
        {
          "note": 43,
          "velocity": 58,
          "startTime": 25.0,
          "duration": 3.28
        },
        {
          "note": 43,
          "velocity": 60,
          "startTime": 28.3,
          "duration": 3.28
        },
        {
          "note": 41,
          "velocity": 60,
          "startTime": 32.55,
          "duration": 3.28
        },
        {
          "note": 41,
          "velocity": 56,
          "startTime": 35.85,
          "duration": 1.62
        },
        {
          "note": 42,
          "velocity": 62,
          "startTime": 37.77,
          "duration": 3.1
        },
        {
          "note": 43,
          "velocity": 65,
          "startTime": 40.9,
          "duration": 3.5
        },
        {
          "note": 43,
          "velocity": 60,
          "startTime": 44.42,
          "duration": 3.5
        }
      ]
    },
    {
      "name": "Timpani Pulse",
      "program": 47,
      "role": "drums",
      "totalDuration": 48,
      "notes": [
        {
          "note": 43,
          "velocity": 52,
          "startTime": 0,
          "duration": 0.3
        },
        {
          "note": 43,
          "velocity": 44,
          "startTime": 3.34,
          "duration": 0.3
        },
        {
          "note": 43,
          "velocity": 48,
          "startTime": 6.68,
          "duration": 0.3
        },
        {
          "note": 43,
          "velocity": 44,
          "startTime": 10.02,
          "duration": 0.3
        },
        {
          "note": 41,
          "velocity": 50,
          "startTime": 10.85,
          "duration": 0.3
        },
        {
          "note": 41,
          "velocity": 44,
          "startTime": 14.17,
          "duration": 0.3
        },
        {
          "note": 42,
          "velocity": 50,
          "startTime": 16.07,
          "duration": 0.3
        },
        {
          "note": 42,
          "velocity": 44,
          "startTime": 19.39,
          "duration": 0.3
        },
        {
          "note": 43,
          "velocity": 52,
          "startTime": 21.7,
          "duration": 0.3
        },
        {
          "note": 43,
          "velocity": 44,
          "startTime": 25.02,
          "duration": 0.3
        },
        {
          "note": 43,
          "velocity": 48,
          "startTime": 28.34,
          "duration": 0.3
        },
        {
          "note": 43,
          "velocity": 44,
          "startTime": 31.66,
          "duration": 0.3
        },
        {
          "note": 41,
          "velocity": 50,
          "startTime": 32.55,
          "duration": 0.3
        },
        {
          "note": 41,
          "velocity": 44,
          "startTime": 35.87,
          "duration": 0.3
        },
        {
          "note": 42,
          "velocity": 50,
          "startTime": 37.77,
          "duration": 0.3
        },
        {
          "note": 43,
          "velocity": 55,
          "startTime": 40.9,
          "duration": 0.3
        },
        {
          "note": 43,
          "velocity": 48,
          "startTime": 44.22,
          "duration": 0.3
        },
        {
          "note": 43,
          "velocity": 42,
          "startTime": 47.54,
          "duration": 0.3
        }
      ]
    }
  ],
  "key": "G",
  "bpm": 72,
  "scale": "major"
}