{
  "genre": "electronic",
  "mode": "sleep",
  "tracks": [
    {
      "name": "Ambient Texture Pad",
      "program": 89,
      "role": "texture",
      "totalDuration": 56,
      "notes": [
        {
          "note": 45,
          "velocity": 28,
          "startTime": 0,
          "duration": 14.0
        },
        {
          "note": 52,
          "velocity": 22,
          "startTime": 0.3,
          "duration": 13.5
        },
        {
          "note": 57,
          "velocity": 18,
          "startTime": 0.6,
          "duration": 13.0
        },
        {
          "note": 43,
          "velocity": 26,
          "startTime": 13.8,
          "duration": 14.0
        },
        {
          "note": 50,
          "velocity": 20,
          "startTime": 14.1,
          "duration": 13.5
        },
        {
          "note": 55,
          "velocity": 16,
          "startTime": 14.4,
          "duration": 13.0
        },
        {
          "note": 48,
          "velocity": 28,
          "startTime": 27.6,
          "duration": 14.0
        },
        {
          "note": 55,
          "velocity": 22,
          "startTime": 27.9,
          "duration": 13.5
        },
        {
          "note": 60,
          "velocity": 18,
          "startTime": 28.2,
          "duration": 13.0
        },
        {
          "note": 45,
          "velocity": 30,
          "startTime": 41.5,
          "duration": 14.5
        },
        {
          "note": 52,
          "velocity": 24,
          "startTime": 41.8,
          "duration": 14.0
        },
        {
          "note": 57,
          "velocity": 20,
          "startTime": 42.1,
          "duration": 13.5
        }
      ]
    },
    {
      "name": "Warm Chord Pad",
      "program": 89,
      "role": "chords",
      "totalDuration": 56,
      "notes": [
        {
          "note": 57,
          "velocity": 42,
          "startTime": 0,
          "duration": 13.2
        },
        {
          "note": 60,
          "velocity": 38,
          "startTime": 0.1,
          "duration": 13.0
        },
        {
          "note": 64,
          "velocity": 34,
          "startTime": 0.2,
          "duration": 12.8
        },
        {
          "note": 55,
          "velocity": 40,
          "startTime": 13.8,
          "duration": 13.2
        },
        {
          "note": 59,
          "velocity": 36,
          "startTime": 13.9,
          "duration": 13.0
        },
        {
          "note": 62,
          "velocity": 32,
          "startTime": 14.0,
          "duration": 12.8
        },
        {
          "note": 60,
          "velocity": 44,
          "startTime": 27.6,
          "duration": 13.2
        },
        {
          "note": 63,
          "velocity": 38,
          "startTime": 27.7,
          "duration": 13.0
        },
        {
          "note": 67,
          "velocity": 34,
          "startTime": 27.8,
          "duration": 12.8
        },
        {
          "note": 57,
          "velocity": 48,
          "startTime": 41.5,
          "duration": 13.5
        },
        {
          "note": 60,
          "velocity": 42,
          "startTime": 41.6,
          "duration": 13.2
        },
        {
          "note": 64,
          "velocity": 36,
          "startTime": 41.7,
          "duration": 13.0
        }
      ]
    },
    {
      "name": "Deep Synth Bass",
      "program": 38,
      "role": "bass",
      "totalDuration": 56,
      "notes": [
        {
          "note": 33,
          "velocity": 88,
          "startTime": 0,
          "duration": 6.0
        },
        {
          "note": 33,
          "velocity": 82,
          "startTime": 6.3,
          "duration": 6.8
        },
        {
          "note": 31,
          "velocity": 86,
          "startTime": 13.8,
          "duration": 6.0
        },
        {
          "note": 31,
          "velocity": 80,
          "startTime": 20.1,
          "duration": 6.8
        },
        {
          "note": 36,
          "velocity": 90,
          "startTime": 27.6,
          "duration": 6.0
        },
        {
          "note": 36,
          "velocity": 84,
          "startTime": 33.9,
          "duration": 6.8
        },
        {
          "note": 33,
          "velocity": 92,
          "startTime": 41.5,
          "duration": 6.0
        },
        {
          "note": 33,
          "velocity": 86,
          "startTime": 47.8,
          "duration": 7.5
        }
      ]
    },
    {
      "name": "Electric Piano Lead",
      "program": 4,
      "role": "melody",
      "totalDuration": 56,
      "notes": [
        {
          "note": 64,
          "velocity": 48,
          "startTime": 2.5,
          "duration": 3.8
        },
        {
          "note": 62,
          "velocity": 44,
          "startTime": 7.1,
          "duration": 2.8
        },
        {
          "note": 60,
          "velocity": 50,
          "startTime": 10.4,
          "duration": 3.2
        },
        {
          "note": 62,
          "velocity": 46,
          "startTime": 16.3,
          "duration": 3.8
        },
        {
          "note": 60,
          "velocity": 42,
          "startTime": 20.8,
          "duration": 2.8
        },
        {
          "note": 57,
          "velocity": 48,
          "startTime": 24.2,
          "duration": 3.0
        },
        {
          "note": 64,
          "velocity": 50,
          "startTime": 29.4,
          "duration": 4.0
        },
        {
          "note": 67,
          "velocity": 46,
          "startTime": 34.1,
          "duration": 3.2
        },
        {
          "note": 64,
          "velocity": 44,
          "startTime": 38.2,
          "duration": 2.8
        },
        {
          "note": 64,
          "velocity": 52,
          "startTime": 43.6,
          "duration": 3.8
        },
        {
          "note": 62,
          "velocity": 48,
          "startTime": 48.1,
          "duration": 3.0
        },
        {
          "note": 60,
          "velocity": 42,
          "startTime": 52.5,
          "duration": 4.5
        }
      ]
    }
  ],
  "key": "Am",
  "bpm": 48,
  "scale": "minor"
}