{
  "genre": "latin",
  "mode": "relaxation",
  "tracks": [
    {
      "name": "Nylon Guitar Melody",
      "program": 24,
      "role": "melody",
      "totalDuration": 48,
      "notes": [
        {
          "note": 64,
          "velocity": 65,
          "startTime": 0.05,
          "duration": 0.9
        },
        {
          "note": 67,
          "velocity": 68,
          "startTime": 1.0,
          "duration": 0.7
        },
        {
          "note": 69,
          "velocity": 70,
          "startTime": 1.75,
          "duration": 1.2
        },
        {
          "note": 67,
          "velocity": 63,
          "startTime": 3.05,
          "duration": 0.6
        },
        {
          "note": 65,
          "velocity": 66,
          "startTime": 3.72,
          "duration": 0.8
        },
        {
          "note": 64,
          "velocity": 68,
          "startTime": 4.6,
          "duration": 1.5
        },
        {
          "note": 62,
          "velocity": 60,
          "startTime": 6.2,
          "duration": 0.7
        },
        {
          "note": 60,
          "velocity": 58,
          "startTime": 7.0,
          "duration": 1.8
        },
        {
          "note": 64,
          "velocity": 65,
          "startTime": 9.05,
          "duration": 0.9
        },
        {
          "note": 67,
          "velocity": 68,
          "startTime": 10.0,
          "duration": 0.7
        },
        {
          "note": 69,
          "velocity": 70,
          "startTime": 10.75,
          "duration": 1.2
        },
        {
          "note": 72,
          "velocity": 67,
          "startTime": 12.05,
          "duration": 0.8
        },
        {
          "note": 71,
          "velocity": 65,
          "startTime": 12.95,
          "duration": 0.6
        },
        {
          "note": 69,
          "velocity": 63,
          "startTime": 13.65,
          "duration": 1.6
        },
        {
          "note": 67,
          "velocity": 60,
          "startTime": 15.35,
          "duration": 0.6
        },
        {
          "note": 65,
          "velocity": 58,
          "startTime": 16.05,
          "duration": 1.7
        },
        {
          "note": 65,
          "velocity": 65,
          "startTime": 18.05,
          "duration": 0.8
        },
        {
          "note": 67,
          "velocity": 68,
          "startTime": 18.95,
          "duration": 0.7
        },
        {
          "note": 69,
          "velocity": 70,
          "startTime": 19.72,
          "duration": 1.1
        },
        {
          "note": 67,
          "velocity": 66,
          "startTime": 20.9,
          "duration": 0.6
        },
        {
          "note": 65,
          "velocity": 64,
          "startTime": 21.6,
          "duration": 0.7
        },
        {
          "note": 62,
          "velocity": 65,
          "startTime": 22.38,
          "duration": 0.8
        },
        {
          "note": 60,
          "velocity": 62,
          "startTime": 23.28,
          "duration": 0.7
        },
        {
          "note": 59,
          "velocity": 60,
          "startTime": 24.08,
          "duration": 1.9
        },
        {
          "note": 65,
          "velocity": 65,
          "startTime": 26.1,
          "duration": 0.8
        },
        {
          "note": 67,
          "velocity": 68,
          "startTime": 27.0,
          "duration": 0.7
        },
        {
          "note": 69,
          "velocity": 70,
          "startTime": 27.78,
          "duration": 1.1
        },
        {
          "note": 72,
          "velocity": 67,
          "startTime": 28.98,
          "duration": 0.7
        },
        {
          "note": 71,
          "velocity": 64,
          "startTime": 29.78,
          "duration": 0.6
        },
        {
          "note": 69,
          "velocity": 62,
          "startTime": 30.48,
          "duration": 0.8
        },
        {
          "note": 67,
          "velocity": 60,
          "startTime": 31.38,
          "duration": 0.7
        },
        {
          "note": 65,
          "velocity": 65,
          "startTime": 32.18,
          "duration": 0.8
        },
        {
          "note": 64,
          "velocity": 68,
          "startTime": 33.08,
          "duration": 1.4
        },
        {
          "note": 62,
          "velocity": 60,
          "startTime": 34.58,
          "duration": 0.7
        },
        {
          "note": 60,
          "velocity": 58,
          "startTime": 35.38,
          "duration": 2.5
        },
        {
          "note": 64,
          "velocity": 63,
          "startTime": 38.05,
          "duration": 0.9
        },
        {
          "note": 67,
          "velocity": 65,
          "startTime": 39.05,
          "duration": 0.7
        },
        {
          "note": 69,
          "velocity": 68,
          "startTime": 39.85,
          "duration": 1.4
        },
        {
          "note": 67,
          "velocity": 62,
          "startTime": 41.35,
          "duration": 0.7
        },
        {
          "note": 65,
          "velocity": 60,
          "startTime": 42.15,
          "duration": 0.8
        },
        {
          "note": 64,
          "velocity": 65,
          "startTime": 43.05,
          "duration": 0.8
        },
        {
          "note": 62,
          "velocity": 60,
          "startTime": 43.95,
          "duration": 0.7
        },
        {
          "note": 60,
          "velocity": 55,
          "startTime": 44.75,
          "duration": 3.0
        }
      ]
    },
    {
      "name": "Electric Bass Tumbao",
      "program": 33,
      "role": "bass",
      "totalDuration": 48,
      "notes": [
        {
          "note": 41,
          "velocity": 72,
          "startTime": 0,
          "duration": 0.45
        },
        {
          "note": 41,
          "velocity": 65,
          "startTime": 0.85,
          "duration": 0.35
        },
        {
          "note": 43,
          "velocity": 70,
          "startTime": 1.55,
          "duration": 0.4
        },
        {
          "note": 41,
          "velocity": 67,
          "startTime": 2.55,
          "duration": 0.5
        },
        {
          "note": 41,
          "velocity": 63,
          "startTime": 3.4,
          "duration": 0.35
        },
        {
          "note": 38,
          "velocity": 72,
          "startTime": 4.0,
          "duration": 0.45
        },
        {
          "note": 38,
          "velocity": 65,
          "startTime": 4.85,
          "duration": 0.35
        },
        {
          "note": 40,
          "velocity": 70,
          "startTime": 5.55,
          "duration": 0.4
        },
        {
          "note": 38,
          "velocity": 67,
          "startTime": 6.5,
          "duration": 0.5
        },
        {
          "note": 38,
          "velocity": 63,
          "startTime": 7.35,
          "duration": 0.35
        },
        {
          "note": 41,
          "velocity": 72,
          "startTime": 8.0,
          "duration": 0.45
        },
        {
          "note": 41,
          "velocity": 65,
          "startTime": 8.85,
          "duration": 0.35
        },
        {
          "note": 43,
          "velocity": 70,
          "startTime": 9.55,
          "duration": 0.4
        },
        {
          "note": 41,
          "velocity": 67,
          "startTime": 10.5,
          "duration": 0.5
        },
        {
          "note": 41,
          "velocity": 63,
          "startTime": 11.35,
          "duration": 0.35
        },
        {
          "note": 43,
          "velocity": 72,
          "startTime": 12.0,
          "duration": 0.45
        },
        {
          "note": 43,
          "velocity": 65,
          "startTime": 12.85,
          "duration": 0.35
        },
        {
          "note": 45,
          "velocity": 70,
          "startTime": 13.55,
          "duration": 0.4
        },
        {
          "note": 43,
          "velocity": 67,
          "startTime": 14.5,
          "duration": 0.5
        },
        {
          "note": 43,
          "velocity": 63,
          "startTime": 15.35,
          "duration": 0.35
        },
        {
          "note": 41,
          "velocity": 72,
          "startTime": 16.0,
          "duration": 0.45
        },
        {
          "note": 41,
          "velocity": 65,
          "startTime": 16.85,
          "duration": 0.35
        },
        {
          "note": 43,
          "velocity": 70,
          "startTime": 17.55,
          "duration": 0.4
        },
        {
          "note": 41,
          "velocity": 67,
          "startTime": 18.5,
          "duration": 0.5
        },
        {
          "note": 41,
          "velocity": 63,
          "startTime": 19.35,
          "duration": 0.35
        },
        {
          "note": 38,
          "velocity": 72,
          "startTime": 20.0,
          "duration": 0.45
        },
        {
          "note": 38,
          "velocity": 65,
          "startTime": 20.85,
          "duration": 0.35
        },
        {
          "note": 40,
          "velocity": 70,
          "startTime": 21.55,
          "duration": 0.4
        },
        {
          "note": 38,
          "velocity": 67,
          "startTime": 22.5,
          "duration": 0.5
        },
        {
          "note": 38,
          "velocity": 63,
          "startTime": 23.35,
          "duration": 0.35
        },
        {
          "note": 41,
          "velocity": 72,
          "startTime": 24.0,
          "duration": 0.45
        },
        {
          "note": 41,
          "velocity": 65,
          "startTime": 24.85,
          "duration": 0.35
        },
        {
          "note": 43,
          "velocity": 70,
          "startTime": 25.55,
          "duration": 0.4
        },
        {
          "note": 41,
          "velocity": 67,
          "startTime": 26.5,
          "duration": 0.5
        },
        {
          "note": 41,
          "velocity": 63,
          "startTime": 27.35,
          "duration": 0.35
        },
        {
          "note": 43,
          "velocity": 72,
          "startTime": 28.0,
          "duration": 0.45
        },
        {
          "note": 43,
          "velocity": 65,
          "startTime": 28.85,
          "duration": 0.35
        },
        {
          "note": 45,
          "velocity": 70,
          "startTime": 29.55,
          "duration": 0.4
        },
        {
          "note": 43,
          "velocity": 67,
          "startTime": 30.5,
          "duration": 0.5
        },
        {
          "note": 43,
          "velocity": 63,
          "startTime": 31.35,
          "duration": 0.35
        },
        {
          "note": 41,
          "velocity": 70,
          "startTime": 32.0,
          "duration": 0.45
        },
        {
          "note": 41,
          "velocity": 63,
          "startTime": 32.85,
          "duration": 0.35
        },
        {
          "note": 43,
          "velocity": 68,
          "startTime": 33.55,
          "duration": 0.4
        },
        {
          "note": 41,
          "velocity": 65,
          "startTime": 34.5,
          "duration": 0.5
        },
        {
          "note": 41,
          "velocity": 60,
          "startTime": 35.35,
          "duration": 0.35
        },
        {
          "note": 38,
          "velocity": 68,
          "startTime": 36.0,
          "duration": 0.45
        },
        {
          "note": 38,
          "velocity": 62,
          "startTime": 36.85,
          "duration": 0.35
        },
        {
          "note": 40,
          "velocity": 65,
          "startTime": 37.55,
          "duration": 0.4
        },
        {
          "note": 38,
          "velocity": 63,
          "startTime": 38.5,
          "duration": 0.5
        },
        {
          "note": 38,
          "velocity": 58,
          "startTime": 39.35,
          "duration": 0.35
        },
        {
          "note": 41,
          "velocity": 65,
          "startTime": 40.0,
          "duration": 0.45
        },
        {
          "note": 41,
          "velocity": 60,
          "startTime": 40.85,
          "duration": 0.35
        },
        {
          "note": 43,
          "velocity": 62,
          "startTime": 41.55,
          "duration": 0.4
        },
        {
          "note": 41,
          "velocity": 58,
          "startTime": 42.5,
          "duration": 0.5
        },
        {
          "note": 41,
          "velocity": 55,
          "startTime": 43.35,
          "duration": 1.8
        }
      ]
    },
    {
      "name": "Piano Montuno Pads",
      "program": 0,
      "role": "chords",
      "totalDuration": 48,
      "notes": [
        {
          "note": 53,
          "velocity": 55,
          "startTime": 0.02,
          "duration": 3.8
        },
        {
          "note": 57,
          "velocity": 52,
          "startTime": 0.02,
          "duration": 3.8
        },
        {
          "note": 60,
          "velocity": 55,
          "startTime": 0.02,
          "duration": 3.8
        },
        {
          "note": 64,
          "velocity": 50,
          "startTime": 0.02,
          "duration": 3.8
        },
        {
          "note": 53,
          "velocity": 53,
          "startTime": 0.75,
          "duration": 0.35
        },
        {
          "note": 57,
          "velocity": 50,
          "startTime": 0.75,
          "duration": 0.35
        },
        {
          "note": 60,
          "velocity": 53,
          "startTime": 0.75,
          "duration": 0.35
        },
        {
          "note": 53,
          "velocity": 52,
          "startTime": 1.55,
          "duration": 0.35
        },
        {
          "note": 57,
          "velocity": 50,
          "startTime": 1.55,
          "duration": 0.35
        },
        {
          "note": 60,
          "velocity": 52,
          "startTime": 1.55,
          "duration": 0.35
        },
        {
          "note": 50,
          "velocity": 55,
          "startTime": 4.02,
          "duration": 3.8
        },
        {
          "note": 53,
          "velocity": 52,
          "startTime": 4.02,
          "duration": 3.8
        },
        {
          "note": 57,
          "velocity": 55,
          "startTime": 4.02,
          "duration": 3.8
        },
        {
          "note": 62,
          "velocity": 50,
          "startTime": 4.02,
          "duration": 3.8
        },
        {
          "note": 50,
          "velocity": 53,
          "startTime": 4.75,
          "duration": 0.35
        },
        {
          "note": 53,
          "velocity": 50,
          "startTime": 4.75,
          "duration": 0.35
        },
        {
          "note": 57,
          "velocity": 53,
          "startTime": 4.75,
          "duration": 0.35
        },
        {
          "note": 50,
          "velocity": 52,
          "startTime": 5.55,
          "duration": 0.35
        },
        {
          "note": 53,
          "velocity": 50,
          "startTime": 5.55,
          "duration": 0.35
        },
        {
          "note": 57,
          "velocity": 52,
          "startTime": 5.55,
          "duration": 0.35
        },
        {
          "note": 53,
          "velocity": 55,
          "startTime": 8.02,
          "duration": 3.8
        },
        {
          "note": 57,
          "velocity": 52,
          "startTime": 8.02,
          "duration": 3.8
        },
        {
          "note": 60,
          "velocity": 55,
          "startTime": 8.02,
          "duration": 3.8
        },
        {
          "note": 64,
          "velocity": 50,
          "startTime": 8.02,
          "duration": 3.8
        },
        {
          "note": 53,
          "velocity": 53,
          "startTime": 8.75,
          "duration": 0.35
        },
        {
          "note": 57,
          "velocity": 50,
          "startTime": 8.75,
          "duration": 0.35
        },
        {
          "note": 60,
          "velocity": 53,
          "startTime": 8.75,
          "duration": 0.35
        },
        {
          "note": 55,
          "velocity": 55,
          "startTime": 12.02,
          "duration": 3.8
        },
        {
          "note": 59,
          "velocity": 52,
          "startTime": 12.02,
          "duration": 3.8
        },
        {
          "note": 62,
          "velocity": 55,
          "startTime": 12.02,
          "duration": 3.8
        },
        {
          "note": 67,
          "velocity": 50,
          "startTime": 12.02,
          "duration": 3.8
        },
        {
          "note": 55,
          "velocity": 53,
          "startTime": 12.75,
          "duration": 0.35
        },
        {
          "note": 59,
          "velocity": 50,
          "startTime": 12.75,
          "duration": 0.35
        },
        {
          "note": 62,
          "velocity": 53,
          "startTime": 12.75,
          "duration": 0.35
        },
        {
          "note": 53,
          "velocity": 55,
          "startTime": 16.02,
          "duration": 3.8
        },
        {
          "note": 57,
          "velocity": 52,
          "startTime": 16.02,
          "duration": 3.8
        },
        {
          "note": 60,
          "velocity": 55,
          "startTime": 16.02,
          "duration": 3.8
        },
        {
          "note": 64,
          "velocity": 50,
          "startTime": 16.02,
          "duration": 3.8
        },
        {
          "note": 50,
          "velocity": 55,
          "startTime": 20.02,
          "duration": 3.8
        },
        {
          "note": 53,
          "velocity": 52,
          "startTime": 20.02,
          "duration": 3.8
        },
        {
          "note": 57,
          "velocity": 55,
          "startTime": 20.02,
          "duration": 3.8
        },
        {
          "note": 62,
          "velocity": 50,
          "startTime": 20.02,
          "duration": 3.8
        },
        {
          "note": 50,
          "velocity": 53,
          "startTime": 20.75,
          "duration": 0.35
        },
        {
          "note": 53,
          "velocity": 50,
          "startTime": 20.75,
          "duration": 0.35
        },
        {
          "note": 57,
          "velocity": 53,
          "startTime": 20.75,
          "duration": 0.35
        },
        {
          "note": 53,
          "velocity": 55,
          "startTime": 24.02,
          "duration": 3.8
        },
        {
          "note": 57,
          "velocity": 52,
          "startTime": 24.02,
          "duration": 3.8
        },
        {
          "note": 60,
          "velocity": 55,
          "startTime": 24.02,
          "duration": 3.8
        },
        {
          "note": 64,
          "velocity": 50,
          "startTime": 24.02,
          "duration": 3.8
        },
        {
          "note": 53,
          "velocity": 53,
          "startTime": 24.75,
          "duration": 0.35
        },
        {
          "note": 57,
          "velocity": 50,
          "startTime": 24.75,
          "duration": 0.35
        },
        {
          "note": 60,
          "velocity": 53,
          "startTime": 24.75,
          "duration": 0.35
        },
        {
          "note": 55,
          "velocity": 55,
          "startTime": 28.02,
          "duration": 3.8
        },
        {
          "note": 59,
          "velocity": 52,
          "startTime": 28.02,
          "duration": 3.8
        },
        {
          "note": 62,
          "velocity": 55,
          "startTime": 28.02,
          "duration": 3.8
        },
        {
          "note": 67,
          "velocity": 50,
          "startTime": 28.02,
          "duration": 3.8
        },
        {
          "note": 55,
          "velocity": 53,
          "startTime": 28.75,
          "duration": 0.35
        },
        {
          "note": 59,
          "velocity": 50,
          "startTime": 28.75,
          "duration": 0.35
        },
        {
          "note": 62,
          "velocity": 53,
          "startTime": 28.75,
          "duration": 0.35
        },
        {
          "note": 53,
          "velocity": 52,
          "startTime": 32.02,
          "duration": 3.8
        },
        {
          "note": 57,
          "velocity": 50,
          "startTime": 32.02,
          "duration": 3.8
        },
        {
          "note": 60,
          "velocity": 52,
          "startTime": 32.02,
          "duration": 3.8
        },
        {
          "note": 64,
          "velocity": 48,
          "startTime": 32.02,
          "duration": 3.8
        },
        {
          "note": 50,
          "velocity": 52,
          "startTime": 36.02,
          "duration": 3.8
        },
        {
          "note": 53,
          "velocity": 50,
          "startTime": 36.02,
          "duration": 3.8
        },
        {
          "note": 57,
          "velocity": 52,
          "startTime": 36.02,
          "duration": 3.8
        },
        {
          "note": 62,
          "velocity": 48,
          "startTime": 36.02,
          "duration": 3.8
        },
        {
          "note": 53,
          "velocity": 50,
          "startTime": 40.02,
          "duration": 3.8
        },
        {
          "note": 57,
          "velocity": 48,
          "startTime": 40.02,
          "duration": 3.8
        },
        {
          "note": 60,
          "velocity": 50,
          "startTime": 40.02,
          "duration": 3.8
        },
        {
          "note": 64,
          "velocity": 45,
          "startTime": 40.02,
          "duration": 3.8
        },
        {
          "note": 53,
          "velocity": 48,
          "startTime": 44.02,
          "duration": 3.7
        },
        {
          "note": 57,
          "velocity": 45,
          "startTime": 44.02,
          "duration": 3.7
        },
        {
          "note": 60,
          "velocity": 48,
          "startTime": 44.02,
          "duration": 3.7
        },
        {
          "note": 64,
          "velocity": 42,
          "startTime": 44.02,
          "duration": 3.7
        }
      ]
    },
    {
      "name": "Flute Texture",
      "program": 73,
      "role": "texture",
      "totalDuration": 48,
      "notes": [
        {
          "note": 72,
          "velocity": 42,
          "startTime": 2.1,
          "duration": 3.5
        },
        {
          "note": 71,
          "velocity": 40,
          "startTime": 6.3,
          "duration": 2.8
        },
        {
          "note": 72,
          "velocity": 43,
          "startTime": 10.2,
          "duration": 3.2
        },
        {
          "note": 74,
          "velocity": 40,
          "startTime": 14.1,
          "duration": 2.5
        },
        {
          "note": 69,
          "velocity": 42,
          "startTime": 18.3,
          "duration": 3.8
        },
        {
          "note": 67,
          "velocity": 38,
          "startTime": 22.5,
          "duration": 2.9
        },
        {
          "note": 72,
          "velocity": 43,
          "startTime": 26.2,
          "duration": 3.4
        },
        {
          "note": 74,
          "velocity": 40,
          "startTime": 30.1,
          "duration": 2.8
        },
        {
          "note": 71,
          "velocity": 40,
          "startTime": 34.3,
          "duration": 3.5
        },
        {
          "note": 69,
          "velocity": 38,
          "startTime": 38.2,
          "duration": 3.0
        },
        {
          "note": 67,
          "velocity": 35,
          "startTime": 42.1,
          "duration": 5.5
        }
      ]
    }
  ],
  "key": "Dm",
  "bpm": 63,
  "scale": "harmonic minor"
}