{
  "genre": "lofi",
  "mode": "relaxation",
  "tracks": [
    {
      "name": "Rhodes Melody",
      "program": 4,
      "role": "melody",
      "totalDuration": 56,
      "notes": [
        {
          "note": 65,
          "velocity": 52,
          "startTime": 0.05,
          "duration": 0.7
        },
        {
          "note": 67,
          "velocity": 48,
          "startTime": 0.85,
          "duration": 0.5
        },
        {
          "note": 69,
          "velocity": 55,
          "startTime": 1.45,
          "duration": 1.2
        },
        {
          "note": 72,
          "velocity": 50,
          "startTime": 2.75,
          "duration": 0.4
        },
        {
          "note": 70,
          "velocity": 46,
          "startTime": 3.25,
          "duration": 1.6
        },
        {
          "note": 69,
          "velocity": 44,
          "startTime": 5.05,
          "duration": 0.6
        },
        {
          "note": 67,
          "velocity": 48,
          "startTime": 5.75,
          "duration": 0.5
        },
        {
          "note": 65,
          "velocity": 52,
          "startTime": 6.35,
          "duration": 2.2
        },
        {
          "note": 64,
          "velocity": 45,
          "startTime": 8.85,
          "duration": 0.5
        },
        {
          "note": 65,
          "velocity": 50,
          "startTime": 9.45,
          "duration": 0.6
        },
        {
          "note": 67,
          "velocity": 54,
          "startTime": 10.15,
          "duration": 1.0
        },
        {
          "note": 69,
          "velocity": 48,
          "startTime": 11.25,
          "duration": 0.5
        },
        {
          "note": 72,
          "velocity": 56,
          "startTime": 11.85,
          "duration": 1.4
        },
        {
          "note": 74,
          "velocity": 52,
          "startTime": 13.35,
          "duration": 0.4
        },
        {
          "note": 72,
          "velocity": 50,
          "startTime": 13.85,
          "duration": 2.5
        },
        {
          "note": 69,
          "velocity": 46,
          "startTime": 16.55,
          "duration": 0.5
        },
        {
          "note": 67,
          "velocity": 44,
          "startTime": 17.15,
          "duration": 0.4
        },
        {
          "note": 65,
          "velocity": 48,
          "startTime": 17.65,
          "duration": 2.8
        },
        {
          "note": 65,
          "velocity": 50,
          "startTime": 20.65,
          "duration": 0.65
        },
        {
          "note": 67,
          "velocity": 46,
          "startTime": 21.4,
          "duration": 0.5
        },
        {
          "note": 69,
          "velocity": 53,
          "startTime": 22.0,
          "duration": 1.3
        },
        {
          "note": 72,
          "velocity": 49,
          "startTime": 23.4,
          "duration": 0.4
        },
        {
          "note": 70,
          "velocity": 45,
          "startTime": 23.9,
          "duration": 1.7
        },
        {
          "note": 69,
          "velocity": 42,
          "startTime": 25.7,
          "duration": 0.6
        },
        {
          "note": 67,
          "velocity": 47,
          "startTime": 26.4,
          "duration": 0.5
        },
        {
          "note": 65,
          "velocity": 51,
          "startTime": 27.0,
          "duration": 2.0
        },
        {
          "note": 64,
          "velocity": 44,
          "startTime": 29.2,
          "duration": 0.5
        },
        {
          "note": 65,
          "velocity": 48,
          "startTime": 29.8,
          "duration": 0.6
        },
        {
          "note": 67,
          "velocity": 52,
          "startTime": 30.5,
          "duration": 1.0
        },
        {
          "note": 70,
          "velocity": 55,
          "startTime": 31.6,
          "duration": 0.5
        },
        {
          "note": 72,
          "velocity": 58,
          "startTime": 32.2,
          "duration": 1.5
        },
        {
          "note": 74,
          "velocity": 50,
          "startTime": 33.8,
          "duration": 0.4
        },
        {
          "note": 72,
          "velocity": 46,
          "startTime": 34.3,
          "duration": 0.6
        },
        {
          "note": 70,
          "velocity": 44,
          "startTime": 35.0,
          "duration": 2.0
        },
        {
          "note": 69,
          "velocity": 42,
          "startTime": 37.1,
          "duration": 0.5
        },
        {
          "note": 67,
          "velocity": 40,
          "startTime": 37.7,
          "duration": 3.0
        },
        {
          "note": 72,
          "velocity": 48,
          "startTime": 41.0,
          "duration": 0.7
        },
        {
          "note": 74,
          "velocity": 44,
          "startTime": 41.8,
          "duration": 0.5
        },
        {
          "note": 76,
          "velocity": 52,
          "startTime": 42.4,
          "duration": 1.8
        },
        {
          "note": 74,
          "velocity": 46,
          "startTime": 44.3,
          "duration": 0.5
        },
        {
          "note": 72,
          "velocity": 50,
          "startTime": 44.9,
          "duration": 1.0
        },
        {
          "note": 70,
          "velocity": 46,
          "startTime": 46.0,
          "duration": 0.5
        },
        {
          "note": 69,
          "velocity": 44,
          "startTime": 46.6,
          "duration": 0.7
        },
        {
          "note": 67,
          "velocity": 48,
          "startTime": 47.4,
          "duration": 1.2
        },
        {
          "note": 65,
          "velocity": 50,
          "startTime": 48.7,
          "duration": 0.5
        },
        {
          "note": 67,
          "velocity": 46,
          "startTime": 49.3,
          "duration": 0.4
        },
        {
          "note": 65,
          "velocity": 52,
          "startTime": 49.8,
          "duration": 0.6
        },
        {
          "note": 64,
          "velocity": 48,
          "startTime": 50.5,
          "duration": 0.5
        },
        {
          "note": 65,
          "velocity": 55,
          "startTime": 51.1,
          "duration": 4.5
        }
      ]
    },
    {
      "name": "Upright Bass",
      "program": 32,
      "role": "bass",
      "totalDuration": 56,
      "notes": [
        {
          "note": 41,
          "velocity": 62,
          "startTime": 0.02,
          "duration": 1.8
        },
        {
          "note": 41,
          "velocity": 58,
          "startTime": 3.88,
          "duration": 1.6
        },
        {
          "note": 43,
          "velocity": 60,
          "startTime": 7.75,
          "duration": 1.8
        },
        {
          "note": 38,
          "velocity": 64,
          "startTime": 11.62,
          "duration": 1.8
        },
        {
          "note": 41,
          "velocity": 62,
          "startTime": 15.5,
          "duration": 1.7
        },
        {
          "note": 41,
          "velocity": 59,
          "startTime": 19.4,
          "duration": 1.6
        },
        {
          "note": 43,
          "velocity": 61,
          "startTime": 23.25,
          "duration": 1.8
        },
        {
          "note": 38,
          "velocity": 63,
          "startTime": 27.12,
          "duration": 1.8
        },
        {
          "note": 41,
          "velocity": 62,
          "startTime": 31.0,
          "duration": 1.7
        },
        {
          "note": 41,
          "velocity": 57,
          "startTime": 34.88,
          "duration": 1.6
        },
        {
          "note": 43,
          "velocity": 60,
          "startTime": 38.75,
          "duration": 1.8
        },
        {
          "note": 38,
          "velocity": 64,
          "startTime": 42.62,
          "duration": 1.8
        },
        {
          "note": 41,
          "velocity": 61,
          "startTime": 46.5,
          "duration": 1.7
        },
        {
          "note": 36,
          "velocity": 58,
          "startTime": 50.38,
          "duration": 5.2
        }
      ]
    },
    {
      "name": "Rhodes Chords",
      "program": 4,
      "role": "chords",
      "totalDuration": 56,
      "notes": [
        {
          "note": 53,
          "velocity": 48,
          "startTime": 0.08,
          "duration": 3.6
        },
        {
          "note": 57,
          "velocity": 45,
          "startTime": 0.08,
          "duration": 3.6
        },
        {
          "note": 60,
          "velocity": 43,
          "startTime": 0.08,
          "duration": 3.6
        },
        {
          "note": 64,
          "velocity": 41,
          "startTime": 0.08,
          "duration": 3.6
        },
        {
          "note": 53,
          "velocity": 46,
          "startTime": 3.88,
          "duration": 3.6
        },
        {
          "note": 57,
          "velocity": 43,
          "startTime": 3.88,
          "duration": 3.6
        },
        {
          "note": 60,
          "velocity": 41,
          "startTime": 3.88,
          "duration": 3.6
        },
        {
          "note": 63,
          "velocity": 39,
          "startTime": 3.88,
          "duration": 3.6
        },
        {
          "note": 55,
          "velocity": 48,
          "startTime": 7.75,
          "duration": 3.7
        },
        {
          "note": 58,
          "velocity": 45,
          "startTime": 7.75,
          "duration": 3.7
        },
        {
          "note": 62,
          "velocity": 43,
          "startTime": 7.75,
          "duration": 3.7
        },
        {
          "note": 65,
          "velocity": 41,
          "startTime": 7.75,
          "duration": 3.7
        },
        {
          "note": 50,
          "velocity": 50,
          "startTime": 11.62,
          "duration": 3.6
        },
        {
          "note": 53,
          "velocity": 47,
          "startTime": 11.62,
          "duration": 3.6
        },
        {
          "note": 57,
          "velocity": 44,
          "startTime": 11.62,
          "duration": 3.6
        },
        {
          "note": 60,
          "velocity": 42,
          "startTime": 11.62,
          "duration": 3.6
        },
        {
          "note": 53,
          "velocity": 47,
          "startTime": 15.5,
          "duration": 3.6
        },
        {
          "note": 57,
          "velocity": 44,
          "startTime": 15.5,
          "duration": 3.6
        },
        {
          "note": 60,
          "velocity": 42,
          "startTime": 15.5,
          "duration": 3.6
        },
        {
          "note": 64,
          "velocity": 40,
          "startTime": 15.5,
          "duration": 3.6
        },
        {
          "note": 53,
          "velocity": 46,
          "startTime": 19.38,
          "duration": 3.6
        },
        {
          "note": 57,
          "velocity": 43,
          "startTime": 19.38,
          "duration": 3.6
        },
        {
          "note": 60,
          "velocity": 41,
          "startTime": 19.38,
          "duration": 3.6
        },
        {
          "note": 63,
          "velocity": 39,
          "startTime": 19.38,
          "duration": 3.6
        },
        {
          "note": 55,
          "velocity": 48,
          "startTime": 23.25,
          "duration": 3.7
        },
        {
          "note": 58,
          "velocity": 45,
          "startTime": 23.25,
          "duration": 3.7
        },
        {
          "note": 62,
          "velocity": 43,
          "startTime": 23.25,
          "duration": 3.7
        },
        {
          "note": 65,
          "velocity": 41,
          "startTime": 23.25,
          "duration": 3.7
        },
        {
          "note": 50,
          "velocity": 50,
          "startTime": 27.12,
          "duration": 3.6
        },
        {
          "note": 53,
          "velocity": 47,
          "startTime": 27.12,
          "duration": 3.6
        },
        {
          "note": 57,
          "velocity": 44,
          "startTime": 27.12,
          "duration": 3.6
        },
        {
          "note": 60,
          "velocity": 42,
          "startTime": 27.12,
          "duration": 3.6
        },
        {
          "note": 53,
          "velocity": 47,
          "startTime": 31.0,
          "duration": 3.6
        },
        {
          "note": 57,
          "velocity": 44,
          "startTime": 31.0,
          "duration": 3.6
        },
        {
          "note": 60,
          "velocity": 42,
          "startTime": 31.0,
          "duration": 3.6
        },
        {
          "note": 64,
          "velocity": 40,
          "startTime": 31.0,
          "duration": 3.6
        },
        {
          "note": 53,
          "velocity": 45,
          "startTime": 34.88,
          "duration": 3.6
        },
        {
          "note": 57,
          "velocity": 42,
          "startTime": 34.88,
          "duration": 3.6
        },
        {
          "note": 60,
          "velocity": 40,
          "startTime": 34.88,
          "duration": 3.6
        },
        {
          "note": 63,
          "velocity": 38,
          "startTime": 34.88,
          "duration": 3.6
        },
        {
          "note": 55,
          "velocity": 47,
          "startTime": 38.75,
          "duration": 3.7
        },
        {
          "note": 58,
          "velocity": 44,
          "startTime": 38.75,
          "duration": 3.7
        },
        {
          "note": 62,
          "velocity": 42,
          "startTime": 38.75,
          "duration": 3.7
        },
        {
          "note": 65,
          "velocity": 40,
          "startTime": 38.75,
          "duration": 3.7
        },
        {
          "note": 50,
          "velocity": 49,
          "startTime": 42.62,
          "duration": 3.6
        },
        {
          "note": 53,
          "velocity": 46,
          "startTime": 42.62,
          "duration": 3.6
        },
        {
          "note": 57,
          "velocity": 43,
          "startTime": 42.62,
          "duration": 3.6
        },
        {
          "note": 60,
          "velocity": 41,
          "startTime": 42.62,
          "duration": 3.6
        },
        {
          "note": 53,
          "velocity": 46,
          "startTime": 46.5,
          "duration": 3.6
        },
        {
          "note": 57,
          "velocity": 43,
          "startTime": 46.5,
          "duration": 3.6
        },
        {
          "note": 60,
          "velocity": 41,
          "startTime": 46.5,
          "duration": 3.6
        },
        {
          "note": 64,
          "velocity": 39,
          "startTime": 46.5,
          "duration": 3.6
        },
        {
          "note": 41,
          "velocity": 44,
          "startTime": 50.38,
          "duration": 5.3
        },
        {
          "note": 53,
          "velocity": 44,
          "startTime": 50.38,
          "duration": 5.3
        },
        {
          "note": 57,
          "velocity": 41,
          "startTime": 50.38,
          "duration": 5.3
        },
        {
          "note": 60,
          "velocity": 39,
          "startTime": 50.38,
          "duration": 5.3
        },
        {
          "note": 64,
          "velocity": 37,
          "startTime": 50.38,
          "duration": 5.3
        }
      ]
    },
    {
      "name": "Warm Pad Texture",
      "program": 89,
      "role": "texture",
      "totalDuration": 56,
      "notes": [
        {
          "note": 53,
          "velocity": 32,
          "startTime": 0.3,
          "duration": 7.5
        },
        {
          "note": 60,
          "velocity": 28,
          "startTime": 0.3,
          "duration": 7.5
        },
        {
          "note": 65,
          "velocity": 25,
          "startTime": 0.3,
          "duration": 7.5
        },
        {
          "note": 53,
          "velocity": 30,
          "startTime": 7.9,
          "duration": 7.5
        },
        {
          "note": 58,
          "velocity": 27,
          "startTime": 7.9,
          "duration": 7.5
        },
        {
          "note": 65,
          "velocity": 24,
          "startTime": 7.9,
          "duration": 7.5
        },
        {
          "note": 50,
          "velocity": 33,
          "startTime": 15.5,
          "duration": 7.8
        },
        {
          "note": 57,
          "velocity": 29,
          "startTime": 15.5,
          "duration": 7.8
        },
        {
          "note": 64,
          "velocity": 26,
          "startTime": 15.5,
          "duration": 7.8
        },
        {
          "note": 53,
          "velocity": 31,
          "startTime": 23.4,
          "duration": 7.5
        },
        {
          "note": 60,
          "velocity": 27,
          "startTime": 23.4,
          "duration": 7.5
        },
        {
          "note": 65,
          "velocity": 24,
          "startTime": 23.4,
          "duration": 7.5
        },
        {
          "note": 53,
          "velocity": 29,
          "startTime": 31.1,
          "duration": 7.5
        },
        {
          "note": 58,
          "velocity": 26,
          "startTime": 31.1,
          "duration": 7.5
        },
        {
          "note": 65,
          "velocity": 23,
          "startTime": 31.1,
          "duration": 7.5
        },
        {
          "note": 50,
          "velocity": 32,
          "startTime": 38.8,
          "duration": 7.8
        },
        {
          "note": 57,
          "velocity": 28,
          "startTime": 38.8,
          "duration": 7.8
        },
        {
          "note": 64,
          "velocity": 25,
          "startTime": 38.8,
          "duration": 7.8
        },
        {
          "note": 41,
          "velocity": 28,
          "startTime": 46.6,
          "duration": 9.0
        },
        {
          "note": 53,
          "velocity": 30,
          "startTime": 46.6,
          "duration": 9.0
        },
        {
          "note": 60,
          "velocity": 26,
          "startTime": 46.6,
          "duration": 9.0
        },
        {
          "note": 65,
          "velocity": 22,
          "startTime": 46.6,
          "duration": 9.0
        }
      ]
    }
  ],
  "key": "F",
  "bpm": 62,
  "scale": "dorian"
}