[
  {
    "genre": "lofi",
    "mode": "energize",
    "tracks": [
      {
        "name": "Rhodes Melody",
        "program": 4,
        "role": "melody",
        "totalDuration": 45,
        "notes": [
          {
            "note": 62,
            "velocity": 75,
            "startTime": 0,
            "duration": 0.8
          },
          {
            "note": 65,
            "velocity": 80,
            "startTime": 1.04,
            "duration": 0.6
          },
          {
            "note": 67,
            "velocity": 72,
            "startTime": 2.08,
            "duration": 1.0
          },
          {
            "note": 69,
            "velocity": 78,
            "startTime": 3.12,
            "duration": 0.5
          },
          {
            "note": 72,
            "velocity": 85,
            "startTime": 4.17,
            "duration": 0.9
          },
          {
            "note": 74,
            "velocity": 70,
            "startTime": 5.21,
            "duration": 0.7
          },
          {
            "note": 72,
            "velocity": 76,
            "startTime": 6.26,
            "duration": 0.5
          },
          {
            "note": 69,
            "velocity": 68,
            "startTime": 7.3,
            "duration": 1.2
          },
          {
            "note": 67,
            "velocity": 82,
            "startTime": 8.87,
            "duration": 0.6
          },
          {
            "note": 65,
            "velocity": 74,
            "startTime": 10.43,
            "duration": 0.8
          },
          {
            "note": 62,
            "velocity": 79,
            "startTime": 11.48,
            "duration": 1.0
          },
          {
            "note": 60,
            "velocity": 65,
            "startTime": 12.52,
            "duration": 0.5
          },
          {
            "note": 62,
            "velocity": 77,
            "startTime": 14.08,
            "duration": 0.7
          },
          {
            "note": 65,
            "velocity": 80,
            "startTime": 15.13,
            "duration": 0.9
          },
          {
            "note": 69,
            "velocity": 84,
            "startTime": 16.7,
            "duration": 0.6
          },
          {
            "note": 72,
            "velocity": 88,
            "startTime": 17.74,
            "duration": 1.1
          },
          {
            "note": 74,
            "velocity": 75,
            "startTime": 19.3,
            "duration": 0.5
          },
          {
            "note": 72,
            "velocity": 70,
            "startTime": 20.35,
            "duration": 0.8
          },
          {
            "note": 69,
            "velocity": 73,
            "startTime": 21.91,
            "duration": 0.6
          },
          {
            "note": 67,
            "velocity": 78,
            "startTime": 22.96,
            "duration": 1.0
          },
          {
            "note": 65,
            "velocity": 72,
            "startTime": 24.52,
            "duration": 0.7
          },
          {
            "note": 62,
            "velocity": 80,
            "startTime": 25.57,
            "duration": 0.9
          },
          {
            "note": 74,
            "velocity": 86,
            "startTime": 27.13,
            "duration": 0.5
          },
          {
            "note": 72,
            "velocity": 78,
            "startTime": 28.17,
            "duration": 1.2
          },
          {
            "note": 69,
            "velocity": 74,
            "startTime": 29.74,
            "duration": 0.6
          },
          {
            "note": 67,
            "velocity": 70,
            "startTime": 30.78,
            "duration": 0.8
          },
          {
            "note": 65,
            "velocity": 82,
            "startTime": 32.35,
            "duration": 0.5
          },
          {
            "note": 62,
            "velocity": 76,
            "startTime": 33.39,
            "duration": 1.0
          },
          {
            "note": 60,
            "velocity": 68,
            "startTime": 34.96,
            "duration": 0.7
          },
          {
            "note": 62,
            "velocity": 80,
            "startTime": 36.0,
            "duration": 0.9
          },
          {
            "note": 65,
            "velocity": 84,
            "startTime": 37.57,
            "duration": 0.6
          },
          {
            "note": 67,
            "velocity": 78,
            "startTime": 38.61,
            "duration": 1.1
          },
          {
            "note": 69,
            "velocity": 86,
            "startTime": 39.65,
            "duration": 0.5
          },
          {
            "note": 72,
            "velocity": 90,
            "startTime": 40.7,
            "duration": 0.8
          },
          {
            "note": 74,
            "velocity": 82,
            "startTime": 41.74,
            "duration": 0.6
          },
          {
            "note": 72,
            "velocity": 75,
            "startTime": 42.78,
            "duration": 1.0
          },
          {
            "note": 69,
            "velocity": 70,
            "startTime": 43.83,
            "duration": 0.8
          }
        ]
      },
      {
        "name": "Synth Bass",
        "program": 38,
        "role": "bass",
        "totalDuration": 45,
        "notes": [
          {
            "note": 40,
            "velocity": 95,
            "startTime": 0,
            "duration": 0.4
          },
          {
            "note": 40,
            "velocity": 85,
            "startTime": 0.78,
            "duration": 0.3
          },
          {
            "note": 43,
            "velocity": 90,
            "startTime": 1.56,
            "duration": 0.5
          },
          {
            "note": 45,
            "velocity": 92,
            "startTime": 2.08,
            "duration": 0.4
          },
          {
            "note": 43,
            "velocity": 88,
            "startTime": 3.12,
            "duration": 0.5
          },
          {
            "note": 40,
            "velocity": 90,
            "startTime": 4.17,
            "duration": 0.4
          },
          {
            "note": 38,
            "velocity": 94,
            "startTime": 5.21,
            "duration": 0.5
          },
          {
            "note": 40,
            "velocity": 86,
            "startTime": 6.26,
            "duration": 0.4
          },
          {
            "note": 43,
            "velocity": 91,
            "startTime": 7.3,
            "duration": 0.3
          },
          {
            "note": 45,
            "velocity": 88,
            "startTime": 8.35,
            "duration": 0.5
          },
          {
            "note": 43,
            "velocity": 85,
            "startTime": 9.39,
            "duration": 0.4
          },
          {
            "note": 40,
            "velocity": 92,
            "startTime": 10.43,
            "duration": 0.5
          },
          {
            "note": 38,
            "velocity": 90,
            "startTime": 11.48,
            "duration": 0.4
          },
          {
            "note": 40,
            "velocity": 87,
            "startTime": 12.52,
            "duration": 0.5
          },
          {
            "note": 43,
            "velocity": 93,
            "startTime": 13.56,
            "duration": 0.3
          },
          {
            "note": 45,
            "velocity": 89,
            "startTime": 14.61,
            "duration": 0.5
          },
          {
            "note": 43,
            "velocity": 86,
            "startTime": 15.65,
            "duration": 0.4
          },
          {
            "note": 40,
            "velocity": 91,
            "startTime": 16.7,
            "duration": 0.5
          },
          {
            "note": 38,
            "velocity": 88,
            "startTime": 17.74,
            "duration": 0.4
          },
          {
            "note": 40,
            "velocity": 94,
            "startTime": 18.78,
            "duration": 0.3
          },
          {
            "note": 40,
            "velocity": 90,
            "startTime": 19.83,
            "duration": 0.5
          },
          {
            "note": 43,
            "velocity": 87,
            "startTime": 20.87,
            "duration": 0.4
          },
          {
            "note": 45,
            "velocity": 92,
            "startTime": 21.91,
            "duration": 0.5
          },
          {
            "note": 43,
            "velocity": 85,
            "startTime": 22.96,
            "duration": 0.4
          },
          {
            "note": 40,
            "velocity": 93,
            "startTime": 24.0,
            "duration": 0.3
          },
          {
            "note": 38,
            "velocity": 89,
            "startTime": 25.04,
            "duration": 0.5
          },
          {
            "note": 40,
            "velocity": 91,
            "startTime": 26.09,
            "duration": 0.4
          },
          {
            "note": 43,
            "velocity": 86,
            "startTime": 27.13,
            "duration": 0.5
          },
          {
            "note": 45,
            "velocity": 90,
            "startTime": 28.17,
            "duration": 0.4
          },
          {
            "note": 43,
            "velocity": 88,
            "startTime": 29.22,
            "duration": 0.3
          },
          {
            "note": 40,
            "velocity": 94,
            "startTime": 30.26,
            "duration": 0.5
          },
          {
            "note": 38,
            "velocity": 87,
            "startTime": 31.3,
            "duration": 0.4
          },
          {
            "note": 40,
            "velocity": 92,
            "startTime": 32.35,
            "duration": 0.5
          },
          {
            "note": 43,
            "velocity": 85,
            "startTime": 33.39,
            "duration": 0.4
          },
          {
            "note": 45,
            "velocity": 91,
            "startTime": 34.43,
            "duration": 0.3
          },
          {
            "note": 43,
            "velocity": 89,
            "startTime": 35.48,
            "duration": 0.5
          },
          {
            "note": 40,
            "velocity": 93,
            "startTime": 36.52,
            "duration": 0.4
          },
          {
            "note": 38,
            "velocity": 86,
            "startTime": 37.57,
            "duration": 0.5
          },
          {
            "note": 40,
            "velocity": 90,
            "startTime": 38.61,
            "duration": 0.4
          },
          {
            "note": 43,
            "velocity": 88,
            "startTime": 39.65,
            "duration": 0.5
          },
          {
            "note": 45,
            "velocity": 92,
            "startTime": 40.7,
            "duration": 0.4
          },
          {
            "note": 43,
            "velocity": 85,
            "startTime": 41.74,
            "duration": 0.3
          },
          {
            "note": 40,
            "velocity": 94,
            "startTime": 42.78,
            "duration": 0.5
          },
          {
            "note": 38,
            "velocity": 90,
            "startTime": 43.83,
            "duration": 0.8
          }
        ]
      },
      {
        "name": "Rhodes Chords",
        "program": 4,
        "role": "chords",
        "totalDuration": 45,
        "notes": [
          {
            "note": 64,
            "velocity": 60,
            "startTime": 0,
            "duration": 1.8
          },
          {
            "note": 67,
            "velocity": 58,
            "startTime": 0,
            "duration": 1.8
          },
          {
            "note": 71,
            "velocity": 55,
            "startTime": 0,
            "duration": 1.8
          },
          {
            "note": 74,
            "velocity": 57,
            "startTime": 0,
            "duration": 1.8
          },
          {
            "note": 65,
            "velocity": 62,
            "startTime": 2.08,
            "duration": 1.8
          },
          {
            "note": 69,
            "velocity": 58,
            "startTime": 2.08,
            "duration": 1.8
          },
          {
            "note": 72,
            "velocity": 56,
            "startTime": 2.08,
            "duration": 1.8
          },
          {
            "note": 76,
            "velocity": 60,
            "startTime": 2.08,
            "duration": 1.8
          },
          {
            "note": 62,
            "velocity": 64,
            "startTime": 4.17,
            "duration": 3.5
          },
          {
            "note": 66,
            "velocity": 60,
            "startTime": 4.17,
            "duration": 3.5
          },
          {
            "note": 69,
            "velocity": 58,
            "startTime": 4.17,
            "duration": 3.5
          },
          {
            "note": 73,
            "velocity": 62,
            "startTime": 4.17,
            "duration": 3.5
          },
          {
            "note": 64,
            "velocity": 60,
            "startTime": 8.35,
            "duration": 1.8
          },
          {
            "note": 67,
            "velocity": 58,
            "startTime": 8.35,
            "duration": 1.8
          },
          {
            "note": 71,
            "velocity": 55,
            "startTime": 8.35,
            "duration": 1.8
          },
          {
            "note": 74,
            "velocity": 57,
            "startTime": 8.35,
            "duration": 1.8
          },
          {
            "note": 65,
            "velocity": 62,
            "startTime": 10.43,
            "duration": 1.8
          },
          {
            "note": 69,
            "velocity": 58,
            "startTime": 10.43,
            "duration": 1.8
          },
          {
            "note": 72,
            "velocity": 56,
            "startTime": 10.43,
            "duration": 1.8
          },
          {
            "note": 76,
            "velocity": 60,
            "startTime": 10.43,
            "duration": 1.8
          },
          {
            "note": 62,
            "velocity": 64,
            "startTime": 12.52,
            "duration": 3.5
          },
          {
            "note": 66,
            "velocity": 60,
            "startTime": 12.52,
            "duration": 3.5
          },
          {
            "note": 69,
            "velocity": 58,
            "startTime": 12.52,
            "duration": 3.5
          },
          {
            "note": 73,
            "velocity": 62,
            "startTime": 12.52,
            "duration": 3.5
          },
          {
            "note": 64,
            "velocity": 60,
            "startTime": 16.7,
            "duration": 1.8
          },
          {
            "note": 67,
            "velocity": 58,
            "startTime": 16.7,
            "duration": 1.8
          },
          {
            "note": 71,
            "velocity": 55,
            "startTime": 16.7,
            "duration": 1.8
          },
          {
            "note": 74,
            "velocity": 57,
            "startTime": 16.7,
            "duration": 1.8
          },
          {
            "note": 65,
            "velocity": 62,
            "startTime": 18.78,
            "duration": 1.8
          },
          {
            "note": 69,
            "velocity": 58,
            "startTime": 18.78,
            "duration": 1.8
          },
          {
            "note": 72,
            "velocity": 56,
            "startTime": 18.78,
            "duration": 1.8
          },
          {
            "note": 76,
            "velocity": 60,
            "startTime": 18.78,
            "duration": 1.8
          },
          {
            "note": 62,
            "velocity": 64,
            "startTime": 20.87,
            "duration": 3.5
          },
          {
            "note": 66,
            "velocity": 60,
            "startTime": 20.87,
            "duration": 3.5
          },
          {
            "note": 69,
            "velocity": 58,
            "startTime": 20.87,
            "duration": 3.5
          },
          {
            "note": 73,
            "velocity": 62,
            "startTime": 20.87,
            "duration": 3.5
          },
          {
            "note": 64,
            "velocity": 60,
            "startTime": 25.04,
            "duration": 1.8
          },
          {
            "note": 67,
            "velocity": 58,
            "startTime": 25.04,
            "duration": 1.8
          },
          {
            "note": 71,
            "velocity": 55,
            "startTime": 25.04,
            "duration": 1.8
          },
          {
            "note": 74,
            "velocity": 57,
            "startTime": 25.04,
            "duration": 1.8
          },
          {
            "note": 65,
            "velocity": 62,
            "startTime": 27.13,
            "duration": 1.8
          },
          {
            "note": 69,
            "velocity": 58,
            "startTime": 27.13,
            "duration": 1.8
          },
          {
            "note": 72,
            "velocity": 56,
            "startTime": 27.13,
            "duration": 1.8
          },
          {
            "note": 76,
            "velocity": 60,
            "startTime": 27.13,
            "duration": 1.8
          },
          {
            "note": 62,
            "velocity": 64,
            "startTime": 29.22,
            "duration": 3.5
          },
          {
            "note": 66,
            "velocity": 60,
            "startTime": 29.22,
            "duration": 3.5
          },
          {
            "note": 69,
            "velocity": 58,
            "startTime": 29.22,
            "duration": 3.5
          },
          {
            "note": 73,
            "velocity": 62,
            "startTime": 29.22,
            "duration": 3.5
          },
          {
            "note": 64,
            "velocity": 60,
            "startTime": 33.39,
            "duration": 1.8
          },
          {
            "note": 67,
            "velocity": 58,
            "startTime": 33.39,
            "duration": 1.8
          },
          {
            "note": 71,
            "velocity": 55,
            "startTime": 33.39,
            "duration": 1.8
          },
          {
            "note": 74,
            "velocity": 57,
            "startTime": 33.39,
            "duration": 1.8
          },
          {
            "note": 65,
            "velocity": 62,
            "startTime": 35.48,
            "duration": 1.8
          },
          {
            "note": 69,
            "velocity": 58,
            "startTime": 35.48,
            "duration": 1.8
          },
          {
            "note": 72,
            "velocity": 56,
            "startTime": 35.48,
            "duration": 1.8
          },
          {
            "note": 76,
            "velocity": 60,
            "startTime": 35.48,
            "duration": 1.8
          },
          {
            "note": 62,
            "velocity": 64,
            "startTime": 37.57,
            "duration": 3.5
          },
          {
            "note": 66,
            "velocity": 60,
            "startTime": 37.57,
            "duration": 3.5
          },
          {
            "note": 69,
            "velocity": 58,
            "startTime": 37.57,
            "duration": 3.5
          },
          {
            "note": 73,
            "velocity": 62,
            "startTime": 37.57,
            "duration": 3.5
          },
          {
            "note": 64,
            "velocity": 58,
            "startTime": 41.74,
            "duration": 1.8
          },
          {
            "note": 67,
            "velocity": 55,
            "startTime": 41.74,
            "duration": 1.8
          },
          {
            "note": 71,
            "velocity": 53,
            "startTime": 41.74,
            "duration": 1.8
          },
          {
            "note": 74,
            "velocity": 56,
            "startTime": 41.74,
            "duration": 1.8
          },
          {
            "note": 62,
            "velocity": 60,
            "startTime": 43.83,
            "duration": 1.2
          },
          {
            "note": 66,
            "velocity": 56,
            "startTime": 43.83,
            "duration": 1.2
          },
          {
            "note": 69,
            "velocity": 54,
            "startTime": 43.83,
            "duration": 1.2
          },
          {
            "note": 73,
            "velocity": 58,
            "startTime": 43.83,
            "duration": 1.2
          }
        ]
      },
      {
        "name": "Boom-Bap Drums",
        "program": 0,
        "role": "drums",
        "totalDuration": 45,
        "notes": [
          {
            "note": 36,
            "velocity": 110,
            "startTime": 0,
            "duration": 0.3
          },
          {
            "note": 42,
            "velocity": 80,
            "startTime": 0,
            "duration": 0.2
          },
          {
            "note": 42,
            "velocity": 75,
            "startTime": 0.52,
            "duration": 0.2
          },
          {
            "note": 38,
            "velocity": 105,
            "startTime": 1.04,
            "duration": 0.3
          },
          {
            "note": 42,
            "velocity": 78,
            "startTime": 1.04,
            "duration": 0.2
          },
          {
            "note": 42,
            "velocity": 72,
            "startTime": 1.56,
            "duration": 0.2
          },
          {
            "note": 36,
            "velocity": 108,
            "startTime": 2.08,
            "duration": 0.3
          },
          {
            "note": 42,
            "velocity": 80,
            "startTime": 2.08,
            "duration": 0.2
          },
          {
            "note": 36,
            "velocity": 95,
            "startTime": 2.86,
            "duration": 0.2
          },
          {
            "note": 42,
            "velocity": 76,
            "startTime": 2.6,
            "duration": 0.2
          },
          {
            "note": 38,
            "velocity": 107,
            "startTime": 3.12,
            "duration": 0.3
          },
          {
            "note": 42,
            "velocity": 80,
            "startTime": 3.12,
            "duration": 0.2
          },
          {
            "note": 42,
            "velocity": 74,
            "startTime": 3.65,
            "duration": 0.2
          },
          {
            "note": 36,
            "velocity": 110,
            "startTime": 4.17,
            "duration": 0.3
          },
          {
            "note": 42,
            "velocity": 80,
            "startTime": 4.17,
            "duration": 0.2
          },
          {
            "note": 42,
            "velocity": 75,
            "startTime": 4.69,
            "duration": 0.2
          },
          {
            "note": 38,
            "velocity": 105,
            "startTime": 5.21,
            "duration": 0.3
          },
          {
            "note": 42,
            "velocity": 78,
            "startTime": 5.21,
            "duration": 0.2
          },
          {
            "note": 42,
            "velocity": 72,
            "startTime": 5.74,
            "duration": 0.2
          },
          {
            "note": 36,
            "velocity": 108,
            "startTime": 6.26,
            "duration": 0.3
          },
          {
            "note": 42,
            "velocity": 80,
            "startTime": 6.26,
            "duration": 0.2
          },
          {
            "note": 36,
            "velocity": 95,
            "startTime": 7.04,
            "duration": 0.2
          },
          {
            "note": 42,
            "velocity": 76,
            "startTime": 6.78,
            "duration": 0.2
          },
          {
            "note": 38,
            "velocity": 107,
            "startTime": 7.3,
            "duration": 0.3
          },
          {
            "note": 42,
            "velocity": 80,
            "startTime": 7.3,
            "duration": 0.2
          },
          {
            "note": 42,
            "velocity": 74,
            "startTime": 7.83,
            "duration": 0.2
          },
          {
            "note": 36,
            "velocity": 110,
            "startTime": 8.35,
            "duration": 0.3
          },
          {
            "note": 42,
            "velocity": 80,
            "startTime": 8.35,
            "duration": 0.2
          },
          {
            "note": 42,
            "velocity": 75,
            "startTime": 8.87,
            "duration": 0.2
          },
          {
            "note": 38,
            "velocity": 105,
            "startTime": 9.39,
            "duration": 0.3
          },
          {
            "note": 42,
            "velocity": 78,
            "startTime": 9.39,
            "duration": 0.2
          },
          {
            "note": 42,
            "velocity": 72,
            "startTime": 9.91,
            "duration": 0.2
          },
          {
            "note": 36,
            "velocity": 108,
            "startTime": 10.43,
            "duration": 0.3
          },
          {
            "note": 42,
            "velocity": 80,
            "startTime": 10.43,
            "duration": 0.2
          },
          {
            "note": 36,
            "velocity": 95,
            "startTime": 11.22,
            "duration": 0.2
          },
          {
            "note": 42,
            "velocity": 76,
            "startTime": 10.96,
            "duration": 0.2
          },
          {
            "note": 38,
            "velocity": 107,
            "startTime": 11.48,
            "duration": 0.3
          },
          {
            "note": 42,
            "velocity": 80,
            "startTime": 11.48,
            "duration": 0.2
          },
          {
            "note": 42,
            "velocity": 74,
            "startTime": 12.0,
            "duration": 0.2
          },
          {
            "note": 36,
            "velocity": 110,
            "startTime": 12.52,
            "duration": 0.3
          },
          {
            "note": 42,
            "velocity": 80,
            "startTime": 12.52,
            "duration": 0.2
          },
          {
            "note": 42,
            "velocity": 75,
            "startTime": 13.04,
            "duration": 0.2
          },
          {
            "note": 38,
            "velocity": 105,
            "startTime": 13.56,
            "duration": 0.3
          },
          {
            "note": 42,
            "velocity": 78,
            "startTime": 13.56,
            "duration": 0.2
          },
          {
            "note": 42,
            "velocity": 72,
            "startTime": 14.09,
            "duration": 0.2
          },
          {
            "note": 36,
            "velocity": 108,
            "startTime": 14.61,
            "duration": 0.3
          },
          {
            "note": 42,
            "velocity": 80,
            "startTime": 14.61,
            "duration": 0.2
          },
          {
            "note": 36,
            "velocity": 95,
            "startTime": 15.39,
            "duration": 0.2
          },
          {
            "note": 42,
            "velocity": 76,
            "startTime": 15.13,
            "duration": 0.2
          },
          {
            "note": 38,
            "velocity": 107,
            "startTime": 15.65,
            "duration": 0.3
          },
          {
            "note": 42,
            "velocity": 80,
            "startTime": 15.65,
            "duration": 0.2
          },
          {
            "note": 42,
            "velocity": 74,
            "startTime": 16.17,
            "duration": 0.2
          },
          {
            "note": 36,
            "velocity": 110,
            "startTime": 16.7,
            "duration": 0.3
          },
          {
            "note": 42,
            "velocity": 80,
            "startTime": 16.7,
            "duration": 0.2
          },
          {
            "note": 42,
            "velocity": 75,
            "startTime": 17.22,
            "duration": 0.2
          },
          {
            "note": 38,
            "velocity": 105,
            "startTime": 17.74,
            "duration": 0.3
          },
          {
            "note": 42,
            "velocity": 78,
            "startTime": 17.74,
            "duration": 0.2
          },
          {
            "note": 42,
            "velocity": 72,
            "startTime": 18.26,
            "duration": 0.2
          },
          {
            "note": 36,
            "velocity": 108,
            "startTime": 18.78,
            "duration": 0.3
          },
          {
            "note": 42,
            "velocity": 80,
            "startTime": 18.78,
            "duration": 0.2
          },
          {
            "note": 36,
            "velocity": 95,
            "startTime": 19.57,
            "duration": 0.2
          },
          {
            "note": 42,
            "velocity": 76,
            "startTime": 19.3,
            "duration": 0.2
          },
          {
            "note": 38,
            "velocity": 107,
            "startTime": 19.83,
            "duration": 0.3
          },
          {
            "note": 42,
            "velocity": 80,
            "startTime": 19.83,
            "duration": 0.2
          },
          {
            "note": 42,
            "velocity": 74,
            "startTime": 20.35,
            "duration": 0.2
          },
          {
            "note": 36,
            "velocity": 110,
            "startTime": 20.87,
            "duration": 0.3
          },
          {
            "note": 42,
            "velocity": 80,
            "startTime": 20.87,
            "duration": 0.2
          },
          {
            "note": 42,
            "velocity": 75,
            "startTime": 21.39,
            "duration": 0.2
          },
          {
            "note": 38,
            "velocity": 105,
            "startTime": 21.91,
            "duration": 0.3
          },
          {
            "note": 42,
            "velocity": 78,
            "startTime": 21.91,
            "duration": 0.2
          },
          {
            "note": 42,
            "velocity": 72,
            "startTime": 22.44,
            "duration": 0.2
          },
          {
            "note": 36,
            "velocity": 108,
            "startTime": 22.96,
            "duration": 0.3
          },
          {
            "note": 42,
            "velocity": 80,
            "startTime": 22.96,
            "duration": 0.2
          },
          {
            "note": 36,
            "velocity": 95,
            "startTime": 23.74,
            "duration": 0.2
          },
          {
            "note": 42,
            "velocity": 76,
            "startTime": 23.48,
            "duration": 0.2
          },
          {
            "note": 38,
            "velocity": 107,
            "startTime": 24.0,
            "duration": 0.3
          },
          {
            "note": 42,
            "velocity": 80,
            "startTime": 24.0,
            "duration": 0.2
          },
          {
            "note": 42,
            "velocity": 74,
            "startTime": 24.52,
            "duration": 0.2
          },
          {
            "note": 36,
            "velocity": 110,
            "startTime": 25.04,
            "duration": 0.3
          },
          {
            "note": 42,
            "velocity": 80,
            "startTime": 25.04,
            "duration": 0.2
          },
          {
            "note": 42,
            "velocity": 75,
            "startTime": 25.57,
            "duration": 0.2
          },
          {
            "note": 38,
            "velocity": 105,
            "startTime": 26.09,
            "duration": 0.3
          },
          {
            "note": 42,
            "velocity": 78,
            "startTime": 26.09,
            "duration": 0.2
          },
          {
            "note": 42,
            "velocity": 72,
            "startTime": 26.61,
            "duration": 0.2
          },
          {
            "note": 36,
            "velocity": 108,
            "startTime": 27.13,
            "duration": 0.3
          },
          {
            "note": 42,
            "velocity": 80,
            "startTime": 27.13,
            "duration": 0.2
          },
          {
            "note": 36,
            "velocity": 95,
            "startTime": 27.91,
            "duration": 0.2
          },
          {
            "note": 42,
            "velocity": 76,
            "startTime": 27.65,
            "duration": 0.2
          },
          {
            "note": 38,
            "velocity": 107,
            "startTime": 28.17,
            "duration": 0.3
          },
          {
            "note": 42,
            "velocity": 80,
            "startTime": 28.17,
            "duration": 0.2
          },
          {
            "note": 42,
            "velocity": 74,
            "startTime": 28.7,
            "duration": 0.2
          },
          {
            "note": 36,
            "velocity": 110,
            "startTime": 29.22,
            "duration": 0.3
          },
          {
            "note": 42,
            "velocity": 80,
            "startTime": 29.22,
            "duration": 0.2
          },
          {
            "note": 42,
            "velocity": 75,
            "startTime": 29.74,
            "duration": 0.2
          },
          {
            "note": 38,
            "velocity": 105,
            "startTime": 30.26,
            "duration": 0.3
          },
          {
            "note": 42,
            "velocity": 78,
            "startTime": 30.26,
            "duration": 0.2
          },
          {
            "note": 42,
            "velocity": 72,
            "startTime": 30.78,
            "duration": 0.2
          },
          {
            "note": 36,
            "velocity": 108,
            "startTime": 31.3,
            "duration": 0.3
          },
          {
            "note": 42,
            "velocity": 80,
            "startTime": 31.3,
            "duration": 0.2
          },
          {
            "note": 36,
            "velocity": 95,
            "startTime": 32.09,
            "duration": 0.2
          },
          {
            "note": 42,
            "velocity": 76,
            "startTime": 31.83,
            "duration": 0.2
          },
          {
            "note": 38,
            "velocity": 107,
            "startTime": 32.35,
            "duration": 0.3
          },
          {
            "note": 42,
            "velocity": 80,
            "startTime": 32.35,
            "duration": 0.2
          },
          {
            "note": 42,
            "velocity": 74,
            "startTime": 32.87,
            "duration": 0.2
          },
          {
            "note": 36,
            "velocity": 110,
            "startTime": 33.39,
            "duration": 0.3
          },
          {
            "note": 42,
            "velocity": 80,
            "startTime": 33.39,
            "duration": 0.2
          },
          {
            "note": 42,
            "velocity": 75,
            "startTime": 33.91,
            "duration": 0.2
          },
          {
            "note": 38,
            "velocity": 105,
            "startTime": 34.43,
            "duration": 0.3
          },
          {
            "note": 42,
            "velocity": 78,
            "startTime": 34.43,
            "duration": 0.2
          },
          {
            "note": 42,
            "velocity": 72,
            "startTime": 34.96,
            "duration": 0.2
          },
          {
            "note": 36,
            "velocity": 108,
            "startTime": 35.48,
            "duration": 0.3
          },
          {
            "note": 42,
            "velocity": 80,
            "startTime": 35.48,
            "duration": 0.2
          },
          {
            "note": 36,
            "velocity": 95,
            "startTime": 36.26,
            "duration": 0.2
          },
          {
            "note": 42,
            "velocity": 76,
            "startTime": 36.0,
            "duration": 0.2
          },
          {
            "note": 38,
            "velocity": 107,
            "startTime": 36.52,
            "duration": 0.3
          },
          {
            "note": 42,
            "velocity": 80,
            "startTime": 36.52,
            "duration": 0.2
          },
          {
            "note": 42,
            "velocity": 74,
            "startTime": 37.04,
            "duration": 0.2
          },
          {
            "note": 36,
            "velocity": 110,
            "startTime": 37.57,
            "duration": 0.3
          },
          {
            "note": 42,
            "velocity": 80,
            "startTime": 37.57,
            "duration": 0.2
          },
          {
            "note": 42,
            "velocity": 75,
            "startTime": 38.09,
            "duration": 0.2
          },
          {
            "note": 38,
            "velocity": 105,
            "startTime": 38.61,
            "duration": 0.3
          },
          {
            "note": 42,
            "velocity": 78,
            "startTime": 38.61,
            "duration": 0.2
          },
          {
            "note": 42,
            "velocity": 72,
            "startTime": 39.13,
            "duration": 0.2
          },
          {
            "note": 36,
            "velocity": 108,
            "startTime": 39.65,
            "duration": 0.3
          },
          {
            "note": 42,
            "velocity": 80,
            "startTime": 39.65,
            "duration": 0.2
          },
          {
            "note": 36,
            "velocity": 95,
            "startTime": 40.43,
            "duration": 0.2
          },
          {
            "note": 42,
            "velocity": 76,
            "startTime": 40.17,
            "duration": 0.2
          },
          {
            "note": 38,
            "velocity": 107,
            "startTime": 40.7,
            "duration": 0.3
          },
          {
            "note": 42,
            "velocity": 80,
            "startTime": 40.7,
            "duration": 0.2
          },
          {
            "note": 42,
            "velocity": 74,
            "startTime": 41.22,
            "duration": 0.2
          },
          {
            "note": 36,
            "velocity": 110,
            "startTime": 41.74,
            "duration": 0.3
          },
          {
            "note": 42,
            "velocity": 80,
            "startTime": 41.74,
            "duration": 0.2
          },
          {
            "note": 42,
            "velocity": 75,
            "startTime": 42.26,
            "duration": 0.2
          },
          {
            "note": 38,
            "velocity": 105,
            "startTime": 42.78,
            "duration": 0.3
          },
          {
            "note": 42,
            "velocity": 78,
            "startTime": 42.78,
            "duration": 0.2
          },
          {
            "note": 42,
            "velocity": 72,
            "startTime": 43.3,
            "duration": 0.2
          },
          {
            "note": 36,
            "velocity": 108,
            "startTime": 43.83,
            "duration": 0.3
          },
          {
            "note": 42,
            "velocity": 80,
            "startTime": 43.83,
            "duration": 0.2
          },
          {
            "note": 49,
            "velocity": 90,
            "startTime": 44.35,
            "duration": 0.6
          }
        ]
      }
    ],
    "key": "D",
    "bpm": 115,
    "scale": "minor pentatonic"
  },
  {
    "genre": "jazz",
    "mode": "focus",
    "tracks": [
      {
        "name": "Piano Melody",
        "program": 0,
        "role": "melody",
        "totalDuration": 45,
        "notes": [
          {
            "note": 72,
            "velocity": 70,
            "startTime": 0,
            "duration": 0.8
          },
          {
            "note": 74,
            "velocity": 65,
            "startTime": 0.9,
            "duration": 0.6
          },
          {
            "note": 75,
            "velocity": 72,
            "startTime": 1.6,
            "duration": 1.0
          },
          {
            "note": 77,
            "velocity": 68,
            "startTime": 2.8,
            "duration": 0.7
          },
          {
            "note": 79,
            "velocity": 74,
            "startTime": 3.6,
            "duration": 1.2
          },
          {
            "note": 77,
            "velocity": 60,
            "startTime": 5.0,
            "duration": 0.8
          },
          {
            "note": 75,
            "velocity": 66,
            "startTime": 6.0,
            "duration": 0.9
          },
          {
            "note": 72,
            "velocity": 70,
            "startTime": 7.2,
            "duration": 1.4
          },
          {
            "note": 74,
            "velocity": 58,
            "startTime": 8.8,
            "duration": 0.6
          },
          {
            "note": 70,
            "velocity": 64,
            "startTime": 9.6,
            "duration": 1.0
          },
          {
            "note": 72,
            "velocity": 72,
            "startTime": 11.2,
            "duration": 1.6
          },
          {
            "note": 75,
            "velocity": 68,
            "startTime": 13.0,
            "duration": 0.8
          },
          {
            "note": 77,
            "velocity": 70,
            "startTime": 14.0,
            "duration": 0.7
          },
          {
            "note": 79,
            "velocity": 65,
            "startTime": 14.9,
            "duration": 1.0
          },
          {
            "note": 82,
            "velocity": 75,
            "startTime": 16.2,
            "duration": 1.2
          },
          {
            "note": 79,
            "velocity": 62,
            "startTime": 17.6,
            "duration": 0.8
          },
          {
            "note": 77,
            "velocity": 66,
            "startTime": 18.6,
            "duration": 0.9
          },
          {
            "note": 75,
            "velocity": 60,
            "startTime": 19.8,
            "duration": 1.4
          },
          {
            "note": 72,
            "velocity": 68,
            "startTime": 21.4,
            "duration": 1.0
          },
          {
            "note": 74,
            "velocity": 64,
            "startTime": 22.6,
            "duration": 0.7
          },
          {
            "note": 75,
            "velocity": 70,
            "startTime": 23.6,
            "duration": 1.2
          },
          {
            "note": 77,
            "velocity": 66,
            "startTime": 25.0,
            "duration": 0.8
          },
          {
            "note": 79,
            "velocity": 72,
            "startTime": 26.0,
            "duration": 1.0
          },
          {
            "note": 84,
            "velocity": 74,
            "startTime": 27.2,
            "duration": 1.4
          },
          {
            "note": 82,
            "velocity": 62,
            "startTime": 28.8,
            "duration": 0.8
          },
          {
            "note": 79,
            "velocity": 66,
            "startTime": 29.8,
            "duration": 1.0
          },
          {
            "note": 77,
            "velocity": 58,
            "startTime": 31.0,
            "duration": 0.7
          },
          {
            "note": 75,
            "velocity": 64,
            "startTime": 32.0,
            "duration": 1.2
          },
          {
            "note": 72,
            "velocity": 70,
            "startTime": 33.4,
            "duration": 1.6
          },
          {
            "note": 70,
            "velocity": 60,
            "startTime": 35.2,
            "duration": 0.8
          },
          {
            "note": 72,
            "velocity": 66,
            "startTime": 36.2,
            "duration": 1.0
          },
          {
            "note": 74,
            "velocity": 68,
            "startTime": 37.4,
            "duration": 0.7
          },
          {
            "note": 75,
            "velocity": 72,
            "startTime": 38.4,
            "duration": 1.2
          },
          {
            "note": 77,
            "velocity": 65,
            "startTime": 39.8,
            "duration": 0.8
          },
          {
            "note": 79,
            "velocity": 70,
            "startTime": 40.8,
            "duration": 1.0
          },
          {
            "note": 75,
            "velocity": 58,
            "startTime": 42.0,
            "duration": 0.9
          },
          {
            "note": 72,
            "velocity": 62,
            "startTime": 43.2,
            "duration": 1.8
          }
        ]
      },
      {
        "name": "Acoustic Bass",
        "program": 32,
        "role": "bass",
        "totalDuration": 45,
        "notes": [
          {
            "note": 38,
            "velocity": 80,
            "startTime": 0,
            "duration": 0.7
          },
          {
            "note": 43,
            "velocity": 72,
            "startTime": 0.8,
            "duration": 0.7
          },
          {
            "note": 45,
            "velocity": 76,
            "startTime": 1.6,
            "duration": 0.7
          },
          {
            "note": 43,
            "velocity": 70,
            "startTime": 2.4,
            "duration": 0.7
          },
          {
            "note": 41,
            "velocity": 78,
            "startTime": 3.2,
            "duration": 0.7
          },
          {
            "note": 43,
            "velocity": 74,
            "startTime": 4.0,
            "duration": 0.7
          },
          {
            "note": 45,
            "velocity": 72,
            "startTime": 4.8,
            "duration": 0.7
          },
          {
            "note": 48,
            "velocity": 76,
            "startTime": 5.6,
            "duration": 0.7
          },
          {
            "note": 36,
            "velocity": 80,
            "startTime": 6.4,
            "duration": 0.7
          },
          {
            "note": 41,
            "velocity": 74,
            "startTime": 7.2,
            "duration": 0.7
          },
          {
            "note": 43,
            "velocity": 72,
            "startTime": 8.0,
            "duration": 0.7
          },
          {
            "note": 36,
            "velocity": 78,
            "startTime": 8.8,
            "duration": 0.7
          },
          {
            "note": 38,
            "velocity": 80,
            "startTime": 9.6,
            "duration": 0.7
          },
          {
            "note": 43,
            "velocity": 74,
            "startTime": 10.4,
            "duration": 0.7
          },
          {
            "note": 45,
            "velocity": 76,
            "startTime": 11.2,
            "duration": 0.7
          },
          {
            "note": 43,
            "velocity": 70,
            "startTime": 12.0,
            "duration": 0.7
          },
          {
            "note": 41,
            "velocity": 78,
            "startTime": 12.8,
            "duration": 0.7
          },
          {
            "note": 43,
            "velocity": 72,
            "startTime": 13.6,
            "duration": 0.7
          },
          {
            "note": 45,
            "velocity": 74,
            "startTime": 14.4,
            "duration": 0.7
          },
          {
            "note": 48,
            "velocity": 76,
            "startTime": 15.2,
            "duration": 0.7
          },
          {
            "note": 36,
            "velocity": 80,
            "startTime": 16.0,
            "duration": 0.7
          },
          {
            "note": 41,
            "velocity": 74,
            "startTime": 16.8,
            "duration": 0.7
          },
          {
            "note": 43,
            "velocity": 72,
            "startTime": 17.6,
            "duration": 0.7
          },
          {
            "note": 36,
            "velocity": 76,
            "startTime": 18.4,
            "duration": 0.7
          },
          {
            "note": 38,
            "velocity": 80,
            "startTime": 19.2,
            "duration": 0.7
          },
          {
            "note": 43,
            "velocity": 74,
            "startTime": 20.0,
            "duration": 0.7
          },
          {
            "note": 45,
            "velocity": 76,
            "startTime": 20.8,
            "duration": 0.7
          },
          {
            "note": 43,
            "velocity": 70,
            "startTime": 21.6,
            "duration": 0.7
          },
          {
            "note": 41,
            "velocity": 78,
            "startTime": 22.4,
            "duration": 0.7
          },
          {
            "note": 43,
            "velocity": 72,
            "startTime": 23.2,
            "duration": 0.7
          },
          {
            "note": 45,
            "velocity": 74,
            "startTime": 24.0,
            "duration": 0.7
          },
          {
            "note": 48,
            "velocity": 76,
            "startTime": 24.8,
            "duration": 0.7
          },
          {
            "note": 36,
            "velocity": 80,
            "startTime": 25.6,
            "duration": 0.7
          },
          {
            "note": 41,
            "velocity": 74,
            "startTime": 26.4,
            "duration": 0.7
          },
          {
            "note": 43,
            "velocity": 72,
            "startTime": 27.2,
            "duration": 0.7
          },
          {
            "note": 36,
            "velocity": 76,
            "startTime": 28.0,
            "duration": 0.7
          },
          {
            "note": 38,
            "velocity": 80,
            "startTime": 28.8,
            "duration": 0.7
          },
          {
            "note": 43,
            "velocity": 74,
            "startTime": 29.6,
            "duration": 0.7
          },
          {
            "note": 45,
            "velocity": 76,
            "startTime": 30.4,
            "duration": 0.7
          },
          {
            "note": 43,
            "velocity": 70,
            "startTime": 31.2,
            "duration": 0.7
          },
          {
            "note": 41,
            "velocity": 78,
            "startTime": 32.0,
            "duration": 0.7
          },
          {
            "note": 43,
            "velocity": 72,
            "startTime": 32.8,
            "duration": 0.7
          },
          {
            "note": 45,
            "velocity": 74,
            "startTime": 33.6,
            "duration": 0.7
          },
          {
            "note": 48,
            "velocity": 76,
            "startTime": 34.4,
            "duration": 0.7
          },
          {
            "note": 36,
            "velocity": 80,
            "startTime": 35.2,
            "duration": 0.7
          },
          {
            "note": 41,
            "velocity": 74,
            "startTime": 36.0,
            "duration": 0.7
          },
          {
            "note": 43,
            "velocity": 72,
            "startTime": 36.8,
            "duration": 0.7
          },
          {
            "note": 36,
            "velocity": 76,
            "startTime": 37.6,
            "duration": 0.7
          },
          {
            "note": 38,
            "velocity": 78,
            "startTime": 38.4,
            "duration": 0.7
          },
          {
            "note": 43,
            "velocity": 74,
            "startTime": 39.2,
            "duration": 0.7
          },
          {
            "note": 45,
            "velocity": 72,
            "startTime": 40.0,
            "duration": 0.7
          },
          {
            "note": 41,
            "velocity": 76,
            "startTime": 40.8,
            "duration": 0.7
          },
          {
            "note": 36,
            "velocity": 80,
            "startTime": 41.6,
            "duration": 0.7
          },
          {
            "note": 43,
            "velocity": 70,
            "startTime": 42.4,
            "duration": 0.7
          },
          {
            "note": 36,
            "velocity": 74,
            "startTime": 43.2,
            "duration": 1.8
          }
        ]
      },
      {
        "name": "Piano Chords",
        "program": 0,
        "role": "chords",
        "totalDuration": 45,
        "notes": [
          {
            "note": 62,
            "velocity": 55,
            "startTime": 0,
            "duration": 1.4
          },
          {
            "note": 65,
            "velocity": 55,
            "startTime": 0,
            "duration": 1.4
          },
          {
            "note": 69,
            "velocity": 55,
            "startTime": 0,
            "duration": 1.4
          },
          {
            "note": 72,
            "velocity": 52,
            "startTime": 0,
            "duration": 1.4
          },
          {
            "note": 55,
            "velocity": 58,
            "startTime": 1.6,
            "duration": 1.4
          },
          {
            "note": 62,
            "velocity": 55,
            "startTime": 1.6,
            "duration": 1.4
          },
          {
            "note": 65,
            "velocity": 55,
            "startTime": 1.6,
            "duration": 1.4
          },
          {
            "note": 69,
            "velocity": 52,
            "startTime": 1.6,
            "duration": 1.4
          },
          {
            "note": 60,
            "velocity": 58,
            "startTime": 3.2,
            "duration": 2.8
          },
          {
            "note": 63,
            "velocity": 55,
            "startTime": 3.2,
            "duration": 2.8
          },
          {
            "note": 67,
            "velocity": 55,
            "startTime": 3.2,
            "duration": 2.8
          },
          {
            "note": 72,
            "velocity": 52,
            "startTime": 3.2,
            "duration": 2.8
          },
          {
            "note": 62,
            "velocity": 55,
            "startTime": 6.4,
            "duration": 1.4
          },
          {
            "note": 65,
            "velocity": 55,
            "startTime": 6.4,
            "duration": 1.4
          },
          {
            "note": 69,
            "velocity": 55,
            "startTime": 6.4,
            "duration": 1.4
          },
          {
            "note": 72,
            "velocity": 52,
            "startTime": 6.4,
            "duration": 1.4
          },
          {
            "note": 55,
            "velocity": 58,
            "startTime": 8.0,
            "duration": 1.4
          },
          {
            "note": 62,
            "velocity": 55,
            "startTime": 8.0,
            "duration": 1.4
          },
          {
            "note": 65,
            "velocity": 55,
            "startTime": 8.0,
            "duration": 1.4
          },
          {
            "note": 69,
            "velocity": 52,
            "startTime": 8.0,
            "duration": 1.4
          },
          {
            "note": 60,
            "velocity": 58,
            "startTime": 9.6,
            "duration": 2.8
          },
          {
            "note": 63,
            "velocity": 55,
            "startTime": 9.6,
            "duration": 2.8
          },
          {
            "note": 67,
            "velocity": 55,
            "startTime": 9.6,
            "duration": 2.8
          },
          {
            "note": 72,
            "velocity": 52,
            "startTime": 9.6,
            "duration": 2.8
          },
          {
            "note": 62,
            "velocity": 55,
            "startTime": 12.8,
            "duration": 1.4
          },
          {
            "note": 65,
            "velocity": 55,
            "startTime": 12.8,
            "duration": 1.4
          },
          {
            "note": 69,
            "velocity": 55,
            "startTime": 12.8,
            "duration": 1.4
          },
          {
            "note": 72,
            "velocity": 52,
            "startTime": 12.8,
            "duration": 1.4
          },
          {
            "note": 55,
            "velocity": 58,
            "startTime": 14.4,
            "duration": 1.4
          },
          {
            "note": 62,
            "velocity": 55,
            "startTime": 14.4,
            "duration": 1.4
          },
          {
            "note": 65,
            "velocity": 55,
            "startTime": 14.4,
            "duration": 1.4
          },
          {
            "note": 69,
            "velocity": 52,
            "startTime": 14.4,
            "duration": 1.4
          },
          {
            "note": 60,
            "velocity": 58,
            "startTime": 16.0,
            "duration": 2.8
          },
          {
            "note": 63,
            "velocity": 55,
            "startTime": 16.0,
            "duration": 2.8
          },
          {
            "note": 67,
            "velocity": 55,
            "startTime": 16.0,
            "duration": 2.8
          },
          {
            "note": 72,
            "velocity": 52,
            "startTime": 16.0,
            "duration": 2.8
          },
          {
            "note": 62,
            "velocity": 55,
            "startTime": 19.2,
            "duration": 1.4
          },
          {
            "note": 65,
            "velocity": 55,
            "startTime": 19.2,
            "duration": 1.4
          },
          {
            "note": 69,
            "velocity": 55,
            "startTime": 19.2,
            "duration": 1.4
          },
          {
            "note": 72,
            "velocity": 52,
            "startTime": 19.2,
            "duration": 1.4
          },
          {
            "note": 55,
            "velocity": 58,
            "startTime": 20.8,
            "duration": 1.4
          },
          {
            "note": 62,
            "velocity": 55,
            "startTime": 20.8,
            "duration": 1.4
          },
          {
            "note": 65,
            "velocity": 55,
            "startTime": 20.8,
            "duration": 1.4
          },
          {
            "note": 69,
            "velocity": 52,
            "startTime": 20.8,
            "duration": 1.4
          },
          {
            "note": 60,
            "velocity": 58,
            "startTime": 22.4,
            "duration": 2.8
          },
          {
            "note": 63,
            "velocity": 55,
            "startTime": 22.4,
            "duration": 2.8
          },
          {
            "note": 67,
            "velocity": 55,
            "startTime": 22.4,
            "duration": 2.8
          },
          {
            "note": 72,
            "velocity": 52,
            "startTime": 22.4,
            "duration": 2.8
          },
          {
            "note": 62,
            "velocity": 55,
            "startTime": 25.6,
            "duration": 1.4
          },
          {
            "note": 65,
            "velocity": 55,
            "startTime": 25.6,
            "duration": 1.4
          },
          {
            "note": 69,
            "velocity": 55,
            "startTime": 25.6,
            "duration": 1.4
          },
          {
            "note": 72,
            "velocity": 52,
            "startTime": 25.6,
            "duration": 1.4
          },
          {
            "note": 55,
            "velocity": 58,
            "startTime": 27.2,
            "duration": 1.4
          },
          {
            "note": 62,
            "velocity": 55,
            "startTime": 27.2,
            "duration": 1.4
          },
          {
            "note": 65,
            "velocity": 55,
            "startTime": 27.2,
            "duration": 1.4
          },
          {
            "note": 69,
            "velocity": 52,
            "startTime": 27.2,
            "duration": 1.4
          },
          {
            "note": 60,
            "velocity": 58,
            "startTime": 28.8,
            "duration": 2.8
          },
          {
            "note": 63,
            "velocity": 55,
            "startTime": 28.8,
            "duration": 2.8
          },
          {
            "note": 67,
            "velocity": 55,
            "startTime": 28.8,
            "duration": 2.8
          },
          {
            "note": 72,
            "velocity": 52,
            "startTime": 28.8,
            "duration": 2.8
          },
          {
            "note": 62,
            "velocity": 55,
            "startTime": 32.0,
            "duration": 1.4
          },
          {
            "note": 65,
            "velocity": 55,
            "startTime": 32.0,
            "duration": 1.4
          },
          {
            "note": 69,
            "velocity": 55,
            "startTime": 32.0,
            "duration": 1.4
          },
          {
            "note": 72,
            "velocity": 52,
            "startTime": 32.0,
            "duration": 1.4
          },
          {
            "note": 55,
            "velocity": 58,
            "startTime": 33.6,
            "duration": 1.4
          },
          {
            "note": 62,
            "velocity": 55,
            "startTime": 33.6,
            "duration": 1.4
          },
          {
            "note": 65,
            "velocity": 55,
            "startTime": 33.6,
            "duration": 1.4
          },
          {
            "note": 69,
            "velocity": 52,
            "startTime": 33.6,
            "duration": 1.4
          },
          {
            "note": 60,
            "velocity": 58,
            "startTime": 35.2,
            "duration": 2.8
          },
          {
            "note": 63,
            "velocity": 55,
            "startTime": 35.2,
            "duration": 2.8
          },
          {
            "note": 67,
            "velocity": 55,
            "startTime": 35.2,
            "duration": 2.8
          },
          {
            "note": 72,
            "velocity": 52,
            "startTime": 35.2,
            "duration": 2.8
          },
          {
            "note": 62,
            "velocity": 55,
            "startTime": 38.4,
            "duration": 1.4
          },
          {
            "note": 65,
            "velocity": 55,
            "startTime": 38.4,
            "duration": 1.4
          },
          {
            "note": 69,
            "velocity": 55,
            "startTime": 38.4,
            "duration": 1.4
          },
          {
            "note": 72,
            "velocity": 52,
            "startTime": 38.4,
            "duration": 1.4
          },
          {
            "note": 55,
            "velocity": 58,
            "startTime": 40.0,
            "duration": 1.4
          },
          {
            "note": 62,
            "velocity": 55,
            "startTime": 40.0,
            "duration": 1.4
          },
          {
            "note": 65,
            "velocity": 55,
            "startTime": 40.0,
            "duration": 1.4
          },
          {
            "note": 69,
            "velocity": 52,
            "startTime": 40.0,
            "duration": 1.4
          },
          {
            "note": 60,
            "velocity": 58,
            "startTime": 41.6,
            "duration": 3.4
          },
          {
            "note": 63,
            "velocity": 55,
            "startTime": 41.6,
            "duration": 3.4
          },
          {
            "note": 67,
            "velocity": 55,
            "startTime": 41.6,
            "duration": 3.4
          },
          {
            "note": 72,
            "velocity": 50,
            "startTime": 41.6,
            "duration": 3.4
          }
        ]
      },
      {
        "name": "Ride Cymbal",
        "program": 0,
        "role": "drums",
        "totalDuration": 45,
        "notes": [
          {
            "note": 51,
            "velocity": 60,
            "startTime": 0,
            "duration": 0.4
          },
          {
            "note": 51,
            "velocity": 50,
            "startTime": 0.53,
            "duration": 0.3
          },
          {
            "note": 51,
            "velocity": 62,
            "startTime": 0.8,
            "duration": 0.4
          },
          {
            "note": 51,
            "velocity": 48,
            "startTime": 1.33,
            "duration": 0.3
          },
          {
            "note": 51,
            "velocity": 60,
            "startTime": 1.6,
            "duration": 0.4
          },
          {
            "note": 51,
            "velocity": 50,
            "startTime": 2.13,
            "duration": 0.3
          },
          {
            "note": 51,
            "velocity": 62,
            "startTime": 2.4,
            "duration": 0.4
          },
          {
            "note": 51,
            "velocity": 48,
            "startTime": 2.93,
            "duration": 0.3
          },
          {
            "note": 51,
            "velocity": 60,
            "startTime": 3.2,
            "duration": 0.4
          },
          {
            "note": 51,
            "velocity": 50,
            "startTime": 3.73,
            "duration": 0.3
          },
          {
            "note": 51,
            "velocity": 62,
            "startTime": 4.0,
            "duration": 0.4
          },
          {
            "note": 51,
            "velocity": 48,
            "startTime": 4.53,
            "duration": 0.3
          },
          {
            "note": 51,
            "velocity": 60,
            "startTime": 4.8,
            "duration": 0.4
          },
          {
            "note": 51,
            "velocity": 50,
            "startTime": 5.33,
            "duration": 0.3
          },
          {
            "note": 51,
            "velocity": 62,
            "startTime": 5.6,
            "duration": 0.4
          },
          {
            "note": 51,
            "velocity": 48,
            "startTime": 6.13,
            "duration": 0.3
          },
          {
            "note": 51,
            "velocity": 60,
            "startTime": 6.4,
            "duration": 0.4
          },
          {
            "note": 51,
            "velocity": 50,
            "startTime": 6.93,
            "duration": 0.3
          },
          {
            "note": 51,
            "velocity": 62,
            "startTime": 7.2,
            "duration": 0.4
          },
          {
            "note": 51,
            "velocity": 48,
            "startTime": 7.73,
            "duration": 0.3
          },
          {
            "note": 51,
            "velocity": 60,
            "startTime": 8.0,
            "duration": 0.4
          },
          {
            "note": 51,
            "velocity": 50,
            "startTime": 8.53,
            "duration": 0.3
          },
          {
            "note": 51,
            "velocity": 62,
            "startTime": 8.8,
            "duration": 0.4
          },
          {
            "note": 51,
            "velocity": 48,
            "startTime": 9.33,
            "duration": 0.3
          },
          {
            "note": 51,
            "velocity": 60,
            "startTime": 9.6,
            "duration": 0.4
          },
          {
            "note": 51,
            "velocity": 50,
            "startTime": 10.13,
            "duration": 0.3
          },
          {
            "note": 51,
            "velocity": 62,
            "startTime": 10.4,
            "duration": 0.4
          },
          {
            "note": 51,
            "velocity": 48,
            "startTime": 10.93,
            "duration": 0.3
          },
          {
            "note": 51,
            "velocity": 60,
            "startTime": 11.2,
            "duration": 0.4
          },
          {
            "note": 51,
            "velocity": 50,
            "startTime": 11.73,
            "duration": 0.3
          },
          {
            "note": 51,
            "velocity": 62,
            "startTime": 12.0,
            "duration": 0.4
          },
          {
            "note": 51,
            "velocity": 48,
            "startTime": 12.53,
            "duration": 0.3
          },
          {
            "note": 51,
            "velocity": 60,
            "startTime": 12.8,
            "duration": 0.4
          },
          {
            "note": 51,
            "velocity": 50,
            "startTime": 13.33,
            "duration": 0.3
          },
          {
            "note": 51,
            "velocity": 62,
            "startTime": 13.6,
            "duration": 0.4
          },
          {
            "note": 51,
            "velocity": 48,
            "startTime": 14.13,
            "duration": 0.3
          },
          {
            "note": 51,
            "velocity": 60,
            "startTime": 14.4,
            "duration": 0.4
          },
          {
            "note": 51,
            "velocity": 50,
            "startTime": 14.93,
            "duration": 0.3
          },
          {
            "note": 51,
            "velocity": 62,
            "startTime": 15.2,
            "duration": 0.4
          },
          {
            "note": 51,
            "velocity": 48,
            "startTime": 15.73,
            "duration": 0.3
          },
          {
            "note": 51,
            "velocity": 60,
            "startTime": 16.0,
            "duration": 0.4
          },
          {
            "note": 51,
            "velocity": 50,
            "startTime": 16.53,
            "duration": 0.3
          },
          {
            "note": 51,
            "velocity": 62,
            "startTime": 16.8,
            "duration": 0.4
          },
          {
            "note": 51,
            "velocity": 48,
            "startTime": 17.33,
            "duration": 0.3
          },
          {
            "note": 51,
            "velocity": 60,
            "startTime": 17.6,
            "duration": 0.4
          },
          {
            "note": 51,
            "velocity": 50,
            "startTime": 18.13,
            "duration": 0.3
          },
          {
            "note": 51,
            "velocity": 62,
            "startTime": 18.4,
            "duration": 0.4
          },
          {
            "note": 51,
            "velocity": 48,
            "startTime": 18.93,
            "duration": 0.3
          },
          {
            "note": 51,
            "velocity": 60,
            "startTime": 19.2,
            "duration": 0.4
          },
          {
            "note": 51,
            "velocity": 50,
            "startTime": 19.73,
            "duration": 0.3
          },
          {
            "note": 51,
            "velocity": 62,
            "startTime": 20.0,
            "duration": 0.4
          },
          {
            "note": 51,
            "velocity": 48,
            "startTime": 20.53,
            "duration": 0.3
          },
          {
            "note": 51,
            "velocity": 60,
            "startTime": 20.8,
            "duration": 0.4
          },
          {
            "note": 51,
            "velocity": 50,
            "startTime": 21.33,
            "duration": 0.3
          },
          {
            "note": 51,
            "velocity": 62,
            "startTime": 21.6,
            "duration": 0.4
          },
          {
            "note": 51,
            "velocity": 48,
            "startTime": 22.13,
            "duration": 0.3
          },
          {
            "note": 51,
            "velocity": 60,
            "startTime": 22.4,
            "duration": 0.4
          },
          {
            "note": 51,
            "velocity": 50,
            "startTime": 22.93,
            "duration": 0.3
          },
          {
            "note": 51,
            "velocity": 62,
            "startTime": 23.2,
            "duration": 0.4
          },
          {
            "note": 51,
            "velocity": 48,
            "startTime": 23.73,
            "duration": 0.3
          },
          {
            "note": 51,
            "velocity": 60,
            "startTime": 24.0,
            "duration": 0.4
          },
          {
            "note": 51,
            "velocity": 50,
            "startTime": 24.53,
            "duration": 0.3
          },
          {
            "note": 51,
            "velocity": 62,
            "startTime": 24.8,
            "duration": 0.4
          },
          {
            "note": 51,
            "velocity": 48,
            "startTime": 25.33,
            "duration": 0.3
          },
          {
            "note": 51,
            "velocity": 60,
            "startTime": 25.6,
            "duration": 0.4
          },
          {
            "note": 51,
            "velocity": 50,
            "startTime": 26.13,
            "duration": 0.3
          },
          {
            "note": 51,
            "velocity": 62,
            "startTime": 26.4,
            "duration": 0.4
          },
          {
            "note": 51,
            "velocity": 48,
            "startTime": 26.93,
            "duration": 0.3
          },
          {
            "note": 51,
            "velocity": 60,
            "startTime": 27.2,
            "duration": 0.4
          },
          {
            "note": 51,
            "velocity": 50,
            "startTime": 27.73,
            "duration": 0.3
          },
          {
            "note": 51,
            "velocity": 62,
            "startTime": 28.0,
            "duration": 0.4
          },
          {
            "note": 51,
            "velocity": 48,
            "startTime": 28.53,
            "duration": 0.3
          },
          {
            "note": 51,
            "velocity": 60,
            "startTime": 28.8,
            "duration": 0.4
          },
          {
            "note": 51,
            "velocity": 50,
            "startTime": 29.33,
            "duration": 0.3
          },
          {
            "note": 51,
            "velocity": 62,
            "startTime": 29.6,
            "duration": 0.4
          },
          {
            "note": 51,
            "velocity": 48,
            "startTime": 30.13,
            "duration": 0.3
          },
          {
            "note": 51,
            "velocity": 60,
            "startTime": 30.4,
            "duration": 0.4
          },
          {
            "note": 51,
            "velocity": 50,
            "startTime": 30.93,
            "duration": 0.3
          },
          {
            "note": 51,
            "velocity": 62,
            "startTime": 31.2,
            "duration": 0.4
          },
          {
            "note": 51,
            "velocity": 48,
            "startTime": 31.73,
            "duration": 0.3
          },
          {
            "note": 51,
            "velocity": 60,
            "startTime": 32.0,
            "duration": 0.4
          },
          {
            "note": 51,
            "velocity": 50,
            "startTime": 32.53,
            "duration": 0.3
          },
          {
            "note": 51,
            "velocity": 62,
            "startTime": 32.8,
            "duration": 0.4
          },
          {
            "note": 51,
            "velocity": 48,
            "startTime": 33.33,
            "duration": 0.3
          },
          {
            "note": 51,
            "velocity": 60,
            "startTime": 33.6,
            "duration": 0.4
          },
          {
            "note": 51,
            "velocity": 50,
            "startTime": 34.13,
            "duration": 0.3
          },
          {
            "note": 51,
            "velocity": 62,
            "startTime": 34.4,
            "duration": 0.4
          },
          {
            "note": 51,
            "velocity": 48,
            "startTime": 34.93,
            "duration": 0.3
          },
          {
            "note": 51,
            "velocity": 60,
            "startTime": 35.2,
            "duration": 0.4
          },
          {
            "note": 51,
            "velocity": 50,
            "startTime": 35.73,
            "duration": 0.3
          },
          {
            "note": 51,
            "velocity": 62,
            "startTime": 36.0,
            "duration": 0.4
          },
          {
            "note": 51,
            "velocity": 48,
            "startTime": 36.53,
            "duration": 0.3
          },
          {
            "note": 51,
            "velocity": 60,
            "startTime": 36.8,
            "duration": 0.4
          },
          {
            "note": 51,
            "velocity": 50,
            "startTime": 37.33,
            "duration": 0.3
          },
          {
            "note": 51,
            "velocity": 62,
            "startTime": 37.6,
            "duration": 0.4
          },
          {
            "note": 51,
            "velocity": 48,
            "startTime": 38.13,
            "duration": 0.3
          },
          {
            "note": 51,
            "velocity": 60,
            "startTime": 38.4,
            "duration": 0.4
          },
          {
            "note": 51,
            "velocity": 50,
            "startTime": 38.93,
            "duration": 0.3
          },
          {
            "note": 51,
            "velocity": 62,
            "startTime": 39.2,
            "duration": 0.4
          },
          {
            "note": 51,
            "velocity": 48,
            "startTime": 39.73,
            "duration": 0.3
          },
          {
            "note": 51,
            "velocity": 60,
            "startTime": 40.0,
            "duration": 0.4
          },
          {
            "note": 51,
            "velocity": 50,
            "startTime": 40.53,
            "duration": 0.3
          },
          {
            "note": 51,
            "velocity": 62,
            "startTime": 40.8,
            "duration": 0.4
          },
          {
            "note": 51,
            "velocity": 48,
            "startTime": 41.33,
            "duration": 0.3
          },
          {
            "note": 51,
            "velocity": 58,
            "startTime": 41.6,
            "duration": 0.4
          },
          {
            "note": 51,
            "velocity": 46,
            "startTime": 42.13,
            "duration": 0.3
          },
          {
            "note": 51,
            "velocity": 55,
            "startTime": 42.4,
            "duration": 0.4
          },
          {
            "note": 51,
            "velocity": 44,
            "startTime": 42.93,
            "duration": 0.3
          },
          {
            "note": 51,
            "velocity": 52,
            "startTime": 43.2,
            "duration": 0.4
          },
          {
            "note": 51,
            "velocity": 42,
            "startTime": 43.73,
            "duration": 0.3
          },
          {
            "note": 51,
            "velocity": 48,
            "startTime": 44.0,
            "duration": 0.4
          },
          {
            "note": 51,
            "velocity": 38,
            "startTime": 44.53,
            "duration": 0.3
          }
        ]
      }
    ],
    "key": "C",
    "bpm": 75,
    "scale": "dorian"
  },
  {
    "genre": "jazz",
    "mode": "energize",
    "tracks": [
      {
        "name": "Jazz Piano Melody",
        "program": 0,
        "role": "melody",
        "totalDuration": 45,
        "notes": [
          {
            "note": 77,
            "velocity": 95,
            "startTime": 0,
            "duration": 0.4
          },
          {
            "note": 74,
            "velocity": 88,
            "startTime": 0.48,
            "duration": 0.3
          },
          {
            "note": 72,
            "velocity": 90,
            "startTime": 0.96,
            "duration": 0.5
          },
          {
            "note": 70,
            "velocity": 85,
            "startTime": 1.44,
            "duration": 0.3
          },
          {
            "note": 69,
            "velocity": 92,
            "startTime": 1.92,
            "duration": 0.6
          },
          {
            "note": 72,
            "velocity": 88,
            "startTime": 2.88,
            "duration": 0.4
          },
          {
            "note": 74,
            "velocity": 94,
            "startTime": 3.36,
            "duration": 0.3
          },
          {
            "note": 77,
            "velocity": 90,
            "startTime": 3.84,
            "duration": 0.7
          },
          {
            "note": 79,
            "velocity": 96,
            "startTime": 4.8,
            "duration": 0.4
          },
          {
            "note": 77,
            "velocity": 85,
            "startTime": 5.28,
            "duration": 0.3
          },
          {
            "note": 74,
            "velocity": 88,
            "startTime": 5.76,
            "duration": 0.5
          },
          {
            "note": 72,
            "velocity": 90,
            "startTime": 6.72,
            "duration": 0.4
          },
          {
            "note": 70,
            "velocity": 86,
            "startTime": 7.2,
            "duration": 0.3
          },
          {
            "note": 69,
            "velocity": 92,
            "startTime": 7.68,
            "duration": 0.6
          },
          {
            "note": 65,
            "velocity": 80,
            "startTime": 8.64,
            "duration": 0.48
          },
          {
            "note": 67,
            "velocity": 88,
            "startTime": 9.12,
            "duration": 0.3
          },
          {
            "note": 69,
            "velocity": 91,
            "startTime": 9.6,
            "duration": 0.48
          },
          {
            "note": 72,
            "velocity": 95,
            "startTime": 10.08,
            "duration": 0.4
          },
          {
            "note": 74,
            "velocity": 89,
            "startTime": 10.56,
            "duration": 0.3
          },
          {
            "note": 77,
            "velocity": 97,
            "startTime": 11.04,
            "duration": 0.7
          },
          {
            "note": 79,
            "velocity": 93,
            "startTime": 11.52,
            "duration": 0.4
          },
          {
            "note": 81,
            "velocity": 100,
            "startTime": 12.48,
            "duration": 0.5
          },
          {
            "note": 79,
            "velocity": 88,
            "startTime": 12.96,
            "duration": 0.3
          },
          {
            "note": 77,
            "velocity": 85,
            "startTime": 13.44,
            "duration": 0.48
          },
          {
            "note": 74,
            "velocity": 90,
            "startTime": 13.92,
            "duration": 0.4
          },
          {
            "note": 72,
            "velocity": 87,
            "startTime": 14.4,
            "duration": 0.5
          },
          {
            "note": 70,
            "velocity": 82,
            "startTime": 15.36,
            "duration": 0.3
          },
          {
            "note": 69,
            "velocity": 88,
            "startTime": 15.84,
            "duration": 0.48
          },
          {
            "note": 72,
            "velocity": 94,
            "startTime": 16.32,
            "duration": 0.4
          },
          {
            "note": 74,
            "velocity": 91,
            "startTime": 16.8,
            "duration": 0.3
          },
          {
            "note": 77,
            "velocity": 96,
            "startTime": 17.28,
            "duration": 0.6
          },
          {
            "note": 81,
            "velocity": 100,
            "startTime": 17.76,
            "duration": 0.4
          },
          {
            "note": 79,
            "velocity": 90,
            "startTime": 18.72,
            "duration": 0.48
          },
          {
            "note": 77,
            "velocity": 86,
            "startTime": 19.2,
            "duration": 0.3
          },
          {
            "note": 74,
            "velocity": 88,
            "startTime": 19.68,
            "duration": 0.5
          },
          {
            "note": 72,
            "velocity": 92,
            "startTime": 20.16,
            "duration": 0.4
          },
          {
            "note": 70,
            "velocity": 85,
            "startTime": 21.12,
            "duration": 0.3
          },
          {
            "note": 69,
            "velocity": 90,
            "startTime": 21.6,
            "duration": 0.48
          },
          {
            "note": 67,
            "velocity": 84,
            "startTime": 22.08,
            "duration": 0.4
          },
          {
            "note": 65,
            "velocity": 80,
            "startTime": 22.56,
            "duration": 0.5
          },
          {
            "note": 67,
            "velocity": 88,
            "startTime": 23.04,
            "duration": 0.3
          },
          {
            "note": 69,
            "velocity": 92,
            "startTime": 23.52,
            "duration": 0.48
          },
          {
            "note": 72,
            "velocity": 95,
            "startTime": 24.0,
            "duration": 0.4
          },
          {
            "note": 74,
            "velocity": 90,
            "startTime": 24.48,
            "duration": 0.3
          },
          {
            "note": 77,
            "velocity": 98,
            "startTime": 24.96,
            "duration": 0.6
          },
          {
            "note": 79,
            "velocity": 94,
            "startTime": 25.44,
            "duration": 0.4
          },
          {
            "note": 81,
            "velocity": 100,
            "startTime": 25.92,
            "duration": 0.5
          },
          {
            "note": 84,
            "velocity": 105,
            "startTime": 26.88,
            "duration": 0.4
          },
          {
            "note": 81,
            "velocity": 92,
            "startTime": 27.36,
            "duration": 0.3
          },
          {
            "note": 79,
            "velocity": 88,
            "startTime": 27.84,
            "duration": 0.48
          },
          {
            "note": 77,
            "velocity": 90,
            "startTime": 28.32,
            "duration": 0.4
          },
          {
            "note": 74,
            "velocity": 86,
            "startTime": 28.8,
            "duration": 0.3
          },
          {
            "note": 72,
            "velocity": 92,
            "startTime": 29.28,
            "duration": 0.6
          },
          {
            "note": 70,
            "velocity": 85,
            "startTime": 30.24,
            "duration": 0.3
          },
          {
            "note": 69,
            "velocity": 90,
            "startTime": 30.72,
            "duration": 0.48
          },
          {
            "note": 72,
            "velocity": 95,
            "startTime": 31.2,
            "duration": 0.4
          },
          {
            "note": 74,
            "velocity": 91,
            "startTime": 31.68,
            "duration": 0.3
          },
          {
            "note": 77,
            "velocity": 97,
            "startTime": 32.16,
            "duration": 0.5
          },
          {
            "note": 79,
            "velocity": 93,
            "startTime": 33.12,
            "duration": 0.4
          },
          {
            "note": 81,
            "velocity": 100,
            "startTime": 33.6,
            "duration": 0.48
          },
          {
            "note": 84,
            "velocity": 105,
            "startTime": 34.08,
            "duration": 0.4
          },
          {
            "note": 81,
            "velocity": 90,
            "startTime": 34.56,
            "duration": 0.3
          },
          {
            "note": 79,
            "velocity": 88,
            "startTime": 35.04,
            "duration": 0.5
          },
          {
            "note": 77,
            "velocity": 92,
            "startTime": 36.0,
            "duration": 0.4
          },
          {
            "note": 74,
            "velocity": 86,
            "startTime": 36.48,
            "duration": 0.3
          },
          {
            "note": 72,
            "velocity": 90,
            "startTime": 36.96,
            "duration": 0.48
          },
          {
            "note": 70,
            "velocity": 84,
            "startTime": 37.44,
            "duration": 0.4
          },
          {
            "note": 69,
            "velocity": 88,
            "startTime": 37.92,
            "duration": 0.5
          },
          {
            "note": 72,
            "velocity": 94,
            "startTime": 38.88,
            "duration": 0.4
          },
          {
            "note": 74,
            "velocity": 90,
            "startTime": 39.36,
            "duration": 0.3
          },
          {
            "note": 77,
            "velocity": 96,
            "startTime": 39.84,
            "duration": 0.6
          },
          {
            "note": 79,
            "velocity": 92,
            "startTime": 40.32,
            "duration": 0.4
          },
          {
            "note": 81,
            "velocity": 98,
            "startTime": 40.8,
            "duration": 0.48
          },
          {
            "note": 84,
            "velocity": 102,
            "startTime": 41.28,
            "duration": 0.4
          },
          {
            "note": 81,
            "velocity": 90,
            "startTime": 42.24,
            "duration": 0.3
          },
          {
            "note": 79,
            "velocity": 86,
            "startTime": 42.72,
            "duration": 0.5
          },
          {
            "note": 77,
            "velocity": 95,
            "startTime": 43.2,
            "duration": 0.6
          },
          {
            "note": 74,
            "velocity": 88,
            "startTime": 43.8,
            "duration": 0.4
          },
          {
            "note": 72,
            "velocity": 92,
            "startTime": 44.2,
            "duration": 0.5
          },
          {
            "note": 65,
            "velocity": 80,
            "startTime": 44.7,
            "duration": 0.3
          }
        ]
      },
      {
        "name": "Acoustic Bass",
        "program": 32,
        "role": "bass",
        "totalDuration": 45,
        "notes": [
          {
            "note": 43,
            "velocity": 95,
            "startTime": 0,
            "duration": 0.4
          },
          {
            "note": 46,
            "velocity": 88,
            "startTime": 0.48,
            "duration": 0.3
          },
          {
            "note": 48,
            "velocity": 90,
            "startTime": 0.96,
            "duration": 0.4
          },
          {
            "note": 50,
            "velocity": 85,
            "startTime": 1.44,
            "duration": 0.3
          },
          {
            "note": 48,
            "velocity": 92,
            "startTime": 1.92,
            "duration": 0.96
          },
          {
            "note": 43,
            "velocity": 90,
            "startTime": 2.88,
            "duration": 0.4
          },
          {
            "note": 46,
            "velocity": 88,
            "startTime": 3.36,
            "duration": 0.3
          },
          {
            "note": 48,
            "velocity": 92,
            "startTime": 3.84,
            "duration": 0.96
          },
          {
            "note": 41,
            "velocity": 94,
            "startTime": 4.8,
            "duration": 0.4
          },
          {
            "note": 43,
            "velocity": 88,
            "startTime": 5.28,
            "duration": 0.3
          },
          {
            "note": 45,
            "velocity": 90,
            "startTime": 5.76,
            "duration": 0.48
          },
          {
            "note": 48,
            "velocity": 86,
            "startTime": 6.72,
            "duration": 0.4
          },
          {
            "note": 50,
            "velocity": 92,
            "startTime": 7.2,
            "duration": 0.3
          },
          {
            "note": 48,
            "velocity": 88,
            "startTime": 7.68,
            "duration": 0.96
          },
          {
            "note": 43,
            "velocity": 90,
            "startTime": 8.64,
            "duration": 0.4
          },
          {
            "note": 46,
            "velocity": 85,
            "startTime": 9.12,
            "duration": 0.3
          },
          {
            "note": 48,
            "velocity": 92,
            "startTime": 9.6,
            "duration": 0.48
          },
          {
            "note": 41,
            "velocity": 94,
            "startTime": 10.08,
            "duration": 0.4
          },
          {
            "note": 43,
            "velocity": 88,
            "startTime": 10.56,
            "duration": 0.3
          },
          {
            "note": 45,
            "velocity": 90,
            "startTime": 11.04,
            "duration": 0.48
          },
          {
            "note": 48,
            "velocity": 86,
            "startTime": 11.52,
            "duration": 0.96
          },
          {
            "note": 43,
            "velocity": 92,
            "startTime": 12.48,
            "duration": 0.4
          },
          {
            "note": 46,
            "velocity": 88,
            "startTime": 12.96,
            "duration": 0.3
          },
          {
            "note": 48,
            "velocity": 90,
            "startTime": 13.44,
            "duration": 0.48
          },
          {
            "note": 50,
            "velocity": 85,
            "startTime": 13.92,
            "duration": 0.4
          },
          {
            "note": 48,
            "velocity": 92,
            "startTime": 14.4,
            "duration": 0.96
          },
          {
            "note": 41,
            "velocity": 90,
            "startTime": 15.36,
            "duration": 0.4
          },
          {
            "note": 43,
            "velocity": 88,
            "startTime": 15.84,
            "duration": 0.3
          },
          {
            "note": 45,
            "velocity": 92,
            "startTime": 16.32,
            "duration": 0.48
          },
          {
            "note": 48,
            "velocity": 86,
            "startTime": 16.8,
            "duration": 0.4
          },
          {
            "note": 50,
            "velocity": 90,
            "startTime": 17.28,
            "duration": 0.48
          },
          {
            "note": 48,
            "velocity": 94,
            "startTime": 17.76,
            "duration": 0.96
          },
          {
            "note": 43,
            "velocity": 90,
            "startTime": 18.72,
            "duration": 0.4
          },
          {
            "note": 46,
            "velocity": 88,
            "startTime": 19.2,
            "duration": 0.3
          },
          {
            "note": 48,
            "velocity": 90,
            "startTime": 19.68,
            "duration": 0.48
          },
          {
            "note": 41,
            "velocity": 92,
            "startTime": 20.16,
            "duration": 0.96
          },
          {
            "note": 43,
            "velocity": 88,
            "startTime": 21.12,
            "duration": 0.4
          },
          {
            "note": 45,
            "velocity": 90,
            "startTime": 21.6,
            "duration": 0.3
          },
          {
            "note": 48,
            "velocity": 86,
            "startTime": 22.08,
            "duration": 0.48
          },
          {
            "note": 50,
            "velocity": 90,
            "startTime": 22.56,
            "duration": 0.4
          },
          {
            "note": 48,
            "velocity": 94,
            "startTime": 23.04,
            "duration": 0.48
          },
          {
            "note": 43,
            "velocity": 90,
            "startTime": 23.52,
            "duration": 0.48
          },
          {
            "note": 46,
            "velocity": 88,
            "startTime": 24.0,
            "duration": 0.4
          },
          {
            "note": 48,
            "velocity": 92,
            "startTime": 24.48,
            "duration": 0.48
          },
          {
            "note": 41,
            "velocity": 94,
            "startTime": 24.96,
            "duration": 0.4
          },
          {
            "note": 43,
            "velocity": 88,
            "startTime": 25.44,
            "duration": 0.3
          },
          {
            "note": 45,
            "velocity": 90,
            "startTime": 25.92,
            "duration": 0.96
          },
          {
            "note": 43,
            "velocity": 92,
            "startTime": 26.88,
            "duration": 0.4
          },
          {
            "note": 46,
            "velocity": 88,
            "startTime": 27.36,
            "duration": 0.3
          },
          {
            "note": 48,
            "velocity": 90,
            "startTime": 27.84,
            "duration": 0.48
          },
          {
            "note": 50,
            "velocity": 86,
            "startTime": 28.32,
            "duration": 0.4
          },
          {
            "note": 48,
            "velocity": 92,
            "startTime": 28.8,
            "duration": 0.48
          },
          {
            "note": 41,
            "velocity": 90,
            "startTime": 29.28,
            "duration": 0.96
          },
          {
            "note": 43,
            "velocity": 88,
            "startTime": 30.24,
            "duration": 0.4
          },
          {
            "note": 45,
            "velocity": 90,
            "startTime": 30.72,
            "duration": 0.3
          },
          {
            "note": 48,
            "velocity": 92,
            "startTime": 31.2,
            "duration": 0.48
          },
          {
            "note": 50,
            "velocity": 86,
            "startTime": 31.68,
            "duration": 0.4
          },
          {
            "note": 48,
            "velocity": 94,
            "startTime": 32.16,
            "duration": 0.96
          },
          {
            "note": 43,
            "velocity": 90,
            "startTime": 33.12,
            "duration": 0.4
          },
          {
            "note": 46,
            "velocity": 88,
            "startTime": 33.6,
            "duration": 0.3
          },
          {
            "note": 48,
            "velocity": 90,
            "startTime": 34.08,
            "duration": 0.48
          },
          {
            "note": 41,
            "velocity": 92,
            "startTime": 34.56,
            "duration": 0.4
          },
          {
            "note": 43,
            "velocity": 88,
            "startTime": 35.04,
            "duration": 0.96
          },
          {
            "note": 45,
            "velocity": 90,
            "startTime": 36.0,
            "duration": 0.4
          },
          {
            "note": 48,
            "velocity": 86,
            "startTime": 36.48,
            "duration": 0.3
          },
          {
            "note": 50,
            "velocity": 90,
            "startTime": 36.96,
            "duration": 0.48
          },
          {
            "note": 48,
            "velocity": 94,
            "startTime": 37.44,
            "duration": 0.48
          },
          {
            "note": 43,
            "velocity": 90,
            "startTime": 37.92,
            "duration": 0.96
          },
          {
            "note": 46,
            "velocity": 88,
            "startTime": 38.88,
            "duration": 0.4
          },
          {
            "note": 48,
            "velocity": 92,
            "startTime": 39.36,
            "duration": 0.3
          },
          {
            "note": 41,
            "velocity": 90,
            "startTime": 39.84,
            "duration": 0.48
          },
          {
            "note": 43,
            "velocity": 88,
            "startTime": 40.32,
            "duration": 0.4
          },
          {
            "note": 45,
            "velocity": 92,
            "startTime": 40.8,
            "duration": 0.48
          },
          {
            "note": 48,
            "velocity": 86,
            "startTime": 41.28,
            "duration": 0.96
          },
          {
            "note": 43,
            "velocity": 90,
            "startTime": 42.24,
            "duration": 0.4
          },
          {
            "note": 46,
            "velocity": 88,
            "startTime": 42.72,
            "duration": 0.3
          },
          {
            "note": 48,
            "velocity": 92,
            "startTime": 43.2,
            "duration": 0.48
          },
          {
            "note": 50,
            "velocity": 86,
            "startTime": 43.68,
            "duration": 0.4
          },
          {
            "note": 48,
            "velocity": 94,
            "startTime": 44.16,
            "duration": 0.48
          },
          {
            "note": 41,
            "velocity": 90,
            "startTime": 44.64,
            "duration": 0.36
          }
        ]
      },
      {
        "name": "Piano Comping Chords",
        "program": 0,
        "role": "chords",
        "totalDuration": 45,
        "notes": [
          {
            "note": 55,
            "velocity": 72,
            "startTime": 0,
            "duration": 0.8
          },
          {
            "note": 58,
            "velocity": 70,
            "startTime": 0,
            "duration": 0.8
          },
          {
            "note": 62,
            "velocity": 68,
            "startTime": 0,
            "duration": 0.8
          },
          {
            "note": 65,
            "velocity": 66,
            "startTime": 0,
            "duration": 0.8
          },
          {
            "note": 53,
            "velocity": 74,
            "startTime": 1.92,
            "duration": 0.8
          },
          {
            "note": 57,
            "velocity": 72,
            "startTime": 1.92,
            "duration": 0.8
          },
          {
            "note": 60,
            "velocity": 70,
            "startTime": 1.92,
            "duration": 0.8
          },
          {
            "note": 64,
            "velocity": 68,
            "startTime": 1.92,
            "duration": 0.8
          },
          {
            "note": 53,
            "velocity": 76,
            "startTime": 3.84,
            "duration": 0.9
          },
          {
            "note": 57,
            "velocity": 74,
            "startTime": 3.84,
            "duration": 0.9
          },
          {
            "note": 60,
            "velocity": 72,
            "startTime": 3.84,
            "duration": 0.9
          },
          {
            "note": 65,
            "velocity": 70,
            "startTime": 3.84,
            "duration": 0.9
          },
          {
            "note": 55,
            "velocity": 72,
            "startTime": 5.76,
            "duration": 0.8
          },
          {
            "note": 58,
            "velocity": 70,
            "startTime": 5.76,
            "duration": 0.8
          },
          {
            "note": 62,
            "velocity": 68,
            "startTime": 5.76,
            "duration": 0.8
          },
          {
            "note": 65,
            "velocity": 66,
            "startTime": 5.76,
            "duration": 0.8
          },
          {
            "note": 53,
            "velocity": 74,
            "startTime": 7.68,
            "duration": 0.8
          },
          {
            "note": 57,
            "velocity": 72,
            "startTime": 7.68,
            "duration": 0.8
          },
          {
            "note": 60,
            "velocity": 70,
            "startTime": 7.68,
            "duration": 0.8
          },
          {
            "note": 64,
            "velocity": 68,
            "startTime": 7.68,
            "duration": 0.8
          },
          {
            "note": 53,
            "velocity": 76,
            "startTime": 9.6,
            "duration": 0.9
          },
          {
            "note": 57,
            "velocity": 74,
            "startTime": 9.6,
            "duration": 0.9
          },
          {
            "note": 60,
            "velocity": 72,
            "startTime": 9.6,
            "duration": 0.9
          },
          {
            "note": 65,
            "velocity": 70,
            "startTime": 9.6,
            "duration": 0.9
          },
          {
            "note": 55,
            "velocity": 72,
            "startTime": 11.52,
            "duration": 0.8
          },
          {
            "note": 58,
            "velocity": 70,
            "startTime": 11.52,
            "duration": 0.8
          },
          {
            "note": 62,
            "velocity": 68,
            "startTime": 11.52,
            "duration": 0.8
          },
          {
            "note": 65,
            "velocity": 66,
            "startTime": 11.52,
            "duration": 0.8
          },
          {
            "note": 53,
            "velocity": 74,
            "startTime": 13.44,
            "duration": 0.8
          },
          {
            "note": 57,
            "velocity": 72,
            "startTime": 13.44,
            "duration": 0.8
          },
          {
            "note": 60,
            "velocity": 70,
            "startTime": 13.44,
            "duration": 0.8
          },
          {
            "note": 64,
            "velocity": 68,
            "startTime": 13.44,
            "duration": 0.8
          },
          {
            "note": 53,
            "velocity": 76,
            "startTime": 15.36,
            "duration": 0.9
          },
          {
            "note": 57,
            "velocity": 74,
            "startTime": 15.36,
            "duration": 0.9
          },
          {
            "note": 60,
            "velocity": 72,
            "startTime": 15.36,
            "duration": 0.9
          },
          {
            "note": 65,
            "velocity": 70,
            "startTime": 15.36,
            "duration": 0.9
          },
          {
            "note": 55,
            "velocity": 72,
            "startTime": 17.28,
            "duration": 0.8
          },
          {
            "note": 58,
            "velocity": 70,
            "startTime": 17.28,
            "duration": 0.8
          },
          {
            "note": 62,
            "velocity": 68,
            "startTime": 17.28,
            "duration": 0.8
          },
          {
            "note": 65,
            "velocity": 66,
            "startTime": 17.28,
            "duration": 0.8
          },
          {
            "note": 53,
            "velocity": 74,
            "startTime": 19.2,
            "duration": 0.8
          },
          {
            "note": 57,
            "velocity": 72,
            "startTime": 19.2,
            "duration": 0.8
          },
          {
            "note": 60,
            "velocity": 70,
            "startTime": 19.2,
            "duration": 0.8
          },
          {
            "note": 64,
            "velocity": 68,
            "startTime": 19.2,
            "duration": 0.8
          },
          {
            "note": 53,
            "velocity": 76,
            "startTime": 21.12,
            "duration": 0.9
          },
          {
            "note": 57,
            "velocity": 74,
            "startTime": 21.12,
            "duration": 0.9
          },
          {
            "note": 60,
            "velocity": 72,
            "startTime": 21.12,
            "duration": 0.9
          },
          {
            "note": 65,
            "velocity": 70,
            "startTime": 21.12,
            "duration": 0.9
          },
          {
            "note": 55,
            "velocity": 72,
            "startTime": 23.04,
            "duration": 0.8
          },
          {
            "note": 58,
            "velocity": 70,
            "startTime": 23.04,
            "duration": 0.8
          },
          {
            "note": 62,
            "velocity": 68,
            "startTime": 23.04,
            "duration": 0.8
          },
          {
            "note": 65,
            "velocity": 66,
            "startTime": 23.04,
            "duration": 0.8
          },
          {
            "note": 53,
            "velocity": 74,
            "startTime": 24.96,
            "duration": 0.8
          },
          {
            "note": 57,
            "velocity": 72,
            "startTime": 24.96,
            "duration": 0.8
          },
          {
            "note": 60,
            "velocity": 70,
            "startTime": 24.96,
            "duration": 0.8
          },
          {
            "note": 64,
            "velocity": 68,
            "startTime": 24.96,
            "duration": 0.8
          },
          {
            "note": 53,
            "velocity": 76,
            "startTime": 26.88,
            "duration": 0.9
          },
          {
            "note": 57,
            "velocity": 74,
            "startTime": 26.88,
            "duration": 0.9
          },
          {
            "note": 60,
            "velocity": 72,
            "startTime": 26.88,
            "duration": 0.9
          },
          {
            "note": 65,
            "velocity": 70,
            "startTime": 26.88,
            "duration": 0.9
          },
          {
            "note": 55,
            "velocity": 75,
            "startTime": 28.8,
            "duration": 0.8
          },
          {
            "note": 58,
            "velocity": 73,
            "startTime": 28.8,
            "duration": 0.8
          },
          {
            "note": 62,
            "velocity": 71,
            "startTime": 28.8,
            "duration": 0.8
          },
          {
            "note": 65,
            "velocity": 69,
            "startTime": 28.8,
            "duration": 0.8
          },
          {
            "note": 53,
            "velocity": 74,
            "startTime": 30.72,
            "duration": 0.8
          },
          {
            "note": 57,
            "velocity": 72,
            "startTime": 30.72,
            "duration": 0.8
          },
          {
            "note": 60,
            "velocity": 70,
            "startTime": 30.72,
            "duration": 0.8
          },
          {
            "note": 64,
            "velocity": 68,
            "startTime": 30.72,
            "duration": 0.8
          },
          {
            "note": 53,
            "velocity": 78,
            "startTime": 32.64,
            "duration": 0.9
          },
          {
            "note": 57,
            "velocity": 76,
            "startTime": 32.64,
            "duration": 0.9
          },
          {
            "note": 60,
            "velocity": 74,
            "startTime": 32.64,
            "duration": 0.9
          },
          {
            "note": 65,
            "velocity": 72,
            "startTime": 32.64,
            "duration": 0.9
          },
          {
            "note": 55,
            "velocity": 75,
            "startTime": 34.56,
            "duration": 0.8
          },
          {
            "note": 58,
            "velocity": 73,
            "startTime": 34.56,
            "duration": 0.8
          },
          {
            "note": 62,
            "velocity": 71,
            "startTime": 34.56,
            "duration": 0.8
          },
          {
            "note": 65,
            "velocity": 69,
            "startTime": 34.56,
            "duration": 0.8
          },
          {
            "note": 53,
            "velocity": 76,
            "startTime": 36.48,
            "duration": 0.8
          },
          {
            "note": 57,
            "velocity": 74,
            "startTime": 36.48,
            "duration": 0.8
          },
          {
            "note": 60,
            "velocity": 72,
            "startTime": 36.48,
            "duration": 0.8
          },
          {
            "note": 64,
            "velocity": 70,
            "startTime": 36.48,
            "duration": 0.8
          },
          {
            "note": 53,
            "velocity": 78,
            "startTime": 38.4,
            "duration": 0.9
          },
          {
            "note": 57,
            "velocity": 76,
            "startTime": 38.4,
            "duration": 0.9
          },
          {
            "note": 60,
            "velocity": 74,
            "startTime": 38.4,
            "duration": 0.9
          },
          {
            "note": 65,
            "velocity": 72,
            "startTime": 38.4,
            "duration": 0.9
          },
          {
            "note": 55,
            "velocity": 75,
            "startTime": 40.32,
            "duration": 0.8
          },
          {
            "note": 58,
            "velocity": 73,
            "startTime": 40.32,
            "duration": 0.8
          },
          {
            "note": 62,
            "velocity": 71,
            "startTime": 40.32,
            "duration": 0.8
          },
          {
            "note": 65,
            "velocity": 69,
            "startTime": 40.32,
            "duration": 0.8
          },
          {
            "note": 53,
            "velocity": 76,
            "startTime": 42.24,
            "duration": 0.8
          },
          {
            "note": 57,
            "velocity": 74,
            "startTime": 42.24,
            "duration": 0.8
          },
          {
            "note": 60,
            "velocity": 72,
            "startTime": 42.24,
            "duration": 0.8
          },
          {
            "note": 64,
            "velocity": 70,
            "startTime": 42.24,
            "duration": 0.8
          },
          {
            "note": 53,
            "velocity": 78,
            "startTime": 44.16,
            "duration": 0.8
          },
          {
            "note": 57,
            "velocity": 76,
            "startTime": 44.16,
            "duration": 0.8
          },
          {
            "note": 60,
            "velocity": 74,
            "startTime": 44.16,
            "duration": 0.8
          },
          {
            "note": 65,
            "velocity": 72,
            "startTime": 44.16,
            "duration": 0.8
          }
        ]
      },
      {
        "name": "Jazz Drums with Ride",
        "program": 0,
        "role": "drums",
        "totalDuration": 45,
        "notes": [
          {
            "note": 51,
            "velocity": 90,
            "startTime": 0,
            "duration": 0.2
          },
          {
            "note": 51,
            "velocity": 85,
            "startTime": 0.48,
            "duration": 0.2
          },
          {
            "note": 51,
            "velocity": 88,
            "startTime": 0.96,
            "duration": 0.2
          },
          {
            "note": 42,
            "velocity": 65,
            "startTime": 0.96,
            "duration": 0.2
          },
          {
            "note": 51,
            "velocity": 82,
            "startTime": 1.28,
            "duration": 0.2
          },
          {
            "note": 51,
            "velocity": 90,
            "startTime": 1.44,
            "duration": 0.2
          },
          {
            "note": 51,
            "velocity": 86,
            "startTime": 1.92,
            "duration": 0.2
          },
          {
            "note": 36,
            "velocity": 95,
            "startTime": 1.92,
            "duration": 0.2
          },
          {
            "note": 51,
            "velocity": 84,
            "startTime": 2.4,
            "duration": 0.2
          },
          {
            "note": 51,
            "velocity": 90,
            "startTime": 2.88,
            "duration": 0.2
          },
          {
            "note": 42,
            "velocity": 68,
            "startTime": 2.88,
            "duration": 0.2
          },
          {
            "note": 51,
            "velocity": 82,
            "startTime": 3.2,
            "duration": 0.2
          },
          {
            "note": 51,
            "velocity": 88,
            "startTime": 3.36,
            "duration": 0.2
          },
          {
            "note": 51,
            "velocity": 90,
            "startTime": 3.84,
            "duration": 0.2
          },
          {
            "note": 36,
            "velocity": 92,
            "startTime": 3.84,
            "duration": 0.2
          },
          {
            "note": 51,
            "velocity": 84,
            "startTime": 4.32,
            "duration": 0.2
          },
          {
            "note": 51,
            "velocity": 90,
            "startTime": 4.8,
            "duration": 0.2
          },
          {
            "note": 42,
            "velocity": 65,
            "startTime": 4.8,
            "duration": 0.2
          },
          {
            "note": 51,
            "velocity": 82,
            "startTime": 5.12,
            "duration": 0.2
          },
          {
            "note": 51,
            "velocity": 88,
            "startTime": 5.28,
            "duration": 0.2
          },
          {
            "note": 38,
            "velocity": 100,
            "startTime": 5.76,
            "duration": 0.2
          },
          {
            "note": 51,
            "velocity": 90,
            "startTime": 5.76,
            "duration": 0.2
          },
          {
            "note": 51,
            "velocity": 84,
            "startTime": 6.24,
            "duration": 0.2
          },
          {
            "note": 51,
            "velocity": 90,
            "startTime": 6.72,
            "duration": 0.2
          },
          {
            "note": 42,
            "velocity": 68,
            "startTime": 6.72,
            "duration": 0.2
          },
          {
            "note": 51,
            "velocity": 82,
            "startTime": 7.04,
            "duration": 0.2
          },
          {
            "note": 51,
            "velocity": 88,
            "startTime": 7.2,
            "duration": 0.2
          },
          {
            "note": 51,
            "velocity": 90,
            "startTime": 7.68,
            "duration": 0.2
          },
          {
            "note": 36,
            "velocity": 94,
            "startTime": 7.68,
            "duration": 0.2
          },
          {
            "note": 51,
            "velocity": 84,
            "startTime": 8.16,
            "duration": 0.2
          },
          {
            "note": 51,
            "velocity": 90,
            "startTime": 8.64,
            "duration": 0.2
          },
          {
            "note": 42,
            "velocity": 65,
            "startTime": 8.64,
            "duration": 0.2
          },
          {
            "note": 51,
            "velocity": 82,
            "startTime": 8.96,
            "duration": 0.2
          },
          {
            "note": 51,
            "velocity": 88,
            "startTime": 9.12,
            "duration": 0.2
          },
          {
            "note": 51,
            "velocity": 90,
            "startTime": 9.6,
            "duration": 0.2
          },
          {
            "note": 36,
            "velocity": 92,
            "startTime": 9.6,
            "duration": 0.2
          },
          {
            "note": 51,
            "velocity": 84,
            "startTime": 10.08,
            "duration": 0.2
          },
          {
            "note": 51,
            "velocity": 90,
            "startTime": 10.56,
            "duration": 0.2
          },
          {
            "note": 42,
            "velocity": 68,
            "startTime": 10.56,
            "duration": 0.2
          },
          {
            "note": 51,
            "velocity": 82,
            "startTime": 10.88,
            "duration": 0.2
          },
          {
            "note": 51,
            "velocity": 88,
            "startTime": 11.04,
            "duration": 0.2
          },
          {
            "note": 38,
            "velocity": 100,
            "startTime": 11.52,
            "duration": 0.2
          },
          {
            "note": 51,
            "velocity": 90,
            "startTime": 11.52,
            "duration": 0.2
          },
          {
            "note": 51,
            "velocity": 84,
            "startTime": 12.0,
            "duration": 0.2
          },
          {
            "note": 51,
            "velocity": 90,
            "startTime": 12.48,
            "duration": 0.2
          },
          {
            "note": 42,
            "velocity": 65,
            "startTime": 12.48,
            "duration": 0.2
          },
          {
            "note": 51,
            "velocity": 82,
            "startTime": 12.8,
            "duration": 0.2
          },
          {
            "note": 51,
            "velocity": 88,
            "startTime": 12.96,
            "duration": 0.2
          },
          {
            "note": 51,
            "velocity": 90,
            "startTime": 13.44,
            "duration": 0.2
          },
          {
            "note": 36,
            "velocity": 94,
            "startTime": 13.44,
            "duration": 0.2
          },
          {
            "note": 51,
            "velocity": 84,
            "startTime": 13.92,
            "duration": 0.2
          },
          {
            "note": 51,
            "velocity": 90,
            "startTime": 14.4,
            "duration": 0.2
          },
          {
            "note": 42,
            "velocity": 68,
            "startTime": 14.4,
            "duration": 0.2
          },
          {
            "note": 51,
            "velocity": 82,
            "startTime": 14.72,
            "duration": 0.2
          },
          {
            "note": 51,
            "velocity": 88,
            "startTime": 14.88,
            "duration": 0.2
          },
          {
            "note": 51,
            "velocity": 90,
            "startTime": 15.36,
            "duration": 0.2
          },
          {
            "note": 36,
            "velocity": 92,
            "startTime": 15.36,
            "duration": 0.2
          },
          {
            "note": 51,
            "velocity": 84,
            "startTime": 15.84,
            "duration": 0.2
          },
          {
            "note": 51,
            "velocity": 90,
            "startTime": 16.32,
            "duration": 0.2
          },
          {
            "note": 42,
            "velocity": 65,
            "startTime": 16.32,
            "duration": 0.2
          },
          {
            "note": 51,
            "velocity": 82,
            "startTime": 16.64,
            "duration": 0.2
          },
          {
            "note": 51,
            "velocity": 88,
            "startTime": 16.8,
            "duration": 0.2
          },
          {
            "note": 38,
            "velocity": 100,
            "startTime": 17.28,
            "duration": 0.2
          },
          {
            "note": 51,
            "velocity": 90,
            "startTime": 17.28,
            "duration": 0.2
          },
          {
            "note": 51,
            "velocity": 84,
            "startTime": 17.76,
            "duration": 0.2
          },
          {
            "note": 51,
            "velocity": 90,
            "startTime": 18.24,
            "duration": 0.2
          },
          {
            "note": 42,
            "velocity": 68,
            "startTime": 18.24,
            "duration": 0.2
          },
          {
            "note": 51,
            "velocity": 82,
            "startTime": 18.56,
            "duration": 0.2
          },
          {
            "note": 51,
            "velocity": 88,
            "startTime": 18.72,
            "duration": 0.2
          },
          {
            "note": 51,
            "velocity": 90,
            "startTime": 19.2,
            "duration": 0.2
          },
          {
            "note": 36,
            "velocity": 94,
            "startTime": 19.2,
            "duration": 0.2
          },
          {
            "note": 51,
            "velocity": 84,
            "startTime": 19.68,
            "duration": 0.2
          },
          {
            "note": 51,
            "velocity": 90,
            "startTime": 20.16,
            "duration": 0.2
          },
          {
            "note": 42,
            "velocity": 65,
            "startTime": 20.16,
            "duration": 0.2
          },
          {
            "note": 51,
            "velocity": 82,
            "startTime": 20.48,
            "duration": 0.2
          },
          {
            "note": 51,
            "velocity": 88,
            "startTime": 20.64,
            "duration": 0.2
          },
          {
            "note": 51,
            "velocity": 90,
            "startTime": 21.12,
            "duration": 0.2
          },
          {
            "note": 36,
            "velocity": 92,
            "startTime": 21.12,
            "duration": 0.2
          },
          {
            "note": 51,
            "velocity": 84,
            "startTime": 21.6,
            "duration": 0.2
          },
          {
            "note": 51,
            "velocity": 90,
            "startTime": 22.08,
            "duration": 0.2
          },
          {
            "note": 42,
            "velocity": 68,
            "startTime": 22.08,
            "duration": 0.2
          },
          {
            "note": 51,
            "velocity": 82,
            "startTime": 22.4,
            "duration": 0.2
          },
          {
            "note": 51,
            "velocity": 88,
            "startTime": 22.56,
            "duration": 0.2
          },
          {
            "note": 38,
            "velocity": 102,
            "startTime": 23.04,
            "duration": 0.2
          },
          {
            "note": 51,
            "velocity": 90,
            "startTime": 23.04,
            "duration": 0.2
          },
          {
            "note": 51,
            "velocity": 84,
            "startTime": 23.52,
            "duration": 0.2
          },
          {
            "note": 51,
            "velocity": 90,
            "startTime": 24.0,
            "duration": 0.2
          },
          {
            "note": 42,
            "velocity": 65,
            "startTime": 24.0,
            "duration": 0.2
          },
          {
            "note": 51,
            "velocity": 82,
            "startTime": 24.32,
            "duration": 0.2
          },
          {
            "note": 51,
            "velocity": 88,
            "startTime": 24.48,
            "duration": 0.2
          },
          {
            "note": 51,
            "velocity": 90,
            "startTime": 24.96,
            "duration": 0.2
          },
          {
            "note": 36,
            "velocity": 94,
            "startTime": 24.96,
            "duration": 0.2
          },
          {
            "note": 51,
            "velocity": 84,
            "startTime": 25.44,
            "duration": 0.2
          },
          {
            "note": 51,
            "velocity": 90,
            "startTime": 25.92,
            "duration": 0.2
          },
          {
            "note": 42,
            "velocity": 68,
            "startTime": 25.92,
            "duration": 0.2
          },
          {
            "note": 51,
            "velocity": 82,
            "startTime": 26.24,
            "duration": 0.2
          },
          {
            "note": 51,
            "velocity": 88,
            "startTime": 26.4,
            "duration": 0.2
          },
          {
            "note": 51,
            "velocity": 90,
            "startTime": 26.88,
            "duration": 0.2
          },
          {
            "note": 36,
            "velocity": 92,
            "startTime": 26.88,
            "duration": 0.2
          },
          {
            "note": 51,
            "velocity": 84,
            "startTime": 27.36,
            "duration": 0.2
          },
          {
            "note": 51,
            "velocity": 90,
            "startTime": 27.84,
            "duration": 0.2
          },
          {
            "note": 42,
            "velocity": 65,
            "startTime": 27.84,
            "duration": 0.2
          },
          {
            "note": 51,
            "velocity": 82,
            "startTime": 28.16,
            "duration": 0.2
          },
          {
            "note": 51,
            "velocity": 88,
            "startTime": 28.32,
            "duration": 0.2
          },
          {
            "note": 38,
            "velocity": 102,
            "startTime": 28.8,
            "duration": 0.2
          },
          {
            "note": 51,
            "velocity": 90,
            "startTime": 28.8,
            "duration": 0.2
          },
          {
            "note": 51,
            "velocity": 84,
            "startTime": 29.28,
            "duration": 0.2
          },
          {
            "note": 51,
            "velocity": 90,
            "startTime": 29.76,
            "duration": 0.2
          },
          {
            "note": 42,
            "velocity": 68,
            "startTime": 29.76,
            "duration": 0.2
          },
          {
            "note": 51,
            "velocity": 82,
            "startTime": 30.08,
            "duration": 0.2
          },
          {
            "note": 51,
            "velocity": 88,
            "startTime": 30.24,
            "duration": 0.2
          },
          {
            "note": 51,
            "velocity": 90,
            "startTime": 30.72,
            "duration": 0.2
          },
          {
            "note": 36,
            "velocity": 94,
            "startTime": 30.72,
            "duration": 0.2
          },
          {
            "note": 51,
            "velocity": 84,
            "startTime": 31.2,
            "duration": 0.2
          },
          {
            "note": 51,
            "velocity": 90,
            "startTime": 31.68,
            "duration": 0.2
          },
          {
            "note": 42,
            "velocity": 65,
            "startTime": 31.68,
            "duration": 0.2
          },
          {
            "note": 51,
            "velocity": 82,
            "startTime": 32.0,
            "duration": 0.2
          },
          {
            "note": 51,
            "velocity": 88,
            "startTime": 32.16,
            "duration": 0.2
          },
          {
            "note": 51,
            "velocity": 90,
            "startTime": 32.64,
            "duration": 0.2
          },
          {
            "note": 36,
            "velocity": 92,
            "startTime": 32.64,
            "duration": 0.2
          },
          {
            "note": 51,
            "velocity": 84,
            "startTime": 33.12,
            "duration": 0.2
          },
          {
            "note": 51,
            "velocity": 90,
            "startTime": 33.6,
            "duration": 0.2
          },
          {
            "note": 42,
            "velocity": 68,
            "startTime": 33.6,
            "duration": 0.2
          },
          {
            "note": 51,
            "velocity": 82,
            "startTime": 33.92,
            "duration": 0.2
          },
          {
            "note": 51,
            "velocity": 88,
            "startTime": 34.08,
            "duration": 0.2
          },
          {
            "note": 38,
            "velocity": 104,
            "startTime": 34.56,
            "duration": 0.2
          },
          {
            "note": 51,
            "velocity": 92,
            "startTime": 34.56,
            "duration": 0.2
          },
          {
            "note": 51,
            "velocity": 86,
            "startTime": 35.04,
            "duration": 0.2
          },
          {
            "note": 51,
            "velocity": 92,
            "startTime": 35.52,
            "duration": 0.2
          },
          {
            "note": 42,
            "velocity": 70,
            "startTime": 35.52,
            "duration": 0.2
          },
          {
            "note": 51,
            "velocity": 84,
            "startTime": 35.84,
            "duration": 0.2
          },
          {
            "note": 51,
            "velocity": 90,
            "startTime": 36.0,
            "duration": 0.2
          },
          {
            "note": 51,
            "velocity": 92,
            "startTime": 36.48,
            "duration": 0.2
          },
          {
            "note": 36,
            "velocity": 96,
            "startTime": 36.48,
            "duration": 0.2
          },
          {
            "note": 51,
            "velocity": 86,
            "startTime": 36.96,
            "duration": 0.2
          },
          {
            "note": 51,
            "velocity": 92,
            "startTime": 37.44,
            "duration": 0.2
          },
          {
            "note": 42,
            "velocity": 70,
            "startTime": 37.44,
            "duration": 0.2
          },
          {
            "note": 51,
            "velocity": 84,
            "startTime": 37.76,
            "duration": 0.2
          },
          {
            "note": 51,
            "velocity": 90,
            "startTime": 37.92,
            "duration": 0.2
          },
          {
            "note": 51,
            "velocity": 92,
            "startTime": 38.4,
            "duration": 0.2
          },
          {
            "note": 36,
            "velocity": 94,
            "startTime": 38.4,
            "duration": 0.2
          },
          {
            "note": 51,
            "velocity": 86,
            "startTime": 38.88,
            "duration": 0.2
          },
          {
            "note": 51,
            "velocity": 92,
            "startTime": 39.36,
            "duration": 0.2
          },
          {
            "note": 42,
            "velocity": 70,
            "startTime": 39.36,
            "duration": 0.2
          },
          {
            "note": 51,
            "velocity": 84,
            "startTime": 39.68,
            "duration": 0.2
          },
          {
            "note": 51,
            "velocity": 90,
            "startTime": 39.84,
            "duration": 0.2
          },
          {
            "note": 38,
            "velocity": 105,
            "startTime": 40.32,
            "duration": 0.2
          },
          {
            "note": 51,
            "velocity": 92,
            "startTime": 40.32,
            "duration": 0.2
          },
          {
            "note": 51,
            "velocity": 86,
            "startTime": 40.8,
            "duration": 0.2
          },
          {
            "note": 51,
            "velocity": 92,
            "startTime": 41.28,
            "duration": 0.2
          },
          {
            "note": 42,
            "velocity": 72,
            "startTime": 41.28,
            "duration": 0.2
          },
          {
            "note": 51,
            "velocity": 84,
            "startTime": 41.6,
            "duration": 0.2
          },
          {
            "note": 51,
            "velocity": 90,
            "startTime": 41.76,
            "duration": 0.2
          },
          {
            "note": 51,
            "velocity": 92,
            "startTime": 42.24,
            "duration": 0.2
          },
          {
            "note": 36,
            "velocity": 96,
            "startTime": 42.24,
            "duration": 0.2
          },
          {
            "note": 51,
            "velocity": 86,
            "startTime": 42.72,
            "duration": 0.2
          },
          {
            "note": 51,
            "velocity": 92,
            "startTime": 43.2,
            "duration": 0.2
          },
          {
            "note": 42,
            "velocity": 70,
            "startTime": 43.2,
            "duration": 0.2
          },
          {
            "note": 51,
            "velocity": 84,
            "startTime": 43.52,
            "duration": 0.2
          },
          {
            "note": 51,
            "velocity": 90,
            "startTime": 43.68,
            "duration": 0.2
          },
          {
            "note": 51,
            "velocity": 92,
            "startTime": 44.16,
            "duration": 0.2
          },
          {
            "note": 36,
            "velocity": 94,
            "startTime": 44.16,
            "duration": 0.2
          },
          {
            "note": 49,
            "velocity": 100,
            "startTime": 44.64,
            "duration": 0.36
          }
        ]
      }
    ],
    "key": "F",
    "bpm": 125,
    "scale": "major"
  },
  {
    "genre": "rock",
    "mode": "focus",
    "tracks": [
      {
        "name": "Clean Guitar Melody",
        "program": 25,
        "role": "melody",
        "totalDuration": 45,
        "notes": [
          {
            "note": 64,
            "velocity": 85,
            "startTime": 0,
            "duration": 0.77
          },
          {
            "note": 67,
            "velocity": 80,
            "startTime": 0.77,
            "duration": 0.77
          },
          {
            "note": 69,
            "velocity": 88,
            "startTime": 1.54,
            "duration": 1.54
          },
          {
            "note": 67,
            "velocity": 75,
            "startTime": 3.08,
            "duration": 0.77
          },
          {
            "note": 64,
            "velocity": 82,
            "startTime": 3.85,
            "duration": 0.77
          },
          {
            "note": 60,
            "velocity": 78,
            "startTime": 4.62,
            "duration": 1.54
          },
          {
            "note": 64,
            "velocity": 84,
            "startTime": 6.15,
            "duration": 0.77
          },
          {
            "note": 67,
            "velocity": 80,
            "startTime": 6.92,
            "duration": 0.77
          },
          {
            "note": 72,
            "velocity": 90,
            "startTime": 7.69,
            "duration": 1.54
          },
          {
            "note": 69,
            "velocity": 76,
            "startTime": 9.23,
            "duration": 0.77
          },
          {
            "note": 67,
            "velocity": 82,
            "startTime": 10.0,
            "duration": 0.77
          },
          {
            "note": 64,
            "velocity": 79,
            "startTime": 10.77,
            "duration": 1.54
          },
          {
            "note": 60,
            "velocity": 74,
            "startTime": 12.31,
            "duration": 0.77
          },
          {
            "note": 64,
            "velocity": 86,
            "startTime": 13.08,
            "duration": 0.77
          },
          {
            "note": 67,
            "velocity": 80,
            "startTime": 13.85,
            "duration": 1.54
          },
          {
            "note": 69,
            "velocity": 88,
            "startTime": 15.38,
            "duration": 0.77
          },
          {
            "note": 72,
            "velocity": 85,
            "startTime": 16.15,
            "duration": 0.77
          },
          {
            "note": 69,
            "velocity": 78,
            "startTime": 16.92,
            "duration": 1.54
          },
          {
            "note": 67,
            "velocity": 82,
            "startTime": 18.46,
            "duration": 0.77
          },
          {
            "note": 64,
            "velocity": 76,
            "startTime": 19.23,
            "duration": 0.77
          },
          {
            "note": 60,
            "velocity": 80,
            "startTime": 20.0,
            "duration": 1.54
          },
          {
            "note": 64,
            "velocity": 84,
            "startTime": 21.54,
            "duration": 0.77
          },
          {
            "note": 67,
            "velocity": 82,
            "startTime": 22.31,
            "duration": 0.77
          },
          {
            "note": 69,
            "velocity": 90,
            "startTime": 23.08,
            "duration": 1.54
          },
          {
            "note": 67,
            "velocity": 76,
            "startTime": 24.62,
            "duration": 0.77
          },
          {
            "note": 64,
            "velocity": 80,
            "startTime": 25.38,
            "duration": 0.77
          },
          {
            "note": 60,
            "velocity": 75,
            "startTime": 26.15,
            "duration": 1.54
          },
          {
            "note": 64,
            "velocity": 86,
            "startTime": 27.69,
            "duration": 0.77
          },
          {
            "note": 67,
            "velocity": 82,
            "startTime": 28.46,
            "duration": 0.77
          },
          {
            "note": 72,
            "velocity": 92,
            "startTime": 29.23,
            "duration": 1.54
          },
          {
            "note": 69,
            "velocity": 78,
            "startTime": 30.77,
            "duration": 0.77
          },
          {
            "note": 67,
            "velocity": 80,
            "startTime": 31.54,
            "duration": 0.77
          },
          {
            "note": 64,
            "velocity": 76,
            "startTime": 32.31,
            "duration": 1.54
          },
          {
            "note": 60,
            "velocity": 72,
            "startTime": 33.85,
            "duration": 0.77
          },
          {
            "note": 64,
            "velocity": 84,
            "startTime": 34.62,
            "duration": 0.77
          },
          {
            "note": 67,
            "velocity": 80,
            "startTime": 35.38,
            "duration": 1.54
          },
          {
            "note": 69,
            "velocity": 86,
            "startTime": 36.92,
            "duration": 0.77
          },
          {
            "note": 72,
            "velocity": 88,
            "startTime": 37.69,
            "duration": 0.77
          },
          {
            "note": 69,
            "velocity": 80,
            "startTime": 38.46,
            "duration": 1.54
          },
          {
            "note": 67,
            "velocity": 78,
            "startTime": 40.0,
            "duration": 0.77
          },
          {
            "note": 64,
            "velocity": 74,
            "startTime": 40.77,
            "duration": 0.77
          },
          {
            "note": 60,
            "velocity": 70,
            "startTime": 41.54,
            "duration": 1.54
          },
          {
            "note": 64,
            "velocity": 68,
            "startTime": 43.08,
            "duration": 0.77
          },
          {
            "note": 67,
            "velocity": 65,
            "startTime": 43.85,
            "duration": 1.15
          }
        ]
      },
      {
        "name": "Rock Bass",
        "program": 33,
        "role": "bass",
        "totalDuration": 45,
        "notes": [
          {
            "note": 40,
            "velocity": 95,
            "startTime": 0,
            "duration": 1.54
          },
          {
            "note": 40,
            "velocity": 90,
            "startTime": 1.54,
            "duration": 0.77
          },
          {
            "note": 43,
            "velocity": 92,
            "startTime": 2.31,
            "duration": 0.77
          },
          {
            "note": 40,
            "velocity": 88,
            "startTime": 3.08,
            "duration": 1.54
          },
          {
            "note": 45,
            "velocity": 90,
            "startTime": 4.62,
            "duration": 1.54
          },
          {
            "note": 43,
            "velocity": 88,
            "startTime": 6.15,
            "duration": 1.54
          },
          {
            "note": 40,
            "velocity": 95,
            "startTime": 7.69,
            "duration": 1.54
          },
          {
            "note": 40,
            "velocity": 90,
            "startTime": 9.23,
            "duration": 0.77
          },
          {
            "note": 43,
            "velocity": 92,
            "startTime": 10.0,
            "duration": 0.77
          },
          {
            "note": 40,
            "velocity": 88,
            "startTime": 10.77,
            "duration": 1.54
          },
          {
            "note": 45,
            "velocity": 90,
            "startTime": 12.31,
            "duration": 1.54
          },
          {
            "note": 43,
            "velocity": 88,
            "startTime": 13.85,
            "duration": 1.54
          },
          {
            "note": 40,
            "velocity": 95,
            "startTime": 15.38,
            "duration": 1.54
          },
          {
            "note": 40,
            "velocity": 90,
            "startTime": 16.92,
            "duration": 0.77
          },
          {
            "note": 43,
            "velocity": 92,
            "startTime": 17.69,
            "duration": 0.77
          },
          {
            "note": 40,
            "velocity": 88,
            "startTime": 18.46,
            "duration": 1.54
          },
          {
            "note": 45,
            "velocity": 90,
            "startTime": 20.0,
            "duration": 1.54
          },
          {
            "note": 43,
            "velocity": 88,
            "startTime": 21.54,
            "duration": 1.54
          },
          {
            "note": 40,
            "velocity": 95,
            "startTime": 23.08,
            "duration": 1.54
          },
          {
            "note": 40,
            "velocity": 90,
            "startTime": 24.62,
            "duration": 0.77
          },
          {
            "note": 43,
            "velocity": 92,
            "startTime": 25.38,
            "duration": 0.77
          },
          {
            "note": 40,
            "velocity": 88,
            "startTime": 26.15,
            "duration": 1.54
          },
          {
            "note": 45,
            "velocity": 90,
            "startTime": 27.69,
            "duration": 1.54
          },
          {
            "note": 43,
            "velocity": 88,
            "startTime": 29.23,
            "duration": 1.54
          },
          {
            "note": 40,
            "velocity": 95,
            "startTime": 30.77,
            "duration": 1.54
          },
          {
            "note": 40,
            "velocity": 90,
            "startTime": 32.31,
            "duration": 0.77
          },
          {
            "note": 43,
            "velocity": 92,
            "startTime": 33.08,
            "duration": 0.77
          },
          {
            "note": 40,
            "velocity": 88,
            "startTime": 33.85,
            "duration": 1.54
          },
          {
            "note": 45,
            "velocity": 90,
            "startTime": 35.38,
            "duration": 1.54
          },
          {
            "note": 43,
            "velocity": 88,
            "startTime": 36.92,
            "duration": 1.54
          },
          {
            "note": 40,
            "velocity": 95,
            "startTime": 38.46,
            "duration": 1.54
          },
          {
            "note": 40,
            "velocity": 90,
            "startTime": 40.0,
            "duration": 0.77
          },
          {
            "note": 43,
            "velocity": 85,
            "startTime": 40.77,
            "duration": 0.77
          },
          {
            "note": 40,
            "velocity": 82,
            "startTime": 41.54,
            "duration": 1.54
          },
          {
            "note": 45,
            "velocity": 78,
            "startTime": 43.08,
            "duration": 0.77
          },
          {
            "note": 40,
            "velocity": 75,
            "startTime": 43.85,
            "duration": 1.15
          }
        ]
      },
      {
        "name": "Clean Guitar Chords",
        "program": 25,
        "role": "chords",
        "totalDuration": 45,
        "notes": [
          {
            "note": 52,
            "velocity": 65,
            "startTime": 0,
            "duration": 3.08
          },
          {
            "note": 55,
            "velocity": 62,
            "startTime": 0,
            "duration": 3.08
          },
          {
            "note": 59,
            "velocity": 60,
            "startTime": 0,
            "duration": 3.08
          },
          {
            "note": 55,
            "velocity": 65,
            "startTime": 3.08,
            "duration": 3.08
          },
          {
            "note": 59,
            "velocity": 62,
            "startTime": 3.08,
            "duration": 3.08
          },
          {
            "note": 64,
            "velocity": 60,
            "startTime": 3.08,
            "duration": 3.08
          },
          {
            "note": 52,
            "velocity": 65,
            "startTime": 6.15,
            "duration": 3.08
          },
          {
            "note": 55,
            "velocity": 62,
            "startTime": 6.15,
            "duration": 3.08
          },
          {
            "note": 59,
            "velocity": 60,
            "startTime": 6.15,
            "duration": 3.08
          },
          {
            "note": 48,
            "velocity": 65,
            "startTime": 9.23,
            "duration": 3.08
          },
          {
            "note": 52,
            "velocity": 62,
            "startTime": 9.23,
            "duration": 3.08
          },
          {
            "note": 55,
            "velocity": 60,
            "startTime": 9.23,
            "duration": 3.08
          },
          {
            "note": 52,
            "velocity": 65,
            "startTime": 12.31,
            "duration": 3.08
          },
          {
            "note": 55,
            "velocity": 62,
            "startTime": 12.31,
            "duration": 3.08
          },
          {
            "note": 59,
            "velocity": 60,
            "startTime": 12.31,
            "duration": 3.08
          },
          {
            "note": 55,
            "velocity": 65,
            "startTime": 15.38,
            "duration": 3.08
          },
          {
            "note": 59,
            "velocity": 62,
            "startTime": 15.38,
            "duration": 3.08
          },
          {
            "note": 64,
            "velocity": 60,
            "startTime": 15.38,
            "duration": 3.08
          },
          {
            "note": 52,
            "velocity": 65,
            "startTime": 18.46,
            "duration": 3.08
          },
          {
            "note": 55,
            "velocity": 62,
            "startTime": 18.46,
            "duration": 3.08
          },
          {
            "note": 59,
            "velocity": 60,
            "startTime": 18.46,
            "duration": 3.08
          },
          {
            "note": 48,
            "velocity": 65,
            "startTime": 21.54,
            "duration": 3.08
          },
          {
            "note": 52,
            "velocity": 62,
            "startTime": 21.54,
            "duration": 3.08
          },
          {
            "note": 55,
            "velocity": 60,
            "startTime": 21.54,
            "duration": 3.08
          },
          {
            "note": 52,
            "velocity": 65,
            "startTime": 24.62,
            "duration": 3.08
          },
          {
            "note": 55,
            "velocity": 62,
            "startTime": 24.62,
            "duration": 3.08
          },
          {
            "note": 59,
            "velocity": 60,
            "startTime": 24.62,
            "duration": 3.08
          },
          {
            "note": 55,
            "velocity": 65,
            "startTime": 27.69,
            "duration": 3.08
          },
          {
            "note": 59,
            "velocity": 62,
            "startTime": 27.69,
            "duration": 3.08
          },
          {
            "note": 64,
            "velocity": 60,
            "startTime": 27.69,
            "duration": 3.08
          },
          {
            "note": 52,
            "velocity": 65,
            "startTime": 30.77,
            "duration": 3.08
          },
          {
            "note": 55,
            "velocity": 62,
            "startTime": 30.77,
            "duration": 3.08
          },
          {
            "note": 59,
            "velocity": 60,
            "startTime": 30.77,
            "duration": 3.08
          },
          {
            "note": 48,
            "velocity": 65,
            "startTime": 33.85,
            "duration": 3.08
          },
          {
            "note": 52,
            "velocity": 62,
            "startTime": 33.85,
            "duration": 3.08
          },
          {
            "note": 55,
            "velocity": 60,
            "startTime": 33.85,
            "duration": 3.08
          },
          {
            "note": 52,
            "velocity": 65,
            "startTime": 36.92,
            "duration": 3.08
          },
          {
            "note": 55,
            "velocity": 62,
            "startTime": 36.92,
            "duration": 3.08
          },
          {
            "note": 59,
            "velocity": 60,
            "startTime": 36.92,
            "duration": 3.08
          },
          {
            "note": 55,
            "velocity": 60,
            "startTime": 40.0,
            "duration": 2.5
          },
          {
            "note": 59,
            "velocity": 58,
            "startTime": 40.0,
            "duration": 2.5
          },
          {
            "note": 64,
            "velocity": 55,
            "startTime": 40.0,
            "duration": 2.5
          },
          {
            "note": 52,
            "velocity": 55,
            "startTime": 42.5,
            "duration": 2.5
          },
          {
            "note": 55,
            "velocity": 52,
            "startTime": 42.5,
            "duration": 2.5
          },
          {
            "note": 59,
            "velocity": 50,
            "startTime": 42.5,
            "duration": 2.5
          }
        ]
      },
      {
        "name": "Subtle Percussion",
        "program": 0,
        "role": "drums",
        "totalDuration": 45,
        "notes": [
          {
            "note": 42,
            "velocity": 50,
            "startTime": 0,
            "duration": 0.2
          },
          {
            "note": 36,
            "velocity": 65,
            "startTime": 0,
            "duration": 0.3
          },
          {
            "note": 42,
            "velocity": 48,
            "startTime": 0.77,
            "duration": 0.2
          },
          {
            "note": 42,
            "velocity": 52,
            "startTime": 1.54,
            "duration": 0.2
          },
          {
            "note": 38,
            "velocity": 55,
            "startTime": 1.54,
            "duration": 0.3
          },
          {
            "note": 42,
            "velocity": 48,
            "startTime": 2.31,
            "duration": 0.2
          },
          {
            "note": 42,
            "velocity": 50,
            "startTime": 3.08,
            "duration": 0.2
          },
          {
            "note": 36,
            "velocity": 65,
            "startTime": 3.08,
            "duration": 0.3
          },
          {
            "note": 42,
            "velocity": 48,
            "startTime": 3.85,
            "duration": 0.2
          },
          {
            "note": 42,
            "velocity": 52,
            "startTime": 4.62,
            "duration": 0.2
          },
          {
            "note": 38,
            "velocity": 55,
            "startTime": 4.62,
            "duration": 0.3
          },
          {
            "note": 42,
            "velocity": 48,
            "startTime": 5.38,
            "duration": 0.2
          },
          {
            "note": 42,
            "velocity": 50,
            "startTime": 6.15,
            "duration": 0.2
          },
          {
            "note": 36,
            "velocity": 65,
            "startTime": 6.15,
            "duration": 0.3
          },
          {
            "note": 42,
            "velocity": 48,
            "startTime": 6.92,
            "duration": 0.2
          },
          {
            "note": 42,
            "velocity": 52,
            "startTime": 7.69,
            "duration": 0.2
          },
          {
            "note": 38,
            "velocity": 55,
            "startTime": 7.69,
            "duration": 0.3
          },
          {
            "note": 42,
            "velocity": 48,
            "startTime": 8.46,
            "duration": 0.2
          },
          {
            "note": 42,
            "velocity": 50,
            "startTime": 9.23,
            "duration": 0.2
          },
          {
            "note": 36,
            "velocity": 65,
            "startTime": 9.23,
            "duration": 0.3
          },
          {
            "note": 42,
            "velocity": 48,
            "startTime": 10.0,
            "duration": 0.2
          },
          {
            "note": 42,
            "velocity": 52,
            "startTime": 10.77,
            "duration": 0.2
          },
          {
            "note": 38,
            "velocity": 55,
            "startTime": 10.77,
            "duration": 0.3
          },
          {
            "note": 42,
            "velocity": 48,
            "startTime": 11.54,
            "duration": 0.2
          },
          {
            "note": 42,
            "velocity": 50,
            "startTime": 12.31,
            "duration": 0.2
          },
          {
            "note": 36,
            "velocity": 65,
            "startTime": 12.31,
            "duration": 0.3
          },
          {
            "note": 42,
            "velocity": 48,
            "startTime": 13.08,
            "duration": 0.2
          },
          {
            "note": 42,
            "velocity": 52,
            "startTime": 13.85,
            "duration": 0.2
          },
          {
            "note": 38,
            "velocity": 55,
            "startTime": 13.85,
            "duration": 0.3
          },
          {
            "note": 42,
            "velocity": 48,
            "startTime": 14.62,
            "duration": 0.2
          },
          {
            "note": 42,
            "velocity": 50,
            "startTime": 15.38,
            "duration": 0.2
          },
          {
            "note": 36,
            "velocity": 65,
            "startTime": 15.38,
            "duration": 0.3
          },
          {
            "note": 42,
            "velocity": 48,
            "startTime": 16.15,
            "duration": 0.2
          },
          {
            "note": 42,
            "velocity": 52,
            "startTime": 16.92,
            "duration": 0.2
          },
          {
            "note": 38,
            "velocity": 55,
            "startTime": 16.92,
            "duration": 0.3
          },
          {
            "note": 42,
            "velocity": 48,
            "startTime": 17.69,
            "duration": 0.2
          },
          {
            "note": 42,
            "velocity": 50,
            "startTime": 18.46,
            "duration": 0.2
          },
          {
            "note": 36,
            "velocity": 65,
            "startTime": 18.46,
            "duration": 0.3
          },
          {
            "note": 42,
            "velocity": 48,
            "startTime": 19.23,
            "duration": 0.2
          },
          {
            "note": 42,
            "velocity": 52,
            "startTime": 20.0,
            "duration": 0.2
          },
          {
            "note": 38,
            "velocity": 55,
            "startTime": 20.0,
            "duration": 0.3
          },
          {
            "note": 42,
            "velocity": 48,
            "startTime": 20.77,
            "duration": 0.2
          },
          {
            "note": 42,
            "velocity": 50,
            "startTime": 21.54,
            "duration": 0.2
          },
          {
            "note": 36,
            "velocity": 65,
            "startTime": 21.54,
            "duration": 0.3
          },
          {
            "note": 42,
            "velocity": 48,
            "startTime": 22.31,
            "duration": 0.2
          },
          {
            "note": 42,
            "velocity": 52,
            "startTime": 23.08,
            "duration": 0.2
          },
          {
            "note": 38,
            "velocity": 55,
            "startTime": 23.08,
            "duration": 0.3
          },
          {
            "note": 42,
            "velocity": 48,
            "startTime": 23.85,
            "duration": 0.2
          },
          {
            "note": 42,
            "velocity": 50,
            "startTime": 24.62,
            "duration": 0.2
          },
          {
            "note": 36,
            "velocity": 65,
            "startTime": 24.62,
            "duration": 0.3
          },
          {
            "note": 42,
            "velocity": 48,
            "startTime": 25.38,
            "duration": 0.2
          },
          {
            "note": 42,
            "velocity": 52,
            "startTime": 26.15,
            "duration": 0.2
          },
          {
            "note": 38,
            "velocity": 55,
            "startTime": 26.15,
            "duration": 0.3
          },
          {
            "note": 42,
            "velocity": 48,
            "startTime": 26.92,
            "duration": 0.2
          },
          {
            "note": 42,
            "velocity": 50,
            "startTime": 27.69,
            "duration": 0.2
          },
          {
            "note": 36,
            "velocity": 65,
            "startTime": 27.69,
            "duration": 0.3
          },
          {
            "note": 42,
            "velocity": 48,
            "startTime": 28.46,
            "duration": 0.2
          },
          {
            "note": 42,
            "velocity": 52,
            "startTime": 29.23,
            "duration": 0.2
          },
          {
            "note": 38,
            "velocity": 55,
            "startTime": 29.23,
            "duration": 0.3
          },
          {
            "note": 42,
            "velocity": 48,
            "startTime": 30.0,
            "duration": 0.2
          },
          {
            "note": 42,
            "velocity": 50,
            "startTime": 30.77,
            "duration": 0.2
          },
          {
            "note": 36,
            "velocity": 65,
            "startTime": 30.77,
            "duration": 0.3
          },
          {
            "note": 42,
            "velocity": 48,
            "startTime": 31.54,
            "duration": 0.2
          },
          {
            "note": 42,
            "velocity": 52,
            "startTime": 32.31,
            "duration": 0.2
          },
          {
            "note": 38,
            "velocity": 55,
            "startTime": 32.31,
            "duration": 0.3
          },
          {
            "note": 42,
            "velocity": 48,
            "startTime": 33.08,
            "duration": 0.2
          },
          {
            "note": 42,
            "velocity": 50,
            "startTime": 33.85,
            "duration": 0.2
          },
          {
            "note": 36,
            "velocity": 65,
            "startTime": 33.85,
            "duration": 0.3
          },
          {
            "note": 42,
            "velocity": 48,
            "startTime": 34.62,
            "duration": 0.2
          },
          {
            "note": 42,
            "velocity": 52,
            "startTime": 35.38,
            "duration": 0.2
          },
          {
            "note": 38,
            "velocity": 55,
            "startTime": 35.38,
            "duration": 0.3
          },
          {
            "note": 42,
            "velocity": 48,
            "startTime": 36.15,
            "duration": 0.2
          },
          {
            "note": 42,
            "velocity": 50,
            "startTime": 36.92,
            "duration": 0.2
          },
          {
            "note": 36,
            "velocity": 65,
            "startTime": 36.92,
            "duration": 0.3
          },
          {
            "note": 42,
            "velocity": 48,
            "startTime": 37.69,
            "duration": 0.2
          },
          {
            "note": 42,
            "velocity": 52,
            "startTime": 38.46,
            "duration": 0.2
          },
          {
            "note": 38,
            "velocity": 55,
            "startTime": 38.46,
            "duration": 0.3
          },
          {
            "note": 42,
            "velocity": 48,
            "startTime": 39.23,
            "duration": 0.2
          },
          {
            "note": 42,
            "velocity": 48,
            "startTime": 40.0,
            "duration": 0.2
          },
          {
            "note": 36,
            "velocity": 60,
            "startTime": 40.0,
            "duration": 0.3
          },
          {
            "note": 42,
            "velocity": 45,
            "startTime": 40.77,
            "duration": 0.2
          },
          {
            "note": 42,
            "velocity": 48,
            "startTime": 41.54,
            "duration": 0.2
          },
          {
            "note": 38,
            "velocity": 50,
            "startTime": 41.54,
            "duration": 0.3
          },
          {
            "note": 42,
            "velocity": 42,
            "startTime": 42.31,
            "duration": 0.2
          },
          {
            "note": 42,
            "velocity": 45,
            "startTime": 43.08,
            "duration": 0.2
          },
          {
            "note": 36,
            "velocity": 55,
            "startTime": 43.08,
            "duration": 0.3
          },
          {
            "note": 42,
            "velocity": 40,
            "startTime": 43.85,
            "duration": 0.2
          },
          {
            "note": 42,
            "velocity": 38,
            "startTime": 44.62,
            "duration": 0.2
          }
        ]
      }
    ],
    "key": "Em",
    "bpm": 78,
    "scale": "pentatonic"
  },
  {
    "genre": "rock",
    "mode": "energize",
    "tracks": [
      {
        "name": "Overdriven Lead Guitar",
        "program": 29,
        "role": "melody",
        "totalDuration": 45,
        "notes": [
          {
            "note": 64,
            "velocity": 100,
            "startTime": 0,
            "duration": 0.4
          },
          {
            "note": 67,
            "velocity": 105,
            "startTime": 0.48,
            "duration": 0.4
          },
          {
            "note": 69,
            "velocity": 110,
            "startTime": 0.96,
            "duration": 0.3
          },
          {
            "note": 72,
            "velocity": 108,
            "startTime": 1.44,
            "duration": 0.5
          },
          {
            "note": 76,
            "velocity": 115,
            "startTime": 2.4,
            "duration": 0.6
          },
          {
            "note": 74,
            "velocity": 100,
            "startTime": 3.36,
            "duration": 0.3
          },
          {
            "note": 72,
            "velocity": 105,
            "startTime": 3.84,
            "duration": 0.48
          },
          {
            "note": 69,
            "velocity": 110,
            "startTime": 4.8,
            "duration": 0.4
          },
          {
            "note": 67,
            "velocity": 100,
            "startTime": 5.28,
            "duration": 0.48
          },
          {
            "note": 64,
            "velocity": 95,
            "startTime": 5.76,
            "duration": 0.5
          },
          {
            "note": 67,
            "velocity": 108,
            "startTime": 7.2,
            "duration": 0.3
          },
          {
            "note": 69,
            "velocity": 112,
            "startTime": 7.68,
            "duration": 0.4
          },
          {
            "note": 72,
            "velocity": 115,
            "startTime": 8.16,
            "duration": 0.5
          },
          {
            "note": 76,
            "velocity": 120,
            "startTime": 9.12,
            "duration": 0.7
          },
          {
            "note": 79,
            "velocity": 118,
            "startTime": 10.08,
            "duration": 0.48
          },
          {
            "note": 76,
            "velocity": 110,
            "startTime": 10.56,
            "duration": 0.4
          },
          {
            "note": 72,
            "velocity": 105,
            "startTime": 11.52,
            "duration": 0.48
          },
          {
            "note": 69,
            "velocity": 100,
            "startTime": 12.0,
            "duration": 0.3
          },
          {
            "note": 64,
            "velocity": 95,
            "startTime": 12.48,
            "duration": 0.5
          },
          {
            "note": 67,
            "velocity": 105,
            "startTime": 13.44,
            "duration": 0.4
          },
          {
            "note": 72,
            "velocity": 110,
            "startTime": 14.4,
            "duration": 0.6
          },
          {
            "note": 76,
            "velocity": 115,
            "startTime": 15.36,
            "duration": 0.48
          },
          {
            "note": 79,
            "velocity": 120,
            "startTime": 16.32,
            "duration": 0.7
          },
          {
            "note": 84,
            "velocity": 125,
            "startTime": 17.28,
            "duration": 0.8
          },
          {
            "note": 79,
            "velocity": 115,
            "startTime": 18.72,
            "duration": 0.48
          },
          {
            "note": 76,
            "velocity": 110,
            "startTime": 19.68,
            "duration": 0.5
          },
          {
            "note": 72,
            "velocity": 108,
            "startTime": 20.64,
            "duration": 0.4
          },
          {
            "note": 69,
            "velocity": 100,
            "startTime": 21.12,
            "duration": 0.48
          },
          {
            "note": 64,
            "velocity": 95,
            "startTime": 22.08,
            "duration": 0.5
          },
          {
            "note": 67,
            "velocity": 100,
            "startTime": 23.04,
            "duration": 0.3
          },
          {
            "note": 69,
            "velocity": 108,
            "startTime": 23.52,
            "duration": 0.4
          },
          {
            "note": 72,
            "velocity": 112,
            "startTime": 24.0,
            "duration": 0.48
          },
          {
            "note": 76,
            "velocity": 118,
            "startTime": 24.96,
            "duration": 0.6
          },
          {
            "note": 79,
            "velocity": 120,
            "startTime": 25.92,
            "duration": 0.5
          },
          {
            "note": 84,
            "velocity": 125,
            "startTime": 26.88,
            "duration": 0.7
          },
          {
            "note": 79,
            "velocity": 115,
            "startTime": 28.32,
            "duration": 0.48
          },
          {
            "note": 76,
            "velocity": 110,
            "startTime": 29.28,
            "duration": 0.4
          },
          {
            "note": 72,
            "velocity": 105,
            "startTime": 30.24,
            "duration": 0.5
          },
          {
            "note": 69,
            "velocity": 100,
            "startTime": 31.2,
            "duration": 0.48
          },
          {
            "note": 67,
            "velocity": 108,
            "startTime": 32.16,
            "duration": 0.4
          },
          {
            "note": 72,
            "velocity": 115,
            "startTime": 33.12,
            "duration": 0.6
          },
          {
            "note": 76,
            "velocity": 120,
            "startTime": 34.08,
            "duration": 0.5
          },
          {
            "note": 79,
            "velocity": 122,
            "startTime": 35.04,
            "duration": 0.7
          },
          {
            "note": 84,
            "velocity": 127,
            "startTime": 36.0,
            "duration": 0.96
          },
          {
            "note": 79,
            "velocity": 118,
            "startTime": 37.44,
            "duration": 0.48
          },
          {
            "note": 76,
            "velocity": 112,
            "startTime": 38.4,
            "duration": 0.5
          },
          {
            "note": 72,
            "velocity": 108,
            "startTime": 39.36,
            "duration": 0.48
          },
          {
            "note": 69,
            "velocity": 105,
            "startTime": 40.32,
            "duration": 0.4
          },
          {
            "note": 67,
            "velocity": 100,
            "startTime": 41.28,
            "duration": 0.48
          },
          {
            "note": 64,
            "velocity": 110,
            "startTime": 42.24,
            "duration": 0.6
          },
          {
            "note": 67,
            "velocity": 115,
            "startTime": 43.2,
            "duration": 0.48
          },
          {
            "note": 72,
            "velocity": 120,
            "startTime": 44.16,
            "duration": 0.84
          }
        ]
      },
      {
        "name": "Rock Bass",
        "program": 33,
        "role": "bass",
        "totalDuration": 45,
        "notes": [
          {
            "note": 40,
            "velocity": 110,
            "startTime": 0,
            "duration": 0.48
          },
          {
            "note": 40,
            "velocity": 105,
            "startTime": 0.48,
            "duration": 0.48
          },
          {
            "note": 43,
            "velocity": 108,
            "startTime": 0.96,
            "duration": 0.48
          },
          {
            "note": 45,
            "velocity": 110,
            "startTime": 1.44,
            "duration": 0.96
          },
          {
            "note": 40,
            "velocity": 112,
            "startTime": 2.4,
            "duration": 0.48
          },
          {
            "note": 40,
            "velocity": 100,
            "startTime": 2.88,
            "duration": 0.48
          },
          {
            "note": 43,
            "velocity": 108,
            "startTime": 3.36,
            "duration": 0.48
          },
          {
            "note": 45,
            "velocity": 110,
            "startTime": 3.84,
            "duration": 0.96
          },
          {
            "note": 40,
            "velocity": 112,
            "startTime": 4.8,
            "duration": 0.48
          },
          {
            "note": 40,
            "velocity": 105,
            "startTime": 5.28,
            "duration": 0.48
          },
          {
            "note": 43,
            "velocity": 108,
            "startTime": 5.76,
            "duration": 0.48
          },
          {
            "note": 45,
            "velocity": 110,
            "startTime": 6.24,
            "duration": 0.96
          },
          {
            "note": 40,
            "velocity": 115,
            "startTime": 7.2,
            "duration": 0.48
          },
          {
            "note": 43,
            "velocity": 108,
            "startTime": 7.68,
            "duration": 0.48
          },
          {
            "note": 45,
            "velocity": 112,
            "startTime": 8.16,
            "duration": 0.96
          },
          {
            "note": 47,
            "velocity": 110,
            "startTime": 9.12,
            "duration": 0.48
          },
          {
            "note": 45,
            "velocity": 105,
            "startTime": 9.6,
            "duration": 0.48
          },
          {
            "note": 40,
            "velocity": 112,
            "startTime": 10.08,
            "duration": 0.96
          },
          {
            "note": 40,
            "velocity": 108,
            "startTime": 11.04,
            "duration": 0.48
          },
          {
            "note": 43,
            "velocity": 110,
            "startTime": 11.52,
            "duration": 0.48
          },
          {
            "note": 45,
            "velocity": 112,
            "startTime": 12.0,
            "duration": 0.96
          },
          {
            "note": 40,
            "velocity": 115,
            "startTime": 12.96,
            "duration": 0.48
          },
          {
            "note": 40,
            "velocity": 108,
            "startTime": 13.44,
            "duration": 0.48
          },
          {
            "note": 43,
            "velocity": 110,
            "startTime": 13.92,
            "duration": 0.48
          },
          {
            "note": 45,
            "velocity": 112,
            "startTime": 14.4,
            "duration": 0.96
          },
          {
            "note": 47,
            "velocity": 115,
            "startTime": 15.36,
            "duration": 0.48
          },
          {
            "note": 45,
            "velocity": 108,
            "startTime": 15.84,
            "duration": 0.48
          },
          {
            "note": 40,
            "velocity": 112,
            "startTime": 16.32,
            "duration": 0.96
          },
          {
            "note": 40,
            "velocity": 110,
            "startTime": 17.28,
            "duration": 0.48
          },
          {
            "note": 43,
            "velocity": 108,
            "startTime": 17.76,
            "duration": 0.48
          },
          {
            "note": 45,
            "velocity": 112,
            "startTime": 18.24,
            "duration": 0.96
          },
          {
            "note": 40,
            "velocity": 115,
            "startTime": 19.2,
            "duration": 0.48
          },
          {
            "note": 40,
            "velocity": 105,
            "startTime": 19.68,
            "duration": 0.48
          },
          {
            "note": 43,
            "velocity": 110,
            "startTime": 20.16,
            "duration": 0.48
          },
          {
            "note": 45,
            "velocity": 112,
            "startTime": 20.64,
            "duration": 0.96
          },
          {
            "note": 47,
            "velocity": 110,
            "startTime": 21.6,
            "duration": 0.48
          },
          {
            "note": 45,
            "velocity": 108,
            "startTime": 22.08,
            "duration": 0.48
          },
          {
            "note": 40,
            "velocity": 112,
            "startTime": 22.56,
            "duration": 0.96
          },
          {
            "note": 40,
            "velocity": 115,
            "startTime": 23.52,
            "duration": 0.48
          },
          {
            "note": 43,
            "velocity": 110,
            "startTime": 24.0,
            "duration": 0.48
          },
          {
            "note": 45,
            "velocity": 112,
            "startTime": 24.48,
            "duration": 0.96
          },
          {
            "note": 40,
            "velocity": 118,
            "startTime": 25.44,
            "duration": 0.48
          },
          {
            "note": 40,
            "velocity": 108,
            "startTime": 25.92,
            "duration": 0.48
          },
          {
            "note": 43,
            "velocity": 112,
            "startTime": 26.4,
            "duration": 0.48
          },
          {
            "note": 45,
            "velocity": 115,
            "startTime": 26.88,
            "duration": 0.96
          },
          {
            "note": 47,
            "velocity": 112,
            "startTime": 27.84,
            "duration": 0.48
          },
          {
            "note": 45,
            "velocity": 108,
            "startTime": 28.32,
            "duration": 0.48
          },
          {
            "note": 40,
            "velocity": 115,
            "startTime": 28.8,
            "duration": 0.96
          },
          {
            "note": 40,
            "velocity": 110,
            "startTime": 29.76,
            "duration": 0.48
          },
          {
            "note": 43,
            "velocity": 112,
            "startTime": 30.24,
            "duration": 0.48
          },
          {
            "note": 45,
            "velocity": 115,
            "startTime": 30.72,
            "duration": 0.96
          },
          {
            "note": 40,
            "velocity": 118,
            "startTime": 31.68,
            "duration": 0.48
          },
          {
            "note": 40,
            "velocity": 110,
            "startTime": 32.16,
            "duration": 0.48
          },
          {
            "note": 43,
            "velocity": 112,
            "startTime": 32.64,
            "duration": 0.48
          },
          {
            "note": 45,
            "velocity": 115,
            "startTime": 33.12,
            "duration": 0.96
          },
          {
            "note": 47,
            "velocity": 118,
            "startTime": 34.08,
            "duration": 0.48
          },
          {
            "note": 45,
            "velocity": 112,
            "startTime": 34.56,
            "duration": 0.48
          },
          {
            "note": 40,
            "velocity": 118,
            "startTime": 35.04,
            "duration": 0.96
          },
          {
            "note": 40,
            "velocity": 115,
            "startTime": 36.0,
            "duration": 0.48
          },
          {
            "note": 43,
            "velocity": 112,
            "startTime": 36.48,
            "duration": 0.48
          },
          {
            "note": 45,
            "velocity": 118,
            "startTime": 36.96,
            "duration": 0.96
          },
          {
            "note": 40,
            "velocity": 120,
            "startTime": 37.92,
            "duration": 0.48
          },
          {
            "note": 40,
            "velocity": 112,
            "startTime": 38.4,
            "duration": 0.48
          },
          {
            "note": 43,
            "velocity": 115,
            "startTime": 38.88,
            "duration": 0.48
          },
          {
            "note": 45,
            "velocity": 118,
            "startTime": 39.36,
            "duration": 0.96
          },
          {
            "note": 47,
            "velocity": 115,
            "startTime": 40.32,
            "duration": 0.48
          },
          {
            "note": 45,
            "velocity": 112,
            "startTime": 40.8,
            "duration": 0.48
          },
          {
            "note": 40,
            "velocity": 118,
            "startTime": 41.28,
            "duration": 0.96
          },
          {
            "note": 43,
            "velocity": 115,
            "startTime": 42.24,
            "duration": 0.48
          },
          {
            "note": 45,
            "velocity": 118,
            "startTime": 42.72,
            "duration": 0.96
          },
          {
            "note": 40,
            "velocity": 120,
            "startTime": 43.68,
            "duration": 1.32
          }
        ]
      },
      {
        "name": "Power Chords Guitar",
        "program": 29,
        "role": "chords",
        "totalDuration": 45,
        "notes": [
          {
            "note": 52,
            "velocity": 115,
            "startTime": 0,
            "duration": 0.96
          },
          {
            "note": 59,
            "velocity": 112,
            "startTime": 0,
            "duration": 0.96
          },
          {
            "note": 52,
            "velocity": 110,
            "startTime": 0.96,
            "duration": 0.48
          },
          {
            "note": 59,
            "velocity": 108,
            "startTime": 0.96,
            "duration": 0.48
          },
          {
            "note": 55,
            "velocity": 115,
            "startTime": 1.44,
            "duration": 0.96
          },
          {
            "note": 62,
            "velocity": 112,
            "startTime": 1.44,
            "duration": 0.96
          },
          {
            "note": 52,
            "velocity": 118,
            "startTime": 2.4,
            "duration": 0.96
          },
          {
            "note": 59,
            "velocity": 115,
            "startTime": 2.4,
            "duration": 0.96
          },
          {
            "note": 52,
            "velocity": 110,
            "startTime": 3.36,
            "duration": 0.48
          },
          {
            "note": 59,
            "velocity": 108,
            "startTime": 3.36,
            "duration": 0.48
          },
          {
            "note": 55,
            "velocity": 115,
            "startTime": 3.84,
            "duration": 0.96
          },
          {
            "note": 62,
            "velocity": 112,
            "startTime": 3.84,
            "duration": 0.96
          },
          {
            "note": 52,
            "velocity": 118,
            "startTime": 4.8,
            "duration": 0.96
          },
          {
            "note": 59,
            "velocity": 115,
            "startTime": 4.8,
            "duration": 0.96
          },
          {
            "note": 52,
            "velocity": 112,
            "startTime": 5.76,
            "duration": 0.48
          },
          {
            "note": 59,
            "velocity": 110,
            "startTime": 5.76,
            "duration": 0.48
          },
          {
            "note": 55,
            "velocity": 115,
            "startTime": 6.24,
            "duration": 0.96
          },
          {
            "note": 62,
            "velocity": 112,
            "startTime": 6.24,
            "duration": 0.96
          },
          {
            "note": 52,
            "velocity": 120,
            "startTime": 7.2,
            "duration": 0.96
          },
          {
            "note": 59,
            "velocity": 118,
            "startTime": 7.2,
            "duration": 0.96
          },
          {
            "note": 55,
            "velocity": 118,
            "startTime": 8.16,
            "duration": 0.96
          },
          {
            "note": 62,
            "velocity": 115,
            "startTime": 8.16,
            "duration": 0.96
          },
          {
            "note": 57,
            "velocity": 120,
            "startTime": 9.12,
            "duration": 0.96
          },
          {
            "note": 64,
            "velocity": 118,
            "startTime": 9.12,
            "duration": 0.96
          },
          {
            "note": 52,
            "velocity": 115,
            "startTime": 10.08,
            "duration": 1.44
          },
          {
            "note": 59,
            "velocity": 112,
            "startTime": 10.08,
            "duration": 1.44
          },
          {
            "note": 52,
            "velocity": 118,
            "startTime": 11.52,
            "duration": 0.48
          },
          {
            "note": 59,
            "velocity": 115,
            "startTime": 11.52,
            "duration": 0.48
          },
          {
            "note": 55,
            "velocity": 115,
            "startTime": 12.0,
            "duration": 0.96
          },
          {
            "note": 62,
            "velocity": 112,
            "startTime": 12.0,
            "duration": 0.96
          },
          {
            "note": 52,
            "velocity": 120,
            "startTime": 12.96,
            "duration": 0.96
          },
          {
            "note": 59,
            "velocity": 118,
            "startTime": 12.96,
            "duration": 0.96
          },
          {
            "note": 52,
            "velocity": 112,
            "startTime": 13.92,
            "duration": 0.48
          },
          {
            "note": 59,
            "velocity": 110,
            "startTime": 13.92,
            "duration": 0.48
          },
          {
            "note": 55,
            "velocity": 118,
            "startTime": 14.4,
            "duration": 0.96
          },
          {
            "note": 62,
            "velocity": 115,
            "startTime": 14.4,
            "duration": 0.96
          },
          {
            "note": 57,
            "velocity": 120,
            "startTime": 15.36,
            "duration": 0.96
          },
          {
            "note": 64,
            "velocity": 118,
            "startTime": 15.36,
            "duration": 0.96
          },
          {
            "note": 52,
            "velocity": 118,
            "startTime": 16.32,
            "duration": 0.96
          },
          {
            "note": 59,
            "velocity": 115,
            "startTime": 16.32,
            "duration": 0.96
          },
          {
            "note": 55,
            "velocity": 118,
            "startTime": 17.28,
            "duration": 0.96
          },
          {
            "note": 62,
            "velocity": 115,
            "startTime": 17.28,
            "duration": 0.96
          },
          {
            "note": 52,
            "velocity": 120,
            "startTime": 18.24,
            "duration": 0.96
          },
          {
            "note": 59,
            "velocity": 118,
            "startTime": 18.24,
            "duration": 0.96
          },
          {
            "note": 52,
            "velocity": 115,
            "startTime": 19.2,
            "duration": 0.48
          },
          {
            "note": 59,
            "velocity": 112,
            "startTime": 19.2,
            "duration": 0.48
          },
          {
            "note": 55,
            "velocity": 118,
            "startTime": 19.68,
            "duration": 0.96
          },
          {
            "note": 62,
            "velocity": 115,
            "startTime": 19.68,
            "duration": 0.96
          },
          {
            "note": 52,
            "velocity": 120,
            "startTime": 20.64,
            "duration": 0.96
          },
          {
            "note": 59,
            "velocity": 118,
            "startTime": 20.64,
            "duration": 0.96
          },
          {
            "note": 57,
            "velocity": 120,
            "startTime": 21.6,
            "duration": 0.96
          },
          {
            "note": 64,
            "velocity": 118,
            "startTime": 21.6,
            "duration": 0.96
          },
          {
            "note": 52,
            "velocity": 118,
            "startTime": 22.56,
            "duration": 0.96
          },
          {
            "note": 59,
            "velocity": 115,
            "startTime": 22.56,
            "duration": 0.96
          },
          {
            "note": 52,
            "velocity": 115,
            "startTime": 23.52,
            "duration": 0.48
          },
          {
            "note": 59,
            "velocity": 112,
            "startTime": 23.52,
            "duration": 0.48
          },
          {
            "note": 55,
            "velocity": 118,
            "startTime": 24.0,
            "duration": 0.96
          },
          {
            "note": 62,
            "velocity": 115,
            "startTime": 24.0,
            "duration": 0.96
          },
          {
            "note": 52,
            "velocity": 122,
            "startTime": 24.96,
            "duration": 0.96
          },
          {
            "note": 59,
            "velocity": 120,
            "startTime": 24.96,
            "duration": 0.96
          },
          {
            "note": 52,
            "velocity": 115,
            "startTime": 25.92,
            "duration": 0.48
          },
          {
            "note": 59,
            "velocity": 112,
            "startTime": 25.92,
            "duration": 0.48
          },
          {
            "note": 55,
            "velocity": 120,
            "startTime": 26.4,
            "duration": 0.48
          },
          {
            "note": 62,
            "velocity": 118,
            "startTime": 26.4,
            "duration": 0.48
          },
          {
            "note": 57,
            "velocity": 122,
            "startTime": 26.88,
            "duration": 0.96
          },
          {
            "note": 64,
            "velocity": 120,
            "startTime": 26.88,
            "duration": 0.96
          },
          {
            "note": 52,
            "velocity": 120,
            "startTime": 27.84,
            "duration": 0.96
          },
          {
            "note": 59,
            "velocity": 118,
            "startTime": 27.84,
            "duration": 0.96
          },
          {
            "note": 55,
            "velocity": 120,
            "startTime": 28.8,
            "duration": 0.96
          },
          {
            "note": 62,
            "velocity": 118,
            "startTime": 28.8,
            "duration": 0.96
          },
          {
            "note": 52,
            "velocity": 122,
            "startTime": 29.76,
            "duration": 0.96
          },
          {
            "note": 59,
            "velocity": 120,
            "startTime": 29.76,
            "duration": 0.96
          },
          {
            "note": 55,
            "velocity": 120,
            "startTime": 30.72,
            "duration": 0.96
          },
          {
            "note": 62,
            "velocity": 118,
            "startTime": 30.72,
            "duration": 0.96
          },
          {
            "note": 52,
            "velocity": 122,
            "startTime": 31.68,
            "duration": 0.96
          },
          {
            "note": 59,
            "velocity": 120,
            "startTime": 31.68,
            "duration": 0.96
          },
          {
            "note": 55,
            "velocity": 120,
            "startTime": 32.64,
            "duration": 0.48
          },
          {
            "note": 62,
            "velocity": 118,
            "startTime": 32.64,
            "duration": 0.48
          },
          {
            "note": 57,
            "velocity": 122,
            "startTime": 33.12,
            "duration": 0.96
          },
          {
            "note": 64,
            "velocity": 120,
            "startTime": 33.12,
            "duration": 0.96
          },
          {
            "note": 52,
            "velocity": 120,
            "startTime": 34.08,
            "duration": 0.96
          },
          {
            "note": 59,
            "velocity": 118,
            "startTime": 34.08,
            "duration": 0.96
          },
          {
            "note": 55,
            "velocity": 122,
            "startTime": 35.04,
            "duration": 0.96
          },
          {
            "note": 62,
            "velocity": 120,
            "startTime": 35.04,
            "duration": 0.96
          },
          {
            "note": 52,
            "velocity": 125,
            "startTime": 36.0,
            "duration": 0.96
          },
          {
            "note": 59,
            "velocity": 122,
            "startTime": 36.0,
            "duration": 0.96
          },
          {
            "note": 55,
            "velocity": 122,
            "startTime": 36.96,
            "duration": 0.96
          },
          {
            "note": 62,
            "velocity": 120,
            "startTime": 36.96,
            "duration": 0.96
          },
          {
            "note": 57,
            "velocity": 125,
            "startTime": 37.92,
            "duration": 0.96
          },
          {
            "note": 64,
            "velocity": 122,
            "startTime": 37.92,
            "duration": 0.96
          },
          {
            "note": 52,
            "velocity": 122,
            "startTime": 38.88,
            "duration": 0.96
          },
          {
            "note": 59,
            "velocity": 120,
            "startTime": 38.88,
            "duration": 0.96
          },
          {
            "note": 55,
            "velocity": 122,
            "startTime": 39.84,
            "duration": 0.96
          },
          {
            "note": 62,
            "velocity": 120,
            "startTime": 39.84,
            "duration": 0.96
          },
          {
            "note": 52,
            "velocity": 125,
            "startTime": 40.8,
            "duration": 0.96
          },
          {
            "note": 59,
            "velocity": 122,
            "startTime": 40.8,
            "duration": 0.96
          },
          {
            "note": 55,
            "velocity": 122,
            "startTime": 41.76,
            "duration": 0.96
          },
          {
            "note": 62,
            "velocity": 120,
            "startTime": 41.76,
            "duration": 0.96
          },
          {
            "note": 57,
            "velocity": 125,
            "startTime": 42.72,
            "duration": 0.96
          },
          {
            "note": 64,
            "velocity": 122,
            "startTime": 42.72,
            "duration": 0.96
          },
          {
            "note": 52,
            "velocity": 127,
            "startTime": 43.68,
            "duration": 1.32
          },
          {
            "note": 59,
            "velocity": 125,
            "startTime": 43.68,
            "duration": 1.32
          }
        ]
      },
      {
        "name": "Full Rock Drums",
        "program": 0,
        "role": "drums",
        "totalDuration": 45,
        "notes": [
          {
            "note": 36,
            "velocity": 120,
            "startTime": 0,
            "duration": 0.2
          },
          {
            "note": 42,
            "velocity": 100,
            "startTime": 0,
            "duration": 0.15
          },
          {
            "note": 42,
            "velocity": 95,
            "startTime": 0.24,
            "duration": 0.15
          },
          {
            "note": 38,
            "velocity": 115,
            "startTime": 0.48,
            "duration": 0.2
          },
          {
            "note": 42,
            "velocity": 100,
            "startTime": 0.48,
            "duration": 0.15
          },
          {
            "note": 42,
            "velocity": 90,
            "startTime": 0.72,
            "duration": 0.15
          },
          {
            "note": 36,
            "velocity": 118,
            "startTime": 0.96,
            "duration": 0.2
          },
          {
            "note": 42,
            "velocity": 100,
            "startTime": 0.96,
            "duration": 0.15
          },
          {
            "note": 42,
            "velocity": 95,
            "startTime": 1.2,
            "duration": 0.15
          },
          {
            "note": 38,
            "velocity": 115,
            "startTime": 1.44,
            "duration": 0.2
          },
          {
            "note": 42,
            "velocity": 100,
            "startTime": 1.44,
            "duration": 0.15
          },
          {
            "note": 42,
            "velocity": 90,
            "startTime": 1.68,
            "duration": 0.15
          },
          {
            "note": 36,
            "velocity": 120,
            "startTime": 1.92,
            "duration": 0.2
          },
          {
            "note": 42,
            "velocity": 100,
            "startTime": 1.92,
            "duration": 0.15
          },
          {
            "note": 42,
            "velocity": 95,
            "startTime": 2.16,
            "duration": 0.15
          },
          {
            "note": 38,
            "velocity": 115,
            "startTime": 2.4,
            "duration": 0.2
          },
          {
            "note": 42,
            "velocity": 100,
            "startTime": 2.4,
            "duration": 0.15
          },
          {
            "note": 42,
            "velocity": 90,
            "startTime": 2.64,
            "duration": 0.15
          },
          {
            "note": 36,
            "velocity": 118,
            "startTime": 2.88,
            "duration": 0.2
          },
          {
            "note": 42,
            "velocity": 100,
            "startTime": 2.88,
            "duration": 0.15
          },
          {
            "note": 42,
            "velocity": 95,
            "startTime": 3.12,
            "duration": 0.15
          },
          {
            "note": 38,
            "velocity": 115,
            "startTime": 3.36,
            "duration": 0.2
          },
          {
            "note": 42,
            "velocity": 100,
            "startTime": 3.36,
            "duration": 0.15
          },
          {
            "note": 42,
            "velocity": 90,
            "startTime": 3.6,
            "duration": 0.15
          },
          {
            "note": 36,
            "velocity": 120,
            "startTime": 3.84,
            "duration": 0.2
          },
          {
            "note": 42,
            "velocity": 100,
            "startTime": 3.84,
            "duration": 0.15
          },
          {
            "note": 42,
            "velocity": 95,
            "startTime": 4.08,
            "duration": 0.15
          },
          {
            "note": 38,
            "velocity": 115,
            "startTime": 4.32,
            "duration": 0.2
          },
          {
            "note": 42,
            "velocity": 100,
            "startTime": 4.32,
            "duration": 0.15
          },
          {
            "note": 42,
            "velocity": 90,
            "startTime": 4.56,
            "duration": 0.15
          },
          {
            "note": 36,
            "velocity": 118,
            "startTime": 4.8,
            "duration": 0.2
          },
          {
            "note": 49,
            "velocity": 110,
            "startTime": 4.8,
            "duration": 0.2
          },
          {
            "note": 42,
            "velocity": 95,
            "startTime": 5.04,
            "duration": 0.15
          },
          {
            "note": 38,
            "velocity": 115,
            "startTime": 5.28,
            "duration": 0.2
          },
          {
            "note": 42,
            "velocity": 100,
            "startTime": 5.28,
            "duration": 0.15
          },
          {
            "note": 42,
            "velocity": 90,
            "startTime": 5.52,
            "duration": 0.15
          },
          {
            "note": 36,
            "velocity": 120,
            "startTime": 5.76,
            "duration": 0.2
          },
          {
            "note": 42,
            "velocity": 100,
            "startTime": 5.76,
            "duration": 0.15
          },
          {
            "note": 42,
            "velocity": 95,
            "startTime": 6.0,
            "duration": 0.15
          },
          {
            "note": 38,
            "velocity": 115,
            "startTime": 6.24,
            "duration": 0.2
          },
          {
            "note": 42,
            "velocity": 100,
            "startTime": 6.24,
            "duration": 0.15
          },
          {
            "note": 42,
            "velocity": 90,
            "startTime": 6.48,
            "duration": 0.15
          },
          {
            "note": 36,
            "velocity": 118,
            "startTime": 6.72,
            "duration": 0.2
          },
          {
            "note": 42,
            "velocity": 100,
            "startTime": 6.72,
            "duration": 0.15
          },
          {
            "note": 42,
            "velocity": 95,
            "startTime": 6.96,
            "duration": 0.15
          },
          {
            "note": 38,
            "velocity": 115,
            "startTime": 7.2,
            "duration": 0.2
          },
          {
            "note": 42,
            "velocity": 100,
            "startTime": 7.2,
            "duration": 0.15
          },
          {
            "note": 42,
            "velocity": 90,
            "startTime": 7.44,
            "duration": 0.15
          },
          {
            "note": 36,
            "velocity": 120,
            "startTime": 7.68,
            "duration": 0.2
          },
          {
            "note": 42,
            "velocity": 100,
            "startTime": 7.68,
            "duration": 0.15
          },
          {
            "note": 42,
            "velocity": 95,
            "startTime": 7.92,
            "duration": 0.15
          },
          {
            "note": 38,
            "velocity": 118,
            "startTime": 8.16,
            "duration": 0.2
          },
          {
            "note": 42,
            "velocity": 100,
            "startTime": 8.16,
            "duration": 0.15
          },
          {
            "note": 42,
            "velocity": 90,
            "startTime": 8.4,
            "duration": 0.15
          },
          {
            "note": 36,
            "velocity": 118,
            "startTime": 8.64,
            "duration": 0.2
          },
          {
            "note": 42,
            "velocity": 100,
            "startTime": 8.64,
            "duration": 0.15
          },
          {
            "note": 42,
            "velocity": 95,
            "startTime": 8.88,
            "duration": 0.15
          },
          {
            "note": 38,
            "velocity": 115,
            "startTime": 9.12,
            "duration": 0.2
          },
          {
            "note": 42,
            "velocity": 100,
            "startTime": 9.12,
            "duration": 0.15
          },
          {
            "note": 49,
            "velocity": 112,
            "startTime": 9.12,
            "duration": 0.2
          },
          {
            "note": 42,
            "velocity": 90,
            "startTime": 9.36,
            "duration": 0.15
          },
          {
            "note": 36,
            "velocity": 120,
            "startTime": 9.6,
            "duration": 0.2
          },
          {
            "note": 42,
            "velocity": 100,
            "startTime": 9.6,
            "duration": 0.15
          },
          {
            "note": 42,
            "velocity": 95,
            "startTime": 9.84,
            "duration": 0.15
          },
          {
            "note": 38,
            "velocity": 115,
            "startTime": 10.08,
            "duration": 0.2
          },
          {
            "note": 42,
            "velocity": 100,
            "startTime": 10.08,
            "duration": 0.15
          },
          {
            "note": 42,
            "velocity": 90,
            "startTime": 10.32,
            "duration": 0.15
          },
          {
            "note": 36,
            "velocity": 118,
            "startTime": 10.56,
            "duration": 0.2
          },
          {
            "note": 42,
            "velocity": 100,
            "startTime": 10.56,
            "duration": 0.15
          },
          {
            "note": 42,
            "velocity": 95,
            "startTime": 10.8,
            "duration": 0.15
          },
          {
            "note": 38,
            "velocity": 115,
            "startTime": 11.04,
            "duration": 0.2
          },
          {
            "note": 42,
            "velocity": 100,
            "startTime": 11.04,
            "duration": 0.15
          },
          {
            "note": 42,
            "velocity": 90,
            "startTime": 11.28,
            "duration": 0.15
          },
          {
            "note": 36,
            "velocity": 120,
            "startTime": 11.52,
            "duration": 0.2
          },
          {
            "note": 42,
            "velocity": 100,
            "startTime": 11.52,
            "duration": 0.15
          },
          {
            "note": 42,
            "velocity": 95,
            "startTime": 11.76,
            "duration": 0.15
          },
          {
            "note": 38,
            "velocity": 115,
            "startTime": 12.0,
            "duration": 0.2
          },
          {
            "note": 42,
            "velocity": 100,
            "startTime": 12.0,
            "duration": 0.15
          },
          {
            "note": 42,
            "velocity": 90,
            "startTime": 12.24,
            "duration": 0.15
          },
          {
            "note": 36,
            "velocity": 118,
            "startTime": 12.48,
            "duration": 0.2
          },
          {
            "note": 42,
            "velocity": 100,
            "startTime": 12.48,
            "duration": 0.15
          },
          {
            "note": 42,
            "velocity": 95,
            "startTime": 12.72,
            "duration": 0.15
          },
          {
            "note": 38,
            "velocity": 115,
            "startTime": 12.96,
            "duration": 0.2
          },
          {
            "note": 42,
            "velocity": 100,
            "startTime": 12.96,
            "duration": 0.15
          },
          {
            "note": 42,
            "velocity": 90,
            "startTime": 13.2,
            "duration": 0.15
          },
          {
            "note": 36,
            "velocity": 120,
            "startTime": 13.44,
            "duration": 0.2
          },
          {
            "note": 49,
            "velocity": 110,
            "startTime": 13.44,
            "duration": 0.2
          },
          {
            "note": 42,
            "velocity": 95,
            "startTime": 13.68,
            "duration": 0.15
          },
          {
            "note": 38,
            "velocity": 118,
            "startTime": 13.92,
            "duration": 0.2
          },
          {
            "note": 42,
            "velocity": 100,
            "startTime": 13.92,
            "duration": 0.15
          },
          {
            "note": 42,
            "velocity": 90,
            "startTime": 14.16,
            "duration": 0.15
          },
          {
            "note": 36,
            "velocity": 118,
            "startTime": 14.4,
            "duration": 0.2
          },
          {
            "note": 42,
            "velocity": 100,
            "startTime": 14.4,
            "duration": 0.15
          },
          {
            "note": 42,
            "velocity": 95,
            "startTime": 14.64,
            "duration": 0.15
          },
          {
            "note": 38,
            "velocity": 115,
            "startTime": 14.88,
            "duration": 0.2
          },
          {
            "note": 42,
            "velocity": 100,
            "startTime": 14.88,
            "duration": 0.15
          },
          {
            "note": 42,
            "velocity": 90,
            "startTime": 15.12,
            "duration": 0.15
          },
          {
            "note": 36,
            "velocity": 120,
            "startTime": 15.36,
            "duration": 0.2
          },
          {
            "note": 42,
            "velocity": 100,
            "startTime": 15.36,
            "duration": 0.15
          },
          {
            "note": 42,
            "velocity": 95,
            "startTime": 15.6,
            "duration": 0.15
          },
          {
            "note": 38,
            "velocity": 115,
            "startTime": 15.84,
            "duration": 0.2
          },
          {
            "note": 42,
            "velocity": 100,
            "startTime": 15.84,
            "duration": 0.15
          },
          {
            "note": 42,
            "velocity": 90,
            "startTime": 16.08,
            "duration": 0.15
          },
          {
            "note": 36,
            "velocity": 120,
            "startTime": 16.32,
            "duration": 0.2
          },
          {
            "note": 42,
            "velocity": 100,
            "startTime": 16.32,
            "duration": 0.15
          },
          {
            "note": 42,
            "velocity": 95,
            "startTime": 16.56,
            "duration": 0.15
          },
          {
            "note": 38,
            "velocity": 118,
            "startTime": 16.8,
            "duration": 0.2
          },
          {
            "note": 42,
            "velocity": 100,
            "startTime": 16.8,
            "duration": 0.15
          },
          {
            "note": 42,
            "velocity": 90,
            "startTime": 17.04,
            "duration": 0.15
          },
          {
            "note": 36,
            "velocity": 118,
            "startTime": 17.28,
            "duration": 0.2
          },
          {
            "note": 42,
            "velocity": 100,
            "startTime": 17.28,
            "duration": 0.15
          },
          {
            "note": 42,
            "velocity": 95,
            "startTime": 17.52,
            "duration": 0.15
          },
          {
            "note": 38,
            "velocity": 115,
            "startTime": 17.76,
            "duration": 0.2
          },
          {
            "note": 49,
            "velocity": 112,
            "startTime": 17.76,
            "duration": 0.2
          },
          {
            "note": 42,
            "velocity": 90,
            "startTime": 18.0,
            "duration": 0.15
          },
          {
            "note": 36,
            "velocity": 120,
            "startTime": 18.24,
            "duration": 0.2
          },
          {
            "note": 42,
            "velocity": 100,
            "startTime": 18.24,
            "duration": 0.15
          },
          {
            "note": 42,
            "velocity": 95,
            "startTime": 18.48,
            "duration": 0.15
          },
          {
            "note": 38,
            "velocity": 115,
            "startTime": 18.72,
            "duration": 0.2
          },
          {
            "note": 42,
            "velocity": 100,
            "startTime": 18.72,
            "duration": 0.15
          },
          {
            "note": 42,
            "velocity": 90,
            "startTime": 18.96,
            "duration": 0.15
          },
          {
            "note": 36,
            "velocity": 118,
            "startTime": 19.2,
            "duration": 0.2
          },
          {
            "note": 42,
            "velocity": 100,
            "startTime": 19.2,
            "duration": 0.15
          },
          {
            "note": 42,
            "velocity": 95,
            "startTime": 19.44,
            "duration": 0.15
          },
          {
            "note": 38,
            "velocity": 115,
            "startTime": 19.68,
            "duration": 0.2
          },
          {
            "note": 42,
            "velocity": 100,
            "startTime": 19.68,
            "duration": 0.15
          },
          {
            "note": 42,
            "velocity": 90,
            "startTime": 19.92,
            "duration": 0.15
          },
          {
            "note": 36,
            "velocity": 120,
            "startTime": 20.16,
            "duration": 0.2
          },
          {
            "note": 42,
            "velocity": 100,
            "startTime": 20.16,
            "duration": 0.15
          },
          {
            "note": 42,
            "velocity": 95,
            "startTime": 20.4,
            "duration": 0.15
          },
          {
            "note": 38,
            "velocity": 118,
            "startTime": 20.64,
            "duration": 0.2
          },
          {
            "note": 42,
            "velocity": 100,
            "startTime": 20.64,
            "duration": 0.15
          },
          {
            "note": 42,
            "velocity": 90,
            "startTime": 20.88,
            "duration": 0.15
          },
          {
            "note": 36,
            "velocity": 118,
            "startTime": 21.12,
            "duration": 0.2
          },
          {
            "note": 42,
            "velocity": 100,
            "startTime": 21.12,
            "duration": 0.15
          },
          {
            "note": 42,
            "velocity": 95,
            "startTime": 21.36,
            "duration": 0.15
          },
          {
            "note": 38,
            "velocity": 115,
            "startTime": 21.6,
            "duration": 0.2
          },
          {
            "note": 42,
            "velocity": 100,
            "startTime": 21.6,
            "duration": 0.15
          },
          {
            "note": 49,
            "velocity": 110,
            "startTime": 21.6,
            "duration": 0.2
          },
          {
            "note": 42,
            "velocity": 90,
            "startTime": 21.84,
            "duration": 0.15
          },
          {
            "note": 36,
            "velocity": 120,
            "startTime": 22.08,
            "duration": 0.2
          },
          {
            "note": 42,
            "velocity": 100,
            "startTime": 22.08,
            "duration": 0.15
          },
          {
            "note": 42,
            "velocity": 95,
            "startTime": 22.32,
            "duration": 0.15
          },
          {
            "note": 38,
            "velocity": 115,
            "startTime": 22.56,
            "duration": 0.2
          },
          {
            "note": 42,
            "velocity": 100,
            "startTime": 22.56,
            "duration": 0.15
          },
          {
            "note": 42,
            "velocity": 90,
            "startTime": 22.8,
            "duration": 0.15
          },
          {
            "note": 36,
            "velocity": 118,
            "startTime": 23.04,
            "duration": 0.2
          },
          {
            "note": 42,
            "velocity": 100,
            "startTime": 23.04,
            "duration": 0.15
          },
          {
            "note": 42,
            "velocity": 95,
            "startTime": 23.28,
            "duration": 0.15
          },
          {
            "note": 38,
            "velocity": 118,
            "startTime": 23.52,
            "duration": 0.2
          },
          {
            "note": 42,
            "velocity": 100,
            "startTime": 23.52,
            "duration": 0.15
          },
          {
            "note": 42,
            "velocity": 90,
            "startTime": 23.76,
            "duration": 0.15
          },
          {
            "note": 36,
            "velocity": 120,
            "startTime": 24.0,
            "duration": 0.2
          },
          {
            "note": 42,
            "velocity": 100,
            "startTime": 24.0,
            "duration": 0.15
          },
          {
            "note": 42,
            "velocity": 95,
            "startTime": 24.24,
            "duration": 0.15
          },
          {
            "note": 38,
            "velocity": 115,
            "startTime": 24.48,
            "duration": 0.2
          },
          {
            "note": 42,
            "velocity": 100,
            "startTime": 24.48,
            "duration": 0.15
          },
          {
            "note": 42,
            "velocity": 90,
            "startTime": 24.72,
            "duration": 0.15
          },
          {
            "note": 36,
            "velocity": 122,
            "startTime": 24.96,
            "duration": 0.2
          },
          {
            "note": 42,
            "velocity": 105,
            "startTime": 24.96,
            "duration": 0.15
          },
          {
            "note": 42,
            "velocity": 95,
            "startTime": 25.2,
            "duration": 0.15
          },
          {
            "note": 38,
            "velocity": 118,
            "startTime": 25.44,
            "duration": 0.2
          },
          {
            "note": 42,
            "velocity": 100,
            "startTime": 25.44,
            "duration": 0.15
          },
          {
            "note": 42,
            "velocity": 90,
            "startTime": 25.68,
            "duration": 0.15
          },
          {
            "note": 36,
            "velocity": 120,
            "startTime": 25.92,
            "duration": 0.2
          },
          {
            "note": 49,
            "velocity": 112,
            "startTime": 25.92,
            "duration": 0.2
          },
          {
            "note": 42,
            "velocity": 95,
            "startTime": 26.16,
            "duration": 0.15
          },
          {
            "note": 38,
            "velocity": 118,
            "startTime": 26.4,
            "duration": 0.2
          },
          {
            "note": 42,
            "velocity": 100,
            "startTime": 26.4,
            "duration": 0.15
          },
          {
            "note": 42,
            "velocity": 90,
            "startTime": 26.64,
            "duration": 0.15
          },
          {
            "note": 36,
            "velocity": 122,
            "startTime": 26.88,
            "duration": 0.2
          },
          {
            "note": 42,
            "velocity": 105,
            "startTime": 26.88,
            "duration": 0.15
          },
          {
            "note": 42,
            "velocity": 95,
            "startTime": 27.12,
            "duration": 0.15
          },
          {
            "note": 38,
            "velocity": 118,
            "startTime": 27.36,
            "duration": 0.2
          },
          {
            "note": 42,
            "velocity": 100,
            "startTime": 27.36,
            "duration": 0.15
          },
          {
            "note": 42,
            "velocity": 90,
            "startTime": 27.6,
            "duration": 0.15
          },
          {
            "note": 36,
            "velocity": 120,
            "startTime": 27.84,
            "duration": 0.2
          },
          {
            "note": 42,
            "velocity": 100,
            "startTime": 27.84,
            "duration": 0.15
          },
          {
            "note": 42,
            "velocity": 95,
            "startTime": 28.08,
            "duration": 0.15
          },
          {
            "note": 38,
            "velocity": 118,
            "startTime": 28.32,
            "duration": 0.2
          },
          {
            "note": 42,
            "velocity": 100,
            "startTime": 28.32,
            "duration": 0.15
          },
          {
            "note": 42,
            "velocity": 90,
            "startTime": 28.56,
            "duration": 0.15
          },
          {
            "note": 36,
            "velocity": 122,
            "startTime": 28.8,
            "duration": 0.2
          },
          {
            "note": 42,
            "velocity": 105,
            "startTime": 28.8,
            "duration": 0.15
          },
          {
            "note": 42,
            "velocity": 95,
            "startTime": 29.04,
            "duration": 0.15
          },
          {
            "note": 38,
            "velocity": 118,
            "startTime": 29.28,
            "duration": 0.2
          },
          {
            "note": 42,
            "velocity": 100,
            "startTime": 29.28,
            "duration": 0.15
          },
          {
            "note": 42,
            "velocity": 90,
            "startTime": 29.52,
            "duration": 0.15
          },
          {
            "note": 36,
            "velocity": 120,
            "startTime": 29.76,
            "duration": 0.2
          },
          {
            "note": 42,
            "velocity": 100,
            "startTime": 29.76,
            "duration": 0.15
          },
          {
            "note": 42,
            "velocity": 95,
            "startTime": 30.0,
            "duration": 0.15
          },
          {
            "note": 38,
            "velocity": 120,
            "startTime": 30.24,
            "duration": 0.2
          },
          {
            "note": 49,
            "velocity": 112,
            "startTime": 30.24,
            "duration": 0.2
          },
          {
            "note": 42,
            "velocity": 90,
            "startTime": 30.48,
            "duration": 0.15
          },
          {
            "note": 36,
            "velocity": 122,
            "startTime": 30.72,
            "duration": 0.2
          },
          {
            "note": 42,
            "velocity": 105,
            "startTime": 30.72,
            "duration": 0.15
          },
          {
            "note": 42,
            "velocity": 95,
            "startTime": 30.96,
            "duration": 0.15
          },
          {
            "note": 38,
            "velocity": 118,
            "startTime": 31.2,
            "duration": 0.2
          },
          {
            "note": 42,
            "velocity": 100,
            "startTime": 31.2,
            "duration": 0.15
          },
          {
            "note": 42,
            "velocity": 90,
            "startTime": 31.44,
            "duration": 0.15
          },
          {
            "note": 36,
            "velocity": 120,
            "startTime": 31.68,
            "duration": 0.2
          },
          {
            "note": 42,
            "velocity": 100,
            "startTime": 31.68,
            "duration": 0.15
          },
          {
            "note": 42,
            "velocity": 95,
            "startTime": 31.92,
            "duration": 0.15
          },
          {
            "note": 38,
            "velocity": 120,
            "startTime": 32.16,
            "duration": 0.2
          },
          {
            "note": 42,
            "velocity": 100,
            "startTime": 32.16,
            "duration": 0.15
          },
          {
            "note": 42,
            "velocity": 90,
            "startTime": 32.4,
            "duration": 0.15
          },
          {
            "note": 36,
            "velocity": 122,
            "startTime": 32.64,
            "duration": 0.2
          },
          {
            "note": 42,
            "velocity": 105,
            "startTime": 32.64,
            "duration": 0.15
          },
          {
            "note": 42,
            "velocity": 95,
            "startTime": 32.88,
            "duration": 0.15
          },
          {
            "note": 38,
            "velocity": 120,
            "startTime": 33.12,
            "duration": 0.2
          },
          {
            "note": 42,
            "velocity": 100,
            "startTime": 33.12,
            "duration": 0.15
          },
          {
            "note": 42,
            "velocity": 90,
            "startTime": 33.36,
            "duration": 0.15
          },
          {
            "note": 36,
            "velocity": 120,
            "startTime": 33.6,
            "duration": 0.2
          },
          {
            "note": 42,
            "velocity": 100,
            "startTime": 33.6,
            "duration": 0.15
          },
          {
            "note": 42,
            "velocity": 95,
            "startTime": 33.84,
            "duration": 0.15
          },
          {
            "note": 38,
            "velocity": 120,
            "startTime": 34.08,
            "duration": 0.2
          },
          {
            "note": 49,
            "velocity": 115,
            "startTime": 34.08,
            "duration": 0.2
          },
          {
            "note": 42,
            "velocity": 90,
            "startTime": 34.32,
            "duration": 0.15
          },
          {
            "note": 36,
            "velocity": 122,
            "startTime": 34.56,
            "duration": 0.2
          },
          {
            "note": 42,
            "velocity": 105,
            "startTime": 34.56,
            "duration": 0.15
          },
          {
            "note": 42,
            "velocity": 95,
            "startTime": 34.8,
            "duration": 0.15
          },
          {
            "note": 38,
            "velocity": 120,
            "startTime": 35.04,
            "duration": 0.2
          },
          {
            "note": 42,
            "velocity": 100,
            "startTime": 35.04,
            "duration": 0.15
          },
          {
            "note": 42,
            "velocity": 90,
            "startTime": 35.28,
            "duration": 0.15
          },
          {
            "note": 36,
            "velocity": 125,
            "startTime": 35.52,
            "duration": 0.2
          },
          {
            "note": 42,
            "velocity": 105,
            "startTime": 35.52,
            "duration": 0.15
          },
          {
            "note": 42,
            "velocity": 95,
            "startTime": 35.76,
            "duration": 0.15
          },
          {
            "note": 38,
            "velocity": 122,
            "startTime": 36.0,
            "duration": 0.2
          },
          {
            "note": 42,
            "velocity": 105,
            "startTime": 36.0,
            "duration": 0.15
          },
          {
            "note": 42,
            "velocity": 95,
            "startTime": 36.24,
            "duration": 0.15
          },
          {
            "note": 36,
            "velocity": 122,
            "startTime": 36.48,
            "duration": 0.2
          },
          {
            "note": 42,
            "velocity": 105,
            "startTime": 36.48,
            "duration": 0.15
          },
          {
            "note": 42,
            "velocity": 95,
            "startTime": 36.72,
            "duration": 0.15
          },
          {
            "note": 38,
            "velocity": 122,
            "startTime": 36.96,
            "duration": 0.2
          },
          {
            "note": 42,
            "velocity": 105,
            "startTime": 36.96,
            "duration": 0.15
          },
          {
            "note": 42,
            "velocity": 95,
            "startTime": 37.2,
            "duration": 0.15
          },
          {
            "note": 36,
            "velocity": 125,
            "startTime": 37.44,
            "duration": 0.2
          },
          {
            "note": 42,
            "velocity": 105,
            "startTime": 37.44,
            "duration": 0.15
          },
          {
            "note": 42,
            "velocity": 95,
            "startTime": 37.68,
            "duration": 0.15
          },
          {
            "note": 38,
            "velocity": 122,
            "startTime": 37.92,
            "duration": 0.2
          },
          {
            "note": 49,
            "velocity": 115,
            "startTime": 37.92,
            "duration": 0.2
          },
          {
            "note": 42,
            "velocity": 95,
            "startTime": 38.16,
            "duration": 0.15
          },
          {
            "note": 36,
            "velocity": 122,
            "startTime": 38.4,
            "duration": 0.2
          },
          {
            "note": 42,
            "velocity": 105,
            "startTime": 38.4,
            "duration": 0.15
          },
          {
            "note": 42,
            "velocity": 95,
            "startTime": 38.64,
            "duration": 0.15
          },
          {
            "note": 38,
            "velocity": 122,
            "startTime": 38.88,
            "duration": 0.2
          },
          {
            "note": 42,
            "velocity": 105,
            "startTime": 38.88,
            "duration": 0.15
          },
          {
            "note": 42,
            "velocity": 95,
            "startTime": 39.12,
            "duration": 0.15
          },
          {
            "note": 36,
            "velocity": 125,
            "startTime": 39.36,
            "duration": 0.2
          },
          {
            "note": 42,
            "velocity": 105,
            "startTime": 39.36,
            "duration": 0.15
          },
          {
            "note": 42,
            "velocity": 95,
            "startTime": 39.6,
            "duration": 0.15
          },
          {
            "note": 38,
            "velocity": 122,
            "startTime": 39.84,
            "duration": 0.2
          },
          {
            "note": 42,
            "velocity": 105,
            "startTime": 39.84,
            "duration": 0.15
          },
          {
            "note": 42,
            "velocity": 95,
            "startTime": 40.08,
            "duration": 0.15
          },
          {
            "note": 36,
            "velocity": 122,
            "startTime": 40.32,
            "duration": 0.2
          },
          {
            "note": 42,
            "velocity": 105,
            "startTime": 40.32,
            "duration": 0.15
          },
          {
            "note": 42,
            "velocity": 95,
            "startTime": 40.56,
            "duration": 0.15
          },
          {
            "note": 38,
            "velocity": 125,
            "startTime": 40.8,
            "duration": 0.2
          },
          {
            "note": 42,
            "velocity": 105,
            "startTime": 40.8,
            "duration": 0.15
          },
          {
            "note": 42,
            "velocity": 95,
            "startTime": 41.04,
            "duration": 0.15
          },
          {
            "note": 36,
            "velocity": 125,
            "startTime": 41.28,
            "duration": 0.2
          },
          {
            "note": 49,
            "velocity": 118,
            "startTime": 41.28,
            "duration": 0.2
          },
          {
            "note": 42,
            "velocity": 100,
            "startTime": 41.52,
            "duration": 0.15
          },
          {
            "note": 38,
            "velocity": 122,
            "startTime": 41.76,
            "duration": 0.2
          },
          {
            "note": 42,
            "velocity": 105,
            "startTime": 41.76,
            "duration": 0.15
          },
          {
            "note": 42,
            "velocity": 95,
            "startTime": 42.0,
            "duration": 0.15
          },
          {
            "note": 36,
            "velocity": 125,
            "startTime": 42.24,
            "duration": 0.2
          },
          {
            "note": 42,
            "velocity": 105,
            "startTime": 42.24,
            "duration": 0.15
          },
          {
            "note": 42,
            "velocity": 95,
            "startTime": 42.48,
            "duration": 0.15
          },
          {
            "note": 38,
            "velocity": 125,
            "startTime": 42.72,
            "duration": 0.2
          },
          {
            "note": 42,
            "velocity": 105,
            "startTime": 42.72,
            "duration": 0.15
          },
          {
            "note": 42,
            "velocity": 95,
            "startTime": 42.96,
            "duration": 0.15
          },
          {
            "note": 36,
            "velocity": 125,
            "startTime": 43.2,
            "duration": 0.2
          },
          {
            "note": 42,
            "velocity": 105,
            "startTime": 43.2,
            "duration": 0.15
          },
          {
            "note": 38,
            "velocity": 120,
            "startTime": 43.44,
            "duration": 0.15
          },
          {
            "note": 36,
            "velocity": 127,
            "startTime": 43.68,
            "duration": 0.2
          },
          {
            "note": 38,
            "velocity": 125,
            "startTime": 43.92,
            "duration": 0.2
          },
          {
            "note": 36,
            "velocity": 127,
            "startTime": 44.16,
            "duration": 0.2
          },
          {
            "note": 38,
            "velocity": 127,
            "startTime": 44.4,
            "duration": 0.2
          },
          {
            "note": 49,
            "velocity": 127,
            "startTime": 44.64,
            "duration": 0.36
          }
        ]
      }
    ],
    "key": "Em",
    "bpm": 125,
    "scale": "pentatonic"
  },
  {
    "genre": "hiphop",
    "mode": "energize",
    "tracks": [
      {
        "name": "Vibes Melody",
        "program": 11,
        "role": "melody",
        "totalDuration": 45,
        "notes": [
          {
            "note": 69,
            "velocity": 100,
            "startTime": 0,
            "duration": 0.6
          },
          {
            "note": 72,
            "velocity": 95,
            "startTime": 0.63,
            "duration": 0.5
          },
          {
            "note": 76,
            "velocity": 105,
            "startTime": 1.26,
            "duration": 0.7
          },
          {
            "note": 74,
            "velocity": 90,
            "startTime": 2.0,
            "duration": 0.4
          },
          {
            "note": 72,
            "velocity": 100,
            "startTime": 2.52,
            "duration": 0.6
          },
          {
            "note": 69,
            "velocity": 85,
            "startTime": 3.16,
            "duration": 0.8
          },
          {
            "note": 67,
            "velocity": 95,
            "startTime": 4.0,
            "duration": 0.5
          },
          {
            "note": 64,
            "velocity": 100,
            "startTime": 5.05,
            "duration": 0.6
          },
          {
            "note": 67,
            "velocity": 90,
            "startTime": 6.31,
            "duration": 0.5
          },
          {
            "note": 69,
            "velocity": 105,
            "startTime": 7.58,
            "duration": 0.7
          },
          {
            "note": 72,
            "velocity": 100,
            "startTime": 8.84,
            "duration": 0.5
          },
          {
            "note": 76,
            "velocity": 110,
            "startTime": 10.1,
            "duration": 0.6
          },
          {
            "note": 74,
            "velocity": 95,
            "startTime": 11.36,
            "duration": 0.4
          },
          {
            "note": 72,
            "velocity": 100,
            "startTime": 12.63,
            "duration": 0.6
          },
          {
            "note": 69,
            "velocity": 90,
            "startTime": 13.89,
            "duration": 0.8
          },
          {
            "note": 76,
            "velocity": 105,
            "startTime": 15.16,
            "duration": 0.5
          },
          {
            "note": 79,
            "velocity": 110,
            "startTime": 16.42,
            "duration": 0.6
          },
          {
            "note": 81,
            "velocity": 100,
            "startTime": 17.68,
            "duration": 0.7
          },
          {
            "note": 79,
            "velocity": 95,
            "startTime": 18.95,
            "duration": 0.5
          },
          {
            "note": 76,
            "velocity": 100,
            "startTime": 20.21,
            "duration": 0.6
          },
          {
            "note": 74,
            "velocity": 90,
            "startTime": 21.47,
            "duration": 0.5
          },
          {
            "note": 72,
            "velocity": 105,
            "startTime": 22.73,
            "duration": 0.7
          },
          {
            "note": 69,
            "velocity": 100,
            "startTime": 24.0,
            "duration": 0.6
          },
          {
            "note": 72,
            "velocity": 95,
            "startTime": 25.26,
            "duration": 0.5
          },
          {
            "note": 76,
            "velocity": 110,
            "startTime": 26.52,
            "duration": 0.6
          },
          {
            "note": 81,
            "velocity": 105,
            "startTime": 27.79,
            "duration": 0.7
          },
          {
            "note": 79,
            "velocity": 100,
            "startTime": 29.05,
            "duration": 0.5
          },
          {
            "note": 76,
            "velocity": 95,
            "startTime": 30.31,
            "duration": 0.6
          },
          {
            "note": 74,
            "velocity": 100,
            "startTime": 31.58,
            "duration": 0.5
          },
          {
            "note": 72,
            "velocity": 90,
            "startTime": 32.84,
            "duration": 0.7
          },
          {
            "note": 69,
            "velocity": 105,
            "startTime": 34.1,
            "duration": 0.6
          },
          {
            "note": 67,
            "velocity": 100,
            "startTime": 35.37,
            "duration": 0.5
          },
          {
            "note": 64,
            "velocity": 95,
            "startTime": 36.63,
            "duration": 0.6
          },
          {
            "note": 67,
            "velocity": 100,
            "startTime": 37.89,
            "duration": 0.5
          },
          {
            "note": 69,
            "velocity": 110,
            "startTime": 39.16,
            "duration": 0.7
          },
          {
            "note": 72,
            "velocity": 105,
            "startTime": 40.42,
            "duration": 0.6
          },
          {
            "note": 76,
            "velocity": 100,
            "startTime": 41.68,
            "duration": 0.5
          },
          {
            "note": 79,
            "velocity": 110,
            "startTime": 42.95,
            "duration": 0.6
          },
          {
            "note": 81,
            "velocity": 105,
            "startTime": 43.58,
            "duration": 0.5
          },
          {
            "note": 69,
            "velocity": 95,
            "startTime": 44.21,
            "duration": 0.7
          }
        ]
      },
      {
        "name": "SynthBass Punchy",
        "program": 38,
        "role": "bass",
        "totalDuration": 45,
        "notes": [
          {
            "note": 33,
            "velocity": 120,
            "startTime": 0,
            "duration": 0.4
          },
          {
            "note": 33,
            "velocity": 115,
            "startTime": 0.63,
            "duration": 0.3
          },
          {
            "note": 36,
            "velocity": 120,
            "startTime": 1.26,
            "duration": 0.5
          },
          {
            "note": 33,
            "velocity": 110,
            "startTime": 2.52,
            "duration": 0.4
          },
          {
            "note": 31,
            "velocity": 120,
            "startTime": 3.16,
            "duration": 0.5
          },
          {
            "note": 33,
            "velocity": 115,
            "startTime": 3.79,
            "duration": 0.3
          },
          {
            "note": 28,
            "velocity": 125,
            "startTime": 5.05,
            "duration": 0.5
          },
          {
            "note": 28,
            "velocity": 120,
            "startTime": 5.68,
            "duration": 0.3
          },
          {
            "note": 31,
            "velocity": 115,
            "startTime": 6.31,
            "duration": 0.5
          },
          {
            "note": 33,
            "velocity": 120,
            "startTime": 7.58,
            "duration": 0.4
          },
          {
            "note": 36,
            "velocity": 125,
            "startTime": 8.84,
            "duration": 0.5
          },
          {
            "note": 33,
            "velocity": 115,
            "startTime": 10.1,
            "duration": 0.4
          },
          {
            "note": 33,
            "velocity": 120,
            "startTime": 10.73,
            "duration": 0.3
          },
          {
            "note": 31,
            "velocity": 110,
            "startTime": 11.36,
            "duration": 0.5
          },
          {
            "note": 28,
            "velocity": 125,
            "startTime": 12.63,
            "duration": 0.4
          },
          {
            "note": 33,
            "velocity": 120,
            "startTime": 13.89,
            "duration": 0.5
          },
          {
            "note": 36,
            "velocity": 115,
            "startTime": 15.16,
            "duration": 0.4
          },
          {
            "note": 33,
            "velocity": 120,
            "startTime": 16.42,
            "duration": 0.3
          },
          {
            "note": 31,
            "velocity": 125,
            "startTime": 17.68,
            "duration": 0.5
          },
          {
            "note": 33,
            "velocity": 110,
            "startTime": 18.95,
            "duration": 0.4
          },
          {
            "note": 28,
            "velocity": 120,
            "startTime": 20.21,
            "duration": 0.5
          },
          {
            "note": 28,
            "velocity": 115,
            "startTime": 20.84,
            "duration": 0.3
          },
          {
            "note": 33,
            "velocity": 125,
            "startTime": 21.47,
            "duration": 0.5
          },
          {
            "note": 36,
            "velocity": 120,
            "startTime": 22.73,
            "duration": 0.4
          },
          {
            "note": 33,
            "velocity": 115,
            "startTime": 24.0,
            "duration": 0.5
          },
          {
            "note": 31,
            "velocity": 120,
            "startTime": 25.26,
            "duration": 0.4
          },
          {
            "note": 28,
            "velocity": 125,
            "startTime": 26.52,
            "duration": 0.5
          },
          {
            "note": 33,
            "velocity": 120,
            "startTime": 27.79,
            "duration": 0.3
          },
          {
            "note": 33,
            "velocity": 115,
            "startTime": 29.05,
            "duration": 0.5
          },
          {
            "note": 36,
            "velocity": 120,
            "startTime": 30.31,
            "duration": 0.4
          },
          {
            "note": 33,
            "velocity": 125,
            "startTime": 31.58,
            "duration": 0.5
          },
          {
            "note": 31,
            "velocity": 110,
            "startTime": 32.84,
            "duration": 0.4
          },
          {
            "note": 28,
            "velocity": 120,
            "startTime": 34.1,
            "duration": 0.5
          },
          {
            "note": 28,
            "velocity": 115,
            "startTime": 34.73,
            "duration": 0.3
          },
          {
            "note": 33,
            "velocity": 125,
            "startTime": 35.37,
            "duration": 0.5
          },
          {
            "note": 36,
            "velocity": 120,
            "startTime": 36.63,
            "duration": 0.4
          },
          {
            "note": 33,
            "velocity": 115,
            "startTime": 37.89,
            "duration": 0.5
          },
          {
            "note": 31,
            "velocity": 120,
            "startTime": 39.16,
            "duration": 0.4
          },
          {
            "note": 28,
            "velocity": 125,
            "startTime": 40.42,
            "duration": 0.5
          },
          {
            "note": 33,
            "velocity": 120,
            "startTime": 41.68,
            "duration": 0.4
          },
          {
            "note": 36,
            "velocity": 115,
            "startTime": 42.95,
            "duration": 0.5
          },
          {
            "note": 33,
            "velocity": 120,
            "startTime": 43.58,
            "duration": 0.3
          },
          {
            "note": 28,
            "velocity": 125,
            "startTime": 44.21,
            "duration": 0.7
          }
        ]
      },
      {
        "name": "Am Minor Chords",
        "program": 11,
        "role": "chords",
        "totalDuration": 45,
        "notes": [
          {
            "note": 57,
            "velocity": 80,
            "startTime": 0,
            "duration": 1.2
          },
          {
            "note": 60,
            "velocity": 80,
            "startTime": 0,
            "duration": 1.2
          },
          {
            "note": 64,
            "velocity": 80,
            "startTime": 0,
            "duration": 1.2
          },
          {
            "note": 55,
            "velocity": 78,
            "startTime": 2.52,
            "duration": 1.2
          },
          {
            "note": 59,
            "velocity": 78,
            "startTime": 2.52,
            "duration": 1.2
          },
          {
            "note": 62,
            "velocity": 78,
            "startTime": 2.52,
            "duration": 1.2
          },
          {
            "note": 53,
            "velocity": 82,
            "startTime": 5.05,
            "duration": 1.2
          },
          {
            "note": 57,
            "velocity": 82,
            "startTime": 5.05,
            "duration": 1.2
          },
          {
            "note": 60,
            "velocity": 82,
            "startTime": 5.05,
            "duration": 1.2
          },
          {
            "note": 52,
            "velocity": 80,
            "startTime": 7.58,
            "duration": 1.2
          },
          {
            "note": 55,
            "velocity": 80,
            "startTime": 7.58,
            "duration": 1.2
          },
          {
            "note": 59,
            "velocity": 80,
            "startTime": 7.58,
            "duration": 1.2
          },
          {
            "note": 57,
            "velocity": 85,
            "startTime": 10.1,
            "duration": 1.2
          },
          {
            "note": 60,
            "velocity": 85,
            "startTime": 10.1,
            "duration": 1.2
          },
          {
            "note": 64,
            "velocity": 85,
            "startTime": 10.1,
            "duration": 1.2
          },
          {
            "note": 55,
            "velocity": 78,
            "startTime": 12.63,
            "duration": 1.2
          },
          {
            "note": 59,
            "velocity": 78,
            "startTime": 12.63,
            "duration": 1.2
          },
          {
            "note": 62,
            "velocity": 78,
            "startTime": 12.63,
            "duration": 1.2
          },
          {
            "note": 53,
            "velocity": 82,
            "startTime": 15.16,
            "duration": 1.2
          },
          {
            "note": 57,
            "velocity": 82,
            "startTime": 15.16,
            "duration": 1.2
          },
          {
            "note": 60,
            "velocity": 82,
            "startTime": 15.16,
            "duration": 1.2
          },
          {
            "note": 52,
            "velocity": 80,
            "startTime": 17.68,
            "duration": 1.2
          },
          {
            "note": 55,
            "velocity": 80,
            "startTime": 17.68,
            "duration": 1.2
          },
          {
            "note": 59,
            "velocity": 80,
            "startTime": 17.68,
            "duration": 1.2
          },
          {
            "note": 57,
            "velocity": 85,
            "startTime": 20.21,
            "duration": 1.2
          },
          {
            "note": 60,
            "velocity": 85,
            "startTime": 20.21,
            "duration": 1.2
          },
          {
            "note": 64,
            "velocity": 85,
            "startTime": 20.21,
            "duration": 1.2
          },
          {
            "note": 55,
            "velocity": 78,
            "startTime": 22.73,
            "duration": 1.2
          },
          {
            "note": 59,
            "velocity": 78,
            "startTime": 22.73,
            "duration": 1.2
          },
          {
            "note": 62,
            "velocity": 78,
            "startTime": 22.73,
            "duration": 1.2
          },
          {
            "note": 53,
            "velocity": 82,
            "startTime": 25.26,
            "duration": 1.2
          },
          {
            "note": 57,
            "velocity": 82,
            "startTime": 25.26,
            "duration": 1.2
          },
          {
            "note": 60,
            "velocity": 82,
            "startTime": 25.26,
            "duration": 1.2
          },
          {
            "note": 52,
            "velocity": 80,
            "startTime": 27.79,
            "duration": 1.2
          },
          {
            "note": 55,
            "velocity": 80,
            "startTime": 27.79,
            "duration": 1.2
          },
          {
            "note": 59,
            "velocity": 80,
            "startTime": 27.79,
            "duration": 1.2
          },
          {
            "note": 57,
            "velocity": 85,
            "startTime": 30.31,
            "duration": 1.2
          },
          {
            "note": 60,
            "velocity": 85,
            "startTime": 30.31,
            "duration": 1.2
          },
          {
            "note": 64,
            "velocity": 85,
            "startTime": 30.31,
            "duration": 1.2
          },
          {
            "note": 55,
            "velocity": 78,
            "startTime": 32.84,
            "duration": 1.2
          },
          {
            "note": 59,
            "velocity": 78,
            "startTime": 32.84,
            "duration": 1.2
          },
          {
            "note": 62,
            "velocity": 78,
            "startTime": 32.84,
            "duration": 1.2
          },
          {
            "note": 53,
            "velocity": 82,
            "startTime": 35.37,
            "duration": 1.2
          },
          {
            "note": 57,
            "velocity": 82,
            "startTime": 35.37,
            "duration": 1.2
          },
          {
            "note": 60,
            "velocity": 82,
            "startTime": 35.37,
            "duration": 1.2
          },
          {
            "note": 52,
            "velocity": 80,
            "startTime": 37.89,
            "duration": 1.2
          },
          {
            "note": 55,
            "velocity": 80,
            "startTime": 37.89,
            "duration": 1.2
          },
          {
            "note": 59,
            "velocity": 80,
            "startTime": 37.89,
            "duration": 1.2
          },
          {
            "note": 57,
            "velocity": 90,
            "startTime": 40.42,
            "duration": 1.2
          },
          {
            "note": 60,
            "velocity": 90,
            "startTime": 40.42,
            "duration": 1.2
          },
          {
            "note": 64,
            "velocity": 90,
            "startTime": 40.42,
            "duration": 1.2
          },
          {
            "note": 55,
            "velocity": 82,
            "startTime": 42.95,
            "duration": 1.2
          },
          {
            "note": 59,
            "velocity": 82,
            "startTime": 42.95,
            "duration": 1.2
          },
          {
            "note": 62,
            "velocity": 82,
            "startTime": 42.95,
            "duration": 1.2
          }
        ]
      },
      {
        "name": "Hard Drums",
        "program": 0,
        "role": "drums",
        "totalDuration": 45,
        "notes": [
          {
            "note": 36,
            "velocity": 127,
            "startTime": 0,
            "duration": 0.2
          },
          {
            "note": 42,
            "velocity": 100,
            "startTime": 0,
            "duration": 0.15
          },
          {
            "note": 42,
            "velocity": 95,
            "startTime": 0.315,
            "duration": 0.15
          },
          {
            "note": 38,
            "velocity": 120,
            "startTime": 0.63,
            "duration": 0.2
          },
          {
            "note": 42,
            "velocity": 100,
            "startTime": 0.63,
            "duration": 0.15
          },
          {
            "note": 42,
            "velocity": 90,
            "startTime": 0.945,
            "duration": 0.15
          },
          {
            "note": 36,
            "velocity": 125,
            "startTime": 1.26,
            "duration": 0.2
          },
          {
            "note": 42,
            "velocity": 100,
            "startTime": 1.26,
            "duration": 0.15
          },
          {
            "note": 36,
            "velocity": 110,
            "startTime": 1.575,
            "duration": 0.2
          },
          {
            "note": 42,
            "velocity": 95,
            "startTime": 1.575,
            "duration": 0.15
          },
          {
            "note": 38,
            "velocity": 125,
            "startTime": 1.89,
            "duration": 0.2
          },
          {
            "note": 42,
            "velocity": 100,
            "startTime": 1.89,
            "duration": 0.15
          },
          {
            "note": 42,
            "velocity": 90,
            "startTime": 2.205,
            "duration": 0.15
          },
          {
            "note": 36,
            "velocity": 127,
            "startTime": 2.52,
            "duration": 0.2
          },
          {
            "note": 42,
            "velocity": 100,
            "startTime": 2.52,
            "duration": 0.15
          },
          {
            "note": 42,
            "velocity": 95,
            "startTime": 2.835,
            "duration": 0.15
          },
          {
            "note": 38,
            "velocity": 120,
            "startTime": 3.15,
            "duration": 0.2
          },
          {
            "note": 42,
            "velocity": 100,
            "startTime": 3.15,
            "duration": 0.15
          },
          {
            "note": 42,
            "velocity": 90,
            "startTime": 3.465,
            "duration": 0.15
          },
          {
            "note": 36,
            "velocity": 125,
            "startTime": 3.78,
            "duration": 0.2
          },
          {
            "note": 42,
            "velocity": 100,
            "startTime": 3.78,
            "duration": 0.15
          },
          {
            "note": 36,
            "velocity": 110,
            "startTime": 4.095,
            "duration": 0.2
          },
          {
            "note": 42,
            "velocity": 95,
            "startTime": 4.095,
            "duration": 0.15
          },
          {
            "note": 38,
            "velocity": 125,
            "startTime": 4.41,
            "duration": 0.2
          },
          {
            "note": 42,
            "velocity": 100,
            "startTime": 4.41,
            "duration": 0.15
          },
          {
            "note": 42,
            "velocity": 90,
            "startTime": 4.725,
            "duration": 0.15
          },
          {
            "note": 36,
            "velocity": 127,
            "startTime": 5.04,
            "duration": 0.2
          },
          {
            "note": 46,
            "velocity": 105,
            "startTime": 5.04,
            "duration": 0.3
          },
          {
            "note": 42,
            "velocity": 95,
            "startTime": 5.355,
            "duration": 0.15
          },
          {
            "note": 38,
            "velocity": 120,
            "startTime": 5.67,
            "duration": 0.2
          },
          {
            "note": 42,
            "velocity": 100,
            "startTime": 5.67,
            "duration": 0.15
          },
          {
            "note": 42,
            "velocity": 90,
            "startTime": 5.985,
            "duration": 0.15
          },
          {
            "note": 36,
            "velocity": 125,
            "startTime": 6.3,
            "duration": 0.2
          },
          {
            "note": 42,
            "velocity": 100,
            "startTime": 6.3,
            "duration": 0.15
          },
          {
            "note": 36,
            "velocity": 115,
            "startTime": 6.615,
            "duration": 0.2
          },
          {
            "note": 42,
            "velocity": 95,
            "startTime": 6.615,
            "duration": 0.15
          },
          {
            "note": 38,
            "velocity": 125,
            "startTime": 6.93,
            "duration": 0.2
          },
          {
            "note": 42,
            "velocity": 100,
            "startTime": 6.93,
            "duration": 0.15
          },
          {
            "note": 42,
            "velocity": 90,
            "startTime": 7.245,
            "duration": 0.15
          },
          {
            "note": 36,
            "velocity": 127,
            "startTime": 7.56,
            "duration": 0.2
          },
          {
            "note": 46,
            "velocity": 105,
            "startTime": 7.56,
            "duration": 0.3
          },
          {
            "note": 42,
            "velocity": 95,
            "startTime": 7.875,
            "duration": 0.15
          },
          {
            "note": 38,
            "velocity": 120,
            "startTime": 8.19,
            "duration": 0.2
          },
          {
            "note": 42,
            "velocity": 100,
            "startTime": 8.19,
            "duration": 0.15
          },
          {
            "note": 42,
            "velocity": 90,
            "startTime": 8.505,
            "duration": 0.15
          },
          {
            "note": 36,
            "velocity": 125,
            "startTime": 8.82,
            "duration": 0.2
          },
          {
            "note": 42,
            "velocity": 100,
            "startTime": 8.82,
            "duration": 0.15
          },
          {
            "note": 36,
            "velocity": 110,
            "startTime": 9.135,
            "duration": 0.2
          },
          {
            "note": 42,
            "velocity": 95,
            "startTime": 9.135,
            "duration": 0.15
          },
          {
            "note": 38,
            "velocity": 125,
            "startTime": 9.45,
            "duration": 0.2
          },
          {
            "note": 42,
            "velocity": 100,
            "startTime": 9.45,
            "duration": 0.15
          },
          {
            "note": 42,
            "velocity": 90,
            "startTime": 9.765,
            "duration": 0.15
          },
          {
            "note": 36,
            "velocity": 127,
            "startTime": 10.08,
            "duration": 0.2
          },
          {
            "note": 42,
            "velocity": 100,
            "startTime": 10.08,
            "duration": 0.15
          },
          {
            "note": 42,
            "velocity": 95,
            "startTime": 10.395,
            "duration": 0.15
          },
          {
            "note": 38,
            "velocity": 120,
            "startTime": 10.71,
            "duration": 0.2
          },
          {
            "note": 42,
            "velocity": 100,
            "startTime": 10.71,
            "duration": 0.15
          },
          {
            "note": 42,
            "velocity": 90,
            "startTime": 11.025,
            "duration": 0.15
          },
          {
            "note": 36,
            "velocity": 125,
            "startTime": 11.34,
            "duration": 0.2
          },
          {
            "note": 42,
            "velocity": 100,
            "startTime": 11.34,
            "duration": 0.15
          },
          {
            "note": 36,
            "velocity": 115,
            "startTime": 11.655,
            "duration": 0.2
          },
          {
            "note": 42,
            "velocity": 95,
            "startTime": 11.655,
            "duration": 0.15
          },
          {
            "note": 38,
            "velocity": 125,
            "startTime": 11.97,
            "duration": 0.2
          },
          {
            "note": 42,
            "velocity": 100,
            "startTime": 11.97,
            "duration": 0.15
          },
          {
            "note": 49,
            "velocity": 110,
            "startTime": 12.285,
            "duration": 0.15
          },
          {
            "note": 36,
            "velocity": 127,
            "startTime": 12.6,
            "duration": 0.2
          },
          {
            "note": 46,
            "velocity": 105,
            "startTime": 12.6,
            "duration": 0.3
          },
          {
            "note": 42,
            "velocity": 95,
            "startTime": 12.915,
            "duration": 0.15
          },
          {
            "note": 38,
            "velocity": 120,
            "startTime": 13.23,
            "duration": 0.2
          },
          {
            "note": 42,
            "velocity": 100,
            "startTime": 13.23,
            "duration": 0.15
          },
          {
            "note": 42,
            "velocity": 90,
            "startTime": 13.545,
            "duration": 0.15
          },
          {
            "note": 36,
            "velocity": 125,
            "startTime": 13.86,
            "duration": 0.2
          },
          {
            "note": 42,
            "velocity": 100,
            "startTime": 13.86,
            "duration": 0.15
          },
          {
            "note": 36,
            "velocity": 110,
            "startTime": 14.175,
            "duration": 0.2
          },
          {
            "note": 42,
            "velocity": 95,
            "startTime": 14.175,
            "duration": 0.15
          },
          {
            "note": 38,
            "velocity": 125,
            "startTime": 14.49,
            "duration": 0.2
          },
          {
            "note": 42,
            "velocity": 100,
            "startTime": 14.49,
            "duration": 0.15
          },
          {
            "note": 42,
            "velocity": 90,
            "startTime": 14.805,
            "duration": 0.15
          },
          {
            "note": 36,
            "velocity": 127,
            "startTime": 15.12,
            "duration": 0.2
          },
          {
            "note": 42,
            "velocity": 100,
            "startTime": 15.12,
            "duration": 0.15
          },
          {
            "note": 42,
            "velocity": 95,
            "startTime": 15.435,
            "duration": 0.15
          },
          {
            "note": 38,
            "velocity": 120,
            "startTime": 15.75,
            "duration": 0.2
          },
          {
            "note": 42,
            "velocity": 100,
            "startTime": 15.75,
            "duration": 0.15
          },
          {
            "note": 42,
            "velocity": 90,
            "startTime": 16.065,
            "duration": 0.15
          },
          {
            "note": 36,
            "velocity": 125,
            "startTime": 16.38,
            "duration": 0.2
          },
          {
            "note": 42,
            "velocity": 100,
            "startTime": 16.38,
            "duration": 0.15
          },
          {
            "note": 36,
            "velocity": 115,
            "startTime": 16.695,
            "duration": 0.2
          },
          {
            "note": 42,
            "velocity": 95,
            "startTime": 16.695,
            "duration": 0.15
          },
          {
            "note": 38,
            "velocity": 125,
            "startTime": 17.01,
            "duration": 0.2
          },
          {
            "note": 42,
            "velocity": 100,
            "startTime": 17.01,
            "duration": 0.15
          },
          {
            "note": 42,
            "velocity": 90,
            "startTime": 17.325,
            "duration": 0.15
          },
          {
            "note": 36,
            "velocity": 127,
            "startTime": 17.64,
            "duration": 0.2
          },
          {
            "note": 46,
            "velocity": 105,
            "startTime": 17.64,
            "duration": 0.3
          },
          {
            "note": 42,
            "velocity": 95,
            "startTime": 17.955,
            "duration": 0.15
          },
          {
            "note": 38,
            "velocity": 120,
            "startTime": 18.27,
            "duration": 0.2
          },
          {
            "note": 42,
            "velocity": 100,
            "startTime": 18.27,
            "duration": 0.15
          },
          {
            "note": 42,
            "velocity": 90,
            "startTime": 18.585,
            "duration": 0.15
          },
          {
            "note": 36,
            "velocity": 125,
            "startTime": 18.9,
            "duration": 0.2
          },
          {
            "note": 42,
            "velocity": 100,
            "startTime": 18.9,
            "duration": 0.15
          },
          {
            "note": 36,
            "velocity": 110,
            "startTime": 19.215,
            "duration": 0.2
          },
          {
            "note": 42,
            "velocity": 95,
            "startTime": 19.215,
            "duration": 0.15
          },
          {
            "note": 38,
            "velocity": 125,
            "startTime": 19.53,
            "duration": 0.2
          },
          {
            "note": 42,
            "velocity": 100,
            "startTime": 19.53,
            "duration": 0.15
          },
          {
            "note": 42,
            "velocity": 90,
            "startTime": 19.845,
            "duration": 0.15
          },
          {
            "note": 36,
            "velocity": 127,
            "startTime": 20.16,
            "duration": 0.2
          },
          {
            "note": 42,
            "velocity": 100,
            "startTime": 20.16,
            "duration": 0.15
          },
          {
            "note": 42,
            "velocity": 95,
            "startTime": 20.475,
            "duration": 0.15
          },
          {
            "note": 38,
            "velocity": 120,
            "startTime": 20.79,
            "duration": 0.2
          },
          {
            "note": 42,
            "velocity": 100,
            "startTime": 20.79,
            "duration": 0.15
          },
          {
            "note": 42,
            "velocity": 90,
            "startTime": 21.105,
            "duration": 0.15
          },
          {
            "note": 36,
            "velocity": 125,
            "startTime": 21.42,
            "duration": 0.2
          },
          {
            "note": 42,
            "velocity": 100,
            "startTime": 21.42,
            "duration": 0.15
          },
          {
            "note": 36,
            "velocity": 115,
            "startTime": 21.735,
            "duration": 0.2
          },
          {
            "note": 42,
            "velocity": 95,
            "startTime": 21.735,
            "duration": 0.15
          },
          {
            "note": 38,
            "velocity": 125,
            "startTime": 22.05,
            "duration": 0.2
          },
          {
            "note": 42,
            "velocity": 100,
            "startTime": 22.05,
            "duration": 0.15
          },
          {
            "note": 49,
            "velocity": 110,
            "startTime": 22.365,
            "duration": 0.15
          },
          {
            "note": 36,
            "velocity": 127,
            "startTime": 22.68,
            "duration": 0.2
          },
          {
            "note": 46,
            "velocity": 105,
            "startTime": 22.68,
            "duration": 0.3
          },
          {
            "note": 42,
            "velocity": 95,
            "startTime": 22.995,
            "duration": 0.15
          },
          {
            "note": 38,
            "velocity": 120,
            "startTime": 23.31,
            "duration": 0.2
          },
          {
            "note": 42,
            "velocity": 100,
            "startTime": 23.31,
            "duration": 0.15
          },
          {
            "note": 42,
            "velocity": 90,
            "startTime": 23.625,
            "duration": 0.15
          },
          {
            "note": 36,
            "velocity": 125,
            "startTime": 23.94,
            "duration": 0.2
          },
          {
            "note": 42,
            "velocity": 100,
            "startTime": 23.94,
            "duration": 0.15
          },
          {
            "note": 36,
            "velocity": 110,
            "startTime": 24.255,
            "duration": 0.2
          },
          {
            "note": 42,
            "velocity": 95,
            "startTime": 24.255,
            "duration": 0.15
          },
          {
            "note": 38,
            "velocity": 125,
            "startTime": 24.57,
            "duration": 0.2
          },
          {
            "note": 42,
            "velocity": 100,
            "startTime": 24.57,
            "duration": 0.15
          },
          {
            "note": 42,
            "velocity": 90,
            "startTime": 24.885,
            "duration": 0.15
          },
          {
            "note": 36,
            "velocity": 127,
            "startTime": 25.2,
            "duration": 0.2
          },
          {
            "note": 42,
            "velocity": 100,
            "startTime": 25.2,
            "duration": 0.15
          },
          {
            "note": 42,
            "velocity": 95,
            "startTime": 25.515,
            "duration": 0.15
          },
          {
            "note": 38,
            "velocity": 120,
            "startTime": 25.83,
            "duration": 0.2
          },
          {
            "note": 42,
            "velocity": 100,
            "startTime": 25.83,
            "duration": 0.15
          },
          {
            "note": 42,
            "velocity": 90,
            "startTime": 26.145,
            "duration": 0.15
          },
          {
            "note": 36,
            "velocity": 125,
            "startTime": 26.46,
            "duration": 0.2
          },
          {
            "note": 42,
            "velocity": 100,
            "startTime": 26.46,
            "duration": 0.15
          },
          {
            "note": 36,
            "velocity": 115,
            "startTime": 26.775,
            "duration": 0.2
          },
          {
            "note": 42,
            "velocity": 95,
            "startTime": 26.775,
            "duration": 0.15
          },
          {
            "note": 38,
            "velocity": 125,
            "startTime": 27.09,
            "duration": 0.2
          },
          {
            "note": 42,
            "velocity": 100,
            "startTime": 27.09,
            "duration": 0.15
          },
          {
            "note": 42,
            "velocity": 90,
            "startTime": 27.405,
            "duration": 0.15
          },
          {
            "note": 36,
            "velocity": 127,
            "startTime": 27.72,
            "duration": 0.2
          },
          {
            "note": 46,
            "velocity": 105,
            "startTime": 27.72,
            "duration": 0.3
          },
          {
            "note": 42,
            "velocity": 95,
            "startTime": 28.035,
            "duration": 0.15
          },
          {
            "note": 38,
            "velocity": 120,
            "startTime": 28.35,
            "duration": 0.2
          },
          {
            "note": 42,
            "velocity": 100,
            "startTime": 28.35,
            "duration": 0.15
          },
          {
            "note": 42,
            "velocity": 90,
            "startTime": 28.665,
            "duration": 0.15
          },
          {
            "note": 36,
            "velocity": 125,
            "startTime": 28.98,
            "duration": 0.2
          },
          {
            "note": 42,
            "velocity": 100,
            "startTime": 28.98,
            "duration": 0.15
          },
          {
            "note": 36,
            "velocity": 110,
            "startTime": 29.295,
            "duration": 0.2
          },
          {
            "note": 42,
            "velocity": 95,
            "startTime": 29.295,
            "duration": 0.15
          },
          {
            "note": 38,
            "velocity": 125,
            "startTime": 29.61,
            "duration": 0.2
          },
          {
            "note": 42,
            "velocity": 100,
            "startTime": 29.61,
            "duration": 0.15
          },
          {
            "note": 42,
            "velocity": 90,
            "startTime": 29.925,
            "duration": 0.15
          },
          {
            "note": 36,
            "velocity": 127,
            "startTime": 30.24,
            "duration": 0.2
          },
          {
            "note": 42,
            "velocity": 100,
            "startTime": 30.24,
            "duration": 0.15
          },
          {
            "note": 42,
            "velocity": 95,
            "startTime": 30.555,
            "duration": 0.15
          },
          {
            "note": 38,
            "velocity": 120,
            "startTime": 30.87,
            "duration": 0.2
          },
          {
            "note": 42,
            "velocity": 100,
            "startTime": 30.87,
            "duration": 0.15
          },
          {
            "note": 42,
            "velocity": 90,
            "startTime": 31.185,
            "duration": 0.15
          },
          {
            "note": 36,
            "velocity": 125,
            "startTime": 31.5,
            "duration": 0.2
          },
          {
            "note": 42,
            "velocity": 100,
            "startTime": 31.5,
            "duration": 0.15
          },
          {
            "note": 36,
            "velocity": 115,
            "startTime": 31.815,
            "duration": 0.2
          },
          {
            "note": 42,
            "velocity": 95,
            "startTime": 31.815,
            "duration": 0.15
          },
          {
            "note": 38,
            "velocity": 125,
            "startTime": 32.13,
            "duration": 0.2
          },
          {
            "note": 42,
            "velocity": 100,
            "startTime": 32.13,
            "duration": 0.15
          },
          {
            "note": 49,
            "velocity": 110,
            "startTime": 32.445,
            "duration": 0.15
          },
          {
            "note": 36,
            "velocity": 127,
            "startTime": 32.76,
            "duration": 0.2
          },
          {
            "note": 46,
            "velocity": 105,
            "startTime": 32.76,
            "duration": 0.3
          },
          {
            "note": 42,
            "velocity": 95,
            "startTime": 33.075,
            "duration": 0.15
          },
          {
            "note": 38,
            "velocity": 120,
            "startTime": 33.39,
            "duration": 0.2
          },
          {
            "note": 42,
            "velocity": 100,
            "startTime": 33.39,
            "duration": 0.15
          },
          {
            "note": 42,
            "velocity": 90,
            "startTime": 33.705,
            "duration": 0.15
          },
          {
            "note": 36,
            "velocity": 125,
            "startTime": 34.02,
            "duration": 0.2
          },
          {
            "note": 42,
            "velocity": 100,
            "startTime": 34.02,
            "duration": 0.15
          },
          {
            "note": 36,
            "velocity": 110,
            "startTime": 34.335,
            "duration": 0.2
          },
          {
            "note": 42,
            "velocity": 95,
            "startTime": 34.335,
            "duration": 0.15
          },
          {
            "note": 38,
            "velocity": 125,
            "startTime": 34.65,
            "duration": 0.2
          },
          {
            "note": 42,
            "velocity": 100,
            "startTime": 34.65,
            "duration": 0.15
          },
          {
            "note": 42,
            "velocity": 90,
            "startTime": 34.965,
            "duration": 0.15
          },
          {
            "note": 36,
            "velocity": 127,
            "startTime": 35.28,
            "duration": 0.2
          },
          {
            "note": 42,
            "velocity": 100,
            "startTime": 35.28,
            "duration": 0.15
          },
          {
            "note": 42,
            "velocity": 95,
            "startTime": 35.595,
            "duration": 0.15
          },
          {
            "note": 38,
            "velocity": 120,
            "startTime": 35.91,
            "duration": 0.2
          },
          {
            "note": 42,
            "velocity": 100,
            "startTime": 35.91,
            "duration": 0.15
          },
          {
            "note": 42,
            "velocity": 90,
            "startTime": 36.225,
            "duration": 0.15
          },
          {
            "note": 36,
            "velocity": 125,
            "startTime": 36.54,
            "duration": 0.2
          },
          {
            "note": 42,
            "velocity": 100,
            "startTime": 36.54,
            "duration": 0.15
          },
          {
            "note": 36,
            "velocity": 115,
            "startTime": 36.855,
            "duration": 0.2
          },
          {
            "note": 42,
            "velocity": 95,
            "startTime": 36.855,
            "duration": 0.15
          },
          {
            "note": 38,
            "velocity": 125,
            "startTime": 37.17,
            "duration": 0.2
          },
          {
            "note": 42,
            "velocity": 100,
            "startTime": 37.17,
            "duration": 0.15
          },
          {
            "note": 42,
            "velocity": 90,
            "startTime": 37.485,
            "duration": 0.15
          },
          {
            "note": 36,
            "velocity": 127,
            "startTime": 37.8,
            "duration": 0.2
          },
          {
            "note": 46,
            "velocity": 105,
            "startTime": 37.8,
            "duration": 0.3
          },
          {
            "note": 42,
            "velocity": 95,
            "startTime": 38.115,
            "duration": 0.15
          },
          {
            "note": 38,
            "velocity": 120,
            "startTime": 38.43,
            "duration": 0.2
          },
          {
            "note": 42,
            "velocity": 100,
            "startTime": 38.43,
            "duration": 0.15
          },
          {
            "note": 42,
            "velocity": 90,
            "startTime": 38.745,
            "duration": 0.15
          },
          {
            "note": 36,
            "velocity": 125,
            "startTime": 39.06,
            "duration": 0.2
          },
          {
            "note": 42,
            "velocity": 100,
            "startTime": 39.06,
            "duration": 0.15
          },
          {
            "note": 36,
            "velocity": 110,
            "startTime": 39.375,
            "duration": 0.2
          },
          {
            "note": 42,
            "velocity": 95,
            "startTime": 39.375,
            "duration": 0.15
          },
          {
            "note": 38,
            "velocity": 127,
            "startTime": 39.69,
            "duration": 0.2
          },
          {
            "note": 42,
            "velocity": 100,
            "startTime": 39.69,
            "duration": 0.15
          },
          {
            "note": 49,
            "velocity": 115,
            "startTime": 40.005,
            "duration": 0.15
          },
          {
            "note": 36,
            "velocity": 127,
            "startTime": 40.32,
            "duration": 0.2
          },
          {
            "note": 46,
            "velocity": 110,
            "startTime": 40.32,
            "duration": 0.3
          },
          {
            "note": 42,
            "velocity": 95,
            "startTime": 40.635,
            "duration": 0.15
          },
          {
            "note": 38,
            "velocity": 125,
            "startTime": 40.95,
            "duration": 0.2
          },
          {
            "note": 42,
            "velocity": 100,
            "startTime": 40.95,
            "duration": 0.15
          },
          {
            "note": 42,
            "velocity": 90,
            "startTime": 41.265,
            "duration": 0.15
          },
          {
            "note": 36,
            "velocity": 127,
            "startTime": 41.58,
            "duration": 0.2
          },
          {
            "note": 42,
            "velocity": 100,
            "startTime": 41.58,
            "duration": 0.15
          },
          {
            "note": 36,
            "velocity": 115,
            "startTime": 41.895,
            "duration": 0.2
          },
          {
            "note": 42,
            "velocity": 95,
            "startTime": 41.895,
            "duration": 0.15
          },
          {
            "note": 38,
            "velocity": 127,
            "startTime": 42.21,
            "duration": 0.2
          },
          {
            "note": 42,
            "velocity": 100,
            "startTime": 42.21,
            "duration": 0.15
          },
          {
            "note": 42,
            "velocity": 90,
            "startTime": 42.525,
            "duration": 0.15
          },
          {
            "note": 36,
            "velocity": 127,
            "startTime": 42.84,
            "duration": 0.2
          },
          {
            "note": 46,
            "velocity": 110,
            "startTime": 42.84,
            "duration": 0.3
          },
          {
            "note": 42,
            "velocity": 95,
            "startTime": 43.155,
            "duration": 0.15
          },
          {
            "note": 38,
            "velocity": 125,
            "startTime": 43.47,
            "duration": 0.2
          },
          {
            "note": 42,
            "velocity": 100,
            "startTime": 43.47,
            "duration": 0.15
          },
          {
            "note": 36,
            "velocity": 120,
            "startTime": 43.785,
            "duration": 0.2
          },
          {
            "note": 38,
            "velocity": 127,
            "startTime": 44.1,
            "duration": 0.2
          },
          {
            "note": 49,
            "velocity": 120,
            "startTime": 44.1,
            "duration": 0.2
          },
          {
            "note": 36,
            "velocity": 127,
            "startTime": 44.415,
            "duration": 0.5
          },
          {
            "note": 49,
            "velocity": 115,
            "startTime": 44.415,
            "duration": 0.5
          }
        ]
      }
    ],
    "key": "Am",
    "bpm": 95,
    "scale": "minor"
  },
  {
    "genre": "blues",
    "mode": "focus",
    "tracks": [
      {
        "name": "Steel Guitar Melody",
        "program": 25,
        "role": "melody",
        "totalDuration": 45,
        "notes": [
          {
            "note": 64,
            "velocity": 72,
            "startTime": 0,
            "duration": 1.2
          },
          {
            "note": 67,
            "velocity": 68,
            "startTime": 1.6,
            "duration": 1.0
          },
          {
            "note": 68,
            "velocity": 75,
            "startTime": 3.2,
            "duration": 0.8
          },
          {
            "note": 69,
            "velocity": 70,
            "startTime": 4.4,
            "duration": 1.4
          },
          {
            "note": 64,
            "velocity": 65,
            "startTime": 6.4,
            "duration": 1.6
          },
          {
            "note": 63,
            "velocity": 60,
            "startTime": 8.4,
            "duration": 1.0
          },
          {
            "note": 60,
            "velocity": 67,
            "startTime": 9.8,
            "duration": 1.2
          },
          {
            "note": 64,
            "velocity": 74,
            "startTime": 11.6,
            "duration": 1.8
          },
          {
            "note": 67,
            "velocity": 70,
            "startTime": 14.0,
            "duration": 1.0
          },
          {
            "note": 68,
            "velocity": 72,
            "startTime": 15.6,
            "duration": 0.6
          },
          {
            "note": 69,
            "velocity": 78,
            "startTime": 16.8,
            "duration": 1.6
          },
          {
            "note": 72,
            "velocity": 80,
            "startTime": 19.2,
            "duration": 1.4
          },
          {
            "note": 76,
            "velocity": 75,
            "startTime": 21.2,
            "duration": 1.2
          },
          {
            "note": 75,
            "velocity": 68,
            "startTime": 23.0,
            "duration": 1.0
          },
          {
            "note": 72,
            "velocity": 70,
            "startTime": 24.6,
            "duration": 1.6
          },
          {
            "note": 69,
            "velocity": 66,
            "startTime": 27.0,
            "duration": 1.2
          },
          {
            "note": 67,
            "velocity": 62,
            "startTime": 28.8,
            "duration": 1.4
          },
          {
            "note": 64,
            "velocity": 70,
            "startTime": 30.8,
            "duration": 1.8
          },
          {
            "note": 68,
            "velocity": 73,
            "startTime": 33.2,
            "duration": 1.0
          },
          {
            "note": 69,
            "velocity": 76,
            "startTime": 34.8,
            "duration": 1.4
          },
          {
            "note": 72,
            "velocity": 72,
            "startTime": 36.8,
            "duration": 1.6
          },
          {
            "note": 76,
            "velocity": 68,
            "startTime": 39.0,
            "duration": 1.2
          },
          {
            "note": 75,
            "velocity": 64,
            "startTime": 40.8,
            "duration": 1.0
          },
          {
            "note": 72,
            "velocity": 60,
            "startTime": 42.2,
            "duration": 1.4
          },
          {
            "note": 64,
            "velocity": 55,
            "startTime": 44.0,
            "duration": 1.0
          }
        ]
      },
      {
        "name": "Blues Bass",
        "program": 33,
        "role": "bass",
        "totalDuration": 45,
        "notes": [
          {
            "note": 40,
            "velocity": 80,
            "startTime": 0,
            "duration": 1.4
          },
          {
            "note": 42,
            "velocity": 75,
            "startTime": 1.6,
            "duration": 0.6
          },
          {
            "note": 43,
            "velocity": 78,
            "startTime": 2.4,
            "duration": 1.2
          },
          {
            "note": 40,
            "velocity": 76,
            "startTime": 4.0,
            "duration": 1.6
          },
          {
            "note": 45,
            "velocity": 80,
            "startTime": 6.4,
            "duration": 1.4
          },
          {
            "note": 47,
            "velocity": 74,
            "startTime": 8.0,
            "duration": 0.8
          },
          {
            "note": 45,
            "velocity": 78,
            "startTime": 9.2,
            "duration": 1.2
          },
          {
            "note": 40,
            "velocity": 82,
            "startTime": 11.2,
            "duration": 1.6
          },
          {
            "note": 42,
            "velocity": 76,
            "startTime": 13.2,
            "duration": 0.8
          },
          {
            "note": 43,
            "velocity": 78,
            "startTime": 14.4,
            "duration": 1.2
          },
          {
            "note": 40,
            "velocity": 80,
            "startTime": 16.0,
            "duration": 1.6
          },
          {
            "note": 45,
            "velocity": 82,
            "startTime": 18.4,
            "duration": 1.4
          },
          {
            "note": 47,
            "velocity": 76,
            "startTime": 20.4,
            "duration": 1.0
          },
          {
            "note": 45,
            "velocity": 74,
            "startTime": 22.0,
            "duration": 1.2
          },
          {
            "note": 40,
            "velocity": 80,
            "startTime": 24.0,
            "duration": 1.6
          },
          {
            "note": 42,
            "velocity": 78,
            "startTime": 26.0,
            "duration": 0.8
          },
          {
            "note": 43,
            "velocity": 76,
            "startTime": 27.2,
            "duration": 1.2
          },
          {
            "note": 40,
            "velocity": 82,
            "startTime": 28.8,
            "duration": 1.6
          },
          {
            "note": 45,
            "velocity": 80,
            "startTime": 30.8,
            "duration": 1.4
          },
          {
            "note": 47,
            "velocity": 74,
            "startTime": 32.8,
            "duration": 1.0
          },
          {
            "note": 45,
            "velocity": 78,
            "startTime": 34.4,
            "duration": 1.2
          },
          {
            "note": 40,
            "velocity": 80,
            "startTime": 36.0,
            "duration": 1.6
          },
          {
            "note": 42,
            "velocity": 76,
            "startTime": 38.4,
            "duration": 0.8
          },
          {
            "note": 43,
            "velocity": 74,
            "startTime": 39.6,
            "duration": 1.2
          },
          {
            "note": 40,
            "velocity": 78,
            "startTime": 41.2,
            "duration": 1.6
          },
          {
            "note": 45,
            "velocity": 72,
            "startTime": 43.2,
            "duration": 1.0
          },
          {
            "note": 40,
            "velocity": 68,
            "startTime": 44.4,
            "duration": 0.6
          }
        ]
      },
      {
        "name": "Shuffle Chords",
        "program": 25,
        "role": "chords",
        "totalDuration": 45,
        "notes": [
          {
            "note": 52,
            "velocity": 55,
            "startTime": 0,
            "duration": 1.4
          },
          {
            "note": 56,
            "velocity": 52,
            "startTime": 0,
            "duration": 1.4
          },
          {
            "note": 59,
            "velocity": 50,
            "startTime": 0,
            "duration": 1.4
          },
          {
            "note": 52,
            "velocity": 58,
            "startTime": 3.2,
            "duration": 1.2
          },
          {
            "note": 55,
            "velocity": 55,
            "startTime": 3.2,
            "duration": 1.2
          },
          {
            "note": 58,
            "velocity": 52,
            "startTime": 3.2,
            "duration": 1.2
          },
          {
            "note": 52,
            "velocity": 56,
            "startTime": 6.4,
            "duration": 1.6
          },
          {
            "note": 56,
            "velocity": 54,
            "startTime": 6.4,
            "duration": 1.6
          },
          {
            "note": 59,
            "velocity": 50,
            "startTime": 6.4,
            "duration": 1.6
          },
          {
            "note": 57,
            "velocity": 58,
            "startTime": 9.6,
            "duration": 1.4
          },
          {
            "note": 60,
            "velocity": 55,
            "startTime": 9.6,
            "duration": 1.4
          },
          {
            "note": 64,
            "velocity": 52,
            "startTime": 9.6,
            "duration": 1.4
          },
          {
            "note": 52,
            "velocity": 56,
            "startTime": 12.8,
            "duration": 1.6
          },
          {
            "note": 56,
            "velocity": 54,
            "startTime": 12.8,
            "duration": 1.6
          },
          {
            "note": 59,
            "velocity": 50,
            "startTime": 12.8,
            "duration": 1.6
          },
          {
            "note": 52,
            "velocity": 58,
            "startTime": 16.0,
            "duration": 1.4
          },
          {
            "note": 55,
            "velocity": 55,
            "startTime": 16.0,
            "duration": 1.4
          },
          {
            "note": 58,
            "velocity": 52,
            "startTime": 16.0,
            "duration": 1.4
          },
          {
            "note": 57,
            "velocity": 56,
            "startTime": 19.2,
            "duration": 1.6
          },
          {
            "note": 60,
            "velocity": 54,
            "startTime": 19.2,
            "duration": 1.6
          },
          {
            "note": 64,
            "velocity": 50,
            "startTime": 19.2,
            "duration": 1.6
          },
          {
            "note": 57,
            "velocity": 58,
            "startTime": 22.4,
            "duration": 1.4
          },
          {
            "note": 61,
            "velocity": 55,
            "startTime": 22.4,
            "duration": 1.4
          },
          {
            "note": 64,
            "velocity": 52,
            "startTime": 22.4,
            "duration": 1.4
          },
          {
            "note": 59,
            "velocity": 56,
            "startTime": 25.6,
            "duration": 1.2
          },
          {
            "note": 63,
            "velocity": 54,
            "startTime": 25.6,
            "duration": 1.2
          },
          {
            "note": 66,
            "velocity": 50,
            "startTime": 25.6,
            "duration": 1.2
          },
          {
            "note": 57,
            "velocity": 58,
            "startTime": 28.8,
            "duration": 1.6
          },
          {
            "note": 60,
            "velocity": 55,
            "startTime": 28.8,
            "duration": 1.6
          },
          {
            "note": 64,
            "velocity": 52,
            "startTime": 28.8,
            "duration": 1.6
          },
          {
            "note": 52,
            "velocity": 56,
            "startTime": 32.0,
            "duration": 1.4
          },
          {
            "note": 56,
            "velocity": 54,
            "startTime": 32.0,
            "duration": 1.4
          },
          {
            "note": 59,
            "velocity": 50,
            "startTime": 32.0,
            "duration": 1.4
          },
          {
            "note": 52,
            "velocity": 58,
            "startTime": 35.2,
            "duration": 1.2
          },
          {
            "note": 55,
            "velocity": 55,
            "startTime": 35.2,
            "duration": 1.2
          },
          {
            "note": 58,
            "velocity": 52,
            "startTime": 35.2,
            "duration": 1.2
          },
          {
            "note": 57,
            "velocity": 56,
            "startTime": 38.4,
            "duration": 1.6
          },
          {
            "note": 60,
            "velocity": 54,
            "startTime": 38.4,
            "duration": 1.6
          },
          {
            "note": 64,
            "velocity": 50,
            "startTime": 38.4,
            "duration": 1.6
          },
          {
            "note": 59,
            "velocity": 54,
            "startTime": 41.6,
            "duration": 1.2
          },
          {
            "note": 63,
            "velocity": 52,
            "startTime": 41.6,
            "duration": 1.2
          },
          {
            "note": 66,
            "velocity": 48,
            "startTime": 41.6,
            "duration": 1.2
          },
          {
            "note": 52,
            "velocity": 50,
            "startTime": 44.0,
            "duration": 1.0
          },
          {
            "note": 56,
            "velocity": 48,
            "startTime": 44.0,
            "duration": 1.0
          },
          {
            "note": 59,
            "velocity": 45,
            "startTime": 44.0,
            "duration": 1.0
          }
        ]
      },
      {
        "name": "Brush Drums",
        "program": 0,
        "role": "drums",
        "totalDuration": 45,
        "notes": [
          {
            "note": 42,
            "velocity": 45,
            "startTime": 0,
            "duration": 0.3
          },
          {
            "note": 36,
            "velocity": 60,
            "startTime": 0,
            "duration": 0.3
          },
          {
            "note": 42,
            "velocity": 40,
            "startTime": 0.53,
            "duration": 0.3
          },
          {
            "note": 42,
            "velocity": 48,
            "startTime": 0.8,
            "duration": 0.3
          },
          {
            "note": 38,
            "velocity": 50,
            "startTime": 0.8,
            "duration": 0.3
          },
          {
            "note": 42,
            "velocity": 42,
            "startTime": 1.33,
            "duration": 0.3
          },
          {
            "note": 42,
            "velocity": 45,
            "startTime": 1.6,
            "duration": 0.3
          },
          {
            "note": 36,
            "velocity": 58,
            "startTime": 1.6,
            "duration": 0.3
          },
          {
            "note": 42,
            "velocity": 40,
            "startTime": 2.13,
            "duration": 0.3
          },
          {
            "note": 42,
            "velocity": 48,
            "startTime": 2.4,
            "duration": 0.3
          },
          {
            "note": 38,
            "velocity": 52,
            "startTime": 2.4,
            "duration": 0.3
          },
          {
            "note": 42,
            "velocity": 42,
            "startTime": 2.93,
            "duration": 0.3
          },
          {
            "note": 42,
            "velocity": 45,
            "startTime": 3.2,
            "duration": 0.3
          },
          {
            "note": 36,
            "velocity": 60,
            "startTime": 3.2,
            "duration": 0.3
          },
          {
            "note": 42,
            "velocity": 40,
            "startTime": 3.73,
            "duration": 0.3
          },
          {
            "note": 42,
            "velocity": 48,
            "startTime": 4.0,
            "duration": 0.3
          },
          {
            "note": 38,
            "velocity": 50,
            "startTime": 4.0,
            "duration": 0.3
          },
          {
            "note": 42,
            "velocity": 42,
            "startTime": 4.53,
            "duration": 0.3
          },
          {
            "note": 42,
            "velocity": 45,
            "startTime": 4.8,
            "duration": 0.3
          },
          {
            "note": 36,
            "velocity": 58,
            "startTime": 4.8,
            "duration": 0.3
          },
          {
            "note": 42,
            "velocity": 40,
            "startTime": 5.33,
            "duration": 0.3
          },
          {
            "note": 42,
            "velocity": 48,
            "startTime": 5.6,
            "duration": 0.3
          },
          {
            "note": 38,
            "velocity": 52,
            "startTime": 5.6,
            "duration": 0.3
          },
          {
            "note": 42,
            "velocity": 42,
            "startTime": 6.13,
            "duration": 0.3
          },
          {
            "note": 42,
            "velocity": 45,
            "startTime": 6.4,
            "duration": 0.3
          },
          {
            "note": 36,
            "velocity": 60,
            "startTime": 6.4,
            "duration": 0.3
          },
          {
            "note": 42,
            "velocity": 40,
            "startTime": 6.93,
            "duration": 0.3
          },
          {
            "note": 42,
            "velocity": 48,
            "startTime": 7.2,
            "duration": 0.3
          },
          {
            "note": 38,
            "velocity": 50,
            "startTime": 7.2,
            "duration": 0.3
          },
          {
            "note": 42,
            "velocity": 42,
            "startTime": 7.73,
            "duration": 0.3
          },
          {
            "note": 42,
            "velocity": 45,
            "startTime": 8.0,
            "duration": 0.3
          },
          {
            "note": 36,
            "velocity": 58,
            "startTime": 8.0,
            "duration": 0.3
          },
          {
            "note": 42,
            "velocity": 40,
            "startTime": 8.53,
            "duration": 0.3
          },
          {
            "note": 42,
            "velocity": 48,
            "startTime": 8.8,
            "duration": 0.3
          },
          {
            "note": 38,
            "velocity": 52,
            "startTime": 8.8,
            "duration": 0.3
          },
          {
            "note": 42,
            "velocity": 42,
            "startTime": 9.33,
            "duration": 0.3
          },
          {
            "note": 42,
            "velocity": 45,
            "startTime": 9.6,
            "duration": 0.3
          },
          {
            "note": 36,
            "velocity": 60,
            "startTime": 9.6,
            "duration": 0.3
          },
          {
            "note": 42,
            "velocity": 40,
            "startTime": 10.13,
            "duration": 0.3
          },
          {
            "note": 42,
            "velocity": 48,
            "startTime": 10.4,
            "duration": 0.3
          },
          {
            "note": 38,
            "velocity": 50,
            "startTime": 10.4,
            "duration": 0.3
          },
          {
            "note": 42,
            "velocity": 42,
            "startTime": 10.93,
            "duration": 0.3
          },
          {
            "note": 42,
            "velocity": 45,
            "startTime": 11.2,
            "duration": 0.3
          },
          {
            "note": 36,
            "velocity": 58,
            "startTime": 11.2,
            "duration": 0.3
          },
          {
            "note": 42,
            "velocity": 40,
            "startTime": 11.73,
            "duration": 0.3
          },
          {
            "note": 42,
            "velocity": 48,
            "startTime": 12.0,
            "duration": 0.3
          },
          {
            "note": 38,
            "velocity": 52,
            "startTime": 12.0,
            "duration": 0.3
          },
          {
            "note": 42,
            "velocity": 42,
            "startTime": 12.53,
            "duration": 0.3
          },
          {
            "note": 42,
            "velocity": 45,
            "startTime": 12.8,
            "duration": 0.3
          },
          {
            "note": 36,
            "velocity": 60,
            "startTime": 12.8,
            "duration": 0.3
          },
          {
            "note": 42,
            "velocity": 40,
            "startTime": 13.33,
            "duration": 0.3
          },
          {
            "note": 42,
            "velocity": 48,
            "startTime": 13.6,
            "duration": 0.3
          },
          {
            "note": 38,
            "velocity": 50,
            "startTime": 13.6,
            "duration": 0.3
          },
          {
            "note": 42,
            "velocity": 42,
            "startTime": 14.13,
            "duration": 0.3
          },
          {
            "note": 42,
            "velocity": 45,
            "startTime": 14.4,
            "duration": 0.3
          },
          {
            "note": 36,
            "velocity": 58,
            "startTime": 14.4,
            "duration": 0.3
          },
          {
            "note": 42,
            "velocity": 40,
            "startTime": 14.93,
            "duration": 0.3
          },
          {
            "note": 42,
            "velocity": 48,
            "startTime": 15.2,
            "duration": 0.3
          },
          {
            "note": 38,
            "velocity": 52,
            "startTime": 15.2,
            "duration": 0.3
          },
          {
            "note": 42,
            "velocity": 42,
            "startTime": 15.73,
            "duration": 0.3
          },
          {
            "note": 42,
            "velocity": 45,
            "startTime": 16.0,
            "duration": 0.3
          },
          {
            "note": 36,
            "velocity": 60,
            "startTime": 16.0,
            "duration": 0.3
          },
          {
            "note": 42,
            "velocity": 40,
            "startTime": 16.53,
            "duration": 0.3
          },
          {
            "note": 42,
            "velocity": 48,
            "startTime": 16.8,
            "duration": 0.3
          },
          {
            "note": 38,
            "velocity": 50,
            "startTime": 16.8,
            "duration": 0.3
          },
          {
            "note": 42,
            "velocity": 42,
            "startTime": 17.33,
            "duration": 0.3
          },
          {
            "note": 42,
            "velocity": 45,
            "startTime": 17.6,
            "duration": 0.3
          },
          {
            "note": 36,
            "velocity": 58,
            "startTime": 17.6,
            "duration": 0.3
          },
          {
            "note": 42,
            "velocity": 40,
            "startTime": 18.13,
            "duration": 0.3
          },
          {
            "note": 42,
            "velocity": 48,
            "startTime": 18.4,
            "duration": 0.3
          },
          {
            "note": 38,
            "velocity": 52,
            "startTime": 18.4,
            "duration": 0.3
          },
          {
            "note": 42,
            "velocity": 42,
            "startTime": 18.93,
            "duration": 0.3
          },
          {
            "note": 42,
            "velocity": 45,
            "startTime": 19.2,
            "duration": 0.3
          },
          {
            "note": 36,
            "velocity": 60,
            "startTime": 19.2,
            "duration": 0.3
          },
          {
            "note": 42,
            "velocity": 40,
            "startTime": 19.73,
            "duration": 0.3
          },
          {
            "note": 42,
            "velocity": 48,
            "startTime": 20.0,
            "duration": 0.3
          },
          {
            "note": 38,
            "velocity": 50,
            "startTime": 20.0,
            "duration": 0.3
          },
          {
            "note": 42,
            "velocity": 42,
            "startTime": 20.53,
            "duration": 0.3
          },
          {
            "note": 42,
            "velocity": 45,
            "startTime": 20.8,
            "duration": 0.3
          },
          {
            "note": 36,
            "velocity": 58,
            "startTime": 20.8,
            "duration": 0.3
          },
          {
            "note": 42,
            "velocity": 40,
            "startTime": 21.33,
            "duration": 0.3
          },
          {
            "note": 42,
            "velocity": 48,
            "startTime": 21.6,
            "duration": 0.3
          },
          {
            "note": 38,
            "velocity": 52,
            "startTime": 21.6,
            "duration": 0.3
          },
          {
            "note": 42,
            "velocity": 42,
            "startTime": 22.13,
            "duration": 0.3
          },
          {
            "note": 42,
            "velocity": 45,
            "startTime": 22.4,
            "duration": 0.3
          },
          {
            "note": 36,
            "velocity": 60,
            "startTime": 22.4,
            "duration": 0.3
          },
          {
            "note": 42,
            "velocity": 40,
            "startTime": 22.93,
            "duration": 0.3
          },
          {
            "note": 42,
            "velocity": 48,
            "startTime": 23.2,
            "duration": 0.3
          },
          {
            "note": 38,
            "velocity": 50,
            "startTime": 23.2,
            "duration": 0.3
          },
          {
            "note": 42,
            "velocity": 42,
            "startTime": 23.73,
            "duration": 0.3
          },
          {
            "note": 42,
            "velocity": 45,
            "startTime": 24.0,
            "duration": 0.3
          },
          {
            "note": 36,
            "velocity": 58,
            "startTime": 24.0,
            "duration": 0.3
          },
          {
            "note": 42,
            "velocity": 40,
            "startTime": 24.53,
            "duration": 0.3
          },
          {
            "note": 42,
            "velocity": 48,
            "startTime": 24.8,
            "duration": 0.3
          },
          {
            "note": 38,
            "velocity": 52,
            "startTime": 24.8,
            "duration": 0.3
          },
          {
            "note": 42,
            "velocity": 42,
            "startTime": 25.33,
            "duration": 0.3
          },
          {
            "note": 42,
            "velocity": 45,
            "startTime": 25.6,
            "duration": 0.3
          },
          {
            "note": 36,
            "velocity": 60,
            "startTime": 25.6,
            "duration": 0.3
          },
          {
            "note": 42,
            "velocity": 40,
            "startTime": 26.13,
            "duration": 0.3
          },
          {
            "note": 42,
            "velocity": 48,
            "startTime": 26.4,
            "duration": 0.3
          },
          {
            "note": 38,
            "velocity": 50,
            "startTime": 26.4,
            "duration": 0.3
          },
          {
            "note": 42,
            "velocity": 42,
            "startTime": 26.93,
            "duration": 0.3
          },
          {
            "note": 42,
            "velocity": 45,
            "startTime": 27.2,
            "duration": 0.3
          },
          {
            "note": 36,
            "velocity": 58,
            "startTime": 27.2,
            "duration": 0.3
          },
          {
            "note": 42,
            "velocity": 40,
            "startTime": 27.73,
            "duration": 0.3
          },
          {
            "note": 42,
            "velocity": 48,
            "startTime": 28.0,
            "duration": 0.3
          },
          {
            "note": 38,
            "velocity": 52,
            "startTime": 28.0,
            "duration": 0.3
          },
          {
            "note": 42,
            "velocity": 42,
            "startTime": 28.53,
            "duration": 0.3
          },
          {
            "note": 42,
            "velocity": 45,
            "startTime": 28.8,
            "duration": 0.3
          },
          {
            "note": 36,
            "velocity": 60,
            "startTime": 28.8,
            "duration": 0.3
          },
          {
            "note": 42,
            "velocity": 40,
            "startTime": 29.33,
            "duration": 0.3
          },
          {
            "note": 42,
            "velocity": 48,
            "startTime": 29.6,
            "duration": 0.3
          },
          {
            "note": 38,
            "velocity": 50,
            "startTime": 29.6,
            "duration": 0.3
          },
          {
            "note": 42,
            "velocity": 42,
            "startTime": 30.13,
            "duration": 0.3
          },
          {
            "note": 42,
            "velocity": 45,
            "startTime": 30.4,
            "duration": 0.3
          },
          {
            "note": 36,
            "velocity": 58,
            "startTime": 30.4,
            "duration": 0.3
          },
          {
            "note": 42,
            "velocity": 40,
            "startTime": 30.93,
            "duration": 0.3
          },
          {
            "note": 42,
            "velocity": 48,
            "startTime": 31.2,
            "duration": 0.3
          },
          {
            "note": 38,
            "velocity": 52,
            "startTime": 31.2,
            "duration": 0.3
          },
          {
            "note": 42,
            "velocity": 42,
            "startTime": 31.73,
            "duration": 0.3
          },
          {
            "note": 42,
            "velocity": 45,
            "startTime": 32.0,
            "duration": 0.3
          },
          {
            "note": 36,
            "velocity": 60,
            "startTime": 32.0,
            "duration": 0.3
          },
          {
            "note": 42,
            "velocity": 40,
            "startTime": 32.53,
            "duration": 0.3
          },
          {
            "note": 42,
            "velocity": 48,
            "startTime": 32.8,
            "duration": 0.3
          },
          {
            "note": 38,
            "velocity": 50,
            "startTime": 32.8,
            "duration": 0.3
          },
          {
            "note": 42,
            "velocity": 42,
            "startTime": 33.33,
            "duration": 0.3
          },
          {
            "note": 42,
            "velocity": 45,
            "startTime": 33.6,
            "duration": 0.3
          },
          {
            "note": 36,
            "velocity": 58,
            "startTime": 33.6,
            "duration": 0.3
          },
          {
            "note": 42,
            "velocity": 40,
            "startTime": 34.13,
            "duration": 0.3
          },
          {
            "note": 42,
            "velocity": 48,
            "startTime": 34.4,
            "duration": 0.3
          },
          {
            "note": 38,
            "velocity": 52,
            "startTime": 34.4,
            "duration": 0.3
          },
          {
            "note": 42,
            "velocity": 42,
            "startTime": 34.93,
            "duration": 0.3
          },
          {
            "note": 42,
            "velocity": 45,
            "startTime": 35.2,
            "duration": 0.3
          },
          {
            "note": 36,
            "velocity": 60,
            "startTime": 35.2,
            "duration": 0.3
          },
          {
            "note": 42,
            "velocity": 40,
            "startTime": 35.73,
            "duration": 0.3
          },
          {
            "note": 42,
            "velocity": 48,
            "startTime": 36.0,
            "duration": 0.3
          },
          {
            "note": 38,
            "velocity": 50,
            "startTime": 36.0,
            "duration": 0.3
          },
          {
            "note": 42,
            "velocity": 42,
            "startTime": 36.53,
            "duration": 0.3
          },
          {
            "note": 42,
            "velocity": 45,
            "startTime": 36.8,
            "duration": 0.3
          },
          {
            "note": 36,
            "velocity": 58,
            "startTime": 36.8,
            "duration": 0.3
          },
          {
            "note": 42,
            "velocity": 40,
            "startTime": 37.33,
            "duration": 0.3
          },
          {
            "note": 42,
            "velocity": 48,
            "startTime": 37.6,
            "duration": 0.3
          },
          {
            "note": 38,
            "velocity": 52,
            "startTime": 37.6,
            "duration": 0.3
          },
          {
            "note": 42,
            "velocity": 42,
            "startTime": 38.13,
            "duration": 0.3
          },
          {
            "note": 42,
            "velocity": 45,
            "startTime": 38.4,
            "duration": 0.3
          },
          {
            "note": 36,
            "velocity": 60,
            "startTime": 38.4,
            "duration": 0.3
          },
          {
            "note": 42,
            "velocity": 40,
            "startTime": 38.93,
            "duration": 0.3
          },
          {
            "note": 42,
            "velocity": 48,
            "startTime": 39.2,
            "duration": 0.3
          },
          {
            "note": 38,
            "velocity": 50,
            "startTime": 39.2,
            "duration": 0.3
          },
          {
            "note": 42,
            "velocity": 42,
            "startTime": 39.73,
            "duration": 0.3
          },
          {
            "note": 42,
            "velocity": 45,
            "startTime": 40.0,
            "duration": 0.3
          },
          {
            "note": 36,
            "velocity": 58,
            "startTime": 40.0,
            "duration": 0.3
          },
          {
            "note": 42,
            "velocity": 40,
            "startTime": 40.53,
            "duration": 0.3
          },
          {
            "note": 42,
            "velocity": 48,
            "startTime": 40.8,
            "duration": 0.3
          },
          {
            "note": 38,
            "velocity": 52,
            "startTime": 40.8,
            "duration": 0.3
          },
          {
            "note": 42,
            "velocity": 42,
            "startTime": 41.33,
            "duration": 0.3
          },
          {
            "note": 42,
            "velocity": 45,
            "startTime": 41.6,
            "duration": 0.3
          },
          {
            "note": 36,
            "velocity": 60,
            "startTime": 41.6,
            "duration": 0.3
          },
          {
            "note": 42,
            "velocity": 40,
            "startTime": 42.13,
            "duration": 0.3
          },
          {
            "note": 42,
            "velocity": 48,
            "startTime": 42.4,
            "duration": 0.3
          },
          {
            "note": 38,
            "velocity": 50,
            "startTime": 42.4,
            "duration": 0.3
          },
          {
            "note": 42,
            "velocity": 42,
            "startTime": 42.93,
            "duration": 0.3
          },
          {
            "note": 42,
            "velocity": 45,
            "startTime": 43.2,
            "duration": 0.3
          },
          {
            "note": 36,
            "velocity": 55,
            "startTime": 43.2,
            "duration": 0.3
          },
          {
            "note": 42,
            "velocity": 38,
            "startTime": 43.73,
            "duration": 0.3
          },
          {
            "note": 42,
            "velocity": 44,
            "startTime": 44.0,
            "duration": 0.3
          },
          {
            "note": 38,
            "velocity": 48,
            "startTime": 44.0,
            "duration": 0.3
          },
          {
            "note": 42,
            "velocity": 35,
            "startTime": 44.53,
            "duration": 0.3
          }
        ]
      }
    ],
    "key": "E",
    "bpm": 75,
    "scale": "blues"
  },
  {
    "genre": "blues",
    "mode": "energize",
    "tracks": [
      {
        "name": "Blues Piano Melody",
        "program": 0,
        "role": "melody",
        "totalDuration": 45,
        "notes": [
          {
            "note": 76,
            "velocity": 100,
            "startTime": 0,
            "duration": 0.4
          },
          {
            "note": 73,
            "velocity": 95,
            "startTime": 0.63,
            "duration": 0.3
          },
          {
            "note": 71,
            "velocity": 105,
            "startTime": 1.26,
            "duration": 0.5
          },
          {
            "note": 69,
            "velocity": 90,
            "startTime": 2.0,
            "duration": 0.3
          },
          {
            "note": 67,
            "velocity": 100,
            "startTime": 2.53,
            "duration": 0.6
          },
          {
            "note": 64,
            "velocity": 95,
            "startTime": 3.79,
            "duration": 0.4
          },
          {
            "note": 67,
            "velocity": 100,
            "startTime": 4.42,
            "duration": 0.3
          },
          {
            "note": 69,
            "velocity": 110,
            "startTime": 5.05,
            "duration": 0.5
          },
          {
            "note": 71,
            "velocity": 105,
            "startTime": 6.32,
            "duration": 0.4
          },
          {
            "note": 76,
            "velocity": 100,
            "startTime": 7.58,
            "duration": 0.6
          },
          {
            "note": 73,
            "velocity": 95,
            "startTime": 8.84,
            "duration": 0.3
          },
          {
            "note": 71,
            "velocity": 100,
            "startTime": 9.47,
            "duration": 0.5
          },
          {
            "note": 69,
            "velocity": 90,
            "startTime": 10.1,
            "duration": 0.3
          },
          {
            "note": 64,
            "velocity": 105,
            "startTime": 10.74,
            "duration": 0.6
          },
          {
            "note": 67,
            "velocity": 100,
            "startTime": 11.37,
            "duration": 0.4
          },
          {
            "note": 69,
            "velocity": 95,
            "startTime": 12.0,
            "duration": 0.3
          },
          {
            "note": 71,
            "velocity": 110,
            "startTime": 12.63,
            "duration": 0.5
          },
          {
            "note": 76,
            "velocity": 100,
            "startTime": 13.9,
            "duration": 0.4
          },
          {
            "note": 73,
            "velocity": 95,
            "startTime": 15.16,
            "duration": 0.6
          },
          {
            "note": 71,
            "velocity": 100,
            "startTime": 15.79,
            "duration": 0.3
          },
          {
            "note": 69,
            "velocity": 110,
            "startTime": 16.42,
            "duration": 0.5
          },
          {
            "note": 76,
            "velocity": 105,
            "startTime": 17.05,
            "duration": 0.4
          },
          {
            "note": 78,
            "velocity": 100,
            "startTime": 17.68,
            "duration": 0.3
          },
          {
            "note": 76,
            "velocity": 95,
            "startTime": 18.95,
            "duration": 0.6
          },
          {
            "note": 73,
            "velocity": 100,
            "startTime": 20.21,
            "duration": 0.4
          },
          {
            "note": 71,
            "velocity": 110,
            "startTime": 21.47,
            "duration": 0.5
          },
          {
            "note": 69,
            "velocity": 95,
            "startTime": 22.74,
            "duration": 0.3
          },
          {
            "note": 67,
            "velocity": 100,
            "startTime": 23.37,
            "duration": 0.6
          },
          {
            "note": 64,
            "velocity": 105,
            "startTime": 24.0,
            "duration": 0.4
          },
          {
            "note": 67,
            "velocity": 100,
            "startTime": 24.63,
            "duration": 0.3
          },
          {
            "note": 69,
            "velocity": 110,
            "startTime": 25.26,
            "duration": 0.5
          },
          {
            "note": 71,
            "velocity": 105,
            "startTime": 25.9,
            "duration": 0.4
          },
          {
            "note": 76,
            "velocity": 100,
            "startTime": 27.16,
            "duration": 0.6
          },
          {
            "note": 78,
            "velocity": 95,
            "startTime": 28.42,
            "duration": 0.3
          },
          {
            "note": 76,
            "velocity": 100,
            "startTime": 29.05,
            "duration": 0.5
          },
          {
            "note": 73,
            "velocity": 110,
            "startTime": 29.68,
            "duration": 0.4
          },
          {
            "note": 71,
            "velocity": 100,
            "startTime": 30.95,
            "duration": 0.6
          },
          {
            "note": 69,
            "velocity": 95,
            "startTime": 32.21,
            "duration": 0.3
          },
          {
            "note": 67,
            "velocity": 105,
            "startTime": 33.47,
            "duration": 0.5
          },
          {
            "note": 64,
            "velocity": 100,
            "startTime": 34.74,
            "duration": 0.4
          },
          {
            "note": 67,
            "velocity": 110,
            "startTime": 35.37,
            "duration": 0.3
          },
          {
            "note": 69,
            "velocity": 100,
            "startTime": 36.0,
            "duration": 0.5
          },
          {
            "note": 71,
            "velocity": 105,
            "startTime": 36.63,
            "duration": 0.6
          },
          {
            "note": 76,
            "velocity": 100,
            "startTime": 37.9,
            "duration": 0.4
          },
          {
            "note": 78,
            "velocity": 110,
            "startTime": 39.16,
            "duration": 0.3
          },
          {
            "note": 76,
            "velocity": 100,
            "startTime": 39.79,
            "duration": 0.5
          },
          {
            "note": 73,
            "velocity": 95,
            "startTime": 40.42,
            "duration": 0.6
          },
          {
            "note": 71,
            "velocity": 105,
            "startTime": 41.05,
            "duration": 0.4
          },
          {
            "note": 69,
            "velocity": 100,
            "startTime": 42.32,
            "duration": 0.5
          },
          {
            "note": 76,
            "velocity": 115,
            "startTime": 43.58,
            "duration": 0.8
          }
        ]
      },
      {
        "name": "Driving Blues Bass",
        "program": 33,
        "role": "bass",
        "totalDuration": 45,
        "notes": [
          {
            "note": 40,
            "velocity": 110,
            "startTime": 0,
            "duration": 0.5
          },
          {
            "note": 40,
            "velocity": 100,
            "startTime": 0.63,
            "duration": 0.3
          },
          {
            "note": 42,
            "velocity": 105,
            "startTime": 1.26,
            "duration": 0.5
          },
          {
            "note": 40,
            "velocity": 100,
            "startTime": 1.89,
            "duration": 0.3
          },
          {
            "note": 40,
            "velocity": 110,
            "startTime": 2.53,
            "duration": 0.5
          },
          {
            "note": 42,
            "velocity": 100,
            "startTime": 3.16,
            "duration": 0.3
          },
          {
            "note": 40,
            "velocity": 105,
            "startTime": 3.79,
            "duration": 0.5
          },
          {
            "note": 40,
            "velocity": 100,
            "startTime": 4.42,
            "duration": 0.3
          },
          {
            "note": 40,
            "velocity": 110,
            "startTime": 5.05,
            "duration": 0.5
          },
          {
            "note": 42,
            "velocity": 100,
            "startTime": 5.68,
            "duration": 0.3
          },
          {
            "note": 40,
            "velocity": 105,
            "startTime": 6.32,
            "duration": 0.5
          },
          {
            "note": 40,
            "velocity": 100,
            "startTime": 6.95,
            "duration": 0.3
          },
          {
            "note": 45,
            "velocity": 110,
            "startTime": 7.58,
            "duration": 0.5
          },
          {
            "note": 45,
            "velocity": 100,
            "startTime": 8.21,
            "duration": 0.3
          },
          {
            "note": 47,
            "velocity": 105,
            "startTime": 8.84,
            "duration": 0.5
          },
          {
            "note": 45,
            "velocity": 100,
            "startTime": 9.47,
            "duration": 0.3
          },
          {
            "note": 45,
            "velocity": 110,
            "startTime": 10.1,
            "duration": 0.5
          },
          {
            "note": 47,
            "velocity": 100,
            "startTime": 10.74,
            "duration": 0.3
          },
          {
            "note": 45,
            "velocity": 105,
            "startTime": 11.37,
            "duration": 0.5
          },
          {
            "note": 45,
            "velocity": 100,
            "startTime": 12.0,
            "duration": 0.3
          },
          {
            "note": 40,
            "velocity": 110,
            "startTime": 12.63,
            "duration": 0.5
          },
          {
            "note": 40,
            "velocity": 100,
            "startTime": 13.26,
            "duration": 0.3
          },
          {
            "note": 42,
            "velocity": 105,
            "startTime": 13.9,
            "duration": 0.5
          },
          {
            "note": 40,
            "velocity": 100,
            "startTime": 14.53,
            "duration": 0.3
          },
          {
            "note": 47,
            "velocity": 110,
            "startTime": 15.16,
            "duration": 0.5
          },
          {
            "note": 45,
            "velocity": 105,
            "startTime": 15.79,
            "duration": 0.3
          },
          {
            "note": 40,
            "velocity": 110,
            "startTime": 16.42,
            "duration": 0.5
          },
          {
            "note": 40,
            "velocity": 100,
            "startTime": 17.05,
            "duration": 0.3
          },
          {
            "note": 40,
            "velocity": 110,
            "startTime": 17.68,
            "duration": 0.5
          },
          {
            "note": 42,
            "velocity": 100,
            "startTime": 18.32,
            "duration": 0.3
          },
          {
            "note": 40,
            "velocity": 105,
            "startTime": 18.95,
            "duration": 0.5
          },
          {
            "note": 40,
            "velocity": 100,
            "startTime": 19.58,
            "duration": 0.3
          },
          {
            "note": 40,
            "velocity": 110,
            "startTime": 20.21,
            "duration": 0.5
          },
          {
            "note": 42,
            "velocity": 100,
            "startTime": 20.84,
            "duration": 0.3
          },
          {
            "note": 40,
            "velocity": 105,
            "startTime": 21.47,
            "duration": 0.5
          },
          {
            "note": 40,
            "velocity": 100,
            "startTime": 22.11,
            "duration": 0.3
          },
          {
            "note": 45,
            "velocity": 110,
            "startTime": 22.74,
            "duration": 0.5
          },
          {
            "note": 45,
            "velocity": 100,
            "startTime": 23.37,
            "duration": 0.3
          },
          {
            "note": 47,
            "velocity": 105,
            "startTime": 24.0,
            "duration": 0.5
          },
          {
            "note": 45,
            "velocity": 100,
            "startTime": 24.63,
            "duration": 0.3
          },
          {
            "note": 45,
            "velocity": 110,
            "startTime": 25.26,
            "duration": 0.5
          },
          {
            "note": 47,
            "velocity": 100,
            "startTime": 25.9,
            "duration": 0.3
          },
          {
            "note": 45,
            "velocity": 105,
            "startTime": 26.53,
            "duration": 0.5
          },
          {
            "note": 45,
            "velocity": 100,
            "startTime": 27.16,
            "duration": 0.3
          },
          {
            "note": 40,
            "velocity": 110,
            "startTime": 27.79,
            "duration": 0.5
          },
          {
            "note": 40,
            "velocity": 100,
            "startTime": 28.42,
            "duration": 0.3
          },
          {
            "note": 42,
            "velocity": 105,
            "startTime": 29.05,
            "duration": 0.5
          },
          {
            "note": 40,
            "velocity": 100,
            "startTime": 29.68,
            "duration": 0.3
          },
          {
            "note": 47,
            "velocity": 110,
            "startTime": 30.32,
            "duration": 0.5
          },
          {
            "note": 45,
            "velocity": 105,
            "startTime": 30.95,
            "duration": 0.3
          },
          {
            "note": 40,
            "velocity": 110,
            "startTime": 31.58,
            "duration": 0.5
          },
          {
            "note": 40,
            "velocity": 100,
            "startTime": 32.21,
            "duration": 0.3
          },
          {
            "note": 40,
            "velocity": 110,
            "startTime": 32.84,
            "duration": 0.5
          },
          {
            "note": 42,
            "velocity": 100,
            "startTime": 33.47,
            "duration": 0.3
          },
          {
            "note": 40,
            "velocity": 105,
            "startTime": 34.11,
            "duration": 0.5
          },
          {
            "note": 40,
            "velocity": 100,
            "startTime": 34.74,
            "duration": 0.3
          },
          {
            "note": 45,
            "velocity": 110,
            "startTime": 35.37,
            "duration": 0.5
          },
          {
            "note": 47,
            "velocity": 105,
            "startTime": 36.0,
            "duration": 0.3
          },
          {
            "note": 45,
            "velocity": 100,
            "startTime": 36.63,
            "duration": 0.5
          },
          {
            "note": 45,
            "velocity": 110,
            "startTime": 37.26,
            "duration": 0.3
          },
          {
            "note": 40,
            "velocity": 110,
            "startTime": 37.9,
            "duration": 0.5
          },
          {
            "note": 42,
            "velocity": 100,
            "startTime": 38.53,
            "duration": 0.3
          },
          {
            "note": 40,
            "velocity": 105,
            "startTime": 39.16,
            "duration": 0.5
          },
          {
            "note": 40,
            "velocity": 100,
            "startTime": 39.79,
            "duration": 0.3
          },
          {
            "note": 47,
            "velocity": 110,
            "startTime": 40.42,
            "duration": 0.5
          },
          {
            "note": 45,
            "velocity": 105,
            "startTime": 41.05,
            "duration": 0.3
          },
          {
            "note": 40,
            "velocity": 110,
            "startTime": 41.68,
            "duration": 0.5
          },
          {
            "note": 42,
            "velocity": 100,
            "startTime": 42.32,
            "duration": 0.3
          },
          {
            "note": 40,
            "velocity": 105,
            "startTime": 42.95,
            "duration": 0.5
          },
          {
            "note": 40,
            "velocity": 115,
            "startTime": 43.58,
            "duration": 1.0
          }
        ]
      },
      {
        "name": "Shuffle Piano Chords",
        "program": 0,
        "role": "chords",
        "totalDuration": 45,
        "notes": [
          {
            "note": 52,
            "velocity": 90,
            "startTime": 0,
            "duration": 0.4
          },
          {
            "note": 56,
            "velocity": 85,
            "startTime": 0,
            "duration": 0.4
          },
          {
            "note": 59,
            "velocity": 85,
            "startTime": 0,
            "duration": 0.4
          },
          {
            "note": 52,
            "velocity": 80,
            "startTime": 0.63,
            "duration": 0.3
          },
          {
            "note": 56,
            "velocity": 75,
            "startTime": 0.63,
            "duration": 0.3
          },
          {
            "note": 59,
            "velocity": 75,
            "startTime": 0.63,
            "duration": 0.3
          },
          {
            "note": 52,
            "velocity": 90,
            "startTime": 1.26,
            "duration": 0.4
          },
          {
            "note": 56,
            "velocity": 85,
            "startTime": 1.26,
            "duration": 0.4
          },
          {
            "note": 59,
            "velocity": 85,
            "startTime": 1.26,
            "duration": 0.4
          },
          {
            "note": 52,
            "velocity": 80,
            "startTime": 2.53,
            "duration": 0.3
          },
          {
            "note": 56,
            "velocity": 75,
            "startTime": 2.53,
            "duration": 0.3
          },
          {
            "note": 59,
            "velocity": 75,
            "startTime": 2.53,
            "duration": 0.3
          },
          {
            "note": 52,
            "velocity": 90,
            "startTime": 3.79,
            "duration": 0.4
          },
          {
            "note": 56,
            "velocity": 85,
            "startTime": 3.79,
            "duration": 0.4
          },
          {
            "note": 59,
            "velocity": 85,
            "startTime": 3.79,
            "duration": 0.4
          },
          {
            "note": 52,
            "velocity": 80,
            "startTime": 5.05,
            "duration": 0.3
          },
          {
            "note": 56,
            "velocity": 75,
            "startTime": 5.05,
            "duration": 0.3
          },
          {
            "note": 59,
            "velocity": 75,
            "startTime": 5.05,
            "duration": 0.3
          },
          {
            "note": 52,
            "velocity": 90,
            "startTime": 6.32,
            "duration": 0.4
          },
          {
            "note": 56,
            "velocity": 85,
            "startTime": 6.32,
            "duration": 0.4
          },
          {
            "note": 59,
            "velocity": 85,
            "startTime": 6.32,
            "duration": 0.4
          },
          {
            "note": 57,
            "velocity": 90,
            "startTime": 7.58,
            "duration": 0.4
          },
          {
            "note": 61,
            "velocity": 85,
            "startTime": 7.58,
            "duration": 0.4
          },
          {
            "note": 64,
            "velocity": 85,
            "startTime": 7.58,
            "duration": 0.4
          },
          {
            "note": 57,
            "velocity": 80,
            "startTime": 8.84,
            "duration": 0.3
          },
          {
            "note": 61,
            "velocity": 75,
            "startTime": 8.84,
            "duration": 0.3
          },
          {
            "note": 64,
            "velocity": 75,
            "startTime": 8.84,
            "duration": 0.3
          },
          {
            "note": 57,
            "velocity": 90,
            "startTime": 10.1,
            "duration": 0.4
          },
          {
            "note": 61,
            "velocity": 85,
            "startTime": 10.1,
            "duration": 0.4
          },
          {
            "note": 64,
            "velocity": 85,
            "startTime": 10.1,
            "duration": 0.4
          },
          {
            "note": 57,
            "velocity": 80,
            "startTime": 11.37,
            "duration": 0.3
          },
          {
            "note": 61,
            "velocity": 75,
            "startTime": 11.37,
            "duration": 0.3
          },
          {
            "note": 64,
            "velocity": 75,
            "startTime": 11.37,
            "duration": 0.3
          },
          {
            "note": 52,
            "velocity": 90,
            "startTime": 12.63,
            "duration": 0.4
          },
          {
            "note": 56,
            "velocity": 85,
            "startTime": 12.63,
            "duration": 0.4
          },
          {
            "note": 59,
            "velocity": 85,
            "startTime": 12.63,
            "duration": 0.4
          },
          {
            "note": 52,
            "velocity": 80,
            "startTime": 13.9,
            "duration": 0.3
          },
          {
            "note": 56,
            "velocity": 75,
            "startTime": 13.9,
            "duration": 0.3
          },
          {
            "note": 59,
            "velocity": 75,
            "startTime": 13.9,
            "duration": 0.3
          },
          {
            "note": 59,
            "velocity": 90,
            "startTime": 15.16,
            "duration": 0.4
          },
          {
            "note": 63,
            "velocity": 85,
            "startTime": 15.16,
            "duration": 0.4
          },
          {
            "note": 66,
            "velocity": 85,
            "startTime": 15.16,
            "duration": 0.4
          },
          {
            "note": 57,
            "velocity": 90,
            "startTime": 15.79,
            "duration": 0.4
          },
          {
            "note": 61,
            "velocity": 85,
            "startTime": 15.79,
            "duration": 0.4
          },
          {
            "note": 64,
            "velocity": 85,
            "startTime": 15.79,
            "duration": 0.4
          },
          {
            "note": 52,
            "velocity": 95,
            "startTime": 16.42,
            "duration": 0.5
          },
          {
            "note": 56,
            "velocity": 90,
            "startTime": 16.42,
            "duration": 0.5
          },
          {
            "note": 59,
            "velocity": 90,
            "startTime": 16.42,
            "duration": 0.5
          },
          {
            "note": 52,
            "velocity": 90,
            "startTime": 17.68,
            "duration": 0.4
          },
          {
            "note": 56,
            "velocity": 85,
            "startTime": 17.68,
            "duration": 0.4
          },
          {
            "note": 59,
            "velocity": 85,
            "startTime": 17.68,
            "duration": 0.4
          },
          {
            "note": 52,
            "velocity": 80,
            "startTime": 18.95,
            "duration": 0.3
          },
          {
            "note": 56,
            "velocity": 75,
            "startTime": 18.95,
            "duration": 0.3
          },
          {
            "note": 59,
            "velocity": 75,
            "startTime": 18.95,
            "duration": 0.3
          },
          {
            "note": 52,
            "velocity": 90,
            "startTime": 20.21,
            "duration": 0.4
          },
          {
            "note": 56,
            "velocity": 85,
            "startTime": 20.21,
            "duration": 0.4
          },
          {
            "note": 59,
            "velocity": 85,
            "startTime": 20.21,
            "duration": 0.4
          },
          {
            "note": 52,
            "velocity": 80,
            "startTime": 21.47,
            "duration": 0.3
          },
          {
            "note": 56,
            "velocity": 75,
            "startTime": 21.47,
            "duration": 0.3
          },
          {
            "note": 59,
            "velocity": 75,
            "startTime": 21.47,
            "duration": 0.3
          },
          {
            "note": 57,
            "velocity": 90,
            "startTime": 22.74,
            "duration": 0.4
          },
          {
            "note": 61,
            "velocity": 85,
            "startTime": 22.74,
            "duration": 0.4
          },
          {
            "note": 64,
            "velocity": 85,
            "startTime": 22.74,
            "duration": 0.4
          },
          {
            "note": 57,
            "velocity": 80,
            "startTime": 24.0,
            "duration": 0.3
          },
          {
            "note": 61,
            "velocity": 75,
            "startTime": 24.0,
            "duration": 0.3
          },
          {
            "note": 64,
            "velocity": 75,
            "startTime": 24.0,
            "duration": 0.3
          },
          {
            "note": 57,
            "velocity": 90,
            "startTime": 25.26,
            "duration": 0.4
          },
          {
            "note": 61,
            "velocity": 85,
            "startTime": 25.26,
            "duration": 0.4
          },
          {
            "note": 64,
            "velocity": 85,
            "startTime": 25.26,
            "duration": 0.4
          },
          {
            "note": 52,
            "velocity": 90,
            "startTime": 27.79,
            "duration": 0.4
          },
          {
            "note": 56,
            "velocity": 85,
            "startTime": 27.79,
            "duration": 0.4
          },
          {
            "note": 59,
            "velocity": 85,
            "startTime": 27.79,
            "duration": 0.4
          },
          {
            "note": 52,
            "velocity": 80,
            "startTime": 29.05,
            "duration": 0.3
          },
          {
            "note": 56,
            "velocity": 75,
            "startTime": 29.05,
            "duration": 0.3
          },
          {
            "note": 59,
            "velocity": 75,
            "startTime": 29.05,
            "duration": 0.3
          },
          {
            "note": 59,
            "velocity": 90,
            "startTime": 30.32,
            "duration": 0.4
          },
          {
            "note": 63,
            "velocity": 85,
            "startTime": 30.32,
            "duration": 0.4
          },
          {
            "note": 66,
            "velocity": 85,
            "startTime": 30.32,
            "duration": 0.4
          },
          {
            "note": 57,
            "velocity": 90,
            "startTime": 30.95,
            "duration": 0.4
          },
          {
            "note": 61,
            "velocity": 85,
            "startTime": 30.95,
            "duration": 0.4
          },
          {
            "note": 64,
            "velocity": 85,
            "startTime": 30.95,
            "duration": 0.4
          },
          {
            "note": 52,
            "velocity": 95,
            "startTime": 31.58,
            "duration": 0.5
          },
          {
            "note": 56,
            "velocity": 90,
            "startTime": 31.58,
            "duration": 0.5
          },
          {
            "note": 59,
            "velocity": 90,
            "startTime": 31.58,
            "duration": 0.5
          },
          {
            "note": 52,
            "velocity": 90,
            "startTime": 32.84,
            "duration": 0.4
          },
          {
            "note": 56,
            "velocity": 85,
            "startTime": 32.84,
            "duration": 0.4
          },
          {
            "note": 59,
            "velocity": 85,
            "startTime": 32.84,
            "duration": 0.4
          },
          {
            "note": 52,
            "velocity": 80,
            "startTime": 34.11,
            "duration": 0.3
          },
          {
            "note": 56,
            "velocity": 75,
            "startTime": 34.11,
            "duration": 0.3
          },
          {
            "note": 59,
            "velocity": 75,
            "startTime": 34.11,
            "duration": 0.3
          },
          {
            "note": 57,
            "velocity": 90,
            "startTime": 35.37,
            "duration": 0.4
          },
          {
            "note": 61,
            "velocity": 85,
            "startTime": 35.37,
            "duration": 0.4
          },
          {
            "note": 64,
            "velocity": 85,
            "startTime": 35.37,
            "duration": 0.4
          },
          {
            "note": 57,
            "velocity": 80,
            "startTime": 36.63,
            "duration": 0.3
          },
          {
            "note": 61,
            "velocity": 75,
            "startTime": 36.63,
            "duration": 0.3
          },
          {
            "note": 64,
            "velocity": 75,
            "startTime": 36.63,
            "duration": 0.3
          },
          {
            "note": 52,
            "velocity": 90,
            "startTime": 37.9,
            "duration": 0.4
          },
          {
            "note": 56,
            "velocity": 85,
            "startTime": 37.9,
            "duration": 0.4
          },
          {
            "note": 59,
            "velocity": 85,
            "startTime": 37.9,
            "duration": 0.4
          },
          {
            "note": 59,
            "velocity": 90,
            "startTime": 40.42,
            "duration": 0.4
          },
          {
            "note": 63,
            "velocity": 85,
            "startTime": 40.42,
            "duration": 0.4
          },
          {
            "note": 66,
            "velocity": 85,
            "startTime": 40.42,
            "duration": 0.4
          },
          {
            "note": 57,
            "velocity": 90,
            "startTime": 41.05,
            "duration": 0.4
          },
          {
            "note": 61,
            "velocity": 85,
            "startTime": 41.05,
            "duration": 0.4
          },
          {
            "note": 64,
            "velocity": 85,
            "startTime": 41.05,
            "duration": 0.4
          },
          {
            "note": 52,
            "velocity": 100,
            "startTime": 41.68,
            "duration": 0.5
          },
          {
            "note": 56,
            "velocity": 95,
            "startTime": 41.68,
            "duration": 0.5
          },
          {
            "note": 59,
            "velocity": 95,
            "startTime": 41.68,
            "duration": 0.5
          },
          {
            "note": 52,
            "velocity": 110,
            "startTime": 43.58,
            "duration": 1.0
          },
          {
            "note": 56,
            "velocity": 105,
            "startTime": 43.58,
            "duration": 1.0
          },
          {
            "note": 59,
            "velocity": 105,
            "startTime": 43.58,
            "duration": 1.0
          }
        ]
      },
      {
        "name": "Full Shuffle Drums",
        "program": 0,
        "role": "drums",
        "totalDuration": 45,
        "notes": [
          {
            "note": 36,
            "velocity": 110,
            "startTime": 0,
            "duration": 0.2
          },
          {
            "note": 42,
            "velocity": 85,
            "startTime": 0,
            "duration": 0.15
          },
          {
            "note": 42,
            "velocity": 75,
            "startTime": 0.42,
            "duration": 0.15
          },
          {
            "note": 38,
            "velocity": 105,
            "startTime": 0.63,
            "duration": 0.2
          },
          {
            "note": 42,
            "velocity": 85,
            "startTime": 0.63,
            "duration": 0.15
          },
          {
            "note": 42,
            "velocity": 70,
            "startTime": 1.05,
            "duration": 0.15
          },
          {
            "note": 36,
            "velocity": 110,
            "startTime": 1.26,
            "duration": 0.2
          },
          {
            "note": 42,
            "velocity": 85,
            "startTime": 1.26,
            "duration": 0.15
          },
          {
            "note": 42,
            "velocity": 75,
            "startTime": 1.68,
            "duration": 0.15
          },
          {
            "note": 38,
            "velocity": 105,
            "startTime": 1.89,
            "duration": 0.2
          },
          {
            "note": 42,
            "velocity": 85,
            "startTime": 1.89,
            "duration": 0.15
          },
          {
            "note": 42,
            "velocity": 70,
            "startTime": 2.32,
            "duration": 0.15
          },
          {
            "note": 36,
            "velocity": 110,
            "startTime": 2.53,
            "duration": 0.2
          },
          {
            "note": 42,
            "velocity": 85,
            "startTime": 2.53,
            "duration": 0.15
          },
          {
            "note": 42,
            "velocity": 75,
            "startTime": 2.95,
            "duration": 0.15
          },
          {
            "note": 38,
            "velocity": 105,
            "startTime": 3.16,
            "duration": 0.2
          },
          {
            "note": 42,
            "velocity": 85,
            "startTime": 3.16,
            "duration": 0.15
          },
          {
            "note": 42,
            "velocity": 70,
            "startTime": 3.58,
            "duration": 0.15
          },
          {
            "note": 36,
            "velocity": 110,
            "startTime": 3.79,
            "duration": 0.2
          },
          {
            "note": 42,
            "velocity": 85,
            "startTime": 3.79,
            "duration": 0.15
          },
          {
            "note": 42,
            "velocity": 75,
            "startTime": 4.21,
            "duration": 0.15
          },
          {
            "note": 38,
            "velocity": 105,
            "startTime": 4.42,
            "duration": 0.2
          },
          {
            "note": 42,
            "velocity": 85,
            "startTime": 4.42,
            "duration": 0.15
          },
          {
            "note": 42,
            "velocity": 70,
            "startTime": 4.84,
            "duration": 0.15
          },
          {
            "note": 36,
            "velocity": 110,
            "startTime": 5.05,
            "duration": 0.2
          },
          {
            "note": 42,
            "velocity": 85,
            "startTime": 5.05,
            "duration": 0.15
          },
          {
            "note": 42,
            "velocity": 75,
            "startTime": 5.47,
            "duration": 0.15
          },
          {
            "note": 38,
            "velocity": 105,
            "startTime": 5.68,
            "duration": 0.2
          },
          {
            "note": 42,
            "velocity": 85,
            "startTime": 5.68,
            "duration": 0.15
          },
          {
            "note": 42,
            "velocity": 70,
            "startTime": 6.11,
            "duration": 0.15
          },
          {
            "note": 36,
            "velocity": 110,
            "startTime": 6.32,
            "duration": 0.2
          },
          {
            "note": 42,
            "velocity": 85,
            "startTime": 6.32,
            "duration": 0.15
          },
          {
            "note": 42,
            "velocity": 75,
            "startTime": 6.74,
            "duration": 0.15
          },
          {
            "note": 38,
            "velocity": 105,
            "startTime": 6.95,
            "duration": 0.2
          },
          {
            "note": 42,
            "velocity": 85,
            "startTime": 6.95,
            "duration": 0.15
          },
          {
            "note": 42,
            "velocity": 70,
            "startTime": 7.37,
            "duration": 0.15
          },
          {
            "note": 36,
            "velocity": 110,
            "startTime": 7.58,
            "duration": 0.2
          },
          {
            "note": 42,
            "velocity": 85,
            "startTime": 7.58,
            "duration": 0.15
          },
          {
            "note": 42,
            "velocity": 75,
            "startTime": 8.0,
            "duration": 0.15
          },
          {
            "note": 38,
            "velocity": 105,
            "startTime": 8.21,
            "duration": 0.2
          },
          {
            "note": 42,
            "velocity": 85,
            "startTime": 8.21,
            "duration": 0.15
          },
          {
            "note": 42,
            "velocity": 70,
            "startTime": 8.63,
            "duration": 0.15
          },
          {
            "note": 36,
            "velocity": 110,
            "startTime": 8.84,
            "duration": 0.2
          },
          {
            "note": 42,
            "velocity": 85,
            "startTime": 8.84,
            "duration": 0.15
          },
          {
            "note": 42,
            "velocity": 75,
            "startTime": 9.26,
            "duration": 0.15
          },
          {
            "note": 38,
            "velocity": 105,
            "startTime": 9.47,
            "duration": 0.2
          },
          {
            "note": 42,
            "velocity": 85,
            "startTime": 9.47,
            "duration": 0.15
          },
          {
            "note": 42,
            "velocity": 70,
            "startTime": 9.89,
            "duration": 0.15
          },
          {
            "note": 36,
            "velocity": 110,
            "startTime": 10.1,
            "duration": 0.2
          },
          {
            "note": 42,
            "velocity": 85,
            "startTime": 10.1,
            "duration": 0.15
          },
          {
            "note": 42,
            "velocity": 75,
            "startTime": 10.53,
            "duration": 0.15
          },
          {
            "note": 38,
            "velocity": 105,
            "startTime": 10.74,
            "duration": 0.2
          },
          {
            "note": 42,
            "velocity": 85,
            "startTime": 10.74,
            "duration": 0.15
          },
          {
            "note": 42,
            "velocity": 70,
            "startTime": 11.16,
            "duration": 0.15
          },
          {
            "note": 36,
            "velocity": 110,
            "startTime": 11.37,
            "duration": 0.2
          },
          {
            "note": 42,
            "velocity": 85,
            "startTime": 11.37,
            "duration": 0.15
          },
          {
            "note": 42,
            "velocity": 75,
            "startTime": 11.79,
            "duration": 0.15
          },
          {
            "note": 38,
            "velocity": 105,
            "startTime": 12.0,
            "duration": 0.2
          },
          {
            "note": 42,
            "velocity": 85,
            "startTime": 12.0,
            "duration": 0.15
          },
          {
            "note": 42,
            "velocity": 70,
            "startTime": 12.42,
            "duration": 0.15
          },
          {
            "note": 36,
            "velocity": 110,
            "startTime": 12.63,
            "duration": 0.2
          },
          {
            "note": 49,
            "velocity": 95,
            "startTime": 12.63,
            "duration": 0.3
          },
          {
            "note": 42,
            "velocity": 75,
            "startTime": 13.05,
            "duration": 0.15
          },
          {
            "note": 38,
            "velocity": 105,
            "startTime": 13.26,
            "duration": 0.2
          },
          {
            "note": 42,
            "velocity": 85,
            "startTime": 13.26,
            "duration": 0.15
          },
          {
            "note": 42,
            "velocity": 70,
            "startTime": 13.68,
            "duration": 0.15
          },
          {
            "note": 36,
            "velocity": 110,
            "startTime": 13.9,
            "duration": 0.2
          },
          {
            "note": 42,
            "velocity": 85,
            "startTime": 13.9,
            "duration": 0.15
          },
          {
            "note": 42,
            "velocity": 75,
            "startTime": 14.32,
            "duration": 0.15
          },
          {
            "note": 38,
            "velocity": 105,
            "startTime": 14.53,
            "duration": 0.2
          },
          {
            "note": 42,
            "velocity": 85,
            "startTime": 14.53,
            "duration": 0.15
          },
          {
            "note": 42,
            "velocity": 70,
            "startTime": 14.95,
            "duration": 0.15
          },
          {
            "note": 36,
            "velocity": 110,
            "startTime": 15.16,
            "duration": 0.2
          },
          {
            "note": 42,
            "velocity": 85,
            "startTime": 15.16,
            "duration": 0.15
          },
          {
            "note": 38,
            "velocity": 105,
            "startTime": 15.79,
            "duration": 0.2
          },
          {
            "note": 42,
            "velocity": 85,
            "startTime": 15.79,
            "duration": 0.15
          },
          {
            "note": 36,
            "velocity": 115,
            "startTime": 16.42,
            "duration": 0.2
          },
          {
            "note": 49,
            "velocity": 100,
            "startTime": 16.42,
            "duration": 0.3
          },
          {
            "note": 38,
            "velocity": 105,
            "startTime": 17.05,
            "duration": 0.2
          },
          {
            "note": 42,
            "velocity": 85,
            "startTime": 17.05,
            "duration": 0.15
          },
          {
            "note": 36,
            "velocity": 110,
            "startTime": 17.68,
            "duration": 0.2
          },
          {
            "note": 42,
            "velocity": 85,
            "startTime": 17.68,
            "duration": 0.15
          },
          {
            "note": 42,
            "velocity": 75,
            "startTime": 18.11,
            "duration": 0.15
          },
          {
            "note": 38,
            "velocity": 105,
            "startTime": 18.32,
            "duration": 0.2
          },
          {
            "note": 42,
            "velocity": 85,
            "startTime": 18.32,
            "duration": 0.15
          },
          {
            "note": 42,
            "velocity": 70,
            "startTime": 18.74,
            "duration": 0.15
          },
          {
            "note": 36,
            "velocity": 110,
            "startTime": 18.95,
            "duration": 0.2
          },
          {
            "note": 42,
            "velocity": 85,
            "startTime": 18.95,
            "duration": 0.15
          },
          {
            "note": 42,
            "velocity": 75,
            "startTime": 19.37,
            "duration": 0.15
          },
          {
            "note": 38,
            "velocity": 105,
            "startTime": 19.58,
            "duration": 0.2
          },
          {
            "note": 42,
            "velocity": 85,
            "startTime": 19.58,
            "duration": 0.15
          },
          {
            "note": 42,
            "velocity": 70,
            "startTime": 20.0,
            "duration": 0.15
          },
          {
            "note": 36,
            "velocity": 110,
            "startTime": 20.21,
            "duration": 0.2
          },
          {
            "note": 42,
            "velocity": 85,
            "startTime": 20.21,
            "duration": 0.15
          },
          {
            "note": 42,
            "velocity": 75,
            "startTime": 20.63,
            "duration": 0.15
          },
          {
            "note": 38,
            "velocity": 105,
            "startTime": 20.84,
            "duration": 0.2
          },
          {
            "note": 42,
            "velocity": 85,
            "startTime": 20.84,
            "duration": 0.15
          },
          {
            "note": 42,
            "velocity": 70,
            "startTime": 21.26,
            "duration": 0.15
          },
          {
            "note": 36,
            "velocity": 110,
            "startTime": 21.47,
            "duration": 0.2
          },
          {
            "note": 42,
            "velocity": 85,
            "startTime": 21.47,
            "duration": 0.15
          },
          {
            "note": 42,
            "velocity": 75,
            "startTime": 21.89,
            "duration": 0.15
          },
          {
            "note": 38,
            "velocity": 105,
            "startTime": 22.11,
            "duration": 0.2
          },
          {
            "note": 42,
            "velocity": 85,
            "startTime": 22.11,
            "duration": 0.15
          },
          {
            "note": 42,
            "velocity": 70,
            "startTime": 22.53,
            "duration": 0.15
          },
          {
            "note": 36,
            "velocity": 110,
            "startTime": 22.74,
            "duration": 0.2
          },
          {
            "note": 42,
            "velocity": 85,
            "startTime": 22.74,
            "duration": 0.15
          },
          {
            "note": 42,
            "velocity": 75,
            "startTime": 23.16,
            "duration": 0.15
          },
          {
            "note": 38,
            "velocity": 105,
            "startTime": 23.37,
            "duration": 0.2
          },
          {
            "note": 42,
            "velocity": 85,
            "startTime": 23.37,
            "duration": 0.15
          },
          {
            "note": 42,
            "velocity": 70,
            "startTime": 23.79,
            "duration": 0.15
          },
          {
            "note": 36,
            "velocity": 110,
            "startTime": 24.0,
            "duration": 0.2
          },
          {
            "note": 42,
            "velocity": 85,
            "startTime": 24.0,
            "duration": 0.15
          },
          {
            "note": 42,
            "velocity": 75,
            "startTime": 24.42,
            "duration": 0.15
          },
          {
            "note": 38,
            "velocity": 105,
            "startTime": 24.63,
            "duration": 0.2
          },
          {
            "note": 42,
            "velocity": 85,
            "startTime": 24.63,
            "duration": 0.15
          },
          {
            "note": 42,
            "velocity": 70,
            "startTime": 25.05,
            "duration": 0.15
          },
          {
            "note": 36,
            "velocity": 110,
            "startTime": 25.26,
            "duration": 0.2
          },
          {
            "note": 42,
            "velocity": 85,
            "startTime": 25.26,
            "duration": 0.15
          },
          {
            "note": 42,
            "velocity": 75,
            "startTime": 25.68,
            "duration": 0.15
          },
          {
            "note": 38,
            "velocity": 105,
            "startTime": 25.9,
            "duration": 0.2
          },
          {
            "note": 42,
            "velocity": 85,
            "startTime": 25.9,
            "duration": 0.15
          },
          {
            "note": 42,
            "velocity": 70,
            "startTime": 26.32,
            "duration": 0.15
          },
          {
            "note": 36,
            "velocity": 110,
            "startTime": 26.53,
            "duration": 0.2
          },
          {
            "note": 42,
            "velocity": 85,
            "startTime": 26.53,
            "duration": 0.15
          },
          {
            "note": 42,
            "velocity": 75,
            "startTime": 26.95,
            "duration": 0.15
          },
          {
            "note": 38,
            "velocity": 105,
            "startTime": 27.16,
            "duration": 0.2
          },
          {
            "note": 42,
            "velocity": 85,
            "startTime": 27.16,
            "duration": 0.15
          },
          {
            "note": 42,
            "velocity": 70,
            "startTime": 27.58,
            "duration": 0.15
          },
          {
            "note": 36,
            "velocity": 110,
            "startTime": 27.79,
            "duration": 0.2
          },
          {
            "note": 49,
            "velocity": 95,
            "startTime": 27.79,
            "duration": 0.3
          },
          {
            "note": 42,
            "velocity": 75,
            "startTime": 28.21,
            "duration": 0.15
          },
          {
            "note": 38,
            "velocity": 105,
            "startTime": 28.42,
            "duration": 0.2
          },
          {
            "note": 42,
            "velocity": 85,
            "startTime": 28.42,
            "duration": 0.15
          },
          {
            "note": 42,
            "velocity": 70,
            "startTime": 28.84,
            "duration": 0.15
          },
          {
            "note": 36,
            "velocity": 110,
            "startTime": 29.05,
            "duration": 0.2
          },
          {
            "note": 42,
            "velocity": 85,
            "startTime": 29.05,
            "duration": 0.15
          },
          {
            "note": 42,
            "velocity": 75,
            "startTime": 29.47,
            "duration": 0.15
          },
          {
            "note": 38,
            "velocity": 105,
            "startTime": 29.68,
            "duration": 0.2
          },
          {
            "note": 42,
            "velocity": 85,
            "startTime": 29.68,
            "duration": 0.15
          },
          {
            "note": 42,
            "velocity": 70,
            "startTime": 30.11,
            "duration": 0.15
          },
          {
            "note": 36,
            "velocity": 110,
            "startTime": 30.32,
            "duration": 0.2
          },
          {
            "note": 42,
            "velocity": 85,
            "startTime": 30.32,
            "duration": 0.15
          },
          {
            "note": 38,
            "velocity": 105,
            "startTime": 30.95,
            "duration": 0.2
          },
          {
            "note": 42,
            "velocity": 85,
            "startTime": 30.95,
            "duration": 0.15
          },
          {
            "note": 36,
            "velocity": 115,
            "startTime": 31.58,
            "duration": 0.2
          },
          {
            "note": 49,
            "velocity": 100,
            "startTime": 31.58,
            "duration": 0.3
          },
          {
            "note": 38,
            "velocity": 105,
            "startTime": 32.21,
            "duration": 0.2
          },
          {
            "note": 42,
            "velocity": 85,
            "startTime": 32.21,
            "duration": 0.15
          },
          {
            "note": 36,
            "velocity": 110,
            "startTime": 32.84,
            "duration": 0.2
          },
          {
            "note": 42,
            "velocity": 85,
            "startTime": 32.84,
            "duration": 0.15
          },
          {
            "note": 42,
            "velocity": 75,
            "startTime": 33.26,
            "duration": 0.15
          },
          {
            "note": 38,
            "velocity": 105,
            "startTime": 33.47,
            "duration": 0.2
          },
          {
            "note": 42,
            "velocity": 85,
            "startTime": 33.47,
            "duration": 0.15
          },
          {
            "note": 42,
            "velocity": 70,
            "startTime": 33.89,
            "duration": 0.15
          },
          {
            "note": 36,
            "velocity": 110,
            "startTime": 34.11,
            "duration": 0.2
          },
          {
            "note": 42,
            "velocity": 85,
            "startTime": 34.11,
            "duration": 0.15
          },
          {
            "note": 42,
            "velocity": 75,
            "startTime": 34.53,
            "duration": 0.15
          },
          {
            "note": 38,
            "velocity": 105,
            "startTime": 34.74,
            "duration": 0.2
          },
          {
            "note": 42,
            "velocity": 85,
            "startTime": 34.74,
            "duration": 0.15
          },
          {
            "note": 42,
            "velocity": 70,
            "startTime": 35.16,
            "duration": 0.15
          },
          {
            "note": 36,
            "velocity": 110,
            "startTime": 35.37,
            "duration": 0.2
          },
          {
            "note": 42,
            "velocity": 85,
            "startTime": 35.37,
            "duration": 0.15
          },
          {
            "note": 42,
            "velocity": 75,
            "startTime": 35.79,
            "duration": 0.15
          },
          {
            "note": 38,
            "velocity": 105,
            "startTime": 36.0,
            "duration": 0.2
          },
          {
            "note": 42,
            "velocity": 85,
            "startTime": 36.0,
            "duration": 0.15
          },
          {
            "note": 42,
            "velocity": 70,
            "startTime": 36.42,
            "duration": 0.15
          },
          {
            "note": 36,
            "velocity": 110,
            "startTime": 36.63,
            "duration": 0.2
          },
          {
            "note": 42,
            "velocity": 85,
            "startTime": 36.63,
            "duration": 0.15
          },
          {
            "note": 42,
            "velocity": 75,
            "startTime": 37.05,
            "duration": 0.15
          },
          {
            "note": 38,
            "velocity": 105,
            "startTime": 37.26,
            "duration": 0.2
          },
          {
            "note": 42,
            "velocity": 85,
            "startTime": 37.26,
            "duration": 0.15
          },
          {
            "note": 42,
            "velocity": 70,
            "startTime": 37.68,
            "duration": 0.15
          },
          {
            "note": 36,
            "velocity": 110,
            "startTime": 37.9,
            "duration": 0.2
          },
          {
            "note": 42,
            "velocity": 85,
            "startTime": 37.9,
            "duration": 0.15
          },
          {
            "note": 42,
            "velocity": 75,
            "startTime": 38.32,
            "duration": 0.15
          },
          {
            "note": 38,
            "velocity": 105,
            "startTime": 38.53,
            "duration": 0.2
          },
          {
            "note": 42,
            "velocity": 85,
            "startTime": 38.53,
            "duration": 0.15
          },
          {
            "note": 42,
            "velocity": 70,
            "startTime": 38.95,
            "duration": 0.15
          },
          {
            "note": 36,
            "velocity": 110,
            "startTime": 39.16,
            "duration": 0.2
          },
          {
            "note": 42,
            "velocity": 85,
            "startTime": 39.16,
            "duration": 0.15
          },
          {
            "note": 42,
            "velocity": 75,
            "startTime": 39.58,
            "duration": 0.15
          },
          {
            "note": 38,
            "velocity": 105,
            "startTime": 39.79,
            "duration": 0.2
          },
          {
            "note": 42,
            "velocity": 85,
            "startTime": 39.79,
            "duration": 0.15
          },
          {
            "note": 42,
            "velocity": 70,
            "startTime": 40.21,
            "duration": 0.15
          },
          {
            "note": 36,
            "velocity": 110,
            "startTime": 40.42,
            "duration": 0.2
          },
          {
            "note": 42,
            "velocity": 85,
            "startTime": 40.42,
            "duration": 0.15
          },
          {
            "note": 38,
            "velocity": 105,
            "startTime": 41.05,
            "duration": 0.2
          },
          {
            "note": 42,
            "velocity": 85,
            "startTime": 41.05,
            "duration": 0.15
          },
          {
            "note": 36,
            "velocity": 115,
            "startTime": 41.68,
            "duration": 0.2
          },
          {
            "note": 49,
            "velocity": 100,
            "startTime": 41.68,
            "duration": 0.3
          },
          {
            "note": 38,
            "velocity": 105,
            "startTime": 42.32,
            "duration": 0.2
          },
          {
            "note": 42,
            "velocity": 85,
            "startTime": 42.32,
            "duration": 0.15
          },
          {
            "note": 36,
            "velocity": 110,
            "startTime": 42.95,
            "duration": 0.2
          },
          {
            "note": 42,
            "velocity": 85,
            "startTime": 42.95,
            "duration": 0.15
          },
          {
            "note": 38,
            "velocity": 110,
            "startTime": 43.58,
            "duration": 0.2
          },
          {
            "note": 36,
            "velocity": 120,
            "startTime": 43.58,
            "duration": 0.3
          },
          {
            "note": 49,
            "velocity": 110,
            "startTime": 43.58,
            "duration": 0.4
          },
          {
            "note": 38,
            "velocity": 100,
            "startTime": 44.21,
            "duration": 0.2
          },
          {
            "note": 36,
            "velocity": 110,
            "startTime": 44.42,
            "duration": 0.4
          }
        ]
      }
    ],
    "key": "E",
    "bpm": 95,
    "scale": "blues"
  },
  {
    "genre": "reggae",
    "mode": "focus",
    "tracks": [
      {
        "name": "Nylon Guitar Melody",
        "program": 24,
        "role": "melody",
        "totalDuration": 45,
        "notes": [
          {
            "note": 67,
            "velocity": 70,
            "startTime": 0,
            "duration": 1.5
          },
          {
            "note": 71,
            "velocity": 65,
            "startTime": 1.54,
            "duration": 1.2
          },
          {
            "note": 74,
            "velocity": 68,
            "startTime": 3.08,
            "duration": 1.0
          },
          {
            "note": 72,
            "velocity": 62,
            "startTime": 4.62,
            "duration": 1.5
          },
          {
            "note": 71,
            "velocity": 66,
            "startTime": 6.15,
            "duration": 0.8
          },
          {
            "note": 69,
            "velocity": 60,
            "startTime": 7.69,
            "duration": 1.5
          },
          {
            "note": 67,
            "velocity": 64,
            "startTime": 9.23,
            "duration": 2.0
          },
          {
            "note": 66,
            "velocity": 58,
            "startTime": 11.54,
            "duration": 0.8
          },
          {
            "note": 67,
            "velocity": 70,
            "startTime": 12.31,
            "duration": 1.5
          },
          {
            "note": 71,
            "velocity": 67,
            "startTime": 14.62,
            "duration": 1.2
          },
          {
            "note": 74,
            "velocity": 72,
            "startTime": 16.15,
            "duration": 1.0
          },
          {
            "note": 76,
            "velocity": 65,
            "startTime": 17.69,
            "duration": 1.5
          },
          {
            "note": 74,
            "velocity": 60,
            "startTime": 19.23,
            "duration": 1.2
          },
          {
            "note": 72,
            "velocity": 63,
            "startTime": 21.54,
            "duration": 1.5
          },
          {
            "note": 71,
            "velocity": 58,
            "startTime": 23.08,
            "duration": 2.0
          },
          {
            "note": 69,
            "velocity": 62,
            "startTime": 25.38,
            "duration": 1.0
          },
          {
            "note": 67,
            "velocity": 66,
            "startTime": 26.92,
            "duration": 1.5
          },
          {
            "note": 71,
            "velocity": 70,
            "startTime": 28.46,
            "duration": 1.2
          },
          {
            "note": 74,
            "velocity": 68,
            "startTime": 30.0,
            "duration": 1.5
          },
          {
            "note": 76,
            "velocity": 64,
            "startTime": 31.54,
            "duration": 1.0
          },
          {
            "note": 79,
            "velocity": 72,
            "startTime": 33.08,
            "duration": 1.5
          },
          {
            "note": 78,
            "velocity": 60,
            "startTime": 34.62,
            "duration": 0.8
          },
          {
            "note": 76,
            "velocity": 65,
            "startTime": 35.77,
            "duration": 1.2
          },
          {
            "note": 74,
            "velocity": 62,
            "startTime": 37.31,
            "duration": 1.5
          },
          {
            "note": 72,
            "velocity": 58,
            "startTime": 38.85,
            "duration": 1.2
          },
          {
            "note": 71,
            "velocity": 64,
            "startTime": 40.38,
            "duration": 1.5
          },
          {
            "note": 69,
            "velocity": 55,
            "startTime": 41.92,
            "duration": 1.0
          },
          {
            "note": 67,
            "velocity": 60,
            "startTime": 43.08,
            "duration": 1.92
          }
        ]
      },
      {
        "name": "Reggae Bass",
        "program": 33,
        "role": "bass",
        "totalDuration": 45,
        "notes": [
          {
            "note": 43,
            "velocity": 85,
            "startTime": 0,
            "duration": 1.2
          },
          {
            "note": 43,
            "velocity": 80,
            "startTime": 1.54,
            "duration": 0.6
          },
          {
            "note": 47,
            "velocity": 82,
            "startTime": 2.31,
            "duration": 1.0
          },
          {
            "note": 43,
            "velocity": 78,
            "startTime": 3.85,
            "duration": 1.2
          },
          {
            "note": 40,
            "velocity": 80,
            "startTime": 5.38,
            "duration": 1.0
          },
          {
            "note": 38,
            "velocity": 75,
            "startTime": 6.92,
            "duration": 1.5
          },
          {
            "note": 43,
            "velocity": 82,
            "startTime": 8.46,
            "duration": 1.0
          },
          {
            "note": 45,
            "velocity": 78,
            "startTime": 10.0,
            "duration": 0.8
          },
          {
            "note": 43,
            "velocity": 80,
            "startTime": 11.15,
            "duration": 1.2
          },
          {
            "note": 47,
            "velocity": 82,
            "startTime": 12.31,
            "duration": 1.0
          },
          {
            "note": 43,
            "velocity": 85,
            "startTime": 13.85,
            "duration": 1.2
          },
          {
            "note": 40,
            "velocity": 78,
            "startTime": 15.38,
            "duration": 1.0
          },
          {
            "note": 38,
            "velocity": 75,
            "startTime": 16.92,
            "duration": 1.5
          },
          {
            "note": 43,
            "velocity": 80,
            "startTime": 18.46,
            "duration": 1.0
          },
          {
            "note": 45,
            "velocity": 78,
            "startTime": 20.0,
            "duration": 0.8
          },
          {
            "note": 47,
            "velocity": 82,
            "startTime": 21.15,
            "duration": 1.2
          },
          {
            "note": 43,
            "velocity": 80,
            "startTime": 23.08,
            "duration": 1.0
          },
          {
            "note": 40,
            "velocity": 85,
            "startTime": 24.62,
            "duration": 1.2
          },
          {
            "note": 38,
            "velocity": 78,
            "startTime": 26.15,
            "duration": 1.5
          },
          {
            "note": 43,
            "velocity": 82,
            "startTime": 27.69,
            "duration": 1.0
          },
          {
            "note": 45,
            "velocity": 78,
            "startTime": 29.23,
            "duration": 0.8
          },
          {
            "note": 43,
            "velocity": 80,
            "startTime": 30.77,
            "duration": 1.2
          },
          {
            "note": 47,
            "velocity": 82,
            "startTime": 32.31,
            "duration": 1.0
          },
          {
            "note": 43,
            "velocity": 85,
            "startTime": 33.85,
            "duration": 1.2
          },
          {
            "note": 40,
            "velocity": 78,
            "startTime": 35.38,
            "duration": 1.0
          },
          {
            "note": 38,
            "velocity": 75,
            "startTime": 36.92,
            "duration": 1.5
          },
          {
            "note": 43,
            "velocity": 80,
            "startTime": 38.46,
            "duration": 1.0
          },
          {
            "note": 45,
            "velocity": 78,
            "startTime": 40.0,
            "duration": 0.8
          },
          {
            "note": 43,
            "velocity": 82,
            "startTime": 41.54,
            "duration": 1.2
          },
          {
            "note": 43,
            "velocity": 75,
            "startTime": 43.46,
            "duration": 1.54
          }
        ]
      },
      {
        "name": "Offbeat Skank Chords",
        "program": 24,
        "role": "chords",
        "totalDuration": 45,
        "notes": [
          {
            "note": 59,
            "velocity": 50,
            "startTime": 0.38,
            "duration": 0.3
          },
          {
            "note": 62,
            "velocity": 50,
            "startTime": 0.38,
            "duration": 0.3
          },
          {
            "note": 67,
            "velocity": 50,
            "startTime": 0.38,
            "duration": 0.3
          },
          {
            "note": 59,
            "velocity": 48,
            "startTime": 1.15,
            "duration": 0.3
          },
          {
            "note": 62,
            "velocity": 48,
            "startTime": 1.15,
            "duration": 0.3
          },
          {
            "note": 67,
            "velocity": 48,
            "startTime": 1.15,
            "duration": 0.3
          },
          {
            "note": 59,
            "velocity": 50,
            "startTime": 1.92,
            "duration": 0.3
          },
          {
            "note": 62,
            "velocity": 50,
            "startTime": 1.92,
            "duration": 0.3
          },
          {
            "note": 67,
            "velocity": 50,
            "startTime": 1.92,
            "duration": 0.3
          },
          {
            "note": 59,
            "velocity": 48,
            "startTime": 2.69,
            "duration": 0.3
          },
          {
            "note": 62,
            "velocity": 48,
            "startTime": 2.69,
            "duration": 0.3
          },
          {
            "note": 67,
            "velocity": 48,
            "startTime": 2.69,
            "duration": 0.3
          },
          {
            "note": 60,
            "velocity": 50,
            "startTime": 3.46,
            "duration": 0.3
          },
          {
            "note": 64,
            "velocity": 50,
            "startTime": 3.46,
            "duration": 0.3
          },
          {
            "note": 67,
            "velocity": 50,
            "startTime": 3.46,
            "duration": 0.3
          },
          {
            "note": 60,
            "velocity": 48,
            "startTime": 4.23,
            "duration": 0.3
          },
          {
            "note": 64,
            "velocity": 48,
            "startTime": 4.23,
            "duration": 0.3
          },
          {
            "note": 67,
            "velocity": 48,
            "startTime": 4.23,
            "duration": 0.3
          },
          {
            "note": 60,
            "velocity": 50,
            "startTime": 5.0,
            "duration": 0.3
          },
          {
            "note": 64,
            "velocity": 50,
            "startTime": 5.0,
            "duration": 0.3
          },
          {
            "note": 67,
            "velocity": 50,
            "startTime": 5.0,
            "duration": 0.3
          },
          {
            "note": 60,
            "velocity": 48,
            "startTime": 5.77,
            "duration": 0.3
          },
          {
            "note": 64,
            "velocity": 48,
            "startTime": 5.77,
            "duration": 0.3
          },
          {
            "note": 67,
            "velocity": 48,
            "startTime": 5.77,
            "duration": 0.3
          },
          {
            "note": 57,
            "velocity": 50,
            "startTime": 6.54,
            "duration": 0.3
          },
          {
            "note": 60,
            "velocity": 50,
            "startTime": 6.54,
            "duration": 0.3
          },
          {
            "note": 64,
            "velocity": 50,
            "startTime": 6.54,
            "duration": 0.3
          },
          {
            "note": 57,
            "velocity": 48,
            "startTime": 7.31,
            "duration": 0.3
          },
          {
            "note": 60,
            "velocity": 48,
            "startTime": 7.31,
            "duration": 0.3
          },
          {
            "note": 64,
            "velocity": 48,
            "startTime": 7.31,
            "duration": 0.3
          },
          {
            "note": 57,
            "velocity": 50,
            "startTime": 8.08,
            "duration": 0.3
          },
          {
            "note": 60,
            "velocity": 50,
            "startTime": 8.08,
            "duration": 0.3
          },
          {
            "note": 64,
            "velocity": 50,
            "startTime": 8.08,
            "duration": 0.3
          },
          {
            "note": 57,
            "velocity": 48,
            "startTime": 8.85,
            "duration": 0.3
          },
          {
            "note": 60,
            "velocity": 48,
            "startTime": 8.85,
            "duration": 0.3
          },
          {
            "note": 64,
            "velocity": 48,
            "startTime": 8.85,
            "duration": 0.3
          },
          {
            "note": 55,
            "velocity": 50,
            "startTime": 9.62,
            "duration": 0.3
          },
          {
            "note": 59,
            "velocity": 50,
            "startTime": 9.62,
            "duration": 0.3
          },
          {
            "note": 62,
            "velocity": 50,
            "startTime": 9.62,
            "duration": 0.3
          },
          {
            "note": 55,
            "velocity": 48,
            "startTime": 10.38,
            "duration": 0.3
          },
          {
            "note": 59,
            "velocity": 48,
            "startTime": 10.38,
            "duration": 0.3
          },
          {
            "note": 62,
            "velocity": 48,
            "startTime": 10.38,
            "duration": 0.3
          },
          {
            "note": 55,
            "velocity": 50,
            "startTime": 11.15,
            "duration": 0.3
          },
          {
            "note": 59,
            "velocity": 50,
            "startTime": 11.15,
            "duration": 0.3
          },
          {
            "note": 62,
            "velocity": 50,
            "startTime": 11.15,
            "duration": 0.3
          },
          {
            "note": 55,
            "velocity": 48,
            "startTime": 11.92,
            "duration": 0.3
          },
          {
            "note": 59,
            "velocity": 48,
            "startTime": 11.92,
            "duration": 0.3
          },
          {
            "note": 62,
            "velocity": 48,
            "startTime": 11.92,
            "duration": 0.3
          },
          {
            "note": 59,
            "velocity": 50,
            "startTime": 12.69,
            "duration": 0.3
          },
          {
            "note": 62,
            "velocity": 50,
            "startTime": 12.69,
            "duration": 0.3
          },
          {
            "note": 67,
            "velocity": 50,
            "startTime": 12.69,
            "duration": 0.3
          },
          {
            "note": 59,
            "velocity": 48,
            "startTime": 13.46,
            "duration": 0.3
          },
          {
            "note": 62,
            "velocity": 48,
            "startTime": 13.46,
            "duration": 0.3
          },
          {
            "note": 67,
            "velocity": 48,
            "startTime": 13.46,
            "duration": 0.3
          },
          {
            "note": 59,
            "velocity": 50,
            "startTime": 14.23,
            "duration": 0.3
          },
          {
            "note": 62,
            "velocity": 50,
            "startTime": 14.23,
            "duration": 0.3
          },
          {
            "note": 67,
            "velocity": 50,
            "startTime": 14.23,
            "duration": 0.3
          },
          {
            "note": 59,
            "velocity": 48,
            "startTime": 15.0,
            "duration": 0.3
          },
          {
            "note": 62,
            "velocity": 48,
            "startTime": 15.0,
            "duration": 0.3
          },
          {
            "note": 67,
            "velocity": 48,
            "startTime": 15.0,
            "duration": 0.3
          },
          {
            "note": 60,
            "velocity": 50,
            "startTime": 15.77,
            "duration": 0.3
          },
          {
            "note": 64,
            "velocity": 50,
            "startTime": 15.77,
            "duration": 0.3
          },
          {
            "note": 67,
            "velocity": 50,
            "startTime": 15.77,
            "duration": 0.3
          },
          {
            "note": 60,
            "velocity": 48,
            "startTime": 16.54,
            "duration": 0.3
          },
          {
            "note": 64,
            "velocity": 48,
            "startTime": 16.54,
            "duration": 0.3
          },
          {
            "note": 67,
            "velocity": 48,
            "startTime": 16.54,
            "duration": 0.3
          },
          {
            "note": 60,
            "velocity": 50,
            "startTime": 17.31,
            "duration": 0.3
          },
          {
            "note": 64,
            "velocity": 50,
            "startTime": 17.31,
            "duration": 0.3
          },
          {
            "note": 67,
            "velocity": 50,
            "startTime": 17.31,
            "duration": 0.3
          },
          {
            "note": 60,
            "velocity": 48,
            "startTime": 18.08,
            "duration": 0.3
          },
          {
            "note": 64,
            "velocity": 48,
            "startTime": 18.08,
            "duration": 0.3
          },
          {
            "note": 67,
            "velocity": 48,
            "startTime": 18.08,
            "duration": 0.3
          },
          {
            "note": 57,
            "velocity": 50,
            "startTime": 18.85,
            "duration": 0.3
          },
          {
            "note": 60,
            "velocity": 50,
            "startTime": 18.85,
            "duration": 0.3
          },
          {
            "note": 64,
            "velocity": 50,
            "startTime": 18.85,
            "duration": 0.3
          },
          {
            "note": 57,
            "velocity": 48,
            "startTime": 19.62,
            "duration": 0.3
          },
          {
            "note": 60,
            "velocity": 48,
            "startTime": 19.62,
            "duration": 0.3
          },
          {
            "note": 64,
            "velocity": 48,
            "startTime": 19.62,
            "duration": 0.3
          },
          {
            "note": 57,
            "velocity": 50,
            "startTime": 20.38,
            "duration": 0.3
          },
          {
            "note": 60,
            "velocity": 50,
            "startTime": 20.38,
            "duration": 0.3
          },
          {
            "note": 64,
            "velocity": 50,
            "startTime": 20.38,
            "duration": 0.3
          },
          {
            "note": 57,
            "velocity": 48,
            "startTime": 21.15,
            "duration": 0.3
          },
          {
            "note": 60,
            "velocity": 48,
            "startTime": 21.15,
            "duration": 0.3
          },
          {
            "note": 64,
            "velocity": 48,
            "startTime": 21.15,
            "duration": 0.3
          },
          {
            "note": 55,
            "velocity": 50,
            "startTime": 21.92,
            "duration": 0.3
          },
          {
            "note": 59,
            "velocity": 50,
            "startTime": 21.92,
            "duration": 0.3
          },
          {
            "note": 62,
            "velocity": 50,
            "startTime": 21.92,
            "duration": 0.3
          },
          {
            "note": 55,
            "velocity": 48,
            "startTime": 22.69,
            "duration": 0.3
          },
          {
            "note": 59,
            "velocity": 48,
            "startTime": 22.69,
            "duration": 0.3
          },
          {
            "note": 62,
            "velocity": 48,
            "startTime": 22.69,
            "duration": 0.3
          },
          {
            "note": 55,
            "velocity": 50,
            "startTime": 23.46,
            "duration": 0.3
          },
          {
            "note": 59,
            "velocity": 50,
            "startTime": 23.46,
            "duration": 0.3
          },
          {
            "note": 62,
            "velocity": 50,
            "startTime": 23.46,
            "duration": 0.3
          },
          {
            "note": 55,
            "velocity": 48,
            "startTime": 24.23,
            "duration": 0.3
          },
          {
            "note": 59,
            "velocity": 48,
            "startTime": 24.23,
            "duration": 0.3
          },
          {
            "note": 62,
            "velocity": 48,
            "startTime": 24.23,
            "duration": 0.3
          },
          {
            "note": 59,
            "velocity": 50,
            "startTime": 25.0,
            "duration": 0.3
          },
          {
            "note": 62,
            "velocity": 50,
            "startTime": 25.0,
            "duration": 0.3
          },
          {
            "note": 67,
            "velocity": 50,
            "startTime": 25.0,
            "duration": 0.3
          },
          {
            "note": 59,
            "velocity": 48,
            "startTime": 25.77,
            "duration": 0.3
          },
          {
            "note": 62,
            "velocity": 48,
            "startTime": 25.77,
            "duration": 0.3
          },
          {
            "note": 67,
            "velocity": 48,
            "startTime": 25.77,
            "duration": 0.3
          },
          {
            "note": 59,
            "velocity": 50,
            "startTime": 26.54,
            "duration": 0.3
          },
          {
            "note": 62,
            "velocity": 50,
            "startTime": 26.54,
            "duration": 0.3
          },
          {
            "note": 67,
            "velocity": 50,
            "startTime": 26.54,
            "duration": 0.3
          },
          {
            "note": 59,
            "velocity": 48,
            "startTime": 27.31,
            "duration": 0.3
          },
          {
            "note": 62,
            "velocity": 48,
            "startTime": 27.31,
            "duration": 0.3
          },
          {
            "note": 67,
            "velocity": 48,
            "startTime": 27.31,
            "duration": 0.3
          },
          {
            "note": 60,
            "velocity": 50,
            "startTime": 28.08,
            "duration": 0.3
          },
          {
            "note": 64,
            "velocity": 50,
            "startTime": 28.08,
            "duration": 0.3
          },
          {
            "note": 67,
            "velocity": 50,
            "startTime": 28.08,
            "duration": 0.3
          },
          {
            "note": 60,
            "velocity": 48,
            "startTime": 28.85,
            "duration": 0.3
          },
          {
            "note": 64,
            "velocity": 48,
            "startTime": 28.85,
            "duration": 0.3
          },
          {
            "note": 67,
            "velocity": 48,
            "startTime": 28.85,
            "duration": 0.3
          },
          {
            "note": 60,
            "velocity": 50,
            "startTime": 29.62,
            "duration": 0.3
          },
          {
            "note": 64,
            "velocity": 50,
            "startTime": 29.62,
            "duration": 0.3
          },
          {
            "note": 67,
            "velocity": 50,
            "startTime": 29.62,
            "duration": 0.3
          },
          {
            "note": 60,
            "velocity": 48,
            "startTime": 30.38,
            "duration": 0.3
          },
          {
            "note": 64,
            "velocity": 48,
            "startTime": 30.38,
            "duration": 0.3
          },
          {
            "note": 67,
            "velocity": 48,
            "startTime": 30.38,
            "duration": 0.3
          },
          {
            "note": 57,
            "velocity": 50,
            "startTime": 31.15,
            "duration": 0.3
          },
          {
            "note": 60,
            "velocity": 50,
            "startTime": 31.15,
            "duration": 0.3
          },
          {
            "note": 64,
            "velocity": 50,
            "startTime": 31.15,
            "duration": 0.3
          },
          {
            "note": 57,
            "velocity": 48,
            "startTime": 31.92,
            "duration": 0.3
          },
          {
            "note": 60,
            "velocity": 48,
            "startTime": 31.92,
            "duration": 0.3
          },
          {
            "note": 64,
            "velocity": 48,
            "startTime": 31.92,
            "duration": 0.3
          },
          {
            "note": 57,
            "velocity": 50,
            "startTime": 32.69,
            "duration": 0.3
          },
          {
            "note": 60,
            "velocity": 50,
            "startTime": 32.69,
            "duration": 0.3
          },
          {
            "note": 64,
            "velocity": 50,
            "startTime": 32.69,
            "duration": 0.3
          },
          {
            "note": 57,
            "velocity": 48,
            "startTime": 33.46,
            "duration": 0.3
          },
          {
            "note": 60,
            "velocity": 48,
            "startTime": 33.46,
            "duration": 0.3
          },
          {
            "note": 64,
            "velocity": 48,
            "startTime": 33.46,
            "duration": 0.3
          },
          {
            "note": 55,
            "velocity": 50,
            "startTime": 34.23,
            "duration": 0.3
          },
          {
            "note": 59,
            "velocity": 50,
            "startTime": 34.23,
            "duration": 0.3
          },
          {
            "note": 62,
            "velocity": 50,
            "startTime": 34.23,
            "duration": 0.3
          },
          {
            "note": 55,
            "velocity": 48,
            "startTime": 35.0,
            "duration": 0.3
          },
          {
            "note": 59,
            "velocity": 48,
            "startTime": 35.0,
            "duration": 0.3
          },
          {
            "note": 62,
            "velocity": 48,
            "startTime": 35.0,
            "duration": 0.3
          },
          {
            "note": 55,
            "velocity": 50,
            "startTime": 35.77,
            "duration": 0.3
          },
          {
            "note": 59,
            "velocity": 50,
            "startTime": 35.77,
            "duration": 0.3
          },
          {
            "note": 62,
            "velocity": 50,
            "startTime": 35.77,
            "duration": 0.3
          },
          {
            "note": 55,
            "velocity": 48,
            "startTime": 36.54,
            "duration": 0.3
          },
          {
            "note": 59,
            "velocity": 48,
            "startTime": 36.54,
            "duration": 0.3
          },
          {
            "note": 62,
            "velocity": 48,
            "startTime": 36.54,
            "duration": 0.3
          },
          {
            "note": 59,
            "velocity": 50,
            "startTime": 37.31,
            "duration": 0.3
          },
          {
            "note": 62,
            "velocity": 50,
            "startTime": 37.31,
            "duration": 0.3
          },
          {
            "note": 67,
            "velocity": 50,
            "startTime": 37.31,
            "duration": 0.3
          },
          {
            "note": 59,
            "velocity": 48,
            "startTime": 38.08,
            "duration": 0.3
          },
          {
            "note": 62,
            "velocity": 48,
            "startTime": 38.08,
            "duration": 0.3
          },
          {
            "note": 67,
            "velocity": 48,
            "startTime": 38.08,
            "duration": 0.3
          },
          {
            "note": 59,
            "velocity": 50,
            "startTime": 38.85,
            "duration": 0.3
          },
          {
            "note": 62,
            "velocity": 50,
            "startTime": 38.85,
            "duration": 0.3
          },
          {
            "note": 67,
            "velocity": 50,
            "startTime": 38.85,
            "duration": 0.3
          },
          {
            "note": 59,
            "velocity": 48,
            "startTime": 39.62,
            "duration": 0.3
          },
          {
            "note": 62,
            "velocity": 48,
            "startTime": 39.62,
            "duration": 0.3
          },
          {
            "note": 67,
            "velocity": 48,
            "startTime": 39.62,
            "duration": 0.3
          },
          {
            "note": 60,
            "velocity": 50,
            "startTime": 40.38,
            "duration": 0.3
          },
          {
            "note": 64,
            "velocity": 50,
            "startTime": 40.38,
            "duration": 0.3
          },
          {
            "note": 67,
            "velocity": 50,
            "startTime": 40.38,
            "duration": 0.3
          },
          {
            "note": 60,
            "velocity": 48,
            "startTime": 41.15,
            "duration": 0.3
          },
          {
            "note": 64,
            "velocity": 48,
            "startTime": 41.15,
            "duration": 0.3
          },
          {
            "note": 67,
            "velocity": 48,
            "startTime": 41.15,
            "duration": 0.3
          },
          {
            "note": 55,
            "velocity": 50,
            "startTime": 41.92,
            "duration": 0.3
          },
          {
            "note": 59,
            "velocity": 50,
            "startTime": 41.92,
            "duration": 0.3
          },
          {
            "note": 62,
            "velocity": 50,
            "startTime": 41.92,
            "duration": 0.3
          },
          {
            "note": 59,
            "velocity": 45,
            "startTime": 43.46,
            "duration": 0.3
          },
          {
            "note": 62,
            "velocity": 45,
            "startTime": 43.46,
            "duration": 0.3
          },
          {
            "note": 67,
            "velocity": 45,
            "startTime": 43.46,
            "duration": 0.3
          },
          {
            "note": 59,
            "velocity": 40,
            "startTime": 44.23,
            "duration": 0.5
          },
          {
            "note": 62,
            "velocity": 40,
            "startTime": 44.23,
            "duration": 0.5
          },
          {
            "note": 67,
            "velocity": 40,
            "startTime": 44.23,
            "duration": 0.5
          }
        ]
      },
      {
        "name": "Rim & Hi-Hat",
        "program": 0,
        "role": "drums",
        "totalDuration": 45,
        "notes": [
          {
            "note": 42,
            "velocity": 55,
            "startTime": 0,
            "duration": 0.15
          },
          {
            "note": 37,
            "velocity": 60,
            "startTime": 0.38,
            "duration": 0.1
          },
          {
            "note": 42,
            "velocity": 50,
            "startTime": 0.77,
            "duration": 0.15
          },
          {
            "note": 42,
            "velocity": 55,
            "startTime": 1.15,
            "duration": 0.15
          },
          {
            "note": 37,
            "velocity": 60,
            "startTime": 1.54,
            "duration": 0.1
          },
          {
            "note": 42,
            "velocity": 50,
            "startTime": 1.92,
            "duration": 0.15
          },
          {
            "note": 42,
            "velocity": 55,
            "startTime": 2.31,
            "duration": 0.15
          },
          {
            "note": 37,
            "velocity": 60,
            "startTime": 2.69,
            "duration": 0.1
          },
          {
            "note": 42,
            "velocity": 50,
            "startTime": 3.08,
            "duration": 0.15
          },
          {
            "note": 42,
            "velocity": 55,
            "startTime": 3.46,
            "duration": 0.15
          },
          {
            "note": 37,
            "velocity": 60,
            "startTime": 3.85,
            "duration": 0.1
          },
          {
            "note": 42,
            "velocity": 50,
            "startTime": 4.23,
            "duration": 0.15
          },
          {
            "note": 42,
            "velocity": 55,
            "startTime": 4.62,
            "duration": 0.15
          },
          {
            "note": 37,
            "velocity": 60,
            "startTime": 5.0,
            "duration": 0.1
          },
          {
            "note": 42,
            "velocity": 50,
            "startTime": 5.38,
            "duration": 0.15
          },
          {
            "note": 42,
            "velocity": 55,
            "startTime": 5.77,
            "duration": 0.15
          },
          {
            "note": 37,
            "velocity": 60,
            "startTime": 6.15,
            "duration": 0.1
          },
          {
            "note": 42,
            "velocity": 50,
            "startTime": 6.54,
            "duration": 0.15
          },
          {
            "note": 42,
            "velocity": 55,
            "startTime": 6.92,
            "duration": 0.15
          },
          {
            "note": 37,
            "velocity": 60,
            "startTime": 7.31,
            "duration": 0.1
          },
          {
            "note": 42,
            "velocity": 50,
            "startTime": 7.69,
            "duration": 0.15
          },
          {
            "note": 42,
            "velocity": 55,
            "startTime": 8.08,
            "duration": 0.15
          },
          {
            "note": 37,
            "velocity": 60,
            "startTime": 8.46,
            "duration": 0.1
          },
          {
            "note": 42,
            "velocity": 50,
            "startTime": 8.85,
            "duration": 0.15
          },
          {
            "note": 42,
            "velocity": 55,
            "startTime": 9.23,
            "duration": 0.15
          },
          {
            "note": 37,
            "velocity": 60,
            "startTime": 9.62,
            "duration": 0.1
          },
          {
            "note": 42,
            "velocity": 50,
            "startTime": 10.0,
            "duration": 0.15
          },
          {
            "note": 42,
            "velocity": 55,
            "startTime": 10.38,
            "duration": 0.15
          },
          {
            "note": 37,
            "velocity": 60,
            "startTime": 10.77,
            "duration": 0.1
          },
          {
            "note": 42,
            "velocity": 50,
            "startTime": 11.15,
            "duration": 0.15
          },
          {
            "note": 42,
            "velocity": 55,
            "startTime": 11.54,
            "duration": 0.15
          },
          {
            "note": 37,
            "velocity": 60,
            "startTime": 11.92,
            "duration": 0.1
          },
          {
            "note": 42,
            "velocity": 50,
            "startTime": 12.31,
            "duration": 0.15
          },
          {
            "note": 42,
            "velocity": 55,
            "startTime": 12.69,
            "duration": 0.15
          },
          {
            "note": 37,
            "velocity": 60,
            "startTime": 13.08,
            "duration": 0.1
          },
          {
            "note": 42,
            "velocity": 50,
            "startTime": 13.46,
            "duration": 0.15
          },
          {
            "note": 42,
            "velocity": 55,
            "startTime": 13.85,
            "duration": 0.15
          },
          {
            "note": 37,
            "velocity": 60,
            "startTime": 14.23,
            "duration": 0.1
          },
          {
            "note": 42,
            "velocity": 50,
            "startTime": 14.62,
            "duration": 0.15
          },
          {
            "note": 42,
            "velocity": 55,
            "startTime": 15.0,
            "duration": 0.15
          },
          {
            "note": 37,
            "velocity": 60,
            "startTime": 15.38,
            "duration": 0.1
          },
          {
            "note": 42,
            "velocity": 50,
            "startTime": 15.77,
            "duration": 0.15
          },
          {
            "note": 42,
            "velocity": 55,
            "startTime": 16.15,
            "duration": 0.15
          },
          {
            "note": 37,
            "velocity": 60,
            "startTime": 16.54,
            "duration": 0.1
          },
          {
            "note": 42,
            "velocity": 50,
            "startTime": 16.92,
            "duration": 0.15
          },
          {
            "note": 42,
            "velocity": 55,
            "startTime": 17.31,
            "duration": 0.15
          },
          {
            "note": 37,
            "velocity": 60,
            "startTime": 17.69,
            "duration": 0.1
          },
          {
            "note": 42,
            "velocity": 50,
            "startTime": 18.08,
            "duration": 0.15
          },
          {
            "note": 42,
            "velocity": 55,
            "startTime": 18.46,
            "duration": 0.15
          },
          {
            "note": 37,
            "velocity": 60,
            "startTime": 18.85,
            "duration": 0.1
          },
          {
            "note": 42,
            "velocity": 50,
            "startTime": 19.23,
            "duration": 0.15
          },
          {
            "note": 42,
            "velocity": 55,
            "startTime": 19.62,
            "duration": 0.15
          },
          {
            "note": 37,
            "velocity": 60,
            "startTime": 20.0,
            "duration": 0.1
          },
          {
            "note": 42,
            "velocity": 50,
            "startTime": 20.38,
            "duration": 0.15
          },
          {
            "note": 42,
            "velocity": 55,
            "startTime": 20.77,
            "duration": 0.15
          },
          {
            "note": 37,
            "velocity": 60,
            "startTime": 21.15,
            "duration": 0.1
          },
          {
            "note": 42,
            "velocity": 50,
            "startTime": 21.54,
            "duration": 0.15
          },
          {
            "note": 42,
            "velocity": 55,
            "startTime": 21.92,
            "duration": 0.15
          },
          {
            "note": 37,
            "velocity": 60,
            "startTime": 22.31,
            "duration": 0.1
          },
          {
            "note": 42,
            "velocity": 50,
            "startTime": 22.69,
            "duration": 0.15
          },
          {
            "note": 42,
            "velocity": 55,
            "startTime": 23.08,
            "duration": 0.15
          },
          {
            "note": 37,
            "velocity": 60,
            "startTime": 23.46,
            "duration": 0.1
          },
          {
            "note": 42,
            "velocity": 50,
            "startTime": 23.85,
            "duration": 0.15
          },
          {
            "note": 42,
            "velocity": 55,
            "startTime": 24.23,
            "duration": 0.15
          },
          {
            "note": 37,
            "velocity": 60,
            "startTime": 24.62,
            "duration": 0.1
          },
          {
            "note": 42,
            "velocity": 50,
            "startTime": 25.0,
            "duration": 0.15
          },
          {
            "note": 42,
            "velocity": 55,
            "startTime": 25.38,
            "duration": 0.15
          },
          {
            "note": 37,
            "velocity": 60,
            "startTime": 25.77,
            "duration": 0.1
          },
          {
            "note": 42,
            "velocity": 50,
            "startTime": 26.15,
            "duration": 0.15
          },
          {
            "note": 42,
            "velocity": 55,
            "startTime": 26.54,
            "duration": 0.15
          },
          {
            "note": 37,
            "velocity": 60,
            "startTime": 26.92,
            "duration": 0.1
          },
          {
            "note": 42,
            "velocity": 50,
            "startTime": 27.31,
            "duration": 0.15
          },
          {
            "note": 42,
            "velocity": 55,
            "startTime": 27.69,
            "duration": 0.15
          },
          {
            "note": 37,
            "velocity": 60,
            "startTime": 28.08,
            "duration": 0.1
          },
          {
            "note": 42,
            "velocity": 50,
            "startTime": 28.46,
            "duration": 0.15
          },
          {
            "note": 42,
            "velocity": 55,
            "startTime": 28.85,
            "duration": 0.15
          },
          {
            "note": 37,
            "velocity": 60,
            "startTime": 29.23,
            "duration": 0.1
          },
          {
            "note": 42,
            "velocity": 50,
            "startTime": 29.62,
            "duration": 0.15
          },
          {
            "note": 42,
            "velocity": 55,
            "startTime": 30.0,
            "duration": 0.15
          },
          {
            "note": 37,
            "velocity": 60,
            "startTime": 30.38,
            "duration": 0.1
          },
          {
            "note": 42,
            "velocity": 50,
            "startTime": 30.77,
            "duration": 0.15
          },
          {
            "note": 42,
            "velocity": 55,
            "startTime": 31.15,
            "duration": 0.15
          },
          {
            "note": 37,
            "velocity": 60,
            "startTime": 31.54,
            "duration": 0.1
          },
          {
            "note": 42,
            "velocity": 50,
            "startTime": 31.92,
            "duration": 0.15
          },
          {
            "note": 42,
            "velocity": 55,
            "startTime": 32.31,
            "duration": 0.15
          },
          {
            "note": 37,
            "velocity": 60,
            "startTime": 32.69,
            "duration": 0.1
          },
          {
            "note": 42,
            "velocity": 50,
            "startTime": 33.08,
            "duration": 0.15
          },
          {
            "note": 42,
            "velocity": 55,
            "startTime": 33.46,
            "duration": 0.15
          },
          {
            "note": 37,
            "velocity": 60,
            "startTime": 33.85,
            "duration": 0.1
          },
          {
            "note": 42,
            "velocity": 50,
            "startTime": 34.23,
            "duration": 0.15
          },
          {
            "note": 42,
            "velocity": 55,
            "startTime": 34.62,
            "duration": 0.15
          },
          {
            "note": 37,
            "velocity": 60,
            "startTime": 35.0,
            "duration": 0.1
          },
          {
            "note": 42,
            "velocity": 50,
            "startTime": 35.38,
            "duration": 0.15
          },
          {
            "note": 42,
            "velocity": 55,
            "startTime": 35.77,
            "duration": 0.15
          },
          {
            "note": 37,
            "velocity": 60,
            "startTime": 36.15,
            "duration": 0.1
          },
          {
            "note": 42,
            "velocity": 50,
            "startTime": 36.54,
            "duration": 0.15
          },
          {
            "note": 42,
            "velocity": 55,
            "startTime": 36.92,
            "duration": 0.15
          },
          {
            "note": 37,
            "velocity": 60,
            "startTime": 37.31,
            "duration": 0.1
          },
          {
            "note": 42,
            "velocity": 50,
            "startTime": 37.69,
            "duration": 0.15
          },
          {
            "note": 42,
            "velocity": 55,
            "startTime": 38.08,
            "duration": 0.15
          },
          {
            "note": 37,
            "velocity": 60,
            "startTime": 38.46,
            "duration": 0.1
          },
          {
            "note": 42,
            "velocity": 50,
            "startTime": 38.85,
            "duration": 0.15
          },
          {
            "note": 42,
            "velocity": 55,
            "startTime": 39.23,
            "duration": 0.15
          },
          {
            "note": 37,
            "velocity": 60,
            "startTime": 39.62,
            "duration": 0.1
          },
          {
            "note": 42,
            "velocity": 50,
            "startTime": 40.0,
            "duration": 0.15
          },
          {
            "note": 42,
            "velocity": 55,
            "startTime": 40.38,
            "duration": 0.15
          },
          {
            "note": 37,
            "velocity": 60,
            "startTime": 40.77,
            "duration": 0.1
          },
          {
            "note": 42,
            "velocity": 50,
            "startTime": 41.15,
            "duration": 0.15
          },
          {
            "note": 42,
            "velocity": 55,
            "startTime": 41.54,
            "duration": 0.15
          },
          {
            "note": 37,
            "velocity": 60,
            "startTime": 41.92,
            "duration": 0.1
          },
          {
            "note": 42,
            "velocity": 50,
            "startTime": 42.31,
            "duration": 0.15
          },
          {
            "note": 42,
            "velocity": 55,
            "startTime": 42.69,
            "duration": 0.15
          },
          {
            "note": 37,
            "velocity": 58,
            "startTime": 43.08,
            "duration": 0.1
          },
          {
            "note": 42,
            "velocity": 48,
            "startTime": 43.46,
            "duration": 0.15
          },
          {
            "note": 42,
            "velocity": 45,
            "startTime": 43.85,
            "duration": 0.15
          },
          {
            "note": 37,
            "velocity": 50,
            "startTime": 44.23,
            "duration": 0.1
          },
          {
            "note": 42,
            "velocity": 40,
            "startTime": 44.62,
            "duration": 0.15
          }
        ]
      }
    ],
    "key": "G",
    "bpm": 78,
    "scale": "major"
  },
  {
    "genre": "reggae",
    "mode": "energize",
    "tracks": [
      {
        "name": "Ska Organ Melody",
        "program": 16,
        "role": "melody",
        "totalDuration": 45,
        "notes": [
          {
            "note": 79,
            "velocity": 100,
            "startTime": 0,
            "duration": 0.35
          },
          {
            "note": 83,
            "velocity": 105,
            "startTime": 0.7,
            "duration": 0.35
          },
          {
            "note": 86,
            "velocity": 100,
            "startTime": 1.41,
            "duration": 0.35
          },
          {
            "note": 84,
            "velocity": 95,
            "startTime": 2.12,
            "duration": 0.35
          },
          {
            "note": 81,
            "velocity": 100,
            "startTime": 2.82,
            "duration": 0.7
          },
          {
            "note": 79,
            "velocity": 105,
            "startTime": 3.53,
            "duration": 0.35
          },
          {
            "note": 76,
            "velocity": 95,
            "startTime": 4.24,
            "duration": 0.35
          },
          {
            "note": 79,
            "velocity": 100,
            "startTime": 4.94,
            "duration": 0.7
          },
          {
            "note": 83,
            "velocity": 110,
            "startTime": 5.65,
            "duration": 0.35
          },
          {
            "note": 86,
            "velocity": 105,
            "startTime": 6.35,
            "duration": 0.35
          },
          {
            "note": 88,
            "velocity": 100,
            "startTime": 7.06,
            "duration": 0.7
          },
          {
            "note": 86,
            "velocity": 95,
            "startTime": 8.47,
            "duration": 0.35
          },
          {
            "note": 83,
            "velocity": 100,
            "startTime": 9.18,
            "duration": 0.35
          },
          {
            "note": 81,
            "velocity": 105,
            "startTime": 9.88,
            "duration": 0.7
          },
          {
            "note": 79,
            "velocity": 100,
            "startTime": 11.29,
            "duration": 0.35
          },
          {
            "note": 76,
            "velocity": 95,
            "startTime": 11.99,
            "duration": 0.35
          },
          {
            "note": 74,
            "velocity": 100,
            "startTime": 12.71,
            "duration": 0.7
          },
          {
            "note": 76,
            "velocity": 105,
            "startTime": 14.12,
            "duration": 0.35
          },
          {
            "note": 79,
            "velocity": 110,
            "startTime": 14.82,
            "duration": 0.35
          },
          {
            "note": 83,
            "velocity": 105,
            "startTime": 15.53,
            "duration": 0.7
          },
          {
            "note": 86,
            "velocity": 100,
            "startTime": 16.94,
            "duration": 0.35
          },
          {
            "note": 88,
            "velocity": 110,
            "startTime": 17.65,
            "duration": 0.35
          },
          {
            "note": 91,
            "velocity": 115,
            "startTime": 18.35,
            "duration": 0.7
          },
          {
            "note": 88,
            "velocity": 105,
            "startTime": 19.76,
            "duration": 0.35
          },
          {
            "note": 86,
            "velocity": 100,
            "startTime": 20.47,
            "duration": 0.35
          },
          {
            "note": 83,
            "velocity": 95,
            "startTime": 21.18,
            "duration": 0.7
          },
          {
            "note": 79,
            "velocity": 100,
            "startTime": 22.59,
            "duration": 0.35
          },
          {
            "note": 81,
            "velocity": 105,
            "startTime": 23.29,
            "duration": 0.35
          },
          {
            "note": 83,
            "velocity": 110,
            "startTime": 24.0,
            "duration": 0.7
          },
          {
            "note": 86,
            "velocity": 105,
            "startTime": 25.41,
            "duration": 0.35
          },
          {
            "note": 88,
            "velocity": 100,
            "startTime": 26.12,
            "duration": 0.35
          },
          {
            "note": 91,
            "velocity": 110,
            "startTime": 26.82,
            "duration": 0.7
          },
          {
            "note": 88,
            "velocity": 105,
            "startTime": 28.24,
            "duration": 0.35
          },
          {
            "note": 86,
            "velocity": 100,
            "startTime": 28.94,
            "duration": 0.7
          },
          {
            "note": 83,
            "velocity": 95,
            "startTime": 30.35,
            "duration": 0.35
          },
          {
            "note": 81,
            "velocity": 100,
            "startTime": 31.06,
            "duration": 0.35
          },
          {
            "note": 79,
            "velocity": 105,
            "startTime": 31.76,
            "duration": 0.7
          },
          {
            "note": 76,
            "velocity": 100,
            "startTime": 33.18,
            "duration": 0.35
          },
          {
            "note": 74,
            "velocity": 95,
            "startTime": 33.88,
            "duration": 0.35
          },
          {
            "note": 76,
            "velocity": 100,
            "startTime": 34.59,
            "duration": 0.7
          },
          {
            "note": 79,
            "velocity": 110,
            "startTime": 36.0,
            "duration": 0.35
          },
          {
            "note": 83,
            "velocity": 115,
            "startTime": 36.71,
            "duration": 0.35
          },
          {
            "note": 86,
            "velocity": 110,
            "startTime": 37.41,
            "duration": 0.7
          },
          {
            "note": 88,
            "velocity": 105,
            "startTime": 38.82,
            "duration": 0.35
          },
          {
            "note": 91,
            "velocity": 115,
            "startTime": 39.53,
            "duration": 0.7
          },
          {
            "note": 88,
            "velocity": 110,
            "startTime": 40.94,
            "duration": 0.35
          },
          {
            "note": 86,
            "velocity": 105,
            "startTime": 41.65,
            "duration": 0.35
          },
          {
            "note": 83,
            "velocity": 100,
            "startTime": 42.35,
            "duration": 0.7
          },
          {
            "note": 79,
            "velocity": 110,
            "startTime": 43.76,
            "duration": 0.7
          },
          {
            "note": 79,
            "velocity": 115,
            "startTime": 44.47,
            "duration": 0.53
          }
        ]
      },
      {
        "name": "Reggae Bass",
        "program": 33,
        "role": "bass",
        "totalDuration": 45,
        "notes": [
          {
            "note": 43,
            "velocity": 110,
            "startTime": 0,
            "duration": 0.5
          },
          {
            "note": 43,
            "velocity": 100,
            "startTime": 1.06,
            "duration": 0.35
          },
          {
            "note": 47,
            "velocity": 110,
            "startTime": 1.41,
            "duration": 0.7
          },
          {
            "note": 43,
            "velocity": 105,
            "startTime": 2.82,
            "duration": 0.7
          },
          {
            "note": 40,
            "velocity": 110,
            "startTime": 4.24,
            "duration": 0.5
          },
          {
            "note": 43,
            "velocity": 100,
            "startTime": 4.94,
            "duration": 0.35
          },
          {
            "note": 47,
            "velocity": 110,
            "startTime": 5.65,
            "duration": 0.7
          },
          {
            "note": 45,
            "velocity": 105,
            "startTime": 7.06,
            "duration": 0.7
          },
          {
            "note": 43,
            "velocity": 110,
            "startTime": 8.47,
            "duration": 0.5
          },
          {
            "note": 47,
            "velocity": 100,
            "startTime": 9.18,
            "duration": 0.35
          },
          {
            "note": 50,
            "velocity": 110,
            "startTime": 9.88,
            "duration": 0.7
          },
          {
            "note": 47,
            "velocity": 105,
            "startTime": 11.29,
            "duration": 0.7
          },
          {
            "note": 43,
            "velocity": 110,
            "startTime": 12.71,
            "duration": 0.5
          },
          {
            "note": 40,
            "velocity": 100,
            "startTime": 13.41,
            "duration": 0.35
          },
          {
            "note": 38,
            "velocity": 110,
            "startTime": 14.12,
            "duration": 0.7
          },
          {
            "note": 40,
            "velocity": 105,
            "startTime": 15.53,
            "duration": 0.7
          },
          {
            "note": 43,
            "velocity": 110,
            "startTime": 16.94,
            "duration": 0.5
          },
          {
            "note": 47,
            "velocity": 100,
            "startTime": 17.65,
            "duration": 0.35
          },
          {
            "note": 50,
            "velocity": 110,
            "startTime": 18.35,
            "duration": 0.7
          },
          {
            "note": 47,
            "velocity": 105,
            "startTime": 19.76,
            "duration": 0.7
          },
          {
            "note": 43,
            "velocity": 110,
            "startTime": 21.18,
            "duration": 0.5
          },
          {
            "note": 45,
            "velocity": 100,
            "startTime": 21.88,
            "duration": 0.35
          },
          {
            "note": 47,
            "velocity": 110,
            "startTime": 22.59,
            "duration": 0.7
          },
          {
            "note": 43,
            "velocity": 105,
            "startTime": 24.0,
            "duration": 0.7
          },
          {
            "note": 40,
            "velocity": 110,
            "startTime": 25.41,
            "duration": 0.5
          },
          {
            "note": 43,
            "velocity": 100,
            "startTime": 26.12,
            "duration": 0.35
          },
          {
            "note": 47,
            "velocity": 110,
            "startTime": 26.82,
            "duration": 0.7
          },
          {
            "note": 50,
            "velocity": 105,
            "startTime": 28.24,
            "duration": 0.7
          },
          {
            "note": 47,
            "velocity": 110,
            "startTime": 29.65,
            "duration": 0.5
          },
          {
            "note": 45,
            "velocity": 100,
            "startTime": 30.35,
            "duration": 0.35
          },
          {
            "note": 43,
            "velocity": 110,
            "startTime": 31.06,
            "duration": 0.7
          },
          {
            "note": 40,
            "velocity": 105,
            "startTime": 32.47,
            "duration": 0.7
          },
          {
            "note": 38,
            "velocity": 110,
            "startTime": 33.88,
            "duration": 0.5
          },
          {
            "note": 40,
            "velocity": 100,
            "startTime": 34.59,
            "duration": 0.35
          },
          {
            "note": 43,
            "velocity": 110,
            "startTime": 35.29,
            "duration": 0.7
          },
          {
            "note": 47,
            "velocity": 105,
            "startTime": 36.71,
            "duration": 0.7
          },
          {
            "note": 50,
            "velocity": 110,
            "startTime": 38.12,
            "duration": 0.5
          },
          {
            "note": 47,
            "velocity": 100,
            "startTime": 38.82,
            "duration": 0.35
          },
          {
            "note": 45,
            "velocity": 110,
            "startTime": 39.53,
            "duration": 0.7
          },
          {
            "note": 43,
            "velocity": 105,
            "startTime": 40.94,
            "duration": 0.7
          },
          {
            "note": 40,
            "velocity": 110,
            "startTime": 42.35,
            "duration": 0.5
          },
          {
            "note": 43,
            "velocity": 115,
            "startTime": 43.06,
            "duration": 0.7
          },
          {
            "note": 43,
            "velocity": 120,
            "startTime": 44.47,
            "duration": 0.53
          }
        ]
      },
      {
        "name": "Ska Offbeat Organ Chords",
        "program": 16,
        "role": "chords",
        "totalDuration": 45,
        "notes": [
          {
            "note": 67,
            "velocity": 90,
            "startTime": 0.35,
            "duration": 0.2
          },
          {
            "note": 71,
            "velocity": 90,
            "startTime": 0.35,
            "duration": 0.2
          },
          {
            "note": 74,
            "velocity": 90,
            "startTime": 0.35,
            "duration": 0.2
          },
          {
            "note": 67,
            "velocity": 95,
            "startTime": 1.06,
            "duration": 0.2
          },
          {
            "note": 71,
            "velocity": 95,
            "startTime": 1.06,
            "duration": 0.2
          },
          {
            "note": 74,
            "velocity": 95,
            "startTime": 1.06,
            "duration": 0.2
          },
          {
            "note": 67,
            "velocity": 90,
            "startTime": 1.76,
            "duration": 0.2
          },
          {
            "note": 71,
            "velocity": 90,
            "startTime": 1.76,
            "duration": 0.2
          },
          {
            "note": 74,
            "velocity": 90,
            "startTime": 1.76,
            "duration": 0.2
          },
          {
            "note": 67,
            "velocity": 95,
            "startTime": 2.47,
            "duration": 0.2
          },
          {
            "note": 71,
            "velocity": 95,
            "startTime": 2.47,
            "duration": 0.2
          },
          {
            "note": 74,
            "velocity": 95,
            "startTime": 2.47,
            "duration": 0.2
          },
          {
            "note": 64,
            "velocity": 90,
            "startTime": 3.18,
            "duration": 0.2
          },
          {
            "note": 67,
            "velocity": 90,
            "startTime": 3.18,
            "duration": 0.2
          },
          {
            "note": 71,
            "velocity": 90,
            "startTime": 3.18,
            "duration": 0.2
          },
          {
            "note": 64,
            "velocity": 95,
            "startTime": 3.88,
            "duration": 0.2
          },
          {
            "note": 67,
            "velocity": 95,
            "startTime": 3.88,
            "duration": 0.2
          },
          {
            "note": 71,
            "velocity": 95,
            "startTime": 3.88,
            "duration": 0.2
          },
          {
            "note": 64,
            "velocity": 90,
            "startTime": 4.59,
            "duration": 0.2
          },
          {
            "note": 67,
            "velocity": 90,
            "startTime": 4.59,
            "duration": 0.2
          },
          {
            "note": 71,
            "velocity": 90,
            "startTime": 4.59,
            "duration": 0.2
          },
          {
            "note": 64,
            "velocity": 95,
            "startTime": 5.29,
            "duration": 0.2
          },
          {
            "note": 67,
            "velocity": 95,
            "startTime": 5.29,
            "duration": 0.2
          },
          {
            "note": 71,
            "velocity": 95,
            "startTime": 5.29,
            "duration": 0.2
          },
          {
            "note": 69,
            "velocity": 90,
            "startTime": 6.0,
            "duration": 0.2
          },
          {
            "note": 72,
            "velocity": 90,
            "startTime": 6.0,
            "duration": 0.2
          },
          {
            "note": 76,
            "velocity": 90,
            "startTime": 6.0,
            "duration": 0.2
          },
          {
            "note": 69,
            "velocity": 95,
            "startTime": 6.71,
            "duration": 0.2
          },
          {
            "note": 72,
            "velocity": 95,
            "startTime": 6.71,
            "duration": 0.2
          },
          {
            "note": 76,
            "velocity": 95,
            "startTime": 6.71,
            "duration": 0.2
          },
          {
            "note": 69,
            "velocity": 90,
            "startTime": 7.41,
            "duration": 0.2
          },
          {
            "note": 72,
            "velocity": 90,
            "startTime": 7.41,
            "duration": 0.2
          },
          {
            "note": 76,
            "velocity": 90,
            "startTime": 7.41,
            "duration": 0.2
          },
          {
            "note": 69,
            "velocity": 95,
            "startTime": 8.12,
            "duration": 0.2
          },
          {
            "note": 72,
            "velocity": 95,
            "startTime": 8.12,
            "duration": 0.2
          },
          {
            "note": 76,
            "velocity": 95,
            "startTime": 8.12,
            "duration": 0.2
          },
          {
            "note": 67,
            "velocity": 90,
            "startTime": 8.82,
            "duration": 0.2
          },
          {
            "note": 71,
            "velocity": 90,
            "startTime": 8.82,
            "duration": 0.2
          },
          {
            "note": 74,
            "velocity": 90,
            "startTime": 8.82,
            "duration": 0.2
          },
          {
            "note": 67,
            "velocity": 95,
            "startTime": 9.53,
            "duration": 0.2
          },
          {
            "note": 71,
            "velocity": 95,
            "startTime": 9.53,
            "duration": 0.2
          },
          {
            "note": 74,
            "velocity": 95,
            "startTime": 9.53,
            "duration": 0.2
          },
          {
            "note": 67,
            "velocity": 90,
            "startTime": 10.24,
            "duration": 0.2
          },
          {
            "note": 71,
            "velocity": 90,
            "startTime": 10.24,
            "duration": 0.2
          },
          {
            "note": 74,
            "velocity": 90,
            "startTime": 10.24,
            "duration": 0.2
          },
          {
            "note": 67,
            "velocity": 95,
            "startTime": 10.94,
            "duration": 0.2
          },
          {
            "note": 71,
            "velocity": 95,
            "startTime": 10.94,
            "duration": 0.2
          },
          {
            "note": 74,
            "velocity": 95,
            "startTime": 10.94,
            "duration": 0.2
          },
          {
            "note": 64,
            "velocity": 90,
            "startTime": 11.65,
            "duration": 0.2
          },
          {
            "note": 67,
            "velocity": 90,
            "startTime": 11.65,
            "duration": 0.2
          },
          {
            "note": 71,
            "velocity": 90,
            "startTime": 11.65,
            "duration": 0.2
          },
          {
            "note": 64,
            "velocity": 95,
            "startTime": 12.35,
            "duration": 0.2
          },
          {
            "note": 67,
            "velocity": 95,
            "startTime": 12.35,
            "duration": 0.2
          },
          {
            "note": 71,
            "velocity": 95,
            "startTime": 12.35,
            "duration": 0.2
          },
          {
            "note": 64,
            "velocity": 90,
            "startTime": 13.06,
            "duration": 0.2
          },
          {
            "note": 67,
            "velocity": 90,
            "startTime": 13.06,
            "duration": 0.2
          },
          {
            "note": 71,
            "velocity": 90,
            "startTime": 13.06,
            "duration": 0.2
          },
          {
            "note": 64,
            "velocity": 95,
            "startTime": 13.76,
            "duration": 0.2
          },
          {
            "note": 67,
            "velocity": 95,
            "startTime": 13.76,
            "duration": 0.2
          },
          {
            "note": 71,
            "velocity": 95,
            "startTime": 13.76,
            "duration": 0.2
          },
          {
            "note": 69,
            "velocity": 90,
            "startTime": 14.47,
            "duration": 0.2
          },
          {
            "note": 72,
            "velocity": 90,
            "startTime": 14.47,
            "duration": 0.2
          },
          {
            "note": 76,
            "velocity": 90,
            "startTime": 14.47,
            "duration": 0.2
          },
          {
            "note": 69,
            "velocity": 95,
            "startTime": 15.18,
            "duration": 0.2
          },
          {
            "note": 72,
            "velocity": 95,
            "startTime": 15.18,
            "duration": 0.2
          },
          {
            "note": 76,
            "velocity": 95,
            "startTime": 15.18,
            "duration": 0.2
          },
          {
            "note": 69,
            "velocity": 90,
            "startTime": 15.88,
            "duration": 0.2
          },
          {
            "note": 72,
            "velocity": 90,
            "startTime": 15.88,
            "duration": 0.2
          },
          {
            "note": 76,
            "velocity": 90,
            "startTime": 15.88,
            "duration": 0.2
          },
          {
            "note": 69,
            "velocity": 95,
            "startTime": 16.59,
            "duration": 0.2
          },
          {
            "note": 72,
            "velocity": 95,
            "startTime": 16.59,
            "duration": 0.2
          },
          {
            "note": 76,
            "velocity": 95,
            "startTime": 16.59,
            "duration": 0.2
          },
          {
            "note": 67,
            "velocity": 90,
            "startTime": 17.29,
            "duration": 0.2
          },
          {
            "note": 71,
            "velocity": 90,
            "startTime": 17.29,
            "duration": 0.2
          },
          {
            "note": 74,
            "velocity": 90,
            "startTime": 17.29,
            "duration": 0.2
          },
          {
            "note": 67,
            "velocity": 95,
            "startTime": 18.0,
            "duration": 0.2
          },
          {
            "note": 71,
            "velocity": 95,
            "startTime": 18.0,
            "duration": 0.2
          },
          {
            "note": 74,
            "velocity": 95,
            "startTime": 18.0,
            "duration": 0.2
          },
          {
            "note": 67,
            "velocity": 90,
            "startTime": 18.71,
            "duration": 0.2
          },
          {
            "note": 71,
            "velocity": 90,
            "startTime": 18.71,
            "duration": 0.2
          },
          {
            "note": 74,
            "velocity": 90,
            "startTime": 18.71,
            "duration": 0.2
          },
          {
            "note": 67,
            "velocity": 95,
            "startTime": 19.41,
            "duration": 0.2
          },
          {
            "note": 71,
            "velocity": 95,
            "startTime": 19.41,
            "duration": 0.2
          },
          {
            "note": 74,
            "velocity": 95,
            "startTime": 19.41,
            "duration": 0.2
          },
          {
            "note": 64,
            "velocity": 90,
            "startTime": 20.12,
            "duration": 0.2
          },
          {
            "note": 67,
            "velocity": 90,
            "startTime": 20.12,
            "duration": 0.2
          },
          {
            "note": 71,
            "velocity": 90,
            "startTime": 20.12,
            "duration": 0.2
          },
          {
            "note": 64,
            "velocity": 95,
            "startTime": 20.82,
            "duration": 0.2
          },
          {
            "note": 67,
            "velocity": 95,
            "startTime": 20.82,
            "duration": 0.2
          },
          {
            "note": 71,
            "velocity": 95,
            "startTime": 20.82,
            "duration": 0.2
          },
          {
            "note": 64,
            "velocity": 90,
            "startTime": 21.53,
            "duration": 0.2
          },
          {
            "note": 67,
            "velocity": 90,
            "startTime": 21.53,
            "duration": 0.2
          },
          {
            "note": 71,
            "velocity": 90,
            "startTime": 21.53,
            "duration": 0.2
          },
          {
            "note": 64,
            "velocity": 95,
            "startTime": 22.24,
            "duration": 0.2
          },
          {
            "note": 67,
            "velocity": 95,
            "startTime": 22.24,
            "duration": 0.2
          },
          {
            "note": 71,
            "velocity": 95,
            "startTime": 22.24,
            "duration": 0.2
          },
          {
            "note": 69,
            "velocity": 90,
            "startTime": 22.94,
            "duration": 0.2
          },
          {
            "note": 72,
            "velocity": 90,
            "startTime": 22.94,
            "duration": 0.2
          },
          {
            "note": 76,
            "velocity": 90,
            "startTime": 22.94,
            "duration": 0.2
          },
          {
            "note": 69,
            "velocity": 95,
            "startTime": 23.65,
            "duration": 0.2
          },
          {
            "note": 72,
            "velocity": 95,
            "startTime": 23.65,
            "duration": 0.2
          },
          {
            "note": 76,
            "velocity": 95,
            "startTime": 23.65,
            "duration": 0.2
          },
          {
            "note": 69,
            "velocity": 90,
            "startTime": 24.35,
            "duration": 0.2
          },
          {
            "note": 72,
            "velocity": 90,
            "startTime": 24.35,
            "duration": 0.2
          },
          {
            "note": 76,
            "velocity": 90,
            "startTime": 24.35,
            "duration": 0.2
          },
          {
            "note": 69,
            "velocity": 95,
            "startTime": 25.06,
            "duration": 0.2
          },
          {
            "note": 72,
            "velocity": 95,
            "startTime": 25.06,
            "duration": 0.2
          },
          {
            "note": 76,
            "velocity": 95,
            "startTime": 25.06,
            "duration": 0.2
          },
          {
            "note": 67,
            "velocity": 90,
            "startTime": 25.76,
            "duration": 0.2
          },
          {
            "note": 71,
            "velocity": 90,
            "startTime": 25.76,
            "duration": 0.2
          },
          {
            "note": 74,
            "velocity": 90,
            "startTime": 25.76,
            "duration": 0.2
          },
          {
            "note": 67,
            "velocity": 95,
            "startTime": 26.47,
            "duration": 0.2
          },
          {
            "note": 71,
            "velocity": 95,
            "startTime": 26.47,
            "duration": 0.2
          },
          {
            "note": 74,
            "velocity": 95,
            "startTime": 26.47,
            "duration": 0.2
          },
          {
            "note": 67,
            "velocity": 90,
            "startTime": 27.18,
            "duration": 0.2
          },
          {
            "note": 71,
            "velocity": 90,
            "startTime": 27.18,
            "duration": 0.2
          },
          {
            "note": 74,
            "velocity": 90,
            "startTime": 27.18,
            "duration": 0.2
          },
          {
            "note": 67,
            "velocity": 95,
            "startTime": 27.88,
            "duration": 0.2
          },
          {
            "note": 71,
            "velocity": 95,
            "startTime": 27.88,
            "duration": 0.2
          },
          {
            "note": 74,
            "velocity": 95,
            "startTime": 27.88,
            "duration": 0.2
          },
          {
            "note": 64,
            "velocity": 90,
            "startTime": 28.59,
            "duration": 0.2
          },
          {
            "note": 67,
            "velocity": 90,
            "startTime": 28.59,
            "duration": 0.2
          },
          {
            "note": 71,
            "velocity": 90,
            "startTime": 28.59,
            "duration": 0.2
          },
          {
            "note": 64,
            "velocity": 95,
            "startTime": 29.29,
            "duration": 0.2
          },
          {
            "note": 67,
            "velocity": 95,
            "startTime": 29.29,
            "duration": 0.2
          },
          {
            "note": 71,
            "velocity": 95,
            "startTime": 29.29,
            "duration": 0.2
          },
          {
            "note": 64,
            "velocity": 90,
            "startTime": 30.0,
            "duration": 0.2
          },
          {
            "note": 67,
            "velocity": 90,
            "startTime": 30.0,
            "duration": 0.2
          },
          {
            "note": 71,
            "velocity": 90,
            "startTime": 30.0,
            "duration": 0.2
          },
          {
            "note": 64,
            "velocity": 95,
            "startTime": 30.71,
            "duration": 0.2
          },
          {
            "note": 67,
            "velocity": 95,
            "startTime": 30.71,
            "duration": 0.2
          },
          {
            "note": 71,
            "velocity": 95,
            "startTime": 30.71,
            "duration": 0.2
          },
          {
            "note": 69,
            "velocity": 90,
            "startTime": 31.41,
            "duration": 0.2
          },
          {
            "note": 72,
            "velocity": 90,
            "startTime": 31.41,
            "duration": 0.2
          },
          {
            "note": 76,
            "velocity": 90,
            "startTime": 31.41,
            "duration": 0.2
          },
          {
            "note": 69,
            "velocity": 95,
            "startTime": 32.12,
            "duration": 0.2
          },
          {
            "note": 72,
            "velocity": 95,
            "startTime": 32.12,
            "duration": 0.2
          },
          {
            "note": 76,
            "velocity": 95,
            "startTime": 32.12,
            "duration": 0.2
          },
          {
            "note": 69,
            "velocity": 90,
            "startTime": 32.82,
            "duration": 0.2
          },
          {
            "note": 72,
            "velocity": 90,
            "startTime": 32.82,
            "duration": 0.2
          },
          {
            "note": 76,
            "velocity": 90,
            "startTime": 32.82,
            "duration": 0.2
          },
          {
            "note": 69,
            "velocity": 95,
            "startTime": 33.53,
            "duration": 0.2
          },
          {
            "note": 72,
            "velocity": 95,
            "startTime": 33.53,
            "duration": 0.2
          },
          {
            "note": 76,
            "velocity": 95,
            "startTime": 33.53,
            "duration": 0.2
          },
          {
            "note": 67,
            "velocity": 90,
            "startTime": 34.24,
            "duration": 0.2
          },
          {
            "note": 71,
            "velocity": 90,
            "startTime": 34.24,
            "duration": 0.2
          },
          {
            "note": 74,
            "velocity": 90,
            "startTime": 34.24,
            "duration": 0.2
          },
          {
            "note": 67,
            "velocity": 95,
            "startTime": 34.94,
            "duration": 0.2
          },
          {
            "note": 71,
            "velocity": 95,
            "startTime": 34.94,
            "duration": 0.2
          },
          {
            "note": 74,
            "velocity": 95,
            "startTime": 34.94,
            "duration": 0.2
          },
          {
            "note": 67,
            "velocity": 90,
            "startTime": 35.65,
            "duration": 0.2
          },
          {
            "note": 71,
            "velocity": 90,
            "startTime": 35.65,
            "duration": 0.2
          },
          {
            "note": 74,
            "velocity": 90,
            "startTime": 35.65,
            "duration": 0.2
          },
          {
            "note": 67,
            "velocity": 95,
            "startTime": 36.35,
            "duration": 0.2
          },
          {
            "note": 71,
            "velocity": 95,
            "startTime": 36.35,
            "duration": 0.2
          },
          {
            "note": 74,
            "velocity": 95,
            "startTime": 36.35,
            "duration": 0.2
          },
          {
            "note": 64,
            "velocity": 90,
            "startTime": 37.06,
            "duration": 0.2
          },
          {
            "note": 67,
            "velocity": 90,
            "startTime": 37.06,
            "duration": 0.2
          },
          {
            "note": 71,
            "velocity": 90,
            "startTime": 37.06,
            "duration": 0.2
          },
          {
            "note": 64,
            "velocity": 95,
            "startTime": 37.76,
            "duration": 0.2
          },
          {
            "note": 67,
            "velocity": 95,
            "startTime": 37.76,
            "duration": 0.2
          },
          {
            "note": 71,
            "velocity": 95,
            "startTime": 37.76,
            "duration": 0.2
          },
          {
            "note": 64,
            "velocity": 90,
            "startTime": 38.47,
            "duration": 0.2
          },
          {
            "note": 67,
            "velocity": 90,
            "startTime": 38.47,
            "duration": 0.2
          },
          {
            "note": 71,
            "velocity": 90,
            "startTime": 38.47,
            "duration": 0.2
          },
          {
            "note": 64,
            "velocity": 95,
            "startTime": 39.18,
            "duration": 0.2
          },
          {
            "note": 67,
            "velocity": 95,
            "startTime": 39.18,
            "duration": 0.2
          },
          {
            "note": 71,
            "velocity": 95,
            "startTime": 39.18,
            "duration": 0.2
          },
          {
            "note": 69,
            "velocity": 90,
            "startTime": 39.88,
            "duration": 0.2
          },
          {
            "note": 72,
            "velocity": 90,
            "startTime": 39.88,
            "duration": 0.2
          },
          {
            "note": 76,
            "velocity": 90,
            "startTime": 39.88,
            "duration": 0.2
          },
          {
            "note": 69,
            "velocity": 95,
            "startTime": 40.59,
            "duration": 0.2
          },
          {
            "note": 72,
            "velocity": 95,
            "startTime": 40.59,
            "duration": 0.2
          },
          {
            "note": 76,
            "velocity": 95,
            "startTime": 40.59,
            "duration": 0.2
          },
          {
            "note": 67,
            "velocity": 95,
            "startTime": 41.29,
            "duration": 0.2
          },
          {
            "note": 71,
            "velocity": 95,
            "startTime": 41.29,
            "duration": 0.2
          },
          {
            "note": 74,
            "velocity": 95,
            "startTime": 41.29,
            "duration": 0.2
          },
          {
            "note": 67,
            "velocity": 100,
            "startTime": 42.0,
            "duration": 0.2
          },
          {
            "note": 71,
            "velocity": 100,
            "startTime": 42.0,
            "duration": 0.2
          },
          {
            "note": 74,
            "velocity": 100,
            "startTime": 42.0,
            "duration": 0.2
          },
          {
            "note": 67,
            "velocity": 100,
            "startTime": 42.71,
            "duration": 0.2
          },
          {
            "note": 71,
            "velocity": 100,
            "startTime": 42.71,
            "duration": 0.2
          },
          {
            "note": 74,
            "velocity": 100,
            "startTime": 42.71,
            "duration": 0.2
          },
          {
            "note": 67,
            "velocity": 105,
            "startTime": 43.41,
            "duration": 0.2
          },
          {
            "note": 71,
            "velocity": 105,
            "startTime": 43.41,
            "duration": 0.2
          },
          {
            "note": 74,
            "velocity": 105,
            "startTime": 43.41,
            "duration": 0.2
          },
          {
            "note": 67,
            "velocity": 110,
            "startTime": 44.12,
            "duration": 0.5
          },
          {
            "note": 71,
            "velocity": 110,
            "startTime": 44.12,
            "duration": 0.5
          },
          {
            "note": 74,
            "velocity": 110,
            "startTime": 44.12,
            "duration": 0.5
          }
        ]
      },
      {
        "name": "One-Drop Drums",
        "program": 0,
        "role": "drums",
        "totalDuration": 45,
        "notes": [
          {
            "note": 42,
            "velocity": 80,
            "startTime": 0.35,
            "duration": 0.15
          },
          {
            "note": 38,
            "velocity": 110,
            "startTime": 1.41,
            "duration": 0.2
          },
          {
            "note": 36,
            "velocity": 110,
            "startTime": 1.41,
            "duration": 0.2
          },
          {
            "note": 42,
            "velocity": 80,
            "startTime": 1.76,
            "duration": 0.15
          },
          {
            "note": 42,
            "velocity": 75,
            "startTime": 2.12,
            "duration": 0.15
          },
          {
            "note": 42,
            "velocity": 80,
            "startTime": 2.47,
            "duration": 0.15
          },
          {
            "note": 42,
            "velocity": 80,
            "startTime": 3.18,
            "duration": 0.15
          },
          {
            "note": 38,
            "velocity": 110,
            "startTime": 4.24,
            "duration": 0.2
          },
          {
            "note": 36,
            "velocity": 110,
            "startTime": 4.24,
            "duration": 0.2
          },
          {
            "note": 42,
            "velocity": 80,
            "startTime": 4.59,
            "duration": 0.15
          },
          {
            "note": 42,
            "velocity": 75,
            "startTime": 4.94,
            "duration": 0.15
          },
          {
            "note": 42,
            "velocity": 80,
            "startTime": 5.29,
            "duration": 0.15
          },
          {
            "note": 42,
            "velocity": 80,
            "startTime": 6.0,
            "duration": 0.15
          },
          {
            "note": 38,
            "velocity": 110,
            "startTime": 7.06,
            "duration": 0.2
          },
          {
            "note": 36,
            "velocity": 110,
            "startTime": 7.06,
            "duration": 0.2
          },
          {
            "note": 42,
            "velocity": 80,
            "startTime": 7.41,
            "duration": 0.15
          },
          {
            "note": 42,
            "velocity": 75,
            "startTime": 7.76,
            "duration": 0.15
          },
          {
            "note": 42,
            "velocity": 80,
            "startTime": 8.12,
            "duration": 0.15
          },
          {
            "note": 42,
            "velocity": 80,
            "startTime": 8.82,
            "duration": 0.15
          },
          {
            "note": 38,
            "velocity": 110,
            "startTime": 9.88,
            "duration": 0.2
          },
          {
            "note": 36,
            "velocity": 110,
            "startTime": 9.88,
            "duration": 0.2
          },
          {
            "note": 42,
            "velocity": 80,
            "startTime": 10.24,
            "duration": 0.15
          },
          {
            "note": 42,
            "velocity": 75,
            "startTime": 10.59,
            "duration": 0.15
          },
          {
            "note": 42,
            "velocity": 80,
            "startTime": 10.94,
            "duration": 0.15
          },
          {
            "note": 42,
            "velocity": 80,
            "startTime": 11.65,
            "duration": 0.15
          },
          {
            "note": 38,
            "velocity": 110,
            "startTime": 12.71,
            "duration": 0.2
          },
          {
            "note": 36,
            "velocity": 110,
            "startTime": 12.71,
            "duration": 0.2
          },
          {
            "note": 42,
            "velocity": 80,
            "startTime": 13.06,
            "duration": 0.15
          },
          {
            "note": 42,
            "velocity": 75,
            "startTime": 13.41,
            "duration": 0.15
          },
          {
            "note": 42,
            "velocity": 80,
            "startTime": 13.76,
            "duration": 0.15
          },
          {
            "note": 42,
            "velocity": 80,
            "startTime": 14.47,
            "duration": 0.15
          },
          {
            "note": 38,
            "velocity": 110,
            "startTime": 15.53,
            "duration": 0.2
          },
          {
            "note": 36,
            "velocity": 110,
            "startTime": 15.53,
            "duration": 0.2
          },
          {
            "note": 42,
            "velocity": 80,
            "startTime": 15.88,
            "duration": 0.15
          },
          {
            "note": 42,
            "velocity": 75,
            "startTime": 16.24,
            "duration": 0.15
          },
          {
            "note": 42,
            "velocity": 80,
            "startTime": 16.59,
            "duration": 0.15
          },
          {
            "note": 42,
            "velocity": 80,
            "startTime": 17.29,
            "duration": 0.15
          },
          {
            "note": 38,
            "velocity": 110,
            "startTime": 18.35,
            "duration": 0.2
          },
          {
            "note": 36,
            "velocity": 110,
            "startTime": 18.35,
            "duration": 0.2
          },
          {
            "note": 42,
            "velocity": 80,
            "startTime": 18.71,
            "duration": 0.15
          },
          {
            "note": 42,
            "velocity": 75,
            "startTime": 19.06,
            "duration": 0.15
          },
          {
            "note": 42,
            "velocity": 80,
            "startTime": 19.41,
            "duration": 0.15
          },
          {
            "note": 42,
            "velocity": 80,
            "startTime": 20.12,
            "duration": 0.15
          },
          {
            "note": 38,
            "velocity": 110,
            "startTime": 21.18,
            "duration": 0.2
          },
          {
            "note": 36,
            "velocity": 110,
            "startTime": 21.18,
            "duration": 0.2
          },
          {
            "note": 42,
            "velocity": 80,
            "startTime": 21.53,
            "duration": 0.15
          },
          {
            "note": 42,
            "velocity": 75,
            "startTime": 21.88,
            "duration": 0.15
          },
          {
            "note": 42,
            "velocity": 80,
            "startTime": 22.24,
            "duration": 0.15
          },
          {
            "note": 42,
            "velocity": 80,
            "startTime": 22.94,
            "duration": 0.15
          },
          {
            "note": 38,
            "velocity": 110,
            "startTime": 24.0,
            "duration": 0.2
          },
          {
            "note": 36,
            "velocity": 110,
            "startTime": 24.0,
            "duration": 0.2
          },
          {
            "note": 42,
            "velocity": 80,
            "startTime": 24.35,
            "duration": 0.15
          },
          {
            "note": 42,
            "velocity": 75,
            "startTime": 24.71,
            "duration": 0.15
          },
          {
            "note": 42,
            "velocity": 80,
            "startTime": 25.06,
            "duration": 0.15
          },
          {
            "note": 42,
            "velocity": 80,
            "startTime": 25.76,
            "duration": 0.15
          },
          {
            "note": 38,
            "velocity": 110,
            "startTime": 26.82,
            "duration": 0.2
          },
          {
            "note": 36,
            "velocity": 110,
            "startTime": 26.82,
            "duration": 0.2
          },
          {
            "note": 42,
            "velocity": 80,
            "startTime": 27.18,
            "duration": 0.15
          },
          {
            "note": 42,
            "velocity": 75,
            "startTime": 27.53,
            "duration": 0.15
          },
          {
            "note": 42,
            "velocity": 80,
            "startTime": 27.88,
            "duration": 0.15
          },
          {
            "note": 42,
            "velocity": 80,
            "startTime": 28.59,
            "duration": 0.15
          },
          {
            "note": 38,
            "velocity": 110,
            "startTime": 29.65,
            "duration": 0.2
          },
          {
            "note": 36,
            "velocity": 110,
            "startTime": 29.65,
            "duration": 0.2
          },
          {
            "note": 42,
            "velocity": 80,
            "startTime": 30.0,
            "duration": 0.15
          },
          {
            "note": 42,
            "velocity": 75,
            "startTime": 30.35,
            "duration": 0.15
          },
          {
            "note": 42,
            "velocity": 80,
            "startTime": 30.71,
            "duration": 0.15
          },
          {
            "note": 42,
            "velocity": 80,
            "startTime": 31.41,
            "duration": 0.15
          },
          {
            "note": 38,
            "velocity": 110,
            "startTime": 32.47,
            "duration": 0.2
          },
          {
            "note": 36,
            "velocity": 110,
            "startTime": 32.47,
            "duration": 0.2
          },
          {
            "note": 42,
            "velocity": 80,
            "startTime": 32.82,
            "duration": 0.15
          },
          {
            "note": 42,
            "velocity": 75,
            "startTime": 33.18,
            "duration": 0.15
          },
          {
            "note": 42,
            "velocity": 80,
            "startTime": 33.53,
            "duration": 0.15
          },
          {
            "note": 42,
            "velocity": 80,
            "startTime": 34.24,
            "duration": 0.15
          },
          {
            "note": 38,
            "velocity": 110,
            "startTime": 35.29,
            "duration": 0.2
          },
          {
            "note": 36,
            "velocity": 110,
            "startTime": 35.29,
            "duration": 0.2
          },
          {
            "note": 42,
            "velocity": 80,
            "startTime": 35.65,
            "duration": 0.15
          },
          {
            "note": 42,
            "velocity": 75,
            "startTime": 36.0,
            "duration": 0.15
          },
          {
            "note": 42,
            "velocity": 80,
            "startTime": 36.35,
            "duration": 0.15
          },
          {
            "note": 42,
            "velocity": 80,
            "startTime": 37.06,
            "duration": 0.15
          },
          {
            "note": 38,
            "velocity": 110,
            "startTime": 38.12,
            "duration": 0.2
          },
          {
            "note": 36,
            "velocity": 110,
            "startTime": 38.12,
            "duration": 0.2
          },
          {
            "note": 42,
            "velocity": 80,
            "startTime": 38.47,
            "duration": 0.15
          },
          {
            "note": 42,
            "velocity": 75,
            "startTime": 38.82,
            "duration": 0.15
          },
          {
            "note": 42,
            "velocity": 80,
            "startTime": 39.18,
            "duration": 0.15
          },
          {
            "note": 42,
            "velocity": 80,
            "startTime": 39.88,
            "duration": 0.15
          },
          {
            "note": 38,
            "velocity": 110,
            "startTime": 40.94,
            "duration": 0.2
          },
          {
            "note": 36,
            "velocity": 110,
            "startTime": 40.94,
            "duration": 0.2
          },
          {
            "note": 42,
            "velocity": 80,
            "startTime": 41.29,
            "duration": 0.15
          },
          {
            "note": 42,
            "velocity": 75,
            "startTime": 41.65,
            "duration": 0.15
          },
          {
            "note": 42,
            "velocity": 80,
            "startTime": 42.0,
            "duration": 0.15
          },
          {
            "note": 42,
            "velocity": 80,
            "startTime": 42.71,
            "duration": 0.15
          },
          {
            "note": 38,
            "velocity": 115,
            "startTime": 43.76,
            "duration": 0.2
          },
          {
            "note": 36,
            "velocity": 115,
            "startTime": 43.76,
            "duration": 0.2
          },
          {
            "note": 42,
            "velocity": 85,
            "startTime": 44.12,
            "duration": 0.15
          },
          {
            "note": 49,
            "velocity": 100,
            "startTime": 44.47,
            "duration": 0.3
          }
        ]
      }
    ],
    "key": "G",
    "bpm": 85,
    "scale": "major"
  },
  {
    "genre": "classical",
    "mode": "energize",
    "tracks": [
      {
        "name": "Piano Melody",
        "program": 0,
        "role": "melody",
        "totalDuration": 45,
        "notes": [
          {
            "note": 72,
            "velocity": 100,
            "startTime": 0,
            "duration": 0.5
          },
          {
            "note": 72,
            "velocity": 105,
            "startTime": 0.5,
            "duration": 0.5
          },
          {
            "note": 72,
            "velocity": 110,
            "startTime": 1.0,
            "duration": 0.5
          },
          {
            "note": 76,
            "velocity": 115,
            "startTime": 1.5,
            "duration": 1.0
          },
          {
            "note": 74,
            "velocity": 100,
            "startTime": 2.5,
            "duration": 0.5
          },
          {
            "note": 74,
            "velocity": 105,
            "startTime": 3.0,
            "duration": 0.5
          },
          {
            "note": 74,
            "velocity": 110,
            "startTime": 3.5,
            "duration": 0.5
          },
          {
            "note": 77,
            "velocity": 115,
            "startTime": 4.0,
            "duration": 1.0
          },
          {
            "note": 79,
            "velocity": 120,
            "startTime": 5.0,
            "duration": 0.5
          },
          {
            "note": 77,
            "velocity": 110,
            "startTime": 5.5,
            "duration": 0.5
          },
          {
            "note": 76,
            "velocity": 105,
            "startTime": 6.0,
            "duration": 0.5
          },
          {
            "note": 74,
            "velocity": 100,
            "startTime": 6.5,
            "duration": 0.5
          },
          {
            "note": 72,
            "velocity": 115,
            "startTime": 7.0,
            "duration": 1.5
          },
          {
            "note": 84,
            "velocity": 120,
            "startTime": 8.5,
            "duration": 0.5
          },
          {
            "note": 83,
            "velocity": 110,
            "startTime": 9.0,
            "duration": 0.25
          },
          {
            "note": 84,
            "velocity": 115,
            "startTime": 9.25,
            "duration": 0.25
          },
          {
            "note": 79,
            "velocity": 105,
            "startTime": 9.5,
            "duration": 0.5
          },
          {
            "note": 76,
            "velocity": 100,
            "startTime": 10.0,
            "duration": 1.0
          },
          {
            "note": 77,
            "velocity": 110,
            "startTime": 11.0,
            "duration": 0.5
          },
          {
            "note": 79,
            "velocity": 115,
            "startTime": 11.5,
            "duration": 0.5
          },
          {
            "note": 84,
            "velocity": 120,
            "startTime": 12.0,
            "duration": 1.0
          },
          {
            "note": 83,
            "velocity": 105,
            "startTime": 13.0,
            "duration": 0.5
          },
          {
            "note": 81,
            "velocity": 100,
            "startTime": 13.5,
            "duration": 0.5
          },
          {
            "note": 79,
            "velocity": 110,
            "startTime": 14.0,
            "duration": 1.0
          },
          {
            "note": 72,
            "velocity": 100,
            "startTime": 15.0,
            "duration": 0.5
          },
          {
            "note": 72,
            "velocity": 105,
            "startTime": 15.5,
            "duration": 0.5
          },
          {
            "note": 72,
            "velocity": 110,
            "startTime": 16.0,
            "duration": 0.5
          },
          {
            "note": 76,
            "velocity": 120,
            "startTime": 16.5,
            "duration": 1.0
          },
          {
            "note": 79,
            "velocity": 115,
            "startTime": 17.5,
            "duration": 0.5
          },
          {
            "note": 84,
            "velocity": 127,
            "startTime": 18.0,
            "duration": 1.0
          },
          {
            "note": 86,
            "velocity": 120,
            "startTime": 19.0,
            "duration": 0.5
          },
          {
            "note": 84,
            "velocity": 115,
            "startTime": 19.5,
            "duration": 0.5
          },
          {
            "note": 83,
            "velocity": 110,
            "startTime": 20.0,
            "duration": 0.5
          },
          {
            "note": 81,
            "velocity": 105,
            "startTime": 20.5,
            "duration": 0.5
          },
          {
            "note": 79,
            "velocity": 115,
            "startTime": 21.0,
            "duration": 1.0
          },
          {
            "note": 84,
            "velocity": 120,
            "startTime": 22.0,
            "duration": 0.25
          },
          {
            "note": 83,
            "velocity": 115,
            "startTime": 22.25,
            "duration": 0.25
          },
          {
            "note": 84,
            "velocity": 120,
            "startTime": 22.5,
            "duration": 0.25
          },
          {
            "note": 86,
            "velocity": 125,
            "startTime": 22.75,
            "duration": 0.25
          },
          {
            "note": 88,
            "velocity": 127,
            "startTime": 23.0,
            "duration": 1.5
          },
          {
            "note": 86,
            "velocity": 110,
            "startTime": 24.5,
            "duration": 0.5
          },
          {
            "note": 84,
            "velocity": 105,
            "startTime": 25.0,
            "duration": 0.5
          },
          {
            "note": 83,
            "velocity": 100,
            "startTime": 25.5,
            "duration": 0.5
          },
          {
            "note": 81,
            "velocity": 105,
            "startTime": 26.0,
            "duration": 0.5
          },
          {
            "note": 79,
            "velocity": 110,
            "startTime": 26.5,
            "duration": 1.0
          },
          {
            "note": 76,
            "velocity": 105,
            "startTime": 27.5,
            "duration": 0.5
          },
          {
            "note": 77,
            "velocity": 110,
            "startTime": 28.0,
            "duration": 0.5
          },
          {
            "note": 79,
            "velocity": 115,
            "startTime": 28.5,
            "duration": 0.5
          },
          {
            "note": 84,
            "velocity": 120,
            "startTime": 29.0,
            "duration": 1.0
          },
          {
            "note": 88,
            "velocity": 127,
            "startTime": 30.0,
            "duration": 0.5
          },
          {
            "note": 88,
            "velocity": 120,
            "startTime": 30.5,
            "duration": 0.5
          },
          {
            "note": 88,
            "velocity": 127,
            "startTime": 31.0,
            "duration": 0.5
          },
          {
            "note": 91,
            "velocity": 127,
            "startTime": 31.5,
            "duration": 1.5
          },
          {
            "note": 89,
            "velocity": 115,
            "startTime": 33.0,
            "duration": 0.5
          },
          {
            "note": 88,
            "velocity": 120,
            "startTime": 33.5,
            "duration": 0.5
          },
          {
            "note": 86,
            "velocity": 115,
            "startTime": 34.0,
            "duration": 0.5
          },
          {
            "note": 84,
            "velocity": 110,
            "startTime": 34.5,
            "duration": 0.5
          },
          {
            "note": 83,
            "velocity": 105,
            "startTime": 35.0,
            "duration": 0.5
          },
          {
            "note": 84,
            "velocity": 120,
            "startTime": 35.5,
            "duration": 1.0
          },
          {
            "note": 79,
            "velocity": 115,
            "startTime": 36.5,
            "duration": 0.5
          },
          {
            "note": 76,
            "velocity": 110,
            "startTime": 37.0,
            "duration": 0.5
          },
          {
            "note": 77,
            "velocity": 115,
            "startTime": 37.5,
            "duration": 0.5
          },
          {
            "note": 79,
            "velocity": 120,
            "startTime": 38.0,
            "duration": 0.5
          },
          {
            "note": 84,
            "velocity": 125,
            "startTime": 38.5,
            "duration": 0.5
          },
          {
            "note": 88,
            "velocity": 127,
            "startTime": 39.0,
            "duration": 0.5
          },
          {
            "note": 91,
            "velocity": 127,
            "startTime": 39.5,
            "duration": 0.5
          },
          {
            "note": 96,
            "velocity": 127,
            "startTime": 40.0,
            "duration": 1.0
          },
          {
            "note": 91,
            "velocity": 120,
            "startTime": 41.0,
            "duration": 0.5
          },
          {
            "note": 88,
            "velocity": 115,
            "startTime": 41.5,
            "duration": 0.5
          },
          {
            "note": 84,
            "velocity": 120,
            "startTime": 42.0,
            "duration": 1.0
          },
          {
            "note": 88,
            "velocity": 125,
            "startTime": 43.0,
            "duration": 0.5
          },
          {
            "note": 84,
            "velocity": 120,
            "startTime": 43.5,
            "duration": 0.5
          },
          {
            "note": 96,
            "velocity": 127,
            "startTime": 44.0,
            "duration": 1.0
          }
        ]
      },
      {
        "name": "String Ensemble Chords",
        "program": 48,
        "role": "chords",
        "totalDuration": 45,
        "notes": [
          {
            "note": 60,
            "velocity": 85,
            "startTime": 0,
            "duration": 2.0
          },
          {
            "note": 64,
            "velocity": 85,
            "startTime": 0,
            "duration": 2.0
          },
          {
            "note": 67,
            "velocity": 85,
            "startTime": 0,
            "duration": 2.0
          },
          {
            "note": 60,
            "velocity": 90,
            "startTime": 2.0,
            "duration": 2.0
          },
          {
            "note": 65,
            "velocity": 90,
            "startTime": 2.0,
            "duration": 2.0
          },
          {
            "note": 69,
            "velocity": 90,
            "startTime": 2.0,
            "duration": 2.0
          },
          {
            "note": 62,
            "velocity": 85,
            "startTime": 4.0,
            "duration": 2.0
          },
          {
            "note": 67,
            "velocity": 85,
            "startTime": 4.0,
            "duration": 2.0
          },
          {
            "note": 71,
            "velocity": 85,
            "startTime": 4.0,
            "duration": 2.0
          },
          {
            "note": 60,
            "velocity": 95,
            "startTime": 6.0,
            "duration": 2.0
          },
          {
            "note": 64,
            "velocity": 95,
            "startTime": 6.0,
            "duration": 2.0
          },
          {
            "note": 67,
            "velocity": 95,
            "startTime": 6.0,
            "duration": 2.0
          },
          {
            "note": 65,
            "velocity": 90,
            "startTime": 8.0,
            "duration": 2.0
          },
          {
            "note": 69,
            "velocity": 90,
            "startTime": 8.0,
            "duration": 2.0
          },
          {
            "note": 72,
            "velocity": 90,
            "startTime": 8.0,
            "duration": 2.0
          },
          {
            "note": 60,
            "velocity": 95,
            "startTime": 10.0,
            "duration": 2.0
          },
          {
            "note": 64,
            "velocity": 95,
            "startTime": 10.0,
            "duration": 2.0
          },
          {
            "note": 67,
            "velocity": 95,
            "startTime": 10.0,
            "duration": 2.0
          },
          {
            "note": 62,
            "velocity": 90,
            "startTime": 12.0,
            "duration": 2.0
          },
          {
            "note": 67,
            "velocity": 90,
            "startTime": 12.0,
            "duration": 2.0
          },
          {
            "note": 71,
            "velocity": 90,
            "startTime": 12.0,
            "duration": 2.0
          },
          {
            "note": 60,
            "velocity": 100,
            "startTime": 14.0,
            "duration": 2.0
          },
          {
            "note": 64,
            "velocity": 100,
            "startTime": 14.0,
            "duration": 2.0
          },
          {
            "note": 67,
            "velocity": 100,
            "startTime": 14.0,
            "duration": 2.0
          },
          {
            "note": 60,
            "velocity": 100,
            "startTime": 16.0,
            "duration": 2.0
          },
          {
            "note": 64,
            "velocity": 100,
            "startTime": 16.0,
            "duration": 2.0
          },
          {
            "note": 67,
            "velocity": 100,
            "startTime": 16.0,
            "duration": 2.0
          },
          {
            "note": 65,
            "velocity": 95,
            "startTime": 18.0,
            "duration": 2.0
          },
          {
            "note": 69,
            "velocity": 95,
            "startTime": 18.0,
            "duration": 2.0
          },
          {
            "note": 72,
            "velocity": 95,
            "startTime": 18.0,
            "duration": 2.0
          },
          {
            "note": 62,
            "velocity": 95,
            "startTime": 20.0,
            "duration": 2.0
          },
          {
            "note": 67,
            "velocity": 95,
            "startTime": 20.0,
            "duration": 2.0
          },
          {
            "note": 71,
            "velocity": 95,
            "startTime": 20.0,
            "duration": 2.0
          },
          {
            "note": 60,
            "velocity": 105,
            "startTime": 22.0,
            "duration": 2.0
          },
          {
            "note": 64,
            "velocity": 105,
            "startTime": 22.0,
            "duration": 2.0
          },
          {
            "note": 67,
            "velocity": 105,
            "startTime": 22.0,
            "duration": 2.0
          },
          {
            "note": 65,
            "velocity": 100,
            "startTime": 24.0,
            "duration": 2.0
          },
          {
            "note": 69,
            "velocity": 100,
            "startTime": 24.0,
            "duration": 2.0
          },
          {
            "note": 72,
            "velocity": 100,
            "startTime": 24.0,
            "duration": 2.0
          },
          {
            "note": 62,
            "velocity": 100,
            "startTime": 26.0,
            "duration": 2.0
          },
          {
            "note": 67,
            "velocity": 100,
            "startTime": 26.0,
            "duration": 2.0
          },
          {
            "note": 71,
            "velocity": 100,
            "startTime": 26.0,
            "duration": 2.0
          },
          {
            "note": 60,
            "velocity": 110,
            "startTime": 28.0,
            "duration": 2.0
          },
          {
            "note": 64,
            "velocity": 110,
            "startTime": 28.0,
            "duration": 2.0
          },
          {
            "note": 67,
            "velocity": 110,
            "startTime": 28.0,
            "duration": 2.0
          },
          {
            "note": 65,
            "velocity": 105,
            "startTime": 30.0,
            "duration": 2.0
          },
          {
            "note": 69,
            "velocity": 105,
            "startTime": 30.0,
            "duration": 2.0
          },
          {
            "note": 72,
            "velocity": 105,
            "startTime": 30.0,
            "duration": 2.0
          },
          {
            "note": 60,
            "velocity": 110,
            "startTime": 32.0,
            "duration": 2.0
          },
          {
            "note": 64,
            "velocity": 110,
            "startTime": 32.0,
            "duration": 2.0
          },
          {
            "note": 67,
            "velocity": 110,
            "startTime": 32.0,
            "duration": 2.0
          },
          {
            "note": 62,
            "velocity": 105,
            "startTime": 34.0,
            "duration": 2.0
          },
          {
            "note": 67,
            "velocity": 105,
            "startTime": 34.0,
            "duration": 2.0
          },
          {
            "note": 71,
            "velocity": 105,
            "startTime": 34.0,
            "duration": 2.0
          },
          {
            "note": 65,
            "velocity": 110,
            "startTime": 36.0,
            "duration": 2.0
          },
          {
            "note": 69,
            "velocity": 110,
            "startTime": 36.0,
            "duration": 2.0
          },
          {
            "note": 72,
            "velocity": 110,
            "startTime": 36.0,
            "duration": 2.0
          },
          {
            "note": 62,
            "velocity": 110,
            "startTime": 38.0,
            "duration": 2.0
          },
          {
            "note": 67,
            "velocity": 110,
            "startTime": 38.0,
            "duration": 2.0
          },
          {
            "note": 71,
            "velocity": 110,
            "startTime": 38.0,
            "duration": 2.0
          },
          {
            "note": 60,
            "velocity": 120,
            "startTime": 40.0,
            "duration": 2.0
          },
          {
            "note": 64,
            "velocity": 120,
            "startTime": 40.0,
            "duration": 2.0
          },
          {
            "note": 67,
            "velocity": 120,
            "startTime": 40.0,
            "duration": 2.0
          },
          {
            "note": 72,
            "velocity": 120,
            "startTime": 40.0,
            "duration": 2.0
          },
          {
            "note": 60,
            "velocity": 127,
            "startTime": 42.0,
            "duration": 3.0
          },
          {
            "note": 64,
            "velocity": 127,
            "startTime": 42.0,
            "duration": 3.0
          },
          {
            "note": 67,
            "velocity": 127,
            "startTime": 42.0,
            "duration": 3.0
          },
          {
            "note": 72,
            "velocity": 127,
            "startTime": 42.0,
            "duration": 3.0
          }
        ]
      },
      {
        "name": "Piano Bass",
        "program": 0,
        "role": "bass",
        "totalDuration": 45,
        "notes": [
          {
            "note": 36,
            "velocity": 100,
            "startTime": 0,
            "duration": 0.5
          },
          {
            "note": 48,
            "velocity": 90,
            "startTime": 0.5,
            "duration": 0.5
          },
          {
            "note": 36,
            "velocity": 100,
            "startTime": 1.0,
            "duration": 0.5
          },
          {
            "note": 48,
            "velocity": 90,
            "startTime": 1.5,
            "duration": 0.5
          },
          {
            "note": 41,
            "velocity": 100,
            "startTime": 2.0,
            "duration": 0.5
          },
          {
            "note": 53,
            "velocity": 90,
            "startTime": 2.5,
            "duration": 0.5
          },
          {
            "note": 41,
            "velocity": 100,
            "startTime": 3.0,
            "duration": 0.5
          },
          {
            "note": 53,
            "velocity": 90,
            "startTime": 3.5,
            "duration": 0.5
          },
          {
            "note": 43,
            "velocity": 105,
            "startTime": 4.0,
            "duration": 0.5
          },
          {
            "note": 55,
            "velocity": 95,
            "startTime": 4.5,
            "duration": 0.5
          },
          {
            "note": 43,
            "velocity": 105,
            "startTime": 5.0,
            "duration": 0.5
          },
          {
            "note": 55,
            "velocity": 95,
            "startTime": 5.5,
            "duration": 0.5
          },
          {
            "note": 36,
            "velocity": 110,
            "startTime": 6.0,
            "duration": 1.0
          },
          {
            "note": 48,
            "velocity": 100,
            "startTime": 7.0,
            "duration": 1.0
          },
          {
            "note": 41,
            "velocity": 100,
            "startTime": 8.0,
            "duration": 0.5
          },
          {
            "note": 53,
            "velocity": 95,
            "startTime": 8.5,
            "duration": 0.5
          },
          {
            "note": 41,
            "velocity": 100,
            "startTime": 9.0,
            "duration": 0.5
          },
          {
            "note": 53,
            "velocity": 95,
            "startTime": 9.5,
            "duration": 0.5
          },
          {
            "note": 36,
            "velocity": 105,
            "startTime": 10.0,
            "duration": 0.5
          },
          {
            "note": 48,
            "velocity": 95,
            "startTime": 10.5,
            "duration": 0.5
          },
          {
            "note": 36,
            "velocity": 105,
            "startTime": 11.0,
            "duration": 0.5
          },
          {
            "note": 48,
            "velocity": 95,
            "startTime": 11.5,
            "duration": 0.5
          },
          {
            "note": 43,
            "velocity": 100,
            "startTime": 12.0,
            "duration": 0.5
          },
          {
            "note": 55,
            "velocity": 90,
            "startTime": 12.5,
            "duration": 0.5
          },
          {
            "note": 43,
            "velocity": 100,
            "startTime": 13.0,
            "duration": 0.5
          },
          {
            "note": 55,
            "velocity": 90,
            "startTime": 13.5,
            "duration": 0.5
          },
          {
            "note": 36,
            "velocity": 110,
            "startTime": 14.0,
            "duration": 1.0
          },
          {
            "note": 48,
            "velocity": 100,
            "startTime": 15.0,
            "duration": 1.0
          },
          {
            "note": 36,
            "velocity": 110,
            "startTime": 16.0,
            "duration": 0.5
          },
          {
            "note": 48,
            "velocity": 100,
            "startTime": 16.5,
            "duration": 0.5
          },
          {
            "note": 36,
            "velocity": 110,
            "startTime": 17.0,
            "duration": 0.5
          },
          {
            "note": 48,
            "velocity": 100,
            "startTime": 17.5,
            "duration": 0.5
          },
          {
            "note": 41,
            "velocity": 105,
            "startTime": 18.0,
            "duration": 0.5
          },
          {
            "note": 53,
            "velocity": 100,
            "startTime": 18.5,
            "duration": 0.5
          },
          {
            "note": 41,
            "velocity": 105,
            "startTime": 19.0,
            "duration": 0.5
          },
          {
            "note": 53,
            "velocity": 100,
            "startTime": 19.5,
            "duration": 0.5
          },
          {
            "note": 43,
            "velocity": 110,
            "startTime": 20.0,
            "duration": 0.5
          },
          {
            "note": 55,
            "velocity": 100,
            "startTime": 20.5,
            "duration": 0.5
          },
          {
            "note": 43,
            "velocity": 110,
            "startTime": 21.0,
            "duration": 0.5
          },
          {
            "note": 55,
            "velocity": 100,
            "startTime": 21.5,
            "duration": 0.5
          },
          {
            "note": 36,
            "velocity": 115,
            "startTime": 22.0,
            "duration": 1.0
          },
          {
            "note": 48,
            "velocity": 105,
            "startTime": 23.0,
            "duration": 1.0
          },
          {
            "note": 41,
            "velocity": 105,
            "startTime": 24.0,
            "duration": 0.5
          },
          {
            "note": 53,
            "velocity": 100,
            "startTime": 24.5,
            "duration": 0.5
          },
          {
            "note": 41,
            "velocity": 105,
            "startTime": 25.0,
            "duration": 0.5
          },
          {
            "note": 53,
            "velocity": 100,
            "startTime": 25.5,
            "duration": 0.5
          },
          {
            "note": 43,
            "velocity": 110,
            "startTime": 26.0,
            "duration": 0.5
          },
          {
            "note": 55,
            "velocity": 100,
            "startTime": 26.5,
            "duration": 0.5
          },
          {
            "note": 43,
            "velocity": 110,
            "startTime": 27.0,
            "duration": 0.5
          },
          {
            "note": 55,
            "velocity": 100,
            "startTime": 27.5,
            "duration": 0.5
          },
          {
            "note": 36,
            "velocity": 115,
            "startTime": 28.0,
            "duration": 0.5
          },
          {
            "note": 48,
            "velocity": 105,
            "startTime": 28.5,
            "duration": 0.5
          },
          {
            "note": 36,
            "velocity": 115,
            "startTime": 29.0,
            "duration": 0.5
          },
          {
            "note": 48,
            "velocity": 105,
            "startTime": 29.5,
            "duration": 0.5
          },
          {
            "note": 41,
            "velocity": 110,
            "startTime": 30.0,
            "duration": 0.5
          },
          {
            "note": 53,
            "velocity": 105,
            "startTime": 30.5,
            "duration": 0.5
          },
          {
            "note": 41,
            "velocity": 110,
            "startTime": 31.0,
            "duration": 0.5
          },
          {
            "note": 53,
            "velocity": 105,
            "startTime": 31.5,
            "duration": 0.5
          },
          {
            "note": 36,
            "velocity": 115,
            "startTime": 32.0,
            "duration": 0.5
          },
          {
            "note": 48,
            "velocity": 110,
            "startTime": 32.5,
            "duration": 0.5
          },
          {
            "note": 36,
            "velocity": 115,
            "startTime": 33.0,
            "duration": 0.5
          },
          {
            "note": 48,
            "velocity": 110,
            "startTime": 33.5,
            "duration": 0.5
          },
          {
            "note": 43,
            "velocity": 115,
            "startTime": 34.0,
            "duration": 0.5
          },
          {
            "note": 55,
            "velocity": 110,
            "startTime": 34.5,
            "duration": 0.5
          },
          {
            "note": 43,
            "velocity": 115,
            "startTime": 35.0,
            "duration": 0.5
          },
          {
            "note": 55,
            "velocity": 110,
            "startTime": 35.5,
            "duration": 0.5
          },
          {
            "note": 41,
            "velocity": 115,
            "startTime": 36.0,
            "duration": 0.5
          },
          {
            "note": 53,
            "velocity": 110,
            "startTime": 36.5,
            "duration": 0.5
          },
          {
            "note": 41,
            "velocity": 115,
            "startTime": 37.0,
            "duration": 0.5
          },
          {
            "note": 53,
            "velocity": 110,
            "startTime": 37.5,
            "duration": 0.5
          },
          {
            "note": 43,
            "velocity": 120,
            "startTime": 38.0,
            "duration": 0.5
          },
          {
            "note": 55,
            "velocity": 115,
            "startTime": 38.5,
            "duration": 0.5
          },
          {
            "note": 43,
            "velocity": 120,
            "startTime": 39.0,
            "duration": 0.5
          },
          {
            "note": 55,
            "velocity": 115,
            "startTime": 39.5,
            "duration": 0.5
          },
          {
            "note": 36,
            "velocity": 127,
            "startTime": 40.0,
            "duration": 1.0
          },
          {
            "note": 48,
            "velocity": 120,
            "startTime": 41.0,
            "duration": 1.0
          },
          {
            "note": 36,
            "velocity": 127,
            "startTime": 42.0,
            "duration": 1.5
          },
          {
            "note": 48,
            "velocity": 127,
            "startTime": 43.5,
            "duration": 1.5
          }
        ]
      },
      {
        "name": "Timpani",
        "program": 47,
        "role": "drums",
        "totalDuration": 45,
        "notes": [
          {
            "note": 36,
            "velocity": 110,
            "startTime": 0,
            "duration": 0.5
          },
          {
            "note": 36,
            "velocity": 90,
            "startTime": 1.0,
            "duration": 0.3
          },
          {
            "note": 36,
            "velocity": 100,
            "startTime": 2.0,
            "duration": 0.5
          },
          {
            "note": 36,
            "velocity": 90,
            "startTime": 3.0,
            "duration": 0.3
          },
          {
            "note": 43,
            "velocity": 110,
            "startTime": 4.0,
            "duration": 0.5
          },
          {
            "note": 43,
            "velocity": 90,
            "startTime": 5.0,
            "duration": 0.3
          },
          {
            "note": 36,
            "velocity": 120,
            "startTime": 6.0,
            "duration": 1.0
          },
          {
            "note": 36,
            "velocity": 100,
            "startTime": 7.5,
            "duration": 0.3
          },
          {
            "note": 41,
            "velocity": 110,
            "startTime": 8.0,
            "duration": 0.5
          },
          {
            "note": 41,
            "velocity": 90,
            "startTime": 9.0,
            "duration": 0.3
          },
          {
            "note": 36,
            "velocity": 105,
            "startTime": 10.0,
            "duration": 0.5
          },
          {
            "note": 36,
            "velocity": 90,
            "startTime": 11.0,
            "duration": 0.3
          },
          {
            "note": 43,
            "velocity": 110,
            "startTime": 12.0,
            "duration": 0.5
          },
          {
            "note": 43,
            "velocity": 90,
            "startTime": 13.0,
            "duration": 0.3
          },
          {
            "note": 36,
            "velocity": 120,
            "startTime": 14.0,
            "duration": 1.0
          },
          {
            "note": 36,
            "velocity": 110,
            "startTime": 16.0,
            "duration": 0.5
          },
          {
            "note": 36,
            "velocity": 100,
            "startTime": 17.0,
            "duration": 0.3
          },
          {
            "note": 41,
            "velocity": 110,
            "startTime": 18.0,
            "duration": 0.5
          },
          {
            "note": 41,
            "velocity": 100,
            "startTime": 19.0,
            "duration": 0.3
          },
          {
            "note": 43,
            "velocity": 115,
            "startTime": 20.0,
            "duration": 0.5
          },
          {
            "note": 43,
            "velocity": 100,
            "startTime": 21.0,
            "duration": 0.3
          },
          {
            "note": 36,
            "velocity": 120,
            "startTime": 22.0,
            "duration": 0.5
          },
          {
            "note": 36,
            "velocity": 110,
            "startTime": 22.5,
            "duration": 0.25
          },
          {
            "note": 36,
            "velocity": 115,
            "startTime": 22.75,
            "duration": 0.25
          },
          {
            "note": 36,
            "velocity": 120,
            "startTime": 23.0,
            "duration": 0.5
          },
          {
            "note": 41,
            "velocity": 110,
            "startTime": 24.0,
            "duration": 0.5
          },
          {
            "note": 41,
            "velocity": 100,
            "startTime": 25.0,
            "duration": 0.3
          },
          {
            "note": 43,
            "velocity": 115,
            "startTime": 26.0,
            "duration": 0.5
          },
          {
            "note": 43,
            "velocity": 100,
            "startTime": 27.0,
            "duration": 0.3
          },
          {
            "note": 36,
            "velocity": 120,
            "startTime": 28.0,
            "duration": 0.5
          },
          {
            "note": 36,
            "velocity": 105,
            "startTime": 29.0,
            "duration": 0.3
          },
          {
            "note": 41,
            "velocity": 115,
            "startTime": 30.0,
            "duration": 0.5
          },
          {
            "note": 41,
            "velocity": 105,
            "startTime": 31.0,
            "duration": 0.3
          },
          {
            "note": 36,
            "velocity": 120,
            "startTime": 32.0,
            "duration": 0.5
          },
          {
            "note": 36,
            "velocity": 110,
            "startTime": 33.0,
            "duration": 0.3
          },
          {
            "note": 43,
            "velocity": 120,
            "startTime": 34.0,
            "duration": 0.5
          },
          {
            "note": 43,
            "velocity": 110,
            "startTime": 35.0,
            "duration": 0.3
          },
          {
            "note": 41,
            "velocity": 115,
            "startTime": 36.0,
            "duration": 0.5
          },
          {
            "note": 41,
            "velocity": 105,
            "startTime": 37.0,
            "duration": 0.3
          },
          {
            "note": 43,
            "velocity": 120,
            "startTime": 38.0,
            "duration": 0.5
          },
          {
            "note": 43,
            "velocity": 110,
            "startTime": 38.5,
            "duration": 0.25
          },
          {
            "note": 43,
            "velocity": 115,
            "startTime": 38.75,
            "duration": 0.25
          },
          {
            "note": 43,
            "velocity": 120,
            "startTime": 39.0,
            "duration": 0.5
          },
          {
            "note": 36,
            "velocity": 127,
            "startTime": 39.5,
            "duration": 0.5
          },
          {
            "note": 36,
            "velocity": 127,
            "startTime": 40.0,
            "duration": 1.0
          },
          {
            "note": 36,
            "velocity": 120,
            "startTime": 41.0,
            "duration": 0.5
          },
          {
            "note": 36,
            "velocity": 115,
            "startTime": 41.5,
            "duration": 0.5
          },
          {
            "note": 36,
            "velocity": 127,
            "startTime": 42.0,
            "duration": 0.5
          },
          {
            "note": 36,
            "velocity": 120,
            "startTime": 42.5,
            "duration": 0.25
          },
          {
            "note": 36,
            "velocity": 125,
            "startTime": 42.75,
            "duration": 0.25
          },
          {
            "note": 36,
            "velocity": 127,
            "startTime": 43.0,
            "duration": 0.5
          },
          {
            "note": 36,
            "velocity": 127,
            "startTime": 43.5,
            "duration": 0.5
          },
          {
            "note": 36,
            "velocity": 127,
            "startTime": 44.0,
            "duration": 1.0
          }
        ]
      }
    ],
    "key": "C",
    "bpm": 120,
    "scale": "major"
  },
  {
    "genre": "latin",
    "mode": "energize",
    "tracks": [],
    "key": "Am",
    "bpm": 120,
    "scale": "harmonic minor"
  },
  {
    "genre": "electronic",
    "mode": "energize",
    "tracks": [],
    "key": "Am",
    "bpm": 128,
    "scale": "minor"
  }
]