{
  "genre": "reggae",
  "mode": "relaxation",
  "tracks": [
    {
      "name": "Nylon Guitar Melody",
      "program": 24,
      "role": "melody",
      "totalDuration": 48,
      "notes": [
        {
          "note": 67,
          "velocity": 58,
          "startTime": 0.25,
          "duration": 0.6
        },
        {
          "note": 69,
          "velocity": 62,
          "startTime": 1.0,
          "duration": 0.8
        },
        {
          "note": 67,
          "velocity": 60,
          "startTime": 2.0,
          "duration": 0.5
        },
        {
          "note": 64,
          "velocity": 55,
          "startTime": 2.75,
          "duration": 1.0
        },
        {
          "note": 62,
          "velocity": 58,
          "startTime": 4.0,
          "duration": 0.6
        },
        {
          "note": 64,
          "velocity": 62,
          "startTime": 5.0,
          "duration": 0.8
        },
        {
          "note": 67,
          "velocity": 65,
          "startTime": 6.0,
          "duration": 0.5
        },
        {
          "note": 69,
          "velocity": 60,
          "startTime": 6.75,
          "duration": 1.2
        },
        {
          "note": 67,
          "velocity": 58,
          "startTime": 8.25,
          "duration": 0.6
        },
        {
          "note": 69,
          "velocity": 62,
          "startTime": 9.0,
          "duration": 0.8
        },
        {
          "note": 71,
          "velocity": 65,
          "startTime": 10.0,
          "duration": 0.5
        },
        {
          "note": 69,
          "velocity": 60,
          "startTime": 10.75,
          "duration": 0.9
        },
        {
          "note": 67,
          "velocity": 58,
          "startTime": 12.0,
          "duration": 0.6
        },
        {
          "note": 64,
          "velocity": 55,
          "startTime": 13.0,
          "duration": 0.8
        },
        {
          "note": 62,
          "velocity": 62,
          "startTime": 14.0,
          "duration": 0.5
        },
        {
          "note": 60,
          "velocity": 58,
          "startTime": 14.75,
          "duration": 1.4
        },
        {
          "note": 67,
          "velocity": 58,
          "startTime": 16.25,
          "duration": 0.6
        },
        {
          "note": 69,
          "velocity": 62,
          "startTime": 17.0,
          "duration": 0.8
        },
        {
          "note": 67,
          "velocity": 60,
          "startTime": 18.0,
          "duration": 0.5
        },
        {
          "note": 64,
          "velocity": 55,
          "startTime": 18.75,
          "duration": 1.0
        },
        {
          "note": 62,
          "velocity": 58,
          "startTime": 20.0,
          "duration": 0.6
        },
        {
          "note": 64,
          "velocity": 62,
          "startTime": 21.0,
          "duration": 0.8
        },
        {
          "note": 67,
          "velocity": 65,
          "startTime": 22.0,
          "duration": 0.5
        },
        {
          "note": 69,
          "velocity": 60,
          "startTime": 22.75,
          "duration": 1.2
        },
        {
          "note": 71,
          "velocity": 62,
          "startTime": 24.25,
          "duration": 0.6
        },
        {
          "note": 72,
          "velocity": 65,
          "startTime": 25.0,
          "duration": 0.9
        },
        {
          "note": 71,
          "velocity": 60,
          "startTime": 26.0,
          "duration": 0.5
        },
        {
          "note": 69,
          "velocity": 58,
          "startTime": 26.75,
          "duration": 1.0
        },
        {
          "note": 67,
          "velocity": 58,
          "startTime": 28.0,
          "duration": 0.7
        },
        {
          "note": 69,
          "velocity": 62,
          "startTime": 29.0,
          "duration": 0.8
        },
        {
          "note": 71,
          "velocity": 65,
          "startTime": 30.0,
          "duration": 0.5
        },
        {
          "note": 67,
          "velocity": 55,
          "startTime": 30.75,
          "duration": 1.4
        },
        {
          "note": 67,
          "velocity": 58,
          "startTime": 32.25,
          "duration": 0.6
        },
        {
          "note": 69,
          "velocity": 62,
          "startTime": 33.0,
          "duration": 0.8
        },
        {
          "note": 67,
          "velocity": 60,
          "startTime": 34.0,
          "duration": 0.5
        },
        {
          "note": 64,
          "velocity": 55,
          "startTime": 34.75,
          "duration": 1.0
        },
        {
          "note": 62,
          "velocity": 58,
          "startTime": 36.0,
          "duration": 0.6
        },
        {
          "note": 64,
          "velocity": 62,
          "startTime": 37.0,
          "duration": 0.8
        },
        {
          "note": 67,
          "velocity": 65,
          "startTime": 38.0,
          "duration": 0.5
        },
        {
          "note": 69,
          "velocity": 60,
          "startTime": 38.75,
          "duration": 1.2
        },
        {
          "note": 67,
          "velocity": 58,
          "startTime": 40.25,
          "duration": 0.6
        },
        {
          "note": 64,
          "velocity": 55,
          "startTime": 41.0,
          "duration": 0.8
        },
        {
          "note": 62,
          "velocity": 58,
          "startTime": 42.0,
          "duration": 0.6
        },
        {
          "note": 60,
          "velocity": 55,
          "startTime": 43.0,
          "duration": 0.8
        },
        {
          "note": 62,
          "velocity": 60,
          "startTime": 44.0,
          "duration": 0.5
        },
        {
          "note": 64,
          "velocity": 58,
          "startTime": 44.75,
          "duration": 0.9
        },
        {
          "note": 67,
          "velocity": 62,
          "startTime": 46.0,
          "duration": 0.7
        },
        {
          "note": 65,
          "velocity": 55,
          "startTime": 47.0,
          "duration": 1.2
        }
      ]
    },
    {
      "name": "Reggae Electric Bass",
      "program": 33,
      "role": "bass",
      "totalDuration": 48,
      "notes": [
        {
          "note": 43,
          "velocity": 88,
          "startTime": 0,
          "duration": 0.65
        },
        {
          "note": 43,
          "velocity": 82,
          "startTime": 0.75,
          "duration": 0.35
        },
        {
          "note": 43,
          "velocity": 86,
          "startTime": 2.0,
          "duration": 0.65
        },
        {
          "note": 43,
          "velocity": 80,
          "startTime": 2.75,
          "duration": 0.35
        },
        {
          "note": 41,
          "velocity": 88,
          "startTime": 4.0,
          "duration": 0.65
        },
        {
          "note": 41,
          "velocity": 82,
          "startTime": 4.75,
          "duration": 0.35
        },
        {
          "note": 41,
          "velocity": 86,
          "startTime": 6.0,
          "duration": 0.65
        },
        {
          "note": 41,
          "velocity": 80,
          "startTime": 6.75,
          "duration": 0.35
        },
        {
          "note": 43,
          "velocity": 88,
          "startTime": 8.0,
          "duration": 0.65
        },
        {
          "note": 43,
          "velocity": 82,
          "startTime": 8.75,
          "duration": 0.35
        },
        {
          "note": 43,
          "velocity": 86,
          "startTime": 10.0,
          "duration": 0.65
        },
        {
          "note": 43,
          "velocity": 80,
          "startTime": 10.75,
          "duration": 0.35
        },
        {
          "note": 38,
          "velocity": 88,
          "startTime": 12.0,
          "duration": 0.65
        },
        {
          "note": 38,
          "velocity": 82,
          "startTime": 12.75,
          "duration": 0.35
        },
        {
          "note": 36,
          "velocity": 86,
          "startTime": 14.0,
          "duration": 0.65
        },
        {
          "note": 36,
          "velocity": 80,
          "startTime": 14.75,
          "duration": 0.35
        },
        {
          "note": 43,
          "velocity": 88,
          "startTime": 16.0,
          "duration": 0.65
        },
        {
          "note": 43,
          "velocity": 82,
          "startTime": 16.75,
          "duration": 0.35
        },
        {
          "note": 43,
          "velocity": 86,
          "startTime": 18.0,
          "duration": 0.65
        },
        {
          "note": 43,
          "velocity": 80,
          "startTime": 18.75,
          "duration": 0.35
        },
        {
          "note": 41,
          "velocity": 88,
          "startTime": 20.0,
          "duration": 0.65
        },
        {
          "note": 41,
          "velocity": 82,
          "startTime": 20.75,
          "duration": 0.35
        },
        {
          "note": 41,
          "velocity": 86,
          "startTime": 22.0,
          "duration": 0.65
        },
        {
          "note": 41,
          "velocity": 80,
          "startTime": 22.75,
          "duration": 0.35
        },
        {
          "note": 43,
          "velocity": 88,
          "startTime": 24.0,
          "duration": 0.65
        },
        {
          "note": 43,
          "velocity": 82,
          "startTime": 24.75,
          "duration": 0.35
        },
        {
          "note": 43,
          "velocity": 86,
          "startTime": 26.0,
          "duration": 0.65
        },
        {
          "note": 43,
          "velocity": 80,
          "startTime": 26.75,
          "duration": 0.35
        },
        {
          "note": 38,
          "velocity": 88,
          "startTime": 28.0,
          "duration": 0.65
        },
        {
          "note": 38,
          "velocity": 82,
          "startTime": 28.75,
          "duration": 0.35
        },
        {
          "note": 36,
          "velocity": 86,
          "startTime": 30.0,
          "duration": 0.65
        },
        {
          "note": 36,
          "velocity": 80,
          "startTime": 30.75,
          "duration": 0.35
        },
        {
          "note": 43,
          "velocity": 88,
          "startTime": 32.0,
          "duration": 0.65
        },
        {
          "note": 43,
          "velocity": 82,
          "startTime": 32.75,
          "duration": 0.35
        },
        {
          "note": 43,
          "velocity": 86,
          "startTime": 34.0,
          "duration": 0.65
        },
        {
          "note": 43,
          "velocity": 80,
          "startTime": 34.75,
          "duration": 0.35
        },
        {
          "note": 41,
          "velocity": 88,
          "startTime": 36.0,
          "duration": 0.65
        },
        {
          "note": 41,
          "velocity": 82,
          "startTime": 36.75,
          "duration": 0.35
        },
        {
          "note": 41,
          "velocity": 86,
          "startTime": 38.0,
          "duration": 0.65
        },
        {
          "note": 41,
          "velocity": 80,
          "startTime": 38.75,
          "duration": 0.35
        },
        {
          "note": 38,
          "velocity": 88,
          "startTime": 40.0,
          "duration": 0.65
        },
        {
          "note": 38,
          "velocity": 82,
          "startTime": 40.75,
          "duration": 0.35
        },
        {
          "note": 36,
          "velocity": 86,
          "startTime": 42.0,
          "duration": 0.65
        },
        {
          "note": 36,
          "velocity": 80,
          "startTime": 42.75,
          "duration": 0.35
        },
        {
          "note": 43,
          "velocity": 88,
          "startTime": 44.0,
          "duration": 0.65
        },
        {
          "note": 43,
          "velocity": 82,
          "startTime": 44.75,
          "duration": 0.35
        },
        {
          "note": 43,
          "velocity": 86,
          "startTime": 46.0,
          "duration": 0.65
        },
        {
          "note": 43,
          "velocity": 80,
          "startTime": 46.75,
          "duration": 0.35
        }
      ]
    },
    {
      "name": "Organ Chord Pads",
      "program": 16,
      "role": "chords",
      "totalDuration": 48,
      "notes": [
        {
          "note": 55,
          "velocity": 58,
          "startTime": 0.5,
          "duration": 1.4
        },
        {
          "note": 59,
          "velocity": 55,
          "startTime": 0.5,
          "duration": 1.4
        },
        {
          "note": 62,
          "velocity": 52,
          "startTime": 0.5,
          "duration": 1.4
        },
        {
          "note": 67,
          "velocity": 50,
          "startTime": 0.5,
          "duration": 1.4
        },
        {
          "note": 55,
          "velocity": 56,
          "startTime": 2.5,
          "duration": 1.4
        },
        {
          "note": 59,
          "velocity": 54,
          "startTime": 2.5,
          "duration": 1.4
        },
        {
          "note": 62,
          "velocity": 51,
          "startTime": 2.5,
          "duration": 1.4
        },
        {
          "note": 67,
          "velocity": 49,
          "startTime": 2.5,
          "duration": 1.4
        },
        {
          "note": 53,
          "velocity": 58,
          "startTime": 4.5,
          "duration": 1.4
        },
        {
          "note": 57,
          "velocity": 55,
          "startTime": 4.5,
          "duration": 1.4
        },
        {
          "note": 60,
          "velocity": 52,
          "startTime": 4.5,
          "duration": 1.4
        },
        {
          "note": 65,
          "velocity": 50,
          "startTime": 4.5,
          "duration": 1.4
        },
        {
          "note": 53,
          "velocity": 56,
          "startTime": 6.5,
          "duration": 1.4
        },
        {
          "note": 57,
          "velocity": 54,
          "startTime": 6.5,
          "duration": 1.4
        },
        {
          "note": 60,
          "velocity": 51,
          "startTime": 6.5,
          "duration": 1.4
        },
        {
          "note": 65,
          "velocity": 49,
          "startTime": 6.5,
          "duration": 1.4
        },
        {
          "note": 55,
          "velocity": 58,
          "startTime": 8.5,
          "duration": 1.4
        },
        {
          "note": 59,
          "velocity": 55,
          "startTime": 8.5,
          "duration": 1.4
        },
        {
          "note": 62,
          "velocity": 52,
          "startTime": 8.5,
          "duration": 1.4
        },
        {
          "note": 67,
          "velocity": 50,
          "startTime": 8.5,
          "duration": 1.4
        },
        {
          "note": 55,
          "velocity": 56,
          "startTime": 10.5,
          "duration": 1.4
        },
        {
          "note": 59,
          "velocity": 54,
          "startTime": 10.5,
          "duration": 1.4
        },
        {
          "note": 62,
          "velocity": 51,
          "startTime": 10.5,
          "duration": 1.4
        },
        {
          "note": 67,
          "velocity": 49,
          "startTime": 10.5,
          "duration": 1.4
        },
        {
          "note": 50,
          "velocity": 58,
          "startTime": 12.5,
          "duration": 1.4
        },
        {
          "note": 53,
          "velocity": 55,
          "startTime": 12.5,
          "duration": 1.4
        },
        {
          "note": 57,
          "velocity": 52,
          "startTime": 12.5,
          "duration": 1.4
        },
        {
          "note": 62,
          "velocity": 50,
          "startTime": 12.5,
          "duration": 1.4
        },
        {
          "note": 48,
          "velocity": 58,
          "startTime": 14.5,
          "duration": 1.4
        },
        {
          "note": 52,
          "velocity": 55,
          "startTime": 14.5,
          "duration": 1.4
        },
        {
          "note": 55,
          "velocity": 52,
          "startTime": 14.5,
          "duration": 1.4
        },
        {
          "note": 59,
          "velocity": 50,
          "startTime": 14.5,
          "duration": 1.4
        },
        {
          "note": 55,
          "velocity": 58,
          "startTime": 16.5,
          "duration": 1.4
        },
        {
          "note": 59,
          "velocity": 55,
          "startTime": 16.5,
          "duration": 1.4
        },
        {
          "note": 62,
          "velocity": 52,
          "startTime": 16.5,
          "duration": 1.4
        },
        {
          "note": 67,
          "velocity": 50,
          "startTime": 16.5,
          "duration": 1.4
        },
        {
          "note": 55,
          "velocity": 56,
          "startTime": 18.5,
          "duration": 1.4
        },
        {
          "note": 59,
          "velocity": 54,
          "startTime": 18.5,
          "duration": 1.4
        },
        {
          "note": 62,
          "velocity": 51,
          "startTime": 18.5,
          "duration": 1.4
        },
        {
          "note": 67,
          "velocity": 49,
          "startTime": 18.5,
          "duration": 1.4
        },
        {
          "note": 53,
          "velocity": 58,
          "startTime": 20.5,
          "duration": 1.4
        },
        {
          "note": 57,
          "velocity": 55,
          "startTime": 20.5,
          "duration": 1.4
        },
        {
          "note": 60,
          "velocity": 52,
          "startTime": 20.5,
          "duration": 1.4
        },
        {
          "note": 65,
          "velocity": 50,
          "startTime": 20.5,
          "duration": 1.4
        },
        {
          "note": 53,
          "velocity": 56,
          "startTime": 22.5,
          "duration": 1.4
        },
        {
          "note": 57,
          "velocity": 54,
          "startTime": 22.5,
          "duration": 1.4
        },
        {
          "note": 60,
          "velocity": 51,
          "startTime": 22.5,
          "duration": 1.4
        },
        {
          "note": 65,
          "velocity": 49,
          "startTime": 22.5,
          "duration": 1.4
        },
        {
          "note": 55,
          "velocity": 58,
          "startTime": 24.5,
          "duration": 1.4
        },
        {
          "note": 59,
          "velocity": 55,
          "startTime": 24.5,
          "duration": 1.4
        },
        {
          "note": 62,
          "velocity": 52,
          "startTime": 24.5,
          "duration": 1.4
        },
        {
          "note": 67,
          "velocity": 50,
          "startTime": 24.5,
          "duration": 1.4
        },
        {
          "note": 55,
          "velocity": 56,
          "startTime": 26.5,
          "duration": 1.4
        },
        {
          "note": 59,
          "velocity": 54,
          "startTime": 26.5,
          "duration": 1.4
        },
        {
          "note": 62,
          "velocity": 51,
          "startTime": 26.5,
          "duration": 1.4
        },
        {
          "note": 67,
          "velocity": 49,
          "startTime": 26.5,
          "duration": 1.4
        },
        {
          "note": 50,
          "velocity": 58,
          "startTime": 28.5,
          "duration": 1.4
        },
        {
          "note": 53,
          "velocity": 55,
          "startTime": 28.5,
          "duration": 1.4
        },
        {
          "note": 57,
          "velocity": 52,
          "startTime": 28.5,
          "duration": 1.4
        },
        {
          "note": 62,
          "velocity": 50,
          "startTime": 28.5,
          "duration": 1.4
        },
        {
          "note": 48,
          "velocity": 58,
          "startTime": 30.5,
          "duration": 1.4
        },
        {
          "note": 52,
          "velocity": 55,
          "startTime": 30.5,
          "duration": 1.4
        },
        {
          "note": 55,
          "velocity": 52,
          "startTime": 30.5,
          "duration": 1.4
        },
        {
          "note": 59,
          "velocity": 50,
          "startTime": 30.5,
          "duration": 1.4
        },
        {
          "note": 55,
          "velocity": 58,
          "startTime": 32.5,
          "duration": 1.4
        },
        {
          "note": 59,
          "velocity": 55,
          "startTime": 32.5,
          "duration": 1.4
        },
        {
          "note": 62,
          "velocity": 52,
          "startTime": 32.5,
          "duration": 1.4
        },
        {
          "note": 67,
          "velocity": 50,
          "startTime": 32.5,
          "duration": 1.4
        },
        {
          "note": 55,
          "velocity": 56,
          "startTime": 34.5,
          "duration": 1.4
        },
        {
          "note": 59,
          "velocity": 54,
          "startTime": 34.5,
          "duration": 1.4
        },
        {
          "note": 62,
          "velocity": 51,
          "startTime": 34.5,
          "duration": 1.4
        },
        {
          "note": 67,
          "velocity": 49,
          "startTime": 34.5,
          "duration": 1.4
        },
        {
          "note": 53,
          "velocity": 58,
          "startTime": 36.5,
          "duration": 1.4
        },
        {
          "note": 57,
          "velocity": 55,
          "startTime": 36.5,
          "duration": 1.4
        },
        {
          "note": 60,
          "velocity": 52,
          "startTime": 36.5,
          "duration": 1.4
        },
        {
          "note": 65,
          "velocity": 50,
          "startTime": 36.5,
          "duration": 1.4
        },
        {
          "note": 53,
          "velocity": 56,
          "startTime": 38.5,
          "duration": 1.4
        },
        {
          "note": 57,
          "velocity": 54,
          "startTime": 38.5,
          "duration": 1.4
        },
        {
          "note": 60,
          "velocity": 51,
          "startTime": 38.5,
          "duration": 1.4
        },
        {
          "note": 65,
          "velocity": 49,
          "startTime": 38.5,
          "duration": 1.4
        },
        {
          "note": 50,
          "velocity": 58,
          "startTime": 40.5,
          "duration": 1.4
        },
        {
          "note": 53,
          "velocity": 55,
          "startTime": 40.5,
          "duration": 1.4
        },
        {
          "note": 57,
          "velocity": 52,
          "startTime": 40.5,
          "duration": 1.4
        },
        {
          "note": 62,
          "velocity": 50,
          "startTime": 40.5,
          "duration": 1.4
        },
        {
          "note": 48,
          "velocity": 58,
          "startTime": 42.5,
          "duration": 1.4
        },
        {
          "note": 52,
          "velocity": 55,
          "startTime": 42.5,
          "duration": 1.4
        },
        {
          "note": 55,
          "velocity": 52,
          "startTime": 42.5,
          "duration": 1.4
        },
        {
          "note": 59,
          "velocity": 50,
          "startTime": 42.5,
          "duration": 1.4
        },
        {
          "note": 55,
          "velocity": 60,
          "startTime": 44.5,
          "duration": 1.6
        },
        {
          "note": 59,
          "velocity": 57,
          "startTime": 44.5,
          "duration": 1.6
        },
        {
          "note": 62,
          "velocity": 54,
          "startTime": 44.5,
          "duration": 1.6
        },
        {
          "note": 67,
          "velocity": 52,
          "startTime": 44.5,
          "duration": 1.6
        },
        {
          "note": 55,
          "velocity": 56,
          "startTime": 46.5,
          "duration": 1.6
        },
        {
          "note": 59,
          "velocity": 53,
          "startTime": 46.5,
          "duration": 1.6
        },
        {
          "note": 62,
          "velocity": 50,
          "startTime": 46.5,
          "duration": 1.6
        },
        {
          "note": 67,
          "velocity": 48,
          "startTime": 46.5,
          "duration": 1.6
        }
      ]
    },
    {
      "name": "Piano Texture Layer",
      "program": 0,
      "role": "texture",
      "totalDuration": 48,
      "notes": [
        {
          "note": 74,
          "velocity": 42,
          "startTime": 1.5,
          "duration": 3.5
        },
        {
          "note": 71,
          "velocity": 38,
          "startTime": 5.5,
          "duration": 3.5
        },
        {
          "note": 72,
          "velocity": 42,
          "startTime": 9.5,
          "duration": 3.5
        },
        {
          "note": 69,
          "velocity": 40,
          "startTime": 13.5,
          "duration": 3.5
        },
        {
          "note": 74,
          "velocity": 42,
          "startTime": 17.5,
          "duration": 3.5
        },
        {
          "note": 71,
          "velocity": 38,
          "startTime": 21.5,
          "duration": 3.5
        },
        {
          "note": 76,
          "velocity": 44,
          "startTime": 25.5,
          "duration": 4.0
        },
        {
          "note": 74,
          "velocity": 42,
          "startTime": 29.5,
          "duration": 3.5
        },
        {
          "note": 72,
          "velocity": 40,
          "startTime": 33.5,
          "duration": 3.5
        },
        {
          "note": 71,
          "velocity": 38,
          "startTime": 37.5,
          "duration": 3.5
        },
        {
          "note": 69,
          "velocity": 38,
          "startTime": 41.5,
          "duration": 3.5
        },
        {
          "note": 67,
          "velocity": 42,
          "startTime": 45.5,
          "duration": 3.0
        },
        {
          "note": 55,
          "velocity": 35,
          "startTime": 3.5,
          "duration": 4.0
        },
        {
          "note": 53,
          "velocity": 32,
          "startTime": 11.5,
          "duration": 4.0
        },
        {
          "note": 55,
          "velocity": 35,
          "startTime": 19.5,
          "duration": 4.0
        },
        {
          "note": 57,
          "velocity": 35,
          "startTime": 27.5,
          "duration": 4.0
        },
        {
          "note": 53,
          "velocity": 32,
          "startTime": 35.5,
          "duration": 4.0
        },
        {
          "note": 55,
          "velocity": 38,
          "startTime": 43.5,
          "duration": 4.5
        }
      ]
    }
  ],
  "key": "G",
  "bpm": 63,
  "scale": "mixolydian"
}