{
  "genre": "reggae",
  "mode": "sleep",
  "tracks": [
    {
      "name": "Nylon Guitar Melody",
      "program": 24,
      "role": "melody",
      "totalDuration": 56,
      "notes": [
        {
          "note": 62,
          "velocity": 42,
          "startTime": 0.5,
          "duration": 2.8
        },
        {
          "note": 60,
          "velocity": 38,
          "startTime": 3.6,
          "duration": 2.2
        },
        {
          "note": 57,
          "velocity": 40,
          "startTime": 6.4,
          "duration": 3.5
        },
        {
          "note": 55,
          "velocity": 35,
          "startTime": 10.8,
          "duration": 4.2
        },
        {
          "note": 62,
          "velocity": 41,
          "startTime": 15.5,
          "duration": 2.6
        },
        {
          "note": 60,
          "velocity": 37,
          "startTime": 18.4,
          "duration": 2.0
        },
        {
          "note": 62,
          "velocity": 43,
          "startTime": 21.2,
          "duration": 3.8
        },
        {
          "note": 57,
          "velocity": 36,
          "startTime": 25.6,
          "duration": 5.0
        },
        {
          "note": 64,
          "velocity": 44,
          "startTime": 31.5,
          "duration": 2.4
        },
        {
          "note": 62,
          "velocity": 40,
          "startTime": 34.6,
          "duration": 2.8
        },
        {
          "note": 60,
          "velocity": 38,
          "startTime": 37.8,
          "duration": 3.2
        },
        {
          "note": 57,
          "velocity": 35,
          "startTime": 41.6,
          "duration": 4.8
        },
        {
          "note": 55,
          "velocity": 33,
          "startTime": 47.2,
          "duration": 5.5
        },
        {
          "note": 52,
          "velocity": 30,
          "startTime": 53.5,
          "duration": 4.2
        }
      ]
    },
    {
      "name": "Reggae Bass",
      "program": 33,
      "role": "bass",
      "totalDuration": 56,
      "notes": [
        {
          "note": 43,
          "velocity": 52,
          "startTime": 0.1,
          "duration": 1.8
        },
        {
          "note": 43,
          "velocity": 45,
          "startTime": 2.7,
          "duration": 1.2
        },
        {
          "note": 38,
          "velocity": 50,
          "startTime": 5.5,
          "duration": 1.9
        },
        {
          "note": 38,
          "velocity": 43,
          "startTime": 8.3,
          "duration": 1.3
        },
        {
          "note": 40,
          "velocity": 51,
          "startTime": 11.1,
          "duration": 1.8
        },
        {
          "note": 40,
          "velocity": 44,
          "startTime": 13.9,
          "duration": 1.1
        },
        {
          "note": 43,
          "velocity": 50,
          "startTime": 16.6,
          "duration": 1.7
        },
        {
          "note": 43,
          "velocity": 42,
          "startTime": 19.4,
          "duration": 1.3
        },
        {
          "note": 38,
          "velocity": 52,
          "startTime": 22.1,
          "duration": 1.9
        },
        {
          "note": 38,
          "velocity": 44,
          "startTime": 24.9,
          "duration": 1.2
        },
        {
          "note": 40,
          "velocity": 50,
          "startTime": 27.7,
          "duration": 1.8
        },
        {
          "note": 40,
          "velocity": 43,
          "startTime": 30.5,
          "duration": 1.1
        },
        {
          "note": 43,
          "velocity": 51,
          "startTime": 33.2,
          "duration": 1.8
        },
        {
          "note": 43,
          "velocity": 43,
          "startTime": 36.0,
          "duration": 1.3
        },
        {
          "note": 38,
          "velocity": 50,
          "startTime": 38.8,
          "duration": 1.9
        },
        {
          "note": 38,
          "velocity": 42,
          "startTime": 41.6,
          "duration": 1.2
        },
        {
          "note": 40,
          "velocity": 51,
          "startTime": 44.3,
          "duration": 1.8
        },
        {
          "note": 40,
          "velocity": 43,
          "startTime": 47.1,
          "duration": 1.4
        },
        {
          "note": 43,
          "velocity": 48,
          "startTime": 49.9,
          "duration": 2.0
        },
        {
          "note": 38,
          "velocity": 42,
          "startTime": 53.3,
          "duration": 3.5
        }
      ]
    },
    {
      "name": "Organ Chord Pads",
      "program": 16,
      "role": "chords",
      "totalDuration": 56,
      "notes": [
        {
          "note": 55,
          "velocity": 40,
          "startTime": 0.6,
          "duration": 10.8
        },
        {
          "note": 59,
          "velocity": 37,
          "startTime": 0.6,
          "duration": 10.8
        },
        {
          "note": 62,
          "velocity": 35,
          "startTime": 0.6,
          "duration": 10.8
        },
        {
          "note": 50,
          "velocity": 38,
          "startTime": 11.7,
          "duration": 10.6
        },
        {
          "note": 54,
          "velocity": 35,
          "startTime": 11.7,
          "duration": 10.6
        },
        {
          "note": 57,
          "velocity": 33,
          "startTime": 11.7,
          "duration": 10.6
        },
        {
          "note": 52,
          "velocity": 39,
          "startTime": 22.5,
          "duration": 10.8
        },
        {
          "note": 55,
          "velocity": 36,
          "startTime": 22.5,
          "duration": 10.8
        },
        {
          "note": 59,
          "velocity": 34,
          "startTime": 22.5,
          "duration": 10.8
        },
        {
          "note": 55,
          "velocity": 40,
          "startTime": 33.5,
          "duration": 10.4
        },
        {
          "note": 59,
          "velocity": 37,
          "startTime": 33.5,
          "duration": 10.4
        },
        {
          "note": 62,
          "velocity": 35,
          "startTime": 33.5,
          "duration": 10.4
        },
        {
          "note": 50,
          "velocity": 38,
          "startTime": 44.1,
          "duration": 7.5
        },
        {
          "note": 54,
          "velocity": 35,
          "startTime": 44.1,
          "duration": 7.5
        },
        {
          "note": 57,
          "velocity": 33,
          "startTime": 44.1,
          "duration": 7.5
        },
        {
          "note": 52,
          "velocity": 34,
          "startTime": 51.8,
          "duration": 5.5
        },
        {
          "note": 55,
          "velocity": 32,
          "startTime": 51.8,
          "duration": 5.5
        },
        {
          "note": 59,
          "velocity": 30,
          "startTime": 51.8,
          "duration": 5.5
        }
      ]
    },
    {
      "name": "Ambient Piano Texture",
      "program": 0,
      "role": "texture",
      "totalDuration": 56,
      "notes": [
        {
          "note": 43,
          "velocity": 28,
          "startTime": 1.2,
          "duration": 7.5
        },
        {
          "note": 47,
          "velocity": 25,
          "startTime": 1.4,
          "duration": 7.2
        },
        {
          "note": 38,
          "velocity": 27,
          "startTime": 12.0,
          "duration": 8.0
        },
        {
          "note": 45,
          "velocity": 24,
          "startTime": 12.3,
          "duration": 7.6
        },
        {
          "note": 40,
          "velocity": 26,
          "startTime": 23.1,
          "duration": 8.2
        },
        {
          "note": 47,
          "velocity": 23,
          "startTime": 23.5,
          "duration": 7.8
        },
        {
          "note": 43,
          "velocity": 27,
          "startTime": 34.2,
          "duration": 8.0
        },
        {
          "note": 47,
          "velocity": 24,
          "startTime": 34.6,
          "duration": 7.5
        },
        {
          "note": 38,
          "velocity": 25,
          "startTime": 44.5,
          "duration": 6.8
        },
        {
          "note": 43,
          "velocity": 22,
          "startTime": 44.9,
          "duration": 6.4
        },
        {
          "note": 40,
          "velocity": 20,
          "startTime": 52.0,
          "duration": 5.0
        },
        {
          "note": 43,
          "velocity": 18,
          "startTime": 52.5,
          "duration": 4.5
        }
      ]
    }
  ],
  "key": "G",
  "bpm": 48,
  "scale": "mixolydian"
}