{
  "genre": "rock",
  "mode": "relaxation",
  "tracks": [
    {
      "name": "Melodic Guitar",
      "program": 29,
      "role": "melody",
      "totalDuration": 48,
      "notes": [
        {
          "note": 64,
          "velocity": 62,
          "startTime": 0,
          "duration": 0.9
        },
        {
          "note": 62,
          "velocity": 58,
          "startTime": 1.0,
          "duration": 0.7
        },
        {
          "note": 59,
          "velocity": 65,
          "startTime": 1.85,
          "duration": 1.4
        },
        {
          "note": 57,
          "velocity": 60,
          "startTime": 3.4,
          "duration": 0.8
        },
        {
          "note": 59,
          "velocity": 63,
          "startTime": 4.3,
          "duration": 1.6
        },
        {
          "note": 64,
          "velocity": 62,
          "startTime": 6.1,
          "duration": 0.9
        },
        {
          "note": 62,
          "velocity": 58,
          "startTime": 7.05,
          "duration": 0.7
        },
        {
          "note": 59,
          "velocity": 65,
          "startTime": 7.85,
          "duration": 1.4
        },
        {
          "note": 55,
          "velocity": 60,
          "startTime": 9.35,
          "duration": 0.8
        },
        {
          "note": 57,
          "velocity": 63,
          "startTime": 10.2,
          "duration": 2.0
        },
        {
          "note": 67,
          "velocity": 65,
          "startTime": 12.3,
          "duration": 0.9
        },
        {
          "note": 64,
          "velocity": 62,
          "startTime": 13.25,
          "duration": 0.7
        },
        {
          "note": 62,
          "velocity": 60,
          "startTime": 14.05,
          "duration": 0.9
        },
        {
          "note": 59,
          "velocity": 68,
          "startTime": 15.05,
          "duration": 1.8
        },
        {
          "note": 64,
          "velocity": 62,
          "startTime": 17.1,
          "duration": 0.9
        },
        {
          "note": 62,
          "velocity": 58,
          "startTime": 18.05,
          "duration": 0.7
        },
        {
          "note": 60,
          "velocity": 65,
          "startTime": 18.85,
          "duration": 1.1
        },
        {
          "note": 59,
          "velocity": 60,
          "startTime": 20.05,
          "duration": 2.2
        },
        {
          "note": 64,
          "velocity": 62,
          "startTime": 22.4,
          "duration": 0.9
        },
        {
          "note": 62,
          "velocity": 58,
          "startTime": 23.35,
          "duration": 0.7
        },
        {
          "note": 59,
          "velocity": 65,
          "startTime": 24.15,
          "duration": 1.4
        },
        {
          "note": 57,
          "velocity": 60,
          "startTime": 25.65,
          "duration": 0.8
        },
        {
          "note": 59,
          "velocity": 63,
          "startTime": 26.55,
          "duration": 1.6
        },
        {
          "note": 64,
          "velocity": 62,
          "startTime": 28.4,
          "duration": 0.9
        },
        {
          "note": 62,
          "velocity": 58,
          "startTime": 29.35,
          "duration": 0.7
        },
        {
          "note": 59,
          "velocity": 65,
          "startTime": 30.15,
          "duration": 1.4
        },
        {
          "note": 55,
          "velocity": 60,
          "startTime": 31.65,
          "duration": 0.8
        },
        {
          "note": 57,
          "velocity": 63,
          "startTime": 32.55,
          "duration": 2.2
        },
        {
          "note": 67,
          "velocity": 65,
          "startTime": 35.0,
          "duration": 0.9
        },
        {
          "note": 64,
          "velocity": 62,
          "startTime": 36.0,
          "duration": 0.7
        },
        {
          "note": 62,
          "velocity": 60,
          "startTime": 36.85,
          "duration": 0.9
        },
        {
          "note": 60,
          "velocity": 65,
          "startTime": 37.85,
          "duration": 1.0
        },
        {
          "note": 59,
          "velocity": 68,
          "startTime": 38.95,
          "duration": 1.6
        },
        {
          "note": 55,
          "velocity": 62,
          "startTime": 40.8,
          "duration": 1.0
        },
        {
          "note": 57,
          "velocity": 60,
          "startTime": 42.0,
          "duration": 0.9
        },
        {
          "note": 59,
          "velocity": 65,
          "startTime": 43.05,
          "duration": 1.3
        },
        {
          "note": 57,
          "velocity": 58,
          "startTime": 44.5,
          "duration": 0.8
        },
        {
          "note": 55,
          "velocity": 55,
          "startTime": 45.5,
          "duration": 2.5
        }
      ]
    },
    {
      "name": "Electric Bass",
      "program": 33,
      "role": "bass",
      "totalDuration": 48,
      "notes": [
        {
          "note": 40,
          "velocity": 68,
          "startTime": 0,
          "duration": 3.8
        },
        {
          "note": 40,
          "velocity": 65,
          "startTime": 4.0,
          "duration": 3.8
        },
        {
          "note": 36,
          "velocity": 68,
          "startTime": 8.0,
          "duration": 3.8
        },
        {
          "note": 38,
          "velocity": 65,
          "startTime": 12.0,
          "duration": 3.8
        },
        {
          "note": 40,
          "velocity": 68,
          "startTime": 16.0,
          "duration": 3.8
        },
        {
          "note": 40,
          "velocity": 65,
          "startTime": 20.0,
          "duration": 3.8
        },
        {
          "note": 36,
          "velocity": 68,
          "startTime": 24.0,
          "duration": 3.8
        },
        {
          "note": 38,
          "velocity": 65,
          "startTime": 28.0,
          "duration": 3.8
        },
        {
          "note": 40,
          "velocity": 68,
          "startTime": 32.0,
          "duration": 3.8
        },
        {
          "note": 36,
          "velocity": 68,
          "startTime": 36.0,
          "duration": 3.8
        },
        {
          "note": 38,
          "velocity": 65,
          "startTime": 40.0,
          "duration": 3.8
        },
        {
          "note": 40,
          "velocity": 60,
          "startTime": 44.0,
          "duration": 4.0
        }
      ]
    },
    {
      "name": "Warm Chord Pad",
      "program": 89,
      "role": "chords",
      "totalDuration": 48,
      "notes": [
        {
          "note": 52,
          "velocity": 55,
          "startTime": 0,
          "duration": 7.7
        },
        {
          "note": 55,
          "velocity": 52,
          "startTime": 0,
          "duration": 7.7
        },
        {
          "note": 59,
          "velocity": 50,
          "startTime": 0,
          "duration": 7.7
        },
        {
          "note": 64,
          "velocity": 48,
          "startTime": 0,
          "duration": 7.7
        },
        {
          "note": 48,
          "velocity": 55,
          "startTime": 8.0,
          "duration": 7.7
        },
        {
          "note": 52,
          "velocity": 52,
          "startTime": 8.0,
          "duration": 7.7
        },
        {
          "note": 55,
          "velocity": 50,
          "startTime": 8.0,
          "duration": 7.7
        },
        {
          "note": 60,
          "velocity": 48,
          "startTime": 8.0,
          "duration": 7.7
        },
        {
          "note": 50,
          "velocity": 55,
          "startTime": 16.0,
          "duration": 7.7
        },
        {
          "note": 53,
          "velocity": 52,
          "startTime": 16.0,
          "duration": 7.7
        },
        {
          "note": 57,
          "velocity": 50,
          "startTime": 16.0,
          "duration": 7.7
        },
        {
          "note": 62,
          "velocity": 48,
          "startTime": 16.0,
          "duration": 7.7
        },
        {
          "note": 52,
          "velocity": 55,
          "startTime": 24.0,
          "duration": 7.7
        },
        {
          "note": 55,
          "velocity": 52,
          "startTime": 24.0,
          "duration": 7.7
        },
        {
          "note": 59,
          "velocity": 50,
          "startTime": 24.0,
          "duration": 7.7
        },
        {
          "note": 64,
          "velocity": 48,
          "startTime": 24.0,
          "duration": 7.7
        },
        {
          "note": 48,
          "velocity": 55,
          "startTime": 32.0,
          "duration": 7.7
        },
        {
          "note": 52,
          "velocity": 52,
          "startTime": 32.0,
          "duration": 7.7
        },
        {
          "note": 55,
          "velocity": 50,
          "startTime": 32.0,
          "duration": 7.7
        },
        {
          "note": 60,
          "velocity": 48,
          "startTime": 32.0,
          "duration": 7.7
        },
        {
          "note": 50,
          "velocity": 52,
          "startTime": 40.0,
          "duration": 7.8
        },
        {
          "note": 53,
          "velocity": 50,
          "startTime": 40.0,
          "duration": 7.8
        },
        {
          "note": 57,
          "velocity": 48,
          "startTime": 40.0,
          "duration": 7.8
        },
        {
          "note": 62,
          "velocity": 45,
          "startTime": 40.0,
          "duration": 7.8
        }
      ]
    },
    {
      "name": "Ambient Texture",
      "program": 89,
      "role": "texture",
      "totalDuration": 48,
      "notes": [
        {
          "note": 76,
          "velocity": 30,
          "startTime": 0.5,
          "duration": 7.0
        },
        {
          "note": 72,
          "velocity": 28,
          "startTime": 8.3,
          "duration": 7.0
        },
        {
          "note": 74,
          "velocity": 30,
          "startTime": 16.2,
          "duration": 7.0
        },
        {
          "note": 76,
          "velocity": 30,
          "startTime": 24.6,
          "duration": 7.0
        },
        {
          "note": 72,
          "velocity": 28,
          "startTime": 32.4,
          "duration": 7.0
        },
        {
          "note": 74,
          "velocity": 25,
          "startTime": 40.8,
          "duration": 7.0
        }
      ]
    }
  ],
  "key": "Em",
  "bpm": 62,
  "scale": "natural minor"
}