{
  "genre": "blues",
  "mode": "energize",
  "mixStrategy": "Driving 12-bar blues energizer: Steel Guitar leads with bluesy bends and phrases in mid-range, Electric Bass walks quarter-note lines through chord tones and chromatic approaches, Piano comps with rhythmic 7th-chord stabs on upbeats, Drums provide shuffle feel with triplet hi-hats. Mix: Drums foundation, Bass anchoring low-end, Piano mid-spread, Steel Guitar on top. All follow A7(I7)-D7(IV7)-E7(V7) 12-bar form.",
  "tracks": [
    {
      "name": "Steel Guitar Melody",
      "program": 25,
      "role": "melody",
      "frequencyRole": "high-mid (C4-C5, ~261-523Hz) - bluesy lead phrases sitting above piano comping",
      "suggestedVolume": 0.82,
      "totalDuration": 45,
      "notes": [
        {
          "note": 69,
          "velocity": 95,
          "startTime": 0,
          "duration": 0.63
        },
        {
          "note": 72,
          "velocity": 90,
          "startTime": 0.63,
          "duration": 0.63
        },
        {
          "note": 74,
          "velocity": 88,
          "startTime": 1.26,
          "duration": 0.42
        },
        {
          "note": 75,
          "velocity": 92,
          "startTime": 1.68,
          "duration": 0.21
        },
        {
          "note": 76,
          "velocity": 97,
          "startTime": 1.89,
          "duration": 1.26
        },
        {
          "note": 72,
          "velocity": 85,
          "startTime": 3.16,
          "duration": 0.63
        },
        {
          "note": 69,
          "velocity": 88,
          "startTime": 3.79,
          "duration": 0.63
        },
        {
          "note": 67,
          "velocity": 80,
          "startTime": 4.42,
          "duration": 0.42
        },
        {
          "note": 69,
          "velocity": 90,
          "startTime": 4.84,
          "duration": 1.47
        },
        {
          "note": 72,
          "velocity": 92,
          "startTime": 6.32,
          "duration": 0.63
        },
        {
          "note": 74,
          "velocity": 88,
          "startTime": 6.95,
          "duration": 0.42
        },
        {
          "note": 76,
          "velocity": 95,
          "startTime": 7.37,
          "duration": 0.84
        },
        {
          "note": 74,
          "velocity": 85,
          "startTime": 8.21,
          "duration": 0.42
        },
        {
          "note": 72,
          "velocity": 90,
          "startTime": 8.63,
          "duration": 0.63
        },
        {
          "note": 69,
          "velocity": 88,
          "startTime": 9.47,
          "duration": 1.26
        },
        {
          "note": 67,
          "velocity": 82,
          "startTime": 10.74,
          "duration": 0.63
        },
        {
          "note": 69,
          "velocity": 90,
          "startTime": 11.37,
          "duration": 0.84
        },
        {
          "note": 72,
          "velocity": 95,
          "startTime": 12.63,
          "duration": 0.63
        },
        {
          "note": 74,
          "velocity": 92,
          "startTime": 13.26,
          "duration": 0.42
        },
        {
          "note": 76,
          "velocity": 97,
          "startTime": 13.68,
          "duration": 0.63
        },
        {
          "note": 79,
          "velocity": 100,
          "startTime": 14.32,
          "duration": 1.05
        },
        {
          "note": 76,
          "velocity": 88,
          "startTime": 15.37,
          "duration": 0.63
        },
        {
          "note": 74,
          "velocity": 85,
          "startTime": 16.0,
          "duration": 0.63
        },
        {
          "note": 72,
          "velocity": 90,
          "startTime": 16.63,
          "duration": 1.26
        },
        {
          "note": 69,
          "velocity": 85,
          "startTime": 18.95,
          "duration": 0.63
        },
        {
          "note": 72,
          "velocity": 92,
          "startTime": 19.58,
          "duration": 0.84
        },
        {
          "note": 76,
          "velocity": 97,
          "startTime": 20.42,
          "duration": 1.26
        },
        {
          "note": 74,
          "velocity": 88,
          "startTime": 21.68,
          "duration": 0.42
        },
        {
          "note": 72,
          "velocity": 85,
          "startTime": 22.11,
          "duration": 0.63
        },
        {
          "note": 69,
          "velocity": 90,
          "startTime": 22.74,
          "duration": 1.05
        },
        {
          "note": 67,
          "velocity": 82,
          "startTime": 23.79,
          "duration": 0.42
        },
        {
          "note": 64,
          "velocity": 78,
          "startTime": 24.21,
          "duration": 0.63
        },
        {
          "note": 67,
          "velocity": 85,
          "startTime": 24.84,
          "duration": 0.63
        },
        {
          "note": 69,
          "velocity": 95,
          "startTime": 25.47,
          "duration": 1.26
        },
        {
          "note": 72,
          "velocity": 90,
          "startTime": 27.79,
          "duration": 0.63
        },
        {
          "note": 74,
          "velocity": 88,
          "startTime": 28.42,
          "duration": 0.42
        },
        {
          "note": 76,
          "velocity": 95,
          "startTime": 28.84,
          "duration": 0.84
        },
        {
          "note": 79,
          "velocity": 100,
          "startTime": 29.68,
          "duration": 1.05
        },
        {
          "note": 76,
          "velocity": 92,
          "startTime": 30.74,
          "duration": 0.63
        },
        {
          "note": 74,
          "velocity": 88,
          "startTime": 31.37,
          "duration": 0.63
        },
        {
          "note": 72,
          "velocity": 90,
          "startTime": 32.0,
          "duration": 1.26
        },
        {
          "note": 69,
          "velocity": 85,
          "startTime": 33.26,
          "duration": 0.63
        },
        {
          "note": 67,
          "velocity": 80,
          "startTime": 33.89,
          "duration": 0.42
        },
        {
          "note": 69,
          "velocity": 92,
          "startTime": 34.32,
          "duration": 1.26
        },
        {
          "note": 76,
          "velocity": 97,
          "startTime": 35.58,
          "duration": 0.84
        },
        {
          "note": 79,
          "velocity": 100,
          "startTime": 36.42,
          "duration": 1.26
        },
        {
          "note": 76,
          "velocity": 90,
          "startTime": 37.68,
          "duration": 0.63
        },
        {
          "note": 74,
          "velocity": 88,
          "startTime": 38.32,
          "duration": 0.63
        },
        {
          "note": 72,
          "velocity": 92,
          "startTime": 38.95,
          "duration": 0.84
        },
        {
          "note": 69,
          "velocity": 88,
          "startTime": 39.79,
          "duration": 0.63
        },
        {
          "note": 67,
          "velocity": 82,
          "startTime": 40.42,
          "duration": 0.42
        },
        {
          "note": 64,
          "velocity": 78,
          "startTime": 40.84,
          "duration": 0.63
        },
        {
          "note": 67,
          "velocity": 85,
          "startTime": 41.47,
          "duration": 0.63
        },
        {
          "note": 69,
          "velocity": 100,
          "startTime": 42.11,
          "duration": 2.89
        }
      ]
    },
    {
      "name": "Electric Bass Walking",
      "program": 33,
      "role": "bass",
      "frequencyRole": "low (E1-E3, ~41-165Hz) - walking bass line providing harmonic foundation and forward motion",
      "suggestedVolume": 0.78,
      "totalDuration": 45,
      "notes": [
        {
          "note": 45,
          "velocity": 100,
          "startTime": 0,
          "duration": 0.58
        },
        {
          "note": 49,
          "velocity": 90,
          "startTime": 0.63,
          "duration": 0.58
        },
        {
          "note": 52,
          "velocity": 92,
          "startTime": 1.26,
          "duration": 0.58
        },
        {
          "note": 54,
          "velocity": 88,
          "startTime": 1.89,
          "duration": 0.58
        },
        {
          "note": 45,
          "velocity": 100,
          "startTime": 2.53,
          "duration": 0.58
        },
        {
          "note": 48,
          "velocity": 88,
          "startTime": 3.16,
          "duration": 0.58
        },
        {
          "note": 49,
          "velocity": 92,
          "startTime": 3.79,
          "duration": 0.58
        },
        {
          "note": 43,
          "velocity": 85,
          "startTime": 4.42,
          "duration": 0.58
        },
        {
          "note": 45,
          "velocity": 100,
          "startTime": 5.05,
          "duration": 0.58
        },
        {
          "note": 52,
          "velocity": 90,
          "startTime": 5.68,
          "duration": 0.58
        },
        {
          "note": 49,
          "velocity": 92,
          "startTime": 6.32,
          "duration": 0.58
        },
        {
          "note": 47,
          "velocity": 85,
          "startTime": 6.95,
          "duration": 0.58
        },
        {
          "note": 45,
          "velocity": 100,
          "startTime": 7.58,
          "duration": 0.58
        },
        {
          "note": 49,
          "velocity": 90,
          "startTime": 8.21,
          "duration": 0.58
        },
        {
          "note": 52,
          "velocity": 88,
          "startTime": 8.84,
          "duration": 0.58
        },
        {
          "note": 51,
          "velocity": 85,
          "startTime": 9.47,
          "duration": 0.58
        },
        {
          "note": 50,
          "velocity": 100,
          "startTime": 10.11,
          "duration": 0.58
        },
        {
          "note": 54,
          "velocity": 90,
          "startTime": 10.74,
          "duration": 0.58
        },
        {
          "note": 57,
          "velocity": 92,
          "startTime": 11.37,
          "duration": 0.58
        },
        {
          "note": 55,
          "velocity": 85,
          "startTime": 12.0,
          "duration": 0.58
        },
        {
          "note": 50,
          "velocity": 100,
          "startTime": 12.63,
          "duration": 0.58
        },
        {
          "note": 48,
          "velocity": 88,
          "startTime": 13.26,
          "duration": 0.58
        },
        {
          "note": 47,
          "velocity": 85,
          "startTime": 13.89,
          "duration": 0.58
        },
        {
          "note": 46,
          "velocity": 82,
          "startTime": 14.53,
          "duration": 0.58
        },
        {
          "note": 45,
          "velocity": 100,
          "startTime": 15.16,
          "duration": 0.58
        },
        {
          "note": 49,
          "velocity": 92,
          "startTime": 15.79,
          "duration": 0.58
        },
        {
          "note": 52,
          "velocity": 90,
          "startTime": 16.42,
          "duration": 0.58
        },
        {
          "note": 54,
          "velocity": 88,
          "startTime": 17.05,
          "duration": 0.58
        },
        {
          "note": 45,
          "velocity": 100,
          "startTime": 17.68,
          "duration": 0.58
        },
        {
          "note": 48,
          "velocity": 88,
          "startTime": 18.32,
          "duration": 0.58
        },
        {
          "note": 49,
          "velocity": 92,
          "startTime": 18.95,
          "duration": 0.58
        },
        {
          "note": 43,
          "velocity": 85,
          "startTime": 19.58,
          "duration": 0.58
        },
        {
          "note": 50,
          "velocity": 100,
          "startTime": 20.21,
          "duration": 0.58
        },
        {
          "note": 54,
          "velocity": 90,
          "startTime": 20.84,
          "duration": 0.58
        },
        {
          "note": 57,
          "velocity": 92,
          "startTime": 21.47,
          "duration": 0.58
        },
        {
          "note": 55,
          "velocity": 85,
          "startTime": 22.11,
          "duration": 0.58
        },
        {
          "note": 50,
          "velocity": 100,
          "startTime": 22.74,
          "duration": 0.58
        },
        {
          "note": 52,
          "velocity": 90,
          "startTime": 23.37,
          "duration": 0.58
        },
        {
          "note": 49,
          "velocity": 88,
          "startTime": 24.0,
          "duration": 0.58
        },
        {
          "note": 47,
          "velocity": 85,
          "startTime": 24.63,
          "duration": 0.58
        },
        {
          "note": 45,
          "velocity": 100,
          "startTime": 25.26,
          "duration": 0.58
        },
        {
          "note": 49,
          "velocity": 92,
          "startTime": 25.89,
          "duration": 0.58
        },
        {
          "note": 52,
          "velocity": 90,
          "startTime": 26.53,
          "duration": 0.58
        },
        {
          "note": 54,
          "velocity": 88,
          "startTime": 27.16,
          "duration": 0.58
        },
        {
          "note": 45,
          "velocity": 100,
          "startTime": 27.79,
          "duration": 0.58
        },
        {
          "note": 48,
          "velocity": 88,
          "startTime": 28.42,
          "duration": 0.58
        },
        {
          "note": 52,
          "velocity": 92,
          "startTime": 29.05,
          "duration": 0.58
        },
        {
          "note": 51,
          "velocity": 85,
          "startTime": 29.68,
          "duration": 0.58
        },
        {
          "note": 52,
          "velocity": 100,
          "startTime": 30.32,
          "duration": 0.58
        },
        {
          "note": 56,
          "velocity": 92,
          "startTime": 30.95,
          "duration": 0.58
        },
        {
          "note": 52,
          "velocity": 90,
          "startTime": 31.58,
          "duration": 0.58
        },
        {
          "note": 50,
          "velocity": 85,
          "startTime": 32.21,
          "duration": 0.58
        },
        {
          "note": 50,
          "velocity": 100,
          "startTime": 32.84,
          "duration": 0.58
        },
        {
          "note": 54,
          "velocity": 90,
          "startTime": 33.47,
          "duration": 0.58
        },
        {
          "note": 50,
          "velocity": 88,
          "startTime": 34.11,
          "duration": 0.58
        },
        {
          "note": 48,
          "velocity": 85,
          "startTime": 34.74,
          "duration": 0.58
        },
        {
          "note": 45,
          "velocity": 100,
          "startTime": 35.37,
          "duration": 0.58
        },
        {
          "note": 49,
          "velocity": 92,
          "startTime": 36.0,
          "duration": 0.58
        },
        {
          "note": 52,
          "velocity": 90,
          "startTime": 36.63,
          "duration": 0.58
        },
        {
          "note": 54,
          "velocity": 88,
          "startTime": 37.26,
          "duration": 0.58
        },
        {
          "note": 52,
          "velocity": 100,
          "startTime": 37.89,
          "duration": 0.58
        },
        {
          "note": 56,
          "velocity": 92,
          "startTime": 38.53,
          "duration": 0.58
        },
        {
          "note": 52,
          "velocity": 88,
          "startTime": 39.16,
          "duration": 0.58
        },
        {
          "note": 51,
          "velocity": 85,
          "startTime": 39.79,
          "duration": 0.58
        },
        {
          "note": 45,
          "velocity": 100,
          "startTime": 40.42,
          "duration": 0.58
        },
        {
          "note": 49,
          "velocity": 92,
          "startTime": 41.05,
          "duration": 0.58
        },
        {
          "note": 52,
          "velocity": 90,
          "startTime": 41.68,
          "duration": 0.58
        },
        {
          "note": 45,
          "velocity": 105,
          "startTime": 42.32,
          "duration": 2.68
        }
      ]
    },
    {
      "name": "Piano Comping",
      "program": 0,
      "role": "chords",
      "frequencyRole": "mid (C3-C5, ~131-523Hz) - rhythmic 7th chord voicings providing harmonic color on upbeats",
      "suggestedVolume": 0.65,
      "totalDuration": 45,
      "notes": [
        {
          "note": 61,
          "velocity": 80,
          "startTime": 0.32,
          "duration": 0.26
        },
        {
          "note": 64,
          "velocity": 78,
          "startTime": 0.32,
          "duration": 0.26
        },
        {
          "note": 67,
          "velocity": 75,
          "startTime": 0.32,
          "duration": 0.26
        },
        {
          "note": 61,
          "velocity": 82,
          "startTime": 1.58,
          "duration": 0.26
        },
        {
          "note": 64,
          "velocity": 80,
          "startTime": 1.58,
          "duration": 0.26
        },
        {
          "note": 67,
          "velocity": 77,
          "startTime": 1.58,
          "duration": 0.26
        },
        {
          "note": 61,
          "velocity": 78,
          "startTime": 2.84,
          "duration": 0.26
        },
        {
          "note": 64,
          "velocity": 76,
          "startTime": 2.84,
          "duration": 0.26
        },
        {
          "note": 67,
          "velocity": 74,
          "startTime": 2.84,
          "duration": 0.26
        },
        {
          "note": 61,
          "velocity": 82,
          "startTime": 4.11,
          "duration": 0.26
        },
        {
          "note": 64,
          "velocity": 80,
          "startTime": 4.11,
          "duration": 0.26
        },
        {
          "note": 67,
          "velocity": 77,
          "startTime": 4.11,
          "duration": 0.26
        },
        {
          "note": 61,
          "velocity": 80,
          "startTime": 5.37,
          "duration": 0.26
        },
        {
          "note": 64,
          "velocity": 78,
          "startTime": 5.37,
          "duration": 0.26
        },
        {
          "note": 67,
          "velocity": 75,
          "startTime": 5.37,
          "duration": 0.26
        },
        {
          "note": 61,
          "velocity": 82,
          "startTime": 6.63,
          "duration": 0.26
        },
        {
          "note": 64,
          "velocity": 80,
          "startTime": 6.63,
          "duration": 0.26
        },
        {
          "note": 67,
          "velocity": 77,
          "startTime": 6.63,
          "duration": 0.26
        },
        {
          "note": 61,
          "velocity": 78,
          "startTime": 7.89,
          "duration": 0.26
        },
        {
          "note": 64,
          "velocity": 76,
          "startTime": 7.89,
          "duration": 0.26
        },
        {
          "note": 67,
          "velocity": 74,
          "startTime": 7.89,
          "duration": 0.26
        },
        {
          "note": 61,
          "velocity": 82,
          "startTime": 9.16,
          "duration": 0.26
        },
        {
          "note": 64,
          "velocity": 80,
          "startTime": 9.16,
          "duration": 0.26
        },
        {
          "note": 67,
          "velocity": 77,
          "startTime": 9.16,
          "duration": 0.26
        },
        {
          "note": 66,
          "velocity": 82,
          "startTime": 10.42,
          "duration": 0.26
        },
        {
          "note": 69,
          "velocity": 80,
          "startTime": 10.42,
          "duration": 0.26
        },
        {
          "note": 72,
          "velocity": 77,
          "startTime": 10.42,
          "duration": 0.26
        },
        {
          "note": 66,
          "velocity": 80,
          "startTime": 11.68,
          "duration": 0.26
        },
        {
          "note": 69,
          "velocity": 78,
          "startTime": 11.68,
          "duration": 0.26
        },
        {
          "note": 72,
          "velocity": 75,
          "startTime": 11.68,
          "duration": 0.26
        },
        {
          "note": 61,
          "velocity": 82,
          "startTime": 12.95,
          "duration": 0.26
        },
        {
          "note": 64,
          "velocity": 80,
          "startTime": 12.95,
          "duration": 0.26
        },
        {
          "note": 67,
          "velocity": 77,
          "startTime": 12.95,
          "duration": 0.26
        },
        {
          "note": 61,
          "velocity": 78,
          "startTime": 14.21,
          "duration": 0.26
        },
        {
          "note": 64,
          "velocity": 76,
          "startTime": 14.21,
          "duration": 0.26
        },
        {
          "note": 67,
          "velocity": 74,
          "startTime": 14.21,
          "duration": 0.26
        },
        {
          "note": 61,
          "velocity": 82,
          "startTime": 15.47,
          "duration": 0.26
        },
        {
          "note": 64,
          "velocity": 80,
          "startTime": 15.47,
          "duration": 0.26
        },
        {
          "note": 67,
          "velocity": 77,
          "startTime": 15.47,
          "duration": 0.26
        },
        {
          "note": 61,
          "velocity": 80,
          "startTime": 16.74,
          "duration": 0.26
        },
        {
          "note": 64,
          "velocity": 78,
          "startTime": 16.74,
          "duration": 0.26
        },
        {
          "note": 67,
          "velocity": 75,
          "startTime": 16.74,
          "duration": 0.26
        },
        {
          "note": 61,
          "velocity": 82,
          "startTime": 18.0,
          "duration": 0.26
        },
        {
          "note": 64,
          "velocity": 80,
          "startTime": 18.0,
          "duration": 0.26
        },
        {
          "note": 67,
          "velocity": 77,
          "startTime": 18.0,
          "duration": 0.26
        },
        {
          "note": 61,
          "velocity": 78,
          "startTime": 19.26,
          "duration": 0.26
        },
        {
          "note": 64,
          "velocity": 76,
          "startTime": 19.26,
          "duration": 0.26
        },
        {
          "note": 67,
          "velocity": 74,
          "startTime": 19.26,
          "duration": 0.26
        },
        {
          "note": 66,
          "velocity": 82,
          "startTime": 20.53,
          "duration": 0.26
        },
        {
          "note": 69,
          "velocity": 80,
          "startTime": 20.53,
          "duration": 0.26
        },
        {
          "note": 72,
          "velocity": 77,
          "startTime": 20.53,
          "duration": 0.26
        },
        {
          "note": 66,
          "velocity": 80,
          "startTime": 21.79,
          "duration": 0.26
        },
        {
          "note": 69,
          "velocity": 78,
          "startTime": 21.79,
          "duration": 0.26
        },
        {
          "note": 72,
          "velocity": 75,
          "startTime": 21.79,
          "duration": 0.26
        },
        {
          "note": 66,
          "velocity": 82,
          "startTime": 23.05,
          "duration": 0.26
        },
        {
          "note": 69,
          "velocity": 80,
          "startTime": 23.05,
          "duration": 0.26
        },
        {
          "note": 72,
          "velocity": 77,
          "startTime": 23.05,
          "duration": 0.26
        },
        {
          "note": 66,
          "velocity": 78,
          "startTime": 24.32,
          "duration": 0.26
        },
        {
          "note": 69,
          "velocity": 76,
          "startTime": 24.32,
          "duration": 0.26
        },
        {
          "note": 72,
          "velocity": 74,
          "startTime": 24.32,
          "duration": 0.26
        },
        {
          "note": 61,
          "velocity": 82,
          "startTime": 25.58,
          "duration": 0.26
        },
        {
          "note": 64,
          "velocity": 80,
          "startTime": 25.58,
          "duration": 0.26
        },
        {
          "note": 67,
          "velocity": 77,
          "startTime": 25.58,
          "duration": 0.26
        },
        {
          "note": 61,
          "velocity": 80,
          "startTime": 26.84,
          "duration": 0.26
        },
        {
          "note": 64,
          "velocity": 78,
          "startTime": 26.84,
          "duration": 0.26
        },
        {
          "note": 67,
          "velocity": 75,
          "startTime": 26.84,
          "duration": 0.26
        },
        {
          "note": 61,
          "velocity": 82,
          "startTime": 28.11,
          "duration": 0.26
        },
        {
          "note": 64,
          "velocity": 80,
          "startTime": 28.11,
          "duration": 0.26
        },
        {
          "note": 67,
          "velocity": 77,
          "startTime": 28.11,
          "duration": 0.26
        },
        {
          "note": 61,
          "velocity": 78,
          "startTime": 29.37,
          "duration": 0.26
        },
        {
          "note": 64,
          "velocity": 76,
          "startTime": 29.37,
          "duration": 0.26
        },
        {
          "note": 67,
          "velocity": 74,
          "startTime": 29.37,
          "duration": 0.26
        },
        {
          "note": 68,
          "velocity": 85,
          "startTime": 30.63,
          "duration": 0.26
        },
        {
          "note": 71,
          "velocity": 82,
          "startTime": 30.63,
          "duration": 0.26
        },
        {
          "note": 74,
          "velocity": 78,
          "startTime": 30.63,
          "duration": 0.26
        },
        {
          "note": 68,
          "velocity": 82,
          "startTime": 31.89,
          "duration": 0.26
        },
        {
          "note": 71,
          "velocity": 80,
          "startTime": 31.89,
          "duration": 0.26
        },
        {
          "note": 74,
          "velocity": 77,
          "startTime": 31.89,
          "duration": 0.26
        },
        {
          "note": 66,
          "velocity": 82,
          "startTime": 33.16,
          "duration": 0.26
        },
        {
          "note": 69,
          "velocity": 80,
          "startTime": 33.16,
          "duration": 0.26
        },
        {
          "note": 72,
          "velocity": 77,
          "startTime": 33.16,
          "duration": 0.26
        },
        {
          "note": 66,
          "velocity": 78,
          "startTime": 34.42,
          "duration": 0.26
        },
        {
          "note": 69,
          "velocity": 76,
          "startTime": 34.42,
          "duration": 0.26
        },
        {
          "note": 72,
          "velocity": 74,
          "startTime": 34.42,
          "duration": 0.26
        },
        {
          "note": 61,
          "velocity": 82,
          "startTime": 35.68,
          "duration": 0.26
        },
        {
          "note": 64,
          "velocity": 80,
          "startTime": 35.68,
          "duration": 0.26
        },
        {
          "note": 67,
          "velocity": 77,
          "startTime": 35.68,
          "duration": 0.26
        },
        {
          "note": 61,
          "velocity": 80,
          "startTime": 36.95,
          "duration": 0.26
        },
        {
          "note": 64,
          "velocity": 78,
          "startTime": 36.95,
          "duration": 0.26
        },
        {
          "note": 67,
          "velocity": 75,
          "startTime": 36.95,
          "duration": 0.26
        },
        {
          "note": 68,
          "velocity": 85,
          "startTime": 38.21,
          "duration": 0.26
        },
        {
          "note": 71,
          "velocity": 82,
          "startTime": 38.21,
          "duration": 0.26
        },
        {
          "note": 74,
          "velocity": 78,
          "startTime": 38.21,
          "duration": 0.26
        },
        {
          "note": 68,
          "velocity": 82,
          "startTime": 39.47,
          "duration": 0.26
        },
        {
          "note": 71,
          "velocity": 80,
          "startTime": 39.47,
          "duration": 0.26
        },
        {
          "note": 74,
          "velocity": 77,
          "startTime": 39.47,
          "duration": 0.26
        },
        {
          "note": 61,
          "velocity": 85,
          "startTime": 40.74,
          "duration": 0.26
        },
        {
          "note": 64,
          "velocity": 82,
          "startTime": 40.74,
          "duration": 0.26
        },
        {
          "note": 67,
          "velocity": 78,
          "startTime": 40.74,
          "duration": 0.26
        },
        {
          "note": 61,
          "velocity": 82,
          "startTime": 42.0,
          "duration": 0.26
        },
        {
          "note": 64,
          "velocity": 80,
          "startTime": 42.0,
          "duration": 0.26
        },
        {
          "note": 67,
          "velocity": 77,
          "startTime": 42.0,
          "duration": 0.26
        },
        {
          "note": 61,
          "velocity": 90,
          "startTime": 43.26,
          "duration": 0.95
        },
        {
          "note": 64,
          "velocity": 88,
          "startTime": 43.26,
          "duration": 0.95
        },
        {
          "note": 67,
          "velocity": 85,
          "startTime": 43.26,
          "duration": 0.95
        }
      ]
    },
    {
      "name": "Drums Shuffle",
      "program": 0,
      "role": "drums",
      "frequencyRole": "full spectrum - kick (low ~60Hz), snare (mid ~200Hz), hi-hat (high ~8kHz) providing shuffle groove foundation",
      "suggestedVolume": 0.75,
      "totalDuration": 45,
      "notes": [
        {
          "note": 36,
          "velocity": 110,
          "startTime": 0,
          "duration": 0.15
        },
        {
          "note": 42,
          "velocity": 85,
          "startTime": 0,
          "duration": 0.1
        },
        {
          "note": 42,
          "velocity": 60,
          "startTime": 0.42,
          "duration": 0.1
        },
        {
          "note": 38,
          "velocity": 100,
          "startTime": 0.63,
          "duration": 0.15
        },
        {
          "note": 42,
          "velocity": 85,
          "startTime": 0.63,
          "duration": 0.1
        },
        {
          "note": 42,
          "velocity": 60,
          "startTime": 1.05,
          "duration": 0.1
        },
        {
          "note": 36,
          "velocity": 110,
          "startTime": 1.26,
          "duration": 0.15
        },
        {
          "note": 42,
          "velocity": 85,
          "startTime": 1.26,
          "duration": 0.1
        },
        {
          "note": 42,
          "velocity": 60,
          "startTime": 1.68,
          "duration": 0.1
        },
        {
          "note": 38,
          "velocity": 100,
          "startTime": 1.89,
          "duration": 0.15
        },
        {
          "note": 42,
          "velocity": 85,
          "startTime": 1.89,
          "duration": 0.1
        },
        {
          "note": 42,
          "velocity": 60,
          "startTime": 2.32,
          "duration": 0.1
        },
        {
          "note": 36,
          "velocity": 110,
          "startTime": 2.53,
          "duration": 0.15
        },
        {
          "note": 42,
          "velocity": 85,
          "startTime": 2.53,
          "duration": 0.1
        },
        {
          "note": 42,
          "velocity": 60,
          "startTime": 2.95,
          "duration": 0.1
        },
        {
          "note": 38,
          "velocity": 100,
          "startTime": 3.16,
          "duration": 0.15
        },
        {
          "note": 42,
          "velocity": 85,
          "startTime": 3.16,
          "duration": 0.1
        },
        {
          "note": 42,
          "velocity": 60,
          "startTime": 3.58,
          "duration": 0.1
        },
        {
          "note": 36,
          "velocity": 110,
          "startTime": 3.79,
          "duration": 0.15
        },
        {
          "note": 42,
          "velocity": 85,
          "startTime": 3.79,
          "duration": 0.1
        },
        {
          "note": 42,
          "velocity": 60,
          "startTime": 4.21,
          "duration": 0.1
        },
        {
          "note": 38,
          "velocity": 100,
          "startTime": 4.42,
          "duration": 0.15
        },
        {
          "note": 42,
          "velocity": 85,
          "startTime": 4.42,
          "duration": 0.1
        },
        {
          "note": 42,
          "velocity": 60,
          "startTime": 4.84,
          "duration": 0.1
        },
        {
          "note": 36,
          "velocity": 110,
          "startTime": 5.05,
          "duration": 0.15
        },
        {
          "note": 42,
          "velocity": 85,
          "startTime": 5.05,
          "duration": 0.1
        },
        {
          "note": 42,
          "velocity": 60,
          "startTime": 5.47,
          "duration": 0.1
        },
        {
          "note": 38,
          "velocity": 100,
          "startTime": 5.68,
          "duration": 0.15
        },
        {
          "note": 42,
          "velocity": 85,
          "startTime": 5.68,
          "duration": 0.1
        },
        {
          "note": 42,
          "velocity": 60,
          "startTime": 6.11,
          "duration": 0.1
        },
        {
          "note": 36,
          "velocity": 110,
          "startTime": 6.32,
          "duration": 0.15
        },
        {
          "note": 42,
          "velocity": 85,
          "startTime": 6.32,
          "duration": 0.1
        },
        {
          "note": 42,
          "velocity": 60,
          "startTime": 6.74,
          "duration": 0.1
        },
        {
          "note": 38,
          "velocity": 100,
          "startTime": 6.95,
          "duration": 0.15
        },
        {
          "note": 42,
          "velocity": 85,
          "startTime": 6.95,
          "duration": 0.1
        },
        {
          "note": 42,
          "velocity": 60,
          "startTime": 7.37,
          "duration": 0.1
        },
        {
          "note": 36,
          "velocity": 110,
          "startTime": 7.58,
          "duration": 0.15
        },
        {
          "note": 42,
          "velocity": 85,
          "startTime": 7.58,
          "duration": 0.1
        },
        {
          "note": 42,
          "velocity": 60,
          "startTime": 8.0,
          "duration": 0.1
        },
        {
          "note": 38,
          "velocity": 100,
          "startTime": 8.21,
          "duration": 0.15
        },
        {
          "note": 42,
          "velocity": 85,
          "startTime": 8.21,
          "duration": 0.1
        },
        {
          "note": 42,
          "velocity": 60,
          "startTime": 8.63,
          "duration": 0.1
        },
        {
          "note": 36,
          "velocity": 110,
          "startTime": 8.84,
          "duration": 0.15
        },
        {
          "note": 42,
          "velocity": 85,
          "startTime": 8.84,
          "duration": 0.1
        },
        {
          "note": 42,
          "velocity": 60,
          "startTime": 9.26,
          "duration": 0.1
        },
        {
          "note": 38,
          "velocity": 100,
          "startTime": 9.47,
          "duration": 0.15
        },
        {
          "note": 42,
          "velocity": 85,
          "startTime": 9.47,
          "duration": 0.1
        },
        {
          "note": 42,
          "velocity": 60,
          "startTime": 9.89,
          "duration": 0.1
        },
        {
          "note": 36,
          "velocity": 110,
          "startTime": 10.11,
          "duration": 0.15
        },
        {
          "note": 42,
          "velocity": 85,
          "startTime": 10.11,
          "duration": 0.1
        },
        {
          "note": 42,
          "velocity": 60,
          "startTime": 10.53,
          "duration": 0.1
        },
        {
          "note": 38,
          "velocity": 100,
          "startTime": 10.74,
          "duration": 0.15
        },
        {
          "note": 42,
          "velocity": 85,
          "startTime": 10.74,
          "duration": 0.1
        },
        {
          "note": 42,
          "velocity": 60,
          "startTime": 11.16,
          "duration": 0.1
        },
        {
          "note": 36,
          "velocity": 110,
          "startTime": 11.37,
          "duration": 0.15
        },
        {
          "note": 42,
          "velocity": 85,
          "startTime": 11.37,
          "duration": 0.1
        },
        {
          "note": 42,
          "velocity": 60,
          "startTime": 11.79,
          "duration": 0.1
        },
        {
          "note": 38,
          "velocity": 100,
          "startTime": 12.0,
          "duration": 0.15
        },
        {
          "note": 42,
          "velocity": 85,
          "startTime": 12.0,
          "duration": 0.1
        },
        {
          "note": 42,
          "velocity": 60,
          "startTime": 12.42,
          "duration": 0.1
        },
        {
          "note": 36,
          "velocity": 110,
          "startTime": 12.63,
          "duration": 0.15
        },
        {
          "note": 42,
          "velocity": 85,
          "startTime": 12.63,
          "duration": 0.1
        },
        {
          "note": 42,
          "velocity": 60,
          "startTime": 13.05,
          "duration": 0.1
        },
        {
          "note": 38,
          "velocity": 100,
          "startTime": 13.26,
          "duration": 0.15
        },
        {
          "note": 42,
          "velocity": 85,
          "startTime": 13.26,
          "duration": 0.1
        },
        {
          "note": 42,
          "velocity": 60,
          "startTime": 13.68,
          "duration": 0.1
        },
        {
          "note": 36,
          "velocity": 110,
          "startTime": 13.89,
          "duration": 0.15
        },
        {
          "note": 42,
          "velocity": 85,
          "startTime": 13.89,
          "duration": 0.1
        },
        {
          "note": 42,
          "velocity": 60,
          "startTime": 14.32,
          "duration": 0.1
        },
        {
          "note": 38,
          "velocity": 100,
          "startTime": 14.53,
          "duration": 0.15
        },
        {
          "note": 42,
          "velocity": 85,
          "startTime": 14.53,
          "duration": 0.1
        },
        {
          "note": 42,
          "velocity": 60,
          "startTime": 14.95,
          "duration": 0.1
        },
        {
          "note": 36,
          "velocity": 110,
          "startTime": 15.16,
          "duration": 0.15
        },
        {
          "note": 42,
          "velocity": 85,
          "startTime": 15.16,
          "duration": 0.1
        },
        {
          "note": 42,
          "velocity": 60,
          "startTime": 15.58,
          "duration": 0.1
        },
        {
          "note": 38,
          "velocity": 100,
          "startTime": 15.79,
          "duration": 0.15
        },
        {
          "note": 42,
          "velocity": 85,
          "startTime": 15.79,
          "duration": 0.1
        },
        {
          "note": 42,
          "velocity": 60,
          "startTime": 16.21,
          "duration": 0.1
        },
        {
          "note": 36,
          "velocity": 110,
          "startTime": 16.42,
          "duration": 0.15
        },
        {
          "note": 42,
          "velocity": 85,
          "startTime": 16.42,
          "duration": 0.1
        },
        {
          "note": 42,
          "velocity": 60,
          "startTime": 16.84,
          "duration": 0.1
        },
        {
          "note": 38,
          "velocity": 100,
          "startTime": 17.05,
          "duration": 0.15
        },
        {
          "note": 42,
          "velocity": 85,
          "startTime": 17.05,
          "duration": 0.1
        },
        {
          "note": 42,
          "velocity": 60,
          "startTime": 17.47,
          "duration": 0.1
        },
        {
          "note": 36,
          "velocity": 110,
          "startTime": 17.68,
          "duration": 0.15
        },
        {
          "note": 42,
          "velocity": 85,
          "startTime": 17.68,
          "duration": 0.1
        },
        {
          "note": 42,
          "velocity": 60,
          "startTime": 18.11,
          "duration": 0.1
        },
        {
          "note": 38,
          "velocity": 100,
          "startTime": 18.32,
          "duration": 0.15
        },
        {
          "note": 42,
          "velocity": 85,
          "startTime": 18.32,
          "duration": 0.1
        },
        {
          "note": 42,
          "velocity": 60,
          "startTime": 18.74,
          "duration": 0.1
        },
        {
          "note": 36,
          "velocity": 110,
          "startTime": 18.95,
          "duration": 0.15
        },
        {
          "note": 42,
          "velocity": 85,
          "startTime": 18.95,
          "duration": 0.1
        },
        {
          "note": 42,
          "velocity": 60,
          "startTime": 19.37,
          "duration": 0.1
        },
        {
          "note": 38,
          "velocity": 100,
          "startTime": 19.58,
          "duration": 0.15
        },
        {
          "note": 42,
          "velocity": 85,
          "startTime": 19.58,
          "duration": 0.1
        },
        {
          "note": 42,
          "velocity": 60,
          "startTime": 20.0,
          "duration": 0.1
        },
        {
          "note": 36,
          "velocity": 110,
          "startTime": 20.21,
          "duration": 0.15
        },
        {
          "note": 42,
          "velocity": 85,
          "startTime": 20.21,
          "duration": 0.1
        },
        {
          "note": 42,
          "velocity": 60,
          "startTime": 20.63,
          "duration": 0.1
        },
        {
          "note": 38,
          "velocity": 100,
          "startTime": 20.84,
          "duration": 0.15
        },
        {
          "note": 42,
          "velocity": 85,
          "startTime": 20.84,
          "duration": 0.1
        },
        {
          "note": 42,
          "velocity": 60,
          "startTime": 21.26,
          "duration": 0.1
        },
        {
          "note": 36,
          "velocity": 110,
          "startTime": 21.47,
          "duration": 0.15
        },
        {
          "note": 42,
          "velocity": 85,
          "startTime": 21.47,
          "duration": 0.1
        },
        {
          "note": 42,
          "velocity": 60,
          "startTime": 21.89,
          "duration": 0.1
        },
        {
          "note": 38,
          "velocity": 100,
          "startTime": 22.11,
          "duration": 0.15
        },
        {
          "note": 42,
          "velocity": 85,
          "startTime": 22.11,
          "duration": 0.1
        },
        {
          "note": 42,
          "velocity": 60,
          "startTime": 22.53,
          "duration": 0.1
        },
        {
          "note": 36,
          "velocity": 110,
          "startTime": 22.74,
          "duration": 0.15
        },
        {
          "note": 42,
          "velocity": 85,
          "startTime": 22.74,
          "duration": 0.1
        },
        {
          "note": 42,
          "velocity": 60,
          "startTime": 23.16,
          "duration": 0.1
        },
        {
          "note": 38,
          "velocity": 100,
          "startTime": 23.37,
          "duration": 0.15
        },
        {
          "note": 42,
          "velocity": 85,
          "startTime": 23.37,
          "duration": 0.1
        },
        {
          "note": 42,
          "velocity": 60,
          "startTime": 23.79,
          "duration": 0.1
        },
        {
          "note": 36,
          "velocity": 110,
          "startTime": 24.0,
          "duration": 0.15
        },
        {
          "note": 42,
          "velocity": 85,
          "startTime": 24.0,
          "duration": 0.1
        },
        {
          "note": 42,
          "velocity": 60,
          "startTime": 24.42,
          "duration": 0.1
        },
        {
          "note": 38,
          "velocity": 100,
          "startTime": 24.63,
          "duration": 0.15
        },
        {
          "note": 42,
          "velocity": 85,
          "startTime": 24.63,
          "duration": 0.1
        },
        {
          "note": 42,
          "velocity": 60,
          "startTime": 25.05,
          "duration": 0.1
        },
        {
          "note": 36,
          "velocity": 110,
          "startTime": 25.26,
          "duration": 0.15
        },
        {
          "note": 42,
          "velocity": 85,
          "startTime": 25.26,
          "duration": 0.1
        },
        {
          "note": 42,
          "velocity": 60,
          "startTime": 25.68,
          "duration": 0.1
        },
        {
          "note": 38,
          "velocity": 100,
          "startTime": 25.89,
          "duration": 0.15
        },
        {
          "note": 42,
          "velocity": 85,
          "startTime": 25.89,
          "duration": 0.1
        },
        {
          "note": 42,
          "velocity": 60,
          "startTime": 26.32,
          "duration": 0.1
        },
        {
          "note": 36,
          "velocity": 110,
          "startTime": 26.53,
          "duration": 0.15
        },
        {
          "note": 42,
          "velocity": 85,
          "startTime": 26.53,
          "duration": 0.1
        },
        {
          "note": 42,
          "velocity": 60,
          "startTime": 26.95,
          "duration": 0.1
        },
        {
          "note": 38,
          "velocity": 100,
          "startTime": 27.16,
          "duration": 0.15
        },
        {
          "note": 42,
          "velocity": 85,
          "startTime": 27.16,
          "duration": 0.1
        },
        {
          "note": 42,
          "velocity": 60,
          "startTime": 27.58,
          "duration": 0.1
        },
        {
          "note": 36,
          "velocity": 110,
          "startTime": 27.79,
          "duration": 0.15
        },
        {
          "note": 42,
          "velocity": 85,
          "startTime": 27.79,
          "duration": 0.1
        },
        {
          "note": 42,
          "velocity": 60,
          "startTime": 28.21,
          "duration": 0.1
        },
        {
          "note": 38,
          "velocity": 100,
          "startTime": 28.42,
          "duration": 0.15
        },
        {
          "note": 42,
          "velocity": 85,
          "startTime": 28.42,
          "duration": 0.1
        },
        {
          "note": 42,
          "velocity": 60,
          "startTime": 28.84,
          "duration": 0.1
        },
        {
          "note": 36,
          "velocity": 110,
          "startTime": 29.05,
          "duration": 0.15
        },
        {
          "note": 42,
          "velocity": 85,
          "startTime": 29.05,
          "duration": 0.1
        },
        {
          "note": 42,
          "velocity": 60,
          "startTime": 29.47,
          "duration": 0.1
        },
        {
          "note": 38,
          "velocity": 100,
          "startTime": 29.68,
          "duration": 0.15
        },
        {
          "note": 42,
          "velocity": 85,
          "startTime": 29.68,
          "duration": 0.1
        },
        {
          "note": 42,
          "velocity": 60,
          "startTime": 30.11,
          "duration": 0.1
        },
        {
          "note": 36,
          "velocity": 110,
          "startTime": 30.32,
          "duration": 0.15
        },
        {
          "note": 42,
          "velocity": 85,
          "startTime": 30.32,
          "duration": 0.1
        },
        {
          "note": 42,
          "velocity": 60,
          "startTime": 30.74,
          "duration": 0.1
        },
        {
          "note": 38,
          "velocity": 100,
          "startTime": 30.95,
          "duration": 0.15
        },
        {
          "note": 42,
          "velocity": 85,
          "startTime": 30.95,
          "duration": 0.1
        },
        {
          "note": 42,
          "velocity": 60,
          "startTime": 31.37,
          "duration": 0.1
        },
        {
          "note": 36,
          "velocity": 110,
          "startTime": 31.58,
          "duration": 0.15
        },
        {
          "note": 42,
          "velocity": 85,
          "startTime": 31.58,
          "duration": 0.1
        },
        {
          "note": 42,
          "velocity": 60,
          "startTime": 32.0,
          "duration": 0.1
        },
        {
          "note": 38,
          "velocity": 100,
          "startTime": 32.21,
          "duration": 0.15
        },
        {
          "note": 42,
          "velocity": 85,
          "startTime": 32.21,
          "duration": 0.1
        },
        {
          "note": 42,
          "velocity": 60,
          "startTime": 32.63,
          "duration": 0.1
        },
        {
          "note": 36,
          "velocity": 110,
          "startTime": 32.84,
          "duration": 0.15
        },
        {
          "note": 42,
          "velocity": 85,
          "startTime": 32.84,
          "duration": 0.1
        },
        {
          "note": 42,
          "velocity": 60,
          "startTime": 33.26,
          "duration": 0.1
        },
        {
          "note": 38,
          "velocity": 100,
          "startTime": 33.47,
          "duration": 0.15
        },
        {
          "note": 42,
          "velocity": 85,
          "startTime": 33.47,
          "duration": 0.1
        },
        {
          "note": 42,
          "velocity": 60,
          "startTime": 33.89,
          "duration": 0.1
        },
        {
          "note": 36,
          "velocity": 110,
          "startTime": 34.11,
          "duration": 0.15
        },
        {
          "note": 42,
          "velocity": 85,
          "startTime": 34.11,
          "duration": 0.1
        },
        {
          "note": 42,
          "velocity": 60,
          "startTime": 34.53,
          "duration": 0.1
        },
        {
          "note": 38,
          "velocity": 100,
          "startTime": 34.74,
          "duration": 0.15
        },
        {
          "note": 42,
          "velocity": 85,
          "startTime": 34.74,
          "duration": 0.1
        },
        {
          "note": 42,
          "velocity": 60,
          "startTime": 35.16,
          "duration": 0.1
        },
        {
          "note": 36,
          "velocity": 110,
          "startTime": 35.37,
          "duration": 0.15
        },
        {
          "note": 42,
          "velocity": 85,
          "startTime": 35.37,
          "duration": 0.1
        },
        {
          "note": 42,
          "velocity": 60,
          "startTime": 35.79,
          "duration": 0.1
        },
        {
          "note": 38,
          "velocity": 100,
          "startTime": 36.0,
          "duration": 0.15
        },
        {
          "note": 42,
          "velocity": 85,
          "startTime": 36.0,
          "duration": 0.1
        },
        {
          "note": 42,
          "velocity": 60,
          "startTime": 36.42,
          "duration": 0.1
        },
        {
          "note": 36,
          "velocity": 110,
          "startTime": 36.63,
          "duration": 0.15
        },
        {
          "note": 42,
          "velocity": 85,
          "startTime": 36.63,
          "duration": 0.1
        },
        {
          "note": 42,
          "velocity": 60,
          "startTime": 37.05,
          "duration": 0.1
        },
        {
          "note": 38,
          "velocity": 100,
          "startTime": 37.26,
          "duration": 0.15
        },
        {
          "note": 42,
          "velocity": 85,
          "startTime": 37.26,
          "duration": 0.1
        },
        {
          "note": 42,
          "velocity": 60,
          "startTime": 37.68,
          "duration": 0.1
        },
        {
          "note": 36,
          "velocity": 110,
          "startTime": 37.89,
          "duration": 0.15
        },
        {
          "note": 42,
          "velocity": 85,
          "startTime": 37.89,
          "duration": 0.1
        },
        {
          "note": 42,
          "velocity": 60,
          "startTime": 38.32,
          "duration": 0.1
        },
        {
          "note": 38,
          "velocity": 100,
          "startTime": 38.53,
          "duration": 0.15
        },
        {
          "note": 42,
          "velocity": 85,
          "startTime": 38.53,
          "duration": 0.1
        },
        {
          "note": 42,
          "velocity": 60,
          "startTime": 38.95,
          "duration": 0.1
        },
        {
          "note": 36,
          "velocity": 110,
          "startTime": 39.16,
          "duration": 0.15
        },
        {
          "note": 42,
          "velocity": 85,
          "startTime": 39.16,
          "duration": 0.1
        },
        {
          "note": 42,
          "velocity": 60,
          "startTime": 39.58,
          "duration": 0.1
        },
        {
          "note": 38,
          "velocity": 100,
          "startTime": 39.79,
          "duration": 0.15
        },
        {
          "note": 42,
          "velocity": 85,
          "startTime": 39.79,
          "duration": 0.1
        },
        {
          "note": 42,
          "velocity": 60,
          "startTime": 40.21,
          "duration": 0.1
        },
        {
          "note": 36,
          "velocity": 110,
          "startTime": 40.42,
          "duration": 0.15
        },
        {
          "note": 42,
          "velocity": 85,
          "startTime": 40.42,
          "duration": 0.1
        },
        {
          "note": 42,
          "velocity": 60,
          "startTime": 40.84,
          "duration": 0.1
        },
        {
          "note": 38,
          "velocity": 100,
          "startTime": 41.05,
          "duration": 0.15
        },
        {
          "note": 42,
          "velocity": 85,
          "startTime": 41.05,
          "duration": 0.1
        },
        {
          "note": 42,
          "velocity": 60,
          "startTime": 41.47,
          "duration": 0.1
        },
        {
          "note": 36,
          "velocity": 110,
          "startTime": 41.68,
          "duration": 0.15
        },
        {
          "note": 42,
          "velocity": 85,
          "startTime": 41.68,
          "duration": 0.1
        },
        {
          "note": 42,
          "velocity": 60,
          "startTime": 42.11,
          "duration": 0.1
        },
        {
          "note": 38,
          "velocity": 100,
          "startTime": 42.32,
          "duration": 0.15
        },
        {
          "note": 42,
          "velocity": 85,
          "startTime": 42.32,
          "duration": 0.1
        },
        {
          "note": 42,
          "velocity": 60,
          "startTime": 42.74,
          "duration": 0.1
        },
        {
          "note": 36,
          "velocity": 110,
          "startTime": 42.95,
          "duration": 0.15
        },
        {
          "note": 42,
          "velocity": 85,
          "startTime": 42.95,
          "duration": 0.1
        },
        {
          "note": 42,
          "velocity": 60,
          "startTime": 43.37,
          "duration": 0.1
        },
        {
          "note": 38,
          "velocity": 105,
          "startTime": 43.58,
          "duration": 0.15
        },
        {
          "note": 42,
          "velocity": 90,
          "startTime": 43.58,
          "duration": 0.1
        },
        {
          "note": 49,
          "velocity": 110,
          "startTime": 44.21,
          "duration": 0.5
        }
      ]
    }
  ],
  "key": "A",
  "bpm": 95,
  "scale": "blues"
}