{
  "genre": "ambient",
  "mode": "energize",
  "mixStrategy": "Full-spectrum energize approach with ambient timbres: Bass (Warm Pad) locked to kick drum hits on beats 1&3, providing low-end foundation C1-C3. Chords (Choir Pad) fill the mid-range C3-C5 with dense sus2/sus4 voicings changing every 2-4 bars for driving harmonic rhythm. Melody (New Age Pad) punches through in C4-C6 with short energetic phrases. Drums drive relentlessly with kick on 1&3, snare on 2&4, and 8th-note hi-hats for forward momentum. Energy arc: 0.5\u21920.7\u21920.8\u21920.9\u21921.0\u21920.7 across 45 seconds. All tracks follow Csus2\u2192Fmaj7\u2192Csus2\u2192Gsus4\u2192Asus2\u2192Fmaj7\u2192Csus2 Lydian-flavored progression together. Frequency roles are strictly separated to avoid masking.",
  "tracks": [
    {
      "name": "Energize Drums",
      "program": 0,
      "role": "drums",
      "frequencyRole": "Full spectrum percussion: kick (36) on beats 1&3, snare (38) on beats 2&4, hi-hat (42) on 8th notes for driving pulse. Provides the unstoppable rhythmic engine.",
      "suggestedVolume": 0.85,
      "totalDuration": 45,
      "notes": [
        {
          "note": 42,
          "velocity": 60,
          "startTime": 0,
          "duration": 0.2
        },
        {
          "note": 36,
          "velocity": 85,
          "startTime": 0,
          "duration": 0.3
        },
        {
          "note": 42,
          "velocity": 50,
          "startTime": 0.26,
          "duration": 0.2
        },
        {
          "note": 38,
          "velocity": 80,
          "startTime": 0.52,
          "duration": 0.3
        },
        {
          "note": 42,
          "velocity": 60,
          "startTime": 0.52,
          "duration": 0.2
        },
        {
          "note": 42,
          "velocity": 50,
          "startTime": 0.78,
          "duration": 0.2
        },
        {
          "note": 36,
          "velocity": 85,
          "startTime": 1.04,
          "duration": 0.3
        },
        {
          "note": 42,
          "velocity": 60,
          "startTime": 1.04,
          "duration": 0.2
        },
        {
          "note": 42,
          "velocity": 50,
          "startTime": 1.3,
          "duration": 0.2
        },
        {
          "note": 38,
          "velocity": 80,
          "startTime": 1.56,
          "duration": 0.3
        },
        {
          "note": 42,
          "velocity": 60,
          "startTime": 1.56,
          "duration": 0.2
        },
        {
          "note": 42,
          "velocity": 50,
          "startTime": 1.83,
          "duration": 0.2
        },
        {
          "note": 36,
          "velocity": 85,
          "startTime": 2.09,
          "duration": 0.3
        },
        {
          "note": 42,
          "velocity": 60,
          "startTime": 2.09,
          "duration": 0.2
        },
        {
          "note": 42,
          "velocity": 50,
          "startTime": 2.35,
          "duration": 0.2
        },
        {
          "note": 38,
          "velocity": 80,
          "startTime": 2.61,
          "duration": 0.3
        },
        {
          "note": 42,
          "velocity": 60,
          "startTime": 2.61,
          "duration": 0.2
        },
        {
          "note": 42,
          "velocity": 50,
          "startTime": 2.87,
          "duration": 0.2
        },
        {
          "note": 36,
          "velocity": 85,
          "startTime": 3.13,
          "duration": 0.3
        },
        {
          "note": 42,
          "velocity": 60,
          "startTime": 3.13,
          "duration": 0.2
        },
        {
          "note": 42,
          "velocity": 50,
          "startTime": 3.39,
          "duration": 0.2
        },
        {
          "note": 38,
          "velocity": 82,
          "startTime": 3.65,
          "duration": 0.3
        },
        {
          "note": 42,
          "velocity": 60,
          "startTime": 3.65,
          "duration": 0.2
        },
        {
          "note": 42,
          "velocity": 50,
          "startTime": 3.91,
          "duration": 0.2
        },
        {
          "note": 36,
          "velocity": 88,
          "startTime": 4.17,
          "duration": 0.3
        },
        {
          "note": 42,
          "velocity": 62,
          "startTime": 4.17,
          "duration": 0.2
        },
        {
          "note": 42,
          "velocity": 52,
          "startTime": 4.43,
          "duration": 0.2
        },
        {
          "note": 38,
          "velocity": 85,
          "startTime": 4.7,
          "duration": 0.3
        },
        {
          "note": 42,
          "velocity": 62,
          "startTime": 4.7,
          "duration": 0.2
        },
        {
          "note": 42,
          "velocity": 52,
          "startTime": 4.96,
          "duration": 0.2
        },
        {
          "note": 36,
          "velocity": 88,
          "startTime": 5.22,
          "duration": 0.3
        },
        {
          "note": 42,
          "velocity": 62,
          "startTime": 5.22,
          "duration": 0.2
        },
        {
          "note": 42,
          "velocity": 52,
          "startTime": 5.48,
          "duration": 0.2
        },
        {
          "note": 38,
          "velocity": 85,
          "startTime": 5.74,
          "duration": 0.3
        },
        {
          "note": 42,
          "velocity": 62,
          "startTime": 5.74,
          "duration": 0.2
        },
        {
          "note": 42,
          "velocity": 52,
          "startTime": 6.0,
          "duration": 0.2
        },
        {
          "note": 36,
          "velocity": 88,
          "startTime": 6.26,
          "duration": 0.3
        },
        {
          "note": 42,
          "velocity": 62,
          "startTime": 6.26,
          "duration": 0.2
        },
        {
          "note": 42,
          "velocity": 52,
          "startTime": 6.52,
          "duration": 0.2
        },
        {
          "note": 38,
          "velocity": 85,
          "startTime": 6.78,
          "duration": 0.3
        },
        {
          "note": 42,
          "velocity": 62,
          "startTime": 6.78,
          "duration": 0.2
        },
        {
          "note": 42,
          "velocity": 52,
          "startTime": 7.04,
          "duration": 0.2
        },
        {
          "note": 36,
          "velocity": 90,
          "startTime": 7.3,
          "duration": 0.3
        },
        {
          "note": 42,
          "velocity": 65,
          "startTime": 7.3,
          "duration": 0.2
        },
        {
          "note": 42,
          "velocity": 55,
          "startTime": 7.57,
          "duration": 0.2
        },
        {
          "note": 38,
          "velocity": 88,
          "startTime": 7.83,
          "duration": 0.3
        },
        {
          "note": 42,
          "velocity": 65,
          "startTime": 7.83,
          "duration": 0.2
        },
        {
          "note": 42,
          "velocity": 55,
          "startTime": 8.09,
          "duration": 0.2
        },
        {
          "note": 36,
          "velocity": 90,
          "startTime": 8.35,
          "duration": 0.3
        },
        {
          "note": 42,
          "velocity": 65,
          "startTime": 8.35,
          "duration": 0.2
        },
        {
          "note": 42,
          "velocity": 55,
          "startTime": 8.61,
          "duration": 0.2
        },
        {
          "note": 38,
          "velocity": 88,
          "startTime": 8.87,
          "duration": 0.3
        },
        {
          "note": 42,
          "velocity": 65,
          "startTime": 8.87,
          "duration": 0.2
        },
        {
          "note": 42,
          "velocity": 55,
          "startTime": 9.13,
          "duration": 0.2
        },
        {
          "note": 36,
          "velocity": 90,
          "startTime": 9.39,
          "duration": 0.3
        },
        {
          "note": 42,
          "velocity": 65,
          "startTime": 9.39,
          "duration": 0.2
        },
        {
          "note": 42,
          "velocity": 55,
          "startTime": 9.65,
          "duration": 0.2
        },
        {
          "note": 38,
          "velocity": 88,
          "startTime": 9.91,
          "duration": 0.3
        },
        {
          "note": 42,
          "velocity": 65,
          "startTime": 9.91,
          "duration": 0.2
        },
        {
          "note": 42,
          "velocity": 55,
          "startTime": 10.17,
          "duration": 0.2
        },
        {
          "note": 36,
          "velocity": 92,
          "startTime": 10.43,
          "duration": 0.3
        },
        {
          "note": 42,
          "velocity": 68,
          "startTime": 10.43,
          "duration": 0.2
        },
        {
          "note": 42,
          "velocity": 58,
          "startTime": 10.7,
          "duration": 0.2
        },
        {
          "note": 38,
          "velocity": 90,
          "startTime": 10.96,
          "duration": 0.3
        },
        {
          "note": 42,
          "velocity": 68,
          "startTime": 10.96,
          "duration": 0.2
        },
        {
          "note": 42,
          "velocity": 58,
          "startTime": 11.22,
          "duration": 0.2
        },
        {
          "note": 36,
          "velocity": 92,
          "startTime": 11.48,
          "duration": 0.3
        },
        {
          "note": 42,
          "velocity": 68,
          "startTime": 11.48,
          "duration": 0.2
        },
        {
          "note": 42,
          "velocity": 58,
          "startTime": 11.74,
          "duration": 0.2
        },
        {
          "note": 38,
          "velocity": 90,
          "startTime": 12.0,
          "duration": 0.3
        },
        {
          "note": 42,
          "velocity": 68,
          "startTime": 12.0,
          "duration": 0.2
        },
        {
          "note": 42,
          "velocity": 58,
          "startTime": 12.26,
          "duration": 0.2
        },
        {
          "note": 36,
          "velocity": 92,
          "startTime": 12.52,
          "duration": 0.3
        },
        {
          "note": 42,
          "velocity": 68,
          "startTime": 12.52,
          "duration": 0.2
        },
        {
          "note": 42,
          "velocity": 58,
          "startTime": 12.78,
          "duration": 0.2
        },
        {
          "note": 38,
          "velocity": 90,
          "startTime": 13.04,
          "duration": 0.3
        },
        {
          "note": 42,
          "velocity": 68,
          "startTime": 13.04,
          "duration": 0.2
        },
        {
          "note": 42,
          "velocity": 58,
          "startTime": 13.3,
          "duration": 0.2
        },
        {
          "note": 36,
          "velocity": 95,
          "startTime": 13.57,
          "duration": 0.3
        },
        {
          "note": 42,
          "velocity": 70,
          "startTime": 13.57,
          "duration": 0.2
        },
        {
          "note": 42,
          "velocity": 60,
          "startTime": 13.83,
          "duration": 0.2
        },
        {
          "note": 38,
          "velocity": 93,
          "startTime": 14.09,
          "duration": 0.3
        },
        {
          "note": 42,
          "velocity": 70,
          "startTime": 14.09,
          "duration": 0.2
        },
        {
          "note": 42,
          "velocity": 60,
          "startTime": 14.35,
          "duration": 0.2
        },
        {
          "note": 36,
          "velocity": 95,
          "startTime": 14.61,
          "duration": 0.3
        },
        {
          "note": 42,
          "velocity": 70,
          "startTime": 14.61,
          "duration": 0.2
        },
        {
          "note": 42,
          "velocity": 60,
          "startTime": 14.87,
          "duration": 0.2
        },
        {
          "note": 38,
          "velocity": 93,
          "startTime": 15.13,
          "duration": 0.3
        },
        {
          "note": 42,
          "velocity": 70,
          "startTime": 15.13,
          "duration": 0.2
        },
        {
          "note": 42,
          "velocity": 60,
          "startTime": 15.39,
          "duration": 0.2
        },
        {
          "note": 36,
          "velocity": 95,
          "startTime": 15.65,
          "duration": 0.3
        },
        {
          "note": 42,
          "velocity": 70,
          "startTime": 15.65,
          "duration": 0.2
        },
        {
          "note": 42,
          "velocity": 60,
          "startTime": 15.91,
          "duration": 0.2
        },
        {
          "note": 38,
          "velocity": 93,
          "startTime": 16.17,
          "duration": 0.3
        },
        {
          "note": 42,
          "velocity": 70,
          "startTime": 16.17,
          "duration": 0.2
        },
        {
          "note": 42,
          "velocity": 60,
          "startTime": 16.43,
          "duration": 0.2
        },
        {
          "note": 36,
          "velocity": 95,
          "startTime": 16.7,
          "duration": 0.3
        },
        {
          "note": 42,
          "velocity": 70,
          "startTime": 16.7,
          "duration": 0.2
        },
        {
          "note": 42,
          "velocity": 60,
          "startTime": 16.96,
          "duration": 0.2
        },
        {
          "note": 38,
          "velocity": 93,
          "startTime": 17.22,
          "duration": 0.3
        },
        {
          "note": 42,
          "velocity": 70,
          "startTime": 17.22,
          "duration": 0.2
        },
        {
          "note": 42,
          "velocity": 60,
          "startTime": 17.48,
          "duration": 0.2
        },
        {
          "note": 36,
          "velocity": 100,
          "startTime": 17.74,
          "duration": 0.3
        },
        {
          "note": 42,
          "velocity": 72,
          "startTime": 17.74,
          "duration": 0.2
        },
        {
          "note": 42,
          "velocity": 62,
          "startTime": 18.0,
          "duration": 0.2
        },
        {
          "note": 38,
          "velocity": 95,
          "startTime": 18.26,
          "duration": 0.3
        },
        {
          "note": 42,
          "velocity": 72,
          "startTime": 18.26,
          "duration": 0.2
        },
        {
          "note": 42,
          "velocity": 62,
          "startTime": 18.52,
          "duration": 0.2
        },
        {
          "note": 36,
          "velocity": 100,
          "startTime": 18.78,
          "duration": 0.3
        },
        {
          "note": 42,
          "velocity": 72,
          "startTime": 18.78,
          "duration": 0.2
        },
        {
          "note": 42,
          "velocity": 62,
          "startTime": 19.04,
          "duration": 0.2
        },
        {
          "note": 38,
          "velocity": 95,
          "startTime": 19.3,
          "duration": 0.3
        },
        {
          "note": 42,
          "velocity": 72,
          "startTime": 19.3,
          "duration": 0.2
        },
        {
          "note": 42,
          "velocity": 62,
          "startTime": 19.57,
          "duration": 0.2
        },
        {
          "note": 36,
          "velocity": 100,
          "startTime": 19.83,
          "duration": 0.3
        },
        {
          "note": 42,
          "velocity": 72,
          "startTime": 19.83,
          "duration": 0.2
        },
        {
          "note": 42,
          "velocity": 62,
          "startTime": 20.09,
          "duration": 0.2
        },
        {
          "note": 38,
          "velocity": 95,
          "startTime": 20.35,
          "duration": 0.3
        },
        {
          "note": 42,
          "velocity": 72,
          "startTime": 20.35,
          "duration": 0.2
        },
        {
          "note": 42,
          "velocity": 62,
          "startTime": 20.61,
          "duration": 0.2
        },
        {
          "note": 36,
          "velocity": 100,
          "startTime": 20.87,
          "duration": 0.3
        },
        {
          "note": 42,
          "velocity": 72,
          "startTime": 20.87,
          "duration": 0.2
        },
        {
          "note": 42,
          "velocity": 62,
          "startTime": 21.13,
          "duration": 0.2
        },
        {
          "note": 38,
          "velocity": 95,
          "startTime": 21.39,
          "duration": 0.3
        },
        {
          "note": 42,
          "velocity": 72,
          "startTime": 21.39,
          "duration": 0.2
        },
        {
          "note": 42,
          "velocity": 62,
          "startTime": 21.65,
          "duration": 0.2
        },
        {
          "note": 36,
          "velocity": 100,
          "startTime": 21.91,
          "duration": 0.3
        },
        {
          "note": 42,
          "velocity": 75,
          "startTime": 21.91,
          "duration": 0.2
        },
        {
          "note": 42,
          "velocity": 65,
          "startTime": 22.17,
          "duration": 0.2
        },
        {
          "note": 38,
          "velocity": 98,
          "startTime": 22.43,
          "duration": 0.3
        },
        {
          "note": 42,
          "velocity": 75,
          "startTime": 22.43,
          "duration": 0.2
        },
        {
          "note": 42,
          "velocity": 65,
          "startTime": 22.7,
          "duration": 0.2
        },
        {
          "note": 36,
          "velocity": 100,
          "startTime": 22.96,
          "duration": 0.3
        },
        {
          "note": 42,
          "velocity": 75,
          "startTime": 22.96,
          "duration": 0.2
        },
        {
          "note": 42,
          "velocity": 65,
          "startTime": 23.22,
          "duration": 0.2
        },
        {
          "note": 38,
          "velocity": 98,
          "startTime": 23.48,
          "duration": 0.3
        },
        {
          "note": 42,
          "velocity": 75,
          "startTime": 23.48,
          "duration": 0.2
        },
        {
          "note": 42,
          "velocity": 65,
          "startTime": 23.74,
          "duration": 0.2
        },
        {
          "note": 36,
          "velocity": 100,
          "startTime": 24.0,
          "duration": 0.3
        },
        {
          "note": 42,
          "velocity": 75,
          "startTime": 24.0,
          "duration": 0.2
        },
        {
          "note": 42,
          "velocity": 65,
          "startTime": 24.26,
          "duration": 0.2
        },
        {
          "note": 38,
          "velocity": 98,
          "startTime": 24.52,
          "duration": 0.3
        },
        {
          "note": 42,
          "velocity": 75,
          "startTime": 24.52,
          "duration": 0.2
        },
        {
          "note": 42,
          "velocity": 65,
          "startTime": 24.78,
          "duration": 0.2
        },
        {
          "note": 36,
          "velocity": 100,
          "startTime": 25.04,
          "duration": 0.3
        },
        {
          "note": 42,
          "velocity": 75,
          "startTime": 25.04,
          "duration": 0.2
        },
        {
          "note": 42,
          "velocity": 65,
          "startTime": 25.3,
          "duration": 0.2
        },
        {
          "note": 38,
          "velocity": 98,
          "startTime": 25.57,
          "duration": 0.3
        },
        {
          "note": 42,
          "velocity": 75,
          "startTime": 25.57,
          "duration": 0.2
        },
        {
          "note": 42,
          "velocity": 65,
          "startTime": 25.83,
          "duration": 0.2
        },
        {
          "note": 36,
          "velocity": 100,
          "startTime": 26.09,
          "duration": 0.3
        },
        {
          "note": 42,
          "velocity": 75,
          "startTime": 26.09,
          "duration": 0.2
        },
        {
          "note": 42,
          "velocity": 65,
          "startTime": 26.35,
          "duration": 0.2
        },
        {
          "note": 38,
          "velocity": 100,
          "startTime": 26.61,
          "duration": 0.3
        },
        {
          "note": 42,
          "velocity": 75,
          "startTime": 26.61,
          "duration": 0.2
        },
        {
          "note": 42,
          "velocity": 65,
          "startTime": 26.87,
          "duration": 0.2
        },
        {
          "note": 36,
          "velocity": 100,
          "startTime": 27.13,
          "duration": 0.3
        },
        {
          "note": 42,
          "velocity": 75,
          "startTime": 27.13,
          "duration": 0.2
        },
        {
          "note": 42,
          "velocity": 65,
          "startTime": 27.39,
          "duration": 0.2
        },
        {
          "note": 38,
          "velocity": 100,
          "startTime": 27.65,
          "duration": 0.3
        },
        {
          "note": 42,
          "velocity": 75,
          "startTime": 27.65,
          "duration": 0.2
        },
        {
          "note": 42,
          "velocity": 65,
          "startTime": 27.91,
          "duration": 0.2
        },
        {
          "note": 36,
          "velocity": 100,
          "startTime": 28.17,
          "duration": 0.3
        },
        {
          "note": 42,
          "velocity": 75,
          "startTime": 28.17,
          "duration": 0.2
        },
        {
          "note": 42,
          "velocity": 65,
          "startTime": 28.43,
          "duration": 0.2
        },
        {
          "note": 38,
          "velocity": 100,
          "startTime": 28.7,
          "duration": 0.3
        },
        {
          "note": 42,
          "velocity": 75,
          "startTime": 28.7,
          "duration": 0.2
        },
        {
          "note": 42,
          "velocity": 65,
          "startTime": 28.96,
          "duration": 0.2
        },
        {
          "note": 36,
          "velocity": 100,
          "startTime": 29.22,
          "duration": 0.3
        },
        {
          "note": 42,
          "velocity": 75,
          "startTime": 29.22,
          "duration": 0.2
        },
        {
          "note": 42,
          "velocity": 65,
          "startTime": 29.48,
          "duration": 0.2
        },
        {
          "note": 38,
          "velocity": 100,
          "startTime": 29.74,
          "duration": 0.3
        },
        {
          "note": 42,
          "velocity": 75,
          "startTime": 29.74,
          "duration": 0.2
        },
        {
          "note": 42,
          "velocity": 65,
          "startTime": 30.0,
          "duration": 0.2
        },
        {
          "note": 36,
          "velocity": 100,
          "startTime": 30.26,
          "duration": 0.3
        },
        {
          "note": 42,
          "velocity": 75,
          "startTime": 30.26,
          "duration": 0.2
        },
        {
          "note": 42,
          "velocity": 65,
          "startTime": 30.52,
          "duration": 0.2
        },
        {
          "note": 38,
          "velocity": 100,
          "startTime": 30.78,
          "duration": 0.3
        },
        {
          "note": 42,
          "velocity": 75,
          "startTime": 30.78,
          "duration": 0.2
        },
        {
          "note": 42,
          "velocity": 65,
          "startTime": 31.04,
          "duration": 0.2
        },
        {
          "note": 36,
          "velocity": 100,
          "startTime": 31.3,
          "duration": 0.3
        },
        {
          "note": 42,
          "velocity": 75,
          "startTime": 31.3,
          "duration": 0.2
        },
        {
          "note": 42,
          "velocity": 65,
          "startTime": 31.57,
          "duration": 0.2
        },
        {
          "note": 38,
          "velocity": 100,
          "startTime": 31.83,
          "duration": 0.3
        },
        {
          "note": 42,
          "velocity": 75,
          "startTime": 31.83,
          "duration": 0.2
        },
        {
          "note": 42,
          "velocity": 65,
          "startTime": 32.09,
          "duration": 0.2
        },
        {
          "note": 36,
          "velocity": 100,
          "startTime": 32.35,
          "duration": 0.3
        },
        {
          "note": 42,
          "velocity": 75,
          "startTime": 32.35,
          "duration": 0.2
        },
        {
          "note": 42,
          "velocity": 65,
          "startTime": 32.61,
          "duration": 0.2
        },
        {
          "note": 38,
          "velocity": 100,
          "startTime": 32.87,
          "duration": 0.3
        },
        {
          "note": 42,
          "velocity": 75,
          "startTime": 32.87,
          "duration": 0.2
        },
        {
          "note": 42,
          "velocity": 65,
          "startTime": 33.13,
          "duration": 0.2
        },
        {
          "note": 36,
          "velocity": 100,
          "startTime": 33.39,
          "duration": 0.3
        },
        {
          "note": 42,
          "velocity": 75,
          "startTime": 33.39,
          "duration": 0.2
        },
        {
          "note": 42,
          "velocity": 65,
          "startTime": 33.65,
          "duration": 0.2
        },
        {
          "note": 38,
          "velocity": 100,
          "startTime": 33.91,
          "duration": 0.3
        },
        {
          "note": 42,
          "velocity": 75,
          "startTime": 33.91,
          "duration": 0.2
        },
        {
          "note": 42,
          "velocity": 65,
          "startTime": 34.17,
          "duration": 0.2
        },
        {
          "note": 36,
          "velocity": 100,
          "startTime": 34.43,
          "duration": 0.3
        },
        {
          "note": 42,
          "velocity": 75,
          "startTime": 34.43,
          "duration": 0.2
        },
        {
          "note": 51,
          "velocity": 60,
          "startTime": 34.7,
          "duration": 0.2
        },
        {
          "note": 38,
          "velocity": 100,
          "startTime": 34.96,
          "duration": 0.3
        },
        {
          "note": 42,
          "velocity": 75,
          "startTime": 34.96,
          "duration": 0.2
        },
        {
          "note": 42,
          "velocity": 65,
          "startTime": 35.22,
          "duration": 0.2
        },
        {
          "note": 36,
          "velocity": 95,
          "startTime": 35.48,
          "duration": 0.3
        },
        {
          "note": 42,
          "velocity": 70,
          "startTime": 35.48,
          "duration": 0.2
        },
        {
          "note": 42,
          "velocity": 60,
          "startTime": 35.74,
          "duration": 0.2
        },
        {
          "note": 38,
          "velocity": 90,
          "startTime": 36.0,
          "duration": 0.3
        },
        {
          "note": 42,
          "velocity": 70,
          "startTime": 36.0,
          "duration": 0.2
        },
        {
          "note": 42,
          "velocity": 60,
          "startTime": 36.26,
          "duration": 0.2
        },
        {
          "note": 36,
          "velocity": 92,
          "startTime": 36.52,
          "duration": 0.3
        },
        {
          "note": 42,
          "velocity": 68,
          "startTime": 36.52,
          "duration": 0.2
        },
        {
          "note": 42,
          "velocity": 58,
          "startTime": 36.78,
          "duration": 0.2
        },
        {
          "note": 38,
          "velocity": 88,
          "startTime": 37.04,
          "duration": 0.3
        },
        {
          "note": 42,
          "velocity": 68,
          "startTime": 37.04,
          "duration": 0.2
        },
        {
          "note": 42,
          "velocity": 58,
          "startTime": 37.3,
          "duration": 0.2
        },
        {
          "note": 36,
          "velocity": 90,
          "startTime": 37.57,
          "duration": 0.3
        },
        {
          "note": 42,
          "velocity": 66,
          "startTime": 37.57,
          "duration": 0.2
        },
        {
          "note": 42,
          "velocity": 56,
          "startTime": 37.83,
          "duration": 0.2
        },
        {
          "note": 38,
          "velocity": 85,
          "startTime": 38.09,
          "duration": 0.3
        },
        {
          "note": 42,
          "velocity": 66,
          "startTime": 38.09,
          "duration": 0.2
        },
        {
          "note": 42,
          "velocity": 56,
          "startTime": 38.35,
          "duration": 0.2
        },
        {
          "note": 36,
          "velocity": 88,
          "startTime": 38.61,
          "duration": 0.3
        },
        {
          "note": 42,
          "velocity": 64,
          "startTime": 38.61,
          "duration": 0.2
        },
        {
          "note": 42,
          "velocity": 54,
          "startTime": 38.87,
          "duration": 0.2
        },
        {
          "note": 38,
          "velocity": 82,
          "startTime": 39.13,
          "duration": 0.3
        },
        {
          "note": 42,
          "velocity": 64,
          "startTime": 39.13,
          "duration": 0.2
        },
        {
          "note": 42,
          "velocity": 54,
          "startTime": 39.39,
          "duration": 0.2
        },
        {
          "note": 36,
          "velocity": 85,
          "startTime": 39.65,
          "duration": 0.3
        },
        {
          "note": 42,
          "velocity": 62,
          "startTime": 39.65,
          "duration": 0.2
        },
        {
          "note": 42,
          "velocity": 52,
          "startTime": 39.91,
          "duration": 0.2
        },
        {
          "note": 38,
          "velocity": 80,
          "startTime": 40.17,
          "duration": 0.3
        },
        {
          "note": 42,
          "velocity": 62,
          "startTime": 40.17,
          "duration": 0.2
        },
        {
          "note": 42,
          "velocity": 52,
          "startTime": 40.43,
          "duration": 0.2
        },
        {
          "note": 36,
          "velocity": 82,
          "startTime": 40.7,
          "duration": 0.3
        },
        {
          "note": 42,
          "velocity": 60,
          "startTime": 40.7,
          "duration": 0.2
        },
        {
          "note": 42,
          "velocity": 50,
          "startTime": 40.96,
          "duration": 0.2
        },
        {
          "note": 38,
          "velocity": 78,
          "startTime": 41.22,
          "duration": 0.3
        },
        {
          "note": 42,
          "velocity": 60,
          "startTime": 41.22,
          "duration": 0.2
        },
        {
          "note": 42,
          "velocity": 50,
          "startTime": 41.48,
          "duration": 0.2
        },
        {
          "note": 36,
          "velocity": 80,
          "startTime": 41.74,
          "duration": 0.3
        },
        {
          "note": 42,
          "velocity": 58,
          "startTime": 41.74,
          "duration": 0.2
        },
        {
          "note": 42,
          "velocity": 48,
          "startTime": 42.0,
          "duration": 0.2
        },
        {
          "note": 38,
          "velocity": 75,
          "startTime": 42.26,
          "duration": 0.3
        },
        {
          "note": 42,
          "velocity": 58,
          "startTime": 42.26,
          "duration": 0.2
        },
        {
          "note": 42,
          "velocity": 48,
          "startTime": 42.52,
          "duration": 0.2
        },
        {
          "note": 36,
          "velocity": 78,
          "startTime": 42.78,
          "duration": 0.3
        },
        {
          "note": 42,
          "velocity": 55,
          "startTime": 42.78,
          "duration": 0.2
        },
        {
          "note": 42,
          "velocity": 45,
          "startTime": 43.04,
          "duration": 0.2
        },
        {
          "note": 38,
          "velocity": 72,
          "startTime": 43.3,
          "duration": 0.3
        },
        {
          "note": 42,
          "velocity": 55,
          "startTime": 43.3,
          "duration": 0.2
        },
        {
          "note": 42,
          "velocity": 45,
          "startTime": 43.57,
          "duration": 0.2
        },
        {
          "note": 36,
          "velocity": 75,
          "startTime": 43.83,
          "duration": 0.3
        },
        {
          "note": 42,
          "velocity": 52,
          "startTime": 43.83,
          "duration": 0.2
        },
        {
          "note": 42,
          "velocity": 42,
          "startTime": 44.09,
          "duration": 0.2
        },
        {
          "note": 38,
          "velocity": 70,
          "startTime": 44.35,
          "duration": 0.3
        },
        {
          "note": 42,
          "velocity": 52,
          "startTime": 44.35,
          "duration": 0.2
        },
        {
          "note": 42,
          "velocity": 42,
          "startTime": 44.61,
          "duration": 0.2
        }
      ]
    },
    {
      "name": "Warm Pad Bass",
      "program": 89,
      "role": "bass",
      "frequencyRole": "Low-end foundation C1-C3 (MIDI 24-48). Locked to kick drum hits on beats 1&3. Plays chord roots with punchy attacks to drive momentum.",
      "suggestedVolume": 0.8,
      "totalDuration": 45,
      "notes": [
        {
          "note": 36,
          "velocity": 80,
          "startTime": 0,
          "duration": 1.0
        },
        {
          "note": 36,
          "velocity": 82,
          "startTime": 1.04,
          "duration": 0.5
        },
        {
          "note": 36,
          "velocity": 80,
          "startTime": 1.56,
          "duration": 0.5
        },
        {
          "note": 36,
          "velocity": 82,
          "startTime": 2.09,
          "duration": 1.0
        },
        {
          "note": 41,
          "velocity": 85,
          "startTime": 3.13,
          "duration": 1.0
        },
        {
          "note": 41,
          "velocity": 83,
          "startTime": 4.17,
          "duration": 0.5
        },
        {
          "note": 41,
          "velocity": 85,
          "startTime": 4.7,
          "duration": 0.5
        },
        {
          "note": 41,
          "velocity": 87,
          "startTime": 5.22,
          "duration": 1.0
        },
        {
          "note": 36,
          "velocity": 88,
          "startTime": 6.26,
          "duration": 1.0
        },
        {
          "note": 36,
          "velocity": 86,
          "startTime": 7.3,
          "duration": 0.5
        },
        {
          "note": 36,
          "velocity": 88,
          "startTime": 7.83,
          "duration": 0.5
        },
        {
          "note": 36,
          "velocity": 90,
          "startTime": 8.35,
          "duration": 1.0
        },
        {
          "note": 43,
          "velocity": 90,
          "startTime": 9.39,
          "duration": 1.0
        },
        {
          "note": 43,
          "velocity": 88,
          "startTime": 10.43,
          "duration": 0.5
        },
        {
          "note": 43,
          "velocity": 90,
          "startTime": 10.96,
          "duration": 0.5
        },
        {
          "note": 43,
          "velocity": 92,
          "startTime": 11.48,
          "duration": 1.0
        },
        {
          "note": 33,
          "velocity": 92,
          "startTime": 12.52,
          "duration": 1.0
        },
        {
          "note": 33,
          "velocity": 90,
          "startTime": 13.57,
          "duration": 0.5
        },
        {
          "note": 33,
          "velocity": 92,
          "startTime": 14.09,
          "duration": 0.5
        },
        {
          "note": 33,
          "velocity": 94,
          "startTime": 14.61,
          "duration": 1.0
        },
        {
          "note": 41,
          "velocity": 95,
          "startTime": 15.65,
          "duration": 1.0
        },
        {
          "note": 41,
          "velocity": 93,
          "startTime": 16.7,
          "duration": 0.5
        },
        {
          "note": 41,
          "velocity": 95,
          "startTime": 17.22,
          "duration": 0.5
        },
        {
          "note": 36,
          "velocity": 97,
          "startTime": 17.74,
          "duration": 1.0
        },
        {
          "note": 36,
          "velocity": 95,
          "startTime": 18.78,
          "duration": 0.5
        },
        {
          "note": 36,
          "velocity": 97,
          "startTime": 19.3,
          "duration": 0.5
        },
        {
          "note": 36,
          "velocity": 98,
          "startTime": 19.83,
          "duration": 1.0
        },
        {
          "note": 41,
          "velocity": 100,
          "startTime": 20.87,
          "duration": 1.0
        },
        {
          "note": 41,
          "velocity": 98,
          "startTime": 21.91,
          "duration": 0.5
        },
        {
          "note": 41,
          "velocity": 100,
          "startTime": 22.43,
          "duration": 0.5
        },
        {
          "note": 41,
          "velocity": 100,
          "startTime": 22.96,
          "duration": 1.0
        },
        {
          "note": 36,
          "velocity": 100,
          "startTime": 24.0,
          "duration": 1.0
        },
        {
          "note": 36,
          "velocity": 98,
          "startTime": 25.04,
          "duration": 0.5
        },
        {
          "note": 36,
          "velocity": 100,
          "startTime": 25.57,
          "duration": 0.5
        },
        {
          "note": 43,
          "velocity": 100,
          "startTime": 26.09,
          "duration": 1.0
        },
        {
          "note": 43,
          "velocity": 98,
          "startTime": 27.13,
          "duration": 0.5
        },
        {
          "note": 43,
          "velocity": 100,
          "startTime": 27.65,
          "duration": 0.5
        },
        {
          "note": 43,
          "velocity": 100,
          "startTime": 28.17,
          "duration": 1.0
        },
        {
          "note": 33,
          "velocity": 100,
          "startTime": 29.22,
          "duration": 1.0
        },
        {
          "note": 33,
          "velocity": 98,
          "startTime": 30.26,
          "duration": 0.5
        },
        {
          "note": 33,
          "velocity": 100,
          "startTime": 30.78,
          "duration": 0.5
        },
        {
          "note": 33,
          "velocity": 100,
          "startTime": 31.3,
          "duration": 1.0
        },
        {
          "note": 41,
          "velocity": 100,
          "startTime": 32.35,
          "duration": 1.0
        },
        {
          "note": 41,
          "velocity": 98,
          "startTime": 33.39,
          "duration": 0.5
        },
        {
          "note": 41,
          "velocity": 100,
          "startTime": 33.91,
          "duration": 0.5
        },
        {
          "note": 36,
          "velocity": 95,
          "startTime": 34.43,
          "duration": 1.0
        },
        {
          "note": 36,
          "velocity": 90,
          "startTime": 35.48,
          "duration": 1.0
        },
        {
          "note": 41,
          "velocity": 88,
          "startTime": 36.52,
          "duration": 1.0
        },
        {
          "note": 41,
          "velocity": 85,
          "startTime": 37.57,
          "duration": 1.0
        },
        {
          "note": 36,
          "velocity": 85,
          "startTime": 38.61,
          "duration": 1.0
        },
        {
          "note": 36,
          "velocity": 82,
          "startTime": 39.65,
          "duration": 1.0
        },
        {
          "note": 36,
          "velocity": 80,
          "startTime": 40.7,
          "duration": 1.0
        },
        {
          "note": 36,
          "velocity": 80,
          "startTime": 41.74,
          "duration": 1.0
        },
        {
          "note": 36,
          "velocity": 80,
          "startTime": 42.78,
          "duration": 1.0
        },
        {
          "note": 36,
          "velocity": 80,
          "startTime": 43.83,
          "duration": 1.2
        }
      ]
    },
    {
      "name": "Choir Pad Chords",
      "program": 91,
      "role": "chords",
      "frequencyRole": "Harmonic body C3-C5 (MIDI 48-72). Sus2/sus4 and Lydian-flavored voicings. Changes every 2-4 beats for driving harmonic rhythm. Non-functional modal shifts.",
      "suggestedVolume": 0.65,
      "totalDuration": 45,
      "notes": [
        {
          "note": 48,
          "velocity": 65,
          "startTime": 0,
          "duration": 1.5
        },
        {
          "note": 50,
          "velocity": 63,
          "startTime": 0,
          "duration": 1.5
        },
        {
          "note": 55,
          "velocity": 60,
          "startTime": 0,
          "duration": 1.5
        },
        {
          "note": 48,
          "velocity": 67,
          "startTime": 1.56,
          "duration": 1.5
        },
        {
          "note": 50,
          "velocity": 65,
          "startTime": 1.56,
          "duration": 1.5
        },
        {
          "note": 55,
          "velocity": 62,
          "startTime": 1.56,
          "duration": 1.5
        },
        {
          "note": 53,
          "velocity": 70,
          "startTime": 3.13,
          "duration": 1.5
        },
        {
          "note": 57,
          "velocity": 68,
          "startTime": 3.13,
          "duration": 1.5
        },
        {
          "note": 60,
          "velocity": 65,
          "startTime": 3.13,
          "duration": 1.5
        },
        {
          "note": 53,
          "velocity": 72,
          "startTime": 4.7,
          "duration": 1.5
        },
        {
          "note": 57,
          "velocity": 70,
          "startTime": 4.7,
          "duration": 1.5
        },
        {
          "note": 60,
          "velocity": 67,
          "startTime": 4.7,
          "duration": 1.5
        },
        {
          "note": 48,
          "velocity": 75,
          "startTime": 6.26,
          "duration": 1.5
        },
        {
          "note": 50,
          "velocity": 73,
          "startTime": 6.26,
          "duration": 1.5
        },
        {
          "note": 55,
          "velocity": 70,
          "startTime": 6.26,
          "duration": 1.5
        },
        {
          "note": 48,
          "velocity": 77,
          "startTime": 7.83,
          "duration": 1.5
        },
        {
          "note": 50,
          "velocity": 75,
          "startTime": 7.83,
          "duration": 1.5
        },
        {
          "note": 55,
          "velocity": 72,
          "startTime": 7.83,
          "duration": 1.5
        },
        {
          "note": 55,
          "velocity": 80,
          "startTime": 9.39,
          "duration": 1.5
        },
        {
          "note": 59,
          "velocity": 78,
          "startTime": 9.39,
          "duration": 1.5
        },
        {
          "note": 62,
          "velocity": 75,
          "startTime": 9.39,
          "duration": 1.5
        },
        {
          "note": 55,
          "velocity": 82,
          "startTime": 10.96,
          "duration": 1.5
        },
        {
          "note": 59,
          "velocity": 80,
          "startTime": 10.96,
          "duration": 1.5
        },
        {
          "note": 62,
          "velocity": 77,
          "startTime": 10.96,
          "duration": 1.5
        },
        {
          "note": 57,
          "velocity": 85,
          "startTime": 12.52,
          "duration": 1.5
        },
        {
          "note": 59,
          "velocity": 83,
          "startTime": 12.52,
          "duration": 1.5
        },
        {
          "note": 64,
          "velocity": 80,
          "startTime": 12.52,
          "duration": 1.5
        },
        {
          "note": 57,
          "velocity": 87,
          "startTime": 14.09,
          "duration": 1.5
        },
        {
          "note": 59,
          "velocity": 85,
          "startTime": 14.09,
          "duration": 1.5
        },
        {
          "note": 64,
          "velocity": 82,
          "startTime": 14.09,
          "duration": 1.5
        },
        {
          "note": 53,
          "velocity": 90,
          "startTime": 15.65,
          "duration": 1.5
        },
        {
          "note": 57,
          "velocity": 88,
          "startTime": 15.65,
          "duration": 1.5
        },
        {
          "note": 60,
          "velocity": 85,
          "startTime": 15.65,
          "duration": 1.5
        },
        {
          "note": 48,
          "velocity": 92,
          "startTime": 17.22,
          "duration": 1.5
        },
        {
          "note": 50,
          "velocity": 90,
          "startTime": 17.22,
          "duration": 1.5
        },
        {
          "note": 55,
          "velocity": 87,
          "startTime": 17.22,
          "duration": 1.5
        },
        {
          "note": 48,
          "velocity": 95,
          "startTime": 18.78,
          "duration": 1.5
        },
        {
          "note": 50,
          "velocity": 93,
          "startTime": 18.78,
          "duration": 1.5
        },
        {
          "note": 55,
          "velocity": 90,
          "startTime": 18.78,
          "duration": 1.5
        },
        {
          "note": 53,
          "velocity": 97,
          "startTime": 20.35,
          "duration": 1.5
        },
        {
          "note": 57,
          "velocity": 95,
          "startTime": 20.35,
          "duration": 1.5
        },
        {
          "note": 60,
          "velocity": 92,
          "startTime": 20.35,
          "duration": 1.5
        },
        {
          "note": 53,
          "velocity": 98,
          "startTime": 21.91,
          "duration": 1.5
        },
        {
          "note": 57,
          "velocity": 96,
          "startTime": 21.91,
          "duration": 1.5
        },
        {
          "note": 60,
          "velocity": 93,
          "startTime": 21.91,
          "duration": 1.5
        },
        {
          "note": 48,
          "velocity": 100,
          "startTime": 23.48,
          "duration": 1.5
        },
        {
          "note": 50,
          "velocity": 98,
          "startTime": 23.48,
          "duration": 1.5
        },
        {
          "note": 55,
          "velocity": 95,
          "startTime": 23.48,
          "duration": 1.5
        },
        {
          "note": 48,
          "velocity": 100,
          "startTime": 25.04,
          "duration": 1.5
        },
        {
          "note": 50,
          "velocity": 98,
          "startTime": 25.04,
          "duration": 1.5
        },
        {
          "note": 55,
          "velocity": 95,
          "startTime": 25.04,
          "duration": 1.5
        },
        {
          "note": 55,
          "velocity": 100,
          "startTime": 26.61,
          "duration": 1.5
        },
        {
          "note": 59,
          "velocity": 98,
          "startTime": 26.61,
          "duration": 1.5
        },
        {
          "note": 62,
          "velocity": 95,
          "startTime": 26.61,
          "duration": 1.5
        },
        {
          "note": 55,
          "velocity": 100,
          "startTime": 28.17,
          "duration": 1.5
        },
        {
          "note": 59,
          "velocity": 98,
          "startTime": 28.17,
          "duration": 1.5
        },
        {
          "note": 62,
          "velocity": 95,
          "startTime": 28.17,
          "duration": 1.5
        },
        {
          "note": 57,
          "velocity": 100,
          "startTime": 29.74,
          "duration": 1.5
        },
        {
          "note": 59,
          "velocity": 98,
          "startTime": 29.74,
          "duration": 1.5
        },
        {
          "note": 64,
          "velocity": 95,
          "startTime": 29.74,
          "duration": 1.5
        },
        {
          "note": 57,
          "velocity": 100,
          "startTime": 31.3,
          "duration": 1.5
        },
        {
          "note": 59,
          "velocity": 98,
          "startTime": 31.3,
          "duration": 1.5
        },
        {
          "note": 64,
          "velocity": 95,
          "startTime": 31.3,
          "duration": 1.5
        },
        {
          "note": 53,
          "velocity": 100,
          "startTime": 32.87,
          "duration": 1.5
        },
        {
          "note": 57,
          "velocity": 98,
          "startTime": 32.87,
          "duration": 1.5
        },
        {
          "note": 60,
          "velocity": 95,
          "startTime": 32.87,
          "duration": 1.5
        },
        {
          "note": 48,
          "velocity": 95,
          "startTime": 34.43,
          "duration": 1.5
        },
        {
          "note": 50,
          "velocity": 93,
          "startTime": 34.43,
          "duration": 1.5
        },
        {
          "note": 55,
          "velocity": 90,
          "startTime": 34.43,
          "duration": 1.5
        },
        {
          "note": 48,
          "velocity": 88,
          "startTime": 35.48,
          "duration": 1.5
        },
        {
          "note": 50,
          "velocity": 86,
          "startTime": 35.48,
          "duration": 1.5
        },
        {
          "note": 55,
          "velocity": 83,
          "startTime": 35.48,
          "duration": 1.5
        },
        {
          "note": 53,
          "velocity": 85,
          "startTime": 37.04,
          "duration": 1.5
        },
        {
          "note": 57,
          "velocity": 83,
          "startTime": 37.04,
          "duration": 1.5
        },
        {
          "note": 60,
          "velocity": 80,
          "startTime": 37.04,
          "duration": 1.5
        },
        {
          "note": 48,
          "velocity": 80,
          "startTime": 38.61,
          "duration": 1.5
        },
        {
          "note": 50,
          "velocity": 78,
          "startTime": 38.61,
          "duration": 1.5
        },
        {
          "note": 55,
          "velocity": 75,
          "startTime": 38.61,
          "duration": 1.5
        },
        {
          "note": 48,
          "velocity": 75,
          "startTime": 40.17,
          "duration": 1.5
        },
        {
          "note": 50,
          "velocity": 73,
          "startTime": 40.17,
          "duration": 1.5
        },
        {
          "note": 55,
          "velocity": 70,
          "startTime": 40.17,
          "duration": 1.5
        },
        {
          "note": 48,
          "velocity": 70,
          "startTime": 41.74,
          "duration": 1.5
        },
        {
          "note": 50,
          "velocity": 68,
          "startTime": 41.74,
          "duration": 1.5
        },
        {
          "note": 55,
          "velocity": 65,
          "startTime": 41.74,
          "duration": 1.5
        },
        {
          "note": 48,
          "velocity": 65,
          "startTime": 43.3,
          "duration": 1.7
        },
        {
          "note": 50,
          "velocity": 63,
          "startTime": 43.3,
          "duration": 1.7
        },
        {
          "note": 55,
          "velocity": 60,
          "startTime": 43.3,
          "duration": 1.7
        }
      ]
    },
    {
      "name": "New Age Pad Melody",
      "program": 88,
      "role": "melody",
      "frequencyRole": "Lead voice C4-C6 (MIDI 60-84). Short punchy motivic phrases with ambient Lydian color. Hits chord tones on strong beats, ornamentation between.",
      "suggestedVolume": 0.75,
      "totalDuration": 45,
      "notes": [
        {
          "note": 72,
          "velocity": 65,
          "startTime": 0,
          "duration": 0.5
        },
        {
          "note": 74,
          "velocity": 67,
          "startTime": 0.52,
          "duration": 0.4
        },
        {
          "note": 72,
          "velocity": 65,
          "startTime": 1.04,
          "duration": 0.5
        },
        {
          "note": 67,
          "velocity": 68,
          "startTime": 1.56,
          "duration": 0.5
        },
        {
          "note": 69,
          "velocity": 70,
          "startTime": 2.09,
          "duration": 0.4
        },
        {
          "note": 72,
          "velocity": 72,
          "startTime": 2.61,
          "duration": 0.5
        },
        {
          "note": 72,
          "velocity": 73,
          "startTime": 3.13,
          "duration": 0.5
        },
        {
          "note": 74,
          "velocity": 75,
          "startTime": 3.65,
          "duration": 0.4
        },
        {
          "note": 77,
          "velocity": 73,
          "startTime": 4.17,
          "duration": 0.5
        },
        {
          "note": 76,
          "velocity": 75,
          "startTime": 4.7,
          "duration": 0.4
        },
        {
          "note": 74,
          "velocity": 77,
          "startTime": 5.22,
          "duration": 0.5
        },
        {
          "note": 72,
          "velocity": 75,
          "startTime": 5.74,
          "duration": 0.5
        },
        {
          "note": 72,
          "velocity": 78,
          "startTime": 6.26,
          "duration": 0.5
        },
        {
          "note": 74,
          "velocity": 80,
          "startTime": 6.78,
          "duration": 0.3
        },
        {
          "note": 76,
          "velocity": 78,
          "startTime": 7.13,
          "duration": 0.3
        },
        {
          "note": 74,
          "velocity": 80,
          "startTime": 7.57,
          "duration": 0.5
        },
        {
          "note": 72,
          "velocity": 78,
          "startTime": 8.09,
          "duration": 0.4
        },
        {
          "note": 69,
          "velocity": 80,
          "startTime": 8.61,
          "duration": 0.5
        },
        {
          "note": 67,
          "velocity": 78,
          "startTime": 9.13,
          "duration": 0.3
        },
        {
          "note": 79,
          "velocity": 82,
          "startTime": 9.39,
          "duration": 0.5
        },
        {
          "note": 78,
          "velocity": 80,
          "startTime": 9.91,
          "duration": 0.4
        },
        {
          "note": 76,
          "velocity": 82,
          "startTime": 10.43,
          "duration": 0.5
        },
        {
          "note": 74,
          "velocity": 80,
          "startTime": 10.96,
          "duration": 0.4
        },
        {
          "note": 76,
          "velocity": 83,
          "startTime": 11.48,
          "duration": 0.5
        },
        {
          "note": 79,
          "velocity": 85,
          "startTime": 12.0,
          "duration": 0.5
        },
        {
          "note": 81,
          "velocity": 85,
          "startTime": 12.52,
          "duration": 0.5
        },
        {
          "note": 79,
          "velocity": 83,
          "startTime": 13.04,
          "duration": 0.4
        },
        {
          "note": 76,
          "velocity": 85,
          "startTime": 13.57,
          "duration": 0.5
        },
        {
          "note": 74,
          "velocity": 87,
          "startTime": 14.09,
          "duration": 0.4
        },
        {
          "note": 76,
          "velocity": 85,
          "startTime": 14.61,
          "duration": 0.5
        },
        {
          "note": 79,
          "velocity": 88,
          "startTime": 15.13,
          "duration": 0.5
        },
        {
          "note": 77,
          "velocity": 90,
          "startTime": 15.65,
          "duration": 0.5
        },
        {
          "note": 76,
          "velocity": 88,
          "startTime": 16.17,
          "duration": 0.4
        },
        {
          "note": 74,
          "velocity": 90,
          "startTime": 16.7,
          "duration": 0.5
        },
        {
          "note": 72,
          "velocity": 88,
          "startTime": 17.22,
          "duration": 0.4
        },
        {
          "note": 74,
          "velocity": 92,
          "startTime": 17.74,
          "duration": 0.5
        },
        {
          "note": 76,
          "velocity": 90,
          "startTime": 18.26,
          "duration": 0.4
        },
        {
          "note": 79,
          "velocity": 93,
          "startTime": 18.78,
          "duration": 0.5
        },
        {
          "note": 81,
          "velocity": 90,
          "startTime": 19.3,
          "duration": 0.4
        },
        {
          "note": 79,
          "velocity": 93,
          "startTime": 19.83,
          "duration": 0.5
        },
        {
          "note": 76,
          "velocity": 92,
          "startTime": 20.35,
          "duration": 0.4
        },
        {
          "note": 77,
          "velocity": 95,
          "startTime": 20.87,
          "duration": 0.5
        },
        {
          "note": 79,
          "velocity": 93,
          "startTime": 21.39,
          "duration": 0.4
        },
        {
          "note": 81,
          "velocity": 95,
          "startTime": 21.91,
          "duration": 0.5
        },
        {
          "note": 84,
          "velocity": 97,
          "startTime": 22.43,
          "duration": 0.4
        },
        {
          "note": 81,
          "velocity": 95,
          "startTime": 22.96,
          "duration": 0.5
        },
        {
          "note": 79,
          "velocity": 97,
          "startTime": 23.48,
          "duration": 0.4
        },
        {
          "note": 76,
          "velocity": 95,
          "startTime": 24.0,
          "duration": 0.5
        },
        {
          "note": 79,
          "velocity": 98,
          "startTime": 24.52,
          "duration": 0.4
        },
        {
          "note": 81,
          "velocity": 95,
          "startTime": 25.04,
          "duration": 0.5
        },
        {
          "note": 84,
          "velocity": 98,
          "startTime": 25.57,
          "duration": 0.4
        },
        {
          "note": 81,
          "velocity": 100,
          "startTime": 26.09,
          "duration": 0.5
        },
        {
          "note": 79,
          "velocity": 98,
          "startTime": 26.61,
          "duration": 0.4
        },
        {
          "note": 83,
          "velocity": 100,
          "startTime": 27.13,
          "duration": 0.5
        },
        {
          "note": 84,
          "velocity": 98,
          "startTime": 27.65,
          "duration": 0.4
        },
        {
          "note": 81,
          "velocity": 100,
          "startTime": 28.17,
          "duration": 0.5
        },
        {
          "note": 79,
          "velocity": 98,
          "startTime": 28.7,
          "duration": 0.4
        },
        {
          "note": 76,
          "velocity": 100,
          "startTime": 29.22,
          "duration": 0.5
        },
        {
          "note": 79,
          "velocity": 98,
          "startTime": 29.74,
          "duration": 0.4
        },
        {
          "note": 81,
          "velocity": 100,
          "startTime": 30.26,
          "duration": 0.5
        },
        {
          "note": 84,
          "velocity": 100,
          "startTime": 30.78,
          "duration": 0.4
        },
        {
          "note": 81,
          "velocity": 98,
          "startTime": 31.3,
          "duration": 0.5
        },
        {
          "note": 79,
          "velocity": 100,
          "startTime": 31.83,
          "duration": 0.4
        },
        {
          "note": 77,
          "velocity": 100,
          "startTime": 32.35,
          "duration": 0.5
        },
        {
          "note": 79,
          "velocity": 98,
          "startTime": 32.87,
          "duration": 0.4
        },
        {
          "note": 81,
          "velocity": 100,
          "startTime": 33.39,
          "duration": 0.5
        },
        {
          "note": 84,
          "velocity": 100,
          "startTime": 33.91,
          "duration": 0.5
        },
        {
          "note": 81,
          "velocity": 95,
          "startTime": 34.43,
          "duration": 0.5
        },
        {
          "note": 79,
          "velocity": 93,
          "startTime": 34.96,
          "duration": 0.4
        },
        {
          "note": 76,
          "velocity": 90,
          "startTime": 35.48,
          "duration": 0.5
        },
        {
          "note": 74,
          "velocity": 88,
          "startTime": 36.0,
          "duration": 0.5
        },
        {
          "note": 72,
          "velocity": 85,
          "startTime": 36.52,
          "duration": 0.5
        },
        {
          "note": 74,
          "velocity": 83,
          "startTime": 37.04,
          "duration": 0.4
        },
        {
          "note": 76,
          "velocity": 85,
          "startTime": 37.57,
          "duration": 0.5
        },
        {
          "note": 74,
          "velocity": 82,
          "startTime": 38.09,
          "duration": 0.4
        },
        {
          "note": 72,
          "velocity": 80,
          "startTime": 38.61,
          "duration": 0.5
        },
        {
          "note": 69,
          "velocity": 78,
          "startTime": 39.13,
          "duration": 0.5
        },
        {
          "note": 72,
          "velocity": 75,
          "startTime": 39.65,
          "duration": 0.5
        },
        {
          "note": 74,
          "velocity": 73,
          "startTime": 40.17,
          "duration": 0.4
        },
        {
          "note": 72,
          "velocity": 70,
          "startTime": 40.7,
          "duration": 0.5
        },
        {
          "note": 69,
          "velocity": 68,
          "startTime": 41.22,
          "duration": 0.5
        },
        {
          "note": 67,
          "velocity": 68,
          "startTime": 41.74,
          "duration": 0.5
        },
        {
          "note": 69,
          "velocity": 67,
          "startTime": 42.26,
          "duration": 0.4
        },
        {
          "note": 72,
          "velocity": 65,
          "startTime": 42.78,
          "duration": 0.5
        },
        {
          "note": 74,
          "velocity": 67,
          "startTime": 43.3,
          "duration": 0.4
        },
        {
          "note": 72,
          "velocity": 65,
          "startTime": 43.83,
          "duration": 0.8
        },
        {
          "note": 67,
          "velocity": 65,
          "startTime": 44.61,
          "duration": 0.4
        }
      ]
    }
  ],
  "key": "C",
  "bpm": 115,
  "scale": "Lydian"
}