{
  "genre": "ambient",
  "mode": "sleep",
  "mixStrategy": "Ultra-sparse, low-register layering with maximum frequency separation. Bass pad occupies C1-C3 providing a warm foundation drone. Choir pad sits in C3-C5 with slow-moving sus2 and maj7 voicings, never more than 2 notes at once. New Age pad melody floats in C4-C5 with predominantly descending motion. All tracks use staggered note entries (no simultaneous attacks) to avoid rhythmic pulse. Total polyphony never exceeds 3-4 notes. Energy arc: 0.4 at start, gently settling to 0.2 by end. Chord changes every ~16-20 seconds, moving Fsus2 \u2192 Bbmaj7 \u2192 Fsus2, with all tracks synchronized on harmonic shifts.",
  "tracks": [
    {
      "name": "Descending New Age Pad Melody",
      "program": 88,
      "role": "melody",
      "frequencyRole": "Lead voice in C4-C5 range (MIDI 60-72). Predominantly descending stepwise motion evoking settling and release. Sparse, floating entries every 4-8 seconds with no rhythmic regularity. Stays below C5 to maintain warmth.",
      "suggestedVolume": 0.3,
      "totalDuration": 45,
      "notes": [
        {
          "note": 72,
          "velocity": 40,
          "startTime": 0.5,
          "duration": 8.0
        },
        {
          "note": 70,
          "velocity": 38,
          "startTime": 5.0,
          "duration": 7.0
        },
        {
          "note": 69,
          "velocity": 36,
          "startTime": 10.5,
          "duration": 6.5
        },
        {
          "note": 67,
          "velocity": 35,
          "startTime": 15.0,
          "duration": 8.0
        },
        {
          "note": 65,
          "velocity": 38,
          "startTime": 17.5,
          "duration": 7.5
        },
        {
          "note": 67,
          "velocity": 34,
          "startTime": 22.0,
          "duration": 6.0
        },
        {
          "note": 65,
          "velocity": 33,
          "startTime": 25.5,
          "duration": 7.0
        },
        {
          "note": 64,
          "velocity": 32,
          "startTime": 28.5,
          "duration": 8.0
        },
        {
          "note": 62,
          "velocity": 31,
          "startTime": 32.0,
          "duration": 6.5
        },
        {
          "note": 60,
          "velocity": 30,
          "startTime": 34.5,
          "duration": 7.5
        },
        {
          "note": 65,
          "velocity": 29,
          "startTime": 36.0,
          "duration": 6.0
        },
        {
          "note": 64,
          "velocity": 28,
          "startTime": 38.0,
          "duration": 7.0
        },
        {
          "note": 62,
          "velocity": 27,
          "startTime": 39.5,
          "duration": 5.5
        },
        {
          "note": 60,
          "velocity": 26,
          "startTime": 41.0,
          "duration": 4.0
        },
        {
          "note": 60,
          "velocity": 25,
          "startTime": 43.0,
          "duration": 2.0
        }
      ]
    },
    {
      "name": "Warm Pad Bass Foundation",
      "program": 89,
      "role": "bass",
      "frequencyRole": "Deep foundation in C1-C3 range (MIDI 24-48). Plays chord roots as long sustained drones. Changes only with chord progression every ~16 seconds. Provides warm sub-harmonic bed.",
      "suggestedVolume": 0.35,
      "totalDuration": 45,
      "notes": [
        {
          "note": 41,
          "velocity": 40,
          "startTime": 0,
          "duration": 16.0
        },
        {
          "note": 36,
          "velocity": 38,
          "startTime": 2.0,
          "duration": 14.0
        },
        {
          "note": 29,
          "velocity": 36,
          "startTime": 5.0,
          "duration": 11.0
        },
        {
          "note": 41,
          "velocity": 37,
          "startTime": 8.0,
          "duration": 8.5
        },
        {
          "note": 36,
          "velocity": 35,
          "startTime": 12.0,
          "duration": 5.0
        },
        {
          "note": 46,
          "velocity": 34,
          "startTime": 16.5,
          "duration": 15.5
        },
        {
          "note": 41,
          "velocity": 33,
          "startTime": 19.0,
          "duration": 13.0
        },
        {
          "note": 34,
          "velocity": 32,
          "startTime": 22.0,
          "duration": 10.0
        },
        {
          "note": 46,
          "velocity": 31,
          "startTime": 26.0,
          "duration": 7.0
        },
        {
          "note": 41,
          "velocity": 30,
          "startTime": 29.0,
          "duration": 4.5
        },
        {
          "note": 41,
          "velocity": 30,
          "startTime": 33.0,
          "duration": 12.0
        },
        {
          "note": 36,
          "velocity": 29,
          "startTime": 34.5,
          "duration": 10.5
        },
        {
          "note": 29,
          "velocity": 28,
          "startTime": 37.0,
          "duration": 8.0
        },
        {
          "note": 41,
          "velocity": 27,
          "startTime": 39.5,
          "duration": 5.5
        },
        {
          "note": 36,
          "velocity": 25,
          "startTime": 42.0,
          "duration": 3.0
        }
      ]
    },
    {
      "name": "Choir Pad Harmonic Body",
      "program": 91,
      "role": "chords",
      "frequencyRole": "Harmonic body in C3-C5 range (MIDI 48-65). Provides sus2 and maj7 voicings with only 1-2 notes at a time to avoid density. Changes with chord progression. Staggered entries avoid rhythmic pulse.",
      "suggestedVolume": 0.28,
      "totalDuration": 45,
      "notes": [
        {
          "note": 53,
          "velocity": 38,
          "startTime": 1.0,
          "duration": 14.0
        },
        {
          "note": 60,
          "velocity": 36,
          "startTime": 3.5,
          "duration": 12.0
        },
        {
          "note": 57,
          "velocity": 35,
          "startTime": 7.0,
          "duration": 9.0
        },
        {
          "note": 53,
          "velocity": 34,
          "startTime": 11.0,
          "duration": 6.0
        },
        {
          "note": 58,
          "velocity": 36,
          "startTime": 17.0,
          "duration": 14.0
        },
        {
          "note": 53,
          "velocity": 34,
          "startTime": 19.5,
          "duration": 12.0
        },
        {
          "note": 65,
          "velocity": 33,
          "startTime": 21.0,
          "duration": 10.0
        },
        {
          "note": 58,
          "velocity": 32,
          "startTime": 24.5,
          "duration": 8.0
        },
        {
          "note": 53,
          "velocity": 31,
          "startTime": 28.0,
          "duration": 6.5
        },
        {
          "note": 55,
          "velocity": 30,
          "startTime": 30.5,
          "duration": 5.0
        },
        {
          "note": 53,
          "velocity": 30,
          "startTime": 33.5,
          "duration": 11.5
        },
        {
          "note": 60,
          "velocity": 29,
          "startTime": 35.5,
          "duration": 9.5
        },
        {
          "note": 57,
          "velocity": 28,
          "startTime": 38.0,
          "duration": 7.0
        },
        {
          "note": 53,
          "velocity": 27,
          "startTime": 40.5,
          "duration": 4.5
        },
        {
          "note": 48,
          "velocity": 25,
          "startTime": 43.0,
          "duration": 2.0
        }
      ]
    }
  ],
  "key": "F",
  "bpm": 48,
  "scale": "Lydian"
}