<svg xmlns="http://www.w3.org/2000/svg" width="1024" height="1024" viewBox="0 0 1024 1024">
  <defs>
    <filter id="glow0" x="-20%" y="-20%" width="140%" height="140%"><feGaussianBlur in="SourceGraphic" stdDeviation="16"/></filter>
    <filter id="soft0" x="-10%" y="-10%" width="120%" height="120%"><feGaussianBlur in="SourceGraphic" stdDeviation="5"/></filter>
    <filter id="glow1" x="-20%" y="-20%" width="140%" height="140%"><feGaussianBlur in="SourceGraphic" stdDeviation="16"/></filter>
    <filter id="soft1" x="-10%" y="-10%" width="120%" height="120%"><feGaussianBlur in="SourceGraphic" stdDeviation="5"/></filter>
    <filter id="glow2" x="-20%" y="-20%" width="140%" height="140%"><feGaussianBlur in="SourceGraphic" stdDeviation="16"/></filter>
    <filter id="soft2" x="-10%" y="-10%" width="120%" height="120%"><feGaussianBlur in="SourceGraphic" stdDeviation="5"/></filter>
    <filter id="glow3" x="-20%" y="-20%" width="140%" height="140%"><feGaussianBlur in="SourceGraphic" stdDeviation="14"/></filter>
    <filter id="soft3" x="-10%" y="-10%" width="120%" height="120%"><feGaussianBlur in="SourceGraphic" stdDeviation="4"/></filter>
    <filter id="ambientBloom" x="-50%" y="-50%" width="200%" height="200%"><feGaussianBlur in="SourceGraphic" stdDeviation="50"/></filter>
    <radialGradient id="centerGlow" cx="50%" cy="50%" r="40%">
      <stop offset="0%" stop-color="#6E7CF7" stop-opacity="0.12"/>
      <stop offset="50%" stop-color="#6E7CF7" stop-opacity="0.04"/>
      <stop offset="100%" stop-color="#080C15" stop-opacity="0"/>
    </radialGradient>
  </defs>

  <rect width="1024" height="1024" fill="#080C15"/>

  <circle cx="512" cy="512" r="400" fill="#6E7CF7" opacity="0.06" filter="url(#ambientBloom)"/>
  <circle cx="512" cy="512" r="400" fill="url(#centerGlow)"/>

  <!-- Wave 0 (#9080C4) -->
  <path d="M0.00,512.00L2.56,512.05L5.12,512.11L7.68,512.17L10.24,512.24L12.80,512.31L15.36,512.38L17.92,512.47L20.48,512.56L23.04,512.65L25.60,512.75L28.16,512.86L30.72,512.98L33.28,513.10L35.84,513.23L38.40,513.37L40.96,513.52L43.52,513.68L46.08,513.85L48.64,514.02L51.20,514.21L53.76,514.41L56.32,514.61L58.88,514.83L61.44,515.06L64.00,515.30L66.56,515.56L69.12,515.82L71.68,516.10L74.24,516.39L76.80,516.70L79.36,517.02L81.92,517.35L84.48,517.70L87.04,518.06L89.60,518.44L92.16,518.84L94.72,519.25L97.28,519.67L99.84,520.12L102.40,520.58L104.96,521.06L107.52,521.55L110.08,522.07L112.64,522.60L115.20,523.15L117.76,523.71L120.32,524.30L122.88,524.91L125.44,525.53L128.00,526.18L130.56,526.84L133.12,527.53L135.68,528.23L138.24,528.95L140.80,529.70L143.36,530.46L145.92,531.24L148.48,532.04L151.04,532.86L153.60,533.70L156.16,534.56L158.72,535.44L161.28,536.34L163.84,537.25L166.40,538.19L168.96,539.14L171.52,540.11L174.08,541.10L176.64,542.10L179.20,543.12L181.76,544.15L184.32,545.20L186.88,546.26L189.44,547.34L192.00,548.42L194.56,549.52L197.12,550.63L199.68,551.75L202.24,552.88L204.80,554.02L207.36,555.17L209.92,556.32L212.48,557.47L215.04,558.63L217.60,559.79L220.16,560.95L222.72,562.11L225.28,563.27L227.84,564.43L230.40,565.58L232.96,566.72L235.52,567.86L238.08,568.98L240.64,570.10L243.20,571.20L245.76,572.29L248.32,573.36L250.88,574.42L253.44,575.45L256.00,576.46L258.56,577.45L261.12,578.41L263.68,579.35L266.24,580.25L268.80,581.13L271.36,581.97L273.92,582.77L276.48,583.54L279.04,584.27L281.60,584.95L284.16,585.60L286.72,586.19L289.28,586.74L291.84,587.24L294.40,587.69L296.96,588.09L299.52,588.43L302.08,588.71L304.64,588.94L307.20,589.10L309.76,589.20L312.32,589.24L314.88,589.21L317.44,589.11L320.00,588.94L322.56,588.71L325.12,588.40L327.68,588.01L330.24,587.56L332.80,587.02L335.36,586.41L337.92,585.72L340.48,584.95L343.04,584.10L345.60,583.17L348.16,582.15L350.72,581.06L353.28,579.88L355.84,578.61L358.40,577.26L360.96,575.83L363.52,574.32L366.08,572.71L368.64,571.03L371.20,569.26L373.76,567.40L376.32,565.46L378.88,563.44L381.44,561.34L384.00,559.16L386.56,556.89L389.12,554.54L391.68,552.12L394.24,549.62L396.80,547.04L399.36,544.39L401.92,541.67L404.48,538.88L407.04,536.01L409.60,533.08L412.16,530.09L414.72,527.03L417.28,523.91L419.84,520.73L422.40,517.50L424.96,514.22L427.52,510.88L430.08,507.50L432.64,504.07L435.20,500.61L437.76,497.10L440.32,493.56L442.88,489.99L445.44,486.39L448.00,482.76L450.56,479.11L453.12,475.44L455.68,471.76L458.24,468.07L460.80,464.37L463.36,460.66L465.92,456.96L468.48,453.26L471.04,449.56L473.60,445.88L476.16,442.21L478.72,438.56L481.28,434.94L483.84,431.33L486.40,427.76L488.96,424.22L491.52,420.72L494.08,417.26L496.64,413.84L499.20,410.47L501.76,407.15L504.32,403.88L506.88,400.67L509.44,397.53L512.00,394.44L514.56,391.43L517.12,388.48L519.68,385.61L522.24,382.81L524.80,380.09L527.36,377.46L529.92,374.91L532.48,372.44L535.04,370.06L537.60,367.78L540.16,365.58L542.72,363.48L545.28,361.48L547.84,359.57L550.40,357.77L552.96,356.07L555.52,354.47L558.08,352.97L560.64,351.57L563.20,350.29L565.76,349.11L568.32,348.03L570.88,347.06L573.44,346.20L576.00,345.45L578.56,344.81L581.12,344.27L583.68,343.84L586.24,343.52L588.80,343.30L591.36,343.19L593.92,343.18L596.48,343.28L599.04,343.48L601.60,343.78L604.16,344.19L606.72,344.69L609.28,345.29L611.84,345.98L614.40,346.77L616.96,347.66L619.52,348.63L622.08,349.69L624.64,350.84L627.20,352.07L629.76,353.38L632.32,354.77L634.88,356.24L637.44,357.79L640.00,359.40L642.56,361.09L645.12,362.84L647.68,364.66L650.24,366.53L652.80,368.47L655.36,370.46L657.92,372.51L660.48,374.60L663.04,376.74L665.60,378.93L668.16,381.15L670.72,383.42L673.28,385.72L675.84,388.05L678.40,390.41L680.96,392.80L683.52,395.22L686.08,397.65L688.64,400.10L691.20,402.57L693.76,405.05L696.32,407.54L698.88,410.04L701.44,412.54L704.00,415.04L706.56,417.55L709.12,420.05L711.68,422.55L714.24,425.04L716.80,427.51L719.36,429.98L721.92,432.43L724.48,434.87L727.04,437.29L729.60,439.69L732.16,442.06L734.72,444.42L737.28,446.74L739.84,449.04L742.40,451.31L744.96,453.55L747.52,455.76L750.08,457.94L752.64,460.08L755.20,462.19L757.76,464.26L760.32,466.29L762.88,468.29L765.44,470.24L768.00,472.16L770.56,474.04L773.12,475.87L775.68,477.66L778.24,479.41L780.80,481.12L783.36,482.78L785.92,484.41L788.48,485.98L791.04,487.52L793.60,489.01L796.16,490.45L798.72,491.86L801.28,493.22L803.84,494.53L806.40,495.80L808.96,497.03L811.52,498.22L814.08,499.37L816.64,500.47L819.20,501.53L821.76,502.55L824.32,503.53L826.88,504.47L829.44,505.37L832.00,506.23L834.56,507.05L837.12,507.84L839.68,508.59L842.24,509.30L844.80,509.98L847.36,510.63L849.92,511.24L852.48,511.81L855.04,512.36L857.60,512.87L860.16,513.36L862.72,513.81L865.28,514.24L867.84,514.64L870.40,515.01L872.96,515.35L875.52,515.67L878.08,515.96L880.64,516.24L883.20,516.48L885.76,516.71L888.32,516.92L890.88,517.10L893.44,517.27L896.00,517.42L898.56,517.55L901.12,517.66L903.68,517.75L906.24,517.84L908.80,517.90L911.36,517.95L913.92,517.99L916.48,518.02L919.04,518.03L921.60,518.04L924.16,518.03L926.72,518.01L929.28,517.99L931.84,517.95L934.40,517.91L936.96,517.86L939.52,517.80L942.08,517.74L944.64,517.66L947.20,517.59L949.76,517.51L952.32,517.42L954.88,517.33L957.44,517.24L960.00,517.14L962.56,517.05L965.12,516.94L967.68,516.84L970.24,516.73L972.80,516.63L975.36,516.52L977.92,516.41L980.48,516.30L983.04,516.19L985.60,516.08L988.16,515.97L990.72,515.85L993.28,515.74L995.84,515.63L998.40,515.53L1000.96,515.42L1003.52,515.31L1006.08,515.21L1008.64,515.10L1011.20,515.00L1013.76,514.90L1016.32,514.80L1018.88,514.70L1021.44,514.60L1024.00,514.51" fill="none" stroke="#9080C4" stroke-width="18" opacity="0.06" stroke-linecap="round" filter="url(#glow0)"/>
  <path d="M0.00,512.00L2.56,512.05L5.12,512.11L7.68,512.17L10.24,512.24L12.80,512.31L15.36,512.38L17.92,512.47L20.48,512.56L23.04,512.65L25.60,512.75L28.16,512.86L30.72,512.98L33.28,513.10L35.84,513.23L38.40,513.37L40.96,513.52L43.52,513.68L46.08,513.85L48.64,514.02L51.20,514.21L53.76,514.41L56.32,514.61L58.88,514.83L61.44,515.06L64.00,515.30L66.56,515.56L69.12,515.82L71.68,516.10L74.24,516.39L76.80,516.70L79.36,517.02L81.92,517.35L84.48,517.70L87.04,518.06L89.60,518.44L92.16,518.84L94.72,519.25L97.28,519.67L99.84,520.12L102.40,520.58L104.96,521.06L107.52,521.55L110.08,522.07L112.64,522.60L115.20,523.15L117.76,523.71L120.32,524.30L122.88,524.91L125.44,525.53L128.00,526.18L130.56,526.84L133.12,527.53L135.68,528.23L138.24,528.95L140.80,529.70L143.36,530.46L145.92,531.24L148.48,532.04L151.04,532.86L153.60,533.70L156.16,534.56L158.72,535.44L161.28,536.34L163.84,537.25L166.40,538.19L168.96,539.14L171.52,540.11L174.08,541.10L176.64,542.10L179.20,543.12L181.76,544.15L184.32,545.20L186.88,546.26L189.44,547.34L192.00,548.42L194.56,549.52L197.12,550.63L199.68,551.75L202.24,552.88L204.80,554.02L207.36,555.17L209.92,556.32L212.48,557.47L215.04,558.63L217.60,559.79L220.16,560.95L222.72,562.11L225.28,563.27L227.84,564.43L230.40,565.58L232.96,566.72L235.52,567.86L238.08,568.98L240.64,570.10L243.20,571.20L245.76,572.29L248.32,573.36L250.88,574.42L253.44,575.45L256.00,576.46L258.56,577.45L261.12,578.41L263.68,579.35L266.24,580.25L268.80,581.13L271.36,581.97L273.92,582.77L276.48,583.54L279.04,584.27L281.60,584.95L284.16,585.60L286.72,586.19L289.28,586.74L291.84,587.24L294.40,587.69L296.96,588.09L299.52,588.43L302.08,588.71L304.64,588.94L307.20,589.10L309.76,589.20L312.32,589.24L314.88,589.21L317.44,589.11L320.00,588.94L322.56,588.71L325.12,588.40L327.68,588.01L330.24,587.56L332.80,587.02L335.36,586.41L337.92,585.72L340.48,584.95L343.04,584.10L345.60,583.17L348.16,582.15L350.72,581.06L353.28,579.88L355.84,578.61L358.40,577.26L360.96,575.83L363.52,574.32L366.08,572.71L368.64,571.03L371.20,569.26L373.76,567.40L376.32,565.46L378.88,563.44L381.44,561.34L384.00,559.16L386.56,556.89L389.12,554.54L391.68,552.12L394.24,549.62L396.80,547.04L399.36,544.39L401.92,541.67L404.48,538.88L407.04,536.01L409.60,533.08L412.16,530.09L414.72,527.03L417.28,523.91L419.84,520.73L422.40,517.50L424.96,514.22L427.52,510.88L430.08,507.50L432.64,504.07L435.20,500.61L437.76,497.10L440.32,493.56L442.88,489.99L445.44,486.39L448.00,482.76L450.56,479.11L453.12,475.44L455.68,471.76L458.24,468.07L460.80,464.37L463.36,460.66L465.92,456.96L468.48,453.26L471.04,449.56L473.60,445.88L476.16,442.21L478.72,438.56L481.28,434.94L483.84,431.33L486.40,427.76L488.96,424.22L491.52,420.72L494.08,417.26L496.64,413.84L499.20,410.47L501.76,407.15L504.32,403.88L506.88,400.67L509.44,397.53L512.00,394.44L514.56,391.43L517.12,388.48L519.68,385.61L522.24,382.81L524.80,380.09L527.36,377.46L529.92,374.91L532.48,372.44L535.04,370.06L537.60,367.78L540.16,365.58L542.72,363.48L545.28,361.48L547.84,359.57L550.40,357.77L552.96,356.07L555.52,354.47L558.08,352.97L560.64,351.57L563.20,350.29L565.76,349.11L568.32,348.03L570.88,347.06L573.44,346.20L576.00,345.45L578.56,344.81L581.12,344.27L583.68,343.84L586.24,343.52L588.80,343.30L591.36,343.19L593.92,343.18L596.48,343.28L599.04,343.48L601.60,343.78L604.16,344.19L606.72,344.69L609.28,345.29L611.84,345.98L614.40,346.77L616.96,347.66L619.52,348.63L622.08,349.69L624.64,350.84L627.20,352.07L629.76,353.38L632.32,354.77L634.88,356.24L637.44,357.79L640.00,359.40L642.56,361.09L645.12,362.84L647.68,364.66L650.24,366.53L652.80,368.47L655.36,370.46L657.92,372.51L660.48,374.60L663.04,376.74L665.60,378.93L668.16,381.15L670.72,383.42L673.28,385.72L675.84,388.05L678.40,390.41L680.96,392.80L683.52,395.22L686.08,397.65L688.64,400.10L691.20,402.57L693.76,405.05L696.32,407.54L698.88,410.04L701.44,412.54L704.00,415.04L706.56,417.55L709.12,420.05L711.68,422.55L714.24,425.04L716.80,427.51L719.36,429.98L721.92,432.43L724.48,434.87L727.04,437.29L729.60,439.69L732.16,442.06L734.72,444.42L737.28,446.74L739.84,449.04L742.40,451.31L744.96,453.55L747.52,455.76L750.08,457.94L752.64,460.08L755.20,462.19L757.76,464.26L760.32,466.29L762.88,468.29L765.44,470.24L768.00,472.16L770.56,474.04L773.12,475.87L775.68,477.66L778.24,479.41L780.80,481.12L783.36,482.78L785.92,484.41L788.48,485.98L791.04,487.52L793.60,489.01L796.16,490.45L798.72,491.86L801.28,493.22L803.84,494.53L806.40,495.80L808.96,497.03L811.52,498.22L814.08,499.37L816.64,500.47L819.20,501.53L821.76,502.55L824.32,503.53L826.88,504.47L829.44,505.37L832.00,506.23L834.56,507.05L837.12,507.84L839.68,508.59L842.24,509.30L844.80,509.98L847.36,510.63L849.92,511.24L852.48,511.81L855.04,512.36L857.60,512.87L860.16,513.36L862.72,513.81L865.28,514.24L867.84,514.64L870.40,515.01L872.96,515.35L875.52,515.67L878.08,515.96L880.64,516.24L883.20,516.48L885.76,516.71L888.32,516.92L890.88,517.10L893.44,517.27L896.00,517.42L898.56,517.55L901.12,517.66L903.68,517.75L906.24,517.84L908.80,517.90L911.36,517.95L913.92,517.99L916.48,518.02L919.04,518.03L921.60,518.04L924.16,518.03L926.72,518.01L929.28,517.99L931.84,517.95L934.40,517.91L936.96,517.86L939.52,517.80L942.08,517.74L944.64,517.66L947.20,517.59L949.76,517.51L952.32,517.42L954.88,517.33L957.44,517.24L960.00,517.14L962.56,517.05L965.12,516.94L967.68,516.84L970.24,516.73L972.80,516.63L975.36,516.52L977.92,516.41L980.48,516.30L983.04,516.19L985.60,516.08L988.16,515.97L990.72,515.85L993.28,515.74L995.84,515.63L998.40,515.53L1000.96,515.42L1003.52,515.31L1006.08,515.21L1008.64,515.10L1011.20,515.00L1013.76,514.90L1016.32,514.80L1018.88,514.70L1021.44,514.60L1024.00,514.51" fill="none" stroke="#9080C4" stroke-width="5" opacity="0.25" stroke-linecap="round" filter="url(#soft0)"/>
  <path d="M0.00,512.00L2.56,512.05L5.12,512.11L7.68,512.17L10.24,512.24L12.80,512.31L15.36,512.38L17.92,512.47L20.48,512.56L23.04,512.65L25.60,512.75L28.16,512.86L30.72,512.98L33.28,513.10L35.84,513.23L38.40,513.37L40.96,513.52L43.52,513.68L46.08,513.85L48.64,514.02L51.20,514.21L53.76,514.41L56.32,514.61L58.88,514.83L61.44,515.06L64.00,515.30L66.56,515.56L69.12,515.82L71.68,516.10L74.24,516.39L76.80,516.70L79.36,517.02L81.92,517.35L84.48,517.70L87.04,518.06L89.60,518.44L92.16,518.84L94.72,519.25L97.28,519.67L99.84,520.12L102.40,520.58L104.96,521.06L107.52,521.55L110.08,522.07L112.64,522.60L115.20,523.15L117.76,523.71L120.32,524.30L122.88,524.91L125.44,525.53L128.00,526.18L130.56,526.84L133.12,527.53L135.68,528.23L138.24,528.95L140.80,529.70L143.36,530.46L145.92,531.24L148.48,532.04L151.04,532.86L153.60,533.70L156.16,534.56L158.72,535.44L161.28,536.34L163.84,537.25L166.40,538.19L168.96,539.14L171.52,540.11L174.08,541.10L176.64,542.10L179.20,543.12L181.76,544.15L184.32,545.20L186.88,546.26L189.44,547.34L192.00,548.42L194.56,549.52L197.12,550.63L199.68,551.75L202.24,552.88L204.80,554.02L207.36,555.17L209.92,556.32L212.48,557.47L215.04,558.63L217.60,559.79L220.16,560.95L222.72,562.11L225.28,563.27L227.84,564.43L230.40,565.58L232.96,566.72L235.52,567.86L238.08,568.98L240.64,570.10L243.20,571.20L245.76,572.29L248.32,573.36L250.88,574.42L253.44,575.45L256.00,576.46L258.56,577.45L261.12,578.41L263.68,579.35L266.24,580.25L268.80,581.13L271.36,581.97L273.92,582.77L276.48,583.54L279.04,584.27L281.60,584.95L284.16,585.60L286.72,586.19L289.28,586.74L291.84,587.24L294.40,587.69L296.96,588.09L299.52,588.43L302.08,588.71L304.64,588.94L307.20,589.10L309.76,589.20L312.32,589.24L314.88,589.21L317.44,589.11L320.00,588.94L322.56,588.71L325.12,588.40L327.68,588.01L330.24,587.56L332.80,587.02L335.36,586.41L337.92,585.72L340.48,584.95L343.04,584.10L345.60,583.17L348.16,582.15L350.72,581.06L353.28,579.88L355.84,578.61L358.40,577.26L360.96,575.83L363.52,574.32L366.08,572.71L368.64,571.03L371.20,569.26L373.76,567.40L376.32,565.46L378.88,563.44L381.44,561.34L384.00,559.16L386.56,556.89L389.12,554.54L391.68,552.12L394.24,549.62L396.80,547.04L399.36,544.39L401.92,541.67L404.48,538.88L407.04,536.01L409.60,533.08L412.16,530.09L414.72,527.03L417.28,523.91L419.84,520.73L422.40,517.50L424.96,514.22L427.52,510.88L430.08,507.50L432.64,504.07L435.20,500.61L437.76,497.10L440.32,493.56L442.88,489.99L445.44,486.39L448.00,482.76L450.56,479.11L453.12,475.44L455.68,471.76L458.24,468.07L460.80,464.37L463.36,460.66L465.92,456.96L468.48,453.26L471.04,449.56L473.60,445.88L476.16,442.21L478.72,438.56L481.28,434.94L483.84,431.33L486.40,427.76L488.96,424.22L491.52,420.72L494.08,417.26L496.64,413.84L499.20,410.47L501.76,407.15L504.32,403.88L506.88,400.67L509.44,397.53L512.00,394.44L514.56,391.43L517.12,388.48L519.68,385.61L522.24,382.81L524.80,380.09L527.36,377.46L529.92,374.91L532.48,372.44L535.04,370.06L537.60,367.78L540.16,365.58L542.72,363.48L545.28,361.48L547.84,359.57L550.40,357.77L552.96,356.07L555.52,354.47L558.08,352.97L560.64,351.57L563.20,350.29L565.76,349.11L568.32,348.03L570.88,347.06L573.44,346.20L576.00,345.45L578.56,344.81L581.12,344.27L583.68,343.84L586.24,343.52L588.80,343.30L591.36,343.19L593.92,343.18L596.48,343.28L599.04,343.48L601.60,343.78L604.16,344.19L606.72,344.69L609.28,345.29L611.84,345.98L614.40,346.77L616.96,347.66L619.52,348.63L622.08,349.69L624.64,350.84L627.20,352.07L629.76,353.38L632.32,354.77L634.88,356.24L637.44,357.79L640.00,359.40L642.56,361.09L645.12,362.84L647.68,364.66L650.24,366.53L652.80,368.47L655.36,370.46L657.92,372.51L660.48,374.60L663.04,376.74L665.60,378.93L668.16,381.15L670.72,383.42L673.28,385.72L675.84,388.05L678.40,390.41L680.96,392.80L683.52,395.22L686.08,397.65L688.64,400.10L691.20,402.57L693.76,405.05L696.32,407.54L698.88,410.04L701.44,412.54L704.00,415.04L706.56,417.55L709.12,420.05L711.68,422.55L714.24,425.04L716.80,427.51L719.36,429.98L721.92,432.43L724.48,434.87L727.04,437.29L729.60,439.69L732.16,442.06L734.72,444.42L737.28,446.74L739.84,449.04L742.40,451.31L744.96,453.55L747.52,455.76L750.08,457.94L752.64,460.08L755.20,462.19L757.76,464.26L760.32,466.29L762.88,468.29L765.44,470.24L768.00,472.16L770.56,474.04L773.12,475.87L775.68,477.66L778.24,479.41L780.80,481.12L783.36,482.78L785.92,484.41L788.48,485.98L791.04,487.52L793.60,489.01L796.16,490.45L798.72,491.86L801.28,493.22L803.84,494.53L806.40,495.80L808.96,497.03L811.52,498.22L814.08,499.37L816.64,500.47L819.20,501.53L821.76,502.55L824.32,503.53L826.88,504.47L829.44,505.37L832.00,506.23L834.56,507.05L837.12,507.84L839.68,508.59L842.24,509.30L844.80,509.98L847.36,510.63L849.92,511.24L852.48,511.81L855.04,512.36L857.60,512.87L860.16,513.36L862.72,513.81L865.28,514.24L867.84,514.64L870.40,515.01L872.96,515.35L875.52,515.67L878.08,515.96L880.64,516.24L883.20,516.48L885.76,516.71L888.32,516.92L890.88,517.10L893.44,517.27L896.00,517.42L898.56,517.55L901.12,517.66L903.68,517.75L906.24,517.84L908.80,517.90L911.36,517.95L913.92,517.99L916.48,518.02L919.04,518.03L921.60,518.04L924.16,518.03L926.72,518.01L929.28,517.99L931.84,517.95L934.40,517.91L936.96,517.86L939.52,517.80L942.08,517.74L944.64,517.66L947.20,517.59L949.76,517.51L952.32,517.42L954.88,517.33L957.44,517.24L960.00,517.14L962.56,517.05L965.12,516.94L967.68,516.84L970.24,516.73L972.80,516.63L975.36,516.52L977.92,516.41L980.48,516.30L983.04,516.19L985.60,516.08L988.16,515.97L990.72,515.85L993.28,515.74L995.84,515.63L998.40,515.53L1000.96,515.42L1003.52,515.31L1006.08,515.21L1008.64,515.10L1011.20,515.00L1013.76,514.90L1016.32,514.80L1018.88,514.70L1021.44,514.60L1024.00,514.51" fill="none" stroke="#9080C4" stroke-width="2.5" opacity="0.6" stroke-linecap="round"/>

  <!-- Wave 1 (#4EA8A6) -->
  <path d="M0.00,512.74L2.56,512.85L5.12,512.97L7.68,513.10L10.24,513.23L12.80,513.37L15.36,513.52L17.92,513.68L20.48,513.84L23.04,514.02L25.60,514.20L28.16,514.40L30.72,514.60L33.28,514.81L35.84,515.03L38.40,515.26L40.96,515.50L43.52,515.76L46.08,516.02L48.64,516.29L51.20,516.57L53.76,516.86L56.32,517.16L58.88,517.47L61.44,517.79L64.00,518.11L66.56,518.45L69.12,518.80L71.68,519.15L74.24,519.51L76.80,519.89L79.36,520.26L81.92,520.65L84.48,521.04L87.04,521.44L89.60,521.84L92.16,522.25L94.72,522.66L97.28,523.07L99.84,523.49L102.40,523.90L104.96,524.32L107.52,524.74L110.08,525.15L112.64,525.56L115.20,525.97L117.76,526.38L120.32,526.77L122.88,527.16L125.44,527.54L128.00,527.91L130.56,528.26L133.12,528.60L135.68,528.93L138.24,529.24L140.80,529.53L143.36,529.79L145.92,530.04L148.48,530.26L151.04,530.46L153.60,530.62L156.16,530.76L158.72,530.86L161.28,530.93L163.84,530.97L166.40,530.96L168.96,530.91L171.52,530.83L174.08,530.69L176.64,530.51L179.20,530.29L181.76,530.01L184.32,529.68L186.88,529.29L189.44,528.85L192.00,528.35L194.56,527.78L197.12,527.16L199.68,526.47L202.24,525.72L204.80,524.90L207.36,524.01L209.92,523.05L212.48,522.02L215.04,520.92L217.60,519.74L220.16,518.49L222.72,517.16L225.28,515.76L227.84,514.28L230.40,512.73L232.96,511.09L235.52,509.38L238.08,507.60L240.64,505.73L243.20,503.79L245.76,501.78L248.32,499.68L250.88,497.52L253.44,495.28L256.00,492.97L258.56,490.59L261.12,488.15L263.68,485.63L266.24,483.06L268.80,480.42L271.36,477.73L273.92,474.98L276.48,472.17L279.04,469.32L281.60,466.42L284.16,463.49L286.72,460.51L289.28,457.50L291.84,454.46L294.40,451.40L296.96,448.32L299.52,445.22L302.08,442.11L304.64,439.00L307.20,435.89L309.76,432.79L312.32,429.70L314.88,426.63L317.44,423.58L320.00,420.57L322.56,417.59L325.12,414.65L327.68,411.76L330.24,408.93L332.80,406.16L335.36,403.46L337.92,400.84L340.48,398.29L343.04,395.84L345.60,393.48L348.16,391.22L350.72,389.06L353.28,387.03L355.84,385.11L358.40,383.31L360.96,381.65L363.52,380.13L366.08,378.75L368.64,377.51L371.20,376.43L373.76,375.51L376.32,374.76L378.88,374.17L381.44,373.75L384.00,373.51L386.56,373.45L389.12,373.57L391.68,373.87L394.24,374.37L396.80,375.05L399.36,375.93L401.92,377.01L404.48,378.28L407.04,379.74L409.60,381.41L412.16,383.27L414.72,385.33L417.28,387.58L419.84,390.03L422.40,392.67L424.96,395.51L427.52,398.54L430.08,401.75L432.64,405.14L435.20,408.72L437.76,412.47L440.32,416.40L442.88,420.49L445.44,424.74L448.00,429.15L450.56,433.71L453.12,438.42L455.68,443.26L458.24,448.23L460.80,453.33L463.36,458.54L465.92,463.87L468.48,469.29L471.04,474.80L473.60,480.40L476.16,486.08L478.72,491.82L481.28,497.61L483.84,503.46L486.40,509.34L488.96,515.25L491.52,521.18L494.08,527.12L496.64,533.06L499.20,538.99L501.76,544.90L504.32,550.78L506.88,556.62L509.44,562.41L512.00,568.15L514.56,573.82L517.12,579.41L519.68,584.91L522.24,590.32L524.80,595.63L527.36,600.82L529.92,605.89L532.48,610.84L535.04,615.65L537.60,620.31L540.16,624.83L542.72,629.19L545.28,633.38L547.84,637.40L550.40,641.25L552.96,644.92L555.52,648.40L558.08,651.68L560.64,654.78L563.20,657.67L565.76,660.37L568.32,662.85L570.88,665.13L573.44,667.20L576.00,669.06L578.56,670.71L581.12,672.14L583.68,673.36L586.24,674.37L588.80,675.16L591.36,675.74L593.92,676.11L596.48,676.27L599.04,676.23L601.60,675.98L604.16,675.53L606.72,674.88L609.28,674.03L611.84,673.00L614.40,671.78L616.96,670.38L619.52,668.80L622.08,667.05L624.64,665.13L627.20,663.06L629.76,660.83L632.32,658.45L634.88,655.93L637.44,653.28L640.00,650.49L642.56,647.59L645.12,644.57L647.68,641.44L650.24,638.22L652.80,634.90L655.36,631.50L657.92,628.02L660.48,624.47L663.04,620.85L665.60,617.18L668.16,613.46L670.72,609.70L673.28,605.91L675.84,602.09L678.40,598.25L680.96,594.40L683.52,590.54L686.08,586.68L688.64,582.83L691.20,579.00L693.76,575.18L696.32,571.39L698.88,567.63L701.44,563.91L704.00,560.23L706.56,556.60L709.12,553.02L711.68,549.50L714.24,546.04L716.80,542.65L719.36,539.33L721.92,536.08L724.48,532.91L727.04,529.82L729.60,526.82L732.16,523.89L734.72,521.06L737.28,518.32L739.84,515.67L742.40,513.12L744.96,510.66L747.52,508.30L750.08,506.04L752.64,503.87L755.20,501.81L757.76,499.84L760.32,497.98L762.88,496.21L765.44,494.54L768.00,492.97L770.56,491.50L773.12,490.12L775.68,488.84L778.24,487.66L780.80,486.57L783.36,485.56L785.92,484.65L788.48,483.83L791.04,483.09L793.60,482.44L796.16,481.86L798.72,481.37L801.28,480.95L803.84,480.61L806.40,480.34L808.96,480.14L811.52,480.00L814.08,479.93L816.64,479.93L819.20,479.98L821.76,480.08L824.32,480.24L826.88,480.45L829.44,480.71L832.00,481.01L834.56,481.36L837.12,481.74L839.68,482.17L842.24,482.62L844.80,483.11L847.36,483.63L849.92,484.17L852.48,484.74L855.04,485.33L857.60,485.94L860.16,486.57L862.72,487.22L865.28,487.87L867.84,488.54L870.40,489.22L872.96,489.90L875.52,490.59L878.08,491.28L880.64,491.97L883.20,492.67L885.76,493.36L888.32,494.05L890.88,494.74L893.44,495.42L896.00,496.09L898.56,496.76L901.12,497.42L903.68,498.07L906.24,498.71L908.80,499.33L911.36,499.95L913.92,500.55L916.48,501.14L919.04,501.71L921.60,502.27L924.16,502.82L926.72,503.35L929.28,503.86L931.84,504.36L934.40,504.84L936.96,505.31L939.52,505.76L942.08,506.19L944.64,506.61L947.20,507.01L949.76,507.39L952.32,507.76L954.88,508.12L957.44,508.45L960.00,508.78L962.56,509.08L965.12,509.37L967.68,509.65L970.24,509.91L972.80,510.16L975.36,510.40L977.92,510.62L980.48,510.82L983.04,511.02L985.60,511.20L988.16,511.37L990.72,511.53L993.28,511.68L995.84,511.82L998.40,511.95L1000.96,512.06L1003.52,512.17L1006.08,512.27L1008.64,512.36L1011.20,512.44L1013.76,512.52L1016.32,512.58L1018.88,512.64L1021.44,512.69L1024.00,512.74" fill="none" stroke="#4EA8A6" stroke-width="18" opacity="0.06" stroke-linecap="round" filter="url(#glow1)"/>
  <path d="M0.00,512.74L2.56,512.85L5.12,512.97L7.68,513.10L10.24,513.23L12.80,513.37L15.36,513.52L17.92,513.68L20.48,513.84L23.04,514.02L25.60,514.20L28.16,514.40L30.72,514.60L33.28,514.81L35.84,515.03L38.40,515.26L40.96,515.50L43.52,515.76L46.08,516.02L48.64,516.29L51.20,516.57L53.76,516.86L56.32,517.16L58.88,517.47L61.44,517.79L64.00,518.11L66.56,518.45L69.12,518.80L71.68,519.15L74.24,519.51L76.80,519.89L79.36,520.26L81.92,520.65L84.48,521.04L87.04,521.44L89.60,521.84L92.16,522.25L94.72,522.66L97.28,523.07L99.84,523.49L102.40,523.90L104.96,524.32L107.52,524.74L110.08,525.15L112.64,525.56L115.20,525.97L117.76,526.38L120.32,526.77L122.88,527.16L125.44,527.54L128.00,527.91L130.56,528.26L133.12,528.60L135.68,528.93L138.24,529.24L140.80,529.53L143.36,529.79L145.92,530.04L148.48,530.26L151.04,530.46L153.60,530.62L156.16,530.76L158.72,530.86L161.28,530.93L163.84,530.97L166.40,530.96L168.96,530.91L171.52,530.83L174.08,530.69L176.64,530.51L179.20,530.29L181.76,530.01L184.32,529.68L186.88,529.29L189.44,528.85L192.00,528.35L194.56,527.78L197.12,527.16L199.68,526.47L202.24,525.72L204.80,524.90L207.36,524.01L209.92,523.05L212.48,522.02L215.04,520.92L217.60,519.74L220.16,518.49L222.72,517.16L225.28,515.76L227.84,514.28L230.40,512.73L232.96,511.09L235.52,509.38L238.08,507.60L240.64,505.73L243.20,503.79L245.76,501.78L248.32,499.68L250.88,497.52L253.44,495.28L256.00,492.97L258.56,490.59L261.12,488.15L263.68,485.63L266.24,483.06L268.80,480.42L271.36,477.73L273.92,474.98L276.48,472.17L279.04,469.32L281.60,466.42L284.16,463.49L286.72,460.51L289.28,457.50L291.84,454.46L294.40,451.40L296.96,448.32L299.52,445.22L302.08,442.11L304.64,439.00L307.20,435.89L309.76,432.79L312.32,429.70L314.88,426.63L317.44,423.58L320.00,420.57L322.56,417.59L325.12,414.65L327.68,411.76L330.24,408.93L332.80,406.16L335.36,403.46L337.92,400.84L340.48,398.29L343.04,395.84L345.60,393.48L348.16,391.22L350.72,389.06L353.28,387.03L355.84,385.11L358.40,383.31L360.96,381.65L363.52,380.13L366.08,378.75L368.64,377.51L371.20,376.43L373.76,375.51L376.32,374.76L378.88,374.17L381.44,373.75L384.00,373.51L386.56,373.45L389.12,373.57L391.68,373.87L394.24,374.37L396.80,375.05L399.36,375.93L401.92,377.01L404.48,378.28L407.04,379.74L409.60,381.41L412.16,383.27L414.72,385.33L417.28,387.58L419.84,390.03L422.40,392.67L424.96,395.51L427.52,398.54L430.08,401.75L432.64,405.14L435.20,408.72L437.76,412.47L440.32,416.40L442.88,420.49L445.44,424.74L448.00,429.15L450.56,433.71L453.12,438.42L455.68,443.26L458.24,448.23L460.80,453.33L463.36,458.54L465.92,463.87L468.48,469.29L471.04,474.80L473.60,480.40L476.16,486.08L478.72,491.82L481.28,497.61L483.84,503.46L486.40,509.34L488.96,515.25L491.52,521.18L494.08,527.12L496.64,533.06L499.20,538.99L501.76,544.90L504.32,550.78L506.88,556.62L509.44,562.41L512.00,568.15L514.56,573.82L517.12,579.41L519.68,584.91L522.24,590.32L524.80,595.63L527.36,600.82L529.92,605.89L532.48,610.84L535.04,615.65L537.60,620.31L540.16,624.83L542.72,629.19L545.28,633.38L547.84,637.40L550.40,641.25L552.96,644.92L555.52,648.40L558.08,651.68L560.64,654.78L563.20,657.67L565.76,660.37L568.32,662.85L570.88,665.13L573.44,667.20L576.00,669.06L578.56,670.71L581.12,672.14L583.68,673.36L586.24,674.37L588.80,675.16L591.36,675.74L593.92,676.11L596.48,676.27L599.04,676.23L601.60,675.98L604.16,675.53L606.72,674.88L609.28,674.03L611.84,673.00L614.40,671.78L616.96,670.38L619.52,668.80L622.08,667.05L624.64,665.13L627.20,663.06L629.76,660.83L632.32,658.45L634.88,655.93L637.44,653.28L640.00,650.49L642.56,647.59L645.12,644.57L647.68,641.44L650.24,638.22L652.80,634.90L655.36,631.50L657.92,628.02L660.48,624.47L663.04,620.85L665.60,617.18L668.16,613.46L670.72,609.70L673.28,605.91L675.84,602.09L678.40,598.25L680.96,594.40L683.52,590.54L686.08,586.68L688.64,582.83L691.20,579.00L693.76,575.18L696.32,571.39L698.88,567.63L701.44,563.91L704.00,560.23L706.56,556.60L709.12,553.02L711.68,549.50L714.24,546.04L716.80,542.65L719.36,539.33L721.92,536.08L724.48,532.91L727.04,529.82L729.60,526.82L732.16,523.89L734.72,521.06L737.28,518.32L739.84,515.67L742.40,513.12L744.96,510.66L747.52,508.30L750.08,506.04L752.64,503.87L755.20,501.81L757.76,499.84L760.32,497.98L762.88,496.21L765.44,494.54L768.00,492.97L770.56,491.50L773.12,490.12L775.68,488.84L778.24,487.66L780.80,486.57L783.36,485.56L785.92,484.65L788.48,483.83L791.04,483.09L793.60,482.44L796.16,481.86L798.72,481.37L801.28,480.95L803.84,480.61L806.40,480.34L808.96,480.14L811.52,480.00L814.08,479.93L816.64,479.93L819.20,479.98L821.76,480.08L824.32,480.24L826.88,480.45L829.44,480.71L832.00,481.01L834.56,481.36L837.12,481.74L839.68,482.17L842.24,482.62L844.80,483.11L847.36,483.63L849.92,484.17L852.48,484.74L855.04,485.33L857.60,485.94L860.16,486.57L862.72,487.22L865.28,487.87L867.84,488.54L870.40,489.22L872.96,489.90L875.52,490.59L878.08,491.28L880.64,491.97L883.20,492.67L885.76,493.36L888.32,494.05L890.88,494.74L893.44,495.42L896.00,496.09L898.56,496.76L901.12,497.42L903.68,498.07L906.24,498.71L908.80,499.33L911.36,499.95L913.92,500.55L916.48,501.14L919.04,501.71L921.60,502.27L924.16,502.82L926.72,503.35L929.28,503.86L931.84,504.36L934.40,504.84L936.96,505.31L939.52,505.76L942.08,506.19L944.64,506.61L947.20,507.01L949.76,507.39L952.32,507.76L954.88,508.12L957.44,508.45L960.00,508.78L962.56,509.08L965.12,509.37L967.68,509.65L970.24,509.91L972.80,510.16L975.36,510.40L977.92,510.62L980.48,510.82L983.04,511.02L985.60,511.20L988.16,511.37L990.72,511.53L993.28,511.68L995.84,511.82L998.40,511.95L1000.96,512.06L1003.52,512.17L1006.08,512.27L1008.64,512.36L1011.20,512.44L1013.76,512.52L1016.32,512.58L1018.88,512.64L1021.44,512.69L1024.00,512.74" fill="none" stroke="#4EA8A6" stroke-width="5" opacity="0.28" stroke-linecap="round" filter="url(#soft1)"/>
  <path d="M0.00,512.74L2.56,512.85L5.12,512.97L7.68,513.10L10.24,513.23L12.80,513.37L15.36,513.52L17.92,513.68L20.48,513.84L23.04,514.02L25.60,514.20L28.16,514.40L30.72,514.60L33.28,514.81L35.84,515.03L38.40,515.26L40.96,515.50L43.52,515.76L46.08,516.02L48.64,516.29L51.20,516.57L53.76,516.86L56.32,517.16L58.88,517.47L61.44,517.79L64.00,518.11L66.56,518.45L69.12,518.80L71.68,519.15L74.24,519.51L76.80,519.89L79.36,520.26L81.92,520.65L84.48,521.04L87.04,521.44L89.60,521.84L92.16,522.25L94.72,522.66L97.28,523.07L99.84,523.49L102.40,523.90L104.96,524.32L107.52,524.74L110.08,525.15L112.64,525.56L115.20,525.97L117.76,526.38L120.32,526.77L122.88,527.16L125.44,527.54L128.00,527.91L130.56,528.26L133.12,528.60L135.68,528.93L138.24,529.24L140.80,529.53L143.36,529.79L145.92,530.04L148.48,530.26L151.04,530.46L153.60,530.62L156.16,530.76L158.72,530.86L161.28,530.93L163.84,530.97L166.40,530.96L168.96,530.91L171.52,530.83L174.08,530.69L176.64,530.51L179.20,530.29L181.76,530.01L184.32,529.68L186.88,529.29L189.44,528.85L192.00,528.35L194.56,527.78L197.12,527.16L199.68,526.47L202.24,525.72L204.80,524.90L207.36,524.01L209.92,523.05L212.48,522.02L215.04,520.92L217.60,519.74L220.16,518.49L222.72,517.16L225.28,515.76L227.84,514.28L230.40,512.73L232.96,511.09L235.52,509.38L238.08,507.60L240.64,505.73L243.20,503.79L245.76,501.78L248.32,499.68L250.88,497.52L253.44,495.28L256.00,492.97L258.56,490.59L261.12,488.15L263.68,485.63L266.24,483.06L268.80,480.42L271.36,477.73L273.92,474.98L276.48,472.17L279.04,469.32L281.60,466.42L284.16,463.49L286.72,460.51L289.28,457.50L291.84,454.46L294.40,451.40L296.96,448.32L299.52,445.22L302.08,442.11L304.64,439.00L307.20,435.89L309.76,432.79L312.32,429.70L314.88,426.63L317.44,423.58L320.00,420.57L322.56,417.59L325.12,414.65L327.68,411.76L330.24,408.93L332.80,406.16L335.36,403.46L337.92,400.84L340.48,398.29L343.04,395.84L345.60,393.48L348.16,391.22L350.72,389.06L353.28,387.03L355.84,385.11L358.40,383.31L360.96,381.65L363.52,380.13L366.08,378.75L368.64,377.51L371.20,376.43L373.76,375.51L376.32,374.76L378.88,374.17L381.44,373.75L384.00,373.51L386.56,373.45L389.12,373.57L391.68,373.87L394.24,374.37L396.80,375.05L399.36,375.93L401.92,377.01L404.48,378.28L407.04,379.74L409.60,381.41L412.16,383.27L414.72,385.33L417.28,387.58L419.84,390.03L422.40,392.67L424.96,395.51L427.52,398.54L430.08,401.75L432.64,405.14L435.20,408.72L437.76,412.47L440.32,416.40L442.88,420.49L445.44,424.74L448.00,429.15L450.56,433.71L453.12,438.42L455.68,443.26L458.24,448.23L460.80,453.33L463.36,458.54L465.92,463.87L468.48,469.29L471.04,474.80L473.60,480.40L476.16,486.08L478.72,491.82L481.28,497.61L483.84,503.46L486.40,509.34L488.96,515.25L491.52,521.18L494.08,527.12L496.64,533.06L499.20,538.99L501.76,544.90L504.32,550.78L506.88,556.62L509.44,562.41L512.00,568.15L514.56,573.82L517.12,579.41L519.68,584.91L522.24,590.32L524.80,595.63L527.36,600.82L529.92,605.89L532.48,610.84L535.04,615.65L537.60,620.31L540.16,624.83L542.72,629.19L545.28,633.38L547.84,637.40L550.40,641.25L552.96,644.92L555.52,648.40L558.08,651.68L560.64,654.78L563.20,657.67L565.76,660.37L568.32,662.85L570.88,665.13L573.44,667.20L576.00,669.06L578.56,670.71L581.12,672.14L583.68,673.36L586.24,674.37L588.80,675.16L591.36,675.74L593.92,676.11L596.48,676.27L599.04,676.23L601.60,675.98L604.16,675.53L606.72,674.88L609.28,674.03L611.84,673.00L614.40,671.78L616.96,670.38L619.52,668.80L622.08,667.05L624.64,665.13L627.20,663.06L629.76,660.83L632.32,658.45L634.88,655.93L637.44,653.28L640.00,650.49L642.56,647.59L645.12,644.57L647.68,641.44L650.24,638.22L652.80,634.90L655.36,631.50L657.92,628.02L660.48,624.47L663.04,620.85L665.60,617.18L668.16,613.46L670.72,609.70L673.28,605.91L675.84,602.09L678.40,598.25L680.96,594.40L683.52,590.54L686.08,586.68L688.64,582.83L691.20,579.00L693.76,575.18L696.32,571.39L698.88,567.63L701.44,563.91L704.00,560.23L706.56,556.60L709.12,553.02L711.68,549.50L714.24,546.04L716.80,542.65L719.36,539.33L721.92,536.08L724.48,532.91L727.04,529.82L729.60,526.82L732.16,523.89L734.72,521.06L737.28,518.32L739.84,515.67L742.40,513.12L744.96,510.66L747.52,508.30L750.08,506.04L752.64,503.87L755.20,501.81L757.76,499.84L760.32,497.98L762.88,496.21L765.44,494.54L768.00,492.97L770.56,491.50L773.12,490.12L775.68,488.84L778.24,487.66L780.80,486.57L783.36,485.56L785.92,484.65L788.48,483.83L791.04,483.09L793.60,482.44L796.16,481.86L798.72,481.37L801.28,480.95L803.84,480.61L806.40,480.34L808.96,480.14L811.52,480.00L814.08,479.93L816.64,479.93L819.20,479.98L821.76,480.08L824.32,480.24L826.88,480.45L829.44,480.71L832.00,481.01L834.56,481.36L837.12,481.74L839.68,482.17L842.24,482.62L844.80,483.11L847.36,483.63L849.92,484.17L852.48,484.74L855.04,485.33L857.60,485.94L860.16,486.57L862.72,487.22L865.28,487.87L867.84,488.54L870.40,489.22L872.96,489.90L875.52,490.59L878.08,491.28L880.64,491.97L883.20,492.67L885.76,493.36L888.32,494.05L890.88,494.74L893.44,495.42L896.00,496.09L898.56,496.76L901.12,497.42L903.68,498.07L906.24,498.71L908.80,499.33L911.36,499.95L913.92,500.55L916.48,501.14L919.04,501.71L921.60,502.27L924.16,502.82L926.72,503.35L929.28,503.86L931.84,504.36L934.40,504.84L936.96,505.31L939.52,505.76L942.08,506.19L944.64,506.61L947.20,507.01L949.76,507.39L952.32,507.76L954.88,508.12L957.44,508.45L960.00,508.78L962.56,509.08L965.12,509.37L967.68,509.65L970.24,509.91L972.80,510.16L975.36,510.40L977.92,510.62L980.48,510.82L983.04,511.02L985.60,511.20L988.16,511.37L990.72,511.53L993.28,511.68L995.84,511.82L998.40,511.95L1000.96,512.06L1003.52,512.17L1006.08,512.27L1008.64,512.36L1011.20,512.44L1013.76,512.52L1016.32,512.58L1018.88,512.64L1021.44,512.69L1024.00,512.74" fill="none" stroke="#4EA8A6" stroke-width="2.5" opacity="0.65" stroke-linecap="round"/>

  <!-- Wave 2 (#5B6ABF) -->
  <path d="M0.00,513.56L2.56,513.75L5.12,513.95L7.68,514.15L10.24,514.36L12.80,514.58L15.36,514.81L17.92,515.04L20.48,515.28L23.04,515.52L25.60,515.77L28.16,516.02L30.72,516.28L33.28,516.54L35.84,516.79L38.40,517.05L40.96,517.31L43.52,517.57L46.08,517.82L48.64,518.06L51.20,518.30L53.76,518.53L56.32,518.75L58.88,518.96L61.44,519.15L64.00,519.33L66.56,519.49L69.12,519.63L71.68,519.75L74.24,519.84L76.80,519.91L79.36,519.95L81.92,519.96L84.48,519.93L87.04,519.88L89.60,519.78L92.16,519.64L94.72,519.47L97.28,519.25L99.84,518.98L102.40,518.66L104.96,518.30L107.52,517.88L110.08,517.41L112.64,516.89L115.20,516.31L117.76,515.67L120.32,514.97L122.88,514.21L125.44,513.40L128.00,512.52L130.56,511.58L133.12,510.58L135.68,509.52L138.24,508.40L140.80,507.23L143.36,505.99L145.92,504.70L148.48,503.35L151.04,501.95L153.60,500.50L156.16,499.00L158.72,497.46L161.28,495.87L163.84,494.26L166.40,492.60L168.96,490.93L171.52,489.23L174.08,487.51L176.64,485.78L179.20,484.04L181.76,482.31L184.32,480.58L186.88,478.87L189.44,477.19L192.00,475.53L194.56,473.91L197.12,472.33L199.68,470.81L202.24,469.36L204.80,467.97L207.36,466.67L209.92,465.46L212.48,464.34L215.04,463.33L217.60,462.44L220.16,461.67L222.72,461.04L225.28,460.55L227.84,460.21L230.40,460.03L232.96,460.02L235.52,460.18L238.08,460.53L240.64,461.06L243.20,461.79L245.76,462.72L248.32,463.86L250.88,465.21L253.44,466.77L256.00,468.55L258.56,470.56L261.12,472.79L263.68,475.24L266.24,477.92L268.80,480.82L271.36,483.94L273.92,487.28L276.48,490.84L279.04,494.61L281.60,498.59L284.16,502.77L286.72,507.15L289.28,511.71L291.84,516.44L294.40,521.34L296.96,526.39L299.52,531.59L302.08,536.92L304.64,542.36L307.20,547.90L309.76,553.52L312.32,559.21L314.88,564.95L317.44,570.73L320.00,576.51L322.56,582.29L325.12,588.05L327.68,593.76L330.24,599.40L332.80,604.95L335.36,610.40L337.92,615.71L340.48,620.87L343.04,625.85L345.60,630.64L348.16,635.21L350.72,639.55L353.28,643.62L355.84,647.42L358.40,650.92L360.96,654.10L363.52,656.94L366.08,659.43L368.64,661.55L371.20,663.29L373.76,664.62L376.32,665.55L378.88,666.05L381.44,666.11L384.00,665.73L386.56,664.89L389.12,663.60L391.68,661.84L394.24,659.61L396.80,656.92L399.36,653.76L401.92,650.13L404.48,646.04L407.04,641.50L409.60,636.50L412.16,631.06L414.72,625.19L417.28,618.91L419.84,612.22L422.40,605.14L424.96,597.69L427.52,589.89L430.08,581.75L432.64,573.31L435.20,564.58L437.76,555.60L440.32,546.37L442.88,536.94L445.44,527.32L448.00,517.56L450.56,507.67L453.12,497.69L455.68,487.65L458.24,477.59L460.80,467.52L463.36,457.50L465.92,447.54L468.48,437.68L471.04,427.95L473.60,418.39L476.16,409.02L478.72,399.89L481.28,391.01L483.84,382.41L486.40,374.14L488.96,366.20L491.52,358.64L494.08,351.47L496.64,344.72L499.20,338.42L501.76,332.58L504.32,327.21L506.88,322.35L509.44,318.01L512.00,314.20L514.56,310.92L517.12,308.20L519.68,306.05L522.24,304.46L524.80,303.44L527.36,302.99L529.92,303.12L532.48,303.82L535.04,305.09L537.60,306.92L540.16,309.30L542.72,312.23L545.28,315.70L547.84,319.68L550.40,324.16L552.96,329.13L555.52,334.57L558.08,340.45L560.64,346.77L563.20,353.48L565.76,360.57L568.32,368.01L570.88,375.78L573.44,383.85L576.00,392.19L578.56,400.76L581.12,409.55L583.68,418.52L586.24,427.64L588.80,436.88L591.36,446.21L593.92,455.59L596.48,465.00L599.04,474.41L601.60,483.79L604.16,493.10L606.72,502.33L609.28,511.43L611.84,520.38L614.40,529.17L616.96,537.75L619.52,546.11L622.08,554.22L624.64,562.07L627.20,569.63L629.76,576.88L632.32,583.80L634.88,590.39L637.44,596.61L640.00,602.47L642.56,607.95L645.12,613.03L647.68,617.72L650.24,621.99L652.80,625.86L655.36,629.31L657.92,632.34L660.48,634.96L663.04,637.16L665.60,638.94L668.16,640.32L670.72,641.28L673.28,641.85L675.84,642.03L678.40,641.83L680.96,641.26L683.52,640.33L686.08,639.05L688.64,637.44L691.20,635.51L693.76,633.27L696.32,630.75L698.88,627.96L701.44,624.91L704.00,621.62L706.56,618.12L709.12,614.41L711.68,610.52L714.24,606.47L716.80,602.27L719.36,597.94L721.92,593.51L724.48,588.98L727.04,584.39L729.60,579.74L732.16,575.05L734.72,570.34L737.28,565.63L739.84,560.93L742.40,556.26L744.96,551.64L747.52,547.07L750.08,542.57L752.64,538.15L755.20,533.83L757.76,529.61L760.32,525.52L762.88,521.54L765.44,517.71L768.00,514.02L770.56,510.47L773.12,507.08L775.68,503.86L778.24,500.80L780.80,497.91L783.36,495.20L785.92,492.66L788.48,490.29L791.04,488.11L793.60,486.10L796.16,484.27L798.72,482.62L801.28,481.13L803.84,479.83L806.40,478.68L808.96,477.71L811.52,476.89L814.08,476.23L816.64,475.72L819.20,475.36L821.76,475.14L824.32,475.05L826.88,475.09L829.44,475.25L832.00,475.53L834.56,475.91L837.12,476.40L839.68,476.99L842.24,477.66L844.80,478.41L847.36,479.24L849.92,480.13L852.48,481.08L855.04,482.09L857.60,483.15L860.16,484.25L862.72,485.38L865.28,486.54L867.84,487.72L870.40,488.92L872.96,490.13L875.52,491.34L878.08,492.56L880.64,493.78L883.20,494.98L885.76,496.18L888.32,497.36L890.88,498.52L893.44,499.66L896.00,500.77L898.56,501.85L901.12,502.90L903.68,503.92L906.24,504.90L908.80,505.85L911.36,506.76L913.92,507.62L916.48,508.45L919.04,509.24L921.60,509.98L924.16,510.68L926.72,511.34L929.28,511.96L931.84,512.54L934.40,513.07L936.96,513.57L939.52,514.02L942.08,514.43L944.64,514.81L947.20,515.15L949.76,515.45L952.32,515.71L954.88,515.95L957.44,516.14L960.00,516.31L962.56,516.45L965.12,516.56L967.68,516.65L970.24,516.71L972.80,516.74L975.36,516.76L977.92,516.75L980.48,516.72L983.04,516.68L985.60,516.62L988.16,516.54L990.72,516.46L993.28,516.36L995.84,516.25L998.40,516.13L1000.96,516.00L1003.52,515.86L1006.08,515.72L1008.64,515.58L1011.20,515.43L1013.76,515.28L1016.32,515.12L1018.88,514.97L1021.44,514.81L1024.00,514.66" fill="none" stroke="#5B6ABF" stroke-width="20" opacity="0.08" stroke-linecap="round" filter="url(#glow2)"/>
  <path d="M0.00,513.56L2.56,513.75L5.12,513.95L7.68,514.15L10.24,514.36L12.80,514.58L15.36,514.81L17.92,515.04L20.48,515.28L23.04,515.52L25.60,515.77L28.16,516.02L30.72,516.28L33.28,516.54L35.84,516.79L38.40,517.05L40.96,517.31L43.52,517.57L46.08,517.82L48.64,518.06L51.20,518.30L53.76,518.53L56.32,518.75L58.88,518.96L61.44,519.15L64.00,519.33L66.56,519.49L69.12,519.63L71.68,519.75L74.24,519.84L76.80,519.91L79.36,519.95L81.92,519.96L84.48,519.93L87.04,519.88L89.60,519.78L92.16,519.64L94.72,519.47L97.28,519.25L99.84,518.98L102.40,518.66L104.96,518.30L107.52,517.88L110.08,517.41L112.64,516.89L115.20,516.31L117.76,515.67L120.32,514.97L122.88,514.21L125.44,513.40L128.00,512.52L130.56,511.58L133.12,510.58L135.68,509.52L138.24,508.40L140.80,507.23L143.36,505.99L145.92,504.70L148.48,503.35L151.04,501.95L153.60,500.50L156.16,499.00L158.72,497.46L161.28,495.87L163.84,494.26L166.40,492.60L168.96,490.93L171.52,489.23L174.08,487.51L176.64,485.78L179.20,484.04L181.76,482.31L184.32,480.58L186.88,478.87L189.44,477.19L192.00,475.53L194.56,473.91L197.12,472.33L199.68,470.81L202.24,469.36L204.80,467.97L207.36,466.67L209.92,465.46L212.48,464.34L215.04,463.33L217.60,462.44L220.16,461.67L222.72,461.04L225.28,460.55L227.84,460.21L230.40,460.03L232.96,460.02L235.52,460.18L238.08,460.53L240.64,461.06L243.20,461.79L245.76,462.72L248.32,463.86L250.88,465.21L253.44,466.77L256.00,468.55L258.56,470.56L261.12,472.79L263.68,475.24L266.24,477.92L268.80,480.82L271.36,483.94L273.92,487.28L276.48,490.84L279.04,494.61L281.60,498.59L284.16,502.77L286.72,507.15L289.28,511.71L291.84,516.44L294.40,521.34L296.96,526.39L299.52,531.59L302.08,536.92L304.64,542.36L307.20,547.90L309.76,553.52L312.32,559.21L314.88,564.95L317.44,570.73L320.00,576.51L322.56,582.29L325.12,588.05L327.68,593.76L330.24,599.40L332.80,604.95L335.36,610.40L337.92,615.71L340.48,620.87L343.04,625.85L345.60,630.64L348.16,635.21L350.72,639.55L353.28,643.62L355.84,647.42L358.40,650.92L360.96,654.10L363.52,656.94L366.08,659.43L368.64,661.55L371.20,663.29L373.76,664.62L376.32,665.55L378.88,666.05L381.44,666.11L384.00,665.73L386.56,664.89L389.12,663.60L391.68,661.84L394.24,659.61L396.80,656.92L399.36,653.76L401.92,650.13L404.48,646.04L407.04,641.50L409.60,636.50L412.16,631.06L414.72,625.19L417.28,618.91L419.84,612.22L422.40,605.14L424.96,597.69L427.52,589.89L430.08,581.75L432.64,573.31L435.20,564.58L437.76,555.60L440.32,546.37L442.88,536.94L445.44,527.32L448.00,517.56L450.56,507.67L453.12,497.69L455.68,487.65L458.24,477.59L460.80,467.52L463.36,457.50L465.92,447.54L468.48,437.68L471.04,427.95L473.60,418.39L476.16,409.02L478.72,399.89L481.28,391.01L483.84,382.41L486.40,374.14L488.96,366.20L491.52,358.64L494.08,351.47L496.64,344.72L499.20,338.42L501.76,332.58L504.32,327.21L506.88,322.35L509.44,318.01L512.00,314.20L514.56,310.92L517.12,308.20L519.68,306.05L522.24,304.46L524.80,303.44L527.36,302.99L529.92,303.12L532.48,303.82L535.04,305.09L537.60,306.92L540.16,309.30L542.72,312.23L545.28,315.70L547.84,319.68L550.40,324.16L552.96,329.13L555.52,334.57L558.08,340.45L560.64,346.77L563.20,353.48L565.76,360.57L568.32,368.01L570.88,375.78L573.44,383.85L576.00,392.19L578.56,400.76L581.12,409.55L583.68,418.52L586.24,427.64L588.80,436.88L591.36,446.21L593.92,455.59L596.48,465.00L599.04,474.41L601.60,483.79L604.16,493.10L606.72,502.33L609.28,511.43L611.84,520.38L614.40,529.17L616.96,537.75L619.52,546.11L622.08,554.22L624.64,562.07L627.20,569.63L629.76,576.88L632.32,583.80L634.88,590.39L637.44,596.61L640.00,602.47L642.56,607.95L645.12,613.03L647.68,617.72L650.24,621.99L652.80,625.86L655.36,629.31L657.92,632.34L660.48,634.96L663.04,637.16L665.60,638.94L668.16,640.32L670.72,641.28L673.28,641.85L675.84,642.03L678.40,641.83L680.96,641.26L683.52,640.33L686.08,639.05L688.64,637.44L691.20,635.51L693.76,633.27L696.32,630.75L698.88,627.96L701.44,624.91L704.00,621.62L706.56,618.12L709.12,614.41L711.68,610.52L714.24,606.47L716.80,602.27L719.36,597.94L721.92,593.51L724.48,588.98L727.04,584.39L729.60,579.74L732.16,575.05L734.72,570.34L737.28,565.63L739.84,560.93L742.40,556.26L744.96,551.64L747.52,547.07L750.08,542.57L752.64,538.15L755.20,533.83L757.76,529.61L760.32,525.52L762.88,521.54L765.44,517.71L768.00,514.02L770.56,510.47L773.12,507.08L775.68,503.86L778.24,500.80L780.80,497.91L783.36,495.20L785.92,492.66L788.48,490.29L791.04,488.11L793.60,486.10L796.16,484.27L798.72,482.62L801.28,481.13L803.84,479.83L806.40,478.68L808.96,477.71L811.52,476.89L814.08,476.23L816.64,475.72L819.20,475.36L821.76,475.14L824.32,475.05L826.88,475.09L829.44,475.25L832.00,475.53L834.56,475.91L837.12,476.40L839.68,476.99L842.24,477.66L844.80,478.41L847.36,479.24L849.92,480.13L852.48,481.08L855.04,482.09L857.60,483.15L860.16,484.25L862.72,485.38L865.28,486.54L867.84,487.72L870.40,488.92L872.96,490.13L875.52,491.34L878.08,492.56L880.64,493.78L883.20,494.98L885.76,496.18L888.32,497.36L890.88,498.52L893.44,499.66L896.00,500.77L898.56,501.85L901.12,502.90L903.68,503.92L906.24,504.90L908.80,505.85L911.36,506.76L913.92,507.62L916.48,508.45L919.04,509.24L921.60,509.98L924.16,510.68L926.72,511.34L929.28,511.96L931.84,512.54L934.40,513.07L936.96,513.57L939.52,514.02L942.08,514.43L944.64,514.81L947.20,515.15L949.76,515.45L952.32,515.71L954.88,515.95L957.44,516.14L960.00,516.31L962.56,516.45L965.12,516.56L967.68,516.65L970.24,516.71L972.80,516.74L975.36,516.76L977.92,516.75L980.48,516.72L983.04,516.68L985.60,516.62L988.16,516.54L990.72,516.46L993.28,516.36L995.84,516.25L998.40,516.13L1000.96,516.00L1003.52,515.86L1006.08,515.72L1008.64,515.58L1011.20,515.43L1013.76,515.28L1016.32,515.12L1018.88,514.97L1021.44,514.81L1024.00,514.66" fill="none" stroke="#5B6ABF" stroke-width="6" opacity="0.35" stroke-linecap="round" filter="url(#soft2)"/>
  <path d="M0.00,513.56L2.56,513.75L5.12,513.95L7.68,514.15L10.24,514.36L12.80,514.58L15.36,514.81L17.92,515.04L20.48,515.28L23.04,515.52L25.60,515.77L28.16,516.02L30.72,516.28L33.28,516.54L35.84,516.79L38.40,517.05L40.96,517.31L43.52,517.57L46.08,517.82L48.64,518.06L51.20,518.30L53.76,518.53L56.32,518.75L58.88,518.96L61.44,519.15L64.00,519.33L66.56,519.49L69.12,519.63L71.68,519.75L74.24,519.84L76.80,519.91L79.36,519.95L81.92,519.96L84.48,519.93L87.04,519.88L89.60,519.78L92.16,519.64L94.72,519.47L97.28,519.25L99.84,518.98L102.40,518.66L104.96,518.30L107.52,517.88L110.08,517.41L112.64,516.89L115.20,516.31L117.76,515.67L120.32,514.97L122.88,514.21L125.44,513.40L128.00,512.52L130.56,511.58L133.12,510.58L135.68,509.52L138.24,508.40L140.80,507.23L143.36,505.99L145.92,504.70L148.48,503.35L151.04,501.95L153.60,500.50L156.16,499.00L158.72,497.46L161.28,495.87L163.84,494.26L166.40,492.60L168.96,490.93L171.52,489.23L174.08,487.51L176.64,485.78L179.20,484.04L181.76,482.31L184.32,480.58L186.88,478.87L189.44,477.19L192.00,475.53L194.56,473.91L197.12,472.33L199.68,470.81L202.24,469.36L204.80,467.97L207.36,466.67L209.92,465.46L212.48,464.34L215.04,463.33L217.60,462.44L220.16,461.67L222.72,461.04L225.28,460.55L227.84,460.21L230.40,460.03L232.96,460.02L235.52,460.18L238.08,460.53L240.64,461.06L243.20,461.79L245.76,462.72L248.32,463.86L250.88,465.21L253.44,466.77L256.00,468.55L258.56,470.56L261.12,472.79L263.68,475.24L266.24,477.92L268.80,480.82L271.36,483.94L273.92,487.28L276.48,490.84L279.04,494.61L281.60,498.59L284.16,502.77L286.72,507.15L289.28,511.71L291.84,516.44L294.40,521.34L296.96,526.39L299.52,531.59L302.08,536.92L304.64,542.36L307.20,547.90L309.76,553.52L312.32,559.21L314.88,564.95L317.44,570.73L320.00,576.51L322.56,582.29L325.12,588.05L327.68,593.76L330.24,599.40L332.80,604.95L335.36,610.40L337.92,615.71L340.48,620.87L343.04,625.85L345.60,630.64L348.16,635.21L350.72,639.55L353.28,643.62L355.84,647.42L358.40,650.92L360.96,654.10L363.52,656.94L366.08,659.43L368.64,661.55L371.20,663.29L373.76,664.62L376.32,665.55L378.88,666.05L381.44,666.11L384.00,665.73L386.56,664.89L389.12,663.60L391.68,661.84L394.24,659.61L396.80,656.92L399.36,653.76L401.92,650.13L404.48,646.04L407.04,641.50L409.60,636.50L412.16,631.06L414.72,625.19L417.28,618.91L419.84,612.22L422.40,605.14L424.96,597.69L427.52,589.89L430.08,581.75L432.64,573.31L435.20,564.58L437.76,555.60L440.32,546.37L442.88,536.94L445.44,527.32L448.00,517.56L450.56,507.67L453.12,497.69L455.68,487.65L458.24,477.59L460.80,467.52L463.36,457.50L465.92,447.54L468.48,437.68L471.04,427.95L473.60,418.39L476.16,409.02L478.72,399.89L481.28,391.01L483.84,382.41L486.40,374.14L488.96,366.20L491.52,358.64L494.08,351.47L496.64,344.72L499.20,338.42L501.76,332.58L504.32,327.21L506.88,322.35L509.44,318.01L512.00,314.20L514.56,310.92L517.12,308.20L519.68,306.05L522.24,304.46L524.80,303.44L527.36,302.99L529.92,303.12L532.48,303.82L535.04,305.09L537.60,306.92L540.16,309.30L542.72,312.23L545.28,315.70L547.84,319.68L550.40,324.16L552.96,329.13L555.52,334.57L558.08,340.45L560.64,346.77L563.20,353.48L565.76,360.57L568.32,368.01L570.88,375.78L573.44,383.85L576.00,392.19L578.56,400.76L581.12,409.55L583.68,418.52L586.24,427.64L588.80,436.88L591.36,446.21L593.92,455.59L596.48,465.00L599.04,474.41L601.60,483.79L604.16,493.10L606.72,502.33L609.28,511.43L611.84,520.38L614.40,529.17L616.96,537.75L619.52,546.11L622.08,554.22L624.64,562.07L627.20,569.63L629.76,576.88L632.32,583.80L634.88,590.39L637.44,596.61L640.00,602.47L642.56,607.95L645.12,613.03L647.68,617.72L650.24,621.99L652.80,625.86L655.36,629.31L657.92,632.34L660.48,634.96L663.04,637.16L665.60,638.94L668.16,640.32L670.72,641.28L673.28,641.85L675.84,642.03L678.40,641.83L680.96,641.26L683.52,640.33L686.08,639.05L688.64,637.44L691.20,635.51L693.76,633.27L696.32,630.75L698.88,627.96L701.44,624.91L704.00,621.62L706.56,618.12L709.12,614.41L711.68,610.52L714.24,606.47L716.80,602.27L719.36,597.94L721.92,593.51L724.48,588.98L727.04,584.39L729.60,579.74L732.16,575.05L734.72,570.34L737.28,565.63L739.84,560.93L742.40,556.26L744.96,551.64L747.52,547.07L750.08,542.57L752.64,538.15L755.20,533.83L757.76,529.61L760.32,525.52L762.88,521.54L765.44,517.71L768.00,514.02L770.56,510.47L773.12,507.08L775.68,503.86L778.24,500.80L780.80,497.91L783.36,495.20L785.92,492.66L788.48,490.29L791.04,488.11L793.60,486.10L796.16,484.27L798.72,482.62L801.28,481.13L803.84,479.83L806.40,478.68L808.96,477.71L811.52,476.89L814.08,476.23L816.64,475.72L819.20,475.36L821.76,475.14L824.32,475.05L826.88,475.09L829.44,475.25L832.00,475.53L834.56,475.91L837.12,476.40L839.68,476.99L842.24,477.66L844.80,478.41L847.36,479.24L849.92,480.13L852.48,481.08L855.04,482.09L857.60,483.15L860.16,484.25L862.72,485.38L865.28,486.54L867.84,487.72L870.40,488.92L872.96,490.13L875.52,491.34L878.08,492.56L880.64,493.78L883.20,494.98L885.76,496.18L888.32,497.36L890.88,498.52L893.44,499.66L896.00,500.77L898.56,501.85L901.12,502.90L903.68,503.92L906.24,504.90L908.80,505.85L911.36,506.76L913.92,507.62L916.48,508.45L919.04,509.24L921.60,509.98L924.16,510.68L926.72,511.34L929.28,511.96L931.84,512.54L934.40,513.07L936.96,513.57L939.52,514.02L942.08,514.43L944.64,514.81L947.20,515.15L949.76,515.45L952.32,515.71L954.88,515.95L957.44,516.14L960.00,516.31L962.56,516.45L965.12,516.56L967.68,516.65L970.24,516.71L972.80,516.74L975.36,516.76L977.92,516.75L980.48,516.72L983.04,516.68L985.60,516.62L988.16,516.54L990.72,516.46L993.28,516.36L995.84,516.25L998.40,516.13L1000.96,516.00L1003.52,515.86L1006.08,515.72L1008.64,515.58L1011.20,515.43L1013.76,515.28L1016.32,515.12L1018.88,514.97L1021.44,514.81L1024.00,514.66" fill="none" stroke="#5B6ABF" stroke-width="3" opacity="0.8" stroke-linecap="round"/>

  <!-- Wave 3 (#F5A623) -->
  <path d="M0.00,512.37L2.56,512.54L5.12,512.73L7.68,512.93L10.24,513.14L12.80,513.35L15.36,513.57L17.92,513.79L20.48,514.02L23.04,514.24L25.60,514.46L28.16,514.68L30.72,514.89L33.28,515.09L35.84,515.27L38.40,515.44L40.96,515.59L43.52,515.72L46.08,515.82L48.64,515.89L51.20,515.94L53.76,515.95L56.32,515.92L58.88,515.85L61.44,515.74L64.00,515.59L66.56,515.39L69.12,515.14L71.68,514.84L74.24,514.50L76.80,514.10L79.36,513.66L81.92,513.16L84.48,512.62L87.04,512.03L89.60,511.40L92.16,510.72L94.72,510.01L97.28,509.26L99.84,508.49L102.40,507.69L104.96,506.87L107.52,506.04L110.08,505.21L112.64,504.38L115.20,503.56L117.76,502.77L120.32,502.00L122.88,501.27L125.44,500.58L128.00,499.96L130.56,499.40L133.12,498.92L135.68,498.52L138.24,498.22L140.80,498.02L143.36,497.93L145.92,497.97L148.48,498.13L151.04,498.42L153.60,498.85L156.16,499.43L158.72,500.15L161.28,501.02L163.84,502.05L166.40,503.22L168.96,504.54L171.52,506.00L174.08,507.60L176.64,509.34L179.20,511.20L181.76,513.17L184.32,515.25L186.88,517.42L189.44,519.66L192.00,521.97L194.56,524.31L197.12,526.68L199.68,529.05L202.24,531.40L204.80,533.72L207.36,535.97L209.92,538.13L212.48,540.18L215.04,542.11L217.60,543.87L220.16,545.45L222.72,546.83L225.28,547.98L227.84,548.89L230.40,549.52L232.96,549.87L235.52,549.92L238.08,549.66L240.64,549.06L243.20,548.13L245.76,546.84L248.32,545.21L250.88,543.23L253.44,540.89L256.00,538.22L258.56,535.20L261.12,531.86L263.68,528.21L266.24,524.27L268.80,520.06L271.36,515.60L273.92,510.94L276.48,506.09L279.04,501.09L281.60,495.98L284.16,490.80L286.72,485.58L289.28,480.39L291.84,475.25L294.40,470.22L296.96,465.34L299.52,460.66L302.08,456.22L304.64,452.08L307.20,448.28L309.76,444.87L312.32,441.87L314.88,439.35L317.44,437.32L320.00,435.83L322.56,434.90L325.12,434.57L327.68,434.85L330.24,435.76L332.80,437.31L335.36,439.50L337.92,442.35L340.48,445.83L343.04,449.95L345.60,454.69L348.16,460.01L350.72,465.90L353.28,472.32L355.84,479.24L358.40,486.59L360.96,494.34L363.52,502.44L366.08,510.81L368.64,519.41L371.20,528.15L373.76,536.98L376.32,545.82L378.88,554.60L381.44,563.24L384.00,571.67L386.56,579.81L389.12,587.60L391.68,594.95L394.24,601.81L396.80,608.09L399.36,613.75L401.92,618.72L404.48,622.94L407.04,626.38L409.60,628.98L412.16,630.71L414.72,631.54L417.28,631.46L419.84,630.44L422.40,628.48L424.96,625.58L427.52,621.76L430.08,617.03L432.64,611.41L435.20,604.95L437.76,597.68L440.32,589.65L442.88,580.93L445.44,571.56L448.00,561.63L450.56,551.21L453.12,540.37L455.68,529.21L458.24,517.80L460.80,506.25L463.36,494.64L465.92,483.07L468.48,471.63L471.04,460.42L473.60,449.53L476.16,439.05L478.72,429.06L481.28,419.66L483.84,410.93L486.40,402.93L488.96,395.73L491.52,389.40L494.08,383.99L496.64,379.55L499.20,376.12L501.76,373.72L504.32,372.38L506.88,372.11L509.44,372.92L512.00,374.79L514.56,377.72L517.12,381.67L519.68,386.62L522.24,392.53L524.80,399.34L527.36,407.01L529.92,415.45L532.48,424.61L535.04,434.41L537.60,444.77L540.16,455.60L542.72,466.80L545.28,478.30L547.84,489.99L550.40,501.78L552.96,513.57L555.52,525.26L558.08,536.77L560.64,548.00L563.20,558.86L565.76,569.27L568.32,579.15L570.88,588.42L573.44,597.01L576.00,604.86L578.56,611.91L581.12,618.12L583.68,623.45L586.24,627.85L588.80,631.32L591.36,633.82L593.92,635.36L596.48,635.93L599.04,635.54L601.60,634.21L604.16,631.96L606.72,628.82L609.28,624.84L611.84,620.05L614.40,614.52L616.96,608.29L619.52,601.44L622.08,594.02L624.64,586.10L627.20,577.76L629.76,569.08L632.32,560.14L634.88,551.00L637.44,541.74L640.00,532.46L642.56,523.21L645.12,514.08L647.68,505.14L650.24,496.45L652.80,488.08L655.36,480.10L657.92,472.55L660.48,465.49L663.04,458.97L665.60,453.02L668.16,447.68L670.72,442.98L673.28,438.93L675.84,435.57L678.40,432.88L680.96,430.89L683.52,429.58L686.08,428.95L688.64,428.99L691.20,429.66L693.76,430.96L696.32,432.86L698.88,435.31L701.44,438.28L704.00,441.73L706.56,445.63L709.12,449.91L711.68,454.54L714.24,459.47L716.80,464.64L719.36,470.01L721.92,475.52L724.48,481.13L727.04,486.78L729.60,492.43L732.16,498.02L734.72,503.53L737.28,508.89L739.84,514.08L742.40,519.06L744.96,523.79L747.52,528.25L750.08,532.40L752.64,536.23L755.20,539.71L757.76,542.84L760.32,545.59L762.88,547.96L765.44,549.94L768.00,551.55L770.56,552.76L773.12,553.60L775.68,554.08L778.24,554.19L780.80,553.97L783.36,553.41L785.92,552.55L788.48,551.41L791.04,550.00L793.60,548.34L796.16,546.48L798.72,544.42L801.28,542.20L803.84,539.84L806.40,537.37L808.96,534.81L811.52,532.20L814.08,529.55L816.64,526.89L819.20,524.24L821.76,521.63L824.32,519.07L826.88,516.58L829.44,514.19L832.00,511.91L834.56,509.74L837.12,507.71L839.68,505.82L842.24,504.09L844.80,502.51L847.36,501.10L849.92,499.86L852.48,498.78L855.04,497.88L857.60,497.14L860.16,496.57L862.72,496.15L865.28,495.90L867.84,495.79L870.40,495.82L872.96,495.99L875.52,496.28L878.08,496.68L880.64,497.19L883.20,497.79L885.76,498.48L888.32,499.23L890.88,500.05L893.44,500.92L896.00,501.82L898.56,502.76L901.12,503.71L903.68,504.68L906.24,505.64L908.80,506.60L911.36,507.54L913.92,508.45L916.48,509.34L919.04,510.19L921.60,511.00L924.16,511.76L926.72,512.48L929.28,513.14L931.84,513.75L934.40,514.30L936.96,514.79L939.52,515.23L942.08,515.60L944.64,515.92L947.20,516.18L949.76,516.39L952.32,516.54L954.88,516.65L957.44,516.70L960.00,516.71L962.56,516.68L965.12,516.61L967.68,516.50L970.24,516.37L972.80,516.20L975.36,516.01L977.92,515.80L980.48,515.57L983.04,515.32L985.60,515.07L988.16,514.81L990.72,514.54L993.28,514.27L995.84,514.00L998.40,513.74L1000.96,513.48L1003.52,513.22L1006.08,512.98L1008.64,512.75L1011.20,512.53L1013.76,512.32L1016.32,512.12L1018.88,511.95L1021.44,511.78L1024.00,511.63" fill="none" stroke="#F5A623" stroke-width="14" opacity="0.05" stroke-linecap="round" filter="url(#glow3)"/>
  <path d="M0.00,512.37L2.56,512.54L5.12,512.73L7.68,512.93L10.24,513.14L12.80,513.35L15.36,513.57L17.92,513.79L20.48,514.02L23.04,514.24L25.60,514.46L28.16,514.68L30.72,514.89L33.28,515.09L35.84,515.27L38.40,515.44L40.96,515.59L43.52,515.72L46.08,515.82L48.64,515.89L51.20,515.94L53.76,515.95L56.32,515.92L58.88,515.85L61.44,515.74L64.00,515.59L66.56,515.39L69.12,515.14L71.68,514.84L74.24,514.50L76.80,514.10L79.36,513.66L81.92,513.16L84.48,512.62L87.04,512.03L89.60,511.40L92.16,510.72L94.72,510.01L97.28,509.26L99.84,508.49L102.40,507.69L104.96,506.87L107.52,506.04L110.08,505.21L112.64,504.38L115.20,503.56L117.76,502.77L120.32,502.00L122.88,501.27L125.44,500.58L128.00,499.96L130.56,499.40L133.12,498.92L135.68,498.52L138.24,498.22L140.80,498.02L143.36,497.93L145.92,497.97L148.48,498.13L151.04,498.42L153.60,498.85L156.16,499.43L158.72,500.15L161.28,501.02L163.84,502.05L166.40,503.22L168.96,504.54L171.52,506.00L174.08,507.60L176.64,509.34L179.20,511.20L181.76,513.17L184.32,515.25L186.88,517.42L189.44,519.66L192.00,521.97L194.56,524.31L197.12,526.68L199.68,529.05L202.24,531.40L204.80,533.72L207.36,535.97L209.92,538.13L212.48,540.18L215.04,542.11L217.60,543.87L220.16,545.45L222.72,546.83L225.28,547.98L227.84,548.89L230.40,549.52L232.96,549.87L235.52,549.92L238.08,549.66L240.64,549.06L243.20,548.13L245.76,546.84L248.32,545.21L250.88,543.23L253.44,540.89L256.00,538.22L258.56,535.20L261.12,531.86L263.68,528.21L266.24,524.27L268.80,520.06L271.36,515.60L273.92,510.94L276.48,506.09L279.04,501.09L281.60,495.98L284.16,490.80L286.72,485.58L289.28,480.39L291.84,475.25L294.40,470.22L296.96,465.34L299.52,460.66L302.08,456.22L304.64,452.08L307.20,448.28L309.76,444.87L312.32,441.87L314.88,439.35L317.44,437.32L320.00,435.83L322.56,434.90L325.12,434.57L327.68,434.85L330.24,435.76L332.80,437.31L335.36,439.50L337.92,442.35L340.48,445.83L343.04,449.95L345.60,454.69L348.16,460.01L350.72,465.90L353.28,472.32L355.84,479.24L358.40,486.59L360.96,494.34L363.52,502.44L366.08,510.81L368.64,519.41L371.20,528.15L373.76,536.98L376.32,545.82L378.88,554.60L381.44,563.24L384.00,571.67L386.56,579.81L389.12,587.60L391.68,594.95L394.24,601.81L396.80,608.09L399.36,613.75L401.92,618.72L404.48,622.94L407.04,626.38L409.60,628.98L412.16,630.71L414.72,631.54L417.28,631.46L419.84,630.44L422.40,628.48L424.96,625.58L427.52,621.76L430.08,617.03L432.64,611.41L435.20,604.95L437.76,597.68L440.32,589.65L442.88,580.93L445.44,571.56L448.00,561.63L450.56,551.21L453.12,540.37L455.68,529.21L458.24,517.80L460.80,506.25L463.36,494.64L465.92,483.07L468.48,471.63L471.04,460.42L473.60,449.53L476.16,439.05L478.72,429.06L481.28,419.66L483.84,410.93L486.40,402.93L488.96,395.73L491.52,389.40L494.08,383.99L496.64,379.55L499.20,376.12L501.76,373.72L504.32,372.38L506.88,372.11L509.44,372.92L512.00,374.79L514.56,377.72L517.12,381.67L519.68,386.62L522.24,392.53L524.80,399.34L527.36,407.01L529.92,415.45L532.48,424.61L535.04,434.41L537.60,444.77L540.16,455.60L542.72,466.80L545.28,478.30L547.84,489.99L550.40,501.78L552.96,513.57L555.52,525.26L558.08,536.77L560.64,548.00L563.20,558.86L565.76,569.27L568.32,579.15L570.88,588.42L573.44,597.01L576.00,604.86L578.56,611.91L581.12,618.12L583.68,623.45L586.24,627.85L588.80,631.32L591.36,633.82L593.92,635.36L596.48,635.93L599.04,635.54L601.60,634.21L604.16,631.96L606.72,628.82L609.28,624.84L611.84,620.05L614.40,614.52L616.96,608.29L619.52,601.44L622.08,594.02L624.64,586.10L627.20,577.76L629.76,569.08L632.32,560.14L634.88,551.00L637.44,541.74L640.00,532.46L642.56,523.21L645.12,514.08L647.68,505.14L650.24,496.45L652.80,488.08L655.36,480.10L657.92,472.55L660.48,465.49L663.04,458.97L665.60,453.02L668.16,447.68L670.72,442.98L673.28,438.93L675.84,435.57L678.40,432.88L680.96,430.89L683.52,429.58L686.08,428.95L688.64,428.99L691.20,429.66L693.76,430.96L696.32,432.86L698.88,435.31L701.44,438.28L704.00,441.73L706.56,445.63L709.12,449.91L711.68,454.54L714.24,459.47L716.80,464.64L719.36,470.01L721.92,475.52L724.48,481.13L727.04,486.78L729.60,492.43L732.16,498.02L734.72,503.53L737.28,508.89L739.84,514.08L742.40,519.06L744.96,523.79L747.52,528.25L750.08,532.40L752.64,536.23L755.20,539.71L757.76,542.84L760.32,545.59L762.88,547.96L765.44,549.94L768.00,551.55L770.56,552.76L773.12,553.60L775.68,554.08L778.24,554.19L780.80,553.97L783.36,553.41L785.92,552.55L788.48,551.41L791.04,550.00L793.60,548.34L796.16,546.48L798.72,544.42L801.28,542.20L803.84,539.84L806.40,537.37L808.96,534.81L811.52,532.20L814.08,529.55L816.64,526.89L819.20,524.24L821.76,521.63L824.32,519.07L826.88,516.58L829.44,514.19L832.00,511.91L834.56,509.74L837.12,507.71L839.68,505.82L842.24,504.09L844.80,502.51L847.36,501.10L849.92,499.86L852.48,498.78L855.04,497.88L857.60,497.14L860.16,496.57L862.72,496.15L865.28,495.90L867.84,495.79L870.40,495.82L872.96,495.99L875.52,496.28L878.08,496.68L880.64,497.19L883.20,497.79L885.76,498.48L888.32,499.23L890.88,500.05L893.44,500.92L896.00,501.82L898.56,502.76L901.12,503.71L903.68,504.68L906.24,505.64L908.80,506.60L911.36,507.54L913.92,508.45L916.48,509.34L919.04,510.19L921.60,511.00L924.16,511.76L926.72,512.48L929.28,513.14L931.84,513.75L934.40,514.30L936.96,514.79L939.52,515.23L942.08,515.60L944.64,515.92L947.20,516.18L949.76,516.39L952.32,516.54L954.88,516.65L957.44,516.70L960.00,516.71L962.56,516.68L965.12,516.61L967.68,516.50L970.24,516.37L972.80,516.20L975.36,516.01L977.92,515.80L980.48,515.57L983.04,515.32L985.60,515.07L988.16,514.81L990.72,514.54L993.28,514.27L995.84,514.00L998.40,513.74L1000.96,513.48L1003.52,513.22L1006.08,512.98L1008.64,512.75L1011.20,512.53L1013.76,512.32L1016.32,512.12L1018.88,511.95L1021.44,511.78L1024.00,511.63" fill="none" stroke="#F5A623" stroke-width="4" opacity="0.2" stroke-linecap="round" filter="url(#soft3)"/>
  <path d="M0.00,512.37L2.56,512.54L5.12,512.73L7.68,512.93L10.24,513.14L12.80,513.35L15.36,513.57L17.92,513.79L20.48,514.02L23.04,514.24L25.60,514.46L28.16,514.68L30.72,514.89L33.28,515.09L35.84,515.27L38.40,515.44L40.96,515.59L43.52,515.72L46.08,515.82L48.64,515.89L51.20,515.94L53.76,515.95L56.32,515.92L58.88,515.85L61.44,515.74L64.00,515.59L66.56,515.39L69.12,515.14L71.68,514.84L74.24,514.50L76.80,514.10L79.36,513.66L81.92,513.16L84.48,512.62L87.04,512.03L89.60,511.40L92.16,510.72L94.72,510.01L97.28,509.26L99.84,508.49L102.40,507.69L104.96,506.87L107.52,506.04L110.08,505.21L112.64,504.38L115.20,503.56L117.76,502.77L120.32,502.00L122.88,501.27L125.44,500.58L128.00,499.96L130.56,499.40L133.12,498.92L135.68,498.52L138.24,498.22L140.80,498.02L143.36,497.93L145.92,497.97L148.48,498.13L151.04,498.42L153.60,498.85L156.16,499.43L158.72,500.15L161.28,501.02L163.84,502.05L166.40,503.22L168.96,504.54L171.52,506.00L174.08,507.60L176.64,509.34L179.20,511.20L181.76,513.17L184.32,515.25L186.88,517.42L189.44,519.66L192.00,521.97L194.56,524.31L197.12,526.68L199.68,529.05L202.24,531.40L204.80,533.72L207.36,535.97L209.92,538.13L212.48,540.18L215.04,542.11L217.60,543.87L220.16,545.45L222.72,546.83L225.28,547.98L227.84,548.89L230.40,549.52L232.96,549.87L235.52,549.92L238.08,549.66L240.64,549.06L243.20,548.13L245.76,546.84L248.32,545.21L250.88,543.23L253.44,540.89L256.00,538.22L258.56,535.20L261.12,531.86L263.68,528.21L266.24,524.27L268.80,520.06L271.36,515.60L273.92,510.94L276.48,506.09L279.04,501.09L281.60,495.98L284.16,490.80L286.72,485.58L289.28,480.39L291.84,475.25L294.40,470.22L296.96,465.34L299.52,460.66L302.08,456.22L304.64,452.08L307.20,448.28L309.76,444.87L312.32,441.87L314.88,439.35L317.44,437.32L320.00,435.83L322.56,434.90L325.12,434.57L327.68,434.85L330.24,435.76L332.80,437.31L335.36,439.50L337.92,442.35L340.48,445.83L343.04,449.95L345.60,454.69L348.16,460.01L350.72,465.90L353.28,472.32L355.84,479.24L358.40,486.59L360.96,494.34L363.52,502.44L366.08,510.81L368.64,519.41L371.20,528.15L373.76,536.98L376.32,545.82L378.88,554.60L381.44,563.24L384.00,571.67L386.56,579.81L389.12,587.60L391.68,594.95L394.24,601.81L396.80,608.09L399.36,613.75L401.92,618.72L404.48,622.94L407.04,626.38L409.60,628.98L412.16,630.71L414.72,631.54L417.28,631.46L419.84,630.44L422.40,628.48L424.96,625.58L427.52,621.76L430.08,617.03L432.64,611.41L435.20,604.95L437.76,597.68L440.32,589.65L442.88,580.93L445.44,571.56L448.00,561.63L450.56,551.21L453.12,540.37L455.68,529.21L458.24,517.80L460.80,506.25L463.36,494.64L465.92,483.07L468.48,471.63L471.04,460.42L473.60,449.53L476.16,439.05L478.72,429.06L481.28,419.66L483.84,410.93L486.40,402.93L488.96,395.73L491.52,389.40L494.08,383.99L496.64,379.55L499.20,376.12L501.76,373.72L504.32,372.38L506.88,372.11L509.44,372.92L512.00,374.79L514.56,377.72L517.12,381.67L519.68,386.62L522.24,392.53L524.80,399.34L527.36,407.01L529.92,415.45L532.48,424.61L535.04,434.41L537.60,444.77L540.16,455.60L542.72,466.80L545.28,478.30L547.84,489.99L550.40,501.78L552.96,513.57L555.52,525.26L558.08,536.77L560.64,548.00L563.20,558.86L565.76,569.27L568.32,579.15L570.88,588.42L573.44,597.01L576.00,604.86L578.56,611.91L581.12,618.12L583.68,623.45L586.24,627.85L588.80,631.32L591.36,633.82L593.92,635.36L596.48,635.93L599.04,635.54L601.60,634.21L604.16,631.96L606.72,628.82L609.28,624.84L611.84,620.05L614.40,614.52L616.96,608.29L619.52,601.44L622.08,594.02L624.64,586.10L627.20,577.76L629.76,569.08L632.32,560.14L634.88,551.00L637.44,541.74L640.00,532.46L642.56,523.21L645.12,514.08L647.68,505.14L650.24,496.45L652.80,488.08L655.36,480.10L657.92,472.55L660.48,465.49L663.04,458.97L665.60,453.02L668.16,447.68L670.72,442.98L673.28,438.93L675.84,435.57L678.40,432.88L680.96,430.89L683.52,429.58L686.08,428.95L688.64,428.99L691.20,429.66L693.76,430.96L696.32,432.86L698.88,435.31L701.44,438.28L704.00,441.73L706.56,445.63L709.12,449.91L711.68,454.54L714.24,459.47L716.80,464.64L719.36,470.01L721.92,475.52L724.48,481.13L727.04,486.78L729.60,492.43L732.16,498.02L734.72,503.53L737.28,508.89L739.84,514.08L742.40,519.06L744.96,523.79L747.52,528.25L750.08,532.40L752.64,536.23L755.20,539.71L757.76,542.84L760.32,545.59L762.88,547.96L765.44,549.94L768.00,551.55L770.56,552.76L773.12,553.60L775.68,554.08L778.24,554.19L780.80,553.97L783.36,553.41L785.92,552.55L788.48,551.41L791.04,550.00L793.60,548.34L796.16,546.48L798.72,544.42L801.28,542.20L803.84,539.84L806.40,537.37L808.96,534.81L811.52,532.20L814.08,529.55L816.64,526.89L819.20,524.24L821.76,521.63L824.32,519.07L826.88,516.58L829.44,514.19L832.00,511.91L834.56,509.74L837.12,507.71L839.68,505.82L842.24,504.09L844.80,502.51L847.36,501.10L849.92,499.86L852.48,498.78L855.04,497.88L857.60,497.14L860.16,496.57L862.72,496.15L865.28,495.90L867.84,495.79L870.40,495.82L872.96,495.99L875.52,496.28L878.08,496.68L880.64,497.19L883.20,497.79L885.76,498.48L888.32,499.23L890.88,500.05L893.44,500.92L896.00,501.82L898.56,502.76L901.12,503.71L903.68,504.68L906.24,505.64L908.80,506.60L911.36,507.54L913.92,508.45L916.48,509.34L919.04,510.19L921.60,511.00L924.16,511.76L926.72,512.48L929.28,513.14L931.84,513.75L934.40,514.30L936.96,514.79L939.52,515.23L942.08,515.60L944.64,515.92L947.20,516.18L949.76,516.39L952.32,516.54L954.88,516.65L957.44,516.70L960.00,516.71L962.56,516.68L965.12,516.61L967.68,516.50L970.24,516.37L972.80,516.20L975.36,516.01L977.92,515.80L980.48,515.57L983.04,515.32L985.60,515.07L988.16,514.81L990.72,514.54L993.28,514.27L995.84,514.00L998.40,513.74L1000.96,513.48L1003.52,513.22L1006.08,512.98L1008.64,512.75L1011.20,512.53L1013.76,512.32L1016.32,512.12L1018.88,511.95L1021.44,511.78L1024.00,511.63" fill="none" stroke="#F5A623" stroke-width="2" opacity="0.6" stroke-linecap="round"/>

</svg>